<svg xmlns="http://www.w3.org/2000/svg" viewBox="0 0 194.55 174.08"><title>Carnotaurus sastrei</title><g class="outline" id="carnataurus_outline" data-name="Carnataurus outline"><path class="cls-1" d="M142.64,305.41" transform="translate(-43.12 -181.38)"/><path class="cls-2" d="M130.41,184.38a8.72,8.72,0,0,1,2.48.38,22.21,22.21,0,0,1,4.4,2,18.53,18.53,0,0,1,3.49,2.31c.62.56,1.16,1.2,1.79,1.75.91.78,2,1.33,3,2a24,24,0,0,1,4,4,27.3,27.3,0,0,1,1.91,2.55c.7,1,1.57,2.76,1.57,2.76a5.81,5.81,0,0,1,1.7-.23c1.11,0,2.24.23,3.38.23a5.38,5.38,0,0,0,4-1.57c3.47-3.3,2.81-11.23,8.26-14.2a8.59,8.59,0,0,1,4.23-1,6.6,6.6,0,0,1,4,1.19,4.11,4.11,0,0,0,2.53.59c.41,0,1.4,1.25,1.76,1.43a10.86,10.86,0,0,1,2.21,1.32c2.56,3.48,1.58,6.44-.3,10.33-.46,1-1.05,1.86-1.47,2.84-1.21,2.85-.82,6.09-.41,9.16l1.28,2.07c2.87,2.44,7.94,5.88,11.58,6.87,1.73.47,3.55.63,5.24,1.24,4,1.46,6.18,3.81,8.63,7.34.2.29.66,2.43.11,3a13.2,13.2,0,0,1-1.65.66c-1.88.87-2.09.61-4.15.81a2.93,2.93,0,0,0-1.55.42,2.7,2.7,0,0,0-.75,1.21,49,49,0,0,0-2.91,15.72c0,6.17,1.32,8.26,2.2,11.34,3.9,13.66,7,19.91,15.82,30.92,3.27-5.09,8.34-6.05,14.2-6.25h.33a2.83,2.83,0,0,1,2.87,1.61c1.07,2.25.65,6.07-1.48,8.92-3.07,4.12-14.73,12.75-18.72,16-7.48,7.16-12.61,1.71-25.7,18.79a22.22,22.22,0,0,1-9.16,6.82c-3.17,1.3-6.69,1.44-10,2.45-3.56,1.09-6.73,3.18-10.19,4.57-4.29,1.73-8.94,2.36-13.53,3-18.83,2.54-37.1,2.52-55.86,2.76h-.68c-4.68,0-10.16-.61-14.09-3s-7.07-5.34-6.93-9.84c0-.32-.11-1.83-.44-1.83h0c-1.18,0-2.16-2.14-1.19-3.24a9.41,9.41,0,0,1,.19-3.66c.25-.91.66-1.73,1.32-1.82l.07,0c.28,0,.4,1.29,1.17,2.75L69,333.3a24.12,24.12,0,0,1,.42-4.88c.24-1.23.57-2.64,1.23-2.72h0c.3,0,.36,2.32.46,3.15a31.74,31.74,0,0,0,.74,4.54l1.19.22a16.75,16.75,0,0,1,1.11-6.76c.4-.9,1.2-2.23,2.19-2.27h0c.27,0-.05,2.67.08,3.75a30.9,30.9,0,0,0,1,5.07l1.32.25a9.7,9.7,0,0,1,.49-4.05c.25-.74,1-2,2-2.06a.06.06,0,0,1,0,0c.27,0,.21,1.53.36,2.33a14.74,14.74,0,0,0,1.24,4l3.13.08a20.22,20.22,0,0,1,0-4.33c.11-1.21.56-3.59,1.54-3.63l.11,0c.58,0,.76,2.46,1.06,3.7a14.55,14.55,0,0,0,1.28,3.77l-.29-.8a16,16,0,0,1,0-3.91c.11-1.21.55-3.59,1.54-3.63a.18.18,0,0,1,.1,0c.61,0,1,2.88,1.44,4.09a11.83,11.83,0,0,0,3,5.29l2-.08a20.59,20.59,0,0,1,.48-5.29c.2-1,1.37-4.59,2.39-4.62h0c.31,0,.41,3.22.46,4.05a22.22,22.22,0,0,0,.83,5.78l1.43-.27a15.58,15.58,0,0,1,.55-5.29c.26-.95,1-3.37,2-3.41l.09,0c.57,0,.55,3.11.75,3.91a15.58,15.58,0,0,0,1.26,4.59l1-.25a19.62,19.62,0,0,1,.25-5.78c.26-.95,1.09-3,2.08-3.08l0,0c.28,0,.1,2.35.11,3.18a13.22,13.22,0,0,0,1.32,5.21l.74-.33a15.33,15.33,0,0,1,.09-4.55c.16-1.07.66-3.75,1.65-3.79l0,0c.31,0,.54,2.91.71,3.73a9.36,9.36,0,0,0,1.59,4.07l2.67-.4a13.58,13.58,0,0,1,0-3.61,5.18,5.18,0,0,1,1.32-2.86s0,0,0,0c.26,0,.47,2,.77,2.72a8.53,8.53,0,0,0,1.52,2.77l.4-.35a13.61,13.61,0,0,1-.32-3.6,5.23,5.23,0,0,1,1.11-3,.05.05,0,0,1,.05,0c.26,0,.61,1.93,1,2.66a8.31,8.31,0,0,0,1.72,2.65l1.57-.64a14,14,0,0,1-1.24-5.12c-.08-1.21.16-4.36.8-4.36h0a.24.24,0,0,1,.13-.05c.52,0,.81,2.22,1.12,3.42a8.89,8.89,0,0,0,2.83,4.47l1.57-.81a13.6,13.6,0,0,1-1.18-3.41,5.2,5.2,0,0,1,.35-3.13.07.07,0,0,1,.06,0c.27,0,1.06,1.73,1.57,2.35a8.56,8.56,0,0,0,2.32,2.14l1.23-.74c-.41-1.65-.79-3.83-.28-4.65,0,0,.05-.06.08-.06.22,0,.63,1,1.11,1.57s.91,1.41,1.41,1.65c7.15-5.15,13.82-6.71,18.1-11.73l-1.39,0c-10.34,0-12-3.25-15.48-4.53a31.66,31.66,0,0,0-4.87-.27,14.41,14.41,0,0,0-.33,3c0,1,.37,3,.12,3.25a.71.71,0,0,1-.32.07,1.71,1.71,0,0,1-1.17-.71,7.45,7.45,0,0,1-1.39-5.79l-1.9,0a8.34,8.34,0,0,0-.54,3.35c0,1.23.37,3.05.14,3.25a.78.78,0,0,1-.33.07,1.73,1.73,0,0,1-1.17-.71,8,8,0,0,1-1.49-6l-2.16.08a41.25,41.25,0,0,0-.23,4.75c0,2.29,1.22,6,.41,6h-.07c-2.22-.49-3.8-3.38-4-3.63a11.68,11.68,0,0,1-1.43-6.91l-2.64-.08c0,1.22,0,3.52.11,6.16s.86,5.36.16,5.36a.23.23,0,0,1-.11,0c-1-.31-2.81-2.09-3.74-4.62a24.22,24.22,0,0,1-.88-6.38l-2.15.16a18.9,18.9,0,0,0-.28,5.17c0,2.48.78,5,.06,5.12h-.07c-.78,0-3.41-2.77-4.17-4.19a18.18,18.18,0,0,1-2.41-6.48L98.61,304a31.4,31.4,0,0,0-.61,4.79c-.21,4,.28,6.16-.42,6.16h0c-.71,0-2.31-3.09-2.79-4.67a22.74,22.74,0,0,1-.88-7.66l-1.93-.11a41.13,41.13,0,0,0-.43,5.56c-.21,4,.73,6.37,0,6.37h-.16a2.58,2.58,0,0,1-1.73-.83,9.85,9.85,0,0,1-2.2-4.4,32.12,32.12,0,0,1-1.12-8.09L84.48,301a29,29,0,0,0-.73,4.66c-.22,4,.11,5.83-.58,5.83h-.06c-.71,0-2-2.12-2.5-3.69a27.13,27.13,0,0,1-1.1-7.48l-2-.61c-.22,1.32-.71,3.42-.77,4.51-.33,2.41-.16,5.51-.87,5.51h0c-.7,0-1.69-3.44-2-5.07a24.75,24.75,0,0,1-.22-6.49l-2.15-.94a36.64,36.64,0,0,0-.58,3.64c-.32,2.4-.18,4.79-.89,4.79h0c-.7,0-2-2.84-2.29-4.46a23.62,23.62,0,0,1-.08-6.28l-2.23-1.65a18,18,0,0,0-.83,5.28c-.16,2.32.25,6.28-.74,6.44h0c-.71,0-2-4.5-2.29-6.12a34.6,34.6,0,0,1-.18-7.64L60,290.69a30,30,0,0,0-.74,3.47c-.49,2.32-.26,4.27-.74,4.37h-.07c-.66,0-1.16-2-1.42-3.56a20.54,20.54,0,0,1-.08-5.86l-.83-.41a11.22,11.22,0,0,0-.74,3.47c-.3,2.17-.26,3.86-.67,3.86a.25.25,0,0,1-.16-.07,5.32,5.32,0,0,1-1.4-3.38,19.18,19.18,0,0,1-.25-5.2,25.28,25.28,0,0,0-.41,3.71c0,1.47.55,3.39-.14,3.39h-.06c-.69,0-1.41-1.88-1.78-3.47a14.48,14.48,0,0,1-.34-5l-.08.1a22.27,22.27,0,0,0-.41,3.46c0,1.48.56,4.05-.14,4.05h-.06c-.69,0-1.59-1.86-1.86-3.47a23,23,0,0,1-.35-6.31,2.29,2.29,0,0,1-1-1.4,5.51,5.51,0,0,1,0-2.18c.37-2.88.73-5.75,1.09-8.63a75.13,75.13,0,0,1,2-11.16,40.45,40.45,0,0,1,6.3-13.37,54.14,54.14,0,0,1,5.06-6.5c3.64-3.62,8.47-6.65,12.72-9.52a196.48,196.48,0,0,1,25.46-14.53,44.81,44.81,0,0,0,8-4.39c2.46-1.86,5.1-4.43,8-4.43a4.58,4.58,0,0,1,1.4.21l.18-.47c.12-6.37,4.18-12.34,7.16-18.1a9.36,9.36,0,0,1,4.61-4.53,6.21,6.21,0,0,1,2.3-.42m0-3A9.15,9.15,0,0,0,127,182a12.33,12.33,0,0,0-6.17,6c-.54,1.06-1.12,2.11-1.74,3.23-2.36,4.3-4.79,8.73-5.53,13.58-2.87.43-5.23,2.31-7.34,4-.42.33-.83.66-1.24,1a38.22,38.22,0,0,1-6.7,3.71l-.76.36a199.55,199.55,0,0,0-25.85,14.76l-1.8,1.2a74.83,74.83,0,0,0-11.36,8.68A41.85,41.85,0,0,0,54.1,244c-.32.45-.64.9-1,1.33a43.76,43.76,0,0,0-6.76,14.33,78.51,78.51,0,0,0-2.06,11.6l-1.08,8.63a8.06,8.06,0,0,0,.12,3.36,5.49,5.49,0,0,0,.83,1.74,27,27,0,0,0,.46,5.66c.1.61,1.1,6,4.82,6h.16l.28,0a3.46,3.46,0,0,0,1.91.9,4.66,4.66,0,0,0,.92.91,3.23,3.23,0,0,0,2,.67H55a3.74,3.74,0,0,0,3.42,2.51,3.66,3.66,0,0,0,.57-.05c.18.67.39,1.37.61,2,.57,1.68,1.52,4.49,4.15,4.49H64l.27-.05a3.18,3.18,0,0,0,2.3-1.48A4.19,4.19,0,0,0,70,308.64h.15a3.18,3.18,0,0,0,1.49-.36c.92,2.9,2.3,4.39,4.12,4.44H76A3,3,0,0,0,78.71,311c.87,1.62,2.33,3.51,4.4,3.51h.15a3.3,3.3,0,0,0,2.49-1.23,9.17,9.17,0,0,0,1.82,2.57,5.55,5.55,0,0,0,3.82,1.67h.24A3.21,3.21,0,0,0,94,316.41a3.6,3.6,0,0,0,.31-.4,4.12,4.12,0,0,0,3.2,2h.23a3.22,3.22,0,0,0,2.22-1c1.11-1.13,1.09-2.51,1-4.4,0-1,0-2.17,0-3.63,0-.4.06-.9.11-1.42l2.21.43a22.53,22.53,0,0,0,2.28,5.33c0,.05,3.54,5.77,6.81,5.77a3.23,3.23,0,0,0,.69-.07,3.27,3.27,0,0,0,2.3-1.79,7.52,7.52,0,0,0,3.18,2.27,3.46,3.46,0,0,0,1,.15,3.25,3.25,0,0,0,2.43-1.09,3.48,3.48,0,0,0,.86-2.14,8.34,8.34,0,0,0,3,2,10.74,10.74,0,0,0-.5,2.3h-.1a3.06,3.06,0,0,0-2.17.91,4.53,4.53,0,0,0-.54.62,3.49,3.49,0,0,0-.82-.09,3,3,0,0,0-2,.75,6,6,0,0,0-1.12,1.32c-.38-1.63-1.15-3-3.16-3h-.91l-.33.22a3.49,3.49,0,0,0-1,.53l-.42-.43-1.31,0a3,3,0,0,0-.59.06,4.24,4.24,0,0,0-2.55,1.49,2.92,2.92,0,0,0-2.28-.92,3,3,0,0,0-.66.07,3.74,3.74,0,0,0-1.91.93,2.83,2.83,0,0,0-2.77-1.84h-.91l-.41.26c-2.27.94-3.39,4.19-3.84,5.91,0-.17-.09-.36-.13-.54-.54-2.23-1.2-5-4-5a3.23,3.23,0,0,0-.69.07,3.66,3.66,0,0,0-1.93,1,3.54,3.54,0,0,0-1.07-.16h0A3.53,3.53,0,0,0,87,323a4.21,4.21,0,0,0-3.15,2.88,2.77,2.77,0,0,0-2.53-1.34,3.18,3.18,0,0,0-.62.06,4,4,0,0,0-1.22.37,3.35,3.35,0,0,0-.91-2.43l-.89-.93H76.4a2.32,2.32,0,0,0-.53.05,4.89,4.89,0,0,0-3.12,1.84,2.79,2.79,0,0,0-2.06-.76h-.91l-.41.26a4.69,4.69,0,0,0-2.52,3.24h0c-1.09.27-2.64,1.15-3.39,3.92a11.76,11.76,0,0,0-.37,3.8,5.35,5.35,0,0,0,1.71,6c0,7.08,6.29,10.87,8.38,12.13,3.77,2.27,9,3.42,15.64,3.42h.71l4.86-.06c17.48-.2,34-.39,51.37-2.73,4.71-.63,9.58-1.29,14.25-3.17,1.55-.62,3-1.35,4.41-2.06A37.16,37.16,0,0,1,170,345a38.52,38.52,0,0,1,4-.9,31.11,31.11,0,0,0,6.27-1.65,25,25,0,0,0,10.4-7.77c7.66-10,12.1-11.63,16.39-13.21a23,23,0,0,0,8.91-5.15c.81-.65,2-1.54,3.25-2.55,7-5.44,13.44-10.6,15.9-13.89,2.65-3.56,3.4-8.61,1.78-12a5.73,5.73,0,0,0-5.58-3.32h-.44c-5,.18-10.09.91-14,4.5-6.76-8.85-9.55-14.81-13-27-.21-.76-.45-1.45-.68-2.12a22.11,22.11,0,0,1-1.4-8.4,46.2,46.2,0,0,1,2.61-14.38l1-.06a9,9,0,0,0,3.91-1l.27-.09a5.63,5.63,0,0,0,2.31-1.2c2-2,.86-5.9.23-6.81-2.82-4.07-5.38-6.76-10.07-8.45a24.33,24.33,0,0,0-3.55-.9c-.68-.13-1.33-.26-1.93-.42-2.8-.76-7.18-3.57-10.06-6l-.69-1.11c-.31-2.38-.56-5,.28-7a14.81,14.81,0,0,1,.7-1.36c.24-.42.48-.86.71-1.34,2-4.1,3.62-8.52,0-13.42-.43-.59-1-1.11-3-2.09l-.19-.19a4.74,4.74,0,0,0-2.94-1.68l-.63,0-.43,0a9.48,9.48,0,0,0-5.75-1.73,11.63,11.63,0,0,0-5.73,1.42c-4.15,2.29-5.54,6.53-6.66,9.93-.64,2-1.25,3.82-2.17,4.7a2.39,2.39,0,0,1-1.9.74c-.42,0-.9-.05-1.41-.1a19.34,19.34,0,0,0-2-.13h0c-.24-.41-.49-.83-.73-1.19a30.75,30.75,0,0,0-2.13-2.83,26.55,26.55,0,0,0-4.47-4.46c-.46-.33-.9-.61-1.33-.89a13,13,0,0,1-1.43-1c-.25-.21-.51-.48-.79-.77s-.6-.61-1-.93a21.39,21.39,0,0,0-4-2.7,24.75,24.75,0,0,0-5-2.3,11.78,11.78,0,0,0-3.32-.5Zm6.83,133.05a3.75,3.75,0,0,0,1.58-.35l.43-.2.35-.32c1.25-1.16,1.11-2.62.93-4.32,0-.35-.08-.78-.09-1a11.8,11.8,0,0,1,1.28.07,13.74,13.74,0,0,1,1.95,1.05,20.89,20.89,0,0,0,7.75,3.06c-.93.52-1.89,1-2.9,1.56-2,1.06-4.21,2.22-6.5,3.68l0,0a3.6,3.6,0,0,0-3.1-2.15,3.09,3.09,0,0,0-2.66,1.54l-.15.26a3,3,0,0,0-2.11-.84,3,3,0,0,0-2.13.86,3.05,3.05,0,0,0-1.25-1.08,6.07,6.07,0,0,0,0-1.87,4,4,0,0,0,1.41.26,3.76,3.76,0,0,0,1.59-.35L134,314l.3-.25a2.36,2.36,0,0,0,.32-.31,4.22,4.22,0,0,0,2.62.95Z" transform="translate(-43.12 -181.38)"/></g><g id="carnataurus"><path class="cls-2" d="M158.5,310.29a32.53,32.53,0,0,1-13.15-2.71,21,21,0,0,1-5.31-3.74,31.07,31.07,0,0,0-3.29-2.63c-1.23-.82-3.45-1.1-5.07-1.3a6.09,6.09,0,0,1-2.19-.46,15,15,0,0,1-5.17-5.54c-.54-.86-1.15-1.85-2-3a34.46,34.46,0,0,1-2.91-5.19c-1.84-3.76-3.58-7.32-7.33-7.92a12.76,12.76,0,0,0-2.53,0,17.31,17.31,0,0,1-4.54-.09c-5.39-1.09-10.23-6.42-14.25-11.48l.79-.63c3.91,4.93,8.59,10.1,13.66,11.13a16.06,16.06,0,0,0,4.27.07,13.46,13.46,0,0,1,2.76,0c4.26.68,6.2,4.64,8.07,8.47a33.11,33.11,0,0,0,2.82,5c.88,1.2,1.5,2.2,2,3.09a14,14,0,0,0,4.87,5.22,9.25,9.25,0,0,0,1.77.31c1.72.21,4.07.5,5.5,1.46a32.2,32.2,0,0,1,3.39,2.71,20.26,20.26,0,0,0,5.06,3.58,32.61,32.61,0,0,0,30.13-2.36l.57-.37a10,10,0,0,1,6.64-2.17l.84,0a24.4,24.4,0,0,0,9.11-2.38c.71-.34,1.41-.72,2.12-1.11a18.76,18.76,0,0,1,6.26-2.47,18.4,18.4,0,0,1,5.3.31c.93.14,1.89.29,2.83.35,2.43.17,5.4-.47,6.49-2.75l.9.43c-1.3,2.73-4.7,3.51-7.45,3.32-1-.06-2-.22-2.92-.36a13.05,13.05,0,0,0-10.94,2.05c-.71.39-1.43.78-2.16,1.13a25.56,25.56,0,0,1-9.48,2.48l-.85,0a12.45,12.45,0,0,0-3.17.41,12.26,12.26,0,0,0-3,1.6l-.58.37A33.26,33.26,0,0,1,158.5,310.29Z" transform="translate(-43.12 -181.38)"/><path class="cls-2" d="M164.24,299.75c-2.88,0-6.46-1.77-10.87-5.35l.63-.78c5,4,8.9,5.71,11.65,4.94.56-.15,1.07-.32,1.56-.47a15.57,15.57,0,0,1,4.06-.9l.36,0c1.82-.13,3.89-.27,4.68-2a5.49,5.49,0,0,0,.32-1,5.53,5.53,0,0,1,.44-1.36c.74-1.41,2.25-1.87,3.7-2.31a8.92,8.92,0,0,0,2.37-1c1.27-.83,2.08-2.45,2.39-4.81a43.71,43.71,0,0,0-.31-11.22c-.17-1.48-.35-3-.47-4.61-.59-7.69-.18-13,1.21-15.68.4-.77.91-1.64,1.46-2.57a32.67,32.67,0,0,0,2.53-4.86,12.39,12.39,0,0,0,.54-3.21,21.38,21.38,0,0,1,.27-2.24,10.87,10.87,0,0,1,5-7.15,5.26,5.26,0,0,1,3.47-.89,3.46,3.46,0,0,1,2.8,3h-1c0-.85-1.1-1.86-1.95-2a4.38,4.38,0,0,0-2.81.75,9.91,9.91,0,0,0-4.54,6.49,21.35,21.35,0,0,0-.25,2.13,13.8,13.8,0,0,1-.6,3.46,32.54,32.54,0,0,1-2.61,5c-.54.91-1.05,1.77-1.43,2.52-1.31,2.54-1.68,7.64-1.1,15.15.12,1.57.29,3.09.46,4.56a43.81,43.81,0,0,1,.31,11.47c-.35,2.66-1.31,4.52-2.83,5.52a9.92,9.92,0,0,1-2.63,1.08c-1.31.4-2.55.77-3.1,1.82a4.6,4.6,0,0,0-.36,1.12,7.24,7.24,0,0,1-.38,1.23c-1,2.21-3.53,2.39-5.52,2.53l-.36,0a15.35,15.35,0,0,0-3.83.86c-.5.16-1,.33-1.59.48A6.14,6.14,0,0,1,164.24,299.75Z" transform="translate(-43.12 -181.38)"/><path class="cls-2" d="M60.17,290.44a25.58,25.58,0,0,1,5-15.23c.61-.88,1.23-1.74,1.86-2.61,2.21-3.07,4.5-6.25,5.76-9.82a40.63,40.63,0,0,0,1.59-7.19c.52-3.32,1.07-6.76,2.71-9.79,2.36-4.35,6.64-7.23,10.51-9.47a32,32,0,0,1,6.65-3.1,55,55,0,0,0,5.2-1.9,10.64,10.64,0,0,1,2.08-1c.53-.32,1-.59,1.53-.86a9.59,9.59,0,0,0,4.42-3.8l0-.09a3.22,3.22,0,0,1,1-1.18,2.37,2.37,0,0,1,3.11.9,10,10,0,0,1,1.19,3.8c.09,1.35.06,2.49,0,3.59s-.05,2.19,0,3.49a9.49,9.49,0,0,0,1.24,4.19l.06.11a33.28,33.28,0,0,0,2.83,4.7,19.58,19.58,0,0,1,4.26,10.05c0,.39.11.77.16,1.16.36,2.55.74,5.19-.38,7.58a17.67,17.67,0,0,1-1.09,1.9A13.5,13.5,0,0,0,118.8,268a14.27,14.27,0,0,0-.68,2.9c-.27,1.69-.55,3.43-1.77,4.73-1.53,1.62-4,1.88-6.24,2.11-.52.06-1,.11-1.5.18-2.27.32-4.83-.9-7-3.34a24,24,0,0,1-3.71-6.7l-1.7-4.07a59.21,59.21,0,0,1-3-8.17,29.76,29.76,0,0,1,1.54-19A11.22,11.22,0,0,1,97,233.38c-.91.33-1.76.61-2.4.8a31.37,31.37,0,0,0-6.43,3c-3.76,2.18-7.9,5-10.14,9.09-1.56,2.87-2.07,6.08-2.61,9.47a41.74,41.74,0,0,1-1.62,7.36c-1.31,3.71-3.64,6.94-5.9,10.07-.62.86-1.24,1.73-1.84,2.6a24.69,24.69,0,0,0-4.86,14.66ZM100,232.2A11.59,11.59,0,0,0,95.71,237a28.75,28.75,0,0,0-1.49,18.39,59,59,0,0,0,2.9,8l1.7,4.07a22.46,22.46,0,0,0,3.54,6.42c.92,1,3.35,3.41,6.11,3,.49-.07,1-.13,1.53-.18,2.14-.22,4.35-.45,5.62-1.81,1-1.07,1.26-2.59,1.52-4.2a14.5,14.5,0,0,1,.73-3.11,13.71,13.71,0,0,1,1.27-2.29,17,17,0,0,0,1-1.78c1-2.13.63-4.61.29-7,0-.39-.11-.78-.16-1.17a18.72,18.72,0,0,0-4.06-9.58,34.27,34.27,0,0,1-2.95-4.87l-.05-.12a10.49,10.49,0,0,1-1.34-4.54c-.08-1.35-.05-2.49,0-3.59a34.32,34.32,0,0,0,0-3.49,9.06,9.06,0,0,0-1-3.32,1.39,1.39,0,0,0-1.73-.61,2.4,2.4,0,0,0-.66.84l0,.09a10.45,10.45,0,0,1-4.8,4.18c-.5.27-1,.54-1.54.86A18.56,18.56,0,0,1,100,232.2Z" transform="translate(-43.12 -181.38)"/><path class="cls-2" d="M85.53,253.06c-1.12-3.45-1-7.56.49-12.56a7.75,7.75,0,0,1,.66-1.71,8.29,8.29,0,0,1,1.55-1.8l2-1.92.69.73-2,1.92a7.26,7.26,0,0,0-1.37,1.57,6.48,6.48,0,0,0-.57,1.49c-1.39,4.8-1.56,8.72-.5,12Z" transform="translate(-43.12 -181.38)"/><path class="cls-2" d="M113.4,238.45l-1-.07c.15-2.1.53-4.74,2.16-6.61a5.56,5.56,0,0,1,3.8-1.84,3.87,3.87,0,0,1,2.91,1l.11.11a1.48,1.48,0,0,0,.32.25c.19.08.63.26,1.69-.36a4.8,4.8,0,0,0,1-1.85c.08-.24.17-.5.29-.81l.16-.42a6.28,6.28,0,0,1,1-1.89,4.75,4.75,0,0,1,2.34-1.6l.33.94a3.73,3.73,0,0,0-1.9,1.31,5.11,5.11,0,0,0-.8,1.58l-.17.45c-.11.29-.2.54-.28.77a5.58,5.58,0,0,1-1.27,2.25l-.11.09a2.86,2.86,0,0,1-2.65.47,2,2,0,0,1-.64-.47l-.09-.09a3,3,0,0,0-2.18-.74,4.55,4.55,0,0,0-3.09,1.51C113.89,234.07,113.55,236.39,113.4,238.45Z" transform="translate(-43.12 -181.38)"/><path class="cls-2" d="M110,224.84l-.73-.68a14.78,14.78,0,0,0,1.81-2.48,1.3,1.3,0,0,0,.2-.61c0-.29-.33-.56-.66-.85l-.28-.23a4.39,4.39,0,0,1,0-6.26,7.84,7.84,0,0,1,2.54-1.37c.34-.13.68-.26,1-.41.48-.22,2-1,2-2.33a4.91,4.91,0,0,0-.11-.88c-.14-.79-.31-1.77.5-2.37a2.26,2.26,0,0,1,1.42-.33c.13,0,.26,0,.38,0a5.45,5.45,0,0,0,2.33-1c1.11-.72,2.26-1.45,3.6-1a4.28,4.28,0,0,1,1.64,1.22c.15.15.29.3.44.44,1.71,1.59,4.26,1.83,6.73,2,4.74.22,10.14.22,14.29-2.6.48-.32.94-.68,1.4-1a10.47,10.47,0,0,1,4-2.26,10.66,10.66,0,0,1,3.38-.08,8.34,8.34,0,0,0,3.47-.18c1.76-.64,3.17-2.56,4.16-5.73a23.42,23.42,0,0,1,3.5-7.52c2.23-3,4.69-3.5,7.94-3.41,1.28,0,3.09.25,4,1.63l-.83.56c-.51-.76-1.54-1.14-3.23-1.19-3-.1-5.12.37-7.11,3a22.6,22.6,0,0,0-3.33,7.22c-1.11,3.53-2.68,5.62-4.79,6.37a9.1,9.1,0,0,1-3.88.23,10.12,10.12,0,0,0-3.07.06,9.67,9.67,0,0,0-3.58,2.07c-.48.38-1,.75-1.46,1.09-4.2,2.84-9.64,3-14.89,2.77-2.54-.12-5.42-.4-7.37-2.22-.17-.15-.32-.31-.48-.47a3.43,3.43,0,0,0-1.25-1c-.88-.3-1.73.25-2.73.89a6,6,0,0,1-2.8,1.2h-.45a1.43,1.43,0,0,0-.83.14c-.29.21-.23.66-.11,1.38a5.48,5.48,0,0,1,.13,1.06c0,1.28-1,2.49-2.62,3.24l-1.06.43a7.08,7.08,0,0,0-2.23,1.18,3.2,3.2,0,0,0-1,2.39,3.16,3.16,0,0,0,1,2.39l.24.21a2.28,2.28,0,0,1,1,1.55,2.13,2.13,0,0,1-.32,1.14A15.36,15.36,0,0,1,110,224.84Z" transform="translate(-43.12 -181.38)"/><path class="cls-2" d="M123.93,267.24a5.66,5.66,0,0,1-2.32-.67,4.56,4.56,0,0,0-2-.6l0-1a5.42,5.42,0,0,1,2.41.69,4.36,4.36,0,0,0,2.09.57,4.27,4.27,0,0,0,1.69-.69,7.51,7.51,0,0,1,1.36-.68,8.23,8.23,0,0,1,4.07.23l.4.09-.21,1-.41-.09a7.6,7.6,0,0,0-3.53-.26,5.91,5.91,0,0,0-1.18.59,5.11,5.11,0,0,1-2.09.83Z" transform="translate(-43.12 -181.38)"/><path class="cls-2" d="M138.08,275a5.17,5.17,0,0,1-3.89-2.13,13.72,13.72,0,0,1-1.95-4.37c-.22-.73-.44-1.39-.64-2a28.35,28.35,0,0,1-1.79-11.68c0-1,.23-2.45.4-3.77.1-.74.19-1.43.24-2,.41-4.12-.81-8-2.1-12.19a56.91,56.91,0,0,1-1.89-7.12,6,6,0,0,1,1.15-4.77c1.19-1.53,2.81-1.46,4.37-1.4,1.26.05,2.4,0,3.61,0l1,0c.37,0,1.58-.11,1.84-.84a2.17,2.17,0,0,0-.13-1.22,9.83,9.83,0,0,1-.23-1.22c-.1-.69-.16-1.06-.47-1.3l-.34-.12a10.76,10.76,0,0,0-1.4-.42,7.06,7.06,0,0,0-1.61-.09,7.91,7.91,0,0,1-1.93-.13,7.48,7.48,0,0,1-3.59-2.69c-.35-.39-.7-.79-1.07-1.14a9.09,9.09,0,0,0-4.54-2.36,3.13,3.13,0,0,0-2.42.29,3.92,3.92,0,0,0-.8.9l-.19.25a10.33,10.33,0,0,1-6.8,3.92l-.25,0c-1,.13-2.16.27-2.48,1l-.92-.38c.54-1.3,2.06-1.49,3.28-1.65l.24,0a9.23,9.23,0,0,0,6.13-3.54l.18-.24a5.13,5.13,0,0,1,1-1.11,4.06,4.06,0,0,1,3.19-.46,10.09,10.09,0,0,1,5,2.62c.38.37.75.78,1.12,1.19a4.8,4.8,0,0,0,4.75,2.49,7.78,7.78,0,0,1,1.85.12,9.94,9.94,0,0,1,1.39.4l0-.06a2.43,2.43,0,0,1,.56.26,5,5,0,0,0,1.83.18,13.28,13.28,0,0,1,6.37,1c3.08,1.43,5,3.75,5.34,6.37.4,3.34-.57,6-2.66,7.31-2.3,1.44-4.78,2.8-7.26,3a12.73,12.73,0,0,1-1.75,0c-1.55-.1-2.53-.11-3,.82a6.1,6.1,0,0,0,.13,2.24,13.77,13.77,0,0,1,.26,2.84c-.23,4.32,1.23,7,4.72,8.71,1,.48,2,1.1,3,1.69l1.18.7,1,.51c1.6.8,3.26,1.64,3.14,4.78s-1.49,4.64-3,6.24c-.4.44-.76.78-1.12,1.13a12.12,12.12,0,0,0-1.44,1.53,12.59,12.59,0,0,0-1.46,2.83c-.22.54-.44,1.07-.7,1.59-.57,1.17-1.85,3.17-4,3.49A3.9,3.9,0,0,1,138.08,275Zm-7-50.41a3,3,0,0,0-2.71,1,4.89,4.89,0,0,0-1,4,58.53,58.53,0,0,0,1.86,7c1.27,4.07,2.58,8.27,2.15,12.59,0,.53-.15,1.23-.25,2-.17,1.29-.36,2.76-.39,3.67a27.57,27.57,0,0,0,1.74,11.34c.2.63.42,1.29.64,2a12.7,12.7,0,0,0,1.8,4.06,3.92,3.92,0,0,0,3.52,1.7c1.67-.25,2.74-2,3.23-2.94.24-.5.45-1,.67-1.53a13.2,13.2,0,0,1,1.58-3.05,12.9,12.9,0,0,1,1.55-1.66c.34-.32.68-.65,1-1,1.51-1.67,2.66-2.93,2.76-5.67.09-2.51-1-3.08-2.59-3.86-.34-.17-.68-.34-1-.54l-1.2-.7c-1-.59-2-1.19-2.91-1.65-3.85-1.88-5.53-4.95-5.28-9.66a13.68,13.68,0,0,0-.25-2.64,5.24,5.24,0,0,1,0-2.86c.83-1.55,2.5-1.44,4-1.35a12.58,12.58,0,0,0,1.62,0c2.26-.16,4.61-1.46,6.8-2.83,2.39-1.49,2.4-4.61,2.19-6.34-.27-2.26-2-4.3-4.76-5.58a12.33,12.33,0,0,0-5.91-.89,6.89,6.89,0,0,1-1,0,5.49,5.49,0,0,1,.17.9,8.84,8.84,0,0,0,.2,1.08,2.91,2.91,0,0,1,.11,1.82c-.31.92-1.32,1.48-2.75,1.52l-1,0c-1.22,0-2.38.08-3.67,0C131.65,224.54,131.37,224.54,131.11,224.54Z" transform="translate(-43.12 -181.38)"/><path class="cls-2" d="M216.93,294.15l-.86-.5c.33-.57.22-.75-1.19-1.87-2.84-2.25-9.47-7.51-14.37-27.64-.21-.84-.5-1.7-.81-2.61a28,28,0,0,1-1.85-9.95,49.27,49.27,0,0,1,3-15.91,3.14,3.14,0,0,1,.91-1.42,3.26,3.26,0,0,1,1.73-.52c.61,0,1-.07,1.38-.09a5.52,5.52,0,0,0,2.68-.68c.08,0,.29-.11.53-.19s.88-.31,1-.39a4.44,4.44,0,0,0-.21-2.33c-2.47-3.56-4.54-5.76-8.38-7.14a19.45,19.45,0,0,0-3-.75c-.71-.14-1.45-.29-2.17-.48-3.9-1.06-7.17-3.54-9.85-5.83a14.22,14.22,0,0,1-4.27-5.15,15.63,15.63,0,0,1-.85-3.64,21,21,0,0,0-.49-2.51,20.48,20.48,0,0,0-2.39-4.94c-.2-.33-.4-.66-.59-1a13.71,13.71,0,0,1-2.26-6.59c0-2.33,1.28-5.06,3.79-5.79l.28,1c-2,.59-3.09,2.87-3.07,4.82a12.72,12.72,0,0,0,2.12,6.09c.19.33.39.66.59,1a21.75,21.75,0,0,1,2.5,5.18,22.13,22.13,0,0,1,.5,2.63,15,15,0,0,0,.8,3.41,13.33,13.33,0,0,0,4,4.77c2.6,2.22,5.76,4.62,9.46,5.62.69.19,1.41.33,2.1.46a21.15,21.15,0,0,1,3.18.8c4.09,1.47,6.27,3.78,8.87,7.53.29.41.83,2.83.05,3.61a3.89,3.89,0,0,1-1.36.6l-.43.16a6.49,6.49,0,0,1-3,.77c-.34,0-.74,0-1.26.08a2.49,2.49,0,0,0-1.29.32,2.33,2.33,0,0,0-.59,1,49,49,0,0,0-2.88,15.54,26.82,26.82,0,0,0,1.79,9.62c.32.94.62,1.82.84,2.7,4.82,19.8,11.26,24.91,14,27.1C216.8,292,217.74,292.77,216.93,294.15Z" transform="translate(-43.12 -181.38)"/><path class="cls-2" d="M135.57,217.72a3.58,3.58,0,0,1,.47-4.42,6.92,6.92,0,0,1,3.94-1.88c.47-.09.94-.16,1.41-.23a16.49,16.49,0,0,0,2.59-.52,16,16,0,0,0,4.24-2.42,25,25,0,0,1,3-1.92l.46.89a24.09,24.09,0,0,0-2.87,1.84,12.72,12.72,0,0,1-7.27,3.12c-.45.07-.91.13-1.36.22a6.11,6.11,0,0,0-3.4,1.58,2.6,2.6,0,0,0-.4,3.14Z" transform="translate(-43.12 -181.38)"/><path class="cls-2" d="M167.12,215.4a15.6,15.6,0,0,1-11.52-5.09l-.42-.48a9.37,9.37,0,0,0-1.23-1.28,9.83,9.83,0,0,0-1.27-.8,8.78,8.78,0,0,1-1.51-1,2.87,2.87,0,0,1-.93-3.54l.85.53c-.42.67,0,1.67.72,2.24a8.1,8.1,0,0,0,1.36.87,10,10,0,0,1,1.4.89,10.26,10.26,0,0,1,1.38,1.42c.13.15.26.31.4.46a14.5,14.5,0,0,0,14,4.37l.35-.09a6.31,6.31,0,0,1,1.77-.29,6.88,6.88,0,0,1,1.94.37,5.81,5.81,0,0,0,1.79.33,2.74,2.74,0,0,0,1.86-1,4.51,4.51,0,0,0,1.06-3.19,12.4,12.4,0,0,0-2.16-5.26l-.24-.4a28.16,28.16,0,0,1-1.89-4.56c-1.26-3.49-2.82-7.84-5.33-9.51l.55-.84c2.79,1.86,4.41,6.38,5.72,10a29.35,29.35,0,0,0,1.8,4.39l.25.4a13.27,13.27,0,0,1,2.3,5.7,5.53,5.53,0,0,1-1.31,3.92,3.66,3.66,0,0,1-2.56,1.3,6.22,6.22,0,0,1-2.12-.37,6,6,0,0,0-1.66-.33,6.64,6.64,0,0,0-1.52.26l-.36.09A14.61,14.61,0,0,1,167.12,215.4Z" transform="translate(-43.12 -181.38)"/><path class="cls-2" d="M110.49,306.35a42.42,42.42,0,0,1-8.67-1.2c-1.95-.41-3.93-.95-5.85-1.48-3.8-1-7.72-2.1-11.5-2.19-4.68-.12-9.17-2-13-3.85a54.14,54.14,0,0,1-5-2.87c-.82-.51-1.65-1-2.48-1.52-2.87-1.68-6-3.12-8.94-4.5-2.19-1-4.45-2.08-6.62-3.23-1.34-.7-2.64-1.55-3.07-3a5.64,5.64,0,0,1,0-2.38l1.08-8.63a76.77,76.77,0,0,1,2-11.24,40.62,40.62,0,0,1,6.38-13.53l1-1.35a39.7,39.7,0,0,1,4.14-5.2,72.4,72.4,0,0,1,11-8.37l1.81-1.21a197.56,197.56,0,0,1,25.53-14.57l.75-.36a40.19,40.19,0,0,0,7.14-4l1.29-1c2.52-2,5.37-4.27,8.53-3.29l-.3.95c-2.65-.82-5.17,1.19-7.61,3.12-.44.36-.88.7-1.31,1a41.7,41.7,0,0,1-7.31,4.09l-.75.35a196.75,196.75,0,0,0-25.4,14.5l-1.82,1.21a72.53,72.53,0,0,0-10.82,8.24,39.88,39.88,0,0,0-4,5.08l-1,1.36a39.68,39.68,0,0,0-6.23,13.21,76.66,76.66,0,0,0-1.95,11.09l-1.09,8.63a4.83,4.83,0,0,0,0,2A4.69,4.69,0,0,0,49,284.63c2.16,1.14,4.41,2.19,6.58,3.2,3,1.4,6.11,2.84,9,4.55.85.5,1.68,1,2.51,1.53A51.3,51.3,0,0,0,72,296.73c3.68,1.79,8,3.64,12.53,3.75a50.67,50.67,0,0,1,11.74,2.23c1.91.52,3.88,1.05,5.8,1.46a41.72,41.72,0,0,0,8.53,1.18c1.46,0,3.85-.24,6-.45,1.34-.13,2.6-.26,3.52-.31a162.6,162.6,0,0,1,22.65.33l-.09,1a165.05,165.05,0,0,0-22.49-.33c-.92.06-2.16.18-3.49.32-2.13.21-4.55.45-6.06.45Z" transform="translate(-43.12 -181.38)"/><path class="cls-2" d="M69.65,259.66l-1-.1a21.74,21.74,0,0,0-.42-6.92,2.56,2.56,0,0,0-.42-1.07,2.82,2.82,0,0,0-2.3-.53l-6.18.3a2.91,2.91,0,0,0-1.27.24,3,3,0,0,0-.37.25l-.34.25a3,3,0,0,1-2.1.41l.18-1a1.92,1.92,0,0,0,1.38-.27l.27-.19a3.16,3.16,0,0,1,.5-.34,4,4,0,0,1,1.71-.36l6.18-.3c.79,0,2.28-.11,3.11.89a3.42,3.42,0,0,1,.63,1.49A22.58,22.58,0,0,1,69.65,259.66Z" transform="translate(-43.12 -181.38)"/><path class="cls-2" d="M151.08,250.49a12.55,12.55,0,0,1-4.68-2.36,12.23,12.23,0,0,1-2-2.54l-.46-.72a20.94,20.94,0,0,0-5.57-5.61l-.11-.08c-1-.67-2.1-1.43-2.34-2.71l1-.18c.16.87,1.05,1.48,1.91,2.06l.12.08a22.07,22.07,0,0,1,5.83,5.89c.16.24.32.49.47.74a8.57,8.57,0,0,0,6.11,4.48Z" transform="translate(-43.12 -181.38)"/><path class="cls-2" d="M118.76,247.1l-.54-2a14.63,14.63,0,0,0-1.1-3.12,4.44,4.44,0,0,0-2.18-2.08l.35-.93a5.34,5.34,0,0,1,2.71,2.54,14.78,14.78,0,0,1,1.18,3.34l.55,2Z" transform="translate(-43.12 -181.38)"/><path class="cls-2" d="M116.5,207.44l-1,0c.1-5.27,2.82-10.23,5.45-15,.6-1.1,1.21-2.2,1.77-3.29a9.85,9.85,0,0,1,4.87-4.77,7.87,7.87,0,0,1,5.1-.05,22,22,0,0,1,4.51,2.08,19.24,19.24,0,0,1,3.57,2.37c.29.27.57.55.84.83s.62.63.95.92a15.72,15.72,0,0,0,1.71,1.2c.41.27.82.53,1.21.81a23.87,23.87,0,0,1,4,4.06,25.27,25.27,0,0,1,3.56,5.43l-.91.41a24.5,24.5,0,0,0-3.41-5.2,23.74,23.74,0,0,0-3.87-3.89c-.38-.27-.77-.52-1.16-.77a16.89,16.89,0,0,1-1.82-1.3c-.36-.3-.68-.64-1-1s-.52-.54-.8-.78a17.47,17.47,0,0,0-3.39-2.24,21,21,0,0,0-4.3-2,7,7,0,0,0-4.45,0,8.82,8.82,0,0,0-4.35,4.3c-.57,1.1-1.18,2.2-1.79,3.31C119.25,197.57,116.6,202.41,116.5,207.44Z" transform="translate(-43.12 -181.38)"/><path class="cls-2" d="M143.53,206.63A8.88,8.88,0,0,0,143,205l-1.46-3.78a4.81,4.81,0,0,0-1.56-2.45l.54-.84a5.7,5.7,0,0,1,1.95,2.93l1.46,3.78a9.18,9.18,0,0,1,.57,1.82Z" transform="translate(-43.12 -181.38)"/><path class="cls-2" d="M147.33,202.19l-1-.08a3.07,3.07,0,0,0-1.43-2.82l.52-.86A4.09,4.09,0,0,1,147.33,202.19Z" transform="translate(-43.12 -181.38)"/><path class="cls-2" d="M138.75,207.8h-1c0-.45,0-.91,0-1.36a14,14,0,0,0-.54-5.42l.94-.36a14.65,14.65,0,0,1,.6,5.81C138.77,206.91,138.75,207.35,138.75,207.8Z" transform="translate(-43.12 -181.38)"/><path class="cls-2" d="M133.54,208a7.63,7.63,0,0,1,0-3.33l.34-2.24,1,.15-.34,2.24a6.92,6.92,0,0,0,0,2.9Z" transform="translate(-43.12 -181.38)"/><path class="cls-2" d="M182,212.32c-.38-2.83-.85-6.36.44-9.41a16.88,16.88,0,0,1,.86-1.7c.22-.38.43-.77.62-1.17,1.76-3.63,2.81-6.46.35-9.81a8.64,8.64,0,0,0-2-1.17,4.13,4.13,0,0,1-.81-.68,4.63,4.63,0,0,0-.82-.71,6,6,0,0,1-1.34-.31,4.61,4.61,0,0,0-1.15-.27l.08-1a6.1,6.1,0,0,1,1.38.32,5.36,5.36,0,0,0,1.15.27c.4,0,.79.39,1.4,1a5,5,0,0,0,.55.5,7.31,7.31,0,0,1,2.38,1.47c2.79,3.8,1.6,7-.25,10.85-.2.41-.42.81-.64,1.22a17.16,17.16,0,0,0-.82,1.59c-1.18,2.81-.75,6.05-.37,8.9Z" transform="translate(-43.12 -181.38)"/><path class="cls-2" d="M172.42,294.07a32.36,32.36,0,0,1-4.18-.27,9.49,9.49,0,0,1-3.69-1.08c-3.23-1.92-3.69-6.17-4.07-9.58s-1-7.31-3.06-10.48a10.43,10.43,0,0,1-1-2.12,13,13,0,0,0-.59-1.45c-1.35-2.71-1.14-5.81-.94-8.8.13-1.83.15-3.51.17-5.14s0-3.33.17-5.15a13,13,0,0,1,1.48-4.6,13.37,13.37,0,0,1,5.59-5.81c3.21-1.82,5-5,6.71-8.1l.39-.71c.89-1.67,1.6-3,4-3.36a28.35,28.35,0,0,1,6.86-.23c.86.11,3.28.82,4.06,1.71a10,10,0,0,1,1.54,4.1,20.15,20.15,0,0,1,.18,5.36c-.05.76-.1,1.58-.11,2.52a18.43,18.43,0,0,0,.48,4.43c.44,2,1.17,3.08,2.21,3.36l-.26,1c-1.43-.39-2.39-1.73-2.93-4.12a19.18,19.18,0,0,1-.5-4.65c0-1,.06-1.8.11-2.57a20,20,0,0,0-.16-5.13,8.88,8.88,0,0,0-1.32-3.61,7.84,7.84,0,0,0-3.43-1.37,27.42,27.42,0,0,0-6.57.21c-1.88.3-2.37,1.21-3.25,2.85l-.4.73c-1.79,3.21-3.64,6.52-7.08,8.48a13.44,13.44,0,0,0-6.58,9.61c-.12,1.79-.14,3.47-.16,5.09s0,3.34-.17,5.15c-.19,2.91-.39,5.86.83,8.33a13.47,13.47,0,0,1,.64,1.55,9.23,9.23,0,0,0,.88,1.93c2.15,3.35,2.83,7.39,3.22,10.91.35,3.19.78,7.16,3.58,8.83a8.6,8.6,0,0,0,3.3.95,31.78,31.78,0,0,0,8.82-.1l.15,1A33.71,33.71,0,0,1,172.42,294.07Z" transform="translate(-43.12 -181.38)"/><path class="cls-2" d="M149.88,260.09l-.64-.77a19.23,19.23,0,0,0,2.57-2.45c.33-.4.63-.84.93-1.27a9.06,9.06,0,0,1,2.54-2.77l.53.85a8.35,8.35,0,0,0-2.25,2.49c-.31.45-.63.91-1,1.33A19.39,19.39,0,0,1,149.88,260.09Z" transform="translate(-43.12 -181.38)"/><path class="cls-2" d="M190.05,264.81a4.3,4.3,0,0,1-.89-2.59l-.57-5.74,1-.1.57,5.74a3.32,3.32,0,0,0,.62,2Z" transform="translate(-43.12 -181.38)"/><path class="cls-2" d="M198.77,284.29c-2.82-1.22-4-4.71-4.65-7.6-.24-1-.4-2-.55-3a15.37,15.37,0,0,0-1.88-6.08l.85-.52a16.09,16.09,0,0,1,2,6.45c.15.93.31,1.9.54,2.9.63,2.67,1.66,5.87,4.08,6.92Z" transform="translate(-43.12 -181.38)"/><path class="cls-2" d="M177.73,303.48a10.17,10.17,0,0,0-4.39-1l-1.12,0a20.36,20.36,0,0,1-3.71-.36,6.73,6.73,0,0,1-4.27-2.65l.83-.55a5.76,5.76,0,0,0,3.66,2.22,19.71,19.71,0,0,0,3.52.34l1.15,0a11.25,11.25,0,0,1,4.82,1.14Z" transform="translate(-43.12 -181.38)"/><path class="cls-2" d="M207.46,233.85a26,26,0,0,1-3.74-2.91l-1-.83a11.16,11.16,0,0,1-2.61-2.81,10.48,10.48,0,0,1-1-2.63l-.69-2.45,1-.27.68,2.46a10.2,10.2,0,0,0,.88,2.39,10.36,10.36,0,0,0,2.4,2.55l1,.84A25.14,25.14,0,0,0,208,233Z" transform="translate(-43.12 -181.38)"/><path class="cls-2" d="M171.28,229.14l-.84-.56a10.6,10.6,0,0,1,7.89-4.58c.67-.05,1.3-.15,1.41-.5s-.19-.63-.45-.86a7.93,7.93,0,0,0-2.12-1.21,7.65,7.65,0,0,1-2.68-1.69,5,5,0,0,1-1.21-3.12v-.15c0-.82-.1-1.46-.5-1.61l.36-.93c1,.39,1.1,1.6,1.14,2.49v.15a4,4,0,0,0,.95,2.5,7,7,0,0,0,2.35,1.45,9.14,9.14,0,0,1,2.38,1.37,1.84,1.84,0,0,1,.73,1.91c-.32,1-1.6,1.14-2.29,1.19A9.57,9.57,0,0,0,171.28,229.14Z" transform="translate(-43.12 -181.38)"/><path class="cls-2" d="M195,225.64l-2.82-1.13a9,9,0,0,1-2.25-1.17c-.18-.14-.36-.31-.53-.47l-.43-.37a7.7,7.7,0,0,0-1-.69l-2.61-1.58.52-.86,2.61,1.58a9.13,9.13,0,0,1,1.14.77c.17.13.32.28.47.42s.32.29.48.42a8.2,8.2,0,0,0,2,1l2.82,1.13Z" transform="translate(-43.12 -181.38)"/><path class="cls-2" d="M121.82,229.69l-.25-2.49a6.16,6.16,0,0,1,0-1.55,6.5,6.5,0,0,1,.59-1.74,4.19,4.19,0,0,0,.51-1.83,2.55,2.55,0,0,0-1.34-2,7,7,0,0,0-2.63-.78,12.69,12.69,0,0,0-2.63-.14,2.15,2.15,0,0,0-1.72.75,2.58,2.58,0,0,0-.24.9c0,.14,0,.27-.07.41a4.85,4.85,0,0,1-2.62,3.37l-.43-.91a3.79,3.79,0,0,0,2.07-2.66c0-.12,0-.24.06-.36a3.41,3.41,0,0,1,.37-1.26A3,3,0,0,1,116,218.2a14.57,14.57,0,0,1,2.84.15,8.06,8.06,0,0,1,3,.91,3.56,3.56,0,0,1,1.82,2.77,5,5,0,0,1-.6,2.29,5.6,5.6,0,0,0-.51,1.47,5.77,5.77,0,0,0,0,1.31l.24,2.5Z" transform="translate(-43.12 -181.38)"/><path class="cls-2" d="M88.46,353c-6.14,0-10.95-1-14.32-3.06-3.16-1.9-7.34-5-7.18-10.28a5.86,5.86,0,0,0-.17-1.34,2.24,2.24,0,0,1-1.59-1.38,2.46,2.46,0,0,1,.25-2.67c1.16-1.32,3-1.24,4.63-1.17l.63,0c2.87.08,5.79.2,8.74.32,15.19.62,30.89,1.26,43.85-3,5.33-1.76,13.69-5.7,18.68-9.54a57.26,57.26,0,0,1,8.06-5c3.41-1.84,6.36-3.44,8.75-6.25l.76.65c-2.51,3-5.68,4.67-9,6.48a55.8,55.8,0,0,0-7.93,4.92c-5.08,3.91-13.57,7.92-19,9.7-13.13,4.32-28.92,3.68-44.2,3.06-3-.12-5.87-.24-8.72-.32l-.66,0c-1.47-.07-3-.13-3.83.83a1.52,1.52,0,0,0-.09,1.6c.22.48.6.81.91.81h0a.68.68,0,0,1,.46.19c.47.49.48,2.14.48,2.16-.11,3.59,2,6.58,6.69,9.39,3.29,2,8.31,3,14.5,2.92l4.87-.06c17.36-.2,33.76-.39,50.93-2.7,4.5-.6,9.15-1.23,13.42-2.95,1.41-.57,2.8-1.27,4.15-1.94a38.78,38.78,0,0,1,6.08-2.64,39.19,39.19,0,0,1,4.33-1,28.19,28.19,0,0,0,5.59-1.45,21.69,21.69,0,0,0,8.95-6.66c8.28-10.79,13.43-12.69,18-14.37a19.48,19.48,0,0,0,7.79-4.48c.87-.71,2.06-1.63,3.43-2.7,5.12-4,12.85-10,15.23-13.22,2.16-2.89,2.35-6.48,1.43-8.4-.54-1.16-1.49-1.36-2.73-1.32-5,.17-10.48,1.06-13.88,6.35l-.84-.54c3.65-5.68,9.47-6.63,14.68-6.81a3.53,3.53,0,0,1,3.68,1.89c1.22,2.56.56,6.62-1.53,9.43-2.47,3.3-10.26,9.38-15.43,13.41-1.36,1.07-2.54,2-3.38,2.66a20.45,20.45,0,0,1-8.11,4.67c-4.41,1.63-9.42,3.48-17.51,14a22.78,22.78,0,0,1-9.37,7,29.54,29.54,0,0,1-5.79,1.5,38.45,38.45,0,0,0-4.22,1,39.37,39.37,0,0,0-5.92,2.57c-1.37.69-2.78,1.4-4.23,2-4.38,1.76-9.09,2.4-13.65,3-17.23,2.32-33.67,2.51-51.06,2.71l-4.86.06Z" transform="translate(-43.12 -181.38)"/><path class="cls-2" d="M155,325.84l-.88-.48a1.1,1.1,0,0,0,0-1,1.09,1.09,0,0,0-.76-.65,2,2,0,0,0-1,.14,8.75,8.75,0,0,0-1.07.52c-.34.18-.68.36-1,.51a3.11,3.11,0,0,1-2.72,0,2.87,2.87,0,0,1-1.16-3.15,7.23,7.23,0,0,1,1.54-2.74c.34-.45.75-1,1.16-1.57s.83-1.15,1.18-1.61l.8.61c-.35.45-.76,1-1.17,1.58s-.83,1.15-1.18,1.6a6.38,6.38,0,0,0-1.35,2.36,1.89,1.89,0,0,0,.68,2,2.2,2.2,0,0,0,1.84-.07,10.4,10.4,0,0,0,.95-.46,9.92,9.92,0,0,1,1.18-.57,2.84,2.84,0,0,1,1.61-.19,2.21,2.21,0,0,1,1.46,3.11Z" transform="translate(-43.12 -181.38)"/><path class="cls-2" d="M205.57,300.41l-.45-.9a39.94,39.94,0,0,1,6.12-2.52c.65-.22,1.38-.47,2.27-.79.5-.18,3.68-1.74,4.12-2.05a5.81,5.81,0,0,0,1.19-1.27c.19-.24.37-.48.58-.71l.75.66c-.19.21-.37.44-.54.66a6.5,6.5,0,0,1-1.4,1.47c-.51.36-3.79,2-4.36,2.19l-2.29.79A38.5,38.5,0,0,0,205.57,300.41Z" transform="translate(-43.12 -181.38)"/><path class="cls-2" d="M159.37,341.76a45.45,45.45,0,0,1-6.87-.63c-1.67-.26-3-.46-3.93-2.14a3.61,3.61,0,0,1-.37-1.86c0-.21,0-.43,0-.65a9,9,0,0,1,.36-3.09,12.75,12.75,0,0,1,1.21-2.76l.58-.91a17.56,17.56,0,0,1,3-3.83l.21-.21a2.6,2.6,0,0,1,1-.75,2.93,2.93,0,0,1,1.24-.06A20.2,20.2,0,0,0,168.47,322c.84-.53,1.68-1.16,2.49-1.77,1.95-1.48,4-3,6.44-3.47a5,5,0,0,1,3.43.44c1.65,1,2.37,3.09,2.1,6.13a6.85,6.85,0,0,1-.49,2.22,7.42,7.42,0,0,1-1.42,1.94l-2.59,2.86c-1.3,1.43-2.65,2.91-4.09,4.27a40.31,40.31,0,0,1-5.15,4.15,18,18,0,0,1-3.76,2h0A18,18,0,0,1,159.37,341.76Zm-4.17-15.93a1.38,1.38,0,0,0-.37.05,1.78,1.78,0,0,0-.62.49,3,3,0,0,1-.25.25,16.85,16.85,0,0,0-2.8,3.63l-.58.92a11.22,11.22,0,0,0-1.1,2.53,7.91,7.91,0,0,0-.31,2.69c0,.25,0,.49,0,.73a2.71,2.71,0,0,0,.24,1.38c.67,1.2,1.52,1.38,3.21,1.64,4.09.63,8.76,1.1,12.43-.24a16.83,16.83,0,0,0,3.55-1.93,39.9,39.9,0,0,0,5-4c1.41-1.34,2.74-2.81,4-4.22l2.6-2.86a6.89,6.89,0,0,0,1.24-1.68,5.82,5.82,0,0,0,.4-1.9c.17-1.83,0-4.22-1.61-5.18a4,4,0,0,0-2.73-.32c-2.24.43-4.08,1.81-6,3.28-.83.63-1.68,1.27-2.56,1.83a21.1,21.1,0,0,1-13.29,3C155.52,325.85,155.35,325.83,155.2,325.83Z" transform="translate(-43.12 -181.38)"/><path class="cls-2" d="M204,313.07a9.35,9.35,0,0,1-3.17-.47,11.64,11.64,0,0,1-1.09-.48,10.69,10.69,0,0,0-1.05-.45,2.54,2.54,0,0,0-1.89,0l-.46-.88a3.38,3.38,0,0,1,2.68,0c.39.14.77.32,1.15.5a9.8,9.8,0,0,0,1,.44,11.6,11.6,0,0,0,4.42.36l9.93-.48.05,1-9.94.49C205.06,313,204.51,313.07,204,313.07Z" transform="translate(-43.12 -181.38)"/><path class="cls-2" d="M181.38,327.36l-.65-.76a13.21,13.21,0,0,0,3.88-4.55,14.85,14.85,0,0,0,.53-1.78,7.88,7.88,0,0,1,1.39-3.28,6.6,6.6,0,0,1,2.64-1.72c.47-.2,1-.36,1.43-.53a8.55,8.55,0,0,0,5.93-4.84c.23-.38.46-.76.7-1.13,1.4-2.12,3-3.28,4.65-3.44l.1,1c-1.38.13-2.69,1.14-3.91,3-.24.36-.46.73-.69,1.11a12.61,12.61,0,0,1-2.7,3.44,12.81,12.81,0,0,1-3.74,1.81c-.47.16-.94.33-1.39.51a5.78,5.78,0,0,0-2.25,1.45,7.07,7.07,0,0,0-1.19,2.87,13.1,13.1,0,0,1-.58,1.91A13.81,13.81,0,0,1,181.38,327.36Z" transform="translate(-43.12 -181.38)"/><path class="cls-2" d="M91.34,315a3.07,3.07,0,0,1-2-1A10.42,10.42,0,0,1,87,309.4a32.89,32.89,0,0,1-1.14-8.22l1-.05a32.1,32.1,0,0,0,1.1,8A9.47,9.47,0,0,0,90,313.29a2.29,2.29,0,0,0,1.3.69c0-.26,0-.73-.1-1.15a28.36,28.36,0,0,1-.2-4.75c0-.21,0-.52,0-.89a28.94,28.94,0,0,1,.41-4.77l1,.26a30.3,30.3,0,0,0-.37,4.55c0,.37,0,.68,0,.91a27,27,0,0,0,.19,4.58c.13,1.13.2,1.7-.13,2a.75.75,0,0,1-.57.22Zm.14-1h0Z" transform="translate(-43.12 -181.38)"/><path class="cls-2" d="M72.75,339.64a1.56,1.56,0,0,1-.8-.54L71.8,339a2.59,2.59,0,0,0-1.87-.34H69.8a8.86,8.86,0,0,1-2.89-.32l.22-1a8.15,8.15,0,0,0,2.64.29h.12a3.44,3.44,0,0,1,2.6.61,2,2,0,0,1,.2.21,1,1,0,0,0,.26.23Z" transform="translate(-43.12 -181.38)"/><path class="cls-2" d="M137.24,311.93a2.13,2.13,0,0,1-1.56-.89,8,8,0,0,1-1.5-6.2l1,.18a7,7,0,0,0,1.28,5.38,1.56,1.56,0,0,0,.7.52c0-.32-.06-.91-.1-1.32s-.11-1.07-.11-1.49a14.79,14.79,0,0,1,.34-3.07l1,.2a13.63,13.63,0,0,0-.32,2.87c0,.37.06.88.11,1.39.13,1.36.18,1.92-.15,2.23l-.13.08A1.24,1.24,0,0,1,137.24,311.93Z" transform="translate(-43.12 -181.38)"/><path class="cls-2" d="M132.05,312.06a2.11,2.11,0,0,1-1.55-.89,8.46,8.46,0,0,1-1.6-6.37l1,.18a7.4,7.4,0,0,0,1.39,5.55,1.44,1.44,0,0,0,.68.51c0-.24,0-.61-.08-.91a13.73,13.73,0,0,1-.13-1.91v-.15a8.3,8.3,0,0,1,.59-3.41l.88.47a7.69,7.69,0,0,0-.47,3v.15a13.73,13.73,0,0,0,.12,1.77c.12,1.08.17,1.57-.16,1.85l-.11.07A1.25,1.25,0,0,1,132.05,312.06Zm-.11-.79Z" transform="translate(-43.12 -181.38)"/><path class="cls-2" d="M127.4,316.27l-.16,0c-1.49-.33-3-1.67-4.25-3.79a12.21,12.21,0,0,1-1.53-7.33l1,.18a11.19,11.19,0,0,0,1.36,6.56,7.11,7.11,0,0,0,3.39,3.34,15.44,15.44,0,0,0-.29-2.27,21,21,0,0,1-.4-3.21,42.12,42.12,0,0,1,.23-4.81l1,.11a40,40,0,0,0-.23,4.69,22.44,22.44,0,0,0,.38,3c.33,1.92.47,2.86,0,3.3A.7.7,0,0,1,127.4,316.27Z" transform="translate(-43.12 -181.38)"/><path class="cls-2" d="M83.05,312c-1.17,0-2.56-2.87-2.92-4A28.13,28.13,0,0,1,79,300.32l1-.05a26.91,26.91,0,0,0,1.08,7.37,7.45,7.45,0,0,0,2,3.3,13.55,13.55,0,0,0,.1-2c0-.87,0-2,.09-3.3a28.94,28.94,0,0,1,.75-4.76l1,.26a29.68,29.68,0,0,0-.71,4.55c-.07,1.32-.09,2.4-.09,3.26,0,1.68,0,2.45-.45,2.84a.77.77,0,0,1-.6.21Zm.08-1Z" transform="translate(-43.12 -181.38)"/><path class="cls-2" d="M97.48,315.49c-1.31,0-3-4.42-3.2-5a23.28,23.28,0,0,1-.91-7.82l1,0a22.23,22.23,0,0,0,.86,7.51,13.9,13.9,0,0,0,2.21,4.2,12.82,12.82,0,0,0,0-1.7c0-1,0-2.29,0-3.88a30.93,30.93,0,0,1,.63-4.89l1,.26a30.39,30.39,0,0,0-.59,4.68c-.08,1.56-.06,2.81,0,3.81,0,1.54.05,2.25-.35,2.62a.76.76,0,0,1-.58.21Z" transform="translate(-43.12 -181.38)"/><path class="cls-2" d="M119.59,317.16a.93.93,0,0,1-.27,0c-1.24-.39-3.11-2.34-4.06-4.93a23.56,23.56,0,0,1-.9-6.34v-.19l1-.05v.19a22.61,22.61,0,0,0,.84,6.05,8.19,8.19,0,0,0,3.2,4.23,17.92,17.92,0,0,0-.2-2.2c-.1-.77-.22-1.64-.28-2.54-.09-2.09-.1-3.91-.11-5.25v-.94l1,0v1c0,1.32,0,3.14.1,5.19.07.85.18,1.71.28,2.47.25,2,.34,2.84-.14,3.25A.71.71,0,0,1,119.59,317.16Z" transform="translate(-43.12 -181.38)"/><path class="cls-2" d="M112.39,316.61c-1.24,0-4-3.46-4.59-4.46a18.58,18.58,0,0,1-2.46-6.64l1-.17a17.6,17.6,0,0,0,2.35,6.33,13.68,13.68,0,0,0,3.6,3.88,11.27,11.27,0,0,0-.13-1.74,22.37,22.37,0,0,1-.23-2.84,19.26,19.26,0,0,1,.29-5.29l1,.24a18.82,18.82,0,0,0-.26,5,22.88,22.88,0,0,0,.22,2.76c.2,1.61.34,2.77-.59,2.9Z" transform="translate(-43.12 -181.38)"/><path class="cls-2" d="M75.74,310.21c-1.42,0-2.39-5.43-2.4-5.48a25.47,25.47,0,0,1-.22-6.62l1,.08a24,24,0,0,0,.21,6.37A16.65,16.65,0,0,0,75.75,309a18.05,18.05,0,0,0,.24-2.35c.05-.81.1-1.73.21-2.55a27.56,27.56,0,0,1,.49-3c.11-.55.21-1.07.29-1.51l1,.16c-.07.45-.18,1-.29,1.54a28.26,28.26,0,0,0-.47,2.92c-.11.83-.16,1.69-.22,2.52-.11,1.87-.19,2.86-.65,3.27a.76.76,0,0,1-.54.19Z" transform="translate(-43.12 -181.38)"/><path class="cls-2" d="M69.9,306.14c-1.21,0-2.51-3.64-2.72-4.88a23.86,23.86,0,0,1-.09-6.4l1,.08a22.8,22.8,0,0,0,.08,6.15,9.58,9.58,0,0,0,1.75,4,10.8,10.8,0,0,0,.26-2.09c0-.68.11-1.44.22-2.21a17.28,17.28,0,0,1,.36-2.45c.07-.39.15-.79.22-1.2l1,.16c-.07.42-.14.83-.22,1.23a18.88,18.88,0,0,0-.35,2.35c-.1.78-.16,1.53-.21,2.2-.14,1.82-.26,3.12-1.23,3.06Z" transform="translate(-43.12 -181.38)"/><path class="cls-2" d="M63.74,305.48c-.49,0-1-.54-1.74-2.74A28.68,28.68,0,0,1,61,299a34.52,34.52,0,0,1-.19-7.77l1,.09a34.62,34.62,0,0,0,.18,7.51,22.14,22.14,0,0,0,1.81,5.58,16.58,16.58,0,0,0,.21-3.52c0-.81,0-1.65.05-2.34v-.17a17.71,17.71,0,0,1,.86-5.28l.92.4a16.73,16.73,0,0,0-.78,4.93v.18c0,.67,0,1.49,0,2.28,0,2.48,0,4.44-1.12,4.63Z" transform="translate(-43.12 -181.38)"/><path class="cls-2" d="M58.44,299a.83.83,0,0,1-.5-.16c-.58-.4-1.06-1.68-1.41-3.81a20.78,20.78,0,0,1-.09-6l1,.08a20.14,20.14,0,0,0,.07,5.74,10.71,10.71,0,0,0,.8,2.9c0-.26.07-.62.09-.93a21.62,21.62,0,0,1,.36-2.81,29.51,29.51,0,0,1,.76-3.52l.95.3a29.77,29.77,0,0,0-.73,3.4A21.47,21.47,0,0,0,59.4,297c-.1,1.21-.15,1.94-.79,2.07A.52.52,0,0,1,58.44,299Z" transform="translate(-43.12 -181.38)"/><path class="cls-2" d="M54.7,296.54a.8.8,0,0,1-.46-.16c-.77-.58-1.34-1.9-1.59-3.72l-.06-.39a18.8,18.8,0,0,1-.2-4.93l1,.09a17.73,17.73,0,0,0,.19,4.69l.06.4a6.45,6.45,0,0,0,.89,2.73c0-.33.09-.78.13-1.2s.12-1.23.21-1.94a11.81,11.81,0,0,1,.77-3.58l.94.35a10.52,10.52,0,0,0-.71,3.32c-.1.74-.16,1.39-.21,1.94-.14,1.46-.2,2.12-.7,2.34A.59.59,0,0,1,54.7,296.54Z" transform="translate(-43.12 -181.38)"/><path class="cls-2" d="M49.41,294.08c-1.14,0-2.07-2.51-2.3-3.89L47,289.7a19.14,19.14,0,0,1-.33-5.58l1,.09a18.48,18.48,0,0,0,.33,5.32l.08.5a6.16,6.16,0,0,0,1.26,3,12.28,12.28,0,0,0-.08-1.86c-.05-.56-.11-1.14-.11-1.62a22,22,0,0,1,.42-3.54l1,.16a20.72,20.72,0,0,0-.41,3.39c0,.42,0,1,.1,1.51.15,1.51.21,2.38-.21,2.8a.78.78,0,0,1-.59.23Z" transform="translate(-43.12 -181.38)"/><path class="cls-2" d="M52.21,295c-1.17,0-1.93-2.68-2.2-3.86a15.1,15.1,0,0,1-.35-5.2l1,.09a14.36,14.36,0,0,0,.32,4.89,7.54,7.54,0,0,0,1.21,3,11.85,11.85,0,0,0-.09-1.24A13.31,13.31,0,0,1,52,291.1a25.69,25.69,0,0,1,.42-3.8l1,.17a25.34,25.34,0,0,0-.4,3.64c0,.45.06.95.11,1.44.12,1,.2,1.8-.19,2.2a.77.77,0,0,1-.62.24Z" transform="translate(-43.12 -181.38)"/><path class="cls-2" d="M72.57,333.63a17.21,17.21,0,0,1,1.16-7c.31-.72,1.18-2.38,2.47-2.56l.15-.1.32.15c.39.22.37.71.31,2.18a13.82,13.82,0,0,0,0,1.94,28.22,28.22,0,0,0,1,5l-1,.29a31.15,31.15,0,0,1-1-5.15,16.21,16.21,0,0,1,0-2.1c0-.35,0-.77,0-1.08A4.28,4.28,0,0,0,74.64,327a16.29,16.29,0,0,0-1.07,6.52Z" transform="translate(-43.12 -181.38)"/><path class="cls-2" d="M95.52,334.74a12.19,12.19,0,0,1-3.11-5.5c-.12-.37-.25-.88-.38-1.42a12.37,12.37,0,0,0-.69-2.31c-.37.08-.88,1.42-1,3.18a14,14,0,0,0,0,3.21l0,.62-1,.07,0-.61a14.85,14.85,0,0,1,0-3.38c.09-.92.47-3.9,1.93-4.08a.75.75,0,0,1,.51,0c.55.26.82,1.17,1.27,3,.12.51.24,1,.35,1.34A11.35,11.35,0,0,0,96.19,334Z" transform="translate(-43.12 -181.38)"/><path class="cls-2" d="M103,334a16.09,16.09,0,0,1,.57-5.44c.64-2.39,1.43-3.66,2.35-3.78a.7.7,0,0,1,.53.05c.5.29.61,1.12.76,2.95,0,.51.09,1,.14,1.26s.14.66.21,1.07a10.48,10.48,0,0,0,1,3.39l-.87.5a11.14,11.14,0,0,1-1.11-3.72c-.07-.38-.13-.72-.2-1a12.43,12.43,0,0,1-.16-1.42,14.2,14.2,0,0,0-.27-2.05c-.31.17-.89,1.05-1.41,3a15,15,0,0,0-.54,5.12Z" transform="translate(-43.12 -181.38)"/><path class="cls-2" d="M113.17,332.72a15.23,15.23,0,0,1,.08-4.7c.57-3.7,1.52-4.15,2-4.21l.12-.08.31.1c.39.18.51.62.8,2.92.07.48.12.92.17,1.16a8.8,8.8,0,0,0,1.51,3.89l-.83.57a9.82,9.82,0,0,1-1.65-4.22c-.06-.3-.12-.76-.19-1.28s-.17-1.38-.28-1.89a8.1,8.1,0,0,0-1,3.19,14.85,14.85,0,0,0-.09,4.38Z" transform="translate(-43.12 -181.38)"/><path class="cls-2" d="M108.62,333.5a20.51,20.51,0,0,1,.27-5.95c.09-.34.92-3.18,2.38-3.43l.16-.11.33.14c.4.23.42.71.36,2.68,0,.37,0,.7,0,.93a12.65,12.65,0,0,0,1.25,4.95l-.86.51a13.77,13.77,0,0,1-1.39-5.45c0-.23,0-.59,0-1s0-1.08,0-1.53a6.39,6.39,0,0,0-1.29,2.54,18.93,18.93,0,0,0-.23,5.62Z" transform="translate(-43.12 -181.38)"/><path class="cls-2" d="M101.54,334.36a20.16,20.16,0,0,1-.81-5.29l-.06-1.15c0-.57-.11-2.07-.22-2.84a12.53,12.53,0,0,0-1.65,4,19.86,19.86,0,0,0-.47,5.15l-1,.07a21.31,21.31,0,0,1,.48-5.42s1.12-4.64,2.71-5l.14-.1.32.13c.37.18.52.55.69,3.94l.06,1.15a18.61,18.61,0,0,0,.77,5Z" transform="translate(-43.12 -181.38)"/><path class="cls-2" d="M82.5,334a14.76,14.76,0,0,1-1.28-4.09c-.06-.33-.09-.75-.12-1.15,0-.21,0-.48,0-.69a3,3,0,0,0-1.26,1.66,9.09,9.09,0,0,0-.47,3.85l-1,.07a10.11,10.11,0,0,1,.52-4.24c.26-.77,1.06-2.23,2.28-2.39l.14-.09.34.11c.4.2.44.72.5,1.65a9.68,9.68,0,0,0,.1,1,14.13,14.13,0,0,0,1.19,3.83Z" transform="translate(-43.12 -181.38)"/><path class="cls-2" d="M71.4,333.52a25.55,25.55,0,0,1-.67-3.94l-.09-.68c0-.23,0-.59-.08-1s-.07-.93-.12-1.37a9.88,9.88,0,0,0-.54,2,23.41,23.41,0,0,0-.41,4.75l-1,.05a24.1,24.1,0,0,1,.43-5c.3-1.51.64-2.87,1.53-3.1l.16-.11.32.12c.41.2.49.71.63,2.61,0,.37,0,.7.08.92l.08.7a25.38,25.38,0,0,0,.64,3.77Z" transform="translate(-43.12 -181.38)"/><path class="cls-2" d="M65.71,334a7.07,7.07,0,0,1,.16-3.25c.35-1.28.89-2,1.61-2.16l.12-.08.33.06c.36.13.47.48.68,1.12a11.68,11.68,0,0,0,.74,1.87l-.88.46a12.39,12.39,0,0,1-.81-2l-.12-.36a2.62,2.62,0,0,0-.71,1.37,6.2,6.2,0,0,0-.13,2.86Z" transform="translate(-43.12 -181.38)"/><path class="cls-2" d="M90,334.51a24.45,24.45,0,0,1-1.69-4.81c-.08-.36-.16-.83-.24-1.31a10.86,10.86,0,0,0-.45-2c-.36.1-.87,1.43-1,3.18a20.1,20.1,0,0,0,0,4.25l-1,.07a21,21,0,0,1,0-4.41c.09-.92.47-3.89,1.93-4.08a.68.68,0,0,1,.54,0c.55.28.73,1.19,1,2.77.08.45.15.89.24,1.23a22.85,22.85,0,0,0,1.61,4.6Z" transform="translate(-43.12 -181.38)"/><path class="cls-2" d="M134.29,326.18a14.12,14.12,0,0,1-1.22-3.52,5.66,5.66,0,0,1,.42-3.5l.14-.22.33-.05h0c.44,0,.69.44,1.24,1.39a11.15,11.15,0,0,0,.72,1.14,8,8,0,0,0,2.21,2.05l-.57.83a9.09,9.09,0,0,1-2.36-2.18,9.39,9.39,0,0,1-.86-1.34l-.26-.43a5.86,5.86,0,0,0,0,2.12,13.49,13.49,0,0,0,1.14,3.29Z" transform="translate(-43.12 -181.38)"/><path class="cls-2" d="M138.61,323.26c-.64-2.56-.71-4.25-.22-5a.56.56,0,0,1,.49-.3c.39,0,.63.36,1,.92a5.43,5.43,0,0,0,.55.83c.13.16.28.37.42.58a3.86,3.86,0,0,0,.82.95l-.45.89a3.9,3.9,0,0,1-1.18-1.26c-.14-.19-.26-.37-.38-.52a6.3,6.3,0,0,1-.55-.8,12.85,12.85,0,0,0,.51,3.5Z" transform="translate(-43.12 -181.38)"/><path class="cls-2" d="M129.06,328.62a14.5,14.5,0,0,1-1.28-5.28c0-.74,0-3.88.76-4.65a.77.77,0,0,1,.39-.23.68.68,0,0,1,.54,0c.57.22.79,1.12,1.12,2.69.08.38.16.75.24,1.06a8.32,8.32,0,0,0,2.65,4.2l-.63.78a9.43,9.43,0,0,1-3-4.73c-.09-.32-.17-.71-.25-1.11a14.71,14.71,0,0,0-.45-1.77,12.15,12.15,0,0,0-.38,3.71,13.82,13.82,0,0,0,1.2,5Z" transform="translate(-43.12 -181.38)"/><path class="cls-2" d="M123.92,330.42a14.43,14.43,0,0,1-.32-3.72,5.69,5.69,0,0,1,1.26-3.28l.19-.19.33,0c.44.09.57.58.88,1.65a8.73,8.73,0,0,0,.42,1.28,8.09,8.09,0,0,0,1.64,2.53l-.75.66a8.78,8.78,0,0,1-1.76-2.68,10.67,10.67,0,0,1-.51-1.51l-.14-.49a5.75,5.75,0,0,0-.56,2.05,13,13,0,0,0,.31,3.48Z" transform="translate(-43.12 -181.38)"/><path class="cls-2" d="M119.91,331.73a14.09,14.09,0,0,1,0-3.72,5.67,5.67,0,0,1,1.5-3.19l.2-.17.33.06c.42.13.53.63.75,1.72a11.23,11.23,0,0,0,.32,1.3,8.24,8.24,0,0,0,1.45,2.64l-.79.61a9,9,0,0,1-1.56-2.81,10.14,10.14,0,0,1-.4-1.54c0-.15-.06-.32-.1-.49a5.55,5.55,0,0,0-.71,2,13.15,13.15,0,0,0,.05,3.48Z" transform="translate(-43.12 -181.38)"/></g></svg>