<svg xmlns="http://www.w3.org/2000/svg" viewBox="0 0 189.78 169.08">
  <defs>
    <style>
      path {
        fill: none;
        stroke: #000;
        stroke-miterlimit: 10;
      }
    </style>
  </defs>
  <title>Carnotaurus sastrei</title>
  <metadata>
    <phyloxml xmlns:xsi="http://www.w3.org/2001/XMLSchema-instance" xmlns="http://www.phyloxml.org" xsi:schemaLocation="http://www.phyloxml.org http://www.phyloxml.org/1.10/phyloxml.xsd">
      <phylogeny rooted="true" rerootable="false">
        <clade>
          <name>Animalia</name>
          <clade>
            <name>Chordata</name>
            <clade>
              <name>Dinosauria</name>
              <clade>
                <name>Saurischia</name>
                <clade>
                  <name>Theropoda</name>
                  <clade>
                    <name>Abelisauridae</name>
                    <clade>
                      <name>Furileusauria</name>
                      <clade>
                        <name>Carnotaurini</name>
                        <clade>
                          <name>Carnotaurus</name>
                        </clade>
                      </clade>
                    </clade>
                  </clade>
                </clade>
              </clade>
            </clade>
          </clade>
        </clade>
      </phylogeny>
    </phyloxml>
  </metadata>
  <g class="outline">
    <path class="cls-2" d="M141.41,321.65c-.5-.24-1-1.15-1.41-1.65-.55-.66-1-1.86-1.19-1.51-.51.82-.13,3,.28,4.65l-1.23.74a8.56,8.56,0,0,1-2.32-2.14c-.55-.67-1.45-2.66-1.63-2.31a5.2,5.2,0,0,0-.35,3.13,13.6,13.6,0,0,0,1.18,3.41l-1.57.81a8.89,8.89,0,0,1-2.83-4.47c-.34-1.3-.65-3.8-1.25-3.37-.65,0-.89,3.15-.81,4.36a14,14,0,0,0,1.24,5.12l-1.57.64a8.31,8.31,0,0,1-1.72-2.65c-.38-.78-.76-2.93-1-2.63a5.23,5.23,0,0,0-1.11,3,13.61,13.61,0,0,0,.32,3.6l-.52.32a7.93,7.93,0,0,1-1.4-2.74c-.32-.8-.54-3-.82-2.7a5.18,5.18,0,0,0-1.32,2.86,13.58,13.58,0,0,0,0,3.61l-2.61.67a10.54,10.54,0,0,1-1.65-4.34c-.17-.85-.41-3.93-.74-3.71-1,0-1.49,2.72-1.65,3.79a17.59,17.59,0,0,0,0,4.92l-.7.16a14.47,14.47,0,0,1-1.4-5.41c0-.86.18-3.38-.15-3.16-1,0-1.82,2.13-2.08,3.08a20.92,20.92,0,0,0-.21,5.9l-1.08.13a15.58,15.58,0,0,1-1.26-4.59c-.21-.84-.18-4.22-.84-3.89-1,0-1.72,2.46-2,3.41a17,17,0,0,0-.58,5.48l-1.4.08a22.22,22.22,0,0,1-.83-5.78c0-.86-.16-4.26-.49-4-1,0-2.19,3.61-2.39,4.62a20.59,20.59,0,0,0-.48,5.29l-2,.08a11.83,11.83,0,0,1-3-5.29c-.41-1.28-.88-4.4-1.54-4.07-1,0-1.43,2.42-1.54,3.63a16,16,0,0,0,0,3.91l.29.8a14.55,14.55,0,0,1-1.28-3.77c-.32-1.31-.5-4-1.17-3.67-1,0-1.43,2.42-1.54,3.63a20.22,20.22,0,0,0,0,4.33L83,333.79a14.74,14.74,0,0,1-1.24-4c-.16-.85-.08-2.53-.41-2.31-1,0-1.74,1.32-2,2.06a10.21,10.21,0,0,0-.53,4.17l-1.24-.12a33.87,33.87,0,0,1-1.06-5.32c-.14-1.12.22-4-.11-3.74-1,0-1.79,1.37-2.19,2.27a16.75,16.75,0,0,0-1.11,6.76l-1.15-.1a33.32,33.32,0,0,1-.78-4.66c-.11-.86-.17-3.36-.5-3.14-.66.08-1,1.49-1.23,2.72A24.12,24.12,0,0,0,69,333.3l-.08-1.49c-.83-1.57-.91-2.95-1.24-2.73-.66.09-1.07.91-1.32,1.82a8.27,8.27,0,0,0-.25,3.43c-1,1.1.1,3.22,1.26,3.47.56.12.45,1.51.44,1.83-.14,4.5,3,7.49,6.93,9.84,4.13,2.49,10,3,14.77,3,18.76-.24,37-.22,55.86-2.76,4.59-.62,9.24-1.25,13.53-3,3.46-1.4,6.63-3.48,10.19-4.57,3.28-1,6.8-1.15,10-2.45a22.22,22.22,0,0,0,9.16-6.82c13.09-17.08,18.22-11.63,25.7-18.79,4-3.24,15.65-11.87,18.72-16,2.13-2.85,2.55-6.67,1.48-8.92-.74-1.55-3-2-4.11-2-9.3.22-13,5.51-13,5.51-9.88-8.2-12.19-16.13-16.09-29.79-.88-3.08-2.2-5.17-2.2-11.34a49,49,0,0,1,2.91-15.72,2.7,2.7,0,0,1,.75-1.21,2.93,2.93,0,0,1,1.55-.42c2.06-.2,2.27.06,4.15-.81a13.2,13.2,0,0,0,1.65-.66c.55-.55.09-2.69-.11-3-2.45-3.53-4.59-5.88-8.63-7.34-1.69-.61-3.51-.77-5.24-1.24-3.64-1-6.56-2.58-12.23-8l-.63-.91c-.41-3.07-.8-6.31.41-9.16.42-1,1-1.88,1.47-2.84,1.88-3.89,2.86-6.85.3-10.33a10.86,10.86,0,0,0-2.21-1.32c-.36-.18-1.35-1.4-1.76-1.43a4.11,4.11,0,0,1-2.53-.59c-2.33-1.82-6.48-1.27-8.27-.17-5.45,3-4.79,10.9-8.26,14.2-3.09,2.94-6.65.77-9.24,1.48a18.88,18.88,0,0,0-1.38-2.67,27.3,27.3,0,0,0-1.91-2.55,24,24,0,0,0-4-4c-1-.71-2-1.26-3-2-.63-.55-1.17-1.19-1.79-1.75a18.53,18.53,0,0,0-3.49-2.31,22.21,22.21,0,0,0-4.4-2,7.38,7.38,0,0,0-4.78,0,9.36,9.36,0,0,0-4.61,4.53c-3,5.77-7,11.73-7.16,18.1l-.18.47c-3.42-1.06-6.52,2.07-9.37,4.22a44.81,44.81,0,0,1-8,4.39A196.48,196.48,0,0,0,73.35,231c-4.25,2.87-9.08,5.9-12.72,9.52a54.14,54.14,0,0,0-5.06,6.5,40.45,40.45,0,0,0-6.3,13.37,75.13,75.13,0,0,0-2,11.16c-.36,2.88-.9,5.45-1.26,8.32a8.38,8.38,0,0,0,0,2.69,3.21,3.21,0,0,0,1.24,1.65,19.72,19.72,0,0,0,.37,5.86c.27,1.64,1.2,3.53,1.9,3.47s.16-2.56.16-4.05a23.6,23.6,0,0,1,.29-3.67l.2.11a14.48,14.48,0,0,0,.34,5c.37,1.62,1.11,3.53,1.81,3.47s.17-1.9.17-3.39a25.28,25.28,0,0,1,.41-3.71,19.18,19.18,0,0,0,.25,5.2,5.32,5.32,0,0,0,1.4,3.38c.59.44.5-1.37.83-3.79a11.22,11.22,0,0,1,.74-3.47l.83.41A20.54,20.54,0,0,0,57,295c.27,1.64.8,3.7,1.49,3.55.48-.1.25-2,.74-4.37a30,30,0,0,1,.74-3.47l1.31.53a34.6,34.6,0,0,0,.18,7.64c.27,1.64,1.62,6.23,2.31,6.11,1-.16.58-4.12.74-6.44a16.49,16.49,0,0,1,.79-5.07l2.27,1.44a23.62,23.62,0,0,0,.08,6.28c.27,1.63,1.61,4.51,2.31,4.46s.58-2.37.91-4.79a36.64,36.64,0,0,1,.58-3.64l2.15.94a24.75,24.75,0,0,0,.22,6.49c.27,1.64,1.28,5.13,2,5.07s.55-3.08.88-5.51c.06-1.09.55-3.19.77-4.51l2,.61a27.13,27.13,0,0,0,1.1,7.48c.48,1.59,1.83,3.75,2.53,3.69s.39-1.77.61-5.83a29,29,0,0,1,.73-4.66l1.86.18a32.12,32.12,0,0,0,1.12,8.09,9.85,9.85,0,0,0,2.2,4.4,2.5,2.5,0,0,0,1.87.83c.73,0-.23-2.31,0-6.37a47,47,0,0,1,.35-6l2,.53a22.74,22.74,0,0,0,.88,7.66c.49,1.59,2.11,4.73,2.81,4.67s.23-2.1.44-6.16a31.4,31.4,0,0,1,.61-4.79l7.22,1.39a18.18,18.18,0,0,0,2.41,6.48c.78,1.46,3.56,4.38,4.24,4.18s-.06-2.64-.06-5.12a18.9,18.9,0,0,1,.28-5.17l2.15-.16a24.22,24.22,0,0,0,.88,6.38c.93,2.53,2.72,4.31,3.74,4.62s.17-2.42,0-5.34c-.11-2.64-.1-4.94-.11-6.16l2.64.08a11.68,11.68,0,0,0,1.43,6.91c.16.25,1.74,3.14,4,3.63.94.2-.31-3.7-.34-6a41.25,41.25,0,0,1,.23-4.75l2.16-.08a8,8,0,0,0,1.49,6c.38.45,1,.88,1.5.64.23-.2-.18-2-.14-3.25a8.34,8.34,0,0,1,.54-3.35l1.9,0a7.45,7.45,0,0,0,1.39,5.79c.37.45,1,.88,1.49.64.25-.23-.12-2.23-.12-3.25a14.41,14.41,0,0,1,.33-3,31.66,31.66,0,0,1,4.87.27c3.61,1.33,5.28,4.81,16.87,4.51C155.23,314.94,148.56,316.5,141.41,321.65Z" transform="translate(-45.4 -183.88)"/>
  </g>
  <g class="teeth">
    <path class="cls-2" d="M86.34,301.16a32.12,32.12,0,0,0,1.12,8.09,9.85,9.85,0,0,0,2.2,4.4,2.5,2.5,0,0,0,1.87.83c.73,0-.23-2.31,0-6.37a41.13,41.13,0,0,1,.43-5.56" transform="translate(-45.4 -183.88)"/>
    <path class="cls-2" d="M134.68,304.93a7.45,7.45,0,0,0,1.39,5.79c.37.45,1,.88,1.49.64.25-.23-.12-2.23-.12-3.25a14.41,14.41,0,0,1,.33-3" transform="translate(-45.4 -183.88)"/>
    <path class="cls-2" d="M129.39,304.89a8,8,0,0,0,1.49,6c.38.45,1,.88,1.5.64.23-.2-.18-2-.14-3.25a8.34,8.34,0,0,1,.54-3.35" transform="translate(-45.4 -183.88)"/>
    <path class="cls-2" d="M122,305.22a11.68,11.68,0,0,0,1.43,6.91c.16.25,1.74,3.14,4,3.63.94.2-.31-3.7-.34-6a41.25,41.25,0,0,1,.23-4.75" transform="translate(-45.4 -183.88)"/>
    <path class="cls-2" d="M79.51,300.3a27.13,27.13,0,0,0,1.1,7.48c.48,1.59,1.83,3.75,2.53,3.69s.39-1.77.61-5.83a29,29,0,0,1,.73-4.66" transform="translate(-45.4 -183.88)"/>
    <path class="cls-2" d="M93.87,302.66a22.74,22.74,0,0,0,.88,7.66c.49,1.59,2.11,4.73,2.81,4.67s.23-2.1.44-6.16a31.4,31.4,0,0,1,.61-4.79" transform="translate(-45.4 -183.88)"/>
    <path class="cls-2" d="M114.85,305.64a24.22,24.22,0,0,0,.88,6.38c.93,2.53,2.72,4.31,3.74,4.62s.17-2.42,0-5.34c-.11-2.64-.1-4.94-.11-6.16" transform="translate(-45.4 -183.88)"/>
    <path class="cls-2" d="M105.83,305.43a18.18,18.18,0,0,0,2.41,6.48c.78,1.46,3.56,4.38,4.24,4.18s-.06-2.64-.06-5.12a18.9,18.9,0,0,1,.28-5.17" transform="translate(-45.4 -183.88)"/>
    <path class="cls-2" d="M73.62,298.15a24.75,24.75,0,0,0,.22,6.49c.27,1.64,1.28,5.13,2,5.07s.55-3.08.88-5.51c.06-1.09.55-3.19.77-4.51" transform="translate(-45.4 -183.88)"/>
    <path class="cls-2" d="M67.59,294.9a23.62,23.62,0,0,0,.08,6.28c.27,1.63,1.61,4.51,2.31,4.46s.58-2.37.91-4.79a36.64,36.64,0,0,1,.58-3.64" transform="translate(-45.4 -183.88)"/>
    <path class="cls-2" d="M61.3,291.22a34.6,34.6,0,0,0,.18,7.64c.27,1.64,1.62,6.23,2.31,6.11,1-.16.58-4.12.74-6.44a18,18,0,0,1,.83-5.28" transform="translate(-45.4 -183.88)"/>
    <path class="cls-2" d="M56.94,289.12A20.54,20.54,0,0,0,57,295c.27,1.64.8,3.7,1.49,3.55.48-.1.25-2,.74-4.37a30,30,0,0,1,.74-3.47" transform="translate(-45.4 -183.88)"/>
    <path class="cls-2" d="M52.89,287.39a19.18,19.18,0,0,0,.25,5.2,5.32,5.32,0,0,0,1.4,3.38c.59.44.5-1.37.83-3.79a11.22,11.22,0,0,1,.74-3.47" transform="translate(-45.4 -183.88)"/>
    <path class="cls-2" d="M47.13,284.17a19.17,19.17,0,0,0,.39,5.63c.26,1.55,1.14,3.34,1.8,3.28s.16-2.42.16-3.83a18.87,18.87,0,0,1,.39-3.28" transform="translate(-45.4 -183.88)"/>
    <path class="cls-2" d="M50.16,286a14.48,14.48,0,0,0,.34,5c.37,1.62,1.11,3.53,1.81,3.47s.17-1.9.17-3.39a25.28,25.28,0,0,1,.41-3.71" transform="translate(-45.4 -183.88)"/>
    <path class="cls-2" d="M73.07,333.6a16.75,16.75,0,0,1,1.11-6.76c.4-.9,1.2-2.23,2.19-2.27.33-.22,0,2.62.11,3.74a30.9,30.9,0,0,0,1,5.07" transform="translate(-45.4 -183.88)"/>
    <path class="cls-2" d="M89.8,332.55a16,16,0,0,1,0-3.91c.11-1.21.55-3.59,1.54-3.63.66-.33,1.13,2.79,1.54,4.07a11.83,11.83,0,0,0,3,5.29" transform="translate(-45.4 -183.88)"/>
    <path class="cls-2" d="M103.45,333.93a15.58,15.58,0,0,1,.55-5.29c.26-.95,1-3.37,2-3.41.66-.33.63,3,.84,3.89a15.58,15.58,0,0,0,1.26,4.59" transform="translate(-45.4 -183.88)"/>
    <path class="cls-2" d="M113.66,332.64a15.33,15.33,0,0,1,.09-4.55c.16-1.07.66-3.75,1.65-3.79.33-.22.57,2.86.74,3.71a9.36,9.36,0,0,0,1.59,4.07" transform="translate(-45.4 -183.88)"/>
    <path class="cls-2" d="M109.12,333.46a19.62,19.62,0,0,1,.25-5.78c.26-.95,1.09-3,2.08-3.08.33-.22.13,2.3.15,3.16a13.22,13.22,0,0,0,1.32,5.21" transform="translate(-45.4 -183.88)"/>
    <path class="cls-2" d="M97.83,334.29a20.59,20.59,0,0,1,.48-5.29c.2-1,1.37-4.59,2.39-4.62.33-.22.44,3.18.49,4a22.22,22.22,0,0,0,.83,5.78" transform="translate(-45.4 -183.88)"/>
    <path class="cls-2" d="M78.82,333.63a9.7,9.7,0,0,1,.49-4.05c.25-.74,1-2,2-2.06.33-.22.25,1.46.41,2.31a14.74,14.74,0,0,0,1.24,4" transform="translate(-45.4 -183.88)"/>
    <path class="cls-2" d="M69,333.3a24.12,24.12,0,0,1,.42-4.88c.24-1.23.57-2.64,1.23-2.72.33-.22.39,2.28.5,3.14a31.74,31.74,0,0,0,.74,4.54" transform="translate(-45.4 -183.88)"/>
    <path class="cls-2" d="M66.2,334a6.72,6.72,0,0,1,.15-3.06c.25-.91.66-1.73,1.32-1.82.33-.22.41,1.16,1.24,2.73" transform="translate(-45.4 -183.88)"/>
    <path class="cls-2" d="M86.08,333.87a20.22,20.22,0,0,1,0-4.33c.11-1.21.56-3.59,1.54-3.63.67-.33.85,2.36,1.17,3.67a23.54,23.54,0,0,0,1.65,4.71" transform="translate(-45.4 -183.88)"/>
    <path class="cls-2" d="M134.74,326a13.6,13.6,0,0,1-1.18-3.41,5.2,5.2,0,0,1,.35-3.13c.18-.35,1.08,1.64,1.63,2.31a8.56,8.56,0,0,0,2.32,2.14" transform="translate(-45.4 -183.88)"/>
    <path class="cls-2" d="M139.09,323.14c-.41-1.65-.79-3.83-.28-4.65.18-.35.64.85,1.19,1.51.41.5.91,1.41,1.41,1.65" transform="translate(-45.4 -183.88)"/>
    <path class="cls-2" d="M129.52,328.42a14,14,0,0,1-1.24-5.12c-.08-1.21.16-4.37.81-4.36.6-.43.91,2.07,1.25,3.37a8.89,8.89,0,0,0,2.83,4.47" transform="translate(-45.4 -183.88)"/>
    <path class="cls-2" d="M124.42,330.33a13.61,13.61,0,0,1-.32-3.6,5.23,5.23,0,0,1,1.11-3c.26-.3.64,1.85,1,2.63a8.31,8.31,0,0,0,1.72,2.65" transform="translate(-45.4 -183.88)"/>
    <path class="cls-2" d="M120.4,331.68a13.58,13.58,0,0,1,0-3.61,5.18,5.18,0,0,1,1.32-2.86c.28-.28.5,1.9.82,2.7a8.53,8.53,0,0,0,1.52,2.77" transform="translate(-45.4 -183.88)"/>
  </g>
  <g class="skull">
    <path class="base" d="M66.1,334.33c1.15-1.3,2.87-.78,4.6-.74,17.5.49,37.17,2.42,52.75-2.72,5.75-1.89,14-5.92,18.83-9.61,6.52-5,12.61-6.31,16.89-11.33-11.59.3-15.09-4.29-16.53-4.52a163.72,163.72,0,0,0-22.56-.33c-2.4.15-7.11.77-9.52.77a41.42,41.42,0,0,1-8.63-1.19c-5.82-1.23-11.69-3.54-17.45-3.68-4.44-.11-8.74-1.85-12.74-3.8-2.58-1.25-4.95-2.91-7.43-4.37-5-2.93-11.94-5.85-17.07-8.56A3.21,3.21,0,0,1,46,282.6a8.38,8.38,0,0,1,0-2.69c.36-2.87.9-5.44,1.26-8.32a75.13,75.13,0,0,1,2-11.16,40.45,40.45,0,0,1,6.3-13.37,54.14,54.14,0,0,1,5.06-6.5c3.64-3.62,8.47-6.65,12.72-9.52a196.48,196.48,0,0,1,25.46-14.53,44.81,44.81,0,0,0,8-4.39c2.85-2.15,5.95-5.28,9.37-4.22l.18-.47c.12-6.37,4.18-12.33,7.16-18.1a9.36,9.36,0,0,1,4.61-4.53,7.38,7.38,0,0,1,4.78,0,22.21,22.21,0,0,1,4.4,2,18.53,18.53,0,0,1,3.49,2.31c.62.56,1.16,1.2,1.79,1.75.91.78,2,1.33,3,2a24,24,0,0,1,4,4,27.3,27.3,0,0,1,1.91,2.55,18.88,18.88,0,0,1,1.38,2.67c2.59-.71,6.15,1.46,9.24-1.48,3.47-3.3,2.81-11.23,8.26-14.2,1.79-1.1,5.94-1.65,8.27.17a4.11,4.11,0,0,0,2.53.59c.41,0,1.4,1.25,1.76,1.43a10.86,10.86,0,0,1,2.21,1.32c2.56,3.48,1.58,6.44-.3,10.33-.46,1-1.05,1.86-1.47,2.84-1.21,2.85-.82,6.09-.41,9.16l.63.91c5.67,5.45,8.59,7,12.23,8,1.73.47,3.55.63,5.24,1.24,4,1.46,6.18,3.81,8.63,7.34.2.29.66,2.43.11,3a13.2,13.2,0,0,1-1.65.66c-1.88.87-2.09.61-4.15.81a2.93,2.93,0,0,0-1.55.42,2.7,2.7,0,0,0-.75,1.21,49,49,0,0,0-2.91,15.72c0,6.17,1.32,8.26,2.2,11.34,3.9,13.66,6.21,21.59,16.09,29.79,0,0,3.72-5.29,13-5.51,1.08,0,3.37.44,4.11,2,1.07,2.25.65,6.07-1.48,8.92-3.07,4.12-14.73,12.75-18.72,16-7.48,7.16-12.61,1.71-25.7,18.79a22.22,22.22,0,0,1-9.16,6.82c-3.17,1.3-6.69,1.44-10,2.45-3.56,1.09-6.73,3.17-10.19,4.57-4.29,1.73-8.94,2.36-13.53,3-18.83,2.54-37.1,2.52-55.86,2.76-4.82.06-10.64-.5-14.77-3-3.9-2.35-7.07-5.34-6.93-9.84,0-.32.12-1.71-.44-1.83C66.2,337.55,65.13,335.43,66.1,334.33Z" transform="translate(-45.4 -183.88)"/>
    <path class="cls-2" d="M91.14,265.93c3.5,4.4,8.46,10.19,14,11.3,2.46.5,5.45-.2,7.05,0,5.87.94,7,8.51,10.57,13.31,2.9,4,3,5.71,7,8.44.7.47,5.17.36,7.27,1.76,3.08,2.06,5.13,4.83,8.52,6.33a32.92,32.92,0,0,0,30.61-2.39,16,16,0,0,1,3.67-2,16.4,16.4,0,0,1,4.14-.48,25,25,0,0,0,9.3-2.43c2.7-1.31,5.25-3.13,8.23-3.53,2.67-.36,5.34.48,8,.66s5.81-.6,7-3" transform="translate(-45.4 -183.88)"/>
    <path class="cls-2" d="M201.54,235.29a3,3,0,0,0-2.37-2.49,4.85,4.85,0,0,0-3.14.81,10.4,10.4,0,0,0-4.78,6.82c-.35,1.83-.2,3.77-.83,5.52-.81,2.28-2.91,5.35-4,7.5-1.59,3.09-1.63,9.25-1.16,15.41.43,5.6,1.53,10.37.78,15.93-.27,2-.95,4.08-2.61,5.17-1.9,1.25-4.85,1.07-5.9,3.09-.39.73-.41,1.61-.76,2.37-1,2.07-3.51,2.12-5.46,2.26a25.53,25.53,0,0,0-5.51,1.36c-4,1.11-9.15-2.63-12.1-5" transform="translate(-45.4 -183.88)"/>
    <path class="cls-2" d="M60.65,290.81a26.19,26.19,0,0,1,5-15.31c2.8-4.06,6-7.91,7.68-12.55,1.95-5.51,1.49-11.78,4.27-16.91,2.24-4.12,6.27-6.93,10.32-9.28a32.13,32.13,0,0,1,6.54-3,42,42,0,0,0,7.35-3c2.48-1.49,4.51-2.05,6.17-4.87a3,3,0,0,1,.87-1.1,1.88,1.88,0,0,1,2.42.75,9.73,9.73,0,0,1,1.11,3.56c.17,2.65-.11,4.44.06,7.09a10.07,10.07,0,0,0,1.35,4.47,33.3,33.3,0,0,0,2.89,4.79,19.27,19.27,0,0,1,4.16,9.81c.36,2.86,1,5.86-.18,8.47-.65,1.4-1.71,2.6-2.28,4-1,2.46-.54,5.55-2.35,7.47s-4.94,1.79-7.45,2.14-4.89-1.29-6.55-3.17a23,23,0,0,1-3.63-6.56c-.57-1.36-1.13-2.72-1.7-4.07a57.58,57.58,0,0,1-2.92-8.1,29.32,29.32,0,0,1,1.51-18.71,12.07,12.07,0,0,1,6.52-6" transform="translate(-45.4 -183.88)"/>
    <path class="cls-2" d="M86,252.9c-1.28-4-.66-8.27.5-12.26a7.55,7.55,0,0,1,.61-1.6,7.05,7.05,0,0,1,1.37-1.66c.67-.64,1.75-1.62,2.42-2.26" transform="translate(-45.4 -183.88)"/>
    <path class="cls-2" d="M112.9,238.41c.16-2.24.56-4.61,2-6.31s4.35-2.35,6-.81a2,2,0,0,0,.58.46c.47.2,1.1.23,2.2-.43a7.07,7.07,0,0,0,1.46-2.86,7.31,7.31,0,0,1,1-2.18,4.34,4.34,0,0,1,2.12-1.45" transform="translate(-45.4 -183.88)"/>
    <path class="cls-2" d="M109.62,224.5a15.42,15.42,0,0,0,1.88-2.59,1.7,1.7,0,0,0,.26-.87c0-.62-.64-1-1.1-1.42a3.89,3.89,0,0,1,0-5.52,12.57,12.57,0,0,1,3.42-1.7c1.16-.53,2.32-1.5,2.33-2.78,0-1-.62-2.25.18-2.85a2.86,2.86,0,0,1,1.55-.23c2.08-.15,3.75-2.75,5.73-2.07a6,6,0,0,1,1.9,1.56c1.83,1.7,4.55,2,7.05,2.08,5,.23,10.42.14,14.59-2.69,1.7-1.15,3.2-2.76,5.2-3.23,2.26-.53,4.72.51,6.9-.27,2.41-.86,3.71-3.61,4.48-6a22.82,22.82,0,0,1,3.41-7.37c2-2.68,4.18-3.31,7.53-3.21,1.35,0,2.87.29,3.62,1.41" transform="translate(-45.4 -183.88)"/>
    <path class="cls-2" d="M119.62,265.47c1.58,0,3,1.41,4.54,1.26,1.15-.1,2.06-1,3.16-1.4s3,.08,4.21.34" transform="translate(-45.4 -183.88)"/>
    <path class="cls-2" d="M109.75,218.21c.46-1.1,1.94-1.21,3.13-1.37a9.86,9.86,0,0,0,6.46-3.73,5.52,5.52,0,0,1,1.1-1.25,3.62,3.62,0,0,1,2.8-.38A9.47,9.47,0,0,1,128,214c1.41,1.36,2.53,3.24,4.43,3.7,1.15.28,2.36,0,3.53.23,1.65.25,2.19.79,3.93.79a14.22,14.22,0,0,1,6.14.93c2.51,1.17,4.72,3.23,5.05,6,.29,2.44-.1,5.37-2.42,6.82-2.09,1.31-4.58,2.73-7,2.91-2,.15-4.24-.69-5.18,1.06-.45.83.43,3.42.33,5.28-.23,4.3,1.13,7.3,5,9.19,1.37.67,2.82,1.61,4.14,2.37,1.91,1.11,4,1.43,3.85,4.85-.11,3-1.4,4.35-2.89,6-.81.9-1.8,1.64-2.52,2.62a26.46,26.46,0,0,0-2.21,4.5c-.73,1.5-1.94,3-3.6,3.22a4.44,4.44,0,0,1-4-1.9,12.89,12.89,0,0,1-1.87-4.21c-1.5-4.84-2.61-7-2.41-13.53.05-1.45.5-4.23.64-5.68.66-6.62-2.84-12.89-4-19.44a5.45,5.45,0,0,1,1-4.38c1-1.28,2.34-1.28,4-1.21s3,0,4.66-.06c.92,0,2-.31,2.3-1.18a2.49,2.49,0,0,0-.12-1.52c-.41-1.45,0-2.59-1.45-3.08" transform="translate(-45.4 -183.88)"/>
    <path class="cls-2" d="M178.48,186.72c-2.17.63-3.45,3-3.43,5.31a13.08,13.08,0,0,0,2.19,6.34,26.53,26.53,0,0,1,3,6c.56,2,.52,4.17,1.32,6.1a13.67,13.67,0,0,0,4.12,5c2.87,2.45,6,4.74,9.66,5.73,1.74.46,3.55.63,5.24,1.24,4,1.45,6.18,3.81,8.63,7.34.2.29.66,2.42.11,3a10.33,10.33,0,0,1-1.65.66c-1.87.88-2.09.62-4.15.81a3,3,0,0,0-1.55.43,2.7,2.7,0,0,0-.75,1.21,49.25,49.25,0,0,0-2.91,15.72c0,6.17,1.88,9.33,2.64,12.44,7,29,17.4,26.64,15.51,29.88" transform="translate(-45.4 -183.88)"/>
    <path class="cls-2" d="M136.25,217.86a3.16,3.16,0,0,1,.16-4.22,6.46,6.46,0,0,1,3.67-1.73,34.44,34.44,0,0,0,4-.77c2.71-.87,4.78-3.06,7.31-4.37" transform="translate(-45.4 -183.88)"/>
    <path class="cls-2" d="M150.61,203.08c-.58.93,0,2.61.88,3.32s1.91,1.08,2.77,1.76A14.73,14.73,0,0,1,156,210a15,15,0,0,0,14.45,4.53,8.6,8.6,0,0,1,2-.37c1.28,0,2.48.76,3.75.7,2.15-.11,3.55-2.54,3.4-4.68s-1.38-4-2.47-5.89c-1.87-3.14-3.41-11.59-7.37-14.23" transform="translate(-45.4 -183.88)"/>
    <path class="cls-2" d="M55.35,252a2.47,2.47,0,0,0,1.74-.33,7.57,7.57,0,0,1,.74-.52,3.58,3.58,0,0,1,1.49-.3l6.18-.3a3.22,3.22,0,0,1,2.71.71,3,3,0,0,1,.52,1.28,22.14,22.14,0,0,1,.42,7.08" transform="translate(-45.4 -183.88)"/>
    <path class="cls-2" d="M136.46,236.38c.2,1.13,1.29,1.82,2.24,2.47a21.32,21.32,0,0,1,5.69,5.75,17.43,17.43,0,0,0,2.34,3.17,12.1,12.1,0,0,0,4.51,2.24" transform="translate(-45.4 -183.88)"/>
    <path class="cls-2" d="M115.11,239.39a4.89,4.89,0,0,1,2.45,2.3,14.17,14.17,0,0,1,1.14,3.24c.18.68.36,1.36.55,2" transform="translate(-45.4 -183.88)"/>
    <path class="cls-2" d="M116,207.43c.12-6.36,4.19-12.33,7.16-18.09a9.4,9.4,0,0,1,4.61-4.53,7.38,7.38,0,0,1,4.78,0,22,22,0,0,1,4.4,2,19,19,0,0,1,3.49,2.3c.62.57,1.16,1.21,1.8,1.76.9.77,2,1.33,2.94,2a23.67,23.67,0,0,1,4,4,24.44,24.44,0,0,1,3.48,5.31" transform="translate(-45.4 -183.88)"/>
    <path class="cls-2" d="M140.26,198.34a8.68,8.68,0,0,1,2.26,3.46,26.77,26.77,0,0,1,1.49,5.12" transform="translate(-45.4 -183.88)"/>
    <path class="cls-2" d="M145.17,198.86a3.59,3.59,0,0,1,1.67,3.29" transform="translate(-45.4 -183.88)"/>
    <path class="cls-2" d="M137.71,200.83c.85,2.19.48,5.35.89,7" transform="translate(-45.4 -183.88)"/>
    <path class="cls-2" d="M134,207.85a7.25,7.25,0,0,1,0-3.11c.12-.75.23-1.5.34-2.25" transform="translate(-45.4 -183.88)"/>
    <path class="cls-2" d="M178.2,186.59c1,.08,1.56.51,2.54.59.4,0,1.39,1.25,1.76,1.43a10.79,10.79,0,0,1,2.2,1.32c2.56,3.48,1.58,6.44-.3,10.33-.46,1-1.05,1.86-1.47,2.84-1.2,2.85-.82,6.09-.41,9.16" transform="translate(-45.4 -183.88)"/>
    <path class="cls-2" d="M188.48,249.15c-1.54-.41-2.22-2.18-2.57-3.74a18.69,18.69,0,0,1-.49-4.54c0-3.06.47-4.77-.06-7.79a9.44,9.44,0,0,0-1.43-3.85,8.46,8.46,0,0,0-3.74-1.54,28,28,0,0,0-6.72.22c-2.42.38-2.85,1.75-4,3.82-1.78,3.2-3.59,6.42-6.89,8.29a12.79,12.79,0,0,0-5.39,5.62,12.57,12.57,0,0,0-1.43,4.4c-.25,3.6-.09,6.64-.34,10.24-.19,2.9-.41,6,.89,8.58a30.87,30.87,0,0,0,1.54,3.53c2,3.15,2.73,7,3.14,10.69.38,3.44.85,7.44,3.82,9.21a9,9,0,0,0,3.5,1,32,32,0,0,0,8.95-.1" transform="translate(-45.4 -183.88)"/>
    <path class="cls-2" d="M149.56,259.7a19.6,19.6,0,0,0,2.64-2.51c1.09-1.34,1.87-3,3.34-3.93" transform="translate(-45.4 -183.88)"/>
    <path class="cls-2" d="M189.09,256.43l.57,5.74a3.82,3.82,0,0,0,.75,2.3" transform="translate(-45.4 -183.88)"/>
    <path class="cls-2" d="M192.12,267.37c1.81,2.93,1.7,5.85,2.49,9.2.65,2.78,1.74,6.13,4.36,7.26" transform="translate(-45.4 -183.88)"/>
    <path class="cls-2" d="M164.66,299.13a6.22,6.22,0,0,0,4,2.43,30,30,0,0,0,4.75.4,12.72,12.72,0,0,1,5,1.2" transform="translate(-45.4 -183.88)"/>
    <path class="cls-2" d="M199,222.09l.69,2.45a10.51,10.51,0,0,0,.93,2.51,10.79,10.79,0,0,0,2.5,2.68,35.44,35.44,0,0,0,4.63,3.68" transform="translate(-45.4 -183.88)"/>
    <path class="cls-2" d="M171.21,229a9.55,9.55,0,0,1,7.15-4.48c.73-.05,1.64-.15,1.86-.84a1.45,1.45,0,0,0-.59-1.38c-1.4-1.24-3.51-1.49-4.77-2.87a4.45,4.45,0,0,1-1.08-2.8c-.05-.84,0-2-.75-2.33" transform="translate(-45.4 -183.88)"/>
    <path class="cls-2" d="M185.59,219.8l2.61,1.58a8.63,8.63,0,0,1,1.09.73c.33.27.62.58,1,.84a8.24,8.24,0,0,0,2.13,1.09l2.82,1.14" transform="translate(-45.4 -183.88)"/>
    <path class="cls-2" d="M110.32,224.64c1.19-.57,3-2.18,3.21-3.48a4.81,4.81,0,0,1,.37-1.47,2.59,2.59,0,0,1,2.12-1,13.17,13.17,0,0,1,2.73.15,7.44,7.44,0,0,1,2.82.84,3.05,3.05,0,0,1,1.58,2.37c.06,1.28-.92,2.39-1.1,3.66a5.7,5.7,0,0,0,0,1.43c.08.83.16,1.66.25,2.49" transform="translate(-45.4 -183.88)"/>
    <path class="cls-2" d="M150.62,316.13c-.69.9-1.65,2.28-2.35,3.17a6.93,6.93,0,0,0-1.44,2.56,2.36,2.36,0,0,0,.92,2.59,2.68,2.68,0,0,0,2.28,0c.73-.3,1.38-.76,2.12-1a2.43,2.43,0,0,1,1.33-.17,1.71,1.71,0,0,1,1.12,2.38" transform="translate(-45.4 -183.88)"/>
    <path class="cls-2" d="M205.34,300a55,55,0,0,1,8.34-3.29,44.11,44.11,0,0,0,4.24-2.12,11.67,11.67,0,0,0,1.85-2.05" transform="translate(-45.4 -183.88)"/>
    <path class="cls-2" d="M165.25,340.37a17,17,0,0,0,3.66-2,41,41,0,0,0,5.09-4.1c1.42-1.35,2.74-2.8,4.06-4.25l2.59-2.85a7.19,7.19,0,0,0,1.34-1.82,6.48,6.48,0,0,0,.44-2.06c.19-2.09-.05-4.59-1.86-5.65a4.47,4.47,0,0,0-3.08-.38c-3.36.64-5.87,3.34-8.76,5.18a20.72,20.72,0,0,1-13,2.91,2.85,2.85,0,0,0-1.09,0,3,3,0,0,0-1,.85,21,21,0,0,0-3.46,4.64,12.45,12.45,0,0,0-1.16,2.64,8.58,8.58,0,0,0-.33,2.89,5.43,5.43,0,0,0,.33,2.32c.82,1.45,1.92,1.63,3.57,1.89C156.56,341.25,161.4,341.77,165.25,340.37Z" transform="translate(-45.4 -183.88)"/>
    <path class="cls-2" d="M216,312c-3.39.09-7.14.33-10.45.49a11.9,11.9,0,0,1-4.61-.39c-.73-.27-1.41-.68-2.15-.94a3.4,3.4,0,0,0-2.49,0" transform="translate(-45.4 -183.88)"/>
    <path class="cls-2" d="M180.87,327c1.59-1.37,3.41-2.81,4.2-4.74.67-1.64.71-3.57,1.85-4.92a6.09,6.09,0,0,1,2.44-1.59c1.7-.69,3.57-1.11,5-2.25s2.28-2.89,3.29-4.43,2.44-3,4.28-3.22" transform="translate(-45.4 -183.88)"/>
    <path class="cls-2" d="M67,337.81a8.34,8.34,0,0,0,2.76.3,3.23,3.23,0,0,1,2.37.47c.22.21.4.51.7.57" transform="translate(-45.4 -183.88)"/>
  </g>
  <g class="fenestrae">
    <path class="cls-2" d="M101.77,230.75c2.48-1.49,4.51-2.05,6.17-4.87a3,3,0,0,1,.87-1.1,1.88,1.88,0,0,1,2.42.75,9.73,9.73,0,0,1,1.11,3.56c.17,2.65-.11,4.44.06,7.09a10.07,10.07,0,0,0,1.35,4.47,33.3,33.3,0,0,0,2.89,4.79,19.27,19.27,0,0,1,4.16,9.81c.36,2.86,1,5.86-.18,8.47-.65,1.4-1.71,2.6-2.28,4-1,2.46-.54,5.55-2.35,7.47s-4.94,1.79-7.45,2.14-4.89-1.29-6.55-3.17a23,23,0,0,1-3.63-6.56c-.57-1.36-1.13-2.72-1.7-4.07a57.58,57.58,0,0,1-2.92-8.1,29.32,29.32,0,0,1,1.51-18.71A12.07,12.07,0,0,1,101.77,230.75Z" transform="translate(-45.4 -183.88)"/>
    <path class="cls-2" d="M137.36,218.22a10.09,10.09,0,0,0,2.57.47,13.51,13.51,0,0,1,6.14.93c2.51,1.17,4.72,3.23,5.05,6,.29,2.44-.1,5.37-2.42,6.82-2.09,1.31-4.58,2.73-7,2.91-2,.15-4.24-.69-5.18,1.06-.45.83.43,3.42.33,5.28-.23,4.3,1.13,7.3,5,9.19,1.37.67,2.82,1.61,4.14,2.37,1.91,1.11,4,1.43,3.85,4.85-.11,3-1.4,4.35-2.89,6-.81.9-1.8,1.64-2.52,2.62a26.46,26.46,0,0,0-2.21,4.5c-.73,1.5-1.94,3-3.6,3.22a4.44,4.44,0,0,1-4-1.9,12.89,12.89,0,0,1-1.87-4.21c-1.5-4.84-2.61-7-2.41-13.53.05-1.45.5-4.23.64-5.68.66-6.62-2.84-12.89-4-19.44a5.45,5.45,0,0,1,1-4.38c1-1.28,2.34-1.28,4-1.21s3,0,4.66-.06c.92,0,2-.31,2.3-1.18a2.49,2.49,0,0,0-.12-1.52C138.4,219.85,138.78,218.71,137.36,218.22Z" transform="translate(-45.4 -183.88)"/>
    <path class="cls-2" d="M188.72,249.28c-1.74-.41-2.46-2.31-2.81-3.87a18.69,18.69,0,0,1-.49-4.54c0-3.06.47-4.77-.06-7.79a9.44,9.44,0,0,0-1.43-3.85,8.46,8.46,0,0,0-3.74-1.54,28,28,0,0,0-6.72.22c-2.42.38-2.85,1.75-4,3.82-1.78,3.2-3.59,6.42-6.89,8.29a12.79,12.79,0,0,0-5.39,5.62,12.57,12.57,0,0,0-1.43,4.4c-.25,3.6-.09,6.64-.34,10.24-.19,2.9-.41,6,.89,8.58a30.87,30.87,0,0,0,1.54,3.53c2,3.15,2.73,7,3.14,10.69.38,3.44.85,7.44,3.82,9.21a8.64,8.64,0,0,0,3.5,1,36.59,36.59,0,0,0,9.22-.25c1-2,4-1.84,5.9-3.09,1.66-1.09,2.34-3.19,2.61-5.17.75-5.56-.35-10.33-.78-15.93-.47-6.16-.43-12.32,1.16-15.41C187.51,251.3,187.77,251.22,188.72,249.28Z" transform="translate(-45.4 -183.88)"/>
    <path class="cls-2" d="M165.25,340.37a17,17,0,0,0,3.66-2,41,41,0,0,0,5.09-4.1c1.42-1.35,2.74-2.8,4.06-4.25l2.59-2.85a7.19,7.19,0,0,0,1.34-1.82,6.48,6.48,0,0,0,.44-2.06c.19-2.09-.05-4.59-1.86-5.65a4.47,4.47,0,0,0-3.08-.38c-3.36.64-5.87,3.34-8.76,5.18a20.72,20.72,0,0,1-13,2.91,2.85,2.85,0,0,0-1.09,0,3,3,0,0,0-1,.85,21,21,0,0,0-3.46,4.64,12.45,12.45,0,0,0-1.16,2.64,8.58,8.58,0,0,0-.33,2.89,5.43,5.43,0,0,0,.33,2.32c.82,1.45,1.92,1.63,3.57,1.89C156.56,341.25,161.4,341.77,165.25,340.37Z" transform="translate(-45.4 -183.88)"/>
  </g>
</svg>
