<svg xmlns="http://www.w3.org/2000/svg" viewBox="0 0 183.06 126.94">
	<title>Ceratasaurus nasicornis</title>
	<g class="outline"><path d="M137.31,569.19a14.76,14.76,0,0,1,7.48,2.15c1.19.67,2.43,4,3.63,4.62a2.53,2.53,0,0,0,1.32.34l1,0H151l1.73,0c3.87,0,7.17-.46,11-.46a45.27,45.27,0,0,1,10.81,1.32,7.55,7.55,0,0,0,1.79.22,8.72,8.72,0,0,0,4.28-1.26c1.42-.78,3.25-2.75,4.84-2.75a1.83,1.83,0,0,1,.61.11c1.74,3.09.31,8.54,3,10.84a8.37,8.37,0,0,0,3.48,1.39c3.92,1,7.87,2.46,10.65,5.38s4.82,10.53,2.11,11.11a18.77,18.77,0,0,0-2.37-.38c-.46,0-.72.14-.58.55,1.71,2.57,5.42,15.38,5.84,16.82a23.72,23.72,0,0,0,6.54,11.21c1.69,1.7,2.44,3.25,2.08,5a1.18,1.18,0,0,0,.24.26h0a3.31,3.31,0,0,1,2.17-.72,5.24,5.24,0,0,1,4.7,2.88,8.65,8.65,0,0,1-1,7.54c-4.59,7.3-14.63,15.43-21.6,21.25a33.79,33.79,0,0,1-5.84,4c-7.86,4.18-16.19,5.28-24.89,7.24a108.79,108.79,0,0,1-19.88,2.28h-.67a61.74,61.74,0,0,0-15,2c-16.62,3.73-40.15,10-59.74,10-1.24,0-2.47,0-3.67-.07-6.45-.28-13.33-2.07-15.24-8.23a9.29,9.29,0,0,1-.12-4.65,2.82,2.82,0,0,1,2.23-1.49,14.38,14.38,0,0,1,.77-4.64,5.88,5.88,0,0,1,2.89-3.5h0c.33.22,0,1.49-.12,2.42a18.1,18.1,0,0,0,.06,5.29h2.59A20.59,20.59,0,0,1,65.83,671c1-2.86,3.29-4.49,3.72-4.49h0c.43.29,0,1.91-.15,3.11a28.11,28.11,0,0,0,0,7.5l1.86-.12a23.12,23.12,0,0,1,.66-6.55,9.48,9.48,0,0,1,2.75-4.74.52.52,0,0,1,.24-.08c.77,0,.3,3.17.2,4.49a24.22,24.22,0,0,0,.44,6.71l2.27-.12a7.91,7.91,0,0,1,1.53-5.57c.13-.16.24-.22.34-.22.61,0,.42,3,1.47,5.46l2.77-.29a20.77,20.77,0,0,1,.27-6.39c.61-3,3-5.42,3.32-5.42h0c.46.23.29,3.09.22,4.3a28.93,28.93,0,0,0,.82,6.89l1.16-.08a22,22,0,0,1,.29-6.58c.6-3,2.74-4.93,3.12-4.93h0c.46.23.27,1.89.25,3.1a29,29,0,0,0,1.06,7.62l1.32-.33a6.13,6.13,0,0,1,.7-4.45c.17-.23.29-.33.4-.33.48,0,.48,2.13,1.79,4.25l1.06-.32a15.52,15.52,0,0,1,.22-6.82,7.28,7.28,0,0,1,3.82-4.42h0c.46.23-.44,3.08-.33,5.18a12.93,12.93,0,0,0,1,4.84l1.85-.54a15.38,15.38,0,0,1,.35-6.07c.76-2.7,2.82-4.91,3.19-4.91h0c.46.23.28,1.89.25,3.1a21.65,21.65,0,0,0,.89,6.48l2.06-.71a14,14,0,0,1-.28-4.66,13,13,0,0,1,1.77-5.08.27.27,0,0,1,.13-.05c.4,0,.36,2,.74,3.85a17.1,17.1,0,0,0,1.4,4.21l1.49-.66a9.43,9.43,0,0,1,0-4.48,7.16,7.16,0,0,1,2.3-3.91h0c.37.13.44,1.82.55,2.75a9.57,9.57,0,0,0,1.41,3.7l1.37-.7a9,9,0,0,1-.36-3.71,4.72,4.72,0,0,1,1.84-3.49h0c.37.09.37,1.21.46,2a9.46,9.46,0,0,0,1.09,3.72l1.85-.7a11.33,11.33,0,0,1-.68-3.91,5,5,0,0,1,1.5-3.74h0c.35.08.45,1.2.6,2a13.71,13.71,0,0,0,1.51,4.18l1.24-.66a6.63,6.63,0,0,1,.69-4.64c.19-.26.32-.38.42-.38.38,0,.3,1.73,1.56,3.78l1.79-.73a4.4,4.4,0,0,1-.25-2.79c.16-.4.27-.58.38-.58.31,0,.66,1.23,2.14,2.86,7.35-2.89,13.73-3.77,22-6.35,6.6-2.06,13.73-5.89,20.23-8.26,5.93-2.17,10.26-3.39,16-3.39.87,0,1.76,0,2.69.08.48,0,.91,0,1.3,0,4.17,0,4.35-1.45,6.72-1.63,1.72-.12,1.6,0,3.29-.22a17.31,17.31,0,0,0-9.92-3c-4.79,0-9.34,1.66-14.49,1.66-.37,0-.75,0-1.12,0-3.17-.16-6.21-1.18-9.27-2a55.36,55.36,0,0,0-15.05-2,81.9,81.9,0,0,0-14,1.35c-.42,2.26.05,3.38-.26,3.38-.1,0-.27-.11-.57-.33a4.43,4.43,0,0,1-1.26-2.5l-1.26.27a10.51,10.51,0,0,0-.83,4c-.05.8.4,3.71-.32,3.71a.69.69,0,0,1-.45-.25c-1.93-1.81-2-4.89-2.05-6.48l-1.86.46a34.1,34.1,0,0,0-.74,7c0,1.89.5,4.06-.32,4.06a1.41,1.41,0,0,1-.75-.35,7.65,7.65,0,0,1-2.32-4.13,28.25,28.25,0,0,1-.66-5.32l-2,.53c-.48,2.58.25,4.79-.42,4.79a.8.8,0,0,1-.4-.16c-1.22-.76-1.66-2.15-2-3.8l-1.63.43a69.65,69.65,0,0,0-.35,7.66c.07,3.53.83,6.21,0,6.21a1,1,0,0,1-.48-.18,8.63,8.63,0,0,1-3.8-5.62,29.22,29.22,0,0,1-.95-6.56l-2.27.54a25.88,25.88,0,0,0-.3,7.4c.19,2.71,1.06,5.68.22,5.68a.88.88,0,0,1-.44-.18,11.06,11.06,0,0,1-3.53-4.95,32.66,32.66,0,0,1-1.69-6.84l-2.11.29c-.65,4.34.36,8.15-.57,8.15-.24,0-.6-.25-1.16-.8a12,12,0,0,1-3.54-6.78l-2.57.3a32.23,32.23,0,0,0,2,10.08c1.18,3.54,2.7,5.81,2.21,6.39a.19.19,0,0,1-.13,0c-.82,0-5.22-1.75-8-6.31-1.76-2.86-3.21-7.55-3.08-10.12L96,643.55a40,40,0,0,0,2.1,11.24c1.18,3.53,2.81,6.11,2.31,6.69l-.08,0c-.74,0-5.84-2.44-8.34-7.29A22.89,22.89,0,0,1,89.69,643l-2.86-.55a47,47,0,0,0,.88,8.91c.39,1.94,1.28,4.8.45,4.8a.9.9,0,0,1-.45-.17c-1.21-.78-3-3.37-4.29-5.62a21.6,21.6,0,0,1-2.29-9l-1.4-.33a42.24,42.24,0,0,0,2.06,11.56c1.18,3.53,2.81,6.11,2.31,6.69l-.08,0c-.74,0-5.84-2.44-8.34-7.29-2.18-4.22-2.23-9.6-2.1-12.18l-1.37-.25a40.12,40.12,0,0,0-.24,8.77c.15,1.53.55,3.63,0,4l-.06,0c-.52,0-3.39-2.23-4.46-6a24.6,24.6,0,0,1-.93-7.82l-2.89-.29c-.05,3.43.13,7.61.35,9.81.16,1.54.73,3.41.17,3.75H64.1c-.49,0-3.29-2.52-4.37-6.27a23.26,23.26,0,0,1-.8-7.61l-2.32-.14c0,3.42.18,7.58.4,9.78.15,1.53.73,3.41.17,3.74h0c-.49,0-3.3-2.51-4.37-6.27a21,21,0,0,1-.82-7.18l-.91,0c0,3.43.23,7.54.45,9.74.15,1.53.72,3.41.16,3.74h0c-.49,0-3.3-2.51-4.37-6.26a21.53,21.53,0,0,1-.82-7.27,2.1,2.1,0,0,1-1-1.62c-.1-6.1,2.56-12.78,5.84-19.08,1.2-2.29,2.07-5.44,3.58-7.54,3.31-4.58,7.34-7.22,12.06-10.32,1.57-1,4.5-1.51,5.86-2.81,3.86-3.68,5.29-10.07,8.09-14.61,3-4.84,4-9.25,10.87-9.38h.84c9.54,0,7.25,3.52,10.62,6.23s7,5.53,11.2,5.71c.81,0,1.55,0,2.24,0,4.67,0,6.57-.89,8.33-4.15.7-1.31,1.43-3.44,2-4.8a10.89,10.89,0,0,1,8.19-6.21,14.9,14.9,0,0,1,2.17-.16m0-2a17.25,17.25,0,0,0-2.45.18,13,13,0,0,0-9.73,7.36c-.27.58-.53,1.25-.81,2a29,29,0,0,1-1.19,2.73c-1.29,2.39-2.3,3.09-6.56,3.09-.62,0-1.33,0-2.16,0-3.67-.15-6.9-2.76-10-5.27a6.08,6.08,0,0,1-1.51-2c-1.45-2.64-3.14-4.66-10.36-4.66h-.88c-6.8.13-9,4.12-11.18,8-.42.77-.86,1.56-1.35,2.35a48.37,48.37,0,0,0-2.91,5.91c-1.35,3.09-2.74,6.29-4.86,8.31a9.38,9.38,0,0,1-2.63,1.24,14.93,14.93,0,0,0-3,1.34c-4.87,3.2-9.06,6-12.58,10.82a24.15,24.15,0,0,0-2.52,5c-.41,1-.79,2-1.21,2.76-4.24,8.13-6.16,14.5-6.07,20a3.84,3.84,0,0,0,1,2.48,23.5,23.5,0,0,0,.92,6.93c1.1,3.82,4.28,7.71,6.3,7.71h.55l.53-.29a2.41,2.41,0,0,0,1.17-2c1.13,1.3,2.33,2.16,3.28,2.16h.56l.52-.29c1.27-.77,1.3-2.13,1.12-3.48,1.43,2.4,3.38,4.26,4.77,4.26h.56l.52-.3c1.56-.94,1.25-2.78,1-4.4,0-.27-.09-.54-.13-.8,1.42,3.35,4.2,6,5.88,6A2.18,2.18,0,0,0,73,654a2.4,2.4,0,0,0,.94-1c2.7,5.17,8.32,8.31,10.08,8.31a2.08,2.08,0,0,0,1.6-.72c.88-1,.64-2.22,0-3.74a7.38,7.38,0,0,0,1,.79,2.79,2.79,0,0,0,1.53.49,2.24,2.24,0,0,0,1.78-.86,2.66,2.66,0,0,0,.56-1.66,18,18,0,0,0,9,7.74,8.65,8.65,0,0,0-1.37,2.75,13.25,13.25,0,0,0-.34,1.57,2.26,2.26,0,0,0-2.26.41c0-.39,0-.74,0-1s0-.46,0-.7c.07-1.71.15-3.47-1.38-4.23l-.42-.21h-.5c-1.09,0-2.38,1.06-3.41,2.59a2.46,2.46,0,0,0-1.31-2l-.42-.21h-.5c-2.13,0-4.72,4.25-5.28,7-.11.55-.2,1.13-.27,1.71-.29-1.08-.87-2.09-2.28-2.09a2.43,2.43,0,0,0-1.83.88,6.78,6.78,0,0,0-.79,1.08c0-.21,0-.42,0-.61s0-.46.07-.74c.25-2.52.34-4.12-.58-5.14a2.24,2.24,0,0,0-1.68-.76,2.46,2.46,0,0,0-1.27.37,7.49,7.49,0,0,0-2,2.23,2.28,2.28,0,0,0-1-1.38l-.51-.34h-.65c-1.52,0-4,2.09-5.25,4.93a2.2,2.2,0,0,0-1-1.56l-.5-.34h-.65c-1.64,0-3.92,2.32-4.79,4.86a16.42,16.42,0,0,0-.81,3.79,4.28,4.28,0,0,0-2.15,2.22c-.71,1.76-.3,4.82.07,6,2.31,7.45,10.55,9.35,17.06,9.63,1.21.06,2.48.08,3.76.08,16.93,0,36.61-4.57,52.42-8.25,2.72-.63,5.31-1.23,7.76-1.78a60,60,0,0,1,14.59-1.93h.67a109.18,109.18,0,0,0,20.32-2.33c1.7-.38,3.41-.73,5.06-1.08,7.08-1.46,13.77-2.85,20.33-6.34a36.47,36.47,0,0,0,6.19-4.25l1.4-1.17c6.82-5.68,16.15-13.45,20.6-20.55a10.69,10.69,0,0,0,1.18-9.32,7.23,7.23,0,0,0-6.57-4.16,4.61,4.61,0,0,0-.53,0,9.22,9.22,0,0,0-2.54-4,21.89,21.89,0,0,1-6-10.37l-.06-.2c-1.9-6.51-3.45-11.27-4.63-14.21l.3-.06a3.52,3.52,0,0,0,2.6-2.51c1-3.28-1.18-9.3-3.68-11.93-3.44-3.62-8.28-5.13-11.62-6l-.19,0a6.4,6.4,0,0,1-2.48-.94c-.91-.77-1.07-2.63-1.25-4.59a14,14,0,0,0-1.32-5.7l-.36-.65-.7-.25a3.73,3.73,0,0,0-1.29-.23c-1.74,0-3.23,1.12-4.54,2.11a13.48,13.48,0,0,1-1.27.89,6.74,6.74,0,0,1-3.31,1,5.6,5.6,0,0,1-1.32-.16,47.46,47.46,0,0,0-11.28-1.38c-2,0-3.85.12-5.65.24s-3.52.22-5.39.22l-1.65,0h-1.32a.58.58,0,0,1-.33-.08,11.38,11.38,0,0,1-1.13-1.64,8.09,8.09,0,0,0-2.51-3,16.71,16.71,0,0,0-8.46-2.41ZM150,635.65a76.28,76.28,0,0,1,12.21-1.07,53.42,53.42,0,0,1,14.51,1.95l1.47.42a35.88,35.88,0,0,0,8.24,1.69l1.22,0a28.76,28.76,0,0,0,3.12-.18,63.36,63.36,0,0,0-9.36,2.81c-2.89,1.05-5.93,2.4-8.86,3.7a109.89,109.89,0,0,1-11.29,4.53c-3.34,1.05-6.37,1.81-9.31,2.55a106.53,106.53,0,0,0-11.44,3.32c-.23-.32-.4-.61-.55-.85a2.62,2.62,0,0,0-2.24-1.62,2.17,2.17,0,0,0-1.86,1.08,2,2,0,0,0-1.62-.76,2.52,2.52,0,0,0-2,1.18,3,3,0,0,0-.2.29,2.42,2.42,0,0,0-1.8-1.92l-.1,0a15,15,0,0,0-.12-2.63c-.1-1-.21-2.08-.24-3.29,0-.81,0-2,.05-3.22a5.28,5.28,0,0,0,.86.66,2.67,2.67,0,0,0,1.46.47,2.21,2.21,0,0,0,1.41-.5,8.87,8.87,0,0,0,2.79,4.25,3.34,3.34,0,0,0,1.93.73,2.34,2.34,0,0,0,1.73-.75c.88-1,.78-2.26.67-3.79,0-.51-.08-1-.08-1.52,0-.29,0-.67,0-1.1a7.26,7.26,0,0,0,1.25,1.56,2.61,2.61,0,0,0,1.82.79,2.25,2.25,0,0,0,1.64-.71c.91-1,.81-2.5.71-4.12,0-.27,0-.65,0-.77s0-.23,0-.35l.14.11a2.91,2.91,0,0,0,1.76.72,2.09,2.09,0,0,0,1.51-.64,2.57,2.57,0,0,0,.59-2.09c0-.24,0-.55,0-.93Zm44.64,2.29.86-.15a38.93,38.93,0,0,1,6.64-.78,15.61,15.61,0,0,1,3.16.31,6.91,6.91,0,0,1-3.25.59l-1.18,0c-1-.06-1.91-.09-2.81-.09-1.19,0-2.32.05-3.42.15Zm-83.95,20.92a15,15,0,0,0-.88-2.33c-.42-1-.94-2.16-1.4-3.53s-.85-2.74-1.14-4a13.32,13.32,0,0,0,2,2.4,3.73,3.73,0,0,0,2.57,1.39,2.24,2.24,0,0,0,1.64-.69,3.29,3.29,0,0,0,.78-2.43,1.8,1.8,0,0,0,.08.21,12.92,12.92,0,0,0,4.31,6,2.82,2.82,0,0,0,1.53.49,2.28,2.28,0,0,0,1.73-.79c.88-1,.67-2.4.36-4.49-.08-.55-.18-1.15-.24-1.74a10.07,10.07,0,0,0,4.2,5.29,3.17,3.17,0,0,0,.88.38c-.11.25-.22.5-.31.76a2.15,2.15,0,0,0-.75-.34l-.24-.06h-.27c-1.15,0-2.25,1.09-3,2.5a2.17,2.17,0,0,0-1.18-.94l-.32-.11h-.35c-1.45,0-2.83,1.91-3.62,3.67-.2-1.28-.67-2.68-2.32-2.68a2.21,2.21,0,0,0-1.36.48,6.23,6.23,0,0,0-1.34,2.16,2.33,2.33,0,0,0-1.23-1.51l-.14-.07Zm-8.23,1.77a11.58,11.58,0,0,0-.82-2.4,17.87,17.87,0,0,0,2.48,2h-.28a3.12,3.12,0,0,0-1.38.42Zm3.52,1.75a2.56,2.56,0,0,0-.45-1.34c.34.18.67.33,1,.46-.18.29-.36.58-.52.88Z" transform="translate(-43.37 -567.19)"/></g>
	<g class="skull"><path d="M75.33,692.63c-1.26,0-2.49,0-3.72-.07-8.76-.39-14-3.27-15.69-8.58-.35-1.13-.75-3.86-.08-5.05,1-1.81,3.94-1.86,6.07-1.9h.47c18.42-.41,32.3-1.69,48.73-7a82.3,82.3,0,0,0,8.73-3.82c1.4-.67,2.71-1.3,3.78-1.77,1.38-.62,2.92-1.35,4.53-2.11,3.06-1.45,6.22-2.95,9.14-4.07a144.19,144.19,0,0,1,15.22-4.67c3-.79,6.08-1.61,9.22-2.59a110.67,110.67,0,0,0,11.44-4.6c2.92-1.29,5.93-2.63,8.77-3.66,7.13-2.6,11.77-3.76,18.86-3.34,3.28.21,4.48-.37,5.54-.87a6,6,0,0,1,2.41-.71,17.48,17.48,0,0,1,2.51,0,14.93,14.93,0,0,0,2.67,0,3.39,3.39,0,0,0,2.39-1.48,11,11,0,0,1,1-1.06h0a3.66,3.66,0,0,1,3.41-.77,5.36,5.36,0,0,1,3.68,3.13,9.11,9.11,0,0,1-1.05,8c-3.67,5.85-10.82,12.24-17.33,17.73l-1.22,1a53.52,53.52,0,0,1-9.27,6.79c-6.32,3.31-12.84,4.66-19.74,6.1-1.38.28-2.77.57-4.17.88a146.93,146.93,0,0,1-21.57,2.49,61.43,61.43,0,0,0-14.92,2c-2.45.55-5,1.15-7.77,1.78C111.53,688.11,92.07,692.63,75.33,692.63Zm122.72-52.34c-5.5,0-9.72,1.15-15.77,3.36-2.81,1-5.8,2.35-8.7,3.64A110.84,110.84,0,0,1,162,651.92c-3.17,1-6.27,1.81-9.27,2.61a140.77,140.77,0,0,0-15.11,4.64c-2.88,1.1-6,2.59-9.07,4-1.62.77-3.16,1.5-4.56,2.12-1.06.47-2.36,1.1-3.75,1.76a83.9,83.9,0,0,1-8.85,3.87c-16.55,5.37-30.51,6.66-49,7.07h-.47c-1.78,0-4.48.08-5.22,1.39-.43.77-.2,3.08.16,4.26,1.51,4.87,6.49,7.52,14.79,7.88,17.38.76,38.52-4.16,55.5-8.11,2.72-.63,5.33-1.24,7.78-1.79a62.55,62.55,0,0,1,15.14-2,145.59,145.59,0,0,0,21.36-2.47c1.4-.31,2.8-.6,4.18-.88,6.83-1.42,13.28-2.76,19.47-6a51.87,51.87,0,0,0,9.09-6.67l1.23-1c6.45-5.43,13.53-11.75,17.13-17.49a8.15,8.15,0,0,0,1-7.09,4.37,4.37,0,0,0-3-2.51,2.73,2.73,0,0,0-2.52.53,11.55,11.55,0,0,0-.92,1,4.32,4.32,0,0,1-3,1.82,15.18,15.18,0,0,1-2.86,0,18.79,18.79,0,0,0-2.37-.05,5.32,5.32,0,0,0-2,.63c-1.17.55-2.49,1.17-6,1C199.81,640.32,198.91,640.29,198.05,640.29Z" transform="translate(-43.37 -567.19)"/><path d="M167.71,672.77a18.9,18.9,0,0,1-3.7-.35,4,4,0,0,1-3-2.44,4.33,4.33,0,0,1,.66-4.15,9,9,0,0,1,1.74-1.66,18,18,0,0,1,3.73-2.49c2.66-1.22,5.63-1.12,8.45-.91,2.13.15,4.47.56,5.63,2.38a4.82,4.82,0,0,1-.66,5.48,10.16,10.16,0,0,1-4.71,2.8h0A27.14,27.14,0,0,1,167.71,672.77Zm5.06-11.13a12.32,12.32,0,0,0-5.19,1,17,17,0,0,0-3.53,2.36,8.34,8.34,0,0,0-1.55,1.47,3.35,3.35,0,0,0-.53,3.2,3,3,0,0,0,2.24,1.82,23.49,23.49,0,0,0,11.35-1h0a9.26,9.26,0,0,0,4.25-2.5,3.8,3.8,0,0,0,.59-4.3c-.93-1.44-3-1.78-4.87-1.92C174.62,661.7,173.69,661.64,172.77,661.64Z" transform="translate(-43.37 -567.19)"/><path d="M157.42,623a5.92,5.92,0,0,1-3.12-1.26,10.35,10.35,0,0,0-2.46-1,8.22,8.22,0,0,1-3.8-2h0c-4.08-4.78-3.08-16.47-2.42-24.2.09-1.1.18-2.11.24-3,.19-2.62,2.28-5.45,4.25-6.9a10.91,10.91,0,0,1,7-2.4,13.27,13.27,0,0,1,7.19,2.45,6,6,0,0,1,2,2.24l0,.13a7.07,7.07,0,0,1,.87,2.77,20.36,20.36,0,0,1-.85,7.36,11.46,11.46,0,0,1-1.12,2.11,7.49,7.49,0,0,0-1.17,2.44,20.87,20.87,0,0,0,0,6.26,24.92,24.92,0,0,1,.18,5.59,11.67,11.67,0,0,1-3.92,7.4,6.32,6.32,0,0,0-.57.58,4,4,0,0,1-1.81,1.37A3.08,3.08,0,0,1,157.42,623Zm-.85-39.8a10.39,10.39,0,0,0-5.87,2.24c-1.74,1.28-3.68,3.87-3.84,6.16-.06.89-.15,1.9-.24,3-.65,7.57-1.63,19,2.18,23.47h0a7.62,7.62,0,0,0,3.35,1.69,11,11,0,0,1,2.72,1.16c1.24.86,2.2,1.2,2.94,1a3.55,3.55,0,0,0,1.29-1.06,8.44,8.44,0,0,1,.66-.67,10.64,10.64,0,0,0,3.58-6.76,24.89,24.89,0,0,0-.18-5.37,21.54,21.54,0,0,1,0-6.56,8.49,8.49,0,0,1,1.3-2.77,9.68,9.68,0,0,0,1-1.92,19.51,19.51,0,0,0,.79-7,6.27,6.27,0,0,0-.77-2.37l-.06-.12a4.88,4.88,0,0,0-1.67-1.86,12.28,12.28,0,0,0-6.7-2.27Z" transform="translate(-43.37 -567.19)"/><path d="M130.24,622.15a10.67,10.67,0,0,1-3.63-1l-.45-.18c-4.4-1.73-9.2-2.42-13.85-3.09-2.36-.34-4.8-.7-7.17-1.18-2.67-.55-6.25-1.78-6.39-6.15-.08-2.43,1-3.92,2.56-5.77,3.39-4,8.09-7.4,12.24-10.37q1.28-.9,2.46-1.77a34.48,34.48,0,0,1,3.15-2c.81-.47,1.64-1,2.42-1.48a22.92,22.92,0,0,0,5.23-5.24c1-1.28,1.9-2.61,2.75-4a8.82,8.82,0,0,1,2.14-2.2l.56-.43a5.19,5.19,0,0,1,2.48-1.31,4.54,4.54,0,0,1,4.1,1.35,7.88,7.88,0,0,1,1,2.36,23.68,23.68,0,0,1-.45,10.08c-.21.79-.44,1.51-.67,2.23s-.5,1.52-.71,2.35c-.8,3.14-.63,7.25-.48,10.87a31.6,31.6,0,0,0,.61,4.19c.16.82.29,1.54.34,2,.28,2.63-1,5.25-3.83,8l-.31.3a6.72,6.72,0,0,1-3.69,2.31A2.73,2.73,0,0,1,130.24,622.15Zm-13.93-29.09.29.4-2.46,1.78c-4.11,2.93-8.76,6.25-12.07,10.19-1.45,1.73-2.39,3-2.32,5.1.09,2.82,1.82,4.43,5.59,5.2,2.35.48,4.77.83,7.12,1.17,4.7.68,9.56,1.38,14.06,3.15l.46.18a8.83,8.83,0,0,0,3.55.9,5.94,5.94,0,0,0,3.11-2l.32-.31c2.61-2.53,3.77-4.88,3.53-7.19-.05-.44-.18-1.13-.33-1.93a31.51,31.51,0,0,1-.63-4.29c-.16-3.74-.33-7.93.51-11.21.22-.86.48-1.65.72-2.41s.46-1.41.67-2.18a22.65,22.65,0,0,0,.42-9.65A7.16,7.16,0,0,0,138,578a3.64,3.64,0,0,0-3.16-1,4.42,4.42,0,0,0-2,1.1l-.59.46a7.56,7.56,0,0,0-1.88,1.92c-.87,1.38-1.81,2.74-2.8,4a23.78,23.78,0,0,1-5.47,5.47c-.81.54-1.66,1-2.48,1.51a35.7,35.7,0,0,0-3.06,1.92Z" transform="translate(-43.37 -567.19)"/><path d="M65.47,617.1l-1.09,0c-.56,0-1.09,0-1.49,0a10.17,10.17,0,0,1-2.61-.32c-.34-.07-.66-.14-.94-.18a2.27,2.27,0,0,1-1.84-1.19c-.41-.88-.13-2.13.83-3.7l.22-.36a9.91,9.91,0,0,1,3.07-3.59,16.88,16.88,0,0,0,1.65-1.33A18.43,18.43,0,0,1,65.05,605c.71-.47,1.42-.88,2.1-1.26.5-.28,1-.56,1.5-.87a11.13,11.13,0,0,1,4.4-1.72l.71-.12a5.37,5.37,0,0,1,3,0,4.69,4.69,0,0,1,2.57,3.23,9.85,9.85,0,0,1,0,4,6.45,6.45,0,0,1-2.26,4.16,9.23,9.23,0,0,1-3.82,1.67,6.29,6.29,0,0,0-2.69,1.12,10.39,10.39,0,0,1-1.13.77c-.25.16-.48.3-.64.42h0A5.91,5.91,0,0,1,65.47,617.1Zm-2-1h.89c1.35,0,3,.08,3.81-.48h0l.69-.45a8.73,8.73,0,0,0,1-.68A7.06,7.06,0,0,1,73,613.14a8.21,8.21,0,0,0,3.44-1.48,5.49,5.49,0,0,0,1.91-3.54,9.15,9.15,0,0,0,0-3.58,3.66,3.66,0,0,0-2-2.54,4.59,4.59,0,0,0-2.44,0l-.74.12a9.92,9.92,0,0,0-4,1.58c-.51.32-1,.6-1.52.89-.7.39-1.37.77-2.05,1.22a18.49,18.49,0,0,0-1.67,1.34,18.11,18.11,0,0,1-1.76,1.41,9.11,9.11,0,0,0-2.77,3.28l-.22.37c-.75,1.23-1,2.2-.77,2.75a1.32,1.32,0,0,0,1.08.62l1,.19a9.36,9.36,0,0,0,2.33.3Z" transform="translate(-43.37 -567.19)"/><path d="M195.76,629.07c-1.08,0-2.23-.05-3.34-.11s-2.54-.12-3.71-.1a22.84,22.84,0,0,1-6.23-.66,10.35,10.35,0,0,1-2.54-1.14,8.87,8.87,0,0,0-2.43-1,18,18,0,0,0-2.2-.36,13.3,13.3,0,0,1-3.54-.78,6.26,6.26,0,0,1-3.75-3.72c-1.09-3.11.44-7,1.92-9.65h0a15.49,15.49,0,0,0,1.89-6.68c0-.41,0-.83,0-1.25a8.58,8.58,0,0,1,1.33-5.53,6.7,6.7,0,0,0,1.14-4,9.09,9.09,0,0,1,.43-2.7c.74-2,2.82-2.72,4.32-3.07a9.14,9.14,0,0,1,4.86-.1,6.18,6.18,0,0,1,2.07,1.39c.2.17.38.34.54.46a1.13,1.13,0,0,0,.6.2,1.37,1.37,0,0,1,1.23.81,14.75,14.75,0,0,1,1,5.91c.06,2.7.12,5,2.29,6.49a3.39,3.39,0,0,1,1.12,2.59,4.41,4.41,0,0,0,.68,1.54,8.79,8.79,0,0,1,1.1,2.37,36.68,36.68,0,0,0,3.69,8.54c.28.52.61,1,.93,1.53a13.2,13.2,0,0,1,1.63,3.12c.52,1.68,1.51,4.8-.56,5.67a12.11,12.11,0,0,1-3.59.25h-.88Zm-6.64-1.22c1.09,0,2.23.06,3.34.11s2.54.12,3.72.11h.46a18.5,18.5,0,0,0,3.2-.17c1.23-.52.42-3.08,0-4.45a11.86,11.86,0,0,0-1.51-2.88c-.33-.51-.67-1-1-1.6a37.59,37.59,0,0,1-3.79-8.77,7.62,7.62,0,0,0-1-2.1,4.94,4.94,0,0,1-.82-1.86c-.08-.73-.18-1.61-.69-2-2.6-1.75-2.67-4.57-2.73-7.3a14,14,0,0,0-.88-5.52c-.08-.17-.13-.19-.45-.23a2.19,2.19,0,0,1-1.09-.4l-.58-.5a5.89,5.89,0,0,0-1.65-1.17,8.12,8.12,0,0,0-4.39.11c-2.05.47-3.16,1.22-3.61,2.43a7.91,7.91,0,0,0-.37,2.4,9.24,9.24,0,0,1-.34,2.48,10,10,0,0,1-.93,1.95,10.66,10.66,0,0,0-.77,1.5,10.25,10.25,0,0,0-.43,3.54q0,.64,0,1.29a16.54,16.54,0,0,1-2,7.11h0c-1.13,2-2.87,5.93-1.86,8.85a5.36,5.36,0,0,0,3.2,3.12,12.27,12.27,0,0,0,3.27.71,19,19,0,0,1,2.32.38,9.82,9.82,0,0,1,2.68,1.15,9,9,0,0,0,2.32,1,20.75,20.75,0,0,0,5.95.63Z" transform="translate(-43.37 -567.19)"/><path d="M181.62,665.17l-.42-.92a41.48,41.48,0,0,0,7.31-4.56,55.36,55.36,0,0,1,5.29-3.55,46.22,46.22,0,0,1,6.61-3.15,181.79,181.79,0,0,0,17.93-8c1.76-.85,5.41-2.64,5.46-5.12l1,0c-.06,2.72-2.92,4.49-6,6a181.71,181.71,0,0,1-18,8A44.45,44.45,0,0,0,194.3,657a52.85,52.85,0,0,0-5.2,3.48A42.2,42.2,0,0,1,181.62,665.17Z" transform="translate(-43.37 -567.19)"/><path d="M163.17,664.66c-.29-.23-.54-.45-.76-.66a3.35,3.35,0,0,0-1.8-1.06,11.09,11.09,0,0,1-2.67-1.05,15.07,15.07,0,0,0-1.47-.68,14.74,14.74,0,0,1-2.54-1.46l-.13-.09c-.51-.33-1-.61-1.39-.86a8.68,8.68,0,0,1-3.58-3.36l.87-.51a7.5,7.5,0,0,0,3.23,3c.43.26.9.54,1.42.89l.14.09a14.33,14.33,0,0,0,2.32,1.35,16.19,16.19,0,0,1,1.58.72,10.14,10.14,0,0,0,2.4,1,4.23,4.23,0,0,1,2.29,1.3c.21.19.44.4.71.62Z" transform="translate(-43.37 -567.19)"/><path d="M169.15,678.21l-.86-.51a3.24,3.24,0,0,0-2.39-5.13l.07-1a4.25,4.25,0,0,1,3.18,6.64Z" transform="translate(-43.37 -567.19)"/><path d="M100.18,644.07c-8.44,0-15-1.36-21.89-2.78-8.32-1.73-16.92-3.51-29.47-2.82h-.16c-.94.06-3.41.22-3.78-2.14-.1-5.34,1.77-11.48,5.89-19.38.45-.86.85-1.84,1.27-2.88a23.1,23.1,0,0,1,2.35-4.72c3.35-4.65,7.44-7.33,12.17-10.44a13.13,13.13,0,0,1,2.66-1.19,9.6,9.6,0,0,0,3.14-1.57c2.34-2.23,3.8-5.56,5.2-8.79a47.47,47.47,0,0,1,2.81-5.72c.51-.82,1-1.63,1.39-2.41,2.12-3.81,4-7.1,9.9-7.21,7.67-.16,8.76,1.8,9.9,3.88a7.49,7.49,0,0,0,1.88,2.45c3.31,2.67,6.74,5.43,10.91,5.6,6.48.27,8.27-.42,10.1-3.83a28.23,28.23,0,0,0,1.26-2.89c.27-.68.54-1.35.78-1.88a11.45,11.45,0,0,1,8.58-6.5,14.87,14.87,0,0,1,10,2,7.23,7.23,0,0,1,2,2.46,7.06,7.06,0,0,0,1.66,2.15,2.31,2.31,0,0,0,1.47.27c.26,0,.54,0,.87,0a66.65,66.65,0,0,0,7.2-.2,49.49,49.49,0,0,1,16.48,1.11,7.5,7.5,0,0,0,5.7-1,13.21,13.21,0,0,0,1.45-1c1.38-1,2.94-2.21,4.42-1.67l.17.06.09.16a12.89,12.89,0,0,1,1.14,5.1c.2,2.28.4,4.44,1.78,5.61a7.47,7.47,0,0,0,3.08,1.24l.19,0c5,1.23,8.48,3,10.89,5.52s4.11,8,3.33,10.45a2,2,0,0,1-1.47,1.49l-.1,0-.09,0-.74-.14a11,11,0,0,0-1.57-.23h0c1.46,2.38,4.19,11.34,5.71,16.53l.06.2a23.52,23.52,0,0,0,6.42,11c1.58,1.62,2.35,3.16,2.3,4.59a4.29,4.29,0,0,1-1.64,3.09c-2.1,1.85-4.79.45-7.17-.78a23.16,23.16,0,0,0-2.43-1.16c-2.91-1.1-6.8-.4-10.92.35a42.67,42.67,0,0,1-8.74,1,30.73,30.73,0,0,1-7.68-1.56l-1.7-.49c-9.27-2.59-19.82-2.59-31.34,0-4.26.95-8.57,2.16-12.73,3.32a157.36,157.36,0,0,1-20.59,4.78A89.71,89.71,0,0,1,100.18,644.07Zm-45.91-6.75c9.8,0,17.11,1.51,24.22,3,9.78,2,19,3.93,33.87,1.88a158.38,158.38,0,0,0,20.45-4.75c4.17-1.17,8.5-2.38,12.78-3.34,11.69-2.61,22.39-2.61,31.83,0l1.71.49a30.3,30.3,0,0,0,7.43,1.52,43.34,43.34,0,0,0,8.54-1c4.25-.78,8.28-1.5,11.44-.31a23.44,23.44,0,0,1,2.54,1.21c2.3,1.19,4.47,2.32,6,.92a3.39,3.39,0,0,0,1.3-2.38c0-1.14-.63-2.44-2-3.85h0a24.69,24.69,0,0,1-6.67-11.42l-.06-.2c-2.61-8.94-4.7-14.95-5.72-16.48l-.06-.12a.9.9,0,0,1,.13-.89c.45-.51,1.43-.32,2.67-.07l.62.12c.16-.05.46-.21.64-.78.66-2.15-1-7.28-3.1-9.47-2.27-2.39-5.58-4.06-10.41-5.24l-.18,0a8.2,8.2,0,0,1-3.5-1.46c-1.69-1.43-1.91-3.9-2.13-6.28a12.79,12.79,0,0,0-.92-4.52c-.95-.19-2.19.75-3.3,1.58a16.47,16.47,0,0,1-1.56,1.08,8.39,8.39,0,0,1-6.42,1.09,48.66,48.66,0,0,0-16.19-1.08,68.2,68.2,0,0,1-7.29.2c-.31,0-.57,0-.79,0a3.36,3.36,0,0,1-2-.38,7.1,7.1,0,0,1-2-2.52,7,7,0,0,0-1.61-2.11,13.7,13.7,0,0,0-9.33-1.93,10.41,10.41,0,0,0-7.81,5.92c-.24.52-.49,1.17-.76,1.84a30,30,0,0,1-1.3,3c-2.17,4-4.66,4.62-11,4.36-4.49-.19-8-3.05-11.49-5.82a8.43,8.43,0,0,1-2.13-2.75c-1.07-2-1.92-3.5-9-3.36-5.37.1-6.91,2.87-9,6.7-.44.79-.9,1.61-1.41,2.44a44.23,44.23,0,0,0-2.75,5.6c-1.45,3.32-2.94,6.75-5.43,9.12a10.38,10.38,0,0,1-3.48,1.78,12.61,12.61,0,0,0-2.45,1.08c-4.66,3.06-8.67,5.69-11.92,10.2A21.54,21.54,0,0,0,53,614.46c-.43,1.06-.84,2.06-1.31,3-4,7.75-5.88,13.73-5.79,18.84.19,1.14,1.23,1.32,2.72,1.23h.18C50.69,637.37,52.52,637.32,54.27,637.32Z" transform="translate(-43.37 -567.19)"/><path d="M64.68,638.2l-1,0a82,82,0,0,1,1.61-14.65,20.55,20.55,0,0,1,2-5.87A8.59,8.59,0,0,1,72,613.53c.41-.13.82-.21,1.23-.3a8.55,8.55,0,0,0,1.53-.41,8.22,8.22,0,0,0,2.88-2.45A94,94,0,0,1,89.32,599c5.35-4.34,11.12-6.58,17.23-9,1.66-.64,3.34-1.3,5.06-2a80.33,80.33,0,0,0,9.21-4.55l.49.87A80.6,80.6,0,0,1,112,589c-1.72.72-3.41,1.38-5.08,2-6,2.35-11.73,4.57-17,8.8A94.13,94.13,0,0,0,78.42,611a8.92,8.92,0,0,1-3.25,2.72,10.15,10.15,0,0,1-1.71.47c-.38.08-.77.16-1.14.27a7.63,7.63,0,0,0-4.18,3.67,19.74,19.74,0,0,0-1.87,5.58A81,81,0,0,0,64.68,638.2Z" transform="translate(-43.37 -567.19)"/><path d="M155.09,633.09a9,9,0,0,0-4.22-3.9c-1.34-.54-5.06-1.45-7.28-2l-1.23-.3a48.8,48.8,0,0,1-8.19-2.75c-1.69-.69-3.79-1.56-7.13-2.76l.33-.94c3.37,1.21,5.48,2.08,7.18,2.78a49,49,0,0,0,8,2.7l1.22.3c2.25.55,6,1.46,7.43,2a10,10,0,0,1,4.71,4.36Z" transform="translate(-43.37 -567.19)"/><path d="M147.81,588.7l-.92-.37a16.91,16.91,0,0,0,1-5.65q0-.52,0-1.14a17.54,17.54,0,0,0-.28-3.47,20.09,20.09,0,0,0-1.27-3.65l.92-.42a21.92,21.92,0,0,1,1.32,3.83,17.89,17.89,0,0,1,.31,3.69q0,.6,0,1.11A17.41,17.41,0,0,1,147.81,588.7Z" transform="translate(-43.37 -567.19)"/><path d="M63.66,607.15l-.9-.44a25,25,0,0,1,4.5-5.44c.7-.62,1.23-1.11,1.71-1.56a32.89,32.89,0,0,1,3-2.57A30.17,30.17,0,0,1,77.66,594c1.42-.67,2.65-1.2,3.87-1.73s2.44-1,3.85-1.71l.42.91c-1.42.66-2.64,1.19-3.87,1.72s-2.43,1.05-3.85,1.71a30.11,30.11,0,0,0-5.5,3,34.38,34.38,0,0,0-2.92,2.51c-.49.45-1,.95-1.74,1.58A23.78,23.78,0,0,0,63.66,607.15Z" transform="translate(-43.37 -567.19)"/><path d="M102.8,631.7a20.76,20.76,0,0,1-5.38-.68A24.79,24.79,0,0,1,90,627.16a5.55,5.55,0,0,1-1.31-1.65,9.16,9.16,0,0,0-.54-.8,8.62,8.62,0,0,1-1.24-2.37,35.15,35.15,0,0,1-1.28-3.73,18.31,18.31,0,0,1,.7-12.13c.32-.7.68-1.38,1-2A26.23,26.23,0,0,0,88.6,602l.33-.9a7,7,0,0,1,1.81-3.23l.65.75a6.26,6.26,0,0,0-1.52,2.81c-.11.31-.22.63-.34.93a24.24,24.24,0,0,1-1.27,2.61c-.35.64-.71,1.3-1,2a17.16,17.16,0,0,0-.65,11.46A34.65,34.65,0,0,0,87.85,622a7.5,7.5,0,0,0,1.09,2.11,9.55,9.55,0,0,1,.61.91,4.89,4.89,0,0,0,1,1.34,23.86,23.86,0,0,0,7.12,3.73,19.87,19.87,0,0,0,5.23.64c1.34,0,2.7,0,4.06-.08,2.81-.08,5.71-.15,8.54,0l-.07,1c-2.78-.17-5.66-.09-8.44,0-1.37,0-2.73.07-4.09.08Z" transform="translate(-43.37 -567.19)"/><path d="M124.73,631.47a22.42,22.42,0,0,0-4.84-.22l-.07-1a23.15,23.15,0,0,1,5.06.23Z" transform="translate(-43.37 -567.19)"/><path d="M119.5,590.65a11.91,11.91,0,0,1,.2-6.56l.94.35a10.86,10.86,0,0,0-.18,5.95Z" transform="translate(-43.37 -567.19)"/><path d="M144.44,614.26l-1-.06a4.83,4.83,0,0,0-1.17-3.41,1.23,1.23,0,0,0-1-.37,4.06,4.06,0,0,1-4.43-2.47l.92-.39a3,3,0,0,0,3.38,1.86,2.26,2.26,0,0,1,1.84.64A5.76,5.76,0,0,1,144.44,614.26Z" transform="translate(-43.37 -567.19)"/><path d="M164.4,612.74l-1-.19c1-4.84,3.46-7.56,6.92-10.14a12.19,12.19,0,0,0,1.24-1.43c.3-.38.57-.73.75-.91l.72.69c-.16.17-.41.49-.69.84a10.5,10.5,0,0,1-1.42,1.61C167.57,605.73,165.3,608.2,164.4,612.74Z" transform="translate(-43.37 -567.19)"/><path d="M164.14,585.88c-.47-.68-1-1.51-1.46-2.32s-1-1.61-1.43-2.27a9.35,9.35,0,0,1-1-1.8,10,10,0,0,1-.18-1.45,3.48,3.48,0,0,1,.17-1.17,2.73,2.73,0,0,0,.15-.86l1,0a3.78,3.78,0,0,1-.18,1.17,2.69,2.69,0,0,0-.15.86c0,.28.1,1,.15,1.23a8.82,8.82,0,0,0,.84,1.5c.46.69,1,1.52,1.45,2.32s1,1.62,1.43,2.28Z" transform="translate(-43.37 -567.19)"/><path d="M153,583.14a6.72,6.72,0,0,0-4.93-5.52l.25-1A7.73,7.73,0,0,1,154,583Z" transform="translate(-43.37 -567.19)"/><path d="M192.73,604.41a4,4,0,0,1-1.49-.3A3,3,0,0,1,189.9,603a7,7,0,0,0-.47-.57l.72-.69a7.38,7.38,0,0,1,.55.66,2.08,2.08,0,0,0,.92.82,2.54,2.54,0,0,0,2.18,0c.89-.5,1.35-1.67,1.37-3.48a19.74,19.74,0,0,0-.64-5.19,1.69,1.69,0,0,1,.24-1.71,1.5,1.5,0,0,1,1.61-.2,7.33,7.33,0,0,1,4.87,5.52c0,.24.08.5.12.76.15,1,.28,1.91.95,2.36a2.59,2.59,0,0,0,1.74.25l.07,1a3.46,3.46,0,0,1-2.37-.41,4,4,0,0,1-1.38-3c0-.24-.07-.48-.12-.72a6.39,6.39,0,0,0-4.19-4.75c-.36-.11-.55-.09-.61,0s-.07.32,0,.73a21,21,0,0,1,.67,5.47c0,2.18-.66,3.64-1.87,4.33A3.18,3.18,0,0,1,192.73,604.41Z" transform="translate(-43.37 -567.19)"/><path d="M187.69,590.87l-.92-.41a5.21,5.21,0,0,0,0-4.17,6.19,6.19,0,0,0-3.65-2.49,23.06,23.06,0,0,0-2.72-.57c-.69-.12-1.39-.24-2.07-.4-3.81-.9-7.84-4-10-6.52l.76-.65c2.09,2.47,6,5.39,9.43,6.2.66.15,1.34.27,2,.38a26.45,26.45,0,0,1,2.83.6,7.12,7.12,0,0,1,4.23,2.95A6.21,6.21,0,0,1,187.69,590.87Z" transform="translate(-43.37 -567.19)"/><path d="M206.4,635.83l-.08-1a3.52,3.52,0,0,0,2.77-1.41,3.34,3.34,0,0,1,.73-.68,12,12,0,0,1,5.09-1.92l.14,1a11.14,11.14,0,0,0-4.71,1.78,3.2,3.2,0,0,0-.5.49A4.56,4.56,0,0,1,206.4,635.83Z" transform="translate(-43.37 -567.19)"/><path d="M94.39,611.34h-.18c-1.25-.09-2.27-1.08-3-3-.45-1.1-1-2.72-.11-4a4.4,4.4,0,0,1,1.13-1.07,5.71,5.71,0,0,0,.69-.58,5.33,5.33,0,0,0,1-2,6.52,6.52,0,0,1,1.07-2.16l.77.63a6.19,6.19,0,0,0-.9,1.86,6.06,6.06,0,0,1-1.2,2.32,5.84,5.84,0,0,1-.83.69,3.49,3.49,0,0,0-.88.82c-.45.67-.38,1.64.2,3.06s1.35,2.27,2.19,2.33a2.28,2.28,0,0,0,2-1.35,9.05,9.05,0,0,0,.68-1.65c.13-.39.27-.79.43-1.17a15.77,15.77,0,0,1,2.26-3.48l1.45-1.86.78.62-1.44,1.85a15.37,15.37,0,0,0-2.13,3.26c-.15.36-.28.73-.41,1.1a10.22,10.22,0,0,1-.75,1.83A3.38,3.38,0,0,1,94.39,611.34Z" transform="translate(-43.37 -567.19)"/><path d="M104.53,598.53l-.63-.78a6.85,6.85,0,0,0,1.27-1.31l.8.6A8.13,8.13,0,0,1,104.53,598.53Z" transform="translate(-43.37 -567.19)"/><path d="M198.41,635.48c-9.33-.35-17.27-2-23.6-5,0,0-2.89-1.54-2.51-2.62.24-.68,1.18-.6,2.63-.24a37.34,37.34,0,0,0,7.67.27c1.1,0,2.23-.07,3.43-.07v1c-1.19,0-2.31,0-3.4.07a38.4,38.4,0,0,1-7.9-.29,9.92,9.92,0,0,0-1.19-.23,9.11,9.11,0,0,0,1.69,1.2c6.21,2.89,14,4.53,23.22,4.87Z" transform="translate(-43.37 -567.19)"/><path d="M134.15,574.51l-.84-.53a1.71,1.71,0,0,0,.22-1.25,3.88,3.88,0,0,0-.24-.7,3.38,3.38,0,0,1-.33-1.38,2,2,0,0,1,.88-1.57l.55.84a1,1,0,0,0-.43.76,2.56,2.56,0,0,0,.26,1,4.44,4.44,0,0,1,.29.87A2.7,2.7,0,0,1,134.15,574.51Z" transform="translate(-43.37 -567.19)"/><path d="M137.29,573.56a4.17,4.17,0,0,1,.32-1.88l.11-.25c.22-.48.37-.84.23-1l-.09-.13a.93.93,0,0,1-.21-1.13l.84.54a.26.26,0,0,0,0-.2,1.1,1.1,0,0,0,.12.17l.14.19a2,2,0,0,1-.14,2l-.11.23a3.16,3.16,0,0,0-.24,1.42Z" transform="translate(-43.37 -567.19)"/><path d="M140.6,573.16l-.48-.88a.24.24,0,0,0-.12.16,1,1,0,0,0-.06-.14,1.62,1.62,0,0,1-.14-.48,1.39,1.39,0,0,1,.18-.7L140,571a2.45,2.45,0,0,0-.19-1.31l.89-.46a3.28,3.28,0,0,1,.23,2.15l-.08.16a1.19,1.19,0,0,0-.08.21.77.77,0,0,0,.06.15,1.8,1.8,0,0,1,.08.21A.86.86,0,0,1,140.6,573.16Z" transform="translate(-43.37 -567.19)"/><path d="M143.26,572.93l-.89-.45a2.73,2.73,0,0,0-.25-2.1l.83-.55A3.57,3.57,0,0,1,143.26,572.93Z" transform="translate(-43.37 -567.19)"/><path d="M129.12,577.06a1.83,1.83,0,0,1,.38-1.4,3.3,3.3,0,0,0,.23-.41,1.06,1.06,0,0,0-.34-1.21.9.9,0,0,1-.45-.66.77.77,0,0,1,.12-.44,8.15,8.15,0,0,0,.28-.81,6.29,6.29,0,0,1,.35-1l.89.45a7.09,7.09,0,0,0-.29.81,8.25,8.25,0,0,1-.28.84,2.06,2.06,0,0,1,.64,2.38,4.1,4.1,0,0,1-.3.54c-.18.3-.29.5-.26.65Z" transform="translate(-43.37 -567.19)"/><path d="M145.91,580.35c-.39-.81,0-2,.27-3.06a5.24,5.24,0,0,0,.36-2.14l1-.26a5.45,5.45,0,0,1-.36,2.68,4.35,4.35,0,0,0-.32,2.35Z" transform="translate(-43.37 -567.19)"/><path d="M104.09,586.3l-.23-1c2.36-.56,4.78-1,7.19-1.37a11.83,11.83,0,0,1,3.25-.16l-.12,1a11.19,11.19,0,0,0-3,.16C108.82,585.3,106.43,585.75,104.09,586.3Z" transform="translate(-43.37 -567.19)"/><path d="M92,580.34c-.17-.22-.35-.42-.53-.63a8.52,8.52,0,0,1-1-1.24,2.91,2.91,0,0,1-.35-2.67,3.66,3.66,0,0,1,.57-.89,2.62,2.62,0,0,0,.44-.66A1.27,1.27,0,0,0,91,573l.72-.68a2.21,2.21,0,0,1,.43,2.35,3.51,3.51,0,0,1-.58.89,3.36,3.36,0,0,0-.43.66,2,2,0,0,0,.29,1.76,7.73,7.73,0,0,0,.85,1.1c.19.22.39.45.57.68Z" transform="translate(-43.37 -567.19)"/><path d="M94.45,579.18a3.22,3.22,0,0,1,.66-2.72,6.14,6.14,0,0,1,1-.88,4.71,4.71,0,0,0,.75-.63c.36-.39.54-1,.24-1.33l.7-.72a2,2,0,0,1-.21,2.73,6.67,6.67,0,0,1-.87.75,4.45,4.45,0,0,0-.82.72,2.17,2.17,0,0,0-.45,1.87Z" transform="translate(-43.37 -567.19)"/><path d="M99.23,579.71l-1-.11a3.32,3.32,0,0,1,.77-2.05,3,3,0,0,1,.27-.23l.22-.19a.77.77,0,0,0,.07-.89l.82-.57a1.73,1.73,0,0,1-.17,2.15,2.07,2.07,0,0,1-.32.28l-.19.16A2.43,2.43,0,0,0,99.23,579.71Z" transform="translate(-43.37 -567.19)"/><path d="M88.11,578.54a2,2,0,0,1,.28-2.11l.18-.26a2.24,2.24,0,0,0,.48-1c0-.52-.42-1-.88-1.49l.71-.7a2.44,2.44,0,0,1,.51,3.76l-.16.24c-.28.44-.38.84-.25,1.07Z" transform="translate(-43.37 -567.19)"/><path d="M86,580.71l-.9-.43a1.24,1.24,0,0,0-.26-1.38l-.21-.18A1.83,1.83,0,0,1,84,578a2,2,0,0,1-.07-.92,1,1,0,0,0,0-.46l.86-.51a1.66,1.66,0,0,1,.15,1.07,1.12,1.12,0,0,0,0,.45,1.1,1.1,0,0,0,.34.35,3.48,3.48,0,0,1,.28.24A2.25,2.25,0,0,1,86,580.71Z" transform="translate(-43.37 -567.19)"/><path d="M95.09,575l-1-.32a1.55,1.55,0,0,0-.31-1.47l.74-.67A2.53,2.53,0,0,1,95.09,575Z" transform="translate(-43.37 -567.19)"/><path d="M135.22,623.73c-.78,0-1.56,0-2.37-.12l.1-1a27.33,27.33,0,0,0,8-.47,26.54,26.54,0,0,0,3.31-1c2.46-.84,5.24-1.78,7.69-1.44l-.14,1c-2.21-.31-4.88.59-7.23,1.39a25.73,25.73,0,0,1-3.45,1A33.43,33.43,0,0,1,135.22,623.73Z" transform="translate(-43.37 -567.19)"/><path d="M209.25,623.63a37.69,37.69,0,0,1-6.64-7.3,38.71,38.71,0,0,0-6.17-6.91,6.06,6.06,0,0,1-1.29-1.48,9.24,9.24,0,0,0-.63-.86,4.66,4.66,0,0,1-.76-2.31,6.93,6.93,0,0,0-.19-1l1-.28a7.46,7.46,0,0,1,.22,1.18,3.76,3.76,0,0,0,.55,1.81c.28.34.48.65.68.94a5,5,0,0,0,1.08,1.26,39.83,39.83,0,0,1,6.35,7.08,37.07,37.07,0,0,0,6.45,7.12Z" transform="translate(-43.37 -567.19)"/><path d="M109.07,594.08l-.44-.89a5.72,5.72,0,0,0,1.62-1.57l.21-.26a6.68,6.68,0,0,0,.56-.91l.19-.34a10,10,0,0,1,3.58-3.66l.51.86a9.07,9.07,0,0,0-3.22,3.29l-.18.32a6.72,6.72,0,0,1-.66,1.07l-.21.25A6.27,6.27,0,0,1,109.07,594.08Z" transform="translate(-43.37 -567.19)"/><path d="M137.39,622.85l-1-.08a13.52,13.52,0,0,1,.88-3.36c.11-.31.22-.6.3-.87a4.1,4.1,0,0,1,.41-.81,3.84,3.84,0,0,0,.22-.39,11.27,11.27,0,0,0,1.51-4.75l1,0a12.1,12.1,0,0,1-1.61,5.24c-.08.16-.17.31-.26.46a3.54,3.54,0,0,0-.32.6c-.09.28-.19.58-.31.9A13.18,13.18,0,0,0,137.39,622.85Z" transform="translate(-43.37 -567.19)"/><path d="M64.11,652.33a.89.89,0,0,1-.3-.06c-.83-.33-3.49-2.85-4.56-6.57a23.93,23.93,0,0,1-.82-7.78l1,.05a23,23,0,0,0,.78,7.45,12,12,0,0,0,3.7,5.76,13.37,13.37,0,0,0-.22-1.64c-.08-.47-.16-1-.2-1.42a93,93,0,0,1-.35-9.36h1c0,3.6.14,7.24.34,9.26,0,.43.12.9.2,1.35.23,1.37.41,2.45-.27,2.87A.6.6,0,0,1,64.11,652.33Z" transform="translate(-43.37 -567.19)"/><path d="M57.13,651.84a.68.68,0,0,1-.29-.06c-.84-.33-3.49-2.84-4.56-6.57a23.87,23.87,0,0,1-.82-7.77l1,0a23,23,0,0,0,.79,7.45,11.9,11.9,0,0,0,3.7,5.76,15,15,0,0,0-.22-1.64c-.08-.47-.16-1-.21-1.42-.2-2-.39-5.74-.34-9.37h1a91.54,91.54,0,0,0,.34,9.26c0,.44.12.9.2,1.35.23,1.37.41,2.46-.28,2.87A.6.6,0,0,1,57.13,651.84Z" transform="translate(-43.37 -567.19)"/><path d="M51.6,651.92a.72.72,0,0,1-.3-.06c-.83-.32-3.49-2.84-4.55-6.57a24.11,24.11,0,0,1-.83-7.77l1,.05a23,23,0,0,0,.79,7.45,11.85,11.85,0,0,0,3.7,5.76,15.65,15.65,0,0,0-.22-1.64c-.08-.47-.16-1-.21-1.42a93.71,93.71,0,0,1-.34-9.37h1a91.41,91.41,0,0,0,.34,9.26c0,.44.12.91.2,1.35.23,1.38.41,2.46-.28,2.87A.6.6,0,0,1,51.6,651.92Z" transform="translate(-43.37 -567.19)"/><path d="M84,659.8h-.11c-1.19-.14-6.2-2.76-8.67-7.55C72.92,647.75,72.92,642,73,639.68l1,.05c-.1,2.2-.11,7.77,2.1,12a15.9,15.9,0,0,0,7.55,6.93,22,22,0,0,0-.86-2.15c-.45-1-1-2.35-1.5-3.81A42.31,42.31,0,0,1,79.23,641l1,0a41.24,41.24,0,0,0,2,11.39c.47,1.42,1,2.7,1.47,3.73.83,1.91,1.24,2.86.74,3.44A.56.56,0,0,1,84,659.8Z" transform="translate(-43.37 -567.19)"/><path d="M100.36,662h-.11c-1.19-.13-6.2-2.76-8.67-7.55a23.63,23.63,0,0,1-2.39-11.51l1,.05a22.61,22.61,0,0,0,2.27,11,15.9,15.9,0,0,0,7.56,6.93,22,22,0,0,0-.86-2.15c-.45-1-1-2.35-1.5-3.81a42,42,0,0,1-2.09-11.73l1,0a41.61,41.61,0,0,0,2,11.39c.48,1.42,1,2.71,1.48,3.74.83,1.9,1.24,2.85.74,3.43A.56.56,0,0,1,100.36,662Z" transform="translate(-43.37 -567.19)"/><path d="M88.17,656.62a1.39,1.39,0,0,1-.73-.25c-1.33-.86-3.24-3.6-4.46-5.79a22.94,22.94,0,0,1-2.3-9.46l1,0a22,22,0,0,0,2.17,8.92c1.2,2.15,3,4.71,4.13,5.44h0a15.86,15.86,0,0,0-.49-2.76c-.11-.47-.22-.94-.3-1.36a47.63,47.63,0,0,1-.89-9h1a46.14,46.14,0,0,0,.87,8.81c.08.42.19.87.3,1.33.51,2.2.76,3.47.11,3.93A.7.7,0,0,1,88.17,656.62Z" transform="translate(-43.37 -567.19)"/><path d="M71.91,652.83a1,1,0,0,1-.34-.08,10.68,10.68,0,0,1-4.6-6.24,28.11,28.11,0,0,1-.9-8.42l1,0a26.89,26.89,0,0,0,.86,8.09,10.11,10.11,0,0,0,3.82,5.5,14,14,0,0,0-.17-2.37c0-.33-.08-.66-.11-1a44.61,44.61,0,0,1,.33-9.26l1,.15a44.34,44.34,0,0,0-.33,9c0,.3.07.62.11.94.24,1.9.35,3.09-.35,3.5A.61.61,0,0,1,71.91,652.83Z" transform="translate(-43.37 -567.19)"/><path d="M108.61,660.55h-.1c-1-.08-5.45-1.84-8.35-6.54-1.84-3-3.28-7.76-3.15-10.42l1,0c-.12,2.44,1.28,7,3,9.84a14.13,14.13,0,0,0,7.31,6,18.49,18.49,0,0,0-.79-2c-.44-1-1-2.26-1.48-3.74a30.88,30.88,0,0,1-1.9-10.07h1a30,30,0,0,0,1.85,9.75c.48,1.43,1,2.66,1.45,3.65.74,1.7,1.15,2.64.66,3.21A.66.66,0,0,1,108.61,660.55Z" transform="translate(-43.37 -567.19)"/><path d="M120.2,654.86a1.39,1.39,0,0,1-.73-.25,11.82,11.82,0,0,1-3.72-5.21,32.33,32.33,0,0,1-1.57-6.94l1-.11a31.08,31.08,0,0,0,1.51,6.71,10.56,10.56,0,0,0,3.33,4.7l0,0a14.54,14.54,0,0,0-.24-2.33c-.13-.85-.28-1.81-.34-2.74a28.28,28.28,0,0,1,.33-7.73l1,.18a27.15,27.15,0,0,0-.33,7.48c.07.89.21,1.83.34,2.66.28,1.88.45,3-.18,3.43A.79.79,0,0,1,120.2,654.86Z" transform="translate(-43.37 -567.19)"/><path d="M127.77,653.6a1.51,1.51,0,0,1-.74-.25,9.27,9.27,0,0,1-4-5.92,31.26,31.26,0,0,1-1-6.86l1,0a30.23,30.23,0,0,0,1,6.64,8.26,8.26,0,0,0,3.58,5.31l.1.06a13.27,13.27,0,0,0-.12-2.16c-.1-1-.22-2.17-.25-3.49a73.07,73.07,0,0,1,.35-7.72l1,.1a70.93,70.93,0,0,0-.35,7.6c0,1.28.15,2.46.24,3.41.19,1.87.29,2.81-.32,3.19A.78.78,0,0,1,127.77,653.6Z" transform="translate(-43.37 -567.19)"/><path d="M132.16,643.26a1.33,1.33,0,0,1-.68-.24c-1.46-.91-1.9-2.6-2.21-4.12l1-.2c.33,1.64.73,2.79,1.7,3.43,0-.23,0-.56,0-.85a14.71,14.71,0,0,1,.15-3.4l1,.18a13.72,13.72,0,0,0-.13,3.18c0,1,.07,1.64-.41,1.92A.7.7,0,0,1,132.16,643.26Z" transform="translate(-43.37 -567.19)"/><path d="M111.85,651.34c-.45,0-.94-.39-1.51-1a12.42,12.42,0,0,1-3.68-7l1-.18a11.47,11.47,0,0,0,3.4,6.52,4.65,4.65,0,0,0,.69.59,13,13,0,0,0,0-2,28.82,28.82,0,0,1,.19-5.65l1,.15a28.31,28.31,0,0,0-.18,5.46c.06,1.83.1,2.76-.57,3A.74.74,0,0,1,111.85,651.34Z" transform="translate(-43.37 -567.19)"/><path d="M138.28,647.74a2,2,0,0,1-1.05-.44,8.18,8.18,0,0,1-2.5-4.42,29.77,29.77,0,0,1-.68-5.56h1a29.22,29.22,0,0,0,.65,5.34,7.18,7.18,0,0,0,2.12,3.84,1.36,1.36,0,0,0,.38.22,8.07,8.07,0,0,0,0-1.83c0-.55-.08-1.14-.08-1.7a34.59,34.59,0,0,1,.76-7.16l1,.27a33.55,33.55,0,0,0-.72,6.89c0,.54,0,1.1.08,1.63.11,1.42.18,2.45-.48,2.82A.83.83,0,0,1,138.28,647.74Z" transform="translate(-43.37 -567.19)"/><path d="M143.7,642.94a1.18,1.18,0,0,1-.79-.39c-2.11-2-2.13-5.28-2.14-6.86h1c0,1.43,0,4.41,1.8,6.11a12.76,12.76,0,0,0,0-2c0-.44-.05-.83,0-1.06a11.08,11.08,0,0,1,.87-4.15l.91.42a9.94,9.94,0,0,0-.78,3.79,9,9,0,0,0,0,.94c.1,1.77.12,2.86-.55,3.18A.87.87,0,0,1,143.7,642.94Z" transform="translate(-43.37 -567.19)"/><path d="M147.94,637.82a1.69,1.69,0,0,1-.87-.43,4.85,4.85,0,0,1-1.45-2.83l1-.16a4.35,4.35,0,0,0,.92,2.06,11.19,11.19,0,0,1,.18-2.62l1,.18a10.34,10.34,0,0,0-.16,2.64c0,.5,0,.89-.32,1.08A.57.57,0,0,1,147.94,637.82Z" transform="translate(-43.37 -567.19)"/><path d="M89.3,675.48a22.65,22.65,0,0,1,.3-6.73,8.35,8.35,0,0,1,3.25-5.25.66.66,0,0,1,.61,0c.66.32.61,1.42.55,2.82,0,.25,0,.5,0,.73a29.18,29.18,0,0,0,1,7.45l-.94.33A29.86,29.86,0,0,1,93,667c0-.24,0-.5,0-.76a13,13,0,0,0,0-1.65,8,8,0,0,0-2.44,4.35,21.51,21.51,0,0,0-.28,6.41Z" transform="translate(-43.37 -567.19)"/><path d="M83.48,676.18a21.42,21.42,0,0,1,.28-6.55,10,10,0,0,1,3.5-5.74.61.61,0,0,1,.56,0c.51.25.71,1,.5,4.68a28.72,28.72,0,0,0,.81,6.84l-1,.23a28.54,28.54,0,0,1-.84-7,24.22,24.22,0,0,0,0-3.52,10,10,0,0,0-2.62,4.76,20,20,0,0,0-.26,6.24Z" transform="translate(-43.37 -567.19)"/><path d="M70.81,677.07a24,24,0,0,1,.68-6.73,9.71,9.71,0,0,1,3-5,.8.8,0,0,1,.9,0c.63.4.62,1.6.37,4.14,0,.29-.06.55-.07.77a23.13,23.13,0,0,0,.42,6.55l-1,.25a24.62,24.62,0,0,1-.46-6.88c0-.22,0-.49.07-.79a15.07,15.07,0,0,0,.12-3,9.71,9.71,0,0,0-2.4,4.34A23.2,23.2,0,0,0,71.8,677Z" transform="translate(-43.37 -567.19)"/><path d="M65.24,677.28h-1a20.87,20.87,0,0,1,1.12-6.42,8.4,8.4,0,0,1,3.91-4.78.65.65,0,0,1,.6,0c.61.41.43,1.49.19,2.86,0,.25-.09.5-.12.73a26.85,26.85,0,0,0,0,7.33l-1,.21a28.25,28.25,0,0,1,0-7.69c0-.24.08-.49.12-.75a12.66,12.66,0,0,0,.22-1.63,8,8,0,0,0-3,4A19.89,19.89,0,0,0,65.24,677.28Z" transform="translate(-43.37 -567.19)"/><path d="M95.39,674.43a6.6,6.6,0,0,1,.78-4.88c.12-.17.45-.6.92-.52s.65.61.88,1.46a11.46,11.46,0,0,0,1.21,3l-.85.52A12.14,12.14,0,0,1,97,670.76c0-.16-.09-.33-.14-.47a5.82,5.82,0,0,0-.52,3.88Z" transform="translate(-43.37 -567.19)"/><path d="M77.41,676.84c-.12-1-.09-4.12,1.62-6a.88.88,0,0,1,.91-.36c.56.16.66.85.86,2.08a14.27,14.27,0,0,0,.87,3.54l-.92.4a15.31,15.31,0,0,1-.94-3.78c-.06-.35-.12-.76-.18-1a7.59,7.59,0,0,0-1.22,5.05Z" transform="translate(-43.37 -567.19)"/><path d="M59,677.57H58a14.41,14.41,0,0,1,.78-4.68,6.67,6.67,0,0,1,3.12-3.8.66.66,0,0,1,.57,0c.53.36.38,1.24.19,2.35,0,.19-.07.38-.09.56a17.24,17.24,0,0,0,0,5.12l-1,.2a18.33,18.33,0,0,1-.06-5.47c0-.18.06-.38.09-.58s.13-.72.16-1a6.26,6.26,0,0,0-2.1,2.93A13.57,13.57,0,0,0,59,677.57Z" transform="translate(-43.37 -567.19)"/><path d="M112.67,669.71a14.63,14.63,0,0,1-.29-4.83,12.32,12.32,0,0,1,2-5.42.67.67,0,0,1,.67-.11c.49.2.56.84.7,2.12.07.65.16,1.38.3,2.08a16.39,16.39,0,0,0,1.37,4.1l-.91.43a17.73,17.73,0,0,1-1.44-4.33c-.15-.75-.24-1.5-.31-2.17l-.09-.71a13.1,13.1,0,0,0-1.25,4.11,13.46,13.46,0,0,0,.27,4.5Z" transform="translate(-43.37 -567.19)"/><path d="M105.82,671.64a15.25,15.25,0,0,1,.45-6.14c.72-2.58,2.63-4.88,3.39-5.22a.62.62,0,0,1,.52,0c.66.33.62,1.43.56,2.82l0,.74a19.22,19.22,0,0,0,.7,6l-.94.34a19.85,19.85,0,0,1-.76-6.4c0-.24,0-.5,0-.76a14.11,14.11,0,0,0,0-1.59,10.46,10.46,0,0,0-2.51,4.31,14.17,14.17,0,0,0-.43,5.74Z" transform="translate(-43.37 -567.19)"/><path d="M99.33,673.54a16.07,16.07,0,0,1,.23-7,8.09,8.09,0,0,1,3.86-4.66.79.79,0,0,1,.69-.06c.57.28.45,1,.23,2.52a15.9,15.9,0,0,0-.28,3.08A12.74,12.74,0,0,0,105,672l-.88.48a13.61,13.61,0,0,1-1-5.06,17.82,17.82,0,0,1,.29-3.29c.06-.41.13-.88.16-1.22a7.39,7.39,0,0,0-3,3.85,15.15,15.15,0,0,0-.21,6.61Z" transform="translate(-43.37 -567.19)"/><path d="M132.65,660.21a6.66,6.66,0,0,1,.79-4.88c.17-.23.49-.65.94-.57s.56.53.73,1.18a9.92,9.92,0,0,0,1.13,2.83l-.85.52a10.79,10.79,0,0,1-1.25-3.1l0-.09a5.84,5.84,0,0,0-.5,3.85Z" transform="translate(-43.37 -567.19)"/><path d="M137.15,658.49a4.82,4.82,0,0,1-.25-3.17c.18-.45.35-.88.78-.91s.61.32.85.76a10.28,10.28,0,0,0,1.52,2.16l-.75.67a11.41,11.41,0,0,1-1.53-2.13,4.39,4.39,0,0,0,.3,2.23Z" transform="translate(-43.37 -567.19)"/><path d="M117.94,667.19a9.31,9.31,0,0,1,0-4.58,8,8,0,0,1,2.46-4.21l.2-.11.3.05c.58.2.68,1,.82,2.54,0,.22,0,.44.06.62a8.16,8.16,0,0,0,1.22,3.27l-.78.63a9.23,9.23,0,0,1-1.43-3.78c0-.19,0-.42-.06-.65s-.09-1-.17-1.37a7.89,7.89,0,0,0-1.65,3.22,8.33,8.33,0,0,0,0,4.12Z" transform="translate(-43.37 -567.19)"/><path d="M128.5,662.57a11.76,11.76,0,0,1-.71-4.08,5.92,5.92,0,0,1,1.57-4.08.65.65,0,0,1,.55-.15c.61.14.74.92.9,1.91,0,.17.05.34.08.49a14.47,14.47,0,0,0,1.54,4.12l-.85.53a15.49,15.49,0,0,1-1.67-4.46c0-.16-.06-.34-.09-.52s-.08-.51-.14-.76a5.36,5.36,0,0,0-.89,2.92,10.78,10.78,0,0,0,.65,3.74Z" transform="translate(-43.37 -567.19)"/><path d="M123.45,664.51a8.68,8.68,0,0,1-.24-3.71A5.74,5.74,0,0,1,125.1,657a.79.79,0,0,1,.59-.15c.64.16.71,1,.79,2,0,.17,0,.33,0,.48a9.15,9.15,0,0,0,1,3.53l-.86.5a9.91,9.91,0,0,1-1.16-3.92c0-.16,0-.33,0-.51s0-.55-.08-.8a5.09,5.09,0,0,0-1.19,2.78,7.67,7.67,0,0,0,.2,3.33Z" transform="translate(-43.37 -567.19)"/></g>
	<g class="fenestra"><path d="M167.71,672.77a18.9,18.9,0,0,1-3.7-.35,4,4,0,0,1-3-2.44,4.33,4.33,0,0,1,.66-4.15,9,9,0,0,1,1.74-1.66,18,18,0,0,1,3.73-2.49c2.66-1.22,5.63-1.12,8.45-.91,2.13.15,4.47.56,5.63,2.38a4.82,4.82,0,0,1-.66,5.48,10.16,10.16,0,0,1-4.71,2.8h0A27.14,27.14,0,0,1,167.71,672.77Zm5.06-11.13a12.32,12.32,0,0,0-5.19,1,17,17,0,0,0-3.53,2.36,8.34,8.34,0,0,0-1.55,1.47,3.35,3.35,0,0,0-.53,3.2,3,3,0,0,0,2.24,1.82,23.49,23.49,0,0,0,11.35-1h0a9.26,9.26,0,0,0,4.25-2.5,3.8,3.8,0,0,0,.59-4.3c-.93-1.44-3-1.78-4.87-1.92C174.62,661.7,173.69,661.64,172.77,661.64Z" transform="translate(-43.37 -567.19)"/><path d="M157.42,623a5.92,5.92,0,0,1-3.12-1.26,10.35,10.35,0,0,0-2.46-1,8.22,8.22,0,0,1-3.8-2h0c-4.08-4.78-3.08-16.47-2.42-24.2.09-1.1.18-2.11.24-3,.19-2.62,2.28-5.45,4.25-6.9a10.91,10.91,0,0,1,7-2.4,13.27,13.27,0,0,1,7.19,2.45,6,6,0,0,1,2,2.24l0,.13a7.07,7.07,0,0,1,.87,2.77,20.36,20.36,0,0,1-.85,7.36,11.46,11.46,0,0,1-1.12,2.11,7.49,7.49,0,0,0-1.17,2.44,20.87,20.87,0,0,0,0,6.26,24.92,24.92,0,0,1,.18,5.59,11.67,11.67,0,0,1-3.92,7.4,6.32,6.32,0,0,0-.57.58,4,4,0,0,1-1.81,1.37A3.08,3.08,0,0,1,157.42,623Zm-.85-39.8a10.39,10.39,0,0,0-5.87,2.24c-1.74,1.28-3.68,3.87-3.84,6.16-.06.89-.15,1.9-.24,3-.65,7.57-1.63,19,2.18,23.47h0a7.62,7.62,0,0,0,3.35,1.69,11,11,0,0,1,2.72,1.16c1.24.86,2.2,1.2,2.94,1a3.55,3.55,0,0,0,1.29-1.06,8.44,8.44,0,0,1,.66-.67,10.64,10.64,0,0,0,3.58-6.76,24.89,24.89,0,0,0-.18-5.37,21.54,21.54,0,0,1,0-6.56,8.49,8.49,0,0,1,1.3-2.77,9.68,9.68,0,0,0,1-1.92,19.51,19.51,0,0,0,.79-7,6.27,6.27,0,0,0-.77-2.37l-.06-.12a4.88,4.88,0,0,0-1.67-1.86,12.28,12.28,0,0,0-6.7-2.27Z" transform="translate(-43.37 -567.19)"/><path d="M130.24,622.15a10.67,10.67,0,0,1-3.63-1l-.45-.18c-4.4-1.73-9.2-2.42-13.85-3.09-2.36-.34-4.8-.7-7.17-1.18-2.67-.55-6.25-1.78-6.39-6.15-.08-2.43,1-3.92,2.56-5.77,3.39-4,8.09-7.4,12.24-10.37q1.28-.9,2.46-1.77a34.48,34.48,0,0,1,3.15-2c.81-.47,1.64-1,2.42-1.48a22.92,22.92,0,0,0,5.23-5.24c1-1.28,1.9-2.61,2.75-4a8.82,8.82,0,0,1,2.14-2.2l.56-.43a5.19,5.19,0,0,1,2.48-1.31,4.54,4.54,0,0,1,4.1,1.35,7.88,7.88,0,0,1,1,2.36,23.68,23.68,0,0,1-.45,10.08c-.21.79-.44,1.51-.67,2.23s-.5,1.52-.71,2.35c-.8,3.14-.63,7.25-.48,10.87a31.6,31.6,0,0,0,.61,4.19c.16.82.29,1.54.34,2,.28,2.63-1,5.25-3.83,8l-.31.3a6.72,6.72,0,0,1-3.69,2.31A2.73,2.73,0,0,1,130.24,622.15Zm-13.93-29.09.29.4-2.46,1.78c-4.11,2.93-8.76,6.25-12.07,10.19-1.45,1.73-2.39,3-2.32,5.1.09,2.82,1.82,4.43,5.59,5.2,2.35.48,4.77.83,7.12,1.17,4.7.68,9.56,1.38,14.06,3.15l.46.18a8.83,8.83,0,0,0,3.55.9,5.94,5.94,0,0,0,3.11-2l.32-.31c2.61-2.53,3.77-4.88,3.53-7.19-.05-.44-.18-1.13-.33-1.93a31.51,31.51,0,0,1-.63-4.29c-.16-3.74-.33-7.93.51-11.21.22-.86.48-1.65.72-2.41s.46-1.41.67-2.18a22.65,22.65,0,0,0,.42-9.65A7.16,7.16,0,0,0,138,578a3.64,3.64,0,0,0-3.16-1,4.42,4.42,0,0,0-2,1.1l-.59.46a7.56,7.56,0,0,0-1.88,1.92c-.87,1.38-1.81,2.74-2.8,4a23.78,23.78,0,0,1-5.47,5.47c-.81.54-1.66,1-2.48,1.51a35.7,35.7,0,0,0-3.06,1.92Z" transform="translate(-43.37 -567.19)"/><path d="M195.76,629.07c-1.08,0-2.23-.05-3.34-.11s-2.54-.12-3.71-.1a22.84,22.84,0,0,1-6.23-.66,10.35,10.35,0,0,1-2.54-1.14,8.87,8.87,0,0,0-2.43-1,18,18,0,0,0-2.2-.36,13.3,13.3,0,0,1-3.54-.78,6.26,6.26,0,0,1-3.75-3.72c-1.09-3.11.44-7,1.92-9.65h0a15.49,15.49,0,0,0,1.89-6.68c0-.41,0-.83,0-1.25a8.58,8.58,0,0,1,1.33-5.53,6.7,6.7,0,0,0,1.14-4,9.09,9.09,0,0,1,.43-2.7c.74-2,2.82-2.72,4.32-3.07a9.14,9.14,0,0,1,4.86-.1,6.18,6.18,0,0,1,2.07,1.39c.2.17.38.34.54.46a1.13,1.13,0,0,0,.6.2,1.37,1.37,0,0,1,1.23.81,14.75,14.75,0,0,1,1,5.91c.06,2.7.12,5,2.29,6.49a3.39,3.39,0,0,1,1.12,2.59,4.41,4.41,0,0,0,.68,1.54,8.79,8.79,0,0,1,1.1,2.37,36.68,36.68,0,0,0,3.69,8.54c.28.52.61,1,.93,1.53a13.2,13.2,0,0,1,1.63,3.12c.52,1.68,1.51,4.8-.56,5.67a12.11,12.11,0,0,1-3.59.25h-.88Zm-6.64-1.22c1.09,0,2.23.06,3.34.11s2.54.12,3.72.11h.46a18.5,18.5,0,0,0,3.2-.17c1.23-.52.42-3.08,0-4.45a11.86,11.86,0,0,0-1.51-2.88c-.33-.51-.67-1-1-1.6a37.59,37.59,0,0,1-3.79-8.77,7.62,7.62,0,0,0-1-2.1,4.94,4.94,0,0,1-.82-1.86c-.08-.73-.18-1.61-.69-2-2.6-1.75-2.67-4.57-2.73-7.3a14,14,0,0,0-.88-5.52c-.08-.17-.13-.19-.45-.23a2.19,2.19,0,0,1-1.09-.4l-.58-.5a5.89,5.89,0,0,0-1.65-1.17,8.12,8.12,0,0,0-4.39.11c-2.05.47-3.16,1.22-3.61,2.43a7.91,7.91,0,0,0-.37,2.4,9.24,9.24,0,0,1-.34,2.48,10,10,0,0,1-.93,1.95,10.66,10.66,0,0,0-.77,1.5,10.25,10.25,0,0,0-.43,3.54q0,.64,0,1.29a16.54,16.54,0,0,1-2,7.11h0c-1.13,2-2.87,5.93-1.86,8.85a5.36,5.36,0,0,0,3.2,3.12,12.27,12.27,0,0,0,3.27.71,19,19,0,0,1,2.32.38,9.82,9.82,0,0,1,2.68,1.15,9,9,0,0,0,2.32,1,20.75,20.75,0,0,0,5.95.63Z" transform="translate(-43.37 -567.19)"/></g>
	<g class="teeth"><path d="M64.11,652.33a.89.89,0,0,1-.3-.06c-.83-.33-3.49-2.85-4.56-6.57a23.93,23.93,0,0,1-.82-7.78l1,.05a23,23,0,0,0,.78,7.45,12,12,0,0,0,3.7,5.76,13.37,13.37,0,0,0-.22-1.64c-.08-.47-.16-1-.2-1.42a93,93,0,0,1-.35-9.36h1c0,3.6.14,7.24.34,9.26,0,.43.12.9.2,1.35.23,1.37.41,2.45-.27,2.87A.6.6,0,0,1,64.11,652.33Z" transform="translate(-43.37 -567.19)"/><path d="M57.13,651.84a.68.68,0,0,1-.29-.06c-.84-.33-3.49-2.84-4.56-6.57a23.87,23.87,0,0,1-.82-7.77l1,0a23,23,0,0,0,.79,7.45,11.9,11.9,0,0,0,3.7,5.76,15,15,0,0,0-.22-1.64c-.08-.47-.16-1-.21-1.42-.2-2-.39-5.74-.34-9.37h1a91.54,91.54,0,0,0,.34,9.26c0,.44.12.9.2,1.35.23,1.37.41,2.46-.28,2.87A.6.6,0,0,1,57.13,651.84Z" transform="translate(-43.37 -567.19)"/><path d="M51.6,651.92a.72.72,0,0,1-.3-.06c-.83-.32-3.49-2.84-4.55-6.57a24.11,24.11,0,0,1-.83-7.77l1,.05a23,23,0,0,0,.79,7.45,11.85,11.85,0,0,0,3.7,5.76,15.65,15.65,0,0,0-.22-1.64c-.08-.47-.16-1-.21-1.42a93.71,93.71,0,0,1-.34-9.37h1a91.41,91.41,0,0,0,.34,9.26c0,.44.12.91.2,1.35.23,1.38.41,2.46-.28,2.87A.6.6,0,0,1,51.6,651.92Z" transform="translate(-43.37 -567.19)"/><path d="M84,659.8h-.11c-1.19-.14-6.2-2.76-8.67-7.55C72.92,647.75,72.92,642,73,639.68l1,.05c-.1,2.2-.11,7.77,2.1,12a15.9,15.9,0,0,0,7.55,6.93,22,22,0,0,0-.86-2.15c-.45-1-1-2.35-1.5-3.81A42.31,42.31,0,0,1,79.23,641l1,0a41.24,41.24,0,0,0,2,11.39c.47,1.42,1,2.7,1.47,3.73.83,1.91,1.24,2.86.74,3.44A.56.56,0,0,1,84,659.8Z" transform="translate(-43.37 -567.19)"/><path d="M100.36,662h-.11c-1.19-.13-6.2-2.76-8.67-7.55a23.63,23.63,0,0,1-2.39-11.51l1,.05a22.61,22.61,0,0,0,2.27,11,15.9,15.9,0,0,0,7.56,6.93,22,22,0,0,0-.86-2.15c-.45-1-1-2.35-1.5-3.81a42,42,0,0,1-2.09-11.73l1,0a41.61,41.61,0,0,0,2,11.39c.48,1.42,1,2.71,1.48,3.74.83,1.9,1.24,2.85.74,3.43A.56.56,0,0,1,100.36,662Z" transform="translate(-43.37 -567.19)"/><path d="M88.17,656.62a1.39,1.39,0,0,1-.73-.25c-1.33-.86-3.24-3.6-4.46-5.79a22.94,22.94,0,0,1-2.3-9.46l1,0a22,22,0,0,0,2.17,8.92c1.2,2.15,3,4.71,4.13,5.44h0a15.86,15.86,0,0,0-.49-2.76c-.11-.47-.22-.94-.3-1.36a47.63,47.63,0,0,1-.89-9h1a46.14,46.14,0,0,0,.87,8.81c.08.42.19.87.3,1.33.51,2.2.76,3.47.11,3.93A.7.7,0,0,1,88.17,656.62Z" transform="translate(-43.37 -567.19)"/><path d="M71.91,652.83a1,1,0,0,1-.34-.08,10.68,10.68,0,0,1-4.6-6.24,28.11,28.11,0,0,1-.9-8.42l1,0a26.89,26.89,0,0,0,.86,8.09,10.11,10.11,0,0,0,3.82,5.5,14,14,0,0,0-.17-2.37c0-.33-.08-.66-.11-1a44.61,44.61,0,0,1,.33-9.26l1,.15a44.34,44.34,0,0,0-.33,9c0,.3.07.62.11.94.24,1.9.35,3.09-.35,3.5A.61.61,0,0,1,71.91,652.83Z" transform="translate(-43.37 -567.19)"/><path d="M108.61,660.55h-.1c-1-.08-5.45-1.84-8.35-6.54-1.84-3-3.28-7.76-3.15-10.42l1,0c-.12,2.44,1.28,7,3,9.84a14.13,14.13,0,0,0,7.31,6,18.49,18.49,0,0,0-.79-2c-.44-1-1-2.26-1.48-3.74a30.88,30.88,0,0,1-1.9-10.07h1a30,30,0,0,0,1.85,9.75c.48,1.43,1,2.66,1.45,3.65.74,1.7,1.15,2.64.66,3.21A.66.66,0,0,1,108.61,660.55Z" transform="translate(-43.37 -567.19)"/><path d="M120.2,654.86a1.39,1.39,0,0,1-.73-.25,11.82,11.82,0,0,1-3.72-5.21,32.33,32.33,0,0,1-1.57-6.94l1-.11a31.08,31.08,0,0,0,1.51,6.71,10.56,10.56,0,0,0,3.33,4.7l0,0a14.54,14.54,0,0,0-.24-2.33c-.13-.85-.28-1.81-.34-2.74a28.28,28.28,0,0,1,.33-7.73l1,.18a27.15,27.15,0,0,0-.33,7.48c.07.89.21,1.83.34,2.66.28,1.88.45,3-.18,3.43A.79.79,0,0,1,120.2,654.86Z" transform="translate(-43.37 -567.19)"/><path d="M127.77,653.6a1.51,1.51,0,0,1-.74-.25,9.27,9.27,0,0,1-4-5.92,31.26,31.26,0,0,1-1-6.86l1,0a30.23,30.23,0,0,0,1,6.64,8.26,8.26,0,0,0,3.58,5.31l.1.06a13.27,13.27,0,0,0-.12-2.16c-.1-1-.22-2.17-.25-3.49a73.07,73.07,0,0,1,.35-7.72l1,.1a70.93,70.93,0,0,0-.35,7.6c0,1.28.15,2.46.24,3.41.19,1.87.29,2.81-.32,3.19A.78.78,0,0,1,127.77,653.6Z" transform="translate(-43.37 -567.19)"/><path d="M132.16,643.26a1.33,1.33,0,0,1-.68-.24c-1.46-.91-1.9-2.6-2.21-4.12l1-.2c.33,1.64.73,2.79,1.7,3.43,0-.23,0-.56,0-.85a14.71,14.71,0,0,1,.15-3.4l1,.18a13.72,13.72,0,0,0-.13,3.18c0,1,.07,1.64-.41,1.92A.7.7,0,0,1,132.16,643.26Z" transform="translate(-43.37 -567.19)"/><path d="M111.85,651.34c-.45,0-.94-.39-1.51-1a12.42,12.42,0,0,1-3.68-7l1-.18a11.47,11.47,0,0,0,3.4,6.52,4.65,4.65,0,0,0,.69.59,13,13,0,0,0,0-2,28.82,28.82,0,0,1,.19-5.65l1,.15a28.31,28.31,0,0,0-.18,5.46c.06,1.83.1,2.76-.57,3A.74.74,0,0,1,111.85,651.34Z" transform="translate(-43.37 -567.19)"/><path d="M138.28,647.74a2,2,0,0,1-1.05-.44,8.18,8.18,0,0,1-2.5-4.42,29.77,29.77,0,0,1-.68-5.56h1a29.22,29.22,0,0,0,.65,5.34,7.18,7.18,0,0,0,2.12,3.84,1.36,1.36,0,0,0,.38.22,8.07,8.07,0,0,0,0-1.83c0-.55-.08-1.14-.08-1.7a34.59,34.59,0,0,1,.76-7.16l1,.27a33.55,33.55,0,0,0-.72,6.89c0,.54,0,1.1.08,1.63.11,1.42.18,2.45-.48,2.82A.83.83,0,0,1,138.28,647.74Z" transform="translate(-43.37 -567.19)"/><path d="M143.7,642.94a1.18,1.18,0,0,1-.79-.39c-2.11-2-2.13-5.28-2.14-6.86h1c0,1.43,0,4.41,1.8,6.11a12.76,12.76,0,0,0,0-2c0-.44-.05-.83,0-1.06a11.08,11.08,0,0,1,.87-4.15l.91.42a9.94,9.94,0,0,0-.78,3.79,9,9,0,0,0,0,.94c.1,1.77.12,2.86-.55,3.18A.87.87,0,0,1,143.7,642.94Z" transform="translate(-43.37 -567.19)"/><path d="M147.94,637.82a1.69,1.69,0,0,1-.87-.43,4.85,4.85,0,0,1-1.45-2.83l1-.16a4.35,4.35,0,0,0,.92,2.06,11.19,11.19,0,0,1,.18-2.62l1,.18a10.34,10.34,0,0,0-.16,2.64c0,.5,0,.89-.32,1.08A.57.57,0,0,1,147.94,637.82Z" transform="translate(-43.37 -567.19)"/><path d="M89.3,675.48a22.65,22.65,0,0,1,.3-6.73,8.35,8.35,0,0,1,3.25-5.25.66.66,0,0,1,.61,0c.66.32.61,1.42.55,2.82,0,.25,0,.5,0,.73a29.18,29.18,0,0,0,1,7.45l-.94.33A29.86,29.86,0,0,1,93,667c0-.24,0-.5,0-.76a13,13,0,0,0,0-1.65,8,8,0,0,0-2.44,4.35,21.51,21.51,0,0,0-.28,6.41Z" transform="translate(-43.37 -567.19)"/><path d="M83.48,676.18a21.42,21.42,0,0,1,.28-6.55,10,10,0,0,1,3.5-5.74.61.61,0,0,1,.56,0c.51.25.71,1,.5,4.68a28.72,28.72,0,0,0,.81,6.84l-1,.23a28.54,28.54,0,0,1-.84-7,24.22,24.22,0,0,0,0-3.52,10,10,0,0,0-2.62,4.76,20,20,0,0,0-.26,6.24Z" transform="translate(-43.37 -567.19)"/><path d="M70.81,677.07a24,24,0,0,1,.68-6.73,9.71,9.71,0,0,1,3-5,.8.8,0,0,1,.9,0c.63.4.62,1.6.37,4.14,0,.29-.06.55-.07.77a23.13,23.13,0,0,0,.42,6.55l-1,.25a24.62,24.62,0,0,1-.46-6.88c0-.22,0-.49.07-.79a15.07,15.07,0,0,0,.12-3,9.71,9.71,0,0,0-2.4,4.34A23.2,23.2,0,0,0,71.8,677Z" transform="translate(-43.37 -567.19)"/><path d="M65.24,677.28h-1a20.87,20.87,0,0,1,1.12-6.42,8.4,8.4,0,0,1,3.91-4.78.65.65,0,0,1,.6,0c.61.41.43,1.49.19,2.86,0,.25-.09.5-.12.73a26.85,26.85,0,0,0,0,7.33l-1,.21a28.25,28.25,0,0,1,0-7.69c0-.24.08-.49.12-.75a12.66,12.66,0,0,0,.22-1.63,8,8,0,0,0-3,4A19.89,19.89,0,0,0,65.24,677.28Z" transform="translate(-43.37 -567.19)"/><path d="M95.39,674.43a6.6,6.6,0,0,1,.78-4.88c.12-.17.45-.6.92-.52s.65.61.88,1.46a11.46,11.46,0,0,0,1.21,3l-.85.52A12.14,12.14,0,0,1,97,670.76c0-.16-.09-.33-.14-.47a5.82,5.82,0,0,0-.52,3.88Z" transform="translate(-43.37 -567.19)"/><path d="M77.41,676.84c-.12-1-.09-4.12,1.62-6a.88.88,0,0,1,.91-.36c.56.16.66.85.86,2.08a14.27,14.27,0,0,0,.87,3.54l-.92.4a15.31,15.31,0,0,1-.94-3.78c-.06-.35-.12-.76-.18-1a7.59,7.59,0,0,0-1.22,5.05Z" transform="translate(-43.37 -567.19)"/><path d="M59,677.57H58a14.41,14.41,0,0,1,.78-4.68,6.67,6.67,0,0,1,3.12-3.8.66.66,0,0,1,.57,0c.53.36.38,1.24.19,2.35,0,.19-.07.38-.09.56a17.24,17.24,0,0,0,0,5.12l-1,.2a18.33,18.33,0,0,1-.06-5.47c0-.18.06-.38.09-.58s.13-.72.16-1a6.26,6.26,0,0,0-2.1,2.93A13.57,13.57,0,0,0,59,677.57Z" transform="translate(-43.37 -567.19)"/><path d="M112.67,669.71a14.63,14.63,0,0,1-.29-4.83,12.32,12.32,0,0,1,2-5.42.67.67,0,0,1,.67-.11c.49.2.56.84.7,2.12.07.65.16,1.38.3,2.08a16.39,16.39,0,0,0,1.37,4.1l-.91.43a17.73,17.73,0,0,1-1.44-4.33c-.15-.75-.24-1.5-.31-2.17l-.09-.71a13.1,13.1,0,0,0-1.25,4.11,13.46,13.46,0,0,0,.27,4.5Z" transform="translate(-43.37 -567.19)"/><path d="M105.82,671.64a15.25,15.25,0,0,1,.45-6.14c.72-2.58,2.63-4.88,3.39-5.22a.62.62,0,0,1,.52,0c.66.33.62,1.43.56,2.82l0,.74a19.22,19.22,0,0,0,.7,6l-.94.34a19.85,19.85,0,0,1-.76-6.4c0-.24,0-.5,0-.76a14.11,14.11,0,0,0,0-1.59,10.46,10.46,0,0,0-2.51,4.31,14.17,14.17,0,0,0-.43,5.74Z" transform="translate(-43.37 -567.19)"/><path d="M99.33,673.54a16.07,16.07,0,0,1,.23-7,8.09,8.09,0,0,1,3.86-4.66.79.79,0,0,1,.69-.06c.57.28.45,1,.23,2.52a15.9,15.9,0,0,0-.28,3.08A12.74,12.74,0,0,0,105,672l-.88.48a13.61,13.61,0,0,1-1-5.06,17.82,17.82,0,0,1,.29-3.29c.06-.41.13-.88.16-1.22a7.39,7.39,0,0,0-3,3.85,15.15,15.15,0,0,0-.21,6.61Z" transform="translate(-43.37 -567.19)"/><path d="M132.65,660.21a6.66,6.66,0,0,1,.79-4.88c.17-.23.49-.65.94-.57s.56.53.73,1.18a9.92,9.92,0,0,0,1.13,2.83l-.85.52a10.79,10.79,0,0,1-1.25-3.1l0-.09a5.84,5.84,0,0,0-.5,3.85Z" transform="translate(-43.37 -567.19)"/><path d="M137.15,658.49a4.82,4.82,0,0,1-.25-3.17c.18-.45.35-.88.78-.91s.61.32.85.76a10.28,10.28,0,0,0,1.52,2.16l-.75.67a11.41,11.41,0,0,1-1.53-2.13,4.39,4.39,0,0,0,.3,2.23Z" transform="translate(-43.37 -567.19)"/><path d="M117.94,667.19a9.31,9.31,0,0,1,0-4.58,8,8,0,0,1,2.46-4.21l.2-.11.3.05c.58.2.68,1,.82,2.54,0,.22,0,.44.06.62a8.16,8.16,0,0,0,1.22,3.27l-.78.63a9.23,9.23,0,0,1-1.43-3.78c0-.19,0-.42-.06-.65s-.09-1-.17-1.37a7.89,7.89,0,0,0-1.65,3.22,8.33,8.33,0,0,0,0,4.12Z" transform="translate(-43.37 -567.19)"/><path d="M128.5,662.57a11.76,11.76,0,0,1-.71-4.08,5.92,5.92,0,0,1,1.57-4.08.65.65,0,0,1,.55-.15c.61.14.74.92.9,1.91,0,.17.05.34.08.49a14.47,14.47,0,0,0,1.54,4.12l-.85.53a15.49,15.49,0,0,1-1.67-4.46c0-.16-.06-.34-.09-.52s-.08-.51-.14-.76a5.36,5.36,0,0,0-.89,2.92,10.78,10.78,0,0,0,.65,3.74Z" transform="translate(-43.37 -567.19)"/><path d="M123.45,664.51a8.68,8.68,0,0,1-.24-3.71A5.74,5.74,0,0,1,125.1,657a.79.79,0,0,1,.59-.15c.64.16.71,1,.79,2,0,.17,0,.33,0,.48a9.15,9.15,0,0,0,1,3.53l-.86.5a9.91,9.91,0,0,1-1.16-3.92c0-.16,0-.33,0-.51s0-.55-.08-.8a5.09,5.09,0,0,0-1.19,2.78,7.67,7.67,0,0,0,.2,3.33Z" transform="translate(-43.37 -567.19)"/></g></svg>