<svg xmlns="http://www.w3.org/2000/svg" viewBox="0 0 180.06 123.94">
  <defs>
    <style>
      path {
        fill: none;
        stroke: #000;
        stroke-miterlimit: 10;
      }
    </style>
  </defs>
  <title>Ceratosaurus nasicornis</title>
  <metadata>
    <phyloxml xmlns:xsi="http://www.w3.org/2001/XMLSchema-instance" xmlns="http://www.phyloxml.org" xsi:schemaLocation="http://www.phyloxml.org http://www.phyloxml.org/1.10/phyloxml.xsd">
      <phylogeny rooted="true" rerootable="false">
        <clade>
          <name>Animalia</name>
          <clade>
            <name>Chordata</name>
            <clade>
              <name>Dinosauria</name>
              <clade>
                <name>Saurischia</name>
                <clade>
                  <name>Theropoda</name>
                  <clade>
                    <name>Ceratosauridae</name>
                    <clade>
                      <name>Ceratosaurus</name>
                    </clade>
                  </clade>
                </clade>
              </clade>
            </clade>
          </clade>
        </clade>
      </phylogeny>
    </phyloxml>
  </metadata>
  <g class="outline">
    <path class="cls-1" d="M216.85,635.43a1,1,0,0,0,.24.26c2-1.67,5.94-.24,6.87,2.16a8.65,8.65,0,0,1-1,7.54c-4.59,7.3-14.63,15.43-21.6,21.25a33.79,33.79,0,0,1-5.84,4c-7.86,4.18-16.19,5.28-24.89,7.24a108.36,108.36,0,0,1-20.15,2.28,61.57,61.57,0,0,0-15.43,2c-17.67,4-43.16,10.79-63.41,9.91-6.45-.28-13.33-2.07-15.24-8.23a8.79,8.79,0,0,1-.15-4.52,2.91,2.91,0,0,1,2.23-1.51,15.08,15.08,0,0,1,.8-4.75c.79-2.34,2.74-3.62,2.93-3.49s0,1.49-.12,2.42a19.24,19.24,0,0,0,0,5.51h2.59a22,22,0,0,1,1.1-6.48c1-3,3.52-4.64,3.76-4.48.43.29,0,1.91-.15,3.11a29,29,0,0,0,0,7.61l1.79,0a25,25,0,0,1,.72-6.74,9.48,9.48,0,0,1,2.75-4.74c1.1-.66.55,3,.44,4.41a25.18,25.18,0,0,0,.42,6.85l2.22-.22a8.11,8.11,0,0,1,1.6-5.61c1-1.16.59,2.61,1.8,5.38l2.77-.29a21.69,21.69,0,0,1,.28-6.53c.63-3.11,3.08-5.55,3.35-5.42.46.23.29,3.09.22,4.3a30.18,30.18,0,0,0,.85,7.1l1-.17a22.86,22.86,0,0,1,.37-6.7c.62-3.11,2.88-5.06,3.15-4.93.46.23.27,1.89.25,3.1a30.06,30.06,0,0,0,1,7.71l1.3-.25a6.6,6.6,0,0,1,.74-4.62c.94-1.25.6,1.34,2.19,3.92l1-.21a16,16,0,0,1,.25-6.93c.77-2.76,3.58-4.54,3.85-4.41.46.23-.44,3.08-.33,5.18a13.8,13.8,0,0,0,1,5l1.76-.46a16.6,16.6,0,0,1,.38-6.31c.78-2.78,2.94-5,3.21-4.91.46.23.28,1.89.25,3.1a22.68,22.68,0,0,0,1,6.66l2-.69a15.25,15.25,0,0,1-.29-4.86,13,13,0,0,1,1.77-5.08c.54-.42.46,1.78.87,3.8A18.82,18.82,0,0,0,117,668l1.46-.66a10.15,10.15,0,0,1-.06-4.65c.44-2.09,2.1-4,2.32-3.91.37.13.44,1.82.55,2.75a10,10,0,0,0,1.48,3.77l1.3-.58a9.87,9.87,0,0,1-.36-3.9c.21-2.13,1.64-3.54,1.86-3.48.37.09.37,1.21.46,2a10.53,10.53,0,0,0,1.2,3.89l1.82-.83a11.59,11.59,0,0,1-.76-4c0-2.15,1.3-3.79,1.51-3.74s.45,1.2.6,2A14.07,14.07,0,0,0,132,661l1.18-.49a7.23,7.23,0,0,1,.69-4.86c.93-1.25.56,1.1,2.14,3.67l1.77-.66a5.71,5.71,0,0,1-.39-3.13c.58-1.45.49,0,2.52,2.28,7.35-2.89,13.73-3.77,22-6.35,6.6-2.06,13.73-5.89,20.23-8.26,6.82-2.49,11.53-3.74,18.66-3.31,5.45.33,5.42-1.39,8-1.59,1.72-.12,1.6,0,3.29-.22-9.4-6.17-16.49-1-25.53-1.42-3.17-.16-6.21-1.18-9.27-2-10.23-2.86-19.55-2.33-29.08-.68-.55,3,.42,4-.83,3.05a4.43,4.43,0,0,1-1.26-2.5l-1.26.27a10.51,10.51,0,0,0-.83,4c-.05.93.55,4.71-.77,3.46-1.93-1.81-2-4.89-2.05-6.48l-1.86.46a34.1,34.1,0,0,0-.74,7c0,2.31.74,5-1.07,3.71a7.65,7.65,0,0,1-2.32-4.13,28.25,28.25,0,0,1-.66-5.32l-2,.53c-.55,3,.5,5.45-.82,4.63s-1.66-2.15-2-3.8l-1.63.43a69.65,69.65,0,0,0-.35,7.66c.08,4.05,1.07,7-.49,6a8.63,8.63,0,0,1-3.8-5.62,29.22,29.22,0,0,1-.95-6.56l-2.27.54a25.88,25.88,0,0,0-.3,7.4c.22,3.08,1.32,6.5-.22,5.5a11.06,11.06,0,0,1-3.53-4.95,32.66,32.66,0,0,1-1.69-6.84l-2.11.29c-.82,5.45,1,10.07-1.73,7.35a12,12,0,0,1-3.54-6.78l-2.57.3a32.23,32.23,0,0,0,2,10.08c1.18,3.54,2.7,5.81,2.21,6.39-.25.29-5.13-1.37-8.15-6.28-1.76-2.86-3.21-7.55-3.08-10.12L96,643.55a40,40,0,0,0,2.1,11.24c1.18,3.53,2.81,6.11,2.31,6.69-.25.29-5.78-2.15-8.42-7.27A22.89,22.89,0,0,1,89.69,643l-2.86-.55a47,47,0,0,0,.88,8.91c.44,2.2,1.54,5.62,0,4.63-1.21-.78-3-3.37-4.29-5.62a21.6,21.6,0,0,1-2.29-9l-1.4-.33a42.24,42.24,0,0,0,2.06,11.56c1.18,3.53,2.81,6.11,2.31,6.69-.24.29-5.78-2.15-8.42-7.27-2.18-4.22-2.23-9.6-2.1-12.18l-1.37-.25a40.12,40.12,0,0,0-.24,8.77c.15,1.53.55,3.63,0,4-.33.2-3.4-2-4.52-5.94a24.6,24.6,0,0,1-.93-7.82l-2.89-.29c-.05,3.43.13,7.61.35,9.81.16,1.54.73,3.41.17,3.75-.33.19-3.3-2.37-4.42-6.26a23.26,23.26,0,0,1-.8-7.61l-2.32-.14c0,3.42.18,7.58.4,9.78.15,1.53.73,3.41.17,3.74-.33.2-3.31-2.37-4.42-6.26a21,21,0,0,1-.82-7.18l-.91,0c0,3.43.23,7.54.45,9.74.15,1.53.72,3.41.16,3.74-.32.2-3.3-2.36-4.41-6.25a21.53,21.53,0,0,1-.82-7.27,2.1,2.1,0,0,1-1-1.62c-.1-6.1,2.56-12.78,5.84-19.08,1.2-2.29,2.07-5.44,3.58-7.54,3.31-4.58,7.34-7.22,12.06-10.32,1.57-1,4.5-1.51,5.86-2.81,3.86-3.68,5.29-10.07,8.09-14.61,3-4.84,4-9.25,10.87-9.38,10.51-.21,8,3.43,11.46,6.22s7,5.53,11.2,5.71c6.35.26,8.55-.36,10.57-4.1.7-1.31,1.43-3.44,2-4.8a10.89,10.89,0,0,1,8.19-6.21,14.35,14.35,0,0,1,9.65,2c1.19.67,2.43,4,3.63,4.62,1,.53,1.44.28,2.56.32,7.86.3,13-1.64,23.58.89a8,8,0,0,0,6.07-1c1.6-.88,3.73-3.27,5.45-2.64,1.74,3.09.31,8.54,3,10.84a8.37,8.37,0,0,0,3.48,1.39c3.92,1,7.87,2.46,10.65,5.38s4.82,10.53,2.11,11.11c-1.46-.25-3.27-.79-3,.17,1.71,2.57,5.42,15.38,5.84,16.82a23.72,23.72,0,0,0,6.54,11.21C216.46,632.11,217.21,633.66,216.85,635.43Z" transform="translate(-44.87 -568.69)"/>
  </g>
  <g class="teeth">
    <path class="cls-1" d="M58.42,677.84a15.45,15.45,0,0,1,.86-4.79c.79-2.34,2.74-3.62,2.93-3.49s0,1.49-.12,2.42a19.66,19.66,0,0,0,.13,5.5A18.51,18.51,0,0,0,58.42,677.84Z" transform="translate(-44.87 -568.69)"/>
    <path class="cls-1" d="M64.7,677.47A21.86,21.86,0,0,1,65.83,671c1-3,3.52-4.64,3.76-4.48.43.29,0,1.91-.15,3.11a29.39,29.39,0,0,0,0,7.67C67.93,677.38,66.26,677.42,64.7,677.47Z" transform="translate(-44.87 -568.69)"/>
    <path class="cls-1" d="M75.67,677c-1.47.09-3,.17-4.45.24a25.23,25.23,0,0,1,.75-6.75,9.48,9.48,0,0,1,2.75-4.74c1.1-.66.55,3,.44,4.41A25.28,25.28,0,0,0,75.67,677Z" transform="translate(-44.87 -568.69)"/>
    <path class="cls-1" d="M77.91,676.78c-.14-1.14,0-4,1.49-5.61,1-1.16.67,2.61,1.88,5.38C80.08,676.66,79.13,676.69,77.91,676.78Z" transform="translate(-44.87 -568.69)"/>
    <path class="cls-1" d="M88.55,675.71c-1.59.22-3,.36-4.57.53a21.56,21.56,0,0,1,.27-6.51c.63-3.11,3.08-5.55,3.35-5.42.46.23.29,3.09.22,4.3A30.09,30.09,0,0,0,88.55,675.71Z" transform="translate(-44.87 -568.69)"/>
    <path class="cls-1" d="M148.22,634.05c-.78.15-1.33.25-2.11.43a4.43,4.43,0,0,0,1.26,2.5C148.62,637.91,147.67,637,148.22,634.05Z" transform="translate(-44.87 -568.69)"/>
    <path class="cls-1" d="M141.27,635.69c1.14-.29,2.43-.67,3.58-.94a10.51,10.51,0,0,0-.83,4c-.05.93.55,4.71-.77,3.46C141.32,640.37,141.28,637.28,141.27,635.69Z" transform="translate(-44.87 -568.69)"/>
    <path class="cls-1" d="M134.45,637.5c1.57-.44,3.32-.92,4.89-1.34a34.1,34.1,0,0,0-.74,7c0,2.31.74,5-1.07,3.71a7.65,7.65,0,0,1-2.32-4.13A27.55,27.55,0,0,1,134.45,637.5Z" transform="translate(-44.87 -568.69)"/>
    <path class="cls-1" d="M132.57,638c-.87.25-1.93.59-2.81.83.33,1.65.77,3,2,3.8S132,641,132.57,638Z" transform="translate(-44.87 -568.69)"/>
    <path class="cls-1" d="M122.44,640.72c1.91-.46,3.8-1,5.69-1.49a69.65,69.65,0,0,0-.35,7.66c.08,4.05,1.07,7-.49,6a8.63,8.63,0,0,1-3.8-5.62A30.49,30.49,0,0,1,122.44,640.72Z" transform="translate(-44.87 -568.69)"/>
    <path class="cls-1" d="M114.61,642.31c1.87-.31,3.82-.7,5.67-1.11a26.46,26.46,0,0,0-.31,7.48c.22,3.08,1.32,6.5-.22,5.5a11.06,11.06,0,0,1-3.53-4.95A33,33,0,0,1,114.61,642.31Z" transform="translate(-44.87 -568.69)"/>
    <path class="cls-1" d="M107.15,643.27c1.68-.14,3.44-.34,5.27-.59h0c-.82,5.45,1,10.07-1.73,7.35A11.89,11.89,0,0,1,107.15,643.27Z" transform="translate(-44.87 -568.69)"/>
    <path class="cls-1" d="M104.66,643.42c-2.47.13-5,.17-7.15.1-.12,2.57,1.32,7.36,3.08,10.22,3,4.91,7.9,6.57,8.15,6.28.49-.58-1-2.85-2.21-6.39A33,33,0,0,1,104.66,643.42Z" transform="translate(-44.87 -568.69)"/>
    <path class="cls-1" d="M96,643.45c-2.18-.13-4.25-.33-6.25-.6A23.25,23.25,0,0,0,92,654.21c2.64,5.12,8.17,7.56,8.42,7.27.5-.58-1.13-3.16-2.31-6.69A40.74,40.74,0,0,1,96,643.45Z" transform="translate(-44.87 -568.69)"/>
    <path class="cls-1" d="M86.83,642.41c-2-.32-3.84-.68-5.72-1.06a21.47,21.47,0,0,0,2.31,9c1.24,2.25,3.08,4.84,4.29,5.62,1.54,1,.44-2.43,0-4.63A47,47,0,0,1,86.83,642.41Z" transform="translate(-44.87 -568.69)"/>
    <path class="cls-1" d="M73.47,639.8c2.08.4,4.24.81,6.26,1.23a42.24,42.24,0,0,0,2.06,11.56c1.18,3.53,2.81,6.11,2.31,6.69-.24.29-5.78-2.15-8.42-7.27C73.5,647.79,73.35,642.38,73.47,639.8Z" transform="translate(-44.87 -568.69)"/>
    <path class="cls-1" d="M72.22,639.57c-1.83-.34-3.72-.66-5.7-.92a24,24,0,0,0,.93,7.72c1.12,3.89,4.19,6.14,4.52,5.94.55-.33.15-2.43,0-4A40.26,40.26,0,0,1,72.22,639.57Z" transform="translate(-44.87 -568.69)"/>
    <path class="cls-1" d="M63.67,638.31c-1.52-.16-3.1-.29-4.74-.37h0a23.26,23.26,0,0,0,.8,7.61c1.12,3.89,4.09,6.45,4.42,6.26.56-.34,0-2.21-.17-3.75C63.76,645.87,63.63,641.73,63.67,638.31Z" transform="translate(-44.87 -568.69)"/>
    <path class="cls-1" d="M51.86,637.85c1.62,0,3.25-.08,4.75,0,0,3.42.18,7.58.4,9.78.15,1.53.73,3.41.17,3.74-.33.2-3.31-2.37-4.42-6.26A21,21,0,0,1,51.86,637.85Z" transform="translate(-44.87 -568.69)"/>
    <path class="cls-1" d="M46.37,637.77a5.44,5.44,0,0,0,2.42.21c1.05-.06,1.33-.06,2.33-.09,0,3.42.14,7.58.36,9.78.15,1.53.72,3.41.16,3.74-.32.2-3.3-2.36-4.41-6.25A22,22,0,0,1,46.37,637.77Z" transform="translate(-44.87 -568.69)"/>
    <path class="cls-1" d="M89.82,675.52a22.69,22.69,0,0,1,.27-6.68c.62-3.11,2.88-5.06,3.15-4.93.46.23.27,1.89.25,3.1a29.67,29.67,0,0,0,1,7.74C92.9,675,91.36,675.29,89.82,675.52Z" transform="translate(-44.87 -568.69)"/>
    <path class="cls-1" d="M95.9,674.48a6.59,6.59,0,0,1,.67-4.63c.94-1.25.62,1.45,2.21,4Z" transform="translate(-44.87 -568.69)"/>
    <path class="cls-1" d="M99.91,673.62a16.41,16.41,0,0,1,.13-7c.77-2.76,3.58-4.54,3.85-4.41.46.23-.44,3.08-.33,5.18a14.17,14.17,0,0,0,1,5.07C103,672.89,101.44,673.27,99.91,673.62Z" transform="translate(-44.87 -568.69)"/>
    <path class="cls-1" d="M106.44,672a16.64,16.64,0,0,1,.31-6.32c.78-2.78,2.94-5,3.21-4.91.46.23.28,1.89.25,3.1a22.86,22.86,0,0,0,1.06,6.66C109.59,671,108.08,671.49,106.44,672Z" transform="translate(-44.87 -568.69)"/>
    <path class="cls-1" d="M113.26,669.74a15,15,0,0,1-.38-4.81,13,13,0,0,1,1.77-5.08c.54-.42.46,1.78.87,3.8a19.06,19.06,0,0,0,1.49,4.43C115.81,668.64,114.54,669.22,113.26,669.74Z" transform="translate(-44.87 -568.69)"/>
    <path class="cls-1" d="M118.5,667.38a10.19,10.19,0,0,1-.08-4.66c.44-2.09,2.1-4,2.32-3.91.37.13.44,1.82.55,2.75a10.07,10.07,0,0,0,1.46,3.79C121.49,665.94,120,666.66,118.5,667.38Z" transform="translate(-44.87 -568.69)"/>
    <path class="cls-1" d="M124.11,664.73a9.79,9.79,0,0,1-.4-3.88c.21-2.13,1.64-3.54,1.86-3.48.37.09.37,1.21.46,2a10.54,10.54,0,0,0,1.23,3.89C126.05,663.85,125.18,664.25,124.11,664.73Z" transform="translate(-44.87 -568.69)"/>
    <path class="cls-1" d="M129,662.45a11.6,11.6,0,0,1-.71-4c0-2.15,1.3-3.79,1.51-3.74s.45,1.2.6,2a14.59,14.59,0,0,0,1.51,4.34Z" transform="translate(-44.87 -568.69)"/>
    <path class="cls-1" d="M136,659.29c-.86.36-1.87.78-2.76,1.18-.3-1.11-.25-3.7.61-4.84S134.41,656.71,136,659.29Z" transform="translate(-44.87 -568.69)"/>
    <path class="cls-1" d="M139.88,657.81c-.79.28-1.29.45-2.11.76a5.51,5.51,0,0,1-.41-3.06C137.94,654.06,137.86,655.57,139.88,657.81Z" transform="translate(-44.87 -568.69)"/>
  </g>
  <g class="skull">
    <path class="base mandible cls-1" d="M224,637.85c-.94-2.43-4.35-3.91-6.29-2.17-1.34,1.2-1.7,2.43-3.68,2.67-1.69.2-3.48-.19-5.2-.07-2.6.2-2.57,1.92-8,1.59-7.13-.43-11.84.82-18.66,3.31-6.5,2.37-13.63,6.2-20.23,8.26-8.27,2.58-15.82,4-24.41,7.26-4.47,1.72-9.69,4.4-13.65,6.16-3.35,1.49-9.07,4.49-12.55,5.62-16.83,5.45-31.19,6.65-48.88,7-1.94.05-5.16,0-6.11,1.66-.57,1-.23,3.54.12,4.65,1.91,6.16,8.79,7.95,15.24,8.23,20.25.88,45.74-5.95,63.41-9.91a61.74,61.74,0,0,1,15-2,146.18,146.18,0,0,0,21.46-2.48c8.3-1.82,16.26-3,23.78-6.94,3.78-2,7.14-5,10.41-7.76,6.31-5.31,13.54-11.72,17.23-17.6A8.65,8.65,0,0,0,224,637.85ZM180.2,668.31a9.52,9.52,0,0,1-4.49,2.64,23.82,23.82,0,0,1-11.6,1c-2.66-.55-3.72-3.44-2-5.8a8.14,8.14,0,0,1,1.64-1.57,17.58,17.58,0,0,1,3.63-2.43c2.53-1.15,5.43-1.07,8.2-.87,2,.15,4.19.5,5.25,2.16A4.3,4.3,0,0,1,180.2,668.31Z" transform="translate(-44.87 -568.69)"/>
    <path class="base cranium cls-1" d="M214.77,630.41a24,24,0,0,1-6.54-11.21c-.42-1.44-4.13-14.25-5.84-16.82-.32-1,1.49-.42,3-.17,2.71-.58.67-8.18-2.11-11.11s-6.73-4.42-10.65-5.38a8.37,8.37,0,0,1-3.48-1.39c-2.71-2.3-1.28-7.75-3-10.84-1.72-.63-3.85,1.76-5.45,2.64a8,8,0,0,1-6.07,1c-10.61-2.53-15.72-.59-23.58-.89-1.12,0-1.56.21-2.56-.32-1.2-.63-2.44-4-3.63-4.62a14.35,14.35,0,0,0-9.65-2,10.89,10.89,0,0,0-8.19,6.21c-.62,1.36-1.35,3.49-2,4.8-2,3.74-4.22,4.36-10.57,4.1-4.24-.18-7.69-2.88-11.2-5.71s-.95-6.43-11.46-6.22c-6.82.13-7.89,4.54-10.87,9.38-2.8,4.54-4.23,10.93-8.09,14.61-1.36,1.3-4.29,1.78-5.86,2.81-4.72,3.1-8.75,5.74-12.06,10.32-1.51,2.1-2.38,5.25-3.58,7.54-3.28,6.3-5.94,13-5.84,19.08.32,2,2.55,1.75,3.42,1.71,27.26-1.5,35.81,8.55,63.63,4.7,11.27-1.56,22.18-5.61,33.28-8.09,10.36-2.32,21.35-2.84,31.58,0,3.06.85,6.1,1.94,9.27,2,6.71.2,14.66-3.26,19.81-1.31,3.11,1.18,6.61,4.23,9.1,2C217.4,635.66,217.67,633.38,214.77,630.41ZM78.84,608.2a6,6,0,0,1-2.09,3.85c-2.28,1.84-4.78,1.32-6.52,2.8-.39.34-1.31.86-1.73,1.16-1.28.91-4.19.47-5.65.58a16.81,16.81,0,0,1-3.43-.5c-2.1-.33-1.93-2.06-.67-4.13a10.55,10.55,0,0,1,3.14-3.79c1.12-.75,2.32-2,3.44-2.76s2.36-1.36,3.58-2.12a10.64,10.64,0,0,1,4.21-1.65c1.13-.15,2.39-.54,3.44-.11a4.17,4.17,0,0,1,2.28,2.89A9.26,9.26,0,0,1,78.84,608.2Zm60.07-18.49c-.43,1.62-1,3-1.38,4.59-.83,3.22-.65,7.4-.5,11.06.08,2,.83,5,.95,6.19.31,2.94-1.55,5.54-3.68,7.6-1.08,1.05-2.21,2.29-3.71,2.48-1.29.15-3-.64-4.25-1.12-6.69-2.62-14-2.85-21.1-4.29-3.22-.66-5.87-2.05-6-5.68-.08-2.27,1-3.68,2.44-5.43,4-4.81,10-8.67,14.61-12.05,1.75-1.28,3.76-2.23,5.56-3.44a23.07,23.07,0,0,0,5.35-5.36c1-1.29,1.91-2.63,2.78-4a8.32,8.32,0,0,1,2-2.06c.88-.63,1.74-1.51,2.81-1.65a4,4,0,0,1,3.63,1.16,7.29,7.29,0,0,1,.91,2.15A23,23,0,0,1,138.91,589.71Zm27,7.31c-.59,1.64-2,2.92-2.31,4.62-.79,3.84.67,8,.22,11.89a11.16,11.16,0,0,1-3.76,7.08c-.62.54-1.36,1.66-2.16,1.84-1.12.26-2.39-.45-3.34-1.11-1.61-1.12-4.78-1.32-6.16-2.93-4.52-5.29-2.56-19.78-2.06-26.84.17-2.4,2.11-5.1,4-6.52a10.4,10.4,0,0,1,6.68-2.31A12.86,12.86,0,0,1,164,585.1a5.35,5.35,0,0,1,1.83,2,7,7,0,0,1,.88,2.7A19.94,19.94,0,0,1,165.93,597ZM200,628.36a20.49,20.49,0,0,1-3.85.21c-2.38,0-5.1-.25-7.48-.21a21.91,21.91,0,0,1-6.1-.65c-2-.56-2.92-1.69-5-2.19-1.87-.46-3.88-.36-5.66-1.11-5.8-2.43-3.84-8.58-1.59-12.67a16,16,0,0,0,2-6.89c.08-1.68-.09-3.41.49-5,.45-1.2,1.32-2.21,1.69-3.43.52-1.69.11-3.24.72-4.9s2.24-2.35,4-2.75a8.77,8.77,0,0,1,4.63-.11,9.48,9.48,0,0,1,2.42,1.76c.67.52,1.33.06,1.68.82,2,4.44-.61,9.89,3.44,12.61a3.1,3.1,0,0,1,.91,2.31c.11,1,1.39,2.27,1.78,3.9a37.32,37.32,0,0,0,3.74,8.66c.84,1.55,2,2.88,2.52,4.56S201.66,627.68,200,628.36Z" transform="translate(-44.87 -568.69)"/>
    <path class="cls-1" d="M181.41,664.71c4.94-2.26,8.15-5.58,12.64-8.14a45.39,45.39,0,0,1,6.53-3.11,181.51,181.51,0,0,0,18-8c2.37-1.15,5.69-2.92,5.74-5.56" transform="translate(-44.87 -568.69)"/>
    <path class="cls-1" d="M163.48,664.27c-1.07-.86-1.52-1.59-2.78-1.82s-2.86-1.27-4.06-1.71a16.51,16.51,0,0,1-2.57-1.49c-2.18-1.46-3.48-1.8-4.81-4.07" transform="translate(-44.87 -568.69)"/>
    <path class="cls-1" d="M166.46,672.24a3.26,3.26,0,0,1,2.58,2,4.3,4.3,0,0,1-.32,3.74" transform="translate(-44.87 -568.69)"/>
    <path class="cls-1" d="M64.18,638.19a81.83,81.83,0,0,1,1.6-14.56,19.77,19.77,0,0,1,1.93-5.73A8.1,8.1,0,0,1,72.17,614c.93-.29,1.91-.36,2.8-.73A8.59,8.59,0,0,0,78,610.69a94.38,94.38,0,0,1,11.6-11.28c6.73-5.45,14.16-7.57,22.16-10.9a82.16,82.16,0,0,0,9.27-4.57" transform="translate(-44.87 -568.69)"/>
    <path class="cls-1" d="M127.2,620.92c8.43,3,8.88,3.89,15.28,5.49,1.76.44,6.9,1.64,8.58,2.32a9.51,9.51,0,0,1,4.47,4.12" transform="translate(-44.87 -568.69)"/>
    <path class="cls-1" d="M146.8,574.21a19.88,19.88,0,0,1,1.29,3.74,27.24,27.24,0,0,1,.33,4.7,17.27,17.27,0,0,1-1.07,5.87" transform="translate(-44.87 -568.69)"/>
    <path class="cls-1" d="M63.21,606.93a24.63,24.63,0,0,1,4.38-5.29c2-1.74,2.59-2.51,4.69-4.1a29.34,29.34,0,0,1,5.59-3.11c2.84-1.32,4.89-2.12,7.72-3.44" transform="translate(-44.87 -568.69)"/>
    <path class="cls-1" d="M115.5,631.14c-4.15-.25-8.4,0-12.57.06a20.21,20.21,0,0,1-5.37-.66,24,24,0,0,1-7.26-3.8c-.68-.46-1.24-1.71-1.75-2.35a8.33,8.33,0,0,1-1.17-2.23,34.65,34.65,0,0,1-1.25-3.68,17.77,17.77,0,0,1,.67-11.8c.69-1.54,1.65-3,2.26-4.55.55-1.39.88-3,2-3.94" transform="translate(-44.87 -568.69)"/>
    <path class="cls-1" d="M119.86,630.75a22.79,22.79,0,0,1,5,.22" transform="translate(-44.87 -568.69)"/>
    <path class="cls-1" d="M120.17,584.27a11.33,11.33,0,0,0-.19,6.25" transform="translate(-44.87 -568.69)"/>
    <path class="cls-1" d="M137.28,607.75a3.54,3.54,0,0,0,3.9,2.17c1.81-.23,2.87,2.49,2.77,4.31" transform="translate(-44.87 -568.69)"/>
    <path class="cls-1" d="M163.91,612.64c.89-4.47,3.07-7.1,6.73-9.83.51-.38,1.61-1.94,2.05-2.4" transform="translate(-44.87 -568.69)"/>
    <path class="cls-1" d="M164.55,585.6c-.92-1.34-2-3.25-2.89-4.59a9.79,9.79,0,0,1-.9-1.65,12.14,12.14,0,0,1-.17-1.35c0-.73.36-1.3.33-2" transform="translate(-44.87 -568.69)"/>
    <path class="cls-1" d="M148.17,577.13a7.26,7.26,0,0,1,5.3,6" transform="translate(-44.87 -568.69)"/>
    <path class="cls-1" d="M189.79,602.06c.63.65.8,1.25,1.64,1.59a3.08,3.08,0,0,0,2.62-.06c1.28-.73,1.6-2.43,1.62-3.91a20,20,0,0,0-.66-5.33c-.11-.42-.21-.93.1-1.22a1.12,1.12,0,0,1,1.11-.08,6.89,6.89,0,0,1,4.54,5.13c.23,1.24.23,2.74,1.28,3.44a3,3,0,0,0,2.06.34" transform="translate(-44.87 -568.69)"/>
    <path class="cls-1" d="M168.72,576c2.28,2.7,6.26,5.55,9.7,6.36,1.59.38,3.24.52,4.81,1a6.58,6.58,0,0,1,3.94,2.72,5.71,5.71,0,0,1,.06,4.62" transform="translate(-44.87 -568.69)"/>
    <path class="cls-1" d="M206.36,635.33c2.57-.21,2.95-1.69,3.72-2.16a13.06,13.06,0,0,1,5.31-1.88" transform="translate(-44.87 -568.69)"/>
    <path class="cls-1" d="M95.32,598.94c-1,1.19-1,3-2.08,4.15-.54.57-1.32.92-1.76,1.58-.68,1-.31,2.38.16,3.52s1.3,2.55,2.61,2.64a2.8,2.8,0,0,0,2.46-1.6c.5-.9.72-1.93,1.13-2.88A16.1,16.1,0,0,1,100,603l1.45-1.85" transform="translate(-44.87 -568.69)"/>
    <path class="cls-1" d="M104.22,598.14a8.14,8.14,0,0,0,1.35-1.4" transform="translate(-44.87 -568.69)"/>
    <path class="cls-1" d="M198.43,635c-7.92-.3-16.22-1.57-23.41-4.91-.68-.32-4.59-3-.21-1.93,3.88.65,6.71.17,10.77.17" transform="translate(-44.87 -568.69)"/>
    <path class="cls-1" d="M134.11,569.5a1.47,1.47,0,0,0-.65,1.16,8.3,8.3,0,0,0,.56,2,2.2,2.2,0,0,1-.29,1.62" transform="translate(-44.87 -568.69)"/>
    <path class="cls-1" d="M138.07,569.4c-.15.23.14.48.3.71.35.52-.05,1.19-.3,1.76a3.6,3.6,0,0,0-.28,1.65" transform="translate(-44.87 -568.69)"/>
    <path class="cls-1" d="M140.29,569.46a2.81,2.81,0,0,1,.2,1.73,1.5,1.5,0,0,0-.19.6,1.84,1.84,0,0,0,.17.48.37.37,0,0,1-.11.45" transform="translate(-44.87 -568.69)"/>
    <path class="cls-1" d="M142.53,570.1a3.11,3.11,0,0,1,.28,2.6" transform="translate(-44.87 -568.69)"/>
    <path class="cls-1" d="M130.13,571.39c-.22.44-.41,1.33-.63,1.77a.47.47,0,0,0-.06.19c0,.13.14.21.24.29a1.56,1.56,0,0,1,.51,1.81c-.21.5-.71,1-.58,1.49" transform="translate(-44.87 -568.69)"/>
    <path class="cls-1" d="M147,575c.34,1.29-1.23,3.91-.66,5.12" transform="translate(-44.87 -568.69)"/>
    <path class="cls-1" d="M114.33,584.46a12.32,12.32,0,0,0-3.21,0c-2.4.36-4.78.81-7.15,1.37" transform="translate(-44.87 -568.69)"/>
    <path class="cls-1" d="M91.32,572.63a1.74,1.74,0,0,1,.33,1.82c-.24.57-.77,1-1,1.54a2.46,2.46,0,0,0,.32,2.22A19.61,19.61,0,0,0,92.41,580" transform="translate(-44.87 -568.69)"/>
    <path class="cls-1" d="M94.94,579.08a2.69,2.69,0,0,1,.56-2.3c.48-.58,1.19-.93,1.7-1.49a1.52,1.52,0,0,0,.23-2" transform="translate(-44.87 -568.69)"/>
    <path class="cls-1" d="M100.12,574.81a3.6,3.6,0,0,1-.26,2.67c-.15.16-.35.27-.5.43a2.8,2.8,0,0,0-.62,1.75" transform="translate(-44.87 -568.69)"/>
    <path class="cls-1" d="M88.53,573.33a2.66,2.66,0,0,1,1,1.87,3.31,3.31,0,0,1-.74,1.5,1.61,1.61,0,0,0-.26,1.59" transform="translate(-44.87 -568.69)"/>
    <path class="cls-1" d="M84.32,576.33c.25.42-.06,1,.12,1.44s.48.52.74.77a1.75,1.75,0,0,1,.36,2" transform="translate(-44.87 -568.69)"/>
    <path class="cls-1" d="M94.2,572.83a2.07,2.07,0,0,1,.42,2" transform="translate(-44.87 -568.69)"/>
    <path class="cls-1" d="M132.9,623.11a28.26,28.26,0,0,0,8.15-.48c2.82-.5,7.29-2.9,10.84-2.41" transform="translate(-44.87 -568.69)"/>
    <path class="cls-1" d="M194.05,603.59c.29,1,.2,2.38.86,3.17a12.69,12.69,0,0,0,1.84,2.27c5,4,7.75,10.29,12.81,14.21" transform="translate(-44.87 -568.69)"/>
    <path class="cls-1" d="M114.9,587.11a9.85,9.85,0,0,0-3.25,3.24,10.3,10.3,0,0,1-.8,1.32,6.66,6.66,0,0,1-2,2" transform="translate(-44.87 -568.69)"/>
    <path class="cls-1" d="M136.89,622.81a19.07,19.07,0,0,1,1.17-4.11,8.15,8.15,0,0,1,.6-1.13,11.79,11.79,0,0,0,1.56-5" transform="translate(-44.87 -568.69)"/>
  </g>
  <g class="fenestrae">
    <path class="cls-1" d="M175.71,671a9.52,9.52,0,0,0,4.49-2.64,4.3,4.3,0,0,0,.62-4.89c-1.06-1.66-3.29-2-5.25-2.16-2.77-.2-5.67-.28-8.2.87a17.58,17.58,0,0,0-3.63,2.43,8.14,8.14,0,0,0-1.64,1.57c-1.71,2.36-.65,5.25,2,5.8A23.82,23.82,0,0,0,175.71,671Z" transform="translate(-44.87 -568.69)"/>
    <path class="orbital cls-1" d="M148.42,618.41c1.38,1.61,4.55,1.81,6.16,2.93.95.66,2.22,1.37,3.34,1.11.8-.18,1.54-1.3,2.16-1.84a11.16,11.16,0,0,0,3.76-7.08c.45-3.88-1-8-.22-11.89.35-1.7,1.72-3,2.31-4.62a19.94,19.94,0,0,0,.82-7.18,7,7,0,0,0-.88-2.7,5.35,5.35,0,0,0-1.83-2,12.86,12.86,0,0,0-6.95-2.36,10.4,10.4,0,0,0-6.68,2.31c-1.94,1.42-3.88,4.12-4,6.52C145.86,598.63,143.9,613.12,148.42,618.41Z" transform="translate(-44.87 -568.69)"/>
    <path class="cls-1" d="M116.3,593.06c1.75-1.28,3.76-2.23,5.56-3.44a23.07,23.07,0,0,0,5.35-5.36c1-1.29,1.91-2.63,2.78-4a8.32,8.32,0,0,1,2-2.06c.88-.63,1.74-1.51,2.81-1.65a4,4,0,0,1,3.63,1.16,7.29,7.29,0,0,1,.91,2.15,23,23,0,0,1-.43,9.86c-.43,1.62-1,3-1.38,4.59-.83,3.22-.65,7.4-.5,11.06.08,2,.83,5,.95,6.19.31,2.94-1.55,5.54-3.68,7.6-1.08,1.05-2.21,2.29-3.71,2.48-1.29.15-3-.64-4.25-1.12-6.69-2.62-14-2.85-21.1-4.29-3.22-.66-5.87-2.05-6-5.68-.08-2.27,1-3.68,2.44-5.43C105.73,600.3,111.68,596.44,116.3,593.06Z" transform="translate(-44.87 -568.69)"/>
    <path class="cls-1" d="M170.38,611.74a16,16,0,0,0,2-6.89c.08-1.68-.09-3.41.49-5,.45-1.2,1.32-2.21,1.69-3.43.52-1.69.11-3.24.72-4.9s2.24-2.35,4-2.75a8.77,8.77,0,0,1,4.63-.11,9.48,9.48,0,0,1,2.42,1.76c.67.52,1.33.06,1.68.82,2,4.44-.61,9.89,3.44,12.61a3.1,3.1,0,0,1,.91,2.31c.11,1,1.39,2.27,1.78,3.9a37.32,37.32,0,0,0,3.74,8.66c.84,1.55,2,2.88,2.52,4.56s1.35,4.38-.27,5.06a20.49,20.49,0,0,1-3.85.21c-2.38,0-5.1-.25-7.48-.21a21.91,21.91,0,0,1-6.1-.65c-2-.56-2.92-1.69-5-2.19-1.87-.46-3.88-.36-5.66-1.11C166.17,622,168.13,615.83,170.38,611.74Z" transform="translate(-44.87 -568.69)"/>
    <path class="cls-1" d="M68.5,616c.42-.3,1.34-.82,1.73-1.16,1.74-1.48,4.24-1,6.52-2.8a6,6,0,0,0,2.09-3.85,9.26,9.26,0,0,0,0-3.78,4.17,4.17,0,0,0-2.28-2.89c-1-.43-2.31,0-3.44.11a10.51,10.51,0,0,0-4.21,1.66c-1.22.75-2.39,1.32-3.58,2.11s-2.32,2-3.44,2.76A10.55,10.55,0,0,0,58.75,612c-1.26,2.07-1.43,3.8.67,4.13a16.81,16.81,0,0,0,3.43.5C64.31,616.48,67.22,616.92,68.5,616Z" transform="translate(-44.87 -568.69)"/>
  </g>
</svg>
