<svg xmlns="http://www.w3.org/2000/svg" viewBox="0 0 180.06 123.94">
  <title>Ceratosaurus nasicornis</title>
  <metadata>
    <phyloxml xmlns:xsi="http://www.w3.org/2001/XMLSchema-instance" xmlns="http://www.phyloxml.org" xsi:schemaLocation="http://www.phyloxml.org http://www.phyloxml.org/1.10/phyloxml.xsd">
      <phylogeny rooted="true" rerootable="false">
        <clade>
          <name>Animalia</name>
          <clade>
            <name>Chordata</name>
            <clade>
              <name>Dinosauria</name>
              <clade>
                <name>Saurischia</name>
                <clade>
                  <name>Theropoda</name>
                  <clade>
                    <name>Ceratosauridae</name>
                    <clade>
                      <name>Ceratosaurus</name>
                    </clade>
                  </clade>
                </clade>
              </clade>
            </clade>
          </clade>
        </clade>
      </phylogeny>
    </phyloxml>
  </metadata>
  <g class="outline">
    <path class="cls-1" d="M216.85,635.43a1,1,0,0,0,.24.26c2-1.67,5.94-.24,6.87,2.16a8.65,8.65,0,0,1-1,7.54c-4.59,7.3-14.63,15.43-21.6,21.25a33.79,33.79,0,0,1-5.84,4c-7.86,4.18-16.19,5.28-24.89,7.24a108.36,108.36,0,0,1-20.15,2.28,61.57,61.57,0,0,0-15.43,2c-17.67,4-43.16,10.79-63.41,9.91-6.45-.28-13.33-2.07-15.24-8.23a9.29,9.29,0,0,1-.12-4.65,2.82,2.82,0,0,1,2.23-1.49,14.38,14.38,0,0,1,.77-4.64c.79-2.34,2.74-3.62,2.93-3.49s0,1.49-.12,2.42a18.1,18.1,0,0,0,.06,5.29h2.59A20.59,20.59,0,0,1,65.83,671c1-3,3.52-4.64,3.76-4.48.43.29,0,1.91-.15,3.11a28.11,28.11,0,0,0,0,7.5l1.86-.12a23.12,23.12,0,0,1,.66-6.55,9.48,9.48,0,0,1,2.75-4.74c1.1-.66.55,3,.44,4.41a24.22,24.22,0,0,0,.44,6.71l2.27-.12a7.91,7.91,0,0,1,1.53-5.57c1-1.16.6,2.47,1.81,5.24l2.77-.29a20.77,20.77,0,0,1,.27-6.39c.63-3.11,3.08-5.55,3.35-5.42.46.23.29,3.09.22,4.3a28.93,28.93,0,0,0,.82,6.89l1.16-.08a22,22,0,0,1,.29-6.58c.62-3.11,2.88-5.06,3.15-4.93.46.23.27,1.89.25,3.1a29,29,0,0,0,1.06,7.62l1.32-.33a6.13,6.13,0,0,1,.7-4.45c.94-1.25.6,1.34,2.19,3.92l1.06-.32a15.52,15.52,0,0,1,.22-6.82c.77-2.76,3.58-4.54,3.85-4.41.46.23-.44,3.08-.33,5.18a12.93,12.93,0,0,0,1,4.84l1.85-.54a15.38,15.38,0,0,1,.35-6.07c.78-2.78,2.94-5,3.21-4.91.46.23.28,1.89.25,3.1a21.65,21.65,0,0,0,.89,6.48l2.06-.71a14,14,0,0,1-.28-4.66,13,13,0,0,1,1.77-5.08c.54-.42.46,1.78.87,3.8a17.1,17.1,0,0,0,1.4,4.21l1.49-.66a9.43,9.43,0,0,1,0-4.48c.44-2.09,2.1-4,2.32-3.91.37.13.44,1.82.55,2.75a9.57,9.57,0,0,0,1.41,3.7l1.37-.7a9,9,0,0,1-.36-3.71c.21-2.13,1.64-3.54,1.86-3.48.37.09.37,1.21.46,2a9.46,9.46,0,0,0,1.09,3.72l1.85-.7a11.33,11.33,0,0,1-.68-3.91c0-2.15,1.3-3.79,1.51-3.74s.45,1.2.6,2a13.71,13.71,0,0,0,1.51,4.18l1.24-.66a6.63,6.63,0,0,1,.69-4.64c.93-1.25.39.82,2,3.4l1.79-.73a4.4,4.4,0,0,1-.25-2.79c.58-1.45.49,0,2.52,2.28,7.35-2.89,13.73-3.77,22-6.35,6.6-2.06,13.73-5.89,20.23-8.26,6.82-2.49,11.53-3.74,18.66-3.31,5.45.33,5.42-1.39,8-1.59,1.72-.12,1.6,0,3.29-.22-9.4-6.17-16.49-1-25.53-1.42-3.17-.16-6.21-1.18-9.27-2-10.23-2.86-19.55-2.33-29.08-.68-.55,3,.42,4-.83,3.05a4.43,4.43,0,0,1-1.26-2.5l-1.26.27a10.51,10.51,0,0,0-.83,4c-.05.93.55,4.71-.77,3.46-1.93-1.81-2-4.89-2.05-6.48l-1.86.46a34.1,34.1,0,0,0-.74,7c0,2.31.74,5-1.07,3.71a7.65,7.65,0,0,1-2.32-4.13,28.25,28.25,0,0,1-.66-5.32l-2,.53c-.55,3,.5,5.45-.82,4.63s-1.66-2.15-2-3.8l-1.63.43a69.65,69.65,0,0,0-.35,7.66c.08,4.05,1.07,7-.49,6a8.63,8.63,0,0,1-3.8-5.62,29.22,29.22,0,0,1-.95-6.56l-2.27.54a25.88,25.88,0,0,0-.3,7.4c.22,3.08,1.32,6.5-.22,5.5a11.06,11.06,0,0,1-3.53-4.95,32.66,32.66,0,0,1-1.69-6.84l-2.11.29c-.82,5.45,1,10.07-1.73,7.35a12,12,0,0,1-3.54-6.78l-2.57.3a32.23,32.23,0,0,0,2,10.08c1.18,3.54,2.7,5.81,2.21,6.39-.25.29-5.13-1.37-8.15-6.28-1.76-2.86-3.21-7.55-3.08-10.12L96,643.55a40,40,0,0,0,2.1,11.24c1.18,3.53,2.81,6.11,2.31,6.69-.25.29-5.78-2.15-8.42-7.27A22.89,22.89,0,0,1,89.69,643l-2.86-.55a47,47,0,0,0,.88,8.91c.44,2.2,1.54,5.62,0,4.63-1.21-.78-3-3.37-4.29-5.62a21.6,21.6,0,0,1-2.29-9l-1.4-.33a42.24,42.24,0,0,0,2.06,11.56c1.18,3.53,2.81,6.11,2.31,6.69-.24.29-5.78-2.15-8.42-7.27-2.18-4.22-2.23-9.6-2.1-12.18l-1.37-.25a40.12,40.12,0,0,0-.24,8.77c.15,1.53.55,3.63,0,4-.33.2-3.4-2-4.52-5.94a24.6,24.6,0,0,1-.93-7.82l-2.89-.29c-.05,3.43.13,7.61.35,9.81.16,1.54.73,3.41.17,3.75-.33.19-3.3-2.37-4.42-6.26a23.26,23.26,0,0,1-.8-7.61l-2.32-.14c0,3.42.18,7.58.4,9.78.15,1.53.73,3.41.17,3.74-.33.2-3.31-2.37-4.42-6.26a21,21,0,0,1-.82-7.18l-.91,0c0,3.43.23,7.54.45,9.74.15,1.53.72,3.41.16,3.74-.32.2-3.3-2.36-4.41-6.25a21.53,21.53,0,0,1-.82-7.27,2.1,2.1,0,0,1-1-1.62c-.1-6.1,2.56-12.78,5.84-19.08,1.2-2.29,2.07-5.44,3.58-7.54,3.31-4.58,7.34-7.22,12.06-10.32,1.57-1,4.5-1.51,5.86-2.81,3.86-3.68,5.29-10.07,8.09-14.61,3-4.84,4-9.25,10.87-9.38,10.51-.21,8,3.43,11.46,6.22s7,5.53,11.2,5.71c6.35.26,8.55-.36,10.57-4.1.7-1.31,1.43-3.44,2-4.8a10.89,10.89,0,0,1,8.19-6.21,14.35,14.35,0,0,1,9.65,2c1.19.67,2.43,4,3.63,4.62,1,.53,1.44.28,2.56.32,7.86.3,13-1.64,23.58.89a8,8,0,0,0,6.07-1c1.6-.88,3.73-3.27,5.45-2.64,1.74,3.09.31,8.54,3,10.84a8.37,8.37,0,0,0,3.48,1.39c3.92,1,7.87,2.46,10.65,5.38s4.82,10.53,2.11,11.11c-1.46-.25-3.27-.79-3,.17,1.71,2.57,5.42,15.38,5.84,16.82a23.72,23.72,0,0,0,6.54,11.21C216.46,632.11,217.21,633.66,216.85,635.43Z" transform="translate(-44.87 -568.69)"/>
  </g>
  <g class="teeth">
    <path class="cls-1" d="M58.93,638a23.26,23.26,0,0,0,.8,7.61c1.12,3.89,4.09,6.45,4.42,6.26.56-.34,0-2.21-.17-3.75-.22-2.2-.38-5.89-.34-9.31" transform="translate(-44.87 -568.69)"/>
    <path class="cls-1" d="M52,637.46a23.51,23.51,0,0,0,.81,7.61c1.11,3.89,4.09,6.46,4.42,6.26.56-.33,0-2.21-.17-3.74-.22-2.2-.38-5.89-.34-9.31" transform="translate(-44.87 -568.69)"/>
    <path class="cls-1" d="M46.42,637.54a23.57,23.57,0,0,0,.81,7.62c1.11,3.89,4.09,6.45,4.41,6.25.56-.33,0-2.21-.16-3.74a91.22,91.22,0,0,1-.34-9.31" transform="translate(-44.87 -568.69)"/>
    <path class="cls-1" d="M73.53,639.71c-.12,2.57,0,8.08,2.15,12.3,2.64,5.12,8.18,7.56,8.42,7.27.5-.58-1.13-3.16-2.31-6.69A42.24,42.24,0,0,1,79.73,641" transform="translate(-44.87 -568.69)"/>
    <path class="cls-1" d="M89.69,643A22.89,22.89,0,0,0,92,654.21c2.64,5.12,8.17,7.56,8.42,7.27.5-.58-1.13-3.16-2.31-6.69a41.87,41.87,0,0,1-2.06-11.56" transform="translate(-44.87 -568.69)"/>
    <path class="cls-1" d="M81.18,641.15a22.38,22.38,0,0,0,2.24,9.18c1.24,2.25,3.08,4.84,4.29,5.62,1.54,1,.44-2.43,0-4.63a47,47,0,0,1-.88-8.91" transform="translate(-44.87 -568.69)"/>
    <path class="cls-1" d="M66.57,638.11a27.71,27.71,0,0,0,.88,8.26c1.12,3.89,4.19,6.14,4.52,5.94.55-.33.15-2.43,0-4a44.07,44.07,0,0,1,.33-9.14" transform="translate(-44.87 -568.69)"/>
    <path class="cls-1" d="M97.51,643.62c-.13,2.57,1.32,7.26,3.08,10.12,3,4.91,7.9,6.57,8.15,6.28.49-.58-1-2.85-2.21-6.39a31.08,31.08,0,0,1-1.87-9.9" transform="translate(-44.87 -568.69)"/>
    <path class="cls-1" d="M114.68,642.41a31.82,31.82,0,0,0,1.54,6.82,11.06,11.06,0,0,0,3.53,4.95c1.54,1,.44-2.42.22-5.5a27.37,27.37,0,0,1,.33-7.6" transform="translate(-44.87 -568.69)"/>
    <path class="cls-1" d="M122.52,640.55a30.81,30.81,0,0,0,1,6.75,8.63,8.63,0,0,0,3.8,5.62c1.56,1,.57-2,.49-6a69.65,69.65,0,0,1,.35-7.66" transform="translate(-44.87 -568.69)"/>
    <path class="cls-1" d="M129.76,638.8c.33,1.65.77,3,2,3.8s.27-1.65.82-4.63" transform="translate(-44.87 -568.69)"/>
    <path class="cls-1" d="M107.15,643.25a12,12,0,0,0,3.54,6.78c2.73,2.72.91-1.9,1.73-7.35" transform="translate(-44.87 -568.69)"/>
    <path class="cls-1" d="M134.55,637.31a29.55,29.55,0,0,0,.66,5.45,7.65,7.65,0,0,0,2.32,4.13c1.81,1.32,1.07-1.4,1.07-3.71a34.1,34.1,0,0,1,.74-7" transform="translate(-44.87 -568.69)"/>
    <path class="cls-1" d="M141.27,635.69c0,1.59,0,4.68,2,6.49,1.32,1.25.72-2.53.77-3.46a10.51,10.51,0,0,1,.83-4" transform="translate(-44.87 -568.69)"/>
    <path class="cls-1" d="M146.11,634.48a4.43,4.43,0,0,0,1.26,2.5c1.25.93.28-.08.83-3.05" transform="translate(-44.87 -568.69)"/>
    <path class="cls-1" d="M89.8,675.42a22,22,0,0,1,.29-6.58c.62-3.11,2.88-5.06,3.15-4.93.46.23.27,1.89.25,3.1a29,29,0,0,0,1.06,7.62" transform="translate(-44.87 -568.69)"/>
    <path class="cls-1" d="M84,676.12a20.77,20.77,0,0,1,.27-6.39c.63-3.11,3.08-5.55,3.35-5.42.46.23.29,3.09.22,4.3a28.93,28.93,0,0,0,.82,6.89" transform="translate(-44.87 -568.69)"/>
    <path class="cls-1" d="M71.31,677a23.12,23.12,0,0,1,.66-6.55,9.48,9.48,0,0,1,2.75-4.74c1.1-.66.55,3,.44,4.41a24.22,24.22,0,0,0,.44,6.71" transform="translate(-44.87 -568.69)"/>
    <path class="cls-1" d="M64.74,677.28A20.59,20.59,0,0,1,65.83,671c1-3,3.52-4.64,3.76-4.48.43.29,0,1.91-.15,3.11a28.11,28.11,0,0,0,0,7.5" transform="translate(-44.87 -568.69)"/>
    <path class="cls-1" d="M95.87,674.3a6.13,6.13,0,0,1,.7-4.45c.94-1.25.6,1.34,2.19,3.92" transform="translate(-44.87 -568.69)"/>
    <path class="cls-1" d="M77.91,676.78c-.14-1.14,0-4,1.49-5.61,1-1.16.6,2.34,1.81,5.12" transform="translate(-44.87 -568.69)"/>
    <path class="cls-1" d="M58.52,677.57a14,14,0,0,1,.76-4.52c.79-2.34,2.74-3.62,2.93-3.49s0,1.49-.12,2.42a18.1,18.1,0,0,0,.06,5.29" transform="translate(-44.87 -568.69)"/>
    <path class="cls-1" d="M113.16,669.59a14,14,0,0,1-.28-4.66,13,13,0,0,1,1.77-5.08c.54-.42.46,1.78.87,3.8a17.1,17.1,0,0,0,1.4,4.21" transform="translate(-44.87 -568.69)"/>
    <path class="cls-1" d="M106.31,671.58a14.83,14.83,0,0,1,.44-6c.78-2.78,2.94-5,3.21-4.91.46.23.28,1.89.25,3.1a19.43,19.43,0,0,0,.73,6.22" transform="translate(-44.87 -568.69)"/>
    <path class="cls-1" d="M99.82,673.45a15.52,15.52,0,0,1,.22-6.82c.77-2.76,3.58-4.54,3.85-4.41.46.23-.44,3.08-.33,5.18a12.93,12.93,0,0,0,1,4.84" transform="translate(-44.87 -568.69)"/>
    <path class="cls-1" d="M133.14,660.08a6.09,6.09,0,0,1,.7-4.45c.93-1.25.39.82,2,3.4" transform="translate(-44.87 -568.69)"/>
    <path class="cls-1" d="M137.61,658.3a4.4,4.4,0,0,1-.25-2.79c.58-1.45.29-.08,2.32,2.16" transform="translate(-44.87 -568.69)"/>
    <path class="cls-1" d="M118.42,667.07a8.9,8.9,0,0,1,0-4.35c.44-2.09,2.1-4,2.32-3.91.37.13.44,1.82.55,2.75a8.63,8.63,0,0,0,1.32,3.52" transform="translate(-44.87 -568.69)"/>
    <path class="cls-1" d="M129,662.4a11.33,11.33,0,0,1-.68-3.91c0-2.15,1.3-3.79,1.51-3.74s.45,1.2.6,2a14.69,14.69,0,0,0,1.61,4.3" transform="translate(-44.87 -568.69)"/>
    <path class="cls-1" d="M123.93,664.37a8.18,8.18,0,0,1-.22-3.52c.21-2.13,1.64-3.54,1.86-3.48.37.09.37,1.21.46,2a9.46,9.46,0,0,0,1.09,3.72" transform="translate(-44.87 -568.69)"/>
  </g>
  <g class="skull">
    <path class="base" d="M214.77,630.41c2.9,3,2.63,5.25.69,7-2.49,2.2-6-.85-9.1-2-5.15-2-13.1,1.51-19.81,1.31-3.17-.09-6.21-1.18-9.27-2-10.23-2.86-21.22-2.34-31.58,0-11.1,2.48-22,6.53-33.28,8.09-27.82,3.85-36.37-6.2-63.63-4.7-.87,0-3.1.32-3.42-1.71-.1-6.1,2.56-12.78,5.84-19.08,1.2-2.29,2.07-5.44,3.58-7.54,3.31-4.58,7.34-7.22,12.06-10.32,1.57-1,4.5-1.51,5.86-2.81,3.86-3.68,5.29-10.07,8.09-14.61,3-4.84,4-9.25,10.87-9.38,10.51-.21,8,3.43,11.46,6.22s7,5.53,11.2,5.71c6.35.26,8.55-.36,10.57-4.1.7-1.31,1.43-3.44,2-4.8a10.89,10.89,0,0,1,8.19-6.21,14.35,14.35,0,0,1,9.65,2c1.19.67,2.43,4,3.63,4.62,1,.53,1.44.28,2.56.32,7.86.3,13-1.64,23.58.89a8,8,0,0,0,6.07-1c1.6-.88,3.73-3.27,5.45-2.64,1.74,3.09.31,8.54,3,10.84a8.37,8.37,0,0,0,3.48,1.39c3.92,1,7.87,2.46,10.65,5.38s4.82,10.53,2.11,11.11c-1.46-.25-3.27-.79-3,.17,1.71,2.57,5.42,15.38,5.84,16.82A24,24,0,0,0,214.77,630.41Z" transform="translate(-44.87 -568.69)"/>
    <path class="base" d="M217.67,635.68c1.94-1.74,5.35-.26,6.29,2.17a8.65,8.65,0,0,1-1,7.54c-3.69,5.88-10.92,12.29-17.23,17.6-3.27,2.75-6.63,5.78-10.41,7.76-7.52,4-15.48,5.12-23.78,6.94a146.18,146.18,0,0,1-21.46,2.48,61.74,61.74,0,0,0-15,2c-17.67,4-43.16,10.79-63.41,9.91-6.45-.28-13.33-2.07-15.24-8.23-.35-1.11-.69-3.65-.12-4.65.95-1.7,4.17-1.61,6.11-1.66,17.69-.39,32.05-1.59,48.88-7,3.48-1.13,9.2-4.13,12.55-5.62,4-1.76,9.18-4.44,13.65-6.16,8.59-3.3,16.14-4.68,24.41-7.26,6.6-2.06,13.73-5.89,20.23-8.26,6.82-2.49,11.53-3.74,18.66-3.31,5.45.33,5.42-1.39,8-1.59,1.72-.12,3.51.27,5.2.07C216,638.11,216.33,636.88,217.67,635.68Z" transform="translate(-44.87 -568.69)"/>
    <path class="cls-1" d="M175.71,671a9.52,9.52,0,0,0,4.49-2.64,4.3,4.3,0,0,0,.62-4.89c-1.06-1.66-3.29-2-5.25-2.16-2.77-.2-5.67-.28-8.2.87a17.58,17.58,0,0,0-3.63,2.43,8.14,8.14,0,0,0-1.64,1.57c-1.71,2.36-.65,5.25,2,5.8A23.82,23.82,0,0,0,175.71,671Z" transform="translate(-44.87 -568.69)"/>
    <path class="cls-1" d="M148.42,618.41c1.38,1.61,4.55,1.81,6.16,2.93.95.66,2.22,1.37,3.34,1.11.8-.18,1.54-1.3,2.16-1.84a11.16,11.16,0,0,0,3.76-7.08c.45-3.88-1-8-.22-11.89.35-1.7,1.72-3,2.31-4.62a19.94,19.94,0,0,0,.82-7.18,7,7,0,0,0-.88-2.7,5.35,5.35,0,0,0-1.83-2,12.86,12.86,0,0,0-6.95-2.36,10.4,10.4,0,0,0-6.68,2.31c-1.94,1.42-3.88,4.12-4,6.52C145.86,598.63,143.9,613.12,148.42,618.41Z" transform="translate(-44.87 -568.69)"/>
    <path class="cls-1" d="M116.3,593.06c1.75-1.28,3.76-2.23,5.56-3.44a23.07,23.07,0,0,0,5.35-5.36c1-1.29,1.91-2.63,2.78-4a8.32,8.32,0,0,1,2-2.06c.88-.63,1.74-1.51,2.81-1.65a4,4,0,0,1,3.63,1.16,7.29,7.29,0,0,1,.91,2.15,23,23,0,0,1-.43,9.86c-.43,1.62-1,3-1.38,4.59-.83,3.22-.65,7.4-.5,11.06.08,2,.83,5,.95,6.19.31,2.94-1.55,5.54-3.68,7.6-1.08,1.05-2.21,2.29-3.71,2.48-1.29.15-3-.64-4.25-1.12-6.69-2.62-14-2.85-21.1-4.29-3.22-.66-5.87-2.05-6-5.68-.08-2.27,1-3.68,2.44-5.43C105.73,600.3,111.68,596.44,116.3,593.06Z" transform="translate(-44.87 -568.69)"/>
    <path class="cls-1" d="M68.5,616c.42-.3,1.34-.82,1.73-1.16,1.74-1.48,4.24-1,6.52-2.8a6,6,0,0,0,2.09-3.85,9.26,9.26,0,0,0,0-3.78,4.17,4.17,0,0,0-2.28-2.89c-1-.43-2.31,0-3.44.11a10.51,10.51,0,0,0-4.21,1.66c-1.22.75-2.39,1.32-3.58,2.11s-2.32,2-3.44,2.76A10.55,10.55,0,0,0,58.75,612c-1.26,2.07-1.43,3.8.67,4.13a16.81,16.81,0,0,0,3.43.5C64.31,616.48,67.22,616.92,68.5,616Z" transform="translate(-44.87 -568.69)"/>
    <path class="cls-1" d="M170.38,611.74a16,16,0,0,0,2-6.89c.08-1.68-.09-3.41.49-5,.45-1.2,1.32-2.21,1.69-3.43.52-1.69.11-3.24.72-4.9s2.24-2.35,4-2.75a8.77,8.77,0,0,1,4.63-.11,9.48,9.48,0,0,1,2.42,1.76c.67.52,1.33.06,1.68.82,2,4.44-.61,9.89,3.44,12.61a3.1,3.1,0,0,1,.91,2.31c.11,1,1.39,2.27,1.78,3.9a37.32,37.32,0,0,0,3.74,8.66c.84,1.55,2,2.88,2.52,4.56s1.35,4.38-.27,5.06a20.49,20.49,0,0,1-3.85.21c-2.38,0-5.1-.25-7.48-.21a21.91,21.91,0,0,1-6.1-.65c-2-.56-2.92-1.69-5-2.19-1.87-.46-3.88-.36-5.66-1.11C166.17,622,168.13,615.83,170.38,611.74Z" transform="translate(-44.87 -568.69)"/>
    <path class="cls-1" d="M181.41,664.71c4.94-2.26,8.15-5.58,12.64-8.14a45.39,45.39,0,0,1,6.53-3.11,181.51,181.51,0,0,0,18-8c2.37-1.15,5.69-2.92,5.74-5.56" transform="translate(-44.87 -568.69)"/>
    <path class="cls-1" d="M163.48,664.27c-1.07-.86-1.52-1.59-2.78-1.82s-2.86-1.27-4.06-1.71a16.51,16.51,0,0,1-2.57-1.49c-2.18-1.46-3.48-1.8-4.81-4.07" transform="translate(-44.87 -568.69)"/>
    <path class="cls-1" d="M165.94,672.07a3.74,3.74,0,0,1,2.78,5.88" transform="translate(-44.87 -568.69)"/>
    <path class="cls-1" d="M64.18,638.19a81.83,81.83,0,0,1,1.6-14.56,19.77,19.77,0,0,1,1.93-5.73A8.1,8.1,0,0,1,72.17,614c.93-.29,1.91-.36,2.8-.73A8.59,8.59,0,0,0,78,610.69a94.38,94.38,0,0,1,11.6-11.28c6.73-5.45,14.16-7.57,22.16-10.9a82.16,82.16,0,0,0,9.27-4.57" transform="translate(-44.87 -568.69)"/>
    <path class="cls-1" d="M127.2,620.92c8.43,3,8.88,3.89,15.28,5.49,1.76.44,6.9,1.64,8.58,2.32a9.51,9.51,0,0,1,4.47,4.12" transform="translate(-44.87 -568.69)"/>
    <path class="cls-1" d="M146.8,574.21a19.88,19.88,0,0,1,1.29,3.74,27.24,27.24,0,0,1,.33,4.7,17.27,17.27,0,0,1-1.07,5.87" transform="translate(-44.87 -568.69)"/>
    <path class="cls-1" d="M63.21,606.93a24.63,24.63,0,0,1,4.38-5.29c2-1.74,2.59-2.51,4.69-4.1a29.34,29.34,0,0,1,5.59-3.11c2.84-1.32,4.89-2.12,7.72-3.44" transform="translate(-44.87 -568.69)"/>
    <path class="cls-1" d="M115.5,631.14c-4.15-.25-8.4,0-12.57.06a20.21,20.21,0,0,1-5.37-.66,24,24,0,0,1-7.26-3.8c-.68-.46-1.24-1.71-1.75-2.35a8.33,8.33,0,0,1-1.17-2.23,34.65,34.65,0,0,1-1.25-3.68,17.77,17.77,0,0,1,.67-11.8c.69-1.54,1.65-3,2.26-4.55.55-1.39.88-3,2-3.94" transform="translate(-44.87 -568.69)"/>
    <path class="cls-1" d="M119.86,630.75a22.79,22.79,0,0,1,5,.22" transform="translate(-44.87 -568.69)"/>
    <path class="cls-1" d="M120.17,584.27a11.33,11.33,0,0,0-.19,6.25" transform="translate(-44.87 -568.69)"/>
    <path class="cls-1" d="M137.28,607.75a3.54,3.54,0,0,0,3.9,2.17c1.81-.23,2.87,2.49,2.77,4.31" transform="translate(-44.87 -568.69)"/>
    <path class="cls-1" d="M163.91,612.64c.89-4.47,3.07-7.1,6.73-9.83.51-.38,1.61-1.94,2.05-2.4" transform="translate(-44.87 -568.69)"/>
    <path class="cls-1" d="M164.55,585.6c-.92-1.34-2-3.25-2.89-4.59a9.79,9.79,0,0,1-.9-1.65,12.14,12.14,0,0,1-.17-1.35c0-.73.36-1.3.33-2" transform="translate(-44.87 -568.69)"/>
    <path class="cls-1" d="M148.17,577.13a7.26,7.26,0,0,1,5.3,6" transform="translate(-44.87 -568.69)"/>
    <path class="cls-1" d="M189.79,602.06c.63.65.8,1.25,1.64,1.59a3.08,3.08,0,0,0,2.62-.06c1.28-.73,1.6-2.43,1.62-3.91a20,20,0,0,0-.66-5.33c-.11-.42-.21-.93.1-1.22a1.12,1.12,0,0,1,1.11-.08,6.89,6.89,0,0,1,4.54,5.13c.23,1.24.23,2.74,1.28,3.44a3,3,0,0,0,2.06.34" transform="translate(-44.87 -568.69)"/>
    <path class="cls-1" d="M168.72,576c2.28,2.7,6.26,5.55,9.7,6.36,1.59.38,3.24.52,4.81,1a6.58,6.58,0,0,1,3.94,2.72,5.71,5.71,0,0,1,.06,4.62" transform="translate(-44.87 -568.69)"/>
    <path class="cls-1" d="M206.36,635.33c2.57-.21,2.95-1.69,3.72-2.16a11.51,11.51,0,0,1,4.9-1.86" transform="translate(-44.87 -568.69)"/>
    <path class="cls-1" d="M95.32,598.94c-1,1.19-1,3-2.08,4.15-.54.57-1.32.92-1.76,1.58-.68,1-.31,2.38.16,3.52s1.3,2.55,2.61,2.64a2.8,2.8,0,0,0,2.46-1.6c.5-.9.72-1.93,1.13-2.88A16.1,16.1,0,0,1,100,603l1.45-1.85" transform="translate(-44.87 -568.69)"/>
    <path class="cls-1" d="M104.22,598.14a8.14,8.14,0,0,0,1.35-1.4" transform="translate(-44.87 -568.69)"/>
    <path class="cls-1" d="M198.43,635c-7.92-.3-16.22-1.57-23.41-4.91-.68-.32-4.59-3-.21-1.93,3.88.65,7.16.22,11.22.22" transform="translate(-44.87 -568.69)"/>
    <path class="cls-1" d="M134.11,569.5a1.47,1.47,0,0,0-.65,1.16,8.3,8.3,0,0,0,.56,2,2.2,2.2,0,0,1-.29,1.62" transform="translate(-44.87 -568.69)"/>
    <path class="cls-1" d="M138.07,569.4c-.15.23.14.48.3.71.35.52-.05,1.19-.3,1.76a3.6,3.6,0,0,0-.28,1.65" transform="translate(-44.87 -568.69)"/>
    <path class="cls-1" d="M140.29,569.46a2.81,2.81,0,0,1,.2,1.73,1.5,1.5,0,0,0-.19.6,1.84,1.84,0,0,0,.17.48.37.37,0,0,1-.11.45" transform="translate(-44.87 -568.69)"/>
    <path class="cls-1" d="M142.53,570.1a3.11,3.11,0,0,1,.28,2.6" transform="translate(-44.87 -568.69)"/>
    <path class="cls-1" d="M130.13,571.39c-.22.44-.41,1.33-.63,1.77a.47.47,0,0,0-.06.19c0,.13.14.21.24.29a1.56,1.56,0,0,1,.51,1.81c-.21.5-.71,1-.58,1.49" transform="translate(-44.87 -568.69)"/>
    <path class="cls-1" d="M147,575c.34,1.29-1.23,3.91-.66,5.12" transform="translate(-44.87 -568.69)"/>
    <path class="cls-1" d="M114.24,584.29a12.12,12.12,0,0,0-3.12.16c-2.4.36-4.78.81-7.15,1.37" transform="translate(-44.87 -568.69)"/>
    <path class="cls-1" d="M91.32,572.63a1.74,1.74,0,0,1,.33,1.82c-.24.57-.77,1-1,1.54a2.46,2.46,0,0,0,.32,2.22A19.61,19.61,0,0,0,92.41,580" transform="translate(-44.87 -568.69)"/>
    <path class="cls-1" d="M94.94,579.08a2.69,2.69,0,0,1,.56-2.3c.48-.58,1.19-.93,1.7-1.49a1.52,1.52,0,0,0,.23-2" transform="translate(-44.87 -568.69)"/>
    <path class="cls-1" d="M100,576a1.25,1.25,0,0,1-.12,1.52c-.15.16-.35.27-.5.43a2.8,2.8,0,0,0-.62,1.75" transform="translate(-44.87 -568.69)"/>
    <path class="cls-1" d="M88.53,573.33a2.66,2.66,0,0,1,1,1.87,3.31,3.31,0,0,1-.74,1.5,1.61,1.61,0,0,0-.26,1.59" transform="translate(-44.87 -568.69)"/>
    <path class="cls-1" d="M84.32,576.33c.25.42-.06,1,.12,1.44s.48.52.74.77a1.75,1.75,0,0,1,.36,2" transform="translate(-44.87 -568.69)"/>
    <path class="cls-1" d="M94.2,572.83a2.07,2.07,0,0,1,.42,2" transform="translate(-44.87 -568.69)"/>
    <path class="cls-1" d="M132.9,623.11a28.26,28.26,0,0,0,8.15-.48c2.82-.5,7.29-2.9,10.84-2.41" transform="translate(-44.87 -568.69)"/>
    <path class="cls-1" d="M194.05,603.59c.29,1,.2,2.38.86,3.17a12.69,12.69,0,0,0,1.84,2.27c5,4,7.75,10.29,12.81,14.21" transform="translate(-44.87 -568.69)"/>
    <path class="cls-1" d="M115,586.88a9.56,9.56,0,0,0-3.39,3.47,10.3,10.3,0,0,1-.8,1.32,6.66,6.66,0,0,1-2,2" transform="translate(-44.87 -568.69)"/>
    <path class="cls-1" d="M136.89,622.81a19.07,19.07,0,0,1,1.17-4.11,8.15,8.15,0,0,1,.6-1.13,11.79,11.79,0,0,0,1.56-5" transform="translate(-44.87 -568.69)"/>
  </g>
  <g class="fenestra">
    <path class="cls-1" d="M175.71,671a9.52,9.52,0,0,0,4.49-2.64,4.3,4.3,0,0,0,.62-4.89c-1.06-1.66-3.29-2-5.25-2.16-2.77-.2-5.67-.28-8.2.87a17.58,17.58,0,0,0-3.63,2.43,8.14,8.14,0,0,0-1.64,1.57c-1.71,2.36-.65,5.25,2,5.8A23.82,23.82,0,0,0,175.71,671Z" transform="translate(-44.87 -568.69)"/>
    <path class="cls-1" d="M148.42,618.41c1.38,1.61,4.55,1.81,6.16,2.93.95.66,2.22,1.37,3.34,1.11.8-.18,1.54-1.3,2.16-1.84a11.16,11.16,0,0,0,3.76-7.08c.45-3.88-1-8-.22-11.89.35-1.7,1.72-3,2.31-4.62a19.94,19.94,0,0,0,.82-7.18,7,7,0,0,0-.88-2.7,5.35,5.35,0,0,0-1.83-2,12.86,12.86,0,0,0-6.95-2.36,10.4,10.4,0,0,0-6.68,2.31c-1.94,1.42-3.88,4.12-4,6.52C145.86,598.63,143.9,613.12,148.42,618.41Z" transform="translate(-44.87 -568.69)"/>
    <path class="cls-1" d="M116.3,593.06c1.75-1.28,3.76-2.23,5.56-3.44a23.07,23.07,0,0,0,5.35-5.36c1-1.29,1.91-2.63,2.78-4a8.32,8.32,0,0,1,2-2.06c.88-.63,1.74-1.51,2.81-1.65a4,4,0,0,1,3.63,1.16,7.29,7.29,0,0,1,.91,2.15,23,23,0,0,1-.43,9.86c-.43,1.62-1,3-1.38,4.59-.83,3.22-.65,7.4-.5,11.06.08,2,.83,5,.95,6.19.31,2.94-1.55,5.54-3.68,7.6-1.08,1.05-2.21,2.29-3.71,2.48-1.29.15-3-.64-4.25-1.12-6.69-2.62-14-2.85-21.1-4.29-3.22-.66-5.87-2.05-6-5.68-.08-2.27,1-3.68,2.44-5.43C105.73,600.3,111.68,596.44,116.3,593.06Z" transform="translate(-44.87 -568.69)"/>
    <path class="cls-1" d="M170.38,611.74a16,16,0,0,0,2-6.89c.08-1.68-.09-3.41.49-5,.45-1.2,1.32-2.21,1.69-3.43.52-1.69.11-3.24.72-4.9s2.24-2.35,4-2.75a8.77,8.77,0,0,1,4.63-.11,9.48,9.48,0,0,1,2.42,1.76c.67.52,1.33.06,1.68.82,2,4.44-.61,9.89,3.44,12.61a3.1,3.1,0,0,1,.91,2.31c.11,1,1.39,2.27,1.78,3.9a37.32,37.32,0,0,0,3.74,8.66c.84,1.55,2,2.88,2.52,4.56s1.35,4.38-.27,5.06a20.49,20.49,0,0,1-3.85.21c-2.38,0-5.1-.25-7.48-.21a21.91,21.91,0,0,1-6.1-.65c-2-.56-2.92-1.69-5-2.19-1.87-.46-3.88-.36-5.66-1.11C166.17,622,168.13,615.83,170.38,611.74Z" transform="translate(-44.87 -568.69)"/>
    <path class="cls-1" d="M68.5,616c.42-.3,1.34-.82,1.73-1.16,1.74-1.48,4.24-1,6.52-2.8a6,6,0,0,0,2.09-3.85,9.26,9.26,0,0,0,0-3.78,4.17,4.17,0,0,0-2.28-2.89c-1-.43-2.31,0-3.44.11a10.51,10.51,0,0,0-4.21,1.66c-1.22.75-2.39,1.32-3.58,2.11s-2.32,2-3.44,2.76A10.55,10.55,0,0,0,58.75,612c-1.26,2.07-1.43,3.8.67,4.13a16.81,16.81,0,0,0,3.43.5C64.31,616.48,67.22,616.92,68.5,616Z" transform="translate(-44.87 -568.69)"/>
  </g>
</svg>
