<svg xmlns="http://www.w3.org/2000/svg" viewBox="0 0 225.83 101.65">
  <defs>
    <style>
      path {
        fill: none;
        stroke: #000;
        stroke-miterlimit: 10;
      }
    </style>
  </defs>
  <title>Coelophysis bauri</title>
  <metadata>
        <phyloxml xmlns:xsi="http://www.w3.org/2001/XMLSchema-instance" xmlns="http://www.phyloxml.org" xsi:schemaLocation="http://www.phyloxml.org http://www.phyloxml.org/1.10/phyloxml.xsd">
            <phylogeny rooted="true" rerootable="false">
                <clade>
                    <name>Animalia</name>
                    <clade>
                        <name>Chordata</name>
                        <clade>
                            <name>Dinosauria</name>
                            <clade>
                                <name>Saurischia</name>
                                <clade>
                                    <name>Theropoda</name>
                                    <clade>
                                        <name>Coelophysidae</name>
                                        <clade>
                                            <name>Coelophysis</name>
                                        </clade>
                                    </clade>
                                </clade>
                            </clade>
                        </clade>
                    </clade>
                </clade>
            </phylogeny>
        </phyloxml>
    </metadata>
  <g class="outline">
    <path class="cls-1" d="M264.3,238.39c5.62.14,8.24-1.29,12.53-2.48,1.24-.34,2.73-.72,3.47.33.44.64.93.84.75,1.6-1.58,6.7-13.7,11.77-19.91,14.75-30.44,14.59-59.36,13.69-93.14,17.34-30.66,3.31-62.19,10.55-92.75,6.37-3.76-.52-11.75-2.52-10.07-8.35l-.17-.28a11.13,11.13,0,0,1-1-3.88c0-.54,0-1.65.45-2,.29.22.45,1,.55,1.37A7.28,7.28,0,0,0,66.58,266l.36-.26a12.52,12.52,0,0,1-.14-4.21c.09-.53.37-1.61.87-1.82a2.22,2.22,0,0,1,.3,1.11,11.16,11.16,0,0,0,1.36,4.25l.25-.06a10.17,10.17,0,0,1,.41-3.82c.15-.52.57-1.55,1.09-1.7a2.28,2.28,0,0,1,.16,1.13,10.55,10.55,0,0,0,.76,4.28l1,.06a7.3,7.3,0,0,1,.53-1.83c.12-.31.57-1.2.91-1.27a1.17,1.17,0,0,1,0,.67,6.07,6.07,0,0,0,.19,2.62l1.13.11a8.47,8.47,0,0,1,.62-2.22c.14-.38.68-1.47,1.1-1.56a1.55,1.55,0,0,1,0,.83,7.49,7.49,0,0,0,.25,3.2l2.23.3a9.51,9.51,0,0,1,1.14-4.25c.27-.47.76-1.13,1.3-1.19a2.15,2.15,0,0,1,0,1.15,11.27,11.27,0,0,0,.38,4.46l2.12,0a10,10,0,0,1,1.2-4.27c.27-.45.76-1.09,1.3-1.14a2,2,0,0,1-.06,1.09,10.16,10.16,0,0,0,.32,4.24l2.11-.06a10.38,10.38,0,0,1,1.17-4.45c.27-.47.76-1.14,1.3-1.19a2.21,2.21,0,0,1,0,1.14,10.88,10.88,0,0,0,.33,4.39l1.57-.08a11.25,11.25,0,0,1,.75-5c.23-.56.68-1.36,1.26-1.47a2.68,2.68,0,0,1,.11,1.32,13.29,13.29,0,0,0,.92,5l1.26-.09a11,11,0,0,1,.94-4.81c.26-.52.74-1.27,1.31-1.36a2.51,2.51,0,0,1,0,1.25,11,11,0,0,0,.59,4.55l1.32-.11a9,9,0,0,1,.43-4.28c.18-.52.56-1.28,1.09-1.42a2.2,2.2,0,0,1,.16,1.17,10.44,10.44,0,0,0,1,4.23l.76-.09a8.94,8.94,0,0,1,.11-2.44c.06-.44.38-1.74.79-1.92a1.7,1.7,0,0,1,.24.89,7.36,7.36,0,0,0,1,3.18l1.21-.17a10.56,10.56,0,0,1,.47-4.85c.2-.56.61-1.38,1.18-1.52a2.5,2.5,0,0,1,.17,1.3,11.56,11.56,0,0,0,1.07,4.63l1.26-.19a11.29,11.29,0,0,1,.27-5c.18-.57.54-1.41,1.11-1.58a2.7,2.7,0,0,1,.23,1.29,12.8,12.8,0,0,0,1.41,4.82l1.32-.22a11.44,11.44,0,0,1,.14-5c.17-.57.52-1.4,1.07-1.55a2.62,2.62,0,0,1,.24,1.27,13.25,13.25,0,0,0,1.42,4.78l2.62-.53a12.6,12.6,0,0,1,.43-3.47c.14-.6.76-2.42,1.39-2.71a2,2,0,0,1,.23,1.19c0,1.27.15,3.31.89,4.3l1-.22a9.4,9.4,0,0,1,.36-4.29c.17-.5.51-1.25,1-1.4a2.07,2.07,0,0,1,.19,1.13,8.29,8.29,0,0,0,1.1,4l.66-.14a10.75,10.75,0,0,1,.24-4.91c.17-.57.54-1.42,1.11-1.58a2.66,2.66,0,0,1,.23,1.28,11.66,11.66,0,0,0,1,4.69l1.26-.28a12,12,0,0,1,.22-3.18c.12-.53.66-2.15,1.22-2.41a1.77,1.77,0,0,1,.21,1.06,8.12,8.12,0,0,0,1,3.89l1.42-.26a11.88,11.88,0,0,1,.18-3.27c.09-.59.55-2.39,1.13-2.7a2,2,0,0,1,.32,1.14,8.57,8.57,0,0,0,1.32,4.08l.86-.16a11,11,0,0,1,.37-3c.12-.52.64-2.05,1.17-2.3a1.69,1.69,0,0,1,.2,1,7.13,7.13,0,0,0,.93,3.58l1.37-.36a11.53,11.53,0,0,1,.37-3.26c.15-.6.81-2.37,1.42-2.55.23.35.06,1.16.06,1.57a7.88,7.88,0,0,0,.66,3.58l1.51-.33a10.8,10.8,0,0,1,.59-2.79c.17-.47.85-1.83,1.36-1.94a1.87,1.87,0,0,1,0,1,11.62,11.62,0,0,0,0,3.19l2.21-.56a8.6,8.6,0,0,1,.11-2.44c.06-.43.38-1.73.79-1.91a1.67,1.67,0,0,1,.24.89,5.11,5.11,0,0,0,1,2.89c15.89-4.11,35.8-9.93,51.76-13.77s29.76-4.19,34.59-3.61c-7.37-1.2-12-2.33-15.88-3.84-4.3-1.68-10.82-1.85-15.43-1.81a8.77,8.77,0,0,0,.32,3.71,1.9,1.9,0,0,1,.19,1c-.47,0-1-.48-1.28-.83a8.36,8.36,0,0,1-1.61-3.51l-1.33.16a7.71,7.71,0,0,0,.36,3.37,1.71,1.71,0,0,1,.2.87,2,2,0,0,1-1.27-.76,7.73,7.73,0,0,1-1.61-3.21l-1.74.17a8.48,8.48,0,0,0,.3,3.51,1.68,1.68,0,0,1,.18.9c-.44,0-.93-.45-1.21-.78a8.12,8.12,0,0,1-1.51-3.32l-1.22.28a8.77,8.77,0,0,0,.33,3.71,1.92,1.92,0,0,1,.19,1c-.47,0-1-.47-1.29-.83a8.18,8.18,0,0,1-1.59-3.44l-1.54.16a9,9,0,0,0,.36,3.87,1.85,1.85,0,0,1,.21,1c-.5,0-1.06-.49-1.38-.86a8.69,8.69,0,0,1-1.74-3.67l-2.3.22a7.81,7.81,0,0,0,.6,3.8,2,2,0,0,1,.26,1.06,2.58,2.58,0,0,1-1.62-.94,8.88,8.88,0,0,1-2.1-3.75h-1.82a7.88,7.88,0,0,0,.9,3.71,2.13,2.13,0,0,1,.37,1.09,2.37,2.37,0,0,1-1.66-.8,9.86,9.86,0,0,1-2.42-3.9l-3.74.17a15.13,15.13,0,0,0,.74,4.86c.13.47.53,1,.47,1.48-.73.13-1.63-.57-2.16-1.08a10.67,10.67,0,0,1-2.74-5.09h-2.75a10.35,10.35,0,0,0,.91,4.41,2.59,2.59,0,0,1,.37,1.26c-.58.11-1.29-.48-1.71-.92a12.52,12.52,0,0,1-2.6-4.65h-3.83a10.79,10.79,0,0,0,1.34,5.3,2.92,2.92,0,0,1,.54,1.51,3.69,3.69,0,0,1-2.47-1.11,11.47,11.47,0,0,1-3.28-5.58l-3.3.16a9.73,9.73,0,0,0,.87,4.54,3,3,0,0,1,.42,1.42c-.66.12-1.46-.55-1.93-1a12.58,12.58,0,0,1-2.78-4.87l-2,0a14.2,14.2,0,0,0,1.63,6.75,3.91,3.91,0,0,1,.65,2c-1,.17-2.25-.77-3-1.45a19.07,19.07,0,0,1-4.42-7.28h-2.81a15.73,15.73,0,0,0,2.51,8.78c.43.58,1,1.14,1,1.86a4,4,0,0,1-3-1,15.8,15.8,0,0,1-5.79-9.57l-1.9.08a14.69,14.69,0,0,0,.56,6.23,3.69,3.69,0,0,1,.31,1.79c-.81.06-1.68-.86-2.18-1.52a15.67,15.67,0,0,1-2.6-6.45H130.3a15,15,0,0,0,.87,6,4.8,4.8,0,0,1,.53,1.74c-.79.17-1.79-.62-2.35-1.23a14.65,14.65,0,0,1-3-6.36h-2.17a11.9,11.9,0,0,0,1,4.93,2.44,2.44,0,0,1,.29,1.33c-.68,0-1.36-.69-1.85-1.15a8.89,8.89,0,0,1-2.47-5.22l-1.35,0a11.28,11.28,0,0,0,.93,4.79,2.44,2.44,0,0,1,.29,1.33c-.68,0-1.36-.7-1.85-1.15a8,8,0,0,1-2.37-4.94l-1.89,0a11.15,11.15,0,0,0,2.7,7.95c.48.54,1,1.14,1,1.87a4.09,4.09,0,0,1-3-1,15,15,0,0,1-6-9l-2.61,0a12.88,12.88,0,0,0,.91,4.21,4.72,4.72,0,0,1,.66,1.81c-.7.15-1.87-.75-2.4-1.23-1.24-1.16-1.79-2.56-2.45-4.71h-1.81a10.92,10.92,0,0,0,1,4,2.14,2.14,0,0,1,.34,1.06c-.49.11-1-.42-1.45-.74a7,7,0,0,1-2.45-4.45l-.94-.08a19.22,19.22,0,0,0,1.79,7,4,4,0,0,1,.58,1.9c-.83.19-1.8-.75-2.48-1.32-2.42-2-3.43-4.38-4.07-7.71L90,234.18a18.52,18.52,0,0,0,.87,8.53c.25.69.73,1.38.48,2.06a4,4,0,0,1-2.66-1.71c-2.45-2.95-3-5.5-3.14-9.21l-3.28-.64a27.07,27.07,0,0,0,.24,6.56,5.51,5.51,0,0,1-.08,2c-.64,0-1.53-1.18-2-1.94a13.41,13.41,0,0,1-2-7.68L77,231.62a18.66,18.66,0,0,0-.29,7.1,3.91,3.91,0,0,1,0,2c-.84-.06-1.6-1.18-2-2a18.9,18.9,0,0,1-1.43-9.14c-.87-.77-1.54-1.71-3.74-.94a13.84,13.84,0,0,0-2.22,1.06,20.36,20.36,0,0,0,.92,7.2,3.48,3.48,0,0,1,.31,1.79c-.81.07-1.68-.86-2.18-1.52a16.29,16.29,0,0,1-2.67-6.59l-.66.21a38.74,38.74,0,0,0,1.79,5.37c.19.48.8,1.05.75,1.57-.83.14-2.23-1-2.81-1.57A14.67,14.67,0,0,1,60,231.41l-.2,0A30.05,30.05,0,0,0,62.11,236a4,4,0,0,1,.7,1.78c-.83.14-2.23-1-2.81-1.57a15.17,15.17,0,0,1-3-5.74c-1.45-1.49-.46-3.63.44-4.65,10.66-12,19.42-15.83,31.31-18.47a80.9,80.9,0,0,0,9.9-2.81c2.42-.89,14.57-3.61,17-4.35,4.76-1.43,15.37-3.13,20-4.07,14.53-3,41.61-10.57,62.71-12.28,2.93-.24,5.89.07,8.78-.42a116.16,116.16,0,0,0,15.09-4.14c13.62-4.54,23.4-1.71,32,1.59,2.87,1.11,7.73-1.07,11.69,1.48,2.48,1.6,2.14,3.29,2.52,4.36,1.2,3.39,3.54,5.53,5.78,5.78,5.83.66,9,9.63,4,9.91a9.92,9.92,0,0,0-6.17,1.1c-3,2-5.39,6.1-6.11,9.66-1.15,5.7-.93,12.55-.58,18.87C265.44,234.8,265.19,237.45,264.3,238.39Z" transform="translate(-55.76 -176.41)"/>
  </g>
  <g class="teeth">
    <path class="cls-1" d="M109.3,234.12a16,16,0,0,0,6.18,9.39,4.09,4.09,0,0,0,3,1c.07-.73-.5-1.33-1-1.87a11.15,11.15,0,0,1-2.7-7.95" transform="translate(-55.76 -176.41)"/>
    <path class="cls-1" d="M94,234.07c.64,3.33,1.75,6,4.17,8,.68.57,1.65,1.51,2.48,1.32a4,4,0,0,0-.58-1.9,18.48,18.48,0,0,1-1.79-6.87" transform="translate(-55.76 -176.41)"/>
    <path class="cls-1" d="M85.52,233.85c.16,3.71.69,6.26,3.14,9.21a4,4,0,0,0,2.66,1.71c.25-.68-.23-1.37-.48-2.06a18.52,18.52,0,0,1-.87-8.53" transform="translate(-55.76 -176.41)"/>
    <path class="cls-1" d="M78.39,232.13a13.41,13.41,0,0,0,2,7.68c.45.76,1.34,1.9,2,1.94a5.51,5.51,0,0,0,.08-2,27.68,27.68,0,0,1-.23-6.7" transform="translate(-55.76 -176.41)"/>
    <path class="cls-1" d="M73.32,229.58a18.9,18.9,0,0,0,1.43,9.14c.38.8,1.14,1.92,2,2a3.91,3.91,0,0,0,0-2,18.66,18.66,0,0,1,.29-7.1" transform="translate(-55.76 -176.41)"/>
    <path class="cls-1" d="M126.3,234.75a14.65,14.65,0,0,0,3,6.36c.56.61,1.56,1.4,2.35,1.23a4.8,4.8,0,0,0-.53-1.74,15.71,15.71,0,0,1-.74-6.09" transform="translate(-55.76 -176.41)"/>
    <path class="cls-1" d="M135.62,234.5a16.29,16.29,0,0,0,2.67,6.59c.5.66,1.37,1.58,2.18,1.52a3.69,3.69,0,0,0-.31-1.79,14.69,14.69,0,0,1-.56-6.23" transform="translate(-55.76 -176.41)"/>
    <path class="cls-1" d="M141.5,234.51a15.8,15.8,0,0,0,5.79,9.57,4,4,0,0,0,3,1c.06-.72-.55-1.28-1-1.86a15.24,15.24,0,0,1-2.46-8.61" transform="translate(-55.76 -176.41)"/>
    <path class="cls-1" d="M99.2,234.5a7,7,0,0,0,2.45,4.45c.4.32,1,.85,1.45.74a2.14,2.14,0,0,0-.34-1.06,10,10,0,0,1-1.05-3.85" transform="translate(-55.76 -176.41)"/>
    <path class="cls-1" d="M103.43,234.42A10.51,10.51,0,0,0,106,239.3c.53.48,1.7,1.38,2.4,1.23a4.72,4.72,0,0,0-.66-1.81,12.88,12.88,0,0,1-.91-4.21" transform="translate(-55.76 -176.41)"/>
    <path class="cls-1" d="M121.1,234.51a9.23,9.23,0,0,0,2.42,5.35c.49.46,1.17,1.19,1.85,1.15a2.44,2.44,0,0,0-.29-1.33,12.45,12.45,0,0,1-.92-5.09" transform="translate(-55.76 -176.41)"/>
    <path class="cls-1" d="M116.64,234.51a8.62,8.62,0,0,0,2.43,5.13c.49.45,1.17,1.19,1.85,1.15a2.44,2.44,0,0,0-.29-1.33,11.28,11.28,0,0,1-.93-4.79" transform="translate(-55.76 -176.41)"/>
    <path class="cls-1" d="M149.71,234.61A18.16,18.16,0,0,0,154,241.7c.73.68,2,1.62,3,1.45a3.91,3.91,0,0,0-.65-2,15.05,15.05,0,0,1-1.61-6.94" transform="translate(-55.76 -176.41)"/>
    <path class="cls-1" d="M57,230.46a15.17,15.17,0,0,0,3,5.74c.58.58,2,1.71,2.81,1.57a4,4,0,0,0-.7-1.78A31.38,31.38,0,0,1,60,231.41" transform="translate(-55.76 -176.41)"/>
    <path class="cls-1" d="M59.84,231.29a15.39,15.39,0,0,0,3,4.87c.58.58,2,1.71,2.81,1.57,0-.52-.56-1.09-.75-1.57a34.85,34.85,0,0,1-1.65-5.29" transform="translate(-55.76 -176.41)"/>
    <path class="cls-1" d="M63.74,230.58a16.29,16.29,0,0,0,2.67,6.59c.5.66,1.37,1.59,2.18,1.52a3.48,3.48,0,0,0-.31-1.79,20.36,20.36,0,0,1-.92-7.2" transform="translate(-55.76 -176.41)"/>
    <path class="cls-1" d="M156.76,234.18a13.27,13.27,0,0,0,2.79,5.06c.47.48,1.27,1.15,1.93,1a3,3,0,0,0-.42-1.42,11.75,11.75,0,0,1-1-4.95" transform="translate(-55.76 -176.41)"/>
    <path class="cls-1" d="M163.54,234.34a10.91,10.91,0,0,0,3.23,5.39,3.69,3.69,0,0,0,2.47,1.11,2.92,2.92,0,0,0-.54-1.51,10.79,10.79,0,0,1-1.34-5.3" transform="translate(-55.76 -176.41)"/>
    <path class="cls-1" d="M171.3,234.19a11.68,11.68,0,0,0,2.49,4.5c.42.44,1.13,1,1.71.92a2.59,2.59,0,0,0-.37-1.26,10.35,10.35,0,0,1-.91-4.41" transform="translate(-55.76 -176.41)"/>
    <path class="cls-1" d="M177,233.76a11,11,0,0,0,2.71,5.26c.53.51,1.43,1.21,2.16,1.08.06-.49-.34-1-.47-1.48a13.79,13.79,0,0,1-.6-4.69" transform="translate(-55.76 -176.41)"/>
    <path class="cls-1" d="M184.4,233.59a9.86,9.86,0,0,0,2.42,3.9,2.37,2.37,0,0,0,1.66.8,2.13,2.13,0,0,0-.37-1.09,8.31,8.31,0,0,1-.89-3.82" transform="translate(-55.76 -176.41)"/>
    <path class="cls-1" d="M189.06,233.32a9.38,9.38,0,0,0,2.07,3.92,2.58,2.58,0,0,0,1.62.94,2,2,0,0,0-.26-1.06,8.18,8.18,0,0,1-.54-3.93" transform="translate(-55.76 -176.41)"/>
    <path class="cls-1" d="M194.19,233.1a8.69,8.69,0,0,0,1.74,3.67c.32.37.88.88,1.38.86a1.85,1.85,0,0,0-.21-1,9,9,0,0,1-.36-3.87" transform="translate(-55.76 -176.41)"/>
    <path class="cls-1" d="M198.26,232.54a8.62,8.62,0,0,0,1.61,3.51c.3.36.82.85,1.29.83a1.92,1.92,0,0,0-.19-1,8.77,8.77,0,0,1-.33-3.71" transform="translate(-55.76 -176.41)"/>
    <path class="cls-1" d="M201.86,231.93a8.12,8.12,0,0,0,1.51,3.32c.28.33.77.8,1.21.78a1.68,1.68,0,0,0-.18-.9,8.48,8.48,0,0,1-.3-3.51" transform="translate(-55.76 -176.41)"/>
    <path class="cls-1" d="M205.84,231.45a7.73,7.73,0,0,0,1.61,3.21,2,2,0,0,0,1.27.76,1.71,1.71,0,0,0-.2-.87,7.71,7.71,0,0,1-.36-3.37" transform="translate(-55.76 -176.41)"/>
    <path class="cls-1" d="M209.49,231a8.36,8.36,0,0,0,1.61,3.51c.29.35.81.85,1.28.83a1.9,1.9,0,0,0-.19-1,8.77,8.77,0,0,1-.32-3.71" transform="translate(-55.76 -176.41)"/>
    <path class="cls-1" d="M89.76,265.71a9.86,9.86,0,0,1,1.16-4.36c.27-.47.76-1.14,1.3-1.19a2.21,2.21,0,0,1,0,1.14,10.88,10.88,0,0,0,.33,4.39" transform="translate(-55.76 -176.41)"/>
    <path class="cls-1" d="M94.11,265.7a11.77,11.77,0,0,1,.72-5.11c.23-.56.68-1.36,1.26-1.47a2.68,2.68,0,0,1,.11,1.32,13.29,13.29,0,0,0,.92,5" transform="translate(-55.76 -176.41)"/>
    <path class="cls-1" d="M102.62,265.22a10.47,10.47,0,0,1,.39-4.64c.18-.52.56-1.28,1.09-1.42a2.2,2.2,0,0,1,.16,1.17,11.45,11.45,0,0,0,1.12,4.41" transform="translate(-55.76 -176.41)"/>
    <path class="cls-1" d="M98.38,265.34a11,11,0,0,1,.94-4.81c.26-.52.74-1.27,1.31-1.36a2.51,2.51,0,0,1,0,1.25,12,12,0,0,0,.66,4.73" transform="translate(-55.76 -176.41)"/>
    <path class="cls-1" d="M84.89,265.84a9.46,9.46,0,0,1,1.19-4.17c.27-.45.76-1.09,1.3-1.14a2,2,0,0,1-.06,1.09,9.92,9.92,0,0,0,.28,4.16" transform="translate(-55.76 -176.41)"/>
    <path class="cls-1" d="M109.4,264.25a11.59,11.59,0,0,1,.45-5.09c.2-.56.61-1.38,1.18-1.52a2.5,2.5,0,0,1,.17,1.3,12.89,12.89,0,0,0,1.17,4.88" transform="translate(-55.76 -176.41)"/>
    <path class="cls-1" d="M80,265.92a10,10,0,0,1,1.16-4.37c.27-.47.76-1.13,1.3-1.19a2.15,2.15,0,0,1,0,1.15,10.85,10.85,0,0,0,.33,4.38" transform="translate(-55.76 -176.41)"/>
    <path class="cls-1" d="M69.54,265.14a11.15,11.15,0,0,1,.45-4c.15-.52.57-1.55,1.09-1.7a2.28,2.28,0,0,1,.16,1.13,10.08,10.08,0,0,0,.76,4.18" transform="translate(-55.76 -176.41)"/>
    <path class="cls-1" d="M66.94,265.73a12.52,12.52,0,0,1-.14-4.21c.09-.53.37-1.61.87-1.82a2.22,2.22,0,0,1,.3,1.11,10.12,10.12,0,0,0,1.28,4.05" transform="translate(-55.76 -176.41)"/>
    <path class="cls-1" d="M73,264.85a6.52,6.52,0,0,1,.49-1.73c.12-.31.57-1.2.91-1.27a1.17,1.17,0,0,1,0,.67,5.65,5.65,0,0,0,.2,2.49" transform="translate(-55.76 -176.41)"/>
    <path class="cls-1" d="M65.12,267.87A12.5,12.5,0,0,1,64,263.79c0-.54,0-1.65.45-2,.29.22.45,1,.55,1.37a6.29,6.29,0,0,0,1.4,2.6" transform="translate(-55.76 -176.41)"/>
    <path class="cls-1" d="M75.78,265.17a8.35,8.35,0,0,1,.59-2.14c.14-.38.68-1.47,1.1-1.56a1.55,1.55,0,0,1,0,.83,7,7,0,0,0,.26,3.08" transform="translate(-55.76 -176.41)"/>
    <path class="cls-1" d="M106,264.47a8.94,8.94,0,0,1,.11-2.44c.06-.44.38-1.74.79-1.92a1.7,1.7,0,0,1,.24.89,7.91,7.91,0,0,0,1,3.27" transform="translate(-55.76 -176.41)"/>
    <path class="cls-1" d="M123.33,261.47a11.73,11.73,0,0,1,.46-3.35c.14-.6.76-2.42,1.39-2.71a2,2,0,0,1,.23,1.19c0,1.27.07,3.26.81,4.25" transform="translate(-55.76 -176.41)"/>
    <path class="cls-1" d="M113.6,263.46a11.62,11.62,0,0,1,.2-5.11c.18-.57.54-1.41,1.11-1.58a2.7,2.7,0,0,1,.23,1.29,12.8,12.8,0,0,0,1.41,4.82" transform="translate(-55.76 -176.41)"/>
    <path class="cls-1" d="M117.87,262.66a11.44,11.44,0,0,1,.14-5c.17-.57.52-1.4,1.07-1.55a2.62,2.62,0,0,1,.24,1.27,13.25,13.25,0,0,0,1.42,4.78" transform="translate(-55.76 -176.41)"/>
    <path class="cls-1" d="M127.43,260.63a9.14,9.14,0,0,1,.28-4.24c.17-.5.51-1.25,1-1.4a2.07,2.07,0,0,1,.19,1.13,8.29,8.29,0,0,0,1.1,4" transform="translate(-55.76 -176.41)"/>
    <path class="cls-1" d="M130.68,259.91a10.41,10.41,0,0,1,.24-4.83c.17-.57.54-1.42,1.11-1.58a2.66,2.66,0,0,1,.23,1.28,11.66,11.66,0,0,0,1,4.69" transform="translate(-55.76 -176.41)"/>
    <path class="cls-1" d="M146.42,256.11a10,10,0,0,1,.4-3c.15-.6.81-2.37,1.42-2.55.23.35.06,1.16.06,1.57a7.59,7.59,0,0,0,.62,3.48" transform="translate(-55.76 -176.41)"/>
    <path class="cls-1" d="M154.72,254.29a8.6,8.6,0,0,1,.11-2.44c.06-.43.38-1.73.79-1.91a1.67,1.67,0,0,1,.24.89,6,6,0,0,0,.8,2.86" transform="translate(-55.76 -176.41)"/>
    <path class="cls-1" d="M150.5,255.23a10,10,0,0,1,.56-2.68c.17-.47.85-1.83,1.36-1.94a1.87,1.87,0,0,1,0,1,10.9,10.9,0,0,0,0,3.08" transform="translate(-55.76 -176.41)"/>
    <path class="cls-1" d="M138.6,258.29a11.88,11.88,0,0,1,.18-3.27c.09-.59.55-2.39,1.13-2.7a2,2,0,0,1,.32,1.14,8.87,8.87,0,0,0,1.38,4.17" transform="translate(-55.76 -176.41)"/>
    <path class="cls-1" d="M134.53,259.19a12,12,0,0,1,.22-3.18c.12-.53.66-2.15,1.22-2.41a1.77,1.77,0,0,1,.21,1.06,8.12,8.12,0,0,0,1,3.89" transform="translate(-55.76 -176.41)"/>
    <path class="cls-1" d="M142.41,257.22a9.84,9.84,0,0,1,.37-2.82c.12-.52.64-2.05,1.17-2.3a1.69,1.69,0,0,1,.2,1,7.55,7.55,0,0,0,.93,3.67" transform="translate(-55.76 -176.41)"/>
  </g>
  <g class="skull">
    <path class="base cranium cls-1" d="M274.19,192.48c-2.24-.25-4.58-2.39-5.78-5.78-.38-1.07,0-2.76-2.52-4.36-4-2.55-8.82-.37-11.69-1.48-8.58-3.3-18.36-6.13-32-1.59a116.16,116.16,0,0,1-15.09,4.14c-2.89.49-5.85.18-8.78.42-21.1,1.71-48.18,9.31-62.71,12.28-4.59.94-15.2,2.64-20,4.07-2.47.74-14.62,3.46-17,4.35a80.9,80.9,0,0,1-9.9,2.81c-11.89,2.64-20.65,6.44-31.31,18.47a3.93,3.93,0,0,0-1,3.8c.59,1.58,4.09,2,5.71,1.51s5.86-1.88,7.43-2.48c3.47-1.32,2.69,1.29,7.6,3.14C83,234,93.06,234.33,99.3,234.42c26.69.4,52.85.11,79.53-.64a190.61,190.61,0,0,0,20.69-1.34c4.68-.65,9.34-1.65,14.07-1.68s9.44,0,13.71,1.74c8.24,3.41,16.31,3.2,24.47,4.79,2.77.54,7.27,2.62,10,2.42,3.69-.27,3.64-4.91,3.49-7.69-.35-6.32-.57-13.17.58-18.87.72-3.56,3.13-7.68,6.11-9.66a9.92,9.92,0,0,1,6.17-1.1C283.21,202.11,280,193.14,274.19,192.48ZM85.85,218A29.57,29.57,0,0,1,77,223.64a8.46,8.46,0,0,1-3.94.21c-1.35-.37-1.85-.84-2-2.22s1.7-2.71,2.1-3c.62-.41,3.26-1.66,3.68-1.9,2.42-1.41,8.91-4,10.19-1.89C87.58,215.8,86.29,217.57,85.85,218Zm114-11a32.71,32.71,0,0,1-2.7,10.51c-1.6,3.26-3.29,6-6.72,7.21-3.21,1.12-7.69.78-11.08.6-10-.52-18.22.34-28.22.56-11,.23-19.82-2-31.87-2.15a7.79,7.79,0,0,1-5-2.31c-1.66-1.45-.51-4.36.83-6.11a11,11,0,0,1,4.63-3.77c4-1.79,6.19-2,10.23-3.83,2.21-1,6.6-1.94,8.92-2.64,2.84-.86,7.54-2.53,10.4-3.3,4.36-1.18,7.72-2.21,12.06-3.47,2.57-.75,6.78-2,9.41-2.48,4-.73,8.43-2.24,12.38-3,7.46-1.37,13.71-2.48,16.62,5.9C200.71,201.33,200.21,204.22,199.88,207Zm27.19,17.45c-5.36,1-9.94.82-14.92-1.38a12.71,12.71,0,0,1-3.08-2.43,7.77,7.77,0,0,1-.94-3.13c-.6-4-.8-6.95-1.43-10.84A24.43,24.43,0,0,1,208,194.15c2-5.06,4.83-6.24,8.08-8.88a16.79,16.79,0,0,1,8.64-2.75c3.86.15,7.62-.81,11.23.55a14.73,14.73,0,0,1,8.32,8,17.21,17.21,0,0,1,1.54,7.87c-.53,5.88-1.88,11.71-5.12,16.63A21.5,21.5,0,0,1,227.07,224.41Zm34.72-27.68a19.36,19.36,0,0,1-2.09,5.77c-.58.93-1.36,2.17-2,3.08-4.12,6.07-2.06,13.8-3.17,21-.16,1-.35,2.29-1.18,2.9a5.18,5.18,0,0,1-2.48,1,17.85,17.85,0,0,1-6.38-.77,4.53,4.53,0,0,1-3.42-4c-.37-2,1.59-4,2.92-5.56s2.55-4.68,4-6.17c2.43-2.53,1.6-7.82,2.1-12.93.25-2.67.51-5.39,2.09-7.54,2-2.71,9.13-4.74,10.24-1.71C262.9,193.28,262.13,195.33,261.79,196.73Z" transform="translate(-55.76 -176.41)"/>
    <path class="base mandible cls-1" d="M280.3,236.24c-.74-1.05-2.23-.67-3.47-.33-4.29,1.19-6.44,2.48-11.56,2.48-1.47,0-2.31,2.14-4.79,1.48-.92-.24-2.25-.86-3.17-1.11-15.85-4.27-32.76-2.65-48.72,1.19s-32,8.7-47.85,12.8c-24.61,6.36-51.9,13.58-79.1,13.22-3.83-.06-13.93-2.92-16.16,1.46-2.89,5.69,6,8.35,9.77,8.87,30.56,4.18,62.09-3.06,92.75-6.37,33.78-3.65,62.7-2.75,93.14-17.34,6.21-3,18.33-8.05,19.91-14.75C281.23,237.08,280.74,236.88,280.3,236.24ZM228,255.78c-.83,1.39-3.48,1.91-5.07,2.2a127,127,0,0,1-22.55,2.32c-1.73,0-3.36-.38-3.54-2.1-.1-1,1.09-2,1.82-2.69,2-1.8,4.22-2.46,6.82-3.14,6.14-1.6,11.56-3.8,16.85-2.7a7.7,7.7,0,0,1,4.35,2.2C227.62,253.11,228.76,254.42,228,255.78Z" transform="translate(-55.76 -176.41)"/>
    <path class="cls-1" d="M262.09,251.85c-3.39-4.27-9.64-5.25-15-4.07s-7.94,3.6-12.8,6.08c-5.72,2.91-8.31,3.63-11.83,4.23" transform="translate(-55.76 -176.41)"/>
    <path class="cls-1" d="M173,249.62c-.3,1.18-.18,2.53,1.65,2.8,9.69,1.44,17.83.18,26.31,1.33" transform="translate(-55.76 -176.41)"/>
    <path class="cls-1" d="M201,183.78a4.67,4.67,0,0,1,3.95,2.69,11,11,0,0,1,1,4.89c0,1.67.52,7.61.52,11.25" transform="translate(-55.76 -176.41)"/>
    <path class="cls-1" d="M213.47,181.86c2.31-.83,3.39,1.08,3.41,2.64" transform="translate(-55.76 -176.41)"/>
    <path class="cls-1" d="M243.06,211.68a2.46,2.46,0,0,0,2.44-1.33,24.4,24.4,0,0,0,1.33-2.4,5.06,5.06,0,0,1,2.92-2.37" transform="translate(-55.76 -176.41)"/>
    <path class="cls-1" d="M266.38,193.72a4.46,4.46,0,0,1,1.21,2.15,5.62,5.62,0,0,0,.91,2.47c.53.56,1.35.74,1.95,1.23,1.35,1.11,1.22,3.93.18,5" transform="translate(-55.76 -176.41)"/>
    <path class="cls-1" d="M272.7,192c2,1.27,1.6,3.17,2.59,4.73.41.66.62,1.19,1,1.88.58,1.17,1.72,2.91.51,3.63" transform="translate(-55.76 -176.41)"/>
    <path class="cls-1" d="M259.74,239.54c-2.37-2.28,2.34-3.62,1.4-6.44-3.08-9.24-4.26-17.88-2.86-24.66.93-4.53,2.68-5.11,6.56-7.63,1.34-.88,3.44-2.23,4.94-1.67" transform="translate(-55.76 -176.41)"/>
    <path class="cls-1" d="M197.56,267.23a4.18,4.18,0,0,1,.77-2.31,8.13,8.13,0,0,1,5-2.31c1.67-.29,9.84-.88,9.36-3" transform="translate(-55.76 -176.41)"/>
    <path class="cls-1" d="M192.67,223.65a21,21,0,0,1,8.14-.34c1.67.19,3.62.34,5.29.59,3.05.46,6-.71,9.73.45" transform="translate(-55.76 -176.41)"/>
    <path class="cls-1" d="M69.58,228.64c3-1.26,6.61-4.19,9.26-5.65,5.77-3.18,10.91-8,16.5-11.68a51.84,51.84,0,0,1,11.45-5.51c8.08-2.74,15.45-5.13,23.9-6.34a87.93,87.93,0,0,0,10.72-1.84c2-.54,3.87-1.25,5.85-1.73,2.91-.71,5.92-.9,8.82-1.64s8.51-2.1,7.43-4.66" transform="translate(-55.76 -176.41)"/>
    <path class="cls-1" d="M207.83,223.91a6.16,6.16,0,0,1-2.18-3.56c-2.64-9.24-1.63-11.54-1.87-14.77-.33-4.44-.65-8-2.86-11.89a23,23,0,0,0-3.45-3.07,12.12,12.12,0,0,0-4.81-1.44,77.9,77.9,0,0,0-26,4.32c-5.47,1.51-11.53,2.89-16.59,4-3.92.9-11.6,3-15.53,3.86-2.35.5-7.14,1.34-9.46,2-10.37,2.83-19.6,6.09-26.32,13.43a14.36,14.36,0,0,0-2.53,4.84,5.13,5.13,0,0,0,1.21,4.74c1.12,1.37,3.43,1.8,5.18,2.09,18.82,3.08,37.58,4.33,56.18,2.45,8.9-.9,17.84-2.47,26.75-1.61,8.53.83,18.68,3.23,26.94,1-3.3-2.2-10.68-4.73-24.33-5.06" transform="translate(-55.76 -176.41)"/>
    <path class="cls-1" d="M251.23,195.23c1-2.93,3.57-6.07,6.57-6.85.49-.12,1.05-.26,1.27-.71a1.25,1.25,0,0,0-.05-1,3.51,3.51,0,0,0-2.36-1.85,13.83,13.83,0,0,0-3.08-.32,28.19,28.19,0,0,1-6.7-1.11,7.19,7.19,0,0,1-2.71-1.27,11.26,11.26,0,0,0-1.32-1.18,7.9,7.9,0,0,0-2.33-.65,16.38,16.38,0,0,1-4.34-2.27,5.31,5.31,0,0,0-4.19-.86" transform="translate(-55.76 -176.41)"/>
    <path class="cls-1" d="M237,183.44a9.33,9.33,0,0,0-5.21-5.16,7,7,0,0,0-3.83-.54" transform="translate(-55.76 -176.41)"/>
    <path class="cls-1" d="M258.08,185.38a12.78,12.78,0,0,1,4.05.24c.74.2,1.65.41,2.17-.15a1.38,1.38,0,0,0-.17-1.8c-.29-.32-.71-.62-.67-1s.59-.9,1-1" transform="translate(-55.76 -176.41)"/>
    <path class="cls-1" d="M259.94,190.42c1.31.14,3.2.3,4.16,1.19" transform="translate(-55.76 -176.41)"/>
    <path class="cls-1" d="M247.82,236.74c-.44-1.21-1.62-1.56-2.36-2.12-.47-.35-.93-.69-1.42-1-1.54-1-3.33-1.46-4.77-2.54a4.64,4.64,0,0,1,2.95,0,9.42,9.42,0,0,0,4.94-.58" transform="translate(-55.76 -176.41)"/>
    <path class="cls-1" d="M71,221.63c-.31-1.74,2.74-5.44,4-6.8a37,37,0,0,1,3.67-3,44.63,44.63,0,0,1,6.68-3.63" transform="translate(-55.76 -176.41)"/>
    <path class="cls-1" d="M198.11,222.86a16.25,16.25,0,0,0,.72-2.74" transform="translate(-55.76 -176.41)"/>
    <path class="cls-1" d="M85.51,212.51a10.35,10.35,0,0,1,3.65-1" transform="translate(-55.76 -176.41)"/>
    <path class="cls-1" d="M163.82,189.62a3,3,0,0,0,1.28,3.65c.57.33,1.22.49,1.81.78a2.16,2.16,0,0,1,1.27,1.42c0,.2.11.79.26.64" transform="translate(-55.76 -176.41)"/>
  </g>
  <g class="fenestrae">
    <path class="cls-1" d="M205.43,252.37c-2.6.68-4.82,1.34-6.82,3.14-.73.65-1.92,1.72-1.82,2.69.18,1.72,1.81,2.13,3.54,2.1A127,127,0,0,0,222.88,258c1.59-.29,4.24-.81,5.07-2.2s-.33-2.67-1.32-3.91a7.7,7.7,0,0,0-4.35-2.2C217,248.57,211.57,250.77,205.43,252.37Z" transform="translate(-55.76 -176.41)"/>
    <path class="cls-1" d="M76.81,216.75c-.42.24-3.06,1.49-3.68,1.9-.4.27-2.25,1.59-2.1,3s.64,1.85,2,2.22a8.46,8.46,0,0,0,3.94-.21A29.57,29.57,0,0,0,85.85,218c.44-.38,1.73-2.15,1.15-3.09C85.72,212.76,79.23,215.34,76.81,216.75Z" transform="translate(-55.76 -176.41)"/>
    <path class="cls-1" d="M252.17,193.64c-1.58,2.15-1.84,4.87-2.09,7.54-.5,5.11.33,10.4-2.1,12.93-1.41,1.49-2.63,4.61-4,6.17s-3.29,3.54-2.92,5.56a4.53,4.53,0,0,0,3.42,4,17.85,17.85,0,0,0,6.38.77,5.18,5.18,0,0,0,2.48-1c.83-.61,1-1.88,1.18-2.9,1.11-7.25-.95-15,3.17-21,.61-.91,1.39-2.15,2-3.08a19.36,19.36,0,0,0,2.09-5.77c.34-1.4,1.11-3.45.62-4.8C261.3,188.9,254.15,190.93,252.17,193.64Z" transform="translate(-55.76 -176.41)"/>
    <path class="cls-1" d="M208.13,217.47a7.77,7.77,0,0,0,.94,3.13,12.71,12.71,0,0,0,3.08,2.43c5,2.2,9.56,2.38,14.92,1.38a21.5,21.5,0,0,0,13.65-8.81c3.24-4.92,4.59-10.75,5.12-16.63a17.21,17.21,0,0,0-1.54-7.87,14.73,14.73,0,0,0-8.32-8c-3.61-1.36-7.37-.4-11.23-.55a16.79,16.79,0,0,0-8.64,2.75c-3.25,2.64-6.05,3.82-8.08,8.88a24.43,24.43,0,0,0-1.33,12.48C207.33,210.52,207.53,213.5,208.13,217.47Z" transform="translate(-55.76 -176.41)"/>
    <path class="cls-1" d="M183.19,192.81c-3.95.73-8.42,2.24-12.38,3-2.63.49-6.84,1.73-9.41,2.48-4.34,1.26-7.7,2.29-12.06,3.47-2.86.77-7.56,2.44-10.4,3.3-2.32.7-6.71,1.66-8.92,2.64-4,1.79-6.19,2-10.23,3.83a11,11,0,0,0-4.63,3.77c-1.34,1.75-2.49,4.66-.83,6.11a7.79,7.79,0,0,0,5,2.31c12,.17,20.89,2.38,31.87,2.15,10-.22,18.23-1.08,28.22-.56,3.39.18,7.87.52,11.08-.6,3.43-1.19,5.12-4,6.72-7.21a32.71,32.71,0,0,0,2.7-10.51c.33-2.74.83-5.63-.07-8.25C196.9,190.33,190.65,191.44,183.19,192.81Z" transform="translate(-55.76 -176.41)"/>
  </g>
</svg>
