<svg xmlns="http://www.w3.org/2000/svg" viewBox="0 0 186.13 133.51">
	<title>Majungasaurus crenatissimus</title>
	<g class="outline">
		<path d="M185.06,44a19.87,19.87,0,0,1,3.69.37,10.12,10.12,0,0,1,4.67,1.75c2.14,1.73,4.38,2.76,7.05,4.76,1.78,1.82-1,4.08-2.47,4.66-1.75.5-2.28,2.22-2.25,5,0,3.18,3.29,3.18,6.17,3.92,3.21.82,13,3.45,10.16,7.5a3,3,0,0,1-1.81.53c-2.37,0-5.44-1.84-7-1.84a.93.93,0,0,0-.78.31c-.47.6-.66,2.67-.5,5.58.14,2.61,1.78,3.91,2.83,5.92,1.18,2.23.87,3.21-.83,5.33-1,1.25-1.08,4-.83,16.25.12,5.84,0,11.44,3.5,16.33,3,4.14,3.6,7.18,8,9.5a9.3,9.3,0,0,1,3,1.84c1.05,1.16-.1,1.91.41,2.08a2,2,0,0,0,.61.09c1.66,0,3.94-1.66,5.7-1.66a1.94,1.94,0,0,1,1.44.57c2,2,1.17,3.5-1.33,6.34-1.8,2-3.68,3.73-5.75,5.75a41.21,41.21,0,0,1-6.83,5.08A67.85,67.85,0,0,1,205,154c-3.3,1.69-6.71,3.68-10.25,5.25-2.27,1-4.61,1.63-6.81,2.75-1.91,1-5.46,2-7.52,2.83-4,1.52-5.68,2.28-9.5,3.5-3.43,1.1-6.93,2.78-10.5,3.17-5.34.58-11.82,1-17.75,1.75a26.6,26.6,0,0,1-3.41.22,42.64,42.64,0,0,1-12.53-2.27c-6.8-2.06-11.36-2.12-18.21-2.12h-1.19c-5.81,0-9.56,1.14-15,2.25h0a23.75,23.75,0,0,1-3.67.42h-.42c-.55,0-1,0-1.25,0-9.33-.61-16.21-.08-24.3-3.18-4.06-1.56-7.49-2.46-8.88-5.86A20.08,20.08,0,0,1,52.6,154a1,1,0,0,1,1.09-1h0c.74-2.92,3.13-5.37,4.23-5.37h0c.92,0-.79,1.74-.62,3.8l0,.1a8.56,8.56,0,0,0-.61,1.68l.61-1.68c1-2,2.56-3.33,3.44-3.33h0c.92,0-.25,1.87-.57,2.85a8.06,8.06,0,0,0-.52,2.32H61c.65-2.15,1.52-3.35,2.45-3.95a.49.49,0,0,1,.22-.08c.43,0,0,1.47-.1,2.12a4.75,4.75,0,0,0,.08,1.87l1.26,0a19.36,19.36,0,0,1,.73-3.74,9.35,9.35,0,0,1,3-4.77.41.41,0,0,1,.24-.11c.4,0,.13,1.36-.08,2.27a17.51,17.51,0,0,0-.22,6.18l.74-.12c.33-2.16,1-3.79,1.88-4.39a.43.43,0,0,1,.21-.08c.5,0,.12,1.89.12,2.48a4.44,4.44,0,0,0,.41,1.88l2.48-.21a13.22,13.22,0,0,1,1-3.42,5.92,5.92,0,0,1,2.07-2.56.32.32,0,0,1,.16-.06c.54,0,.09,2.54.09,3.23a12.39,12.39,0,0,0,.15,3l.62,0a9,9,0,0,1,2.89-5.44.43.43,0,0,1,.2-.08c.45,0-.08,1.73-.08,2.4a8.8,8.8,0,0,0,.21,2.55l2.15-.25a6.91,6.91,0,0,1,2.85-3.68.51.51,0,0,1,.24-.09c.45,0,0,1.28,0,1.65a5.26,5.26,0,0,0,.37,2h1a7.35,7.35,0,0,1,2.47-4.15.37.37,0,0,1,.23-.11c.4,0,.1,1.51.26,2.31.09.44.26,1.24.38,1.75l1.42-.07a7.49,7.49,0,0,1,2.11-4.37.31.31,0,0,1,.21-.11c.43,0,.32,1.76.4,2.12a4.67,4.67,0,0,0,.6,2l1.36-.13a8.28,8.28,0,0,1,2.55-5.45.4.4,0,0,1,.21-.09c.43,0,0,1.73.08,2.39a8.85,8.85,0,0,0,.37,2.5l.51-.08a7.35,7.35,0,0,1,2.5-4.78.4.4,0,0,1,.23-.1c.39,0,0,1.42.08,2.07a3.4,3.4,0,0,0,.64,2.19l.82-.17a3.16,3.16,0,0,1,.73-2.87l.1,0c.4,0,.65,1.6,1.7,2.15l.77-.53a9.59,9.59,0,0,1,3-6,.57.57,0,0,1,.26-.09c.49,0,.39,1.28.48,1.92a3.71,3.71,0,0,0,1.75,2.57l1.18-.37c0-.85.24-2,.77-2.36a.24.24,0,0,1,.13,0c.38,0,.61,1.1,1.62,1.63l1.83-.57a6.93,6.93,0,0,1,2.77-4.48.59.59,0,0,1,.28-.1c.41,0,.18,1.09.25,1.65a5.93,5.93,0,0,0,.65,1.67,10.92,10.92,0,0,1,3.58-.59,6.09,6.09,0,0,1,1.72.2,4.09,4.09,0,0,0,1.19.18c2.89,0,5.57-3,7.55-3.48,2.36-.58,7.9-1,10.33-1.5,2-.42,4.14-.47,6-1.21-2.08-1.13-3.83-3-5.17-3.88a26.15,26.15,0,0,0-4.41-2.5,23.39,23.39,0,0,0-3-.17c-1,0-2,0-2.95,0-.46,0-.93,0-1.4,0a8.94,8.94,0,0,0-.49,2.69c0,.68.16,2.07-.48,2.07a.54.54,0,0,1-.2,0,5.08,5.08,0,0,1-2.45-2.38,15.24,15.24,0,0,1-1-3.4l-3.57-.08a10.79,10.79,0,0,0-1,2.12c-.32.94-.17,2.24-.64,2.24h0a4.23,4.23,0,0,1-2.2-1.92,6.48,6.48,0,0,1-.54-1.55,4,4,0,0,1-.07-.77,22.86,22.86,0,0,0-3.56-.27l-1,0a23.16,23.16,0,0,0-4.78.7,9.55,9.55,0,0,0-.72,2.85c-.06.7,0,2.38-.41,2.38a.13.13,0,0,1-.08,0,6.07,6.07,0,0,1-2.28-2,6,6,0,0,1-.92-2.37l-5.43.14a15.82,15.82,0,0,0-.23,4c.07,1.12.88,2.5-.18,2.5s-2.69-1.55-3.09-2.12a10.42,10.42,0,0,1-1.57-3.34l-1.69.19a8.78,8.78,0,0,0-.41,3.48c.06.73.72,2-.08,2h-.08a3,3,0,0,1-2.15-1.39,7.51,7.51,0,0,1-1.35-3.18l-2.8-.1a11.74,11.74,0,0,0-.5,6.4c.1.68.5,2.05-.12,2.05a.93.93,0,0,1-.19,0,7.37,7.37,0,0,1-3.6-3.66,19,19,0,0,1-1.14-4.87l-.94-.1a5.55,5.55,0,0,0-1,1.79c-.2.51-.29,1.57-.71,1.57l-.11,0a3.59,3.59,0,0,1-1.81-2,3.65,3.65,0,0,1-.31-2l-2.8-.29a11.86,11.86,0,0,0-.29,6.91c.15.67.45,2-.17,2l-.2,0A6.49,6.49,0,0,1,74.3,137a10.16,10.16,0,0,1-.68-4.83l-1-.07c-.93.77-.66,2.29-1.07,2.29h-.07A3,3,0,0,1,70,131.8l-1.35-.26a5.06,5.06,0,0,0-2,3.07c-.1.65-.14,1.94-.64,1.94a.63.63,0,0,1-.28-.1,5.17,5.17,0,0,1-1.77-2.94,7.05,7.05,0,0,1-.12-3.54,2.26,2.26,0,0,1-1.24-.66,6.59,6.59,0,0,1-.7-.74,8.32,8.32,0,0,0-3.05-.91h0c-.23,0-.1.64-.14,1.05a5.23,5.23,0,0,0-.05.65c0,.59.48,2,0,2h0A3.58,3.58,0,0,1,56.2,130a4,4,0,0,1-.46-2.52l-.49.21a4.8,4.8,0,0,0,0,3.22c.2.7.83,2,0,2h-.07a3,3,0,0,1-2.15-1.38,9.86,9.86,0,0,1-1.51-3.66l-.49.08a11.6,11.6,0,0,0,0,2.36c.11.8,1,2.28.23,2.28h-.07c-1.1-.1-2.22-1.52-2.67-2.08a11.51,11.51,0,0,1-1.64-3.95l-.86-.34h0c-1.76,0-1.21-3.39-1-5.25.27-2.53,1.57-4.38,1.95-6.76.32-2-.18-4,.24-6A12.3,12.3,0,0,1,50.17,103c4.16-4.25,7.94-7.43,11.25-11.67A63.27,63.27,0,0,1,66,85.5c2.1-2.1,3.5-3.51,5.58-5.58s4.23-3,6.74-4.6c2.1-1.31,4.47-1.55,7-2.28,4.21-1.23,7.54-4.61,10.4-7.62,4.75-5,7.66-2.25,11.58-4.84a17.11,17.11,0,0,1,4-1.58,31.45,31.45,0,0,1,5.42-.33c1.55,0,2.39-.1,3.28-.1a12.92,12.92,0,0,1,2.47.26,17.32,17.32,0,0,0,3.27.27c1.77,0,3.58-.16,5.23-.18,5.41-.09,8.1-1.06,10.33-1.34,5.06-.63,4.61-.37,7.24-4.58,1.92-3.07,3.58-4.19,5.11-4.19,4.09,0,7.12,8.07,11.09,8.07a3.27,3.27,0,0,0,1.64-.46c.25-.15,3.77-.06,4.59-1.59.54-1,1.53-1,2.39-1.47,1-.51,1.39-1.57,2.11-2.53,2.19-2.94,2.12-4.17,5.33-6a9,9,0,0,1,4.31-.87m0-2h0a10.66,10.66,0,0,0-5.3,1.14,11,11,0,0,0-4.56,4.48c-.37.6-.8,1.27-1.39,2.06-.26.35-.47.68-.65,1a2.79,2.79,0,0,1-.74,1l-.52.2a4.53,4.53,0,0,0-2.7,2,5.75,5.75,0,0,1-2.46.53,3.14,3.14,0,0,0-1.4.34,1.28,1.28,0,0,1-.65.2c-1.07,0-2.67-1.83-4-3.31-1.95-2.23-4.17-4.76-7.13-4.76h0c-2.43,0-4.65,1.68-6.81,5.13l-.45.72A9.13,9.13,0,0,1,144.7,55a10.8,10.8,0,0,1-3,.56l-.71.09c-.73.09-1.49.25-2.29.41a38.49,38.49,0,0,1-7.82.91c-.77,0-1.56,0-2.34.09-.94,0-1.92.09-2.86.09a15.56,15.56,0,0,1-2.89-.23,14.55,14.55,0,0,0-2.85-.3c-.42,0-.82,0-1.29,0s-1.16.06-2,.06a28.82,28.82,0,0,0-5.92.39,19.26,19.26,0,0,0-4.6,1.85A7.29,7.29,0,0,1,102.52,60,11.82,11.82,0,0,0,94.22,64c-2.39,2.51-5.66,5.95-9.51,7.08-.67.2-1.36.36-2,.52a17.51,17.51,0,0,0-5.43,2c-.6.38-1.19.73-1.76,1.06a25.59,25.59,0,0,0-5.33,3.82c-1.4,1.39-2.49,2.49-3.69,3.69l-1.9,1.9a34.53,34.53,0,0,0-3.35,4.15c-.48.65-.93,1.28-1.39,1.86a75.14,75.14,0,0,1-7.26,7.71c-1.23,1.2-2.51,2.44-3.84,3.79a14.45,14.45,0,0,0-3.45,6.23,15,15,0,0,0-.19,3.67,13.74,13.74,0,0,1-.06,2.43,14.38,14.38,0,0,1-.83,2.7,16,16,0,0,0-1.14,4.16l-.06.47c-.23,2-.52,4.52.79,6a3,3,0,0,0,1.48.91A12.29,12.29,0,0,0,47,131.77c.89,1.14,2.28,2.69,4.07,2.84h.24a2.29,2.29,0,0,0,1.49-.52,4.45,4.45,0,0,0,2.26.84h.24a2.38,2.38,0,0,0,2-1,2.34,2.34,0,0,0,.36-.77,4.31,4.31,0,0,0,.83.13h.07a2.22,2.22,0,0,0,1.7-.79,2.71,2.71,0,0,0,.51-2.2c.16.16.34.34.53.5l.37.3a8.23,8.23,0,0,0,.38,3,6.92,6.92,0,0,0,2.56,4,2.45,2.45,0,0,0,1.38.44c2.19,0,2.47-2.39,2.57-3.29,0-.12,0-.24,0-.33a1.84,1.84,0,0,1,.17-.52,4.39,4.39,0,0,0,2,1.8,2.15,2.15,0,0,0,.75.13,2.56,2.56,0,0,0,.47,0c.12.44.27.89.44,1.35.4,1.06,1.6,4.28,5,5.42a2.71,2.71,0,0,0,.83.13,2.3,2.3,0,0,0,1.81-.86c.81-1,.6-2.33.31-3.59a12.31,12.31,0,0,1-.31-3.2A5.57,5.57,0,0,0,83,138.41a2.39,2.39,0,0,0,.79.14,2.1,2.1,0,0,0,1.62-.69c.11.33.22.66.35,1a9.24,9.24,0,0,0,4.86,4.86,2.54,2.54,0,0,0,.8.14,2.27,2.27,0,0,0,1.77-.83,3.66,3.66,0,0,0,.39-3.17c0-.13,0-.25-.06-.35a13,13,0,0,1-.09-3.69,8.05,8.05,0,0,0,1.18,2.1,5,5,0,0,0,3.56,2.15h.25a2.36,2.36,0,0,0,1.9-.91,2.54,2.54,0,0,0,.46-1.92c.65.75,2.49,2.66,4.48,2.66a2.49,2.49,0,0,0,2-.93,3.32,3.32,0,0,0,.3-3,5.36,5.36,0,0,1-.14-.7,15.94,15.94,0,0,1,0-2l2.17-.06a7.35,7.35,0,0,0,.76,1.44,7.93,7.93,0,0,0,3,2.63,2.16,2.16,0,0,0,1,.23c2.23,0,2.33-2.49,2.38-3.69,0-.19,0-.37,0-.51A6.78,6.78,0,0,1,117,132a22.07,22.07,0,0,1,3.34-.4c.32,0,.62,0,.92,0,.61,0,1.22,0,1.82.08a13.35,13.35,0,0,0,.49,1.26l0,0a6.07,6.07,0,0,0,3.63,3.08,2.28,2.28,0,0,0,.45,0c1.36,0,2.17-.95,2.4-2.82a4.37,4.37,0,0,1,.14-.79,6.47,6.47,0,0,1,.28-.72h.79a16.86,16.86,0,0,0,.83,2.27l.06.13.08.13a7,7,0,0,0,3.48,3.19,2.8,2.8,0,0,0,.85.14,2.34,2.34,0,0,0,1.69-.71,3.93,3.93,0,0,0,.8-3c0-.13,0-.24,0-.34a6.51,6.51,0,0,1,.06-.68l1.29,0,1.49,0a20.81,20.81,0,0,1,2.58.14,34.36,34.36,0,0,1,3.7,2.18c.41.28.92.72,1.47,1.17l0,0c-.52.08-1.06.17-1.6.28-1,.21-2.78.42-4.48.62a59.22,59.22,0,0,0-5.93.9,10.9,10.9,0,0,0-3.26,1.68c-1.25.81-2.66,1.74-3.81,1.74a2,2,0,0,1-.6-.09,8.2,8.2,0,0,0-2.31-.29,13.89,13.89,0,0,0-2.23.19,2.91,2.91,0,0,0-.68-2.26,2.15,2.15,0,0,0-1.57-.66h0a2.53,2.53,0,0,0-1.35.41,8.9,8.9,0,0,0-3.23,4.16,2.35,2.35,0,0,0-1.92-1.05,2.2,2.2,0,0,0-1.19.35,2.72,2.72,0,0,0-.73.66c-.21-1.81-1-2.73-2.38-2.73h0a2.36,2.36,0,0,0-1.33.41,9.76,9.76,0,0,0-3.19,4.45,2.22,2.22,0,0,0-1.69-.36,2.16,2.16,0,0,0-.36-.53,2.11,2.11,0,0,0-1.58-.7,2.33,2.33,0,0,0-1.43.5,4.1,4.1,0,0,0-.53.45,1.19,1.19,0,0,0-.15-.18,2.11,2.11,0,0,0-1.58-.7,2.3,2.3,0,0,0-1.4.48,7.86,7.86,0,0,0-1.83,2.18,2,2,0,0,0-1.89-1.13,2.31,2.31,0,0,0-1.55.62,6.51,6.51,0,0,0-.92,1,2.19,2.19,0,0,0-1.91-1.17h0a2.34,2.34,0,0,0-1.46.53,7.8,7.8,0,0,0-1,.9l0-.06a2.19,2.19,0,0,0-1.67-.78,2.47,2.47,0,0,0-1.23.35,7.69,7.69,0,0,0-2,1.69,2.75,2.75,0,0,0-.5-2.21,2.16,2.16,0,0,0-1.64-.76,2.31,2.31,0,0,0-1.27.39,5.6,5.6,0,0,0-.59.46,2.35,2.35,0,0,0-.48-.84,2.16,2.16,0,0,0-1.61-.72h0a2.3,2.3,0,0,0-1.23.37,8,8,0,0,0-2.81,3.39,2.49,2.49,0,0,0-.56-1.14,2.25,2.25,0,0,0-1.62-.73,2,2,0,0,0-.49.06c.27-1.42.25-2.35-.35-3.11a2.17,2.17,0,0,0-1.69-.81h0a2.36,2.36,0,0,0-1.46.53,10.46,10.46,0,0,0-3.16,4.23,2.1,2.1,0,0,0-.61-.09h0a2.24,2.24,0,0,0-.81.15c0-.08-.09-.16-.14-.24a2.28,2.28,0,0,0-2-1,3.29,3.29,0,0,0-1.07.18,2.28,2.28,0,0,0-1.72-.75c-2.23,0-4.72,2.89-5.83,5.76a2.81,2.81,0,0,0-.68.52A3.11,3.11,0,0,0,50.6,154,21.7,21.7,0,0,0,52,163.43c1.56,3.82,5,5.11,8.67,6.46l1.35.51c6.57,2.52,12.31,2.75,19,3,1.89.08,3.84.16,5.91.29.32,0,.78.06,1.38.06h.47a24.81,24.81,0,0,0,4-.46l8.51-1.73a37.53,37.53,0,0,1,6.09-.48h1.19c7,0,11.24.1,17.63,2a44.93,44.93,0,0,0,13.11,2.35,29.85,29.85,0,0,0,3.66-.23c3.44-.44,7.08-.76,10.6-1.07,2.52-.23,4.89-.44,7.11-.68a33.73,33.73,0,0,0,7.91-2.2c1-.38,2-.74,3-1,2.89-.93,4.57-1.58,6.91-2.49.79-.32,1.67-.66,2.69-1.05.65-.25,1.48-.53,2.35-.83a48.16,48.16,0,0,0,5.36-2.09,34.54,34.54,0,0,1,3.66-1.5c1-.37,2-.74,3.06-1.2,2.45-1.08,4.81-2.35,7.1-3.58,1.12-.6,2.19-1.17,3.25-1.72a67.54,67.54,0,0,0,7.1-4.19l.93-.6a37,37,0,0,0,6.2-4.72l1.43-1.37c1.54-1.48,3-2.87,4.43-4.49,1.92-2.18,4.82-5.46,1.26-9.06a4,4,0,0,0-2.87-1.17,10,10,0,0,0-3.7,1l-.79.32a3.9,3.9,0,0,0-.75-1.18,7.89,7.89,0,0,0-2.76-1.87l-.79-.38c-2.66-1.41-3.63-3-5.11-5.49-.62-1-1.31-2.17-2.2-3.41-2.92-4.09-3-8.73-3.1-14.11l0-1.1c-.18-8.52-.24-14.17.39-15,2-2.5,2.71-4.35,1-7.51a18.94,18.94,0,0,0-1.2-1.92,5.86,5.86,0,0,1-1.4-3.18,22,22,0,0,1,0-3.61c.43.14.95.33,1.35.48a14.62,14.62,0,0,0,4.89,1.19,4.88,4.88,0,0,0,3-.93l.27-.2.18-.27a4.28,4.28,0,0,0,.59-4c-1-2.69-4.68-4.72-11.91-6.57-.55-.14-1.09-.25-1.62-.36-2.88-.6-3-.89-3-1.64,0-2.82.6-3,.8-3.06l.08,0,.09,0c1.44-.56,3.76-2.19,4.24-4.41a3.77,3.77,0,0,0-1.06-3.52l-.11-.11-.12-.09c-1.36-1-2.62-1.8-3.74-2.5a31.56,31.56,0,0,1-3.26-2.21,11.08,11.08,0,0,0-5.22-2.09l-.3-.07a21.82,21.82,0,0,0-4.09-.41Z" transform="translate(-42.81 -41.96)"/>
	</g>
	<g class="skull">
		<path d="M144.7,167a11.25,11.25,0,0,1-1.16-.05,29.44,29.44,0,0,1-4.41-.89l-1.25-.31c-.52-.13-1.06-.24-1.61-.35A20.59,20.59,0,0,1,131.6,164a9.54,9.54,0,0,1-3-2.18,7.54,7.54,0,0,0-.59-.55,3.27,3.27,0,0,1-1.37-2c-.52-2.75.28-4.79,2.38-6.08,2.39-1.47,6.25-1.29,7.81-1.15.65.06,1.25.1,1.85.14s.95.06,1.47.11c.95.07,3.27.08,3.3.08h1.24a11.81,11.81,0,0,0,4.24-.47,82.89,82.89,0,0,1,10-2.12l1.16-.2a29.21,29.21,0,0,1,4.58-.56l.85,0a5.49,5.49,0,0,1,3.74.84,3.33,3.33,0,0,1,1.61,2.7,4.31,4.31,0,0,1-1.73,3.46,26.91,26.91,0,0,1-3.33,2.12,23,23,0,0,0-3.55,2.31,29.18,29.18,0,0,1-8.72,4.92,24.54,24.54,0,0,1-3.78.93l-.69.13A22.41,22.41,0,0,1,144.7,167Zm-9.88-14a10.87,10.87,0,0,0-5.31,1.09c-1.73,1.07-2.36,2.71-1.92,5a2.44,2.44,0,0,0,1,1.4,7.68,7.68,0,0,1,.67.61,8.37,8.37,0,0,0,2.74,2,19.35,19.35,0,0,0,4.44,1.29c.56.12,1.11.23,1.64.36l1.27.31a28.45,28.45,0,0,0,4.26.86,18,18,0,0,0,5.22-.45l.7-.13a23.35,23.35,0,0,0,3.62-.89,28.26,28.26,0,0,0,8.43-4.75,23.61,23.61,0,0,1,3.7-2.41,25,25,0,0,0,3.2-2,3.29,3.29,0,0,0,1.35-2.62,2.38,2.38,0,0,0-1.15-1.92,4.54,4.54,0,0,0-3.16-.67l-.88,0a29.16,29.16,0,0,0-4.42.55l-1.17.2a80.11,80.11,0,0,0-9.9,2.09,12.83,12.83,0,0,1-4.54.51h-1.22c-.1,0-2.39,0-3.38-.09l-1.46-.1-1.88-.15C136.33,153.05,135.64,153,134.82,153Z" transform="translate(-42.81 -41.96)"/>
		<path d="M193.28,140.49a23.92,23.92,0,0,1-4-.39l-1.2-.21a39.34,39.34,0,0,0-9.11-.89c-.48,0-1,0-1.56,0a17.47,17.47,0,0,0-2.79.14c-.78.14-1.53.25-2.28.35l-1.61.24a28.11,28.11,0,0,1-9.3.34l-.5-.06a3.63,3.63,0,0,1-1.49-.36,3.21,3.21,0,0,1-.53-.43,2,2,0,0,0-.38-.32,8,8,0,0,0-1.41-.67,7.14,7.14,0,0,0-1.34-.17,6.66,6.66,0,0,1-2-.32l.42-.91a7.2,7.2,0,0,0,1.67.24,7,7,0,0,1,1.58.21,8.89,8.89,0,0,1,1.6.75,4.25,4.25,0,0,1,.57.46,2.17,2.17,0,0,0,.35.3A3.11,3.11,0,0,0,161,139c.21,0,.41,0,.57.07a27.29,27.29,0,0,0,9-.35l1.62-.24c.74-.1,1.47-.21,2.24-.34a17.7,17.7,0,0,1,3-.16c.53,0,1.05,0,1.51,0a40.37,40.37,0,0,1,9.33.9l1.2.21c3,.52,5.38.5,6.91-.06a7.86,7.86,0,0,0,2-1.3c.39-.3.77-.6,1.14-.84a4.85,4.85,0,0,1,3.1-.91h.49a4.4,4.4,0,0,1,2.7.52,5.31,5.31,0,0,0,2.8.89,11.42,11.42,0,0,0,2.16-.08l.77-.06a5,5,0,0,0,2-.67c.24-.13.5-.26.77-.38a4.08,4.08,0,0,0,2-1.32,5.4,5.4,0,0,1,1.24-1.44l.64.77a4.46,4.46,0,0,0-1,1.22,4.87,4.87,0,0,1-2.35,1.67c-.29.13-.53.25-.76.37a5.92,5.92,0,0,1-2.36.77l-.75.07a13.24,13.24,0,0,1-2.34.08,6.51,6.51,0,0,1-3.26-1.05,3.42,3.42,0,0,0-2.12-.36h-.51a3.86,3.86,0,0,0-2.56.75c-.35.22-.71.51-1.07.79a9.06,9.06,0,0,1-2.27,1.45A10.06,10.06,0,0,1,193.28,140.49Z" transform="translate(-42.81 -41.96)"/>
		<path d="M134.42,152.21c-.12-1.39-.26-1.94-1.28-2.32a6,6,0,0,0-2.86-.35l-.49.06a3.09,3.09,0,0,1-2.82-.54,1.71,1.71,0,0,1-.55-1.47c.1-.76.78-1.51,2-2.21.22-.13.44-.24.65-.35a2.38,2.38,0,0,0,1.44-1.32l.93.38a3.39,3.39,0,0,1-1.93,1.84c-.19.09-.39.19-.59.31-.9.52-1.46,1.06-1.51,1.49,0,.08,0,.3.27.63s1.22.35,2,.25l.54-.07a7.33,7.33,0,0,1,3.3.41c1.71.63,1.82,1.92,1.92,3.17Z" transform="translate(-42.81 -41.96)"/>
		<path d="M169.11,156l-.1-1a5.16,5.16,0,0,0,2.75-1.19,34.26,34.26,0,0,1,3.34-2.16c2.52-1.38,5.42-1.12,8.17-.62.93.16,1.83.37,2.73.56a26.15,26.15,0,0,0,6.25.91h0c.77,0,1.57.08,2.33.15a11.06,11.06,0,0,0,4.64-.2,11.69,11.69,0,0,0,3.07-1.82,11.91,11.91,0,0,1,3.54-2,19,19,0,0,1,5.76-.53h.94c1.13,0,2.85-1.44,4.08-2.79s1.07-3.31.93-5.21c0-.33,0-.65-.07-1s0-.58,0-.87v-.41h1v.43c0,.26,0,.53,0,.8l.06.94c.16,2,.33,4.3-1.18,6-1.06,1.17-3.1,3.12-4.82,3.12h-.95a18.18,18.18,0,0,0-5.46.48,11.11,11.11,0,0,0-3.24,1.88,12.34,12.34,0,0,1-3.33,2,11.71,11.71,0,0,1-5.06.25c-.79-.07-1.54-.11-2.27-.14h0a29.16,29.16,0,0,1-6.44-.93c-.88-.2-1.77-.39-2.68-.56-2.58-.46-5.27-.72-7.52.52a30.39,30.39,0,0,0-3.23,2.09A6.15,6.15,0,0,1,169.11,156Z" transform="translate(-42.81 -41.96)"/>
		<path d="M157.14,143l-.78-.63a3.67,3.67,0,0,1,.67-.61,2,2,0,0,0,.55-.52,6,6,0,0,0,.64-2.73l1-.05a7.12,7.12,0,0,1-.8,3.34,3,3,0,0,1-.79.77A2.56,2.56,0,0,0,157.14,143Z" transform="translate(-42.81 -41.96)"/>
		<path d="M141.67,104.59h-.13c-1.55-.06-2.17-1.31-2.72-2.42a9.86,9.86,0,0,0-.72-1.28A23.71,23.71,0,0,1,135.78,97a6.48,6.48,0,0,0-1.1-1.56l-.25-.3a4.74,4.74,0,0,1-.82-1.85,4.12,4.12,0,0,0-.57-1.41,4.75,4.75,0,0,0-2.67-1.9A3.61,3.61,0,0,1,129,89.2c-.14-.11-.3-.25-.55-.42a3.85,3.85,0,0,1-1.86-2.4,3,3,0,0,1,.64-2.6,1.51,1.51,0,0,1,.59-.28c.23-.07.32-.11.37-.22a3.73,3.73,0,0,0,.21-1c0-.19.05-.36.08-.52.07-.37.18-.75.29-1.13.32-1.16.62-2.25.05-3.14a13.47,13.47,0,0,1-1.26-2.63,1.92,1.92,0,0,0-.37-.59,4.1,4.1,0,0,1-.4-.56,6.8,6.8,0,0,1-.55-3.29c0-.43,0-.81,0-1.21a9.1,9.1,0,0,1,.17-3.1,7.21,7.21,0,0,1,2-2.87,10.4,10.4,0,0,0,1-1.18,9.73,9.73,0,0,1,1.06-1.28,5.82,5.82,0,0,1,.72-.57c.67-.46,1.06-.77,1-1.25l1-.19c.22,1.15-.7,1.79-1.37,2.26a4.66,4.66,0,0,0-.6.46,10,10,0,0,0-1,1.16,11,11,0,0,1-1.08,1.3,6.35,6.35,0,0,0-1.73,2.45,8.5,8.5,0,0,0-.13,2.75c0,.42,0,.82,0,1.2a6.31,6.31,0,0,0,.41,2.85,3.46,3.46,0,0,0,.31.43,2.91,2.91,0,0,1,.53.87A12.85,12.85,0,0,0,129.67,77c.82,1.27.42,2.69.07,4-.1.36-.2.71-.27,1.06,0,.13-.05.29-.07.45a4.29,4.29,0,0,1-.3,1.27,1.47,1.47,0,0,1-1,.73l-.2.07a2.1,2.1,0,0,0-.32,1.72c.09.69.87,1.31,1.45,1.72.26.18.44.33.6.45a2.69,2.69,0,0,0,1.06.58,5.7,5.7,0,0,1,3.13,2.23,4.81,4.81,0,0,1,.75,1.76,3.86,3.86,0,0,0,.61,1.47l.25.29a7.63,7.63,0,0,1,1.24,1.77,23.3,23.3,0,0,0,2.22,3.78,9.26,9.26,0,0,1,.82,1.43c.56,1.13.95,1.82,1.86,1.86a1.53,1.53,0,0,0,1.21-.41c.86-.85.78-3,.73-4.48,0-.4,0-.78,0-1.11a9.18,9.18,0,0,1,.89-4.41,11.18,11.18,0,0,1,1-1.53,6.55,6.55,0,0,0,1.27-2.12,5.49,5.49,0,0,0,.14-.89,4.93,4.93,0,0,1,.32-1.49,2.66,2.66,0,0,0,.27-1.81,14.77,14.77,0,0,0-2.18-5.69l-.07-.09c-1.27-1.7-2.59-3.46-1.93-6a6.12,6.12,0,0,1,1.13-2c.18-.23.35-.47.51-.71A10.67,10.67,0,0,1,147,68.3a30.15,30.15,0,0,1,2.88-2.1,4.54,4.54,0,0,1,.45-.25,2.81,2.81,0,0,0,.93-.66,2.78,2.78,0,0,0,0-.54,3.44,3.44,0,0,1,0-.84,5.14,5.14,0,0,1,.84-1.83l.17-.26c.8-1.28-.31-2.25-2-3.47a8.29,8.29,0,0,0-4.49-1.17v-1a9.12,9.12,0,0,1,5.06,1.35c1.44,1.07,3.58,2.66,2.22,4.82l-.17.27a4.1,4.1,0,0,0-.69,1.47,2.81,2.81,0,0,0,0,.56,2.21,2.21,0,0,1,0,1.07,2.93,2.93,0,0,1-1.37,1.11l-.39.21a29.26,29.26,0,0,0-2.78,2,9.63,9.63,0,0,0-1.94,2.27c-.17.26-.35.51-.54.77a5.52,5.52,0,0,0-1,1.68c-.53,2.09.54,3.51,1.77,5.17l.07.08a16.11,16.11,0,0,1,2.36,6.1,3.6,3.6,0,0,1-.33,2.39,4.34,4.34,0,0,0-.25,1.2,6.63,6.63,0,0,1-.16,1,7.16,7.16,0,0,1-1.44,2.49,11.22,11.22,0,0,0-1,1.38,8.33,8.33,0,0,0-.77,4c0,.31,0,.68,0,1.07.06,1.81.14,4.06-1,5.22A2.51,2.51,0,0,1,141.67,104.59Z" transform="translate(-42.81 -41.96)"/>
		<path d="M144.75,131.05c-.06-.19-.1-.34-.13-.48a7.1,7.1,0,0,0-.23-.73,1.51,1.51,0,0,0-.56-.65c-.12-.1-.25-.2-.38-.33l-.37-.35a7.5,7.5,0,0,0-2.29-1.68c-.52-.22-1-.41-1.57-.6a17.23,17.23,0,0,1-2.66-1.13,17.18,17.18,0,0,0-1.93-.91,15.46,15.46,0,0,1-2.39-1.16l-.74-.45a40.68,40.68,0,0,1-3.46-2.3,4.34,4.34,0,0,1-1.25-1.66l-.21-.38a2.18,2.18,0,0,1-.19-.49c0-.08,0-.11-.17-.27a3,3,0,0,0-.73-.45l-.23-.11a25.19,25.19,0,0,0-3-1.25c-.75-.27-1.52-.55-2.28-.9a6.82,6.82,0,0,1-1.82-1.32,9.7,9.7,0,0,0-1.07-.89A13.4,13.4,0,0,0,112.9,111l-.78-.19.25-1,.77.19a14.23,14.23,0,0,1,4.53,1.69,8.5,8.5,0,0,1,1.2,1,5.73,5.73,0,0,0,1.57,1.15c.72.33,1.47.61,2.2.88a26,26,0,0,1,3.09,1.29l.2.1a3.49,3.49,0,0,1,1,.67,1.38,1.38,0,0,1,.42.7.68.68,0,0,0,.1.25l.21.41a3.69,3.69,0,0,0,1,1.33,36.35,36.35,0,0,0,3.37,2.23l.75.47a15.54,15.54,0,0,0,2.25,1.08,21,21,0,0,1,2,1,15.38,15.38,0,0,0,2.5,1.06c.54.2,1.09.39,1.63.63a8.14,8.14,0,0,1,2.58,1.87l.36.35c.12.1.22.19.33.27a2.4,2.4,0,0,1,.86,1.07,6.56,6.56,0,0,1,.27.85c0,.13.06.26.11.43Z" transform="translate(-42.81 -41.96)"/>
		<path d="M112.06,110.75H111a19.74,19.74,0,0,1-6.29-.76,17.5,17.5,0,0,0-4-.75l-1.35-.15-.18,0c-1.7-.22-3.3-.42-4.45-2.13a5.11,5.11,0,0,1-.59-3.56c.25-2.84.56-6.37,2.88-8.79A11.86,11.86,0,0,1,101,92a4.64,4.64,0,0,0,1.85-1.62l.57-.68.76-.9a20.45,20.45,0,0,1,2.24-2.4,11.44,11.44,0,0,1,2.82-1.61,15.67,15.67,0,0,0,1.59-.78c.52-.3,1.06-.55,1.59-.79a14.39,14.39,0,0,0,1.57-.8c.58-.35,1.13-.64,1.67-.92s1.29-.7,2-1.14A16.61,16.61,0,0,1,120.43,79c.45-.18.9-.36,1.33-.56a7.57,7.57,0,0,1,3.21-.54,3.68,3.68,0,0,0,.92-.19,3.66,3.66,0,0,1,1.36-.22,6.11,6.11,0,0,0,1.69-.34l.37.93a7,7,0,0,1-2.13.41,2.7,2.7,0,0,0-1,.17,4.05,4.05,0,0,1-1.21.24,6.69,6.69,0,0,0-2.79.45c-.45.21-.91.39-1.38.58a16.63,16.63,0,0,0-2.59,1.23c-.73.46-1.41.83-2.06,1.18s-1.06.56-1.62.9a18.73,18.73,0,0,1-1.67.85,16.31,16.31,0,0,0-1.51.75,18.59,18.59,0,0,1-1.68.82,10.38,10.38,0,0,0-2.58,1.46A19.31,19.31,0,0,0,105,89.41c-.26.31-.52.62-.78.91l-.54.66a5.58,5.58,0,0,1-2.26,1.92,10.84,10.84,0,0,0-3.73,2.38c-2.07,2.17-2.35,5.36-2.6,8.18a4.14,4.14,0,0,0,.42,2.92c.89,1.33,2.16,1.49,3.75,1.7l.18,0,1.33.15a17.9,17.9,0,0,1,4.25.8,18.91,18.91,0,0,0,6,.7h.19c2.81,0,5.65-.09,8.4-.2,1.11,0,2.23-.1,3.35-.13a13.12,13.12,0,0,0,6.91-2.58,2.28,2.28,0,0,0,1.2-1.37l.21-.49a5.83,5.83,0,0,1,1.32-1.66c.21-.21.42-.41.6-.62A10.23,10.23,0,0,0,135,98.49a11,11,0,0,0-.64-3.51l.91-.4a11.38,11.38,0,0,1,.72,4,11,11,0,0,1-2.09,4.72c-.2.23-.43.46-.66.68a5,5,0,0,0-1.11,1.37l-.21.47a3.17,3.17,0,0,1-1.57,1.81,13.94,13.94,0,0,1-7.42,2.73l-3.34.13C117.13,110.65,114.59,110.75,112.06,110.75Z" transform="translate(-42.81 -41.96)"/>
		<path d="M131.37,89.88l-.91-.43a6,6,0,0,1,3-2.91l.39.92A5,5,0,0,0,131.37,89.88Z" transform="translate(-42.81 -41.96)"/>
		<path d="M139.88,70.68a4.06,4.06,0,0,1-1.2-.2l.3-1c1.52.48,2-.11,2.85-1.38.1-.15.18-.3.27-.46a3.2,3.2,0,0,1,.84-1.1,1.92,1.92,0,0,1,.94-.32,1.67,1.67,0,0,0,.35-.08l.88.45a1.28,1.28,0,0,1-1.09.62,1.05,1.05,0,0,0-.48.13,2.48,2.48,0,0,0-.57.79c-.1.18-.2.36-.31.53C142,69.64,141.32,70.68,139.88,70.68Z" transform="translate(-42.81 -41.96)"/>
		<path d="M166.34,100.09l-1-.06a1.36,1.36,0,0,1,.5-.9.75.75,0,0,0,.18-.22,6.73,6.73,0,0,0,.31-1.27v-.16a8.39,8.39,0,0,0,0-1.8,3.84,3.84,0,0,0-.6.26,2.74,2.74,0,0,1-1.66.39,6.39,6.39,0,0,1-2.85-1,9.54,9.54,0,0,1-2.33-1.87,3.66,3.66,0,0,1-.75-2.1l-.09-.59-.12-.59c-.35-1.77-.88-4.44,1.12-5.64a2.36,2.36,0,0,1,.43-.21.76.76,0,0,0,.41-.33,4.25,4.25,0,0,0,.35-.58,5.67,5.67,0,0,1,.36-.63c.48-.68,1-1.32,1.56-1.94s.84-1,1.21-1.47l.65-.87c.48-.64,1-1.29,1.44-1.89a4.7,4.7,0,0,0,.83-3.2c0-2.19-.12-4.45-1.51-5.92l-.23-.24a10.63,10.63,0,0,0-2.69-2.3A6.85,6.85,0,0,0,158,64.5l-.54,0a7,7,0,0,0-2.85.65l-.13.07c-.76.43-2,1.14-3,.68l.43-.9c.5.24,1.57-.36,2.08-.65l.13-.07a7.83,7.83,0,0,1,3.25-.78l.53,0a7.82,7.82,0,0,1,4.39.61,11.4,11.4,0,0,1,3,2.51l.23.24c1.65,1.74,1.79,4.32,1.79,6.61a5.55,5.55,0,0,1-1.05,3.81c-.47.6-.94,1.24-1.42,1.88l-.65.87c-.38.51-.82,1-1.25,1.52s-1,1.23-1.5,1.86c-.11.17-.2.35-.3.53a4.56,4.56,0,0,1-.43.72,1.76,1.76,0,0,1-.83.64,2.45,2.45,0,0,0-.29.14c-1.4.84-1,2.93-.65,4.6l.11.6c0,.21.07.43.1.64a2.76,2.76,0,0,0,.52,1.58,8.91,8.91,0,0,0,2,1.64,5.47,5.47,0,0,0,2.43.83,1.85,1.85,0,0,0,1.15-.27,4,4,0,0,1,.91-.38.73.73,0,0,1,.71.08c.55.39.55,1.43.48,2.76v.17a8.92,8.92,0,0,1-.35,1.53,1.67,1.67,0,0,1-.44.62C166.42,100,166.35,100,166.34,100.09Zm.13-4.47h0Z" transform="translate(-42.81 -41.96)"/>
		<path d="M63.68,97.35c-1-1.94-.12-4.38,1.19-5.93a2.74,2.74,0,0,0,1-2.24,14.71,14.71,0,0,0-.12-1.62,15.6,15.6,0,0,1-.13-1.73h1a14.35,14.35,0,0,0,.12,1.61,14,14,0,0,1,.13,1.74,3.68,3.68,0,0,1-1.2,2.88c-1.06,1.26-1.84,3.31-1.06,4.84Z" transform="translate(-42.81 -41.96)"/>
		<path d="M99.23,109.13a5.11,5.11,0,0,0-1.87-.16,6.46,6.46,0,0,1-2.26-.21,38.65,38.65,0,0,1-3.61-1.49L91,107a7.13,7.13,0,0,1-3.8-3.19,5.53,5.53,0,0,1-.36-2.56v-.46h1v.48a4.6,4.6,0,0,0,.27,2.12,6.23,6.23,0,0,0,3.3,2.7l.5.23a37.17,37.17,0,0,0,3.51,1.45,5.7,5.7,0,0,0,1.92.16,5.9,5.9,0,0,1,2.25.22Z" transform="translate(-42.81 -41.96)"/>
		<path d="M89.38,97l-.93-.37a3,3,0,0,0,.16-.64,2.7,2.7,0,0,1,.62-1.42c.19-.22.4-.43.61-.63a7.15,7.15,0,0,0,.61-.62l.77.65a9.1,9.1,0,0,1-.69.7c-.19.18-.38.36-.55.55a1.65,1.65,0,0,0-.38,1A4.92,4.92,0,0,1,89.38,97Z" transform="translate(-42.81 -41.96)"/>
		<path d="M94.93,90.34l-.86-.51a4.83,4.83,0,0,1,1.69-1.34,8.33,8.33,0,0,0,1.14-.76,5.89,5.89,0,0,1,.53-.44,5.2,5.2,0,0,0,.83-.77c.4-.49.84-1,1.27-1.52l.75-.9.77.63-.76.91L99,87.15a6.17,6.17,0,0,1-1,.92l-.49.4a8.29,8.29,0,0,1-1.29.88A4.82,4.82,0,0,0,94.93,90.34Z" transform="translate(-42.81 -41.96)"/>
		<path d="M105.58,80l-.22-1a8.58,8.58,0,0,0,1.3-.43,9.59,9.59,0,0,1,2-.58c.36,0,.72-.06,1.07-.07a4,4,0,0,0,1.83-.32A9,9,0,0,0,114,75.74c.14-.16.27-.32.4-.49a5.23,5.23,0,0,1,2.07-1.78l.37.93a4.23,4.23,0,0,0-1.66,1.48q-.19.25-.42.51A9.9,9.9,0,0,1,112,78.5a4.94,4.94,0,0,1-2.26.43c-.32,0-.65,0-1,.06a8.33,8.33,0,0,0-1.77.53A11,11,0,0,1,105.58,80Z" transform="translate(-42.81 -41.96)"/>
		<path d="M188,130.38a9.45,9.45,0,0,1-2-.21L185,130a38.53,38.53,0,0,1-3.83-.9l-.67-.17a9.88,9.88,0,0,1-1.06-.31,4.49,4.49,0,0,1-1-.57c-.16-.11-.33-.23-.51-.33a10.74,10.74,0,0,0-2.06-.85c-.43-.14-.85-.29-1.28-.46a7.91,7.91,0,0,1-1.35-.76,8.46,8.46,0,0,0-.91-.55,4,4,0,0,0-1.08-.35,4.17,4.17,0,0,1-2.43-1.5,9.5,9.5,0,0,0-1.11-1,3.79,3.79,0,0,1-1.93-3.49,19.42,19.42,0,0,1,.37-2.81c.08-.44.16-.88.23-1.32s.13-1.16.18-1.74a16.54,16.54,0,0,1,.55-3.44c.14-.47.27-1,.4-1.46a14.23,14.23,0,0,1,1.52-4c.1-.15.23-.3.36-.46a2.33,2.33,0,0,0,.35-.46,3.19,3.19,0,0,0,.09-1.12,5,5,0,0,1,0-1,8.73,8.73,0,0,1,.89-2.22c.84-1.65,1.33-2.83.55-3.83a23.76,23.76,0,0,0-5.53,6.21,6.59,6.59,0,0,0-.28.71,4.37,4.37,0,0,1-.48,1.1,6.64,6.64,0,0,1-1.12,1.19,8.17,8.17,0,0,0-.83.84c-.51.64-1,1.23-1.55,1.79l-.58.64a19,19,0,0,1-3.32,3.14,13.84,13.84,0,0,0-1.94,1.66c-.37.35-.74.71-1.14,1a8.92,8.92,0,0,0-1.22,1.42,9.09,9.09,0,0,1-1.63,1.79c-1.65,1.27-2.81.34-3.64-.62a7.84,7.84,0,0,0-.7-.71,5.43,5.43,0,0,1-1.53-2.06,16.3,16.3,0,0,0-.86-1.85c-.26-.51-.52-1-.74-1.52-.12-.29-.25-.55-.37-.81a5.12,5.12,0,0,1-.74-2.61c0-.19,0-.39.05-.6a5,5,0,0,0-.09-1.94l.93-.36a5.62,5.62,0,0,1,.15,2.38c0,.19,0,.39,0,.57a4.35,4.35,0,0,0,.63,2.12c.14.27.28.55.41.86.2.49.45,1,.7,1.45a18.57,18.57,0,0,1,.91,2,4.41,4.41,0,0,0,1.28,1.68c.26.25.52.5.77.78.88,1,1.43,1.14,2.27.48a8.12,8.12,0,0,0,1.44-1.59,9.58,9.58,0,0,1,1.37-1.58c.39-.33.74-.67,1.1-1a13.94,13.94,0,0,1,2.08-1.77,17.9,17.9,0,0,0,3.12-3l.59-.64c.52-.58,1-1.13,1.51-1.74a7.74,7.74,0,0,1,.94-1,6.34,6.34,0,0,0,1-1,4.21,4.21,0,0,0,.37-.87,4.79,4.79,0,0,1,.35-.87,27.11,27.11,0,0,1,4.85-5.8,2.32,2.32,0,0,1-.47-2,7.15,7.15,0,0,1,1.1-2.53l.23-.39a6,6,0,0,1,2.42-2.26l.44-.28A15.54,15.54,0,0,0,177.36,84a17.2,17.2,0,0,1,1.76-1.76,11.24,11.24,0,0,0,2.3-2.58,8.41,8.41,0,0,0,.37-.81,6.76,6.76,0,0,1,.7-1.36,5.13,5.13,0,0,1,.63-.68,3,3,0,0,0,.61-.7,7.76,7.76,0,0,0,.6-2.15,14,14,0,0,1,.36-1.61,8.31,8.31,0,0,1,2.77-4.24c2.2-1.76,6.3-2.19,8.49-.14s1.81,4.93,1.36,7.33c-.08.39-.16.77-.24,1.13-.4,1.73-.68,3,.61,4.4a3.76,3.76,0,0,0,.73.57,2.47,2.47,0,0,1,1.34,1.76,11,11,0,0,1-.22,3.9l-.2.82a22.39,22.39,0,0,0-.67,3.51c-.09,1.17-.29,2.34-.48,3.47a29.15,29.15,0,0,0-.52,4.26c-.07,3.92-.13,9.06.07,14.09a35.53,35.53,0,0,0,.76,5.81,10.15,10.15,0,0,1,0,4.44,9.07,9.07,0,0,1-2.75,3.79,7.69,7.69,0,0,0-.66.78,6.14,6.14,0,0,1-.92,1,3.73,3.73,0,0,1-1.89.67l-.51.09A18.79,18.79,0,0,1,188,130.38ZM172,94.05c1.49,1.61.51,3.54-.28,5.09a7.92,7.92,0,0,0-.79,1.94,4.45,4.45,0,0,0,0,.84,3.78,3.78,0,0,1-.16,1.51,3,3,0,0,1-.52.75,3.84,3.84,0,0,0-.28.34,13.35,13.35,0,0,0-1.39,3.76c-.13.51-.27,1-.42,1.49a14.91,14.91,0,0,0-.5,3.23c-.06.6-.11,1.21-.19,1.8s-.15.91-.24,1.36a18.59,18.59,0,0,0-.35,2.67c0,1.42.59,1.91,1.54,2.66a10.92,10.92,0,0,1,1.22,1.05,3.15,3.15,0,0,0,1.93,1.22,5.58,5.58,0,0,1,1.31.43,11.72,11.72,0,0,1,1,.61,6.28,6.28,0,0,0,1.18.67c.4.17.81.3,1.22.44a12.22,12.22,0,0,1,2.24.93,6,6,0,0,1,.59.39,4,4,0,0,0,.75.45,7,7,0,0,0,1,.26c.24.06.49.12.72.2,1.23.37,2.5.62,3.74.87l.94.18a12.32,12.32,0,0,0,5.44-.31l.55-.09a3.06,3.06,0,0,0,1.42-.47,5.1,5.1,0,0,0,.76-.86,7.27,7.27,0,0,1,.76-.89,8.26,8.26,0,0,0,2.49-3.37,9.36,9.36,0,0,0-.07-3.93,35.5,35.5,0,0,1-.79-6c-.21-5.05-.14-10.21-.07-14.15a30.53,30.53,0,0,1,.53-4.41c.19-1.11.39-2.25.48-3.38a22.48,22.48,0,0,1,.69-3.67l.2-.81a10.19,10.19,0,0,0,.2-3.51c-.09-.53-.37-.74-.9-1.08a4.59,4.59,0,0,1-.92-.74c-1.64-1.8-1.25-3.5-.85-5.29.08-.35.16-.71.23-1.09.43-2.29.64-4.84-1-6.42s-5.34-1.28-7.19.19a7.4,7.4,0,0,0-2.44,3.77,13.06,13.06,0,0,0-.33,1.48,8.11,8.11,0,0,1-.7,2.44,3.88,3.88,0,0,1-.81,1,5,5,0,0,0-.5.54,5.67,5.67,0,0,0-.59,1.15,8.19,8.19,0,0,1-.41.91A11.77,11.77,0,0,1,179.79,83a18.61,18.61,0,0,0-1.66,1.67,16.86,16.86,0,0,1-4.06,3.5l-.45.28a4.93,4.93,0,0,0-2.08,1.91l-.24.4a6.74,6.74,0,0,0-1,2.11c-.06.7,0,1.07.16,1.18a.31.31,0,0,0,.21,0,1.73,1.73,0,0,1,.76-.31A.67.67,0,0,1,172,94.05Z" transform="translate(-42.81 -41.96)"/>
		<path d="M177.68,138.85a6.74,6.74,0,0,0-2.89-2.35,13.16,13.16,0,0,1-1.27-.6c-.4-.2-.77-.4-1.11-.53s-.82-.31-1.23-.46c-1-.4-2.12-.81-3.16-1.26-2.09-.93-4.45-2.88-4.24-5.35.2-.88,1.33-1.4,1.9-1.56a7.11,7.11,0,0,1,3.22,0,10.22,10.22,0,0,1,3,1.1,10.85,10.85,0,0,0,2.34,1,24,24,0,0,0,7.32,0l1.45-.15.09,1-1.43.14a24.91,24.91,0,0,1-7.66,0,11.82,11.82,0,0,1-2.56-1,9.51,9.51,0,0,0-2.68-1,6.12,6.12,0,0,0-2.8,0,1.94,1.94,0,0,0-1.18.76c-.15,1.87,1.87,3.48,3.65,4.27,1,.45,2.08.85,3.12,1.24l1.23.47A11.93,11.93,0,0,1,174,135a10.05,10.05,0,0,0,1.17.55,7.65,7.65,0,0,1,3.29,2.65Z" transform="translate(-42.81 -41.96)"/>
		<path d="M198,111.09a3,3,0,0,1-1-.21l.35-.93a1.61,1.61,0,0,0,1.76-.29,7,7,0,0,1,.63-.37,6.19,6.19,0,0,1,3.1-.54v1a5.37,5.37,0,0,0-2.63.42,5.72,5.72,0,0,0-.57.34A3,3,0,0,1,198,111.09Z" transform="translate(-42.81 -41.96)"/>
		<path d="M203.07,88.37a7.73,7.73,0,0,1-1.13-.11l-.33-.05a5.26,5.26,0,0,1-1.3-.48,4.3,4.3,0,0,0-1.17-.42l-.28-1a3.08,3.08,0,0,1,1.87.47,5.65,5.65,0,0,0,1,.4l.35,0c.92.14,1.6.2,1.87-.29l.88.48A1.86,1.86,0,0,1,203.07,88.37Z" transform="translate(-42.81 -41.96)"/>
		<path d="M195.45,61.63c-1.18-1.23-.9-3.89-.7-5.83a8.65,8.65,0,0,0,.1-1.74A6.39,6.39,0,0,0,193.53,52l-.16-.19a7.24,7.24,0,0,0-2.27-2c-1.37-.65-4.8-.88-6.12.09-.35.26-.38.46-.39.53-.06.43.4,1,.81,1.58a4.19,4.19,0,0,1,.93,1.69,7,7,0,0,1-.59,3.72,3.05,3.05,0,0,1-2.05.89,5.77,5.77,0,0,0-.85.19,13,13,0,0,1-4.59.51h-1.32a32.62,32.62,0,0,1-5.21-.27c-4.12-.67-8.51-1.16-13.41-1.49-3.3-.22-8.06-.49-11.94-.49v-1c3.91,0,8.69.27,12,.5,4.94.33,9.36.82,13.51,1.49a31.54,31.54,0,0,0,5.05.26h1.33a12.16,12.16,0,0,0,4.23-.45,6,6,0,0,1,1-.23c.56-.1,1.2-.21,1.42-.51a6.43,6.43,0,0,0,.4-3,3.68,3.68,0,0,0-.74-1.24,3.35,3.35,0,0,1-1-2.32,1.81,1.81,0,0,1,.79-1.19c1.63-1.2,5.49-1,7.13-.19a7.89,7.89,0,0,1,2.62,2.26l.16.19a6.9,6.9,0,0,1,1.52,2.48,7.6,7.6,0,0,1-.07,2.07c-.18,1.65-.44,4.14.42,5Z" transform="translate(-42.81 -41.96)"/>
		<path d="M187.78,68.84h-1a8,8,0,0,0-1.2-4.57l.84-.54A9.08,9.08,0,0,1,187.78,68.84Z" transform="translate(-42.81 -41.96)"/>
		<path d="M66.76,105.16c-.41,0-.82,0-1.19,0l-.52,0a21.33,21.33,0,0,1-3.2-.33c-1.67-.34-2.29-1-2.43-2.6a4,4,0,0,1,.73-2.93A4.38,4.38,0,0,1,61.77,98a4.16,4.16,0,0,0,1.07-.68l.25-.16a2.14,2.14,0,0,0,.56-.42c.35-.36.63-.48,1.47-.42a3.77,3.77,0,0,1,1.27.39c.76.35,1.08.44,1.5.06a1.74,1.74,0,0,0,.4-.61,1.57,1.57,0,0,1,1.46-1.09,4.82,4.82,0,0,1,2.48.24,4.77,4.77,0,0,1,1.84,2.22,3.35,3.35,0,0,1,.09,1.19,1.67,1.67,0,0,0,.2,1.1l.21.34-.28.28a16.45,16.45,0,0,1-4,3,4,4,0,0,0-.76.58,3.8,3.8,0,0,1-1.4.92A5,5,0,0,1,66.76,105.16Zm-3.27-7.07a5.27,5.27,0,0,1-1.26.81,3.5,3.5,0,0,0-1.28.92,3,3,0,0,0-.54,2.24c.11,1.17.38,1.46,1.63,1.71a20.35,20.35,0,0,0,3.06.31l.53,0a7,7,0,0,0,2.21-.07,3,3,0,0,0,1-.7,5.39,5.39,0,0,1,.95-.72,14.81,14.81,0,0,0,3.5-2.62,3.16,3.16,0,0,1-.16-1.32,2.5,2.5,0,0,0,0-.86,3.91,3.91,0,0,0-1.35-1.62,3.88,3.88,0,0,0-1.88-.13c-.49.07-.53.16-.68.5a2.54,2.54,0,0,1-.64,1,2.13,2.13,0,0,1-2.58.12,2.9,2.9,0,0,0-.93-.31c-.53,0-.56,0-.7.13a2.89,2.89,0,0,1-.77.58Z" transform="translate(-42.81 -41.96)"/>
		<path d="M51.58,128.39a4.18,4.18,0,0,1-2.39-.55,2.62,2.62,0,0,0-.76-.29,16.09,16.09,0,0,1-3.07-.92l.46-.89a16.13,16.13,0,0,0,2.82.84,3.39,3.39,0,0,1,1,.38c.13.06.27.14.45.21a5.66,5.66,0,0,0,2.52.17c.24,0,.51,0,.78-.06a5.3,5.3,0,0,0,2.06-.37,3.79,3.79,0,0,0,.45-.29,2.64,2.64,0,0,1,1.6-.62l0,1a2.1,2.1,0,0,0-1,.45,6.53,6.53,0,0,1-.56.35,6,6,0,0,1-2.47.48l-.73.05A10.2,10.2,0,0,1,51.58,128.39Z" transform="translate(-42.81 -41.96)"/>
		<path d="M353.66,405.37" transform="translate(-42.81 -41.96)"/>
		<path d="M139.26,174a43.23,43.23,0,0,1-12.68-2.29c-6.92-2.1-11.57-2.11-18.64-2.1h-.61a50.73,50.73,0,0,0-11.84,1.59l-3.06.65h0a6.66,6.66,0,0,1-.78.1l-2.47.28v.06h-.53c-9.17,0-18.06-.25-26.14-3.25l-.4-.15c-3-1.1-7.45-2.75-8.77-6a22.3,22.3,0,0,1-1.13-9.38c.2-.85,1.2-.88,5.78-.63a53.27,53.27,0,0,0,7.2.08c1.14-.12,2.3-.16,3.42-.19a37.57,37.57,0,0,0,4.21-.3,16.89,16.89,0,0,1,3.41,0,11.69,11.69,0,0,0,4.09-.19,17,17,0,0,1,5.09-.58c1.13,0,2.29-.09,3.41-.17s2.32-.16,3.49-.17a36.06,36.06,0,0,0,5.62-.62l1.68-.27c1.55-.23,3.39-.52,5.29-.92l.69-.14a9.89,9.89,0,0,0,2.54-.74,20.89,20.89,0,0,1,2.61-1.07,45.89,45.89,0,0,1,5.42-1.59,9.36,9.36,0,0,0,1.48-.52c.41-.17.83-.35,1.26-.48a14.91,14.91,0,0,1,1.66-.35,13.07,13.07,0,0,0,1.61-.36c.34-.1.85-.31,1.38-.52a20.19,20.19,0,0,1,1.91-.7l.26,1c-.41.11-1.15.41-1.8.67s-1.09.43-1.45.54a12.39,12.39,0,0,1-1.74.39,14.45,14.45,0,0,0-1.54.33,10.47,10.47,0,0,0-1.16.44,10.4,10.4,0,0,1-1.65.58,44.6,44.6,0,0,0-5.31,1.56,18.45,18.45,0,0,0-2.48,1,10.79,10.79,0,0,1-2.81.83l-.67.14c-1.93.41-3.79.7-5.35.93l-1.67.27a38.59,38.59,0,0,1-5.77.63c-1.14,0-2.31.09-3.43.17s-2.31.16-3.47.17a16.57,16.57,0,0,0-4.8.53,12.4,12.4,0,0,1-4.45.24,15.57,15.57,0,0,0-3.2,0,37.82,37.82,0,0,1-4.33.3c-1.1,0-2.24.08-3.35.19a53.82,53.82,0,0,1-7.36-.07,31.13,31.13,0,0,0-4.74-.07,20.81,20.81,0,0,0,1.08,8.7c1.15,2.83,5.39,4.4,8.19,5.43l.4.15c7.92,2.95,16.72,3.19,25.79,3.19v0c.45-.1,1.29-.2,2.88-.37l.71-.08,3-.65a51.73,51.73,0,0,1,12.06-1.61h.61c7.16,0,11.87,0,18.93,2.14,5.62,1.71,10.44,2.7,15.73,2,3.5-.45,7.16-.77,10.7-1.08,2.5-.23,4.87-.44,7.06-.68a31.17,31.17,0,0,0,7.31-2.05c1-.38,2.07-.76,3.09-1.09,2.82-.9,4.48-1.55,6.77-2.44.8-.32,1.68-.66,2.71-1,.68-.26,1.53-.56,2.42-.87a44.47,44.47,0,0,0,5.05-1.95,37.44,37.44,0,0,1,3.93-1.62c1-.35,2-.71,2.91-1.14,2.36-1,4.68-2.29,6.93-3.49,1.11-.6,2.21-1.19,3.29-1.74a68.12,68.12,0,0,0,6.87-4.06l.93-.61a34.37,34.37,0,0,0,5.83-4.41q.73-.72,1.44-1.38c1.5-1.44,2.93-2.8,4.29-4.35,2.63-3,2.89-4.09,1.35-5.65-.79-.79-2-.36-3.83.39-1.29.54-2.63,1.09-3.72.74a.66.66,0,0,1-.41-.34.94.94,0,0,1,0-.74,1,1,0,0,0-.23-1.15,5.59,5.59,0,0,0-2-1.28l-.9-.44c-3.27-1.73-4.57-3.9-6.09-6.42-.61-1-1.25-2.07-2.08-3.24-3.38-4.71-3.47-10-3.57-15.52l0-1.09c-.25-12.17-.19-15.16.94-16.57,1.59-2,1.85-2.76.78-4.79a16.15,16.15,0,0,0-1-1.66,8.28,8.28,0,0,1-1.84-4.46c-.12-2.19-.11-5,.61-5.92s2.31-.37,4.14.31,4.17,1.54,5.47.64a1.72,1.72,0,0,0,.25-1.63c-.45-1.22-2.59-3.08-10.18-5-.49-.13-1-.23-1.5-.33-2.47-.51-5-1-5-4.07,0-2.33.27-4.81,2.61-5.48a4.76,4.76,0,0,0,2.66-2.59,1.3,1.3,0,0,0-.41-1.24c-1.21-.9-2.37-1.62-3.5-2.32a34,34,0,0,1-3.51-2.4A9,9,0,0,0,189,44.89l-.31-.07c-2.34-.47-5.75-.64-7.65.45a8.66,8.66,0,0,0-3.69,3.64c-.39.64-.84,1.35-1.49,2.22-.2.27-.37.54-.54.81a4.48,4.48,0,0,1-1.75,1.87c-.26.12-.52.22-.78.32a2.15,2.15,0,0,0-1.39.94c-.76,1.42-3.12,1.64-4.39,1.76l-.47.06c-3,1.7-5.34-1-7.65-3.67-1.75-2-3.56-4-5.46-3.9-1.43.11-2.89,1.4-4.48,4l-.44.71c-2.13,3.42-2.25,3.5-6.46,4l-.7.09c-.63.08-1.31.22-2.1.38a41,41,0,0,1-8.29,1c-.72,0-1.47,0-2.24.08a26.86,26.86,0,0,1-6.36-.18,12.14,12.14,0,0,0-3.53-.21c-.57,0-1.23.06-2.12.06a28.65,28.65,0,0,0-5.29.31A16.7,16.7,0,0,0,107.52,61a9.75,9.75,0,0,1-4.71,1.47A9.3,9.3,0,0,0,96,65.76c-2.58,2.72-6.12,6.44-10.62,7.76-.72.22-1.44.39-2.14.55a15.51,15.51,0,0,0-4.69,1.67c-.62.39-1.22.75-1.81,1.1a23.4,23.4,0,0,0-4.84,3.43c-1.39,1.39-2.48,2.49-3.69,3.69l-1.89,1.89a32.7,32.7,0,0,0-3.1,3.86c-.48.66-1,1.31-1.44,1.93a76.17,76.17,0,0,1-7.49,8c-1.22,1.19-2.49,2.42-3.8,3.75a12,12,0,0,0-2.78,5,12.41,12.41,0,0,0-.14,3.06,11.91,11.91,0,0,1-1.06,6.11,14.43,14.43,0,0,0-1,3.53l0,.5c-.15,1.28-.4,3.42.17,4a.48.48,0,0,0,.4.16l0,1a1.49,1.49,0,0,1-1.16-.48c-.88-1-.63-3.11-.43-4.83l.06-.49a14.75,14.75,0,0,1,1-3.78,15.13,15.13,0,0,0,.91-3,14.25,14.25,0,0,0,.08-2.71,13.11,13.11,0,0,1,.16-3.3,13,13,0,0,1,3.05-5.5c1.31-1.34,2.59-2.57,3.82-3.76A77.17,77.17,0,0,0,61,91c.48-.61.95-1.26,1.42-1.91a34.12,34.12,0,0,1,3.21-4l1.89-1.9c1.2-1.2,2.29-2.3,3.69-3.69a24.33,24.33,0,0,1,5-3.58c.58-.35,1.18-.7,1.79-1.08a16,16,0,0,1,5-1.8c.68-.16,1.38-.33,2.09-.54,4.24-1.24,7.67-4.85,10.17-7.49a10.28,10.28,0,0,1,7.39-3.59A8.87,8.87,0,0,0,107,60.17a17,17,0,0,1,4.15-1.65,30.07,30.07,0,0,1,5.55-.35c.87,0,1.51,0,2.07-.06a13.28,13.28,0,0,1,3.77.23,26.36,26.36,0,0,0,6.12.16c.78,0,1.55-.07,2.28-.08a40,40,0,0,0,8.1-.94c.81-.17,1.5-.31,2.18-.39l.7-.09c3.81-.47,3.81-.47,5.73-3.55l.44-.72c1.77-2.82,3.49-4.27,5.25-4.41,2.42-.2,4.39,2.06,6.29,4.24,2.14,2.45,4.16,4.75,6.48,3.42a2.16,2.16,0,0,1,.8-.14c.92-.09,3.09-.3,3.6-1.24a3.09,3.09,0,0,1,1.93-1.42,6.26,6.26,0,0,0,.67-.27,3.48,3.48,0,0,0,1.35-1.5,9.52,9.52,0,0,1,.59-.87c.62-.84,1.06-1.54,1.45-2.16a9.64,9.64,0,0,1,4-4c2.15-1.23,5.84-1.06,8.35-.56l.31.07a9.93,9.93,0,0,1,4.57,1.78A34.75,34.75,0,0,0,197.14,48c1.14.71,2.33,1.45,3.63,2.42a2.32,2.32,0,0,1,.73,2.2c-.34,1.54-2.15,2.88-3.32,3.33-1.41.4-2,1.71-1.93,4.53,0,2.11,1.62,2.55,4.24,3.09.51.1,1,.21,1.55.34,6.52,1.68,10.07,3.52,10.87,5.65a2.72,2.72,0,0,1-.41,2.62l-.12.12c-1.72,1.29-4.36.32-6.48-.47-1.21-.45-2.71-1-3-.63s-.59,1.76-.4,5.25a7.29,7.29,0,0,0,1.66,4,16.76,16.76,0,0,1,1.12,1.77c1.29,2.46.91,3.62-.89,5.87-.9,1.13-1,4.23-.72,15.93l0,1.1c.09,5.39.18,10.49,3.38,15,.86,1.2,1.53,2.32,2.13,3.31,1.49,2.48,2.68,4.44,5.7,6,.3.16.58.29.86.42a6.55,6.55,0,0,1,2.28,1.52,2,2,0,0,1,.49,2,6.82,6.82,0,0,0,2.74-.76c1.68-.7,3.59-1.5,4.92-.17,2.39,2.42,1,4.43-1.31,7-1.39,1.57-2.83,2.94-4.35,4.4-.47.44-.94.9-1.43,1.37a35.34,35.34,0,0,1-6,4.54l-.93.61a68.77,68.77,0,0,1-7,4.11c-1.08.55-2.17,1.14-3.28,1.73-2.26,1.21-4.6,2.47-7,3.53-1,.44-2,.81-3,1.16a35.79,35.79,0,0,0-3.81,1.57,47.83,47.83,0,0,1-5.18,2c-.89.3-1.72.59-2.4.85l-2.7,1c-2.31.9-4,1.55-6.82,2.46-1,.32-2,.71-3,1.08a32.53,32.53,0,0,1-7.55,2.11c-2.2.24-4.57.45-7.08.67-3.53.31-7.19.64-10.66,1.08A27.41,27.41,0,0,1,139.26,174Z" transform="translate(-42.81 -41.96)"/>
		<path d="M130.68,144.16a11.26,11.26,0,0,1-1.82-.17,7.6,7.6,0,0,0-3.15,0l-.22-1a8.84,8.84,0,0,1,3.51,0,8.26,8.26,0,0,0,2.92.05c.92-.44,1.77-.89,2.59-1.31a24.4,24.4,0,0,1,5.14-2.24,46.3,46.3,0,0,1,4.85-.75c1.45-.18,2.82-.35,3.9-.57.7-.15,1.41-.25,2.12-.35a25.46,25.46,0,0,0,2.78-.5,29.76,29.76,0,0,1-2.67-2.07,19.22,19.22,0,0,0-1.58-1.26c-2.94-2-3.49-2.18-3.54-2.19l-.78-.27a21.26,21.26,0,0,0-4.09-.22c-1.12,0-2.28,0-3.51-.08a10.3,10.3,0,0,1-2.1-.44,13.12,13.12,0,0,0-1.53-.37,22.61,22.61,0,0,0-4.59-.14c-.73,0-1.45.05-2.18,0s-1.69-.07-2.51-.13a28.08,28.08,0,0,0-3.19-.12,37.14,37.14,0,0,0-5.44.75c-.54.1-1,.24-1.55.37a12.65,12.65,0,0,1-3.3.55c-1.16,0-2.12,0-3,.08-.38,0-.77,0-1.17,0a6.7,6.7,0,0,0-2.5.29,10.75,10.75,0,0,1-2.85.6,11.89,11.89,0,0,0-2.16.37,2.43,2.43,0,0,0-.51.24,2.31,2.31,0,0,1-.72.32c-.69.15-4.65.24-5.78.24H91a37.89,37.89,0,0,1-4.87-.18c-.92-.11-1.84-.26-2.76-.41a33,33,0,0,0-5.34-.58h-1c-.64,0-1.28,0-1.92,0H74.8a23.27,23.27,0,0,1-7.43-1.09l-.6-.23a22.69,22.69,0,0,0-2.14-.77l-.32-.1c-1-.27-2.33-.64-2.7-1.51a10.55,10.55,0,0,0-1.78-.65l-.41-.13a4.48,4.48,0,0,0-.58-.17,1.68,1.68,0,0,1-1.52-1.39,12.45,12.45,0,0,1,0-4.26c.07-.59.14-1.17.17-1.72A13.45,13.45,0,0,1,59.07,116c.37-.8.72-1.55,1-2.27a10.75,10.75,0,0,1,1.7-2.91,11,11,0,0,0,1.4-2.25c.9-2.15,3.28-3.7,5.43-5a21.79,21.79,0,0,0,2.68-1.91,8.51,8.51,0,0,0,.81-.77,4.44,4.44,0,0,1,2.08-1.43l.55-.12a3.38,3.38,0,0,0,.92-.26,4.22,4.22,0,0,0,1-.83,6.14,6.14,0,0,1,.84-.75c.43-.31.89-.59,1.36-.87a9.38,9.38,0,0,0,2.55-2,24.4,24.4,0,0,1,2.34-2.52c.31-.31.63-.62,1-.95a18.27,18.27,0,0,0,1.37-1.62,21.18,21.18,0,0,1,1.6-1.85,10.31,10.31,0,0,1,3.43-2c.4-.16.79-.32,1.17-.5.89-.41,1.75-.92,2.58-1.4s1.6-.94,2.44-1.35a4.82,4.82,0,0,1,1.57-.39,5.77,5.77,0,0,0,.94-.17,8.26,8.26,0,0,0,1.81-.9l.48-.29a25.32,25.32,0,0,1,2.27-1.19c1-.42,1-.43,1.37-1.25a25.49,25.49,0,0,1,1.42-2.4c.27-.41.53-.82.76-1.21l.06-.1a13.87,13.87,0,0,1,2.83-3.69,7.1,7.1,0,0,1,3.26-1.74c1.18-.08,2.4,1.54,2.75,2.39A3.79,3.79,0,0,1,117,72.7c.06.76.11,1.08.7,1.24a1.6,1.6,0,0,0,1.38-.35,4.41,4.41,0,0,1,1-.47,5.91,5.91,0,0,1,1.94-.16,4.45,4.45,0,0,0,1.93-.24l.5-.18a1.54,1.54,0,0,0,.8-.45.83.83,0,0,1,.15-.65,2.83,2.83,0,0,1,.72-.59l.15-.1.56.83-.17.11a2.4,2.4,0,0,0-.47.36.83.83,0,0,1-.15.65,2.45,2.45,0,0,1-1.27.79,3.52,3.52,0,0,0-.42.15A5.42,5.42,0,0,1,122,74a5.24,5.24,0,0,0-1.64.12,3.2,3.2,0,0,0-.77.37,2.57,2.57,0,0,1-2.15.45c-1.3-.35-1.38-1.37-1.44-2.12a3.08,3.08,0,0,0-.15-.86c-.35-.85-1.31-1.8-1.76-1.77a6.18,6.18,0,0,0-2.69,1.5,12.71,12.71,0,0,0-2.61,3.45l-.06.09c-.24.4-.51.82-.78,1.24-.49.78-1,1.58-1.36,2.3a2.78,2.78,0,0,1-1.86,1.73,22.26,22.26,0,0,0-2.18,1.14l-.46.28a9.07,9.07,0,0,1-2.05,1,6.46,6.46,0,0,1-1.09.2,4.15,4.15,0,0,0-1.26.3c-.81.39-1.6.86-2.37,1.31s-1.74,1-2.67,1.45c-.39.18-.8.35-1.2.52a9.19,9.19,0,0,0-3.11,1.76,17.31,17.31,0,0,0-1.52,1.76,20.73,20.73,0,0,1-1.45,1.7c-.32.34-.64.65-1,1a24.62,24.62,0,0,0-2.25,2.43,10.12,10.12,0,0,1-2.82,2.2c-.45.27-.89.54-1.3.83a6.13,6.13,0,0,0-.72.65A5,5,0,0,1,76,100a4.62,4.62,0,0,1-1.16.35l-.49.1a3.54,3.54,0,0,0-1.61,1.15,9.3,9.3,0,0,1-.9.86,23.68,23.68,0,0,1-2.8,2c-2,1.2-4.24,2.63-5,4.5a12,12,0,0,1-1.51,2.46A10,10,0,0,0,61,114c-.27.77-.63,1.55-1,2.37a12.76,12.76,0,0,0-1.46,4.39c0,.56-.1,1.16-.18,1.78a12,12,0,0,0-.05,3.91c.11.48.22.5.79.65a6,6,0,0,1,.67.2l.37.11c1.47.45,2.21.75,2.41,1.22s1.49.79,2,.94l.34.1c.78.23,1.48.51,2.21.8l.6.23a22.11,22.11,0,0,0,7.1,1h.33c.63,0,1.26,0,1.88,0h1a34.53,34.53,0,0,1,5.5.59c.91.15,1.81.3,2.72.41a37.56,37.56,0,0,0,4.74.17H92c1.43,0,5.06-.11,5.56-.22a1.39,1.39,0,0,0,.43-.2,3.26,3.26,0,0,1,.74-.34,14.08,14.08,0,0,1,2.33-.41,9.11,9.11,0,0,0,2.58-.53,7.62,7.62,0,0,1,2.88-.36c.38,0,.75,0,1.11,0,.93-.06,1.91-.09,3.09-.09a11.46,11.46,0,0,0,3-.52c.53-.14,1.06-.28,1.62-.38a38.82,38.82,0,0,1,5.59-.77,29.7,29.7,0,0,1,3.3.12c.81.06,1.64.13,2.45.13s1.42,0,2.13,0a23.38,23.38,0,0,1,4.79.15,13.11,13.11,0,0,1,1.64.4,10.45,10.45,0,0,0,1.9.41c1.2.08,2.34.07,3.44.07a21.34,21.34,0,0,1,4.36.26l.76.26c.1,0,.61.1,3.86,2.33.5.35,1.06.82,1.66,1.32a21.46,21.46,0,0,0,3.45,2.53l1,.51-1,.4a17.84,17.84,0,0,1-4,.89c-.69.1-1.38.2-2.06.34-1.12.23-2.51.4-4,.58a45.42,45.42,0,0,0-4.73.73,24,24,0,0,0-4.92,2.16c-.84.43-1.73.9-2.68,1.35l-.13,0A8.25,8.25,0,0,1,130.68,144.16Z" transform="translate(-42.81 -41.96)"/>
		<path d="M78.28,141.7a1,1,0,0,1-.36-.06c-2.74-.91-3.75-3.62-4.08-4.51a11.11,11.11,0,0,1-.68-5.22l1,.1a10.26,10.26,0,0,0,.62,4.77,6,6,0,0,0,3.39,3.88,5.56,5.56,0,0,0-.2-1.35c-.48-2.12-.66-5.15.3-7.32l.92.4a11.66,11.66,0,0,0-.24,6.69c.22,1,.39,2-.11,2.42A.86.86,0,0,1,78.28,141.7Z" transform="translate(-42.81 -41.96)"/><path d="M66,137a1,1,0,0,1-.55-.18,5.6,5.6,0,0,1-2-3.19,7.29,7.29,0,0,1-.07-4l.95.31a6.42,6.42,0,0,0,.07,3.36A4.81,4.81,0,0,0,65.88,136a6.74,6.74,0,0,0,.17-1c0-.16,0-.31.06-.43a5.58,5.58,0,0,1,2.22-3.41l.59.81a4.63,4.63,0,0,0-1.83,2.75c0,.12,0,.25,0,.39-.09.8-.19,1.63-.76,1.89A.66.66,0,0,1,66,137Z" transform="translate(-42.81 -41.96)"/><path d="M91.4,142.35a1.12,1.12,0,0,1-.34,0,7.78,7.78,0,0,1-3.92-4,19.89,19.89,0,0,1-1.17-5l1-.1A18.45,18.45,0,0,0,88.08,138a7.13,7.13,0,0,0,3.16,3.32,7.32,7.32,0,0,0-.13-1,3.08,3.08,0,0,1-.08-.45,12,12,0,0,1,.53-6.67l.92.41a10.93,10.93,0,0,0-.47,6.11c0,.12,0,.26.08.41.15.79.31,1.61-.16,2A.75.75,0,0,1,91.4,142.35Z" transform="translate(-42.81 -41.96)"/>
		<path d="M98.4,138.58h-.12A3.54,3.54,0,0,1,95.77,137a8.11,8.11,0,0,1-1.44-3.39l1-.19a7.28,7.28,0,0,0,1.25,3,2.61,2.61,0,0,0,1.73,1.18,4.7,4.7,0,0,0-.14-.6,4.88,4.88,0,0,1-.17-.81,9.33,9.33,0,0,1,.44-3.68l.94.32a8.26,8.26,0,0,0-.38,3.28,4,4,0,0,0,.14.64c.15.57.31,1.16,0,1.57A.89.89,0,0,1,98.4,138.58Z" transform="translate(-42.81 -41.96)"/>
		<path d="M105.24,138.41c-1.4,0-3.13-1.81-3.5-2.32a9.9,9.9,0,0,1-1.57-3.35l1-.21a8.93,8.93,0,0,0,1.4,3c.42.59,1.87,1.91,2.69,1.91.08-.07,0-.52-.11-.82a6.15,6.15,0,0,1-.21-1.15,12.72,12.72,0,0,1,.25-3.83l1,.25a11.67,11.67,0,0,0-.22,3.52,6.07,6.07,0,0,0,.18,1c.16.65.32,1.27,0,1.71A1,1,0,0,1,105.24,138.41Z" transform="translate(-42.81 -41.96)"/>
		<path d="M114.36,136.07a.66.66,0,0,1-.3-.07,6.64,6.64,0,0,1-2.48-2.13,6.55,6.55,0,0,1-1-2.55l1-.18a5.62,5.62,0,0,0,.85,2.18,5.29,5.29,0,0,0,1.74,1.6c0-.34.07-.85.08-1.13s0-.48,0-.65a9.89,9.89,0,0,1,.76-3l.93.39a8.81,8.81,0,0,0-.69,2.7c0,.16,0,.37,0,.59,0,1.17-.1,1.9-.55,2.16A.63.63,0,0,1,114.36,136.07Z" transform="translate(-42.81 -41.96)"/>
		<path d="M136.6,136.17a1.29,1.29,0,0,1-.36-.06,5.6,5.6,0,0,1-2.71-2.59,7.38,7.38,0,0,1-1.08-3.84l1,.06a6.31,6.31,0,0,0,.92,3.23c.78,1.21,1.34,1.88,2.16,2.18a5.16,5.16,0,0,0,.06-1.12c0-.16,0-.32,0-.44a9.6,9.6,0,0,1,.52-2.85l.94.34a8.55,8.55,0,0,0-.46,2.53c0,.11,0,.25,0,.39,0,.77,0,1.63-.48,2A.88.88,0,0,1,136.6,136.17Z" transform="translate(-42.81 -41.96)"/>
		<path d="M127.69,134.63h-.15a4.75,4.75,0,0,1-2.56-2.21,5.75,5.75,0,0,1-.65-2.52h1a4.71,4.71,0,0,0,.54,2.07,4.17,4.17,0,0,0,1.66,1.6c0-.16.06-.38.08-.55a6.54,6.54,0,0,1,.24-1.28,10.87,10.87,0,0,1,1.06-2.22l.85.53a9.82,9.82,0,0,0-1,2,5.53,5.53,0,0,0-.2,1.09c-.07.62-.13,1.11-.49,1.37A.77.77,0,0,1,127.69,134.63Z" transform="translate(-42.81 -41.96)"/>
		<path d="M83.76,137.05a.86.86,0,0,1-.27-.05,4,4,0,0,1-2.12-2.32,4,4,0,0,0-.12-.4,3,3,0,0,1-.12-1.65l1,.14A2.18,2.18,0,0,0,82.2,134c0,.13.09.27.13.44a3.23,3.23,0,0,0,1.3,1.54c0-.11.07-.24.1-.35a3,3,0,0,1,.33-.91,6.73,6.73,0,0,0,.33-.6,5.26,5.26,0,0,1,.77-1.24l.75.66a4.62,4.62,0,0,0-.63,1,4.93,4.93,0,0,1-.39.72,3,3,0,0,0-.2.6c-.11.46-.22.9-.59,1.1A.69.69,0,0,1,83.76,137.05Z" transform="translate(-42.81 -41.96)"/>
		<path d="M55.32,133.45H55.2a3.54,3.54,0,0,1-2.51-1.57,10.4,10.4,0,0,1-1.6-3.88l1-.19a9.55,9.55,0,0,0,1.41,3.46,2.61,2.61,0,0,0,1.73,1.18,4.7,4.7,0,0,0-.14-.6,4.83,4.83,0,0,1-.16-.81,9.71,9.71,0,0,1,.31-3.84l.94.33A8.82,8.82,0,0,0,55.9,131a5.42,5.42,0,0,0,.14.64c.15.57.31,1.16,0,1.57A.89.89,0,0,1,55.32,133.45Z" transform="translate(-42.81 -41.96)"/>
		<path d="M58.53,131.83h0a4,4,0,0,1-2.73-1.55l-.24-.35a3,3,0,0,1-.62-1.54l1-.16a2,2,0,0,0,.46,1.12l.26.38a3.14,3.14,0,0,0,1.66,1.06c0-.2-.07-.47-.1-.64a5,5,0,0,1-.1-.79,4.93,4.93,0,0,1,.45-2.07l.92.4a4,4,0,0,0-.37,1.67,3.41,3.41,0,0,0,.09.62c.11.64.22,1.24-.1,1.61A.7.7,0,0,1,58.53,131.83Z" transform="translate(-42.81 -41.96)"/>
		<path d="M51.32,133.12h-.11c-1.2-.11-2.3-1.35-3-2.28a12.12,12.12,0,0,1-1.75-4.15l1-.19A10.93,10.93,0,0,0,49,130.23a4.9,4.9,0,0,0,2.13,1.86c0-.2-.15-.48-.22-.67a6.64,6.64,0,0,1-.3-1,12.16,12.16,0,0,1,0-2.49l1,.11a11.94,11.94,0,0,0,0,2.24,4.69,4.69,0,0,0,.25.8c.25.68.48,1.32.15,1.75A.8.8,0,0,1,51.32,133.12Z" transform="translate(-42.81 -41.96)"/>
		<path d="M71.52,134.84a.67.67,0,0,1-.24,0,3.42,3.42,0,0,1-1.79-3.07l1,.15a2.59,2.59,0,0,0,.84,1.77v0a3.18,3.18,0,0,1,1-2l.64.77a2.31,2.31,0,0,0-.6,1.37c-.09.42-.16.78-.47,1A.61.61,0,0,1,71.52,134.84Z" transform="translate(-42.81 -41.96)"/>
		<path d="M65.39,153.33l-1-.06a19.56,19.56,0,0,1,.75-3.85,9.89,9.89,0,0,1,3.19-5,.74.74,0,0,1,.9-.12c.46.29.47,1,.06,2.78A16.22,16.22,0,0,0,69.2,153l-1,.3a17.24,17.24,0,0,1,.07-6.41,11,11,0,0,0,.25-1.33,9,9,0,0,0-2.45,4.18A17.93,17.93,0,0,0,65.39,153.33Z" transform="translate(-42.81 -41.96)"/>
		<path d="M109.61,148.48l-1-.12c.35-3,2.16-5.63,3.28-6.35a.81.81,0,0,1,.87-.09c.52.26.55,1,.59,1.73,0,.2,0,.39,0,.55a3.22,3.22,0,0,0,1.56,2.23l-.6.8a4.18,4.18,0,0,1-1.95-2.9c0-.17,0-.39-.05-.63a6.68,6.68,0,0,0-.06-.74A9.47,9.47,0,0,0,109.61,148.48Z" transform="translate(-42.81 -41.96)"/>
		<path d="M74.92,152.75l-1-.12a14,14,0,0,1,1-3.56,6.41,6.41,0,0,1,2.26-2.78.68.68,0,0,1,.77,0c.51.31.49,1.14.31,2.82,0,.34-.06.64-.06.81a9.81,9.81,0,0,0,.22,2.55l-1,.28a10.56,10.56,0,0,1-.26-2.83c0-.19,0-.52.07-.91s.11-1.13.11-1.59a5.84,5.84,0,0,0-1.55,2.1A12.79,12.79,0,0,0,74.92,152.75Z" transform="translate(-42.81 -41.96)"/>
		<path d="M79,152.76l-1-.14a8.91,8.91,0,0,1,3.16-5.6.72.72,0,0,1,.83-.05c.46.31.34,1,.18,1.94a6.28,6.28,0,0,0-.12.85,9.44,9.44,0,0,0,.23,2.55l-1,.28a10.21,10.21,0,0,1-.27-2.83,7.89,7.89,0,0,1,.13-1c0-.15.06-.34.09-.52A8.45,8.45,0,0,0,79,152.76Z" transform="translate(-42.81 -41.96)"/>
		<path d="M120.68,145.19l-1-.14a7.4,7.4,0,0,1,3-4.83.83.83,0,0,1,.89-.1c.45.26.43.86.41,1.45a3.48,3.48,0,0,0,0,.56,5.17,5.17,0,0,0,.59,1.48l-.87.49a5.71,5.71,0,0,1-.71-1.85,4.22,4.22,0,0,1,0-.72v-.29A6.48,6.48,0,0,0,120.68,145.19Z" transform="translate(-42.81 -41.96)"/>
		<path d="M98.32,151.24l-1-.05a8.7,8.7,0,0,1,2.75-5.82.71.71,0,0,1,.82-.11c.49.27.42,1,.32,1.93a5.71,5.71,0,0,0,0,.85,9.76,9.76,0,0,0,.4,2.53l-.94.34a10.18,10.18,0,0,1-.46-2.8,6.48,6.48,0,0,1,.06-1c0-.16,0-.35,0-.53A8.17,8.17,0,0,0,98.32,151.24Z" transform="translate(-42.81 -41.96)"/>
		<path d="M102,150.52l-1-.05a7.81,7.81,0,0,1,2.7-5.16.73.73,0,0,1,.84-.12c.46.26.4.88.31,1.67a6.27,6.27,0,0,0,0,.79,3.38,3.38,0,0,0,.57,2l-.79.62a4.11,4.11,0,0,1-.77-2.51,6.11,6.11,0,0,1,.05-1.05l0-.27A6.93,6.93,0,0,0,102,150.52Z" transform="translate(-42.81 -41.96)"/>
		<path d="M86.9,152.14a5.86,5.86,0,0,1-.4-2.2,4,4,0,0,1,.07-.56c0-.09,0-.23.06-.36a5.83,5.83,0,0,0-2.21,3l-.94-.33a6.78,6.78,0,0,1,3-3.73.77.77,0,0,1,.88,0c.45.32.33,1,.22,1.64a3.15,3.15,0,0,0-.06.39,4.93,4.93,0,0,0,.33,1.84Z" transform="translate(-42.81 -41.96)"/><path d="M88.88,152.06l-1-.2a7.93,7.93,0,0,1,2.65-4.45.73.73,0,0,1,.82-.14c.46.23.45.83.43,1.59a5,5,0,0,0,0,1c.09.44.25,1.22.38,1.73l-1,.24c-.13-.52-.3-1.32-.39-1.78a5.7,5.7,0,0,1-.06-1.26c0-.1,0-.21,0-.32A7,7,0,0,0,88.88,152.06Z" transform="translate(-42.81 -41.96)"/>
		<path d="M93.58,152l-1-.13A8.89,8.89,0,0,1,94.91,147a.73.73,0,0,1,.81-.19c.51.22.57.93.6,2,0,.22,0,.4,0,.49a3.08,3.08,0,0,1,.07.39,3.25,3.25,0,0,0,.46,1.45l-.83.56a4.16,4.16,0,0,1-.62-1.87c0-.12,0-.23,0-.32a4.34,4.34,0,0,1-.05-.67c0-.17,0-.49,0-.76A8.49,8.49,0,0,0,93.58,152Z" transform="translate(-42.81 -41.96)"/>
		<path d="M105.34,149.87a3.52,3.52,0,0,1,.94-3.46.66.66,0,0,1,.54-.09c.36.1.54.46.76.9a2.75,2.75,0,0,0,1,1.28l-.47.89a3.58,3.58,0,0,1-1.41-1.72l-.09-.16a2.94,2.94,0,0,0-.32,2Z" transform="translate(-42.81 -41.96)"/>
		<path d="M54.19,153.13l-1-.24c.76-3,3.27-5.75,4.71-5.75h0a.74.74,0,0,1,.66.32c.25.38.06.83-.2,1.44a5.37,5.37,0,0,0-.58,2.5l-1,.08a6.26,6.26,0,0,1,.66-3c0-.09.07-.19.11-.28A8.34,8.34,0,0,0,54.19,153.13Z" transform="translate(-42.81 -41.96)"/>
		<path d="M59.14,153.39a8.4,8.4,0,0,1,.54-2.48c.09-.28.24-.61.39-.95a8.74,8.74,0,0,0,.49-1.23c-.86.23-2.74,1.92-3.41,4.61l-1-.24c.75-3,3.09-5.39,4.54-5.39h0a.81.81,0,0,1,.71.36c.34.53,0,1.35-.45,2.3-.14.31-.28.61-.36.85a8.15,8.15,0,0,0-.49,2.16Z" transform="translate(-42.81 -41.96)"/>
		<path d="M63.23,153.73a6.72,6.72,0,0,1-.18-2.34l.11-.56c0-.17.09-.42.13-.66a7.33,7.33,0,0,0-1.83,3.36l-1-.29A7.33,7.33,0,0,1,63.16,149a.73.73,0,0,1,.86,0c.49.34.32,1.1.12,2.07,0,.2-.08.38-.1.52a6,6,0,0,0,.15,1.9Z" transform="translate(-42.81 -41.96)"/>
		<path d="M71.48,153.1A5,5,0,0,1,71,151a6,6,0,0,1,.06-.73c0-.25.07-.67.08-1a6.47,6.47,0,0,0-1.35,3.56l-1-.15c.36-2.35,1-3.82,2.1-4.5a.76.76,0,0,1,.83-.06c.49.31.45,1.06.32,2.26a6,6,0,0,0,0,.62,4.07,4.07,0,0,0,.36,1.68Z" transform="translate(-42.81 -41.96)"/>
		<path d="M116.33,146.46h-1c0-.8.21-2.28,1-2.78.63-.4,1.06.24,1.28.58a2.81,2.81,0,0,0,1,1l-.46.88a3.62,3.62,0,0,1-1.33-1.32l-.08-.11A3.83,3.83,0,0,0,116.33,146.46Z" transform="translate(-42.81 -41.96)"/>
	</g>
	<g class="teeth">
		<path d="M55.32,133.45H55.2a3.54,3.54,0,0,1-2.51-1.57,10.4,10.4,0,0,1-1.6-3.88l1-.19a9.55,9.55,0,0,0,1.41,3.46,2.61,2.61,0,0,0,1.73,1.18,4.7,4.7,0,0,0-.14-.6,4.83,4.83,0,0,1-.16-.81,9.71,9.71,0,0,1,.31-3.84l.94.33A8.82,8.82,0,0,0,55.9,131a5.42,5.42,0,0,0,.14.64c.15.57.31,1.16,0,1.57A.89.89,0,0,1,55.32,133.45Z" transform="translate(-42.81 -41.96)"/>
		<path d="M51.32,133.12h-.11c-1.2-.11-2.3-1.35-3-2.28a12.12,12.12,0,0,1-1.75-4.15l1-.19A10.93,10.93,0,0,0,49,130.23a4.9,4.9,0,0,0,2.13,1.86c0-.2-.15-.48-.22-.67a6.64,6.64,0,0,1-.3-1,12.16,12.16,0,0,1,0-2.49l1,.11a11.94,11.94,0,0,0,0,2.24,4.69,4.69,0,0,0,.25.8c.25.68.48,1.32.15,1.75A.8.8,0,0,1,51.32,133.12Z" transform="translate(-42.81 -41.96)"/>
		<path d="M78.28,141.7a1,1,0,0,1-.36-.06c-2.74-.91-3.75-3.62-4.08-4.51a11.11,11.11,0,0,1-.68-5.22l1,.1a10.26,10.26,0,0,0,.62,4.77,6,6,0,0,0,3.39,3.88,5.56,5.56,0,0,0-.2-1.35c-.48-2.12-.66-5.15.3-7.32l.92.4a11.66,11.66,0,0,0-.24,6.69c.22,1,.39,2-.11,2.42A.86.86,0,0,1,78.28,141.7Z" transform="translate(-42.81 -41.96)"/>
		<path d="M66,137a1,1,0,0,1-.55-.18,5.6,5.6,0,0,1-2-3.19,7.29,7.29,0,0,1-.07-4l.95.31a6.42,6.42,0,0,0,.07,3.36A4.81,4.81,0,0,0,65.88,136a6.74,6.74,0,0,0,.17-1c0-.16,0-.31.06-.43a5.58,5.58,0,0,1,2.22-3.41l.59.81a4.63,4.63,0,0,0-1.83,2.75c0,.12,0,.25,0,.39-.09.8-.19,1.63-.76,1.89A.66.66,0,0,1,66,137Z" transform="translate(-42.81 -41.96)"/>
		<path d="M91.4,142.35a1.12,1.12,0,0,1-.34,0,7.78,7.78,0,0,1-3.92-4,19.89,19.89,0,0,1-1.17-5l1-.1A18.45,18.45,0,0,0,88.08,138a7.13,7.13,0,0,0,3.16,3.32,7.32,7.32,0,0,0-.13-1,3.08,3.08,0,0,1-.08-.45,12,12,0,0,1,.53-6.67l.92.41a10.93,10.93,0,0,0-.47,6.11c0,.12,0,.26.08.41.15.79.31,1.61-.16,2A.75.75,0,0,1,91.4,142.35Z" transform="translate(-42.81 -41.96)"/>
		<path d="M98.4,138.58h-.12A3.54,3.54,0,0,1,95.77,137a8.11,8.11,0,0,1-1.44-3.39l1-.19a7.28,7.28,0,0,0,1.25,3,2.61,2.61,0,0,0,1.73,1.18,4.7,4.7,0,0,0-.14-.6,4.88,4.88,0,0,1-.17-.81,9.33,9.33,0,0,1,.44-3.68l.94.32a8.26,8.26,0,0,0-.38,3.28,4,4,0,0,0,.14.64c.15.57.31,1.16,0,1.57A.89.89,0,0,1,98.4,138.58Z" transform="translate(-42.81 -41.96)"/>
		<path d="M105.24,138.41c-1.4,0-3.13-1.81-3.5-2.32a9.9,9.9,0,0,1-1.57-3.35l1-.21a8.93,8.93,0,0,0,1.4,3c.42.59,1.87,1.91,2.69,1.91.08-.07,0-.52-.11-.82a6.15,6.15,0,0,1-.21-1.15,12.72,12.72,0,0,1,.25-3.83l1,.25a11.67,11.67,0,0,0-.22,3.52,6.07,6.07,0,0,0,.18,1c.16.65.32,1.27,0,1.71A1,1,0,0,1,105.24,138.41Z" transform="translate(-42.81 -41.96)"/>
		<path d="M114.36,136.07a.66.66,0,0,1-.3-.07,6.64,6.64,0,0,1-2.48-2.13,6.55,6.55,0,0,1-1-2.55l1-.18a5.62,5.62,0,0,0,.85,2.18,5.29,5.29,0,0,0,1.74,1.6c0-.34.07-.85.08-1.13s0-.48,0-.65a9.89,9.89,0,0,1,.76-3l.93.39a8.81,8.81,0,0,0-.69,2.7c0,.16,0,.37,0,.59,0,1.17-.1,1.9-.55,2.16A.63.63,0,0,1,114.36,136.07Z" transform="translate(-42.81 -41.96)"/>
		<path d="M136.6,136.17a1.29,1.29,0,0,1-.36-.06,5.6,5.6,0,0,1-2.71-2.59,7.38,7.38,0,0,1-1.08-3.84l1,.06a6.31,6.31,0,0,0,.92,3.23c.78,1.21,1.34,1.88,2.16,2.18a5.16,5.16,0,0,0,.06-1.12c0-.16,0-.32,0-.44a9.6,9.6,0,0,1,.52-2.85l.94.34a8.55,8.55,0,0,0-.46,2.53c0,.11,0,.25,0,.39,0,.77,0,1.63-.48,2A.88.88,0,0,1,136.6,136.17Z" transform="translate(-42.81 -41.96)"/>
		<path d="M127.69,134.63h-.15a4.75,4.75,0,0,1-2.56-2.21,5.75,5.75,0,0,1-.65-2.52h1a4.71,4.71,0,0,0,.54,2.07,4.17,4.17,0,0,0,1.66,1.6c0-.16.06-.38.08-.55a6.54,6.54,0,0,1,.24-1.28,10.87,10.87,0,0,1,1.06-2.22l.85.53a9.82,9.82,0,0,0-1,2,5.53,5.53,0,0,0-.2,1.09c-.07.62-.13,1.11-.49,1.37A.77.77,0,0,1,127.69,134.63Z" transform="translate(-42.81 -41.96)"/>
		<path d="M83.76,137.05a.86.86,0,0,1-.27-.05,4,4,0,0,1-2.12-2.32,4,4,0,0,0-.12-.4,3,3,0,0,1-.12-1.65l1,.14A2.18,2.18,0,0,0,82.2,134c0,.13.09.27.13.44a3.23,3.23,0,0,0,1.3,1.54c0-.11.07-.24.1-.35a3,3,0,0,1,.33-.91,6.73,6.73,0,0,0,.33-.6,5.26,5.26,0,0,1,.77-1.24l.75.66a4.62,4.62,0,0,0-.63,1,4.93,4.93,0,0,1-.39.72,3,3,0,0,0-.2.6c-.11.46-.22.9-.59,1.1A.69.69,0,0,1,83.76,137.05Z" transform="translate(-42.81 -41.96)"/>
		<path d="M58.53,131.83h0a4,4,0,0,1-2.73-1.55l-.24-.35a3,3,0,0,1-.62-1.54l1-.16a2,2,0,0,0,.46,1.12l.26.38a3.14,3.14,0,0,0,1.66,1.06c0-.2-.07-.47-.1-.64a5,5,0,0,1-.1-.79,4.93,4.93,0,0,1,.45-2.07l.92.4a4,4,0,0,0-.37,1.67,3.41,3.41,0,0,0,.09.62c.11.64.22,1.24-.1,1.61A.7.7,0,0,1,58.53,131.83Z" transform="translate(-42.81 -41.96)"/>
		<path d="M71.52,134.84a.67.67,0,0,1-.24,0,3.42,3.42,0,0,1-1.79-3.07l1,.15a2.59,2.59,0,0,0,.84,1.77v0a3.18,3.18,0,0,1,1-2l.64.77a2.31,2.31,0,0,0-.6,1.37c-.09.42-.16.78-.47,1A.61.61,0,0,1,71.52,134.84Z" transform="translate(-42.81 -41.96)"/>
		<path d="M65.39,153.33l-1-.06a19.56,19.56,0,0,1,.75-3.85,9.89,9.89,0,0,1,3.19-5,.74.74,0,0,1,.9-.12c.46.29.47,1,.06,2.78A16.22,16.22,0,0,0,69.2,153l-1,.3a17.24,17.24,0,0,1,.07-6.41,11,11,0,0,0,.25-1.33,9,9,0,0,0-2.45,4.18A17.93,17.93,0,0,0,65.39,153.33Z" transform="translate(-42.81 -41.96)"/>
		<path d="M109.61,148.48l-1-.12c.35-3,2.16-5.63,3.28-6.35a.81.81,0,0,1,.87-.09c.52.26.55,1,.59,1.73,0,.2,0,.39,0,.55a3.22,3.22,0,0,0,1.56,2.23l-.6.8a4.18,4.18,0,0,1-1.95-2.9c0-.17,0-.39-.05-.63a6.68,6.68,0,0,0-.06-.74A9.47,9.47,0,0,0,109.61,148.48Z" transform="translate(-42.81 -41.96)"/>
		<path d="M74.92,152.75l-1-.12a14,14,0,0,1,1-3.56,6.41,6.41,0,0,1,2.26-2.78.68.68,0,0,1,.77,0c.51.31.49,1.14.31,2.82,0,.34-.06.64-.06.81a9.81,9.81,0,0,0,.22,2.55l-1,.28a10.56,10.56,0,0,1-.26-2.83c0-.19,0-.52.07-.91s.11-1.13.11-1.59a5.84,5.84,0,0,0-1.55,2.1A12.79,12.79,0,0,0,74.92,152.75Z" transform="translate(-42.81 -41.96)"/>
		<path d="M79,152.76l-1-.14a8.91,8.91,0,0,1,3.16-5.6.72.72,0,0,1,.83-.05c.46.31.34,1,.18,1.94a6.28,6.28,0,0,0-.12.85,9.44,9.44,0,0,0,.23,2.55l-1,.28a10.21,10.21,0,0,1-.27-2.83,7.89,7.89,0,0,1,.13-1c0-.15.06-.34.09-.52A8.45,8.45,0,0,0,79,152.76Z" transform="translate(-42.81 -41.96)"/>
		<path d="M120.68,145.19l-1-.14a7.4,7.4,0,0,1,3-4.83.83.83,0,0,1,.89-.1c.45.26.43.86.41,1.45a3.48,3.48,0,0,0,0,.56,5.17,5.17,0,0,0,.59,1.48l-.87.49a5.71,5.71,0,0,1-.71-1.85,4.22,4.22,0,0,1,0-.72v-.29A6.48,6.48,0,0,0,120.68,145.19Z" transform="translate(-42.81 -41.96)"/>
		<path d="M98.32,151.24l-1-.05a8.7,8.7,0,0,1,2.75-5.82.71.71,0,0,1,.82-.11c.49.27.42,1,.32,1.93a5.71,5.71,0,0,0,0,.85,9.76,9.76,0,0,0,.4,2.53l-.94.34a10.18,10.18,0,0,1-.46-2.8,6.48,6.48,0,0,1,.06-1c0-.16,0-.35,0-.53A8.17,8.17,0,0,0,98.32,151.24Z" transform="translate(-42.81 -41.96)"/>
		<path d="M102,150.52l-1-.05a7.81,7.81,0,0,1,2.7-5.16.73.73,0,0,1,.84-.12c.46.26.4.88.31,1.67a6.27,6.27,0,0,0,0,.79,3.38,3.38,0,0,0,.57,2l-.79.62a4.11,4.11,0,0,1-.77-2.51,6.11,6.11,0,0,1,.05-1.05l0-.27A6.93,6.93,0,0,0,102,150.52Z" transform="translate(-42.81 -41.96)"/>
		<path d="M86.9,152.14a5.86,5.86,0,0,1-.4-2.2,4,4,0,0,1,.07-.56c0-.09,0-.23.06-.36a5.83,5.83,0,0,0-2.21,3l-.94-.33a6.78,6.78,0,0,1,3-3.73.77.77,0,0,1,.88,0c.45.32.33,1,.22,1.64a3.15,3.15,0,0,0-.06.39,4.93,4.93,0,0,0,.33,1.84Z" transform="translate(-42.81 -41.96)"/>
		<path d="M88.88,152.06l-1-.2a7.93,7.93,0,0,1,2.65-4.45.73.73,0,0,1,.82-.14c.46.23.45.83.43,1.59a5,5,0,0,0,0,1c.09.44.25,1.22.38,1.73l-1,.24c-.13-.52-.3-1.32-.39-1.78a5.7,5.7,0,0,1-.06-1.26c0-.1,0-.21,0-.32A7,7,0,0,0,88.88,152.06Z" transform="translate(-42.81 -41.96)"/>
		<path d="M93.58,152l-1-.13A8.89,8.89,0,0,1,94.91,147a.73.73,0,0,1,.81-.19c.51.22.57.93.6,2,0,.22,0,.4,0,.49a3.08,3.08,0,0,1,.07.39,3.25,3.25,0,0,0,.46,1.45l-.83.56a4.16,4.16,0,0,1-.62-1.87c0-.12,0-.23,0-.32a4.34,4.34,0,0,1-.05-.67c0-.17,0-.49,0-.76A8.49,8.49,0,0,0,93.58,152Z" transform="translate(-42.81 -41.96)"/>
		<path d="M105.34,149.87a3.52,3.52,0,0,1,.94-3.46.66.66,0,0,1,.54-.09c.36.1.54.46.76.9a2.75,2.75,0,0,0,1,1.28l-.47.89a3.58,3.58,0,0,1-1.41-1.72l-.09-.16a2.94,2.94,0,0,0-.32,2Z" transform="translate(-42.81 -41.96)"/>
		<path d="M54.19,153.13l-1-.24c.76-3,3.27-5.75,4.71-5.75h0a.74.74,0,0,1,.66.32c.25.38.06.83-.2,1.44a5.37,5.37,0,0,0-.58,2.5l-1,.08a6.26,6.26,0,0,1,.66-3c0-.09.07-.19.11-.28A8.34,8.34,0,0,0,54.19,153.13Z" transform="translate(-42.81 -41.96)"/>
		<path d="M59.14,153.39a8.4,8.4,0,0,1,.54-2.48c.09-.28.24-.61.39-.95a8.74,8.74,0,0,0,.49-1.23c-.86.23-2.74,1.92-3.41,4.61l-1-.24c.75-3,3.09-5.39,4.54-5.39h0a.81.81,0,0,1,.71.36c.34.53,0,1.35-.45,2.3-.14.31-.28.61-.36.85a8.15,8.15,0,0,0-.49,2.16Z" transform="translate(-42.81 -41.96)"/>
		<path d="M63.23,153.73a6.72,6.72,0,0,1-.18-2.34l.11-.56c0-.17.09-.42.13-.66a7.33,7.33,0,0,0-1.83,3.36l-1-.29A7.33,7.33,0,0,1,63.16,149a.73.73,0,0,1,.86,0c.49.34.32,1.1.12,2.07,0,.2-.08.38-.1.52a6,6,0,0,0,.15,1.9Z" transform="translate(-42.81 -41.96)"/>
		<path d="M71.48,153.1A5,5,0,0,1,71,151a6,6,0,0,1,.06-.73c0-.25.07-.67.08-1a6.47,6.47,0,0,0-1.35,3.56l-1-.15c.36-2.35,1-3.82,2.1-4.5a.76.76,0,0,1,.83-.06c.49.31.45,1.06.32,2.26a6,6,0,0,0,0,.62,4.07,4.07,0,0,0,.36,1.68Z" transform="translate(-42.81 -41.96)"/>
		<path d="M116.33,146.46h-1c0-.8.21-2.28,1-2.78.63-.4,1.06.24,1.28.58a2.81,2.81,0,0,0,1,1l-.46.88a3.62,3.62,0,0,1-1.33-1.32l-.08-.11A3.83,3.83,0,0,0,116.33,146.46Z" transform="translate(-42.81 -41.96)"/>
	</g>
	<g class="fenestra">
		<path d="M144.7,167a11.25,11.25,0,0,1-1.16-.05,29.44,29.44,0,0,1-4.41-.89l-1.25-.31c-.52-.13-1.06-.24-1.61-.35A20.59,20.59,0,0,1,131.6,164a9.54,9.54,0,0,1-3-2.18,7.54,7.54,0,0,0-.59-.55,3.27,3.27,0,0,1-1.37-2c-.52-2.75.28-4.79,2.38-6.08,2.39-1.47,6.25-1.29,7.81-1.15.65.06,1.25.1,1.85.14s.95.06,1.47.11c.95.07,3.27.08,3.3.08h1.24a11.81,11.81,0,0,0,4.24-.47,82.89,82.89,0,0,1,10-2.12l1.16-.2a29.21,29.21,0,0,1,4.58-.56l.85,0a5.49,5.49,0,0,1,3.74.84,3.33,3.33,0,0,1,1.61,2.7,4.31,4.31,0,0,1-1.73,3.46,26.91,26.91,0,0,1-3.33,2.12,23,23,0,0,0-3.55,2.31,29.18,29.18,0,0,1-8.72,4.92,24.54,24.54,0,0,1-3.78.93l-.69.13A22.41,22.41,0,0,1,144.7,167Zm-9.88-14a10.87,10.87,0,0,0-5.31,1.09c-1.73,1.07-2.36,2.71-1.92,5a2.44,2.44,0,0,0,1,1.4,7.68,7.68,0,0,1,.67.61,8.37,8.37,0,0,0,2.74,2,19.35,19.35,0,0,0,4.44,1.29c.56.12,1.11.23,1.64.36l1.27.31a28.45,28.45,0,0,0,4.26.86,18,18,0,0,0,5.22-.45l.7-.13a23.35,23.35,0,0,0,3.62-.89,28.26,28.26,0,0,0,8.43-4.75,23.61,23.61,0,0,1,3.7-2.41,25,25,0,0,0,3.2-2,3.29,3.29,0,0,0,1.35-2.62,2.38,2.38,0,0,0-1.15-1.92,4.54,4.54,0,0,0-3.16-.67l-.88,0a29.16,29.16,0,0,0-4.42.55l-1.17.2a80.11,80.11,0,0,0-9.9,2.09,12.83,12.83,0,0,1-4.54.51h-1.22c-.1,0-2.39,0-3.38-.09l-1.46-.1-1.88-.15C136.33,153.05,135.64,153,134.82,153Z" transform="translate(-42.81 -41.96)"/><path d="M112.06,110.75H111a19.74,19.74,0,0,1-6.29-.76,17.5,17.5,0,0,0-4-.75l-1.35-.15-.18,0c-1.7-.22-3.3-.42-4.45-2.13a5.11,5.11,0,0,1-.59-3.56c.25-2.84.56-6.37,2.88-8.79A11.86,11.86,0,0,1,101,92a4.64,4.64,0,0,0,1.85-1.62l.57-.68.76-.9a20.45,20.45,0,0,1,2.24-2.4,11.44,11.44,0,0,1,2.82-1.61,15.67,15.67,0,0,0,1.59-.78c.52-.3,1.06-.55,1.59-.79a14.39,14.39,0,0,0,1.57-.8c.58-.35,1.13-.64,1.67-.92s1.29-.7,2-1.14A16.61,16.61,0,0,1,120.43,79c.45-.18.9-.36,1.33-.56a7.57,7.57,0,0,1,3.21-.54,3.68,3.68,0,0,0,.92-.19,3.66,3.66,0,0,1,1.36-.22,6.11,6.11,0,0,0,1.69-.34l.38-.15.23.34a4.18,4.18,0,0,1,.17,3.67c-.09.32-.18.65-.25,1,0,.13-.05.29-.07.45a4.29,4.29,0,0,1-.3,1.27,1.47,1.47,0,0,1-1,.73l-.2.07a2.1,2.1,0,0,0-.32,1.72c.09.69.87,1.31,1.45,1.72.26.18.44.33.6.45a2.69,2.69,0,0,0,1.06.58,5.7,5.7,0,0,1,3.13,2.23,4.81,4.81,0,0,1,.75,1.76,3.86,3.86,0,0,0,.61,1.47l.08.12a11.38,11.38,0,0,1,.72,4,11,11,0,0,1-2.09,4.72c-.2.23-.43.46-.66.68a5,5,0,0,0-1.11,1.37l-.21.47a3.17,3.17,0,0,1-1.57,1.81,13.94,13.94,0,0,1-7.42,2.73l-3.34.13C117.13,110.65,114.59,110.75,112.06,110.75Zm15-32.25a3.11,3.11,0,0,0-.89.17,4.05,4.05,0,0,1-1.21.24,6.69,6.69,0,0,0-2.79.45c-.45.21-.91.39-1.38.58a16.63,16.63,0,0,0-2.59,1.23c-.73.46-1.41.83-2.06,1.18s-1.06.56-1.62.9a18.73,18.73,0,0,1-1.67.85,16.31,16.31,0,0,0-1.51.75,18.59,18.59,0,0,1-1.68.82,10.38,10.38,0,0,0-2.58,1.46A19.31,19.31,0,0,0,105,89.41c-.26.31-.52.62-.78.91l-.54.66a5.58,5.58,0,0,1-2.26,1.92,10.84,10.84,0,0,0-3.73,2.38c-2.07,2.17-2.35,5.36-2.6,8.18a4.14,4.14,0,0,0,.42,2.92c.89,1.33,2.16,1.49,3.75,1.7l.18,0,1.33.15a17.9,17.9,0,0,1,4.25.8,18.91,18.91,0,0,0,6,.7h.19c2.81,0,5.65-.09,8.4-.2,1.11,0,2.23-.1,3.35-.13a13.12,13.12,0,0,0,6.91-2.58,2.28,2.28,0,0,0,1.2-1.37l.21-.49a5.83,5.83,0,0,1,1.32-1.66c.21-.21.42-.41.6-.62A10.23,10.23,0,0,0,135,98.49a11.06,11.06,0,0,0-.62-3.45,4.82,4.82,0,0,1-.77-1.79,4.12,4.12,0,0,0-.57-1.41,4.75,4.75,0,0,0-2.67-1.9A3.61,3.61,0,0,1,129,89.2c-.14-.11-.3-.25-.55-.42a3.85,3.85,0,0,1-1.86-2.4,3,3,0,0,1,.64-2.6,1.51,1.51,0,0,1,.59-.28c.23-.07.32-.11.37-.22a3.73,3.73,0,0,0,.21-1c0-.19.05-.36.08-.52.07-.36.17-.71.26-1a3.66,3.66,0,0,0,.13-2.53,6.87,6.87,0,0,1-1.7.27Z" transform="translate(-42.81 -41.96)"/>
		<path d="M150.19,117a2.94,2.94,0,0,1-2.09-1.24,7.84,7.84,0,0,0-.7-.71,5.43,5.43,0,0,1-1.53-2.06,16.3,16.3,0,0,0-.86-1.85c-.26-.51-.52-1-.74-1.52-.12-.29-.25-.55-.37-.81a5.12,5.12,0,0,1-.74-2.61c0-.19,0-.39.05-.6a5,5,0,0,0-.09-1.94,2.12,2.12,0,0,1,.08-1.17,14.33,14.33,0,0,0,.3-4.88,8.06,8.06,0,0,1,.89-4.45,11.18,11.18,0,0,1,1-1.53,6.55,6.55,0,0,0,1.27-2.12,5.49,5.49,0,0,0,.14-.89,4.93,4.93,0,0,1,.32-1.49,2.66,2.66,0,0,0,.27-1.81,14.77,14.77,0,0,0-2.18-5.69l-.07-.09c-1.27-1.7-2.59-3.46-1.93-6a6.12,6.12,0,0,1,1.13-2c.18-.23.35-.47.51-.71A10.67,10.67,0,0,1,147,68.3a30.15,30.15,0,0,1,2.88-2.1,17.54,17.54,0,0,1,1.71-1,2.39,2.39,0,0,1,1-.33,4.11,4.11,0,0,0,1.49-.55,7.45,7.45,0,0,1,3.2-.77l.59-.06a7.82,7.82,0,0,1,4.39.61,11.4,11.4,0,0,1,3,2.51l.23.24c1.65,1.74,1.79,4.32,1.79,6.61a5.55,5.55,0,0,1-1.05,3.81c-.47.6-.94,1.24-1.42,1.88l-.65.87c-.38.51-.82,1-1.25,1.52s-1,1.23-1.5,1.86c-.11.17-.2.35-.3.53a4.56,4.56,0,0,1-.43.72,1.76,1.76,0,0,1-.83.64,2.45,2.45,0,0,0-.29.14c-1.4.84-1,2.93-.65,4.6l.11.6c0,.21.07.43.1.64a2.76,2.76,0,0,0,.52,1.58,8.91,8.91,0,0,0,2,1.64,5.47,5.47,0,0,0,2.43.83,1.85,1.85,0,0,0,1.15-.27,4,4,0,0,1,.91-.38.73.73,0,0,1,.71.08c.55.39.55,1.43.48,2.76v.17c0,.74-.1,1.46-.53,1.78a2.83,2.83,0,0,0-.69,1.06,5.44,5.44,0,0,1-.28.54,6.59,6.59,0,0,0-.28.71,4.37,4.37,0,0,1-.48,1.1,6.64,6.64,0,0,1-1.12,1.19,8.17,8.17,0,0,0-.83.84c-.51.64-1,1.23-1.55,1.79l-.58.64a19,19,0,0,1-3.32,3.14,13.84,13.84,0,0,0-1.94,1.66c-.37.35-.74.71-1.14,1a8.92,8.92,0,0,0-1.22,1.42,9.09,9.09,0,0,1-1.63,1.79A2.56,2.56,0,0,1,150.19,117Zm8.89-52.58a10.9,10.9,0,0,0-1.11.06l-.6,0a6.69,6.69,0,0,0-2.79.65,4.89,4.89,0,0,1-1.81.66,1.52,1.52,0,0,0-.66.22c-.5.24-1.22.69-1.65,1a28.26,28.26,0,0,0-2.79,2,9.63,9.63,0,0,0-1.94,2.27c-.17.26-.35.51-.54.77a5.52,5.52,0,0,0-1,1.68c-.53,2.09.54,3.51,1.77,5.17l.07.08a16.11,16.11,0,0,1,2.36,6.1,3.6,3.6,0,0,1-.33,2.39,4.34,4.34,0,0,0-.25,1.2,6.63,6.63,0,0,1-.16,1,7.16,7.16,0,0,1-1.44,2.49,11.22,11.22,0,0,0-1,1.38,7.1,7.1,0,0,0-.77,3.92,15.05,15.05,0,0,1-.33,5.19,1.53,1.53,0,0,0-.1.64,5.55,5.55,0,0,1,.13,2.31c0,.19,0,.39,0,.57a4.35,4.35,0,0,0,.63,2.12c.14.27.28.55.41.86.2.49.45,1,.7,1.45a18.57,18.57,0,0,1,.91,2,4.41,4.41,0,0,0,1.28,1.68c.26.25.52.5.77.78.88,1,1.43,1.14,2.27.48a8.12,8.12,0,0,0,1.44-1.59,9.58,9.58,0,0,1,1.37-1.58c.39-.33.74-.67,1.1-1a13.94,13.94,0,0,1,2.08-1.77,17.9,17.9,0,0,0,3.12-3l.59-.64c.52-.58,1-1.13,1.51-1.74a7.74,7.74,0,0,1,.94-1,6.34,6.34,0,0,0,1-1,4.21,4.21,0,0,0,.37-.87,4.79,4.79,0,0,1,.35-.87h0c.08-.14.16-.31.24-.48a3.58,3.58,0,0,1,1-1.44,3.15,3.15,0,0,0,.12-1v-.2a8.39,8.39,0,0,0,0-1.8,3.84,3.84,0,0,0-.6.26,2.74,2.74,0,0,1-1.66.39,6.39,6.39,0,0,1-2.85-1,9.54,9.54,0,0,1-2.33-1.87,3.66,3.66,0,0,1-.75-2.1l-.09-.59-.12-.59c-.35-1.77-.88-4.44,1.12-5.64a2.36,2.36,0,0,1,.43-.21.76.76,0,0,0,.41-.33,4.25,4.25,0,0,0,.35-.58,5.67,5.67,0,0,1,.36-.63c.48-.68,1-1.32,1.56-1.94s.84-1,1.21-1.47l.65-.87c.48-.64,1-1.29,1.44-1.89a4.7,4.7,0,0,0,.83-3.2c0-2.19-.12-4.45-1.51-5.92l-.23-.24a10.63,10.63,0,0,0-2.69-2.3A6,6,0,0,0,159.08,64.44Zm7.39,31.18h0Z" transform="translate(-42.81 -41.96)"/>
		<path d="M188,130.38a9.45,9.45,0,0,1-2-.21L185,130a38.53,38.53,0,0,1-3.83-.9l-.67-.17a9.88,9.88,0,0,1-1.06-.31,4.49,4.49,0,0,1-1-.57c-.16-.11-.33-.23-.51-.33a10.74,10.74,0,0,0-2.06-.85c-.43-.14-.85-.29-1.28-.46a7.91,7.91,0,0,1-1.35-.76,8.46,8.46,0,0,0-.91-.55,4,4,0,0,0-1.08-.35,4.17,4.17,0,0,1-2.43-1.5,9.5,9.5,0,0,0-1.11-1,3.79,3.79,0,0,1-1.93-3.49,19.42,19.42,0,0,1,.37-2.81c.08-.44.16-.88.23-1.32s.13-1.16.18-1.74a16.54,16.54,0,0,1,.55-3.44c.14-.47.27-1,.4-1.46a14.23,14.23,0,0,1,1.52-4c.1-.15.23-.3.36-.46a2.33,2.33,0,0,0,.35-.46,3.19,3.19,0,0,0,.09-1.12,5,5,0,0,1,0-1,9.19,9.19,0,0,1,.84-2.2c.69-1.42,1.33-2.77.62-3.84a1.56,1.56,0,0,1-1.54,0c-.65-.48-.55-1.5-.5-2a7.15,7.15,0,0,1,1.1-2.53l.23-.39a6,6,0,0,1,2.42-2.26l.44-.28A15.54,15.54,0,0,0,177.36,84a17.2,17.2,0,0,1,1.76-1.76,11.24,11.24,0,0,0,2.3-2.58,8.41,8.41,0,0,0,.37-.81,6.76,6.76,0,0,1,.7-1.36,5.13,5.13,0,0,1,.63-.68,3,3,0,0,0,.61-.7,7.76,7.76,0,0,0,.6-2.15,14,14,0,0,1,.36-1.61,8.31,8.31,0,0,1,2.77-4.24c2.2-1.76,6.3-2.19,8.49-.14s1.81,4.93,1.36,7.33c-.08.39-.16.77-.24,1.13-.4,1.73-.68,3,.61,4.4a3.76,3.76,0,0,0,.73.57,2.47,2.47,0,0,1,1.34,1.76,11,11,0,0,1-.22,3.9l-.2.82a22.39,22.39,0,0,0-.67,3.51c-.09,1.17-.29,2.34-.48,3.47a29.15,29.15,0,0,0-.52,4.26c-.08,4.4-.14,9.59.1,14.81a30.83,30.83,0,0,0,.73,5.07,10.24,10.24,0,0,1,0,4.46,9.07,9.07,0,0,1-2.75,3.79,7.69,7.69,0,0,0-.66.78,6.14,6.14,0,0,1-.92,1,3.73,3.73,0,0,1-1.89.67l-.51.09A18.79,18.79,0,0,1,188,130.38ZM172,94.08c1.29,1.59.37,3.52-.37,5.07a7.89,7.89,0,0,0-.76,1.93,4.45,4.45,0,0,0,0,.84,3.78,3.78,0,0,1-.16,1.51,3,3,0,0,1-.52.75,3.84,3.84,0,0,0-.28.34,13.35,13.35,0,0,0-1.39,3.76c-.13.51-.27,1-.42,1.49a14.91,14.91,0,0,0-.5,3.23c-.06.6-.11,1.21-.19,1.8s-.15.91-.24,1.36a18.59,18.59,0,0,0-.35,2.67c0,1.42.59,1.91,1.54,2.66a10.92,10.92,0,0,1,1.22,1.05,3.15,3.15,0,0,0,1.93,1.22,5.58,5.58,0,0,1,1.31.43,11.72,11.72,0,0,1,1,.61,6.28,6.28,0,0,0,1.18.67c.4.17.81.3,1.22.44a12.22,12.22,0,0,1,2.24.93,6,6,0,0,1,.59.39,4,4,0,0,0,.75.45,7,7,0,0,0,1,.26c.24.06.49.12.72.2,1.23.37,2.5.62,3.74.87l.94.18a12.32,12.32,0,0,0,5.44-.31l.55-.09a3.06,3.06,0,0,0,1.42-.47,5.1,5.1,0,0,0,.76-.86,7.27,7.27,0,0,1,.76-.89,8.26,8.26,0,0,0,2.49-3.37,9.3,9.3,0,0,0-.08-4,31.63,31.63,0,0,1-.75-5.24c-.24-5.24-.18-10.46-.1-14.87a30.53,30.53,0,0,1,.53-4.41c.19-1.11.39-2.25.48-3.38a22.48,22.48,0,0,1,.69-3.67l.2-.81a10.19,10.19,0,0,0,.2-3.51c-.09-.53-.37-.74-.9-1.08a4.59,4.59,0,0,1-.92-.74c-1.64-1.8-1.25-3.5-.85-5.29.08-.35.16-.71.23-1.09.43-2.29.64-4.84-1-6.42s-5.34-1.28-7.19.19a7.4,7.4,0,0,0-2.44,3.77,13.06,13.06,0,0,0-.33,1.48,8.11,8.11,0,0,1-.7,2.44,3.88,3.88,0,0,1-.81,1,5,5,0,0,0-.5.54,5.67,5.67,0,0,0-.59,1.15,8.19,8.19,0,0,1-.41.91A11.77,11.77,0,0,1,179.79,83a18.61,18.61,0,0,0-1.66,1.67,16.86,16.86,0,0,1-4.06,3.5l-.45.28a4.93,4.93,0,0,0-2.08,1.91l-.24.4a6.74,6.74,0,0,0-1,2.11c-.08.87,0,1.09.1,1.14s.25.06.64-.11a.83.83,0,0,1,1,.17Zm-.78.63h0Z" transform="translate(-42.81 -41.96)"/>
	</g>
</svg>