<svg xmlns="http://www.w3.org/2000/svg" viewBox="0 0 183.12 130.51">
  <defs>
    <style>
      path {
        fill: none;
        stroke: #231f20;
        stroke-miterlimit: 10;
      }
    </style>
  </defs>
  <title>Majungasaurus crenatissimus</title>
  <metadata>
        <phyloxml xmlns:xsi="http://www.w3.org/2001/XMLSchema-instance" xmlns="http://www.phyloxml.org" xsi:schemaLocation="http://www.phyloxml.org http://www.phyloxml.org/1.10/phyloxml.xsd">
            <phylogeny rooted="true" rerootable="false">
                <clade>
                    <name>Animalia</name>
                    <clade>
                        <name>Chordata</name>
                        <clade>
                            <name>Dinosauria</name>
                            <clade>
                                <name>Saurischia</name>
                                <clade>
                                    <name>Theropoda</name>
                                    <clade>
                                        <name>Abelisauria</name>
                                        <clade>
                                            <name>Abelisauridae</name>
                                            <clade>
                                                <name>Majungasaurinae</name>
                                                <clade>
                                                    <name>Majungasaurus</name>
                                                </clade>
                                            </clade>
                                        </clade>
                                    </clade>
                                </clade>
                            </clade>
                        </clade>
                    </clade>
                </clade>
            </phylogeny>
        </phyloxml>
    </metadata>
  <g class="outline">
    <path class="cls-1" d="M53.7,153a1,1,0,0,0-1.1,1,20.08,20.08,0,0,0,1.21,8.63c1.39,3.4,4.82,4.3,8.88,5.86,8.09,3.1,15,2.57,24.3,3.18.35,0,.91.06,1.67,0a23.75,23.75,0,0,0,3.67-.42h0c5.44-1.11,9.19-2.25,15-2.25,7.52,0,12.21-.06,19.4,2.12,5.35,1.62,10.35,2.76,15.94,2.05,5.93-.75,12.41-1.17,17.75-1.75,3.57-.39,7.07-2.07,10.5-3.17,3.82-1.22,5.52-2,9.5-3.5,2.06-.79,5.61-1.86,7.52-2.83,2.2-1.12,4.54-1.74,6.81-2.75,3.54-1.57,6.95-3.56,10.25-5.25a67.85,67.85,0,0,0,6.92-4.08,41.21,41.21,0,0,0,6.83-5.08c2.07-2,3.95-3.72,5.75-5.75,2.5-2.84,3.29-4.36,1.33-6.34s-5.61,1.69-7.75,1c-.51-.17.64-.92-.41-2.08a9.3,9.3,0,0,0-3-1.84c-4.4-2.32-5-5.36-8-9.5-3.51-4.89-3.38-10.49-3.5-16.33-.25-12.25-.17-15,.83-16.25,1.7-2.12,2-3.1.83-5.33-1.05-2-2.69-3.31-2.83-5.92-.16-2.91,0-5,.5-5.58,1.17-1.5,6.87,3,9.58,1,2.79-4-7-6.68-10.16-7.5-2.88-.74-6.14-.74-6.17-3.92,0-2.78.5-4.5,2.25-5,1.51-.58,4.25-2.84,2.47-4.66-2.67-2-4.91-3-7.05-4.76a10.12,10.12,0,0,0-4.67-1.75c-2.4-.48-6-.66-8,.5-3.21,1.83-3.14,3.06-5.33,6-.72,1-1.08,2-2.11,2.53-.86.43-1.85.47-2.39,1.47-.82,1.53-4.34,1.44-4.59,1.59-6.41,3.66-10.08-15.84-17.84-3.42-2.63,4.21-2.18,4-7.24,4.58-2.23.28-4.92,1.25-10.33,1.34-2.7,0-5.85.43-8.5-.09-2.49-.48-3-.16-5.75-.16a31.45,31.45,0,0,0-5.42.33,17.28,17.28,0,0,0-4,1.58c-3.92,2.59-6.83-.16-11.58,4.84-2.86,3-6.19,6.39-10.4,7.62-2.48.73-4.85,1-7,2.28-2.51,1.57-4.79,2.66-6.74,4.6S68.1,83.4,66,85.5a63.27,63.27,0,0,0-4.58,5.83c-3.31,4.24-7.09,7.42-11.25,11.67a12.3,12.3,0,0,0-2.92,5.25c-.42,2,.08,4-.24,6-.38,2.38-1.68,4.23-1.95,6.76-.21,1.87-.77,5.28,1,5.25l.86.34a11.51,11.51,0,0,0,1.64,3.95c.45.56,1.57,2,2.67,2.08.92.08,0-1.46-.16-2.28a11.6,11.6,0,0,1,0-2.36l.49-.08a9.86,9.86,0,0,0,1.51,3.66,3,3,0,0,0,2.15,1.38c.92.08.26-1.3,0-2a4.8,4.8,0,0,1,0-3.22l.49-.21A4,4,0,0,0,56.2,130a3.58,3.58,0,0,0,2.32,1.32c.55,0,.06-1.38.06-2a5.23,5.23,0,0,1,.05-.65c0-.43-.1-1.11.17-1.05a8.32,8.32,0,0,1,3.05.91,6.59,6.59,0,0,0,.7.74,2.26,2.26,0,0,0,1.24.66,7.05,7.05,0,0,0,.12,3.54,5.13,5.13,0,0,0,1.78,2.94c.76.51.79-1.09.91-1.84a5.06,5.06,0,0,1,2-3.07l1.35.26a3,3,0,0,0,1.47,2.53c.51.18.16-1.47,1.14-2.28l1,.07A10.16,10.16,0,0,0,74.3,137a6.49,6.49,0,0,0,3.78,4.22c.88.29.54-1.24.37-2a11.86,11.86,0,0,1,.29-6.91l2.8.29a3.65,3.65,0,0,0,.31,2,3.59,3.59,0,0,0,1.81,2c.52.18.6-1,.82-1.55a5.55,5.55,0,0,1,1-1.79l.94.1a19,19,0,0,0,1.14,4.87,7.37,7.37,0,0,0,3.6,3.66c.88.29.42-1.27.31-2a11.74,11.74,0,0,1,.5-6.4l2.8.1a7.51,7.51,0,0,0,1.35,3.18,3,3,0,0,0,2.15,1.38c.92.08.22-1.2.16-1.95a8.78,8.78,0,0,1,.41-3.48l1.69-.19a10.21,10.21,0,0,0,1.57,3.34c.4.57,2,2.12,3.09,2.12s.25-1.38.18-2.5a15.82,15.82,0,0,1,.23-4l5.43-.14a6,6,0,0,0,.92,2.37,6.07,6.07,0,0,0,2.28,2c.49.24.42-1.61.49-2.36a9.55,9.55,0,0,1,.72-2.85,23.51,23.51,0,0,1,9.34-.45,4,4,0,0,0,.07.77,6.48,6.48,0,0,0,.54,1.55,4.23,4.23,0,0,0,2.2,1.92c.53.1.36-1.27.69-2.24a10.79,10.79,0,0,1,1-2.12l3.57.08a15.24,15.24,0,0,0,1,3.4,5.08,5.08,0,0,0,2.45,2.38c.87.31.67-1.28.68-2a8.94,8.94,0,0,1,.49-2.69c2.32.16,4.4-.2,7.35.17a26.15,26.15,0,0,1,4.41,2.5c1.34.92,3.09,2.75,5.17,3.88-1.86.74-4,.79-6,1.21-2.43.49-8,.92-10.33,1.5s-5.39,4.33-8.74,3.3a10.14,10.14,0,0,0-5.3.39,5.93,5.93,0,0,1-.65-1.67c-.08-.65.25-2.05-.53-1.55a6.93,6.93,0,0,0-2.77,4.48l-1.83.57c-1.12-.59-1.29-1.88-1.75-1.59s-.77,1.51-.77,2.36l-1.18.37a3.71,3.71,0,0,1-1.75-2.57c-.11-.74,0-2.32-.74-1.83a9.59,9.59,0,0,0-3,6l-.77.53c-1.13-.59-1.33-2.41-1.8-2.12a3.16,3.16,0,0,0-.73,2.87l-.82.17a3.4,3.4,0,0,1-.64-2.19c-.06-.74.43-2.52-.31-2a7.35,7.35,0,0,0-2.5,4.78l-.51.08a8.85,8.85,0,0,1-.37-2.5c0-.74.45-2.85-.29-2.3a8.28,8.28,0,0,0-2.55,5.45l-1.36.13a4.67,4.67,0,0,1-.6-2c-.09-.42.07-2.63-.61-2a7.49,7.49,0,0,0-2.11,4.37l-1.42.07c-.12-.51-.29-1.31-.38-1.75-.19-.92.24-2.77-.49-2.2A7.35,7.35,0,0,0,88.38,152h-1a5.26,5.26,0,0,1-.37-2c0-.42.51-2-.29-1.56a6.91,6.91,0,0,0-2.85,3.68l-2.15.25a8.8,8.8,0,0,1-.21-2.55c0-.75.66-2.82-.12-2.32a9,9,0,0,0-2.89,5.44l-.62,0a12.39,12.39,0,0,1-.15-3c0-.75.53-3.67-.25-3.17a5.92,5.92,0,0,0-2.07,2.56,13.22,13.22,0,0,0-1,3.42l-2.48.21a4.44,4.44,0,0,1-.41-1.88c0-.66.47-2.91-.33-2.4s-1.55,2.23-1.88,4.39l-.74.12A17.51,17.51,0,0,1,68.8,147c.24-1.06.57-2.72-.16-2.16a9.35,9.35,0,0,0-3,4.77,19.36,19.36,0,0,0-.73,3.74l-1.26,0a4.75,4.75,0,0,1-.08-1.87c.11-.74.65-2.53-.12-2-.93.6-1.8,1.8-2.45,3.95H59.64a8.06,8.06,0,0,1,.52-2.32c.32-1,1.49-2.84.57-2.85-1.1,0-3.33,2.08-4.06,5l.65-1.78c-.17-2.06,1.54-3.79.62-3.8C56.84,147.63,54.44,150.08,53.7,153Z" transform="translate(-44.31 -43.46)"/>
  </g>
  <g class="teeth">
    <path class="cls-1" d="M51.58,127.9a9.86,9.86,0,0,0,1.51,3.66,3,3,0,0,0,2.15,1.38c.92.08.22-1.2.16-1.95a9.39,9.39,0,0,1,.29-3.64" transform="translate(-44.31 -43.46)"/>
    <path class="cls-1" d="M46.94,126.59a11.51,11.51,0,0,0,1.64,3.95c.45.56,1.57,2,2.67,2.08.92.08,0-1.46-.16-2.28a11.6,11.6,0,0,1,0-2.36" transform="translate(-44.31 -43.46)"/>
    <path class="cls-1" d="M73.65,132a10.93,10.93,0,0,0,.65,5,6.49,6.49,0,0,0,3.78,4.22c.88.29.54-1.24.37-2a12.16,12.16,0,0,1,.27-7" transform="translate(-44.31 -43.46)"/>
    <path class="cls-1" d="M63.85,129.84a7,7,0,0,0,.06,3.67,5.13,5.13,0,0,0,1.78,2.94c.76.51.79-1.09.91-1.84a5.06,5.06,0,0,1,2-3.07" transform="translate(-44.31 -43.46)"/>
    <path class="cls-1" d="M86.47,133.29a19,19,0,0,0,1.14,4.87,7.37,7.37,0,0,0,3.6,3.66c.88.29.42-1.27.31-2a11.74,11.74,0,0,1,.5-6.4" transform="translate(-44.31 -43.46)"/>
    <path class="cls-1" d="M94.82,133.51a7.51,7.51,0,0,0,1.35,3.18,3,3,0,0,0,2.15,1.38c.92.08.22-1.2.16-1.95a8.78,8.78,0,0,1,.41-3.48" transform="translate(-44.31 -43.46)"/>
    <path class="cls-1" d="M100.66,132.63a9.35,9.35,0,0,0,1.49,3.16c.4.57,2,2.12,3.09,2.12s.25-1.38.18-2.5a12.78,12.78,0,0,1,.23-3.67" transform="translate(-44.31 -43.46)"/>
    <path class="cls-1" d="M111.08,131.23a6,6,0,0,0,.92,2.37,6.07,6.07,0,0,0,2.28,2c.49.24.42-1.61.49-2.36a9.55,9.55,0,0,1,.72-2.85" transform="translate(-44.31 -43.46)"/>
    <path class="cls-1" d="M133,129.71a6.91,6.91,0,0,0,1,3.54,5.08,5.08,0,0,0,2.45,2.38c.87.31.67-1.28.68-2a8.94,8.94,0,0,1,.49-2.69" transform="translate(-44.31 -43.46)"/>
    <path class="cls-1" d="M124.83,129.89a5.14,5.14,0,0,0,.61,2.32,4.23,4.23,0,0,0,2.2,1.92c.53.1.36-1.27.69-2.24a10.79,10.79,0,0,1,1-2.12" transform="translate(-44.31 -43.46)"/>
    <path class="cls-1" d="M81.63,132.7a3.2,3.2,0,0,0,.22,1.85,3.59,3.59,0,0,0,1.81,2c.52.18.49-1.06.82-1.55a12.49,12.49,0,0,1,1-1.79" transform="translate(-44.31 -43.46)"/>
    <path class="cls-1" d="M55.41,128.31a3.21,3.21,0,0,0,.79,1.7,3.58,3.58,0,0,0,2.32,1.32c.55,0,.06-1.38.06-2a4.47,4.47,0,0,1,.41-1.87" transform="translate(-44.31 -43.46)"/>
    <path class="cls-1" d="M70,131.8a3,3,0,0,0,1.47,2.53c.51.18.16-1.47,1.14-2.28" transform="translate(-44.31 -43.46)"/>
    <path class="cls-1" d="M64.89,153.3a19.36,19.36,0,0,1,.73-3.74,9.35,9.35,0,0,1,3-4.77c.73-.56.4,1.1.16,2.16a16.52,16.52,0,0,0-.08,6.15" transform="translate(-44.31 -43.46)"/>
    <path class="cls-1" d="M109.11,148.42a9.59,9.59,0,0,1,3-6c.78-.49.63,1.09.74,1.83a3.71,3.71,0,0,0,1.75,2.57" transform="translate(-44.31 -43.46)"/>
    <path class="cls-1" d="M74.42,152.69a13.22,13.22,0,0,1,1-3.42,5.92,5.92,0,0,1,2.07-2.56c.78-.5.25,2.42.25,3.17a10.18,10.18,0,0,0,.24,2.69" transform="translate(-44.31 -43.46)"/>
    <path class="cls-1" d="M78.45,152.69a8.46,8.46,0,0,1,2.93-5.25c.78-.5.12,1.57.12,2.32a9.82,9.82,0,0,0,.25,2.69" transform="translate(-44.31 -43.46)"/>
    <path class="cls-1" d="M120.18,145.12a6.93,6.93,0,0,1,2.77-4.48c.78-.5.45.9.53,1.55a5.93,5.93,0,0,0,.65,1.67" transform="translate(-44.31 -43.46)"/>
    <path class="cls-1" d="M97.82,151.22a8.28,8.28,0,0,1,2.55-5.45c.74-.55.24,1.56.29,2.3a10.2,10.2,0,0,0,.43,2.67" transform="translate(-44.31 -43.46)"/>
    <path class="cls-1" d="M101.54,150.49a7.35,7.35,0,0,1,2.5-4.78c.74-.55.25,1.23.31,2A3.78,3.78,0,0,0,105,150" transform="translate(-44.31 -43.46)"/>
    <path class="cls-1" d="M84,151.84a6.19,6.19,0,0,1,2.76-3.46c.8-.46.29,1.14.29,1.56a5.26,5.26,0,0,0,.37,2" transform="translate(-44.31 -43.46)"/>
    <path class="cls-1" d="M88.38,152a7.35,7.35,0,0,1,2.47-4.15c.73-.57.3,1.28.49,2.2.09.44.26,1.24.38,1.75" transform="translate(-44.31 -43.46)"/>
    <path class="cls-1" d="M93.09,152a8.35,8.35,0,0,1,2.16-4.63c.68-.62.52,1.59.61,2a4.67,4.67,0,0,0,.6,2" transform="translate(-44.31 -43.46)"/>
    <path class="cls-1" d="M105.81,149.7a3.16,3.16,0,0,1,.73-2.87c.47-.29.67,1.53,1.8,2.12" transform="translate(-44.31 -43.46)"/>
    <path class="cls-1" d="M53.7,153c.74-2.93,3.14-5.38,4.24-5.37.92,0-.79,1.74-.62,3.8" transform="translate(-44.31 -43.46)"/>
    <path class="cls-1" d="M56.67,153.22c.73-2.93,3-5,4.06-5,.92,0-.25,1.87-.57,2.85a8.06,8.06,0,0,0-.52,2.32" transform="translate(-44.31 -43.46)"/>
    <path class="cls-1" d="M61,153.38c.65-2.15,1.52-3.35,2.45-3.95.77-.49.23,1.3.12,2a6.42,6.42,0,0,0,.16,2.12" transform="translate(-44.31 -43.46)"/>
    <path class="cls-1" d="M69.33,152.77c.32-2.15,1-3.55,1.87-4.15s.33,1.74.33,2.4a4.44,4.44,0,0,0,.41,1.88" transform="translate(-44.31 -43.46)"/>
    <path class="cls-1" d="M115.83,146.46c0-.85.24-2,.77-2.36s.63,1,1.75,1.59" transform="translate(-44.31 -43.46)"/>
  </g>
  <g class="skull">
    <path class="base" d="M217.67,131.67a9.3,9.3,0,0,0-3-1.84c-4.4-2.32-5-5.36-8-9.5-3.51-4.89-3.38-10.49-3.5-16.33-.25-12.25-.17-15,.83-16.25,1.7-2.12,2-3.1.83-5.33-1.05-2-2.69-3.31-2.83-5.92-.16-2.91,0-5,.5-5.58,1.17-1.5,6.87,3,9.58,1,2.79-4-7-6.68-10.16-7.5-2.88-.74-6.14-.74-6.17-3.92,0-2.78.5-4.5,2.25-5,1.51-.58,4.25-2.84,2.47-4.66-2.67-2-4.91-3-7.05-4.76a10.12,10.12,0,0,0-4.67-1.75c-2.4-.48-6-.66-8,.5-3.21,1.83-3.14,3.06-5.33,6-.72,1-1.08,2-2.11,2.53-.86.43-1.85.47-2.39,1.47-.82,1.53-4.34,1.44-4.59,1.59-6.41,3.66-10.08-15.84-17.84-3.42-2.63,4.21-2.18,4-7.24,4.58-2.23.28-4.92,1.25-10.33,1.34-2.7,0-5.85.43-8.5-.09-2.49-.48-3-.16-5.75-.16a31.45,31.45,0,0,0-5.42.33,17.28,17.28,0,0,0-4,1.58c-3.92,2.59-6.83-.16-11.58,4.84-2.86,3-6.19,6.39-10.4,7.62-2.48.73-4.85,1-7,2.28-2.51,1.57-4.79,2.66-6.74,4.6S68.1,83.4,66,85.5a63.27,63.27,0,0,0-4.58,5.83c-3.31,4.24-7.09,7.42-11.25,11.67a12.3,12.3,0,0,0-2.92,5.25c-.42,2,.08,4-.24,6-.38,2.38-1.68,4.23-1.95,6.76-.21,1.87-.77,5.28,1,5.25a11.93,11.93,0,0,0,2.45.81,5.91,5.91,0,0,1,1.37.57,6.14,6.14,0,0,0,2.77.2,8.35,8.35,0,0,0,3-.48c.58-.3,1.06-.86,1.81-.85.24,1,1.11,1,2.09,1.29.44.15,2.3.63,2.48,1.06.32.73,1.94,1.09,2.71,1.32,1,.29,1.83.65,2.77,1a23.61,23.61,0,0,0,7.6,1.06c.94,0,1.9,0,2.85,0a68.08,68.08,0,0,1,8.16,1,49.75,49.75,0,0,0,5.86.16c1.26,0,5.07-.09,5.67-.22s.63-.38,1.2-.55c1.67-.49,3.38-.31,5-.95a12.2,12.2,0,0,1,3.83-.36c1-.06,2-.08,3.06-.08a24.18,24.18,0,0,0,4.75-.91,38.35,38.35,0,0,1,5.52-.76c1.95-.07,3.82.24,5.73.25a44.62,44.62,0,0,1,6.84.1c1.27.21,2.38.73,3.59.81,3,.21,5.65-.12,7.73.33l.69.25a21.9,21.9,0,0,1,3.74,2.26c1.34.92,2.53,2.59,4.61,3.72.71.33,2.6.24,3.3.47a8.73,8.73,0,0,1,1.51.72c.32.18.61.57.91.75a6.2,6.2,0,0,0,1.83.36c3.31.61,6.57,0,9.82-.45,1.09-.16,2.1-.29,3.19-.48a38.16,38.16,0,0,1,4.42-.17,45.24,45.24,0,0,1,10.42,1.11c2.15.37,5.1.66,7.16-.09a18.76,18.76,0,0,0,3.23-2.19,4.33,4.33,0,0,1,2.83-.83,4.87,4.87,0,0,1,2.92.43,5.85,5.85,0,0,0,3,1,19.53,19.53,0,0,0,3-.14,8.23,8.23,0,0,0,2.91-1.09,4.54,4.54,0,0,0,2.18-1.5,5.77,5.77,0,0,1,1.17-1.5A1.34,1.34,0,0,0,217.67,131.67ZM70.06,103.06c-.75.41-1.23,1.19-2.07,1.46a9.83,9.83,0,0,1-2.92.06,21.71,21.71,0,0,1-3.12-.32c-1.43-.29-1.91-.73-2-2.16a3.42,3.42,0,0,1,.63-2.58c.71-1,1.84-1.06,2.64-1.83l.15-.1c1-.51.54-.84,1.75-.76s2.07,1.3,3.14.32c.76-.7.34-1.41,1.58-1.57a4.37,4.37,0,0,1,2.19.18,4.3,4.3,0,0,1,1.59,1.92c.25.89-.19,1.56.35,2.42A16.06,16.06,0,0,1,70.06,103.06Zm65.44-4.5a10.55,10.55,0,0,1-2,4.46,10.33,10.33,0,0,0-1.84,2.17c-.51,1.11-.44,1.33-1.6,2.07a13.6,13.6,0,0,1-7.16,2.65c-3.94.14-7.83.38-11.77.34a19.74,19.74,0,0,1-6.32-.73,26.48,26.48,0,0,0-5.49-.93c-1.73-.22-3.22-.36-4.27-1.93a4.65,4.65,0,0,1-.51-3.24c.26-2.94.58-6.23,2.74-8.49a11.54,11.54,0,0,1,3.91-2.5c1.16-.46,1.71-1.42,2.61-2.44a31.23,31.23,0,0,1,3-3.24c1.23-1.06,2.94-1.53,4.33-2.34,1-.59,2.19-1,3.17-1.59,1.28-.77,2.38-1.25,3.67-2.07a31.67,31.67,0,0,1,4-1.84,7.13,7.13,0,0,1,3-.5c.85,0,1.4-.47,2.25-.41a6.35,6.35,0,0,0,1.9-.38c.91,1.42.17,2.76-.14,4.29a7.23,7.23,0,0,1-.33,1.59c-.26.52-.81.41-1.07.66a2.53,2.53,0,0,0-.49,2.15,3.49,3.49,0,0,0,1.66,2.07,5.24,5.24,0,0,0,1.78,1.09,5.26,5.26,0,0,1,2.91,2.06c.7.92.62,2.36,1.37,3.25A11.13,11.13,0,0,1,135.5,98.56Zm29.16,4c-.49.73-1.37,1.3-1.93,2s-1.23,1.42-1.86,2.12a19.63,19.63,0,0,1-3.48,3.34,33.72,33.72,0,0,0-3.12,2.75c-1.09.94-1.65,2.28-2.83,3.19s-2.11.44-3-.55-1.68-1.41-2.14-2.62-1.12-2.25-1.61-3.39-1.12-2-1.07-3.2a7.2,7.2,0,0,0-.08-2.74c-.16-.74.72-1.45.42-5.9a7.63,7.63,0,0,1,.83-4.19c.65-1.22,2-2.44,2.36-3.76a14.8,14.8,0,0,1,.43-2.3,3.17,3.17,0,0,0,.3-2.1,15.5,15.5,0,0,0-2.27-5.9c-1.29-1.72-2.52-3.31-1.92-5.67a9.9,9.9,0,0,1,1.58-2.6,10.18,10.18,0,0,1,2-2.39,29.81,29.81,0,0,1,2.84-2.07,17.23,17.23,0,0,1,1.65-1c.66-.44,1.13-.11,2.49-.9a8.78,8.78,0,0,1,3.59-.76,7.44,7.44,0,0,1,4.12.56,12.11,12.11,0,0,1,3.06,2.65c1.53,1.61,1.65,4.06,1.65,6.26a5.2,5.2,0,0,1-.94,3.51c-.69.87-1.38,1.83-2.08,2.75-.86,1.14-1.93,2.21-2.76,3.4-.27.39-.43.85-.72,1.22s-.55.4-1,.66c-1.9,1.14-1.09,3.94-.77,5.72a4.67,4.67,0,0,0,.73,2.45,9,9,0,0,0,2.18,1.76,6.09,6.09,0,0,0,2.65.89c1.12.06,1.28-.41,2.22-.67.72-.3.59,1.6.55,2.5,0,.36,0,1.19-.33,1.4a5.43,5.43,0,0,0-1.1,1.77C165.12,101.33,165,102.13,164.66,102.6ZM199,87a28.93,28.93,0,0,0-.87,4.41c-.2,2.6-.95,5.16-1,7.76-.09,4.93-.12,9.93.1,14.84a30.88,30.88,0,0,0,.74,5.15,10,10,0,0,1,.07,4.21,8.6,8.6,0,0,1-2.63,3.58c-.54.51-1,1.35-1.54,1.78a4.93,4.93,0,0,1-2.19.66,12.92,12.92,0,0,1-5.64.31c-1.57-.32-3.17-.59-4.73-1.07-.54-.16-1.16-.26-1.69-.47a10.23,10.23,0,0,1-1.42-.87,27.88,27.88,0,0,0-3.4-1.33c-.83-.34-1.44-.91-2.23-1.3a4.88,4.88,0,0,0-1.19-.39,3.63,3.63,0,0,1-2.18-1.36c-1.38-1.44-3-1.75-2.9-4.08a37.11,37.11,0,0,1,.59-4.08,32.74,32.74,0,0,1,.72-5.11c.54-1.76.87-3.84,1.86-5.37a7.67,7.67,0,0,0,.75-1,11.15,11.15,0,0,0,.16-2.25c.34-1.94,2.85-4.61,1.24-6.6-.07-.1-.27-.08-.38,0-1.59.67-1.51-.73-1.44-1.54a9,9,0,0,1,1.27-2.71,6.59,6.59,0,0,1,2.7-2.37,16.36,16.36,0,0,0,3.95-3.39c1.22-1.49,3.19-2.74,4.11-4.42a17.13,17.13,0,0,1,1-2.11c.38-.53,1-.86,1.28-1.45.59-1.08.61-2.66,1-3.83a7.9,7.9,0,0,1,2.6-4c2-1.58,5.79-2.08,7.84-.17,1.89,1.77,1.64,4.58,1.2,6.88s-1.26,4,.5,6c.71.78,1.75.87,1.94,2.07A10.22,10.22,0,0,1,199,87Z" transform="translate(-44.31 -43.46)"/>
    <path class="base" d="M225.83,132.75c-1.91-1.91-5.42,1.56-7.55.87-.69-.06-1.27.94-1.67,1.55a4.54,4.54,0,0,1-2.18,1.5,8.23,8.23,0,0,1-2.91,1.09,19.53,19.53,0,0,1-3,.14,5.85,5.85,0,0,1-3-1,4.87,4.87,0,0,0-2.92-.43,4.33,4.33,0,0,0-2.83.83,18.76,18.76,0,0,1-3.23,2.19c-2.06.75-5,.46-7.16.09a45.24,45.24,0,0,0-10.42-1.11,38.16,38.16,0,0,0-4.42.17c-1.09.19-2.1.32-3.19.48-3.25.48-6.51,1.06-9.82.45a6.2,6.2,0,0,1-1.83-.36c-.3-.18-.59-.57-.91-.75a8.73,8.73,0,0,0-1.51-.72c-.7-.23-2.59-.14-3.3-.47a29.67,29.67,0,0,1-5.44,1.37c-2.43.49-6.37.74-8.73,1.32s-4.64,2.08-7.7,3.54c-2.68.49-3.78-.61-6.47,0-.79.21-2.49,1-3.26,1.22-1.07.33-2.19.39-3.29.71-.92.28-1.83.8-2.77,1a45.88,45.88,0,0,0-5.36,1.57,20.67,20.67,0,0,0-2.55,1A13.79,13.79,0,0,1,105,150c-1.76.37-3.52.66-5.33.93a52.66,52.66,0,0,1-7.36.89c-2.31,0-4.61.31-6.91.34a16.71,16.71,0,0,0-4.94.56c-2.24.71-5.19-.14-7.57.21-2.58.37-5.12.22-7.66.49-4.14.43-12.33-.74-12.53.08a22.39,22.39,0,0,0,1.09,9.16c1.3,3.18,6.07,4.81,8.88,5.86,8.09,3,17,3.22,26,3.22-.09,0,3.76-.42,3.67-.42,5.44-1.11,9.19-2.25,15-2.25,7.52,0,12.21-.06,19.4,2.12,5.35,1.62,10.35,2.76,15.94,2.05,5.93-.75,12.41-1.17,17.75-1.75,3.57-.39,7.07-2.07,10.5-3.17,3.82-1.22,5.52-2,9.5-3.5,2.06-.79,5.61-1.86,7.52-2.83,2.2-1.12,4.54-1.74,6.81-2.75,3.54-1.57,6.95-3.56,10.25-5.25a67.85,67.85,0,0,0,6.92-4.08,41.21,41.21,0,0,0,6.83-5.08c2.07-2,3.95-3.72,5.75-5.75C227,136.25,227.79,134.73,225.83,132.75Zm-57,22.92c-2.21,1.72-4.71,2.62-6.89,4.43a28.47,28.47,0,0,1-8.58,4.84,29.45,29.45,0,0,1-4.39,1,19,19,0,0,1-5.37.46,40.54,40.54,0,0,1-5.59-1.19,30.91,30.91,0,0,1-6.19-1.68,8.76,8.76,0,0,1-2.88-2.07c-.73-.76-1.62-1.16-1.83-2.27-.45-2.39.12-4.31,2.15-5.56s5.23-1.29,7.5-1.09c1.17.11,2.15.16,3.33.25,1,.08,3.34.09,3.34.09,2.38,0,3.38.18,5.62-.48a82.69,82.69,0,0,1,10-2.11,40.2,40.2,0,0,1,5.67-.75c1.77,0,2.79-.27,4.31.73C171.09,151.7,170.6,154.28,168.82,155.67Z" transform="translate(-44.31 -43.46)"/>
    <path class="cls-1" d="M153.94,137.3c.71.33,2.6.24,3.3.47a8.73,8.73,0,0,1,1.51.72c.32.18.61.57.91.75a6.2,6.2,0,0,0,1.83.36c3.31.61,6.57,0,9.82-.45,1.09-.16,2.1-.29,3.19-.48a38.16,38.16,0,0,1,4.42-.17,45.24,45.24,0,0,1,10.42,1.11c2.15.37,5.1.66,7.16-.09a18.76,18.76,0,0,0,3.23-2.19,4.33,4.33,0,0,1,2.83-.83,4.87,4.87,0,0,1,2.92.43,5.85,5.85,0,0,0,3,1,19.53,19.53,0,0,0,3-.14,8.23,8.23,0,0,0,2.91-1.09,4.54,4.54,0,0,0,2.18-1.5,4.92,4.92,0,0,1,1.14-1.34" transform="translate(-44.31 -43.46)"/>
    <path class="cls-1" d="M131,143.9c-.48,1.19-1.32,1.34-2.3,1.91s-2.53,1.69-1.35,2.9c.76.78,2,.41,2.92.33a6.68,6.68,0,0,1,3.08.38c1.34.5,1.48,1.39,1.6,2.75" transform="translate(-44.31 -43.46)"/>
    <path class="cls-1" d="M169.06,155.5a5.7,5.7,0,0,0,3-1.29,31.51,31.51,0,0,1,3.28-2.12c2.38-1.31,5.13-1.06,7.85-.57,3.06.55,5.9,1.49,9.06,1.48,2.36,0,4.86.71,7.16-.08,2.51-.87,4-3,6.59-3.84a22.28,22.28,0,0,1,6.56-.5c1.49,0,3.44-1.85,4.45-3,1.59-1.75,1.11-4.31,1-6.53,0-.42,0-.84,0-1.26" transform="translate(-44.31 -43.46)"/>
    <path class="cls-1" d="M158.72,138.47a6.5,6.5,0,0,1-.72,3c-.36.54-.86.68-1.25,1.17" transform="translate(-44.31 -43.46)"/>
    <path class="cls-1" d="M132.58,58.91c.22,1.15-1.17,1.63-1.83,2.27s-1.27,1.72-2,2.46a6.76,6.76,0,0,0-1.86,2.67,15.09,15.09,0,0,0-.1,4.09,6.6,6.6,0,0,0,.48,3.1c.3.52.58.65.8,1.23a12.89,12.89,0,0,0,1.22,2.54c.91,1.41,0,3.11-.27,4.64a7.23,7.23,0,0,1-.33,1.59c-.26.52-.81.41-1.07.66a2.53,2.53,0,0,0-.49,2.15,3.49,3.49,0,0,0,1.66,2.07,5.24,5.24,0,0,0,1.78,1.09,5.26,5.26,0,0,1,2.91,2.06c.7.92.62,2.36,1.37,3.25a8.66,8.66,0,0,1,1.42,2,24.56,24.56,0,0,0,2.27,3.86c1,1.35,1.27,3.42,3.06,3.49,3.12.11,2.41-4.38,2.44-6.49a8.84,8.84,0,0,1,.83-4.19c.65-1.22,2-2.44,2.36-3.76a14.8,14.8,0,0,1,.43-2.3,3.17,3.17,0,0,0,.3-2.1,15.5,15.5,0,0,0-2.27-5.9c-1.29-1.72-2.52-3.31-1.92-5.67a9.9,9.9,0,0,1,1.58-2.6,10.18,10.18,0,0,1,2-2.39,29.81,29.81,0,0,1,2.84-2.07c.45-.29,1.34-.63,1.56-1.12.14-.29-.08-1.11,0-1.5a5.23,5.23,0,0,1,.93-1.91c1.11-1.78-.66-3.09-2.09-4.15a8.53,8.53,0,0,0-4.77-1.26" transform="translate(-44.31 -43.46)"/>
    <path class="cls-1" d="M112.25,110.33a16.47,16.47,0,0,1,5.15,1.82c1,.66,1.66,1.64,2.83,2.17,1.74.79,3.54,1.25,5.26,2.15a4.32,4.32,0,0,1,1.09.67c.39.41.2.43.44.86a5.38,5.38,0,0,0,1.32,1.89c1.34,1,2.77,1.86,4.16,2.72s2.95,1.28,4.31,2a40.81,40.81,0,0,0,4.18,1.72,9.14,9.14,0,0,1,2.8,2.12c.44.41.83.56,1.06,1.16s.22.75.38,1.25" transform="translate(-44.31 -43.46)"/>
    <path class="cls-1" d="M129.12,77.62a6.35,6.35,0,0,1-1.9.38c-.85-.06-1.4.4-2.25.41a7.13,7.13,0,0,0-3,.5,31.67,31.67,0,0,0-4,1.84c-1.29.82-2.39,1.3-3.67,2.07-1,.59-2.13,1-3.17,1.59-1.39.81-3.1,1.28-4.33,2.34a31.23,31.23,0,0,0-3,3.24c-.9,1-1.45,2-2.61,2.44a11.54,11.54,0,0,0-3.91,2.5c-2.16,2.26-2.48,5.55-2.74,8.49a4.65,4.65,0,0,0,.51,3.24c1.05,1.57,2.54,1.71,4.27,1.93a26.48,26.48,0,0,1,5.49.93,19.74,19.74,0,0,0,6.32.73c3.94,0,7.83-.2,11.77-.34a13.6,13.6,0,0,0,7.16-2.65c1.16-.74,1.09-1,1.6-2.07a10.33,10.33,0,0,1,1.84-2.17,10.55,10.55,0,0,0,2-4.46,11.13,11.13,0,0,0-.69-3.78" transform="translate(-44.31 -43.46)"/>
    <path class="cls-1" d="M130.92,89.66A5.48,5.48,0,0,1,133.67,87" transform="translate(-44.31 -43.46)"/>
    <path class="cls-1" d="M138.83,70c1.85.58,2.53-.27,3.41-1.58a5.36,5.36,0,0,1,1-1.44c.45-.34,1.21-.12,1.43-.57" transform="translate(-44.31 -43.46)"/>
    <path class="cls-1" d="M151.67,65.5c.77.37,2-.37,2.66-.74a9.16,9.16,0,0,1,3.59-.76,7.44,7.44,0,0,1,4.12.56,12.11,12.11,0,0,1,3.06,2.65c1.53,1.61,1.65,4.06,1.65,6.26a5.2,5.2,0,0,1-.94,3.51c-.69.87-1.38,1.83-2.08,2.75-.86,1.14-1.93,2.21-2.76,3.4-.27.39-.43.85-.72,1.22s-.55.4-1,.66c-1.9,1.14-1.09,3.94-.77,5.72a4.67,4.67,0,0,0,.73,2.45,9,9,0,0,0,2.18,1.76,6.09,6.09,0,0,0,2.65.89c1.12.06,1.28-.41,2.22-.67.72-.3.59,1.6.55,2.5a7.32,7.32,0,0,1-.33,1.4c-.12.39-.63.55-.66,1" transform="translate(-44.31 -43.46)"/>
    <path class="cls-1" d="M66.08,85.83c0,1.16.25,2.21.25,3.35a3.2,3.2,0,0,1-1.08,2.56c-1.16,1.38-2,3.63-1.13,5.38" transform="translate(-44.31 -43.46)"/>
    <path class="cls-1" d="M99.41,108.66c-1.26-.46-2.82.07-4.15-.37a42.1,42.1,0,0,1-4.06-1.71,6.93,6.93,0,0,1-3.56-2.94,6.6,6.6,0,0,1-.31-2.81" transform="translate(-44.31 -43.46)"/>
    <path class="cls-1" d="M88.92,96.83c.28-.7.11-1.26.68-1.92.38-.43.85-.79,1.23-1.25" transform="translate(-44.31 -43.46)"/>
    <path class="cls-1" d="M94.5,90.08c.39-.67,2-1.32,2.73-2a13.29,13.29,0,0,0,1.42-1.26c.63-.78,1.37-1.65,2-2.43" transform="translate(-44.31 -43.46)"/>
    <path class="cls-1" d="M105.47,79.5c1-.24,2.13-.85,3.25-1s2.11.06,3.07-.44a9.72,9.72,0,0,0,2.62-2,6.2,6.2,0,0,1,2.28-2.13" transform="translate(-44.31 -43.46)"/>
    <path class="cls-1" d="M143.58,103.5a7.2,7.2,0,0,1,.08,2.74c0,1.24.59,2.07,1.07,3.2s1.17,2.21,1.61,3.39,1.38,1.74,2.14,2.62,1.7,1.52,3,.55,1.74-2.25,2.83-3.19a33.72,33.72,0,0,1,3.12-2.75,19.63,19.63,0,0,0,3.48-3.34c.63-.7,1.25-1.36,1.86-2.12s1.44-1.27,1.93-2c.32-.47.46-1.27.74-1.77,1.43-2.63,5.82-7.1,6.19-6.46,1.89,2-.83,4.64-1.18,6.63a11.15,11.15,0,0,1-.16,2.25,7.67,7.67,0,0,1-.75,1c-1,1.53-1.32,3.61-1.86,5.37a32.74,32.74,0,0,0-.72,5.11,37.11,37.11,0,0,0-.59,4.08c-.07,2.33,1.52,2.64,2.9,4.08a3.63,3.63,0,0,0,2.18,1.36,4.88,4.88,0,0,1,1.19.39c.79.39,1.4,1,2.23,1.3a27.88,27.88,0,0,1,3.4,1.33,10.23,10.23,0,0,0,1.42.87c.53.21,1.15.31,1.69.47,1.56.48,3.16.75,4.73,1.07a12.92,12.92,0,0,0,5.64-.31,4.93,4.93,0,0,0,2.19-.66c.53-.43,1-1.27,1.54-1.78a8.6,8.6,0,0,0,2.63-3.58,9.86,9.86,0,0,0-.07-4.19,36.39,36.39,0,0,1-.77-5.89c-.19-4.68-.16-9.43-.07-14.12.06-2.6.81-5.16,1-7.76A28.93,28.93,0,0,1,199,87a10.22,10.22,0,0,0,.21-3.7c-.19-1.2-1.23-1.29-1.94-2.07-1.76-1.94-.93-3.64-.5-6s.69-5.11-1.2-6.88c-2.05-1.91-5.85-1.41-7.84.17a7.9,7.9,0,0,0-2.6,4c-.39,1.17-.41,2.75-1,3.83-.32.59-.9.92-1.28,1.45a17.13,17.13,0,0,0-1,2.11c-.92,1.68-2.89,2.93-4.11,4.42a16.36,16.36,0,0,1-3.95,3.39,6.59,6.59,0,0,0-2.7,2.37,9,9,0,0,0-1.27,2.71c-.07.84,0,2,1.08,1.76" transform="translate(-44.31 -43.46)"/>
    <path class="cls-1" d="M178.06,138.53A7.18,7.18,0,0,0,175,136c-.76-.29-1.64-.84-2.38-1.12-1.45-.57-2.94-1.09-4.37-1.72-1.91-.85-4.13-2.62-3.94-4.85.11-.49.92-1,1.53-1.12a6.78,6.78,0,0,1,3,0c1.91.3,3.41,1.61,5.29,2,2.67.63,6.29.07,8.92-.17" transform="translate(-44.31 -43.46)"/>
    <path class="cls-1" d="M197.17,110.41c1.32.5,1.75-.12,2.79-.68a5.8,5.8,0,0,1,2.87-.48" transform="translate(-44.31 -43.46)"/>
    <path class="cls-1" d="M199,86.83c.57-.17,2,.78,2.68.88.94.13,2.21.46,2.73-.49" transform="translate(-44.31 -43.46)"/>
    <path class="cls-1" d="M146.37,56.25c3.73,0,8.27.24,12,.49,4.5.31,9,.77,13.46,1.49a36.09,36.09,0,0,0,5.88.27,14.53,14.53,0,0,0,5-.48c.77-.29,2.16-.22,2.67-.91a6.6,6.6,0,0,0,.5-3.34c-.21-1.32-2.93-3-1.15-4.28,1.48-1.09,5.12-.85,6.62-.14a7.78,7.78,0,0,1,2.45,2.13,7.4,7.4,0,0,1,1.58,2.46c.25,1.07-1,5.78.47,7.34" transform="translate(-44.31 -43.46)"/>
    <path class="cls-1" d="M186,64a8.52,8.52,0,0,1,1.28,4.84" transform="translate(-44.31 -43.46)"/>
    <path class="cls-1" d="M353.66,405.37" transform="translate(-44.31 -43.46)"/>
    <path class="cls-1" d="M125.6,143.53c2.69-.61,3.79.49,6.47,0,3.06-1.46,5.46-3,7.7-3.54s6.3-.83,8.73-1.32c2-.42,4.14-.47,6-1.21-2.08-1.13-3.83-3-5.17-3.88a21.9,21.9,0,0,0-3.74-2.26l-.69-.25c-2.08-.45-4.76-.12-7.73-.33-1.21-.08-2.32-.6-3.59-.81a44.62,44.62,0,0,0-6.84-.1c-1.91,0-3.78-.32-5.73-.25a38.35,38.35,0,0,0-5.52.76,24.18,24.18,0,0,1-4.75.91c-1,0-2,0-3.06.08a12.2,12.2,0,0,0-3.83.36c-1.58.64-3.29.46-5,.95-.57.17-.72.44-1.2.55s-4.41.22-5.67.22a49.75,49.75,0,0,1-5.86-.16,68.08,68.08,0,0,0-8.16-1c-1,0-1.91,0-2.85,0a23.61,23.61,0,0,1-7.6-1.06c-.94-.37-1.8-.73-2.77-1-.77-.23-2.39-.59-2.71-1.32-.18-.43-2-.91-2.48-1.06-1-.34-1.55-.19-1.79-1.2-.42-1.82.12-4,.22-5.84.12-2.31,1.75-4.73,2.5-6.89.66-2,2.32-3.3,3.08-5.13.87-2.09,3.36-3.63,5.23-4.74A23.92,23.92,0,0,0,71.56,102c1-.79,1.5-1.79,2.71-2.1a7.83,7.83,0,0,0,1.56-.42,14.28,14.28,0,0,0,2-1.63c1.31-.93,3-1.65,4-2.93A43.61,43.61,0,0,1,85,91.53c1.08-1.09,1.88-2.39,3-3.47s2.94-1.67,4.45-2.37c1.74-.82,3.31-1.93,5-2.76a13.33,13.33,0,0,1,2.43-.53,11.13,11.13,0,0,0,2.4-1.24A23.4,23.4,0,0,1,104.55,80c1.06-.46,1.16-.56,1.62-1.49.57-1.15,1.48-2.43,2.16-3.57a13.48,13.48,0,0,1,2.78-3.67,6.68,6.68,0,0,1,3-1.62c.83-.07,1.92,1.24,2.26,2.08s-.15,2.3,1.26,2.69c1.14.31,1.72-.55,2.65-.82,1.32-.38,2.63.15,3.93-.42.56-.24,1.1-.28,1.49-.79.14-.18,0-.46.16-.64a3.48,3.48,0,0,1,.75-.59" transform="translate(-44.31 -43.46)"/>
  </g>
  <g class="fenestrae">
    <path class="cls-1" d="M143.42,152.92c2.38,0,3.38.18,5.62-.48a82.69,82.69,0,0,1,10-2.11,40.2,40.2,0,0,1,5.67-.75c1.77,0,2.79-.27,4.31.73,2.11,1.39,1.62,4-.16,5.36-2.21,1.72-4.71,2.62-6.89,4.43a28.47,28.47,0,0,1-8.58,4.84,29.45,29.45,0,0,1-4.39,1,19,19,0,0,1-5.37.46,40.54,40.54,0,0,1-5.59-1.19,30.91,30.91,0,0,1-6.19-1.68,8.76,8.76,0,0,1-2.88-2.07c-.73-.76-1.62-1.16-1.83-2.27-.45-2.39.12-4.31,2.15-5.56s5.23-1.29,7.5-1.09c1.17.11,2.15.16,3.33.25C141.06,152.91,143.42,152.92,143.42,152.92Z" transform="translate(-44.31 -43.46)"/>
    <path class="cls-1" d="M134.81,94.78a11.13,11.13,0,0,1,.69,3.78,10.55,10.55,0,0,1-2,4.46,10.33,10.33,0,0,0-1.84,2.17c-.51,1.11-.44,1.33-1.6,2.07a13.6,13.6,0,0,1-7.16,2.65c-3.94.14-7.83.38-11.77.34a19.74,19.74,0,0,1-6.32-.73,26.48,26.48,0,0,0-5.49-.93c-1.73-.22-3.22-.36-4.27-1.93a4.65,4.65,0,0,1-.51-3.24c.26-2.94.58-6.23,2.74-8.49a11.54,11.54,0,0,1,3.91-2.5c1.16-.46,1.71-1.42,2.61-2.44a31.23,31.23,0,0,1,3-3.24c1.23-1.06,2.94-1.53,4.33-2.34,1-.59,2.19-1,3.17-1.59,1.28-.77,2.38-1.25,3.67-2.07a31.67,31.67,0,0,1,4-1.84,7.13,7.13,0,0,1,3-.5c.85,0,1.4-.47,2.25-.41a6.35,6.35,0,0,0,1.9-.38c.91,1.42.17,2.76-.14,4.29a7.23,7.23,0,0,1-.33,1.59c-.26.52-.81.41-1.07.66a2.53,2.53,0,0,0-.49,2.15,3.49,3.49,0,0,0,1.66,2.07,5.24,5.24,0,0,0,1.78,1.09,5.26,5.26,0,0,1,2.91,2.06C134.14,92.45,134.06,93.89,134.81,94.78Z" transform="translate(-44.31 -43.46)"/>
    <path class="cls-1" d="M165.4,100.83c-.28.5-.42,1.3-.74,1.77-.49.73-1.37,1.3-1.93,2s-1.23,1.42-1.86,2.12a19.63,19.63,0,0,1-3.48,3.34,33.72,33.72,0,0,0-3.12,2.75c-1.09.94-1.65,2.28-2.83,3.19s-2.11.44-3-.55-1.68-1.41-2.14-2.62-1.12-2.25-1.61-3.39-1.12-2-1.07-3.2a7.2,7.2,0,0,0-.08-2.74c-.16-.74.72-1.45.42-5.9a7.63,7.63,0,0,1,.83-4.19c.65-1.22,2-2.44,2.36-3.76a14.8,14.8,0,0,1,.43-2.3,3.17,3.17,0,0,0,.3-2.1,15.5,15.5,0,0,0-2.27-5.9c-1.29-1.72-2.52-3.31-1.92-5.67a9.9,9.9,0,0,1,1.58-2.6,10.18,10.18,0,0,1,2-2.39,29.81,29.81,0,0,1,2.84-2.07,17.23,17.23,0,0,1,1.65-1c.66-.44,1.13-.11,2.49-.9a8.78,8.78,0,0,1,3.59-.76,7.44,7.44,0,0,1,4.12.56,12.11,12.11,0,0,1,3.06,2.65c1.53,1.61,1.65,4.06,1.65,6.26a5.2,5.2,0,0,1-.94,3.51c-.69.87-1.38,1.83-2.08,2.75-.86,1.14-1.93,2.21-2.76,3.4-.27.39-.43.85-.72,1.22s-.55.4-1,.66c-1.9,1.14-1.09,3.94-.77,5.72a4.67,4.67,0,0,0,.73,2.45,9,9,0,0,0,2.18,1.76,6.09,6.09,0,0,0,2.65.89c1.12.06,1.28-.41,2.22-.67.72-.3.59,1.6.55,2.5,0,.36,0,1.19-.33,1.4A5.43,5.43,0,0,0,165.4,100.83Z" transform="translate(-44.31 -43.46)"/>
    <path class="cls-1" d="M171.65,94.4c-.07-.1-.27-.08-.38,0-1.59.67-1.51-.73-1.44-1.54a9,9,0,0,1,1.27-2.71,6.59,6.59,0,0,1,2.7-2.37,16.36,16.36,0,0,0,3.95-3.39c1.22-1.49,3.19-2.74,4.11-4.42a17.13,17.13,0,0,1,1-2.11c.38-.53,1-.86,1.28-1.45.59-1.08.61-2.66,1-3.83a7.9,7.9,0,0,1,2.6-4c2-1.58,5.79-2.08,7.84-.17,1.89,1.77,1.64,4.58,1.2,6.88s-1.26,4,.5,6c.71.78,1.75.87,1.94,2.07A10.22,10.22,0,0,1,199,87a28.93,28.93,0,0,0-.87,4.41c-.2,2.6-.95,5.16-1,7.76-.09,4.93-.12,9.93.1,14.84a30.88,30.88,0,0,0,.74,5.15,10,10,0,0,1,.07,4.21,8.6,8.6,0,0,1-2.63,3.58c-.54.51-1,1.35-1.54,1.78a4.93,4.93,0,0,1-2.19.66,12.92,12.92,0,0,1-5.64.31c-1.57-.32-3.17-.59-4.73-1.07-.54-.16-1.16-.26-1.69-.47a10.23,10.23,0,0,1-1.42-.87,27.88,27.88,0,0,0-3.4-1.33c-.83-.34-1.44-.91-2.23-1.3a4.88,4.88,0,0,0-1.19-.39,3.63,3.63,0,0,1-2.18-1.36c-1.38-1.44-3-1.75-2.9-4.08a37.11,37.11,0,0,1,.59-4.08,32.74,32.74,0,0,1,.72-5.11c.54-1.76.87-3.84,1.86-5.37a7.67,7.67,0,0,0,.75-1,11.15,11.15,0,0,0,.16-2.25C170.75,99.06,173.26,96.39,171.65,94.4Z" transform="translate(-44.31 -43.46)"/>
    <path class="cls-1" d="M70.06,103.06c-.75.41-1.23,1.19-2.07,1.46a9.83,9.83,0,0,1-2.92.06,21.71,21.71,0,0,1-3.12-.32c-1.43-.29-1.91-.73-2-2.16a3.42,3.42,0,0,1,.63-2.58c.71-1,1.84-1.06,2.64-1.83l.15-.1c1-.51.54-.84,1.75-.76s2.07,1.3,3.14.32c.76-.7.34-1.41,1.58-1.57a4.37,4.37,0,0,1,2.19.18,4.3,4.3,0,0,1,1.59,1.92c.25.89-.19,1.56.35,2.42A16.06,16.06,0,0,1,70.06,103.06Z" transform="translate(-44.31 -43.46)"/>
  </g>
</svg>
