<svg xmlns="http://www.w3.org/2000/svg" viewBox="0 0 355.43 188.71">
	<title>Parasaurolophus-walker</title>
	<metadata>
		<phyloxml xmlns:xsi="http://www.w3.org/2001/XMLSchema-instance" xmlns="http://www.phyloxml.org" xsi:schemaLocation="http://www.phyloxml.org http://www.phyloxml.org/1.10/phyloxml.xsd">
			<phylogeny rooted="true" rerootable="false">
				<clade>
					<name>Animalia</name>
					<clade>
						<name>Chordata</name>
						<clade>
							<name>Dinosauria</name>
							<clade>
								<name>Ornithischia</name>
								<clade>
									<name>Ornithopoda</name>
									<clade>
										<name>Hadrosauridae</name>
										<clade>
											<name>Parasaurolophini</name>
											<clade>
												<name>Parasaurolophus</name>
											</clade>
										</clade>
									</clade>
								</clade>
							</clade>
						</clade>
					</clade>
				</clade>
			</phylogeny>
		</phyloxml>
	</metadata>
	<g class="outline">
		<path d="M398.29,320.31c24.73,0,46,4.94,63.66,21,4.43,4,8,6.52,9.94,12.2s-.48,11.62-5.15,15.38a15.61,15.61,0,0,1-9.84,3.24,19.16,19.16,0,0,1-8-1.76c-5.69-2.64-3.43-5.6-8.75-8.92-10.08-6.27-26.91-9-40.78-9a90.27,90.27,0,0,0-9.67.49c-14.74,1.63-26.8,6.53-40.95,11-15.61,4.89-24.36,10.84-34.85,14.14-8,2.53-17.18,4.12-25.51,8.75-9.5,5.29-21.27,10.9-28.43,13.35-2.48.84-5.22,3-4.58,5.54.56.85,5.82.9,8.73,1.34a50.78,50.78,0,0,0,10.4,1c2.71,0,5.25-.13,7.74-.13,5.15,0,10.11.55,16,4a4.9,4.9,0,0,1,2.08,1.92,4.63,4.63,0,0,1,.33,2.19c-.33,6.52-5.76,11.44-9.12,17-2.27,3.79-3.66,8.08-6.14,11.74-2,3-7.7,6.78-9.63,6.78-.46,0-.71-.22-.65-.71.63-3.6,3.21-5.79,5.24-8.83s3.26-7.44,1.86-10.82a26.42,26.42,0,0,0-14.11,16.19c-2,6.9-1.07,14.33-.28,21.47a3.09,3.09,0,0,1,2.92-1.76,3.31,3.31,0,0,1,1.25.24,5.19,5.19,0,0,1,2.88,3.76c.71,3.17-.75,6.5-3,8.85s-5.74,3.38-8.61,4.88c-8.52,4.46-18.54,9.37-26.47,10.74a43.24,43.24,0,0,1-7.34.58c-7.55,0-15.1-1.6-22.75-2.3-2.83-.26-5.68-.41-8.52-.41A63.72,63.72,0,0,0,183.08,495c-5.79,1.4-11.36,3.78-17.27,4.5a42,42,0,0,0-6.05.85,34,34,0,0,0-4.9,2A28.86,28.86,0,0,1,143.45,505a15.49,15.49,0,0,1-9.13-2.68c-2.5-1.78-4.37-5.39-2.52-7.84s5.29-1.78,8.15-2.35c2.68-.52,5-2.16,7.44-3.32a9.8,9.8,0,0,1,4.25-.91,13.91,13.91,0,0,1,4.25.71c2-3.75,1.63-5.57,4.63-7.71,3.28-2.34,7.07-4.82,10.21-7.25,1.1-.86,0-2.09,3.05-3.43,4.19-1.85,13.65-2.32,19.33-2.32h1.59c6.7.12,15.14.21,21.52,2.26-.74-3.68-3.31-8.06-3.8-8.29a64.77,64.77,0,0,0-10.61-3.55,108.48,108.48,0,0,0-18.17-2.46h-.18c-2.16,0-7.17.49-9.7.49h-.68c-1.16-.07-.61-2.41-1.78-2.48-.48,0-.92,0-1.31,0-2.91,0-3.84.65-7.69.87-4.38,4-9.21,7-11,11.06-.85,2-.28,8.52-1.32,10.41-2.59,4.69-4.63,6.24-8.19,6.24a24.32,24.32,0,0,1-4.19-.46c-4.92-.89-3.7-4.72-8.09-7.11-1.5-.81-4.77-1.24-6-2.47-2.49-2.6-3.34-9.63-1.49-12.72s6.19-1.84,8.26-4.79c5.12-7.26,17.75-19.24,27.33-30.3a146.07,146.07,0,0,1,26.26-23.12c34.5-24.33,69.11-47.81,109.9-62.67,28.06-10.22,52.9-14.55,78-17,9.21-.9,18-1.47,26.43-1.47m0-2c-7.73,0-16.44.48-26.62,1.48-20.08,2-47.15,5.69-78.52,17.12-40.41,14.73-75.26,38.16-110.36,62.92a147.63,147.63,0,0,0-26.62,23.44c-4,4.6-8.46,9.32-12.79,13.89-6,6.29-11.6,12.23-14.66,16.57-.58.82-1.53,1.12-3,1.54-1.77.5-4,1.12-5.32,3.37-2.3,3.82-1.36,11.88,1.76,15.13,1.08,1.13,2.8,1.65,4.46,2.16a13.08,13.08,0,0,1,2,.69,7.22,7.22,0,0,1,2.84,3,7.82,7.82,0,0,0,5.85,4.32,25.41,25.41,0,0,0,4.55.5c4.93,0,7.46-2.78,9.94-7.28.73-1.31.86-3.29,1-6.39a20.53,20.53,0,0,1,.41-4.18c1.07-2.48,3.65-4.6,6.63-7.07,1.09-.9,2.22-1.84,3.34-2.84a33.65,33.65,0,0,0,3.63-.48,16.26,16.26,0,0,1,3.23-.34h.32a3,3,0,0,0,2.66,2.51h.79c1.38,0,3.4-.13,5.34-.26,1.67-.12,3.39-.23,4.36-.23h.15a105,105,0,0,1,17.78,2.42,63.45,63.45,0,0,1,9.85,3.25,22.58,22.58,0,0,1,2,3.78c-5.78-1.19-12.39-1.3-17.9-1.4h-2.21c-3.4,0-14.89.18-20.14,2.49-2.54,1.12-3.14,2.44-3.51,3.58a1.09,1.09,0,0,1-.05.17c-2,1.52-4.25,3.09-6.45,4.61-1.2.83-2.45,1.69-3.61,2.52a10.29,10.29,0,0,0-3.92,5.45c-.18.47-.38,1-.62,1.53a14.59,14.59,0,0,0-3.17-.35,11.88,11.88,0,0,0-5.1,1.1c-.79.37-1.56.78-2.3,1.19a17.47,17.47,0,0,1-4.68,2,20.32,20.32,0,0,1-2.26.27c-2.36.2-5.29.44-7.1,2.83a5.81,5.81,0,0,0-1.07,4.5,9.81,9.81,0,0,0,4,6.18,17.38,17.38,0,0,0,10.29,3,30.86,30.86,0,0,0,12.22-2.83q.53-.22,1.05-.48a23.58,23.58,0,0,1,3.57-1.41,23,23,0,0,1,4-.6l1.8-.19a65.32,65.32,0,0,0,11.21-2.74c2.06-.64,4.19-1.3,6.29-1.81a61.42,61.42,0,0,1,14.62-1.62c2.63,0,5.43.14,8.34.4,2.74.25,5.53.63,8.23,1a111.83,111.83,0,0,0,14.7,1.31,45.54,45.54,0,0,0,7.68-.61c8.12-1.4,18.23-6.31,27.05-10.94.78-.4,1.61-.77,2.48-1.17a19.85,19.85,0,0,0,6.66-4.1c3-3.13,4.29-7.12,3.49-10.66a7.15,7.15,0,0,0-4.08-5.19,5.39,5.39,0,0,0-2-.38,5.51,5.51,0,0,0-1.3.15c-.62-5.88-1-11.85.58-17.31a24.43,24.43,0,0,1,10.79-13.77,12.26,12.26,0,0,1-2.13,6.74c-.54.81-1.14,1.58-1.73,2.33-1.61,2.07-3.28,4.21-3.81,7.27v.09a2.53,2.53,0,0,0,2.63,3c2.95,0,9.15-4.49,11.29-7.66a47.58,47.58,0,0,0,3.6-6.73,55.32,55.32,0,0,1,2.6-5.1c.93-1.55,2-3,3.17-4.61,2.93-4,6-8.13,6.22-13.36a6.51,6.51,0,0,0-.52-3.16,6.8,6.8,0,0,0-2.87-2.78c-6.05-3.52-11.16-4.24-17-4.24-1.25,0-2.47,0-3.76.06s-2.62.07-4,.07a49.38,49.38,0,0,1-10-.92h-.09c-1-.16-2.33-.27-3.57-.38-1-.08-2.42-.2-3.39-.35A5.91,5.91,0,0,1,260.6,402c7-2.38,18.53-7.8,28.76-13.49,5.82-3.24,12.12-4.95,18.21-6.61,2.4-.65,4.68-1.27,6.93-2a117.42,117.42,0,0,0,14.1-5.81,162.87,162.87,0,0,1,20.75-8.33c3.1-1,6.12-2,9-2.94,10.39-3.44,20.2-6.69,31.52-7.94a86.59,86.59,0,0,1,9.45-.48c19,0,33,4.49,39.72,8.69a8.38,8.38,0,0,1,3.42,3.76,10.55,10.55,0,0,0,5.55,5.28,21.2,21.2,0,0,0,8.84,1.94A17.67,17.67,0,0,0,468,370.4c5.59-4.49,7.86-11.38,5.8-17.56-1.79-5.35-5-8.14-8.61-11.37q-.92-.8-1.89-1.68c-16.34-14.86-36.38-21.48-65-21.48Z" transform="translate(-119.1 -318.31)"/></g><g class="skull"><path d="M132.66,468.1a4.79,4.79,0,0,1-1.63-.47c-1.31-.68-.55-5.33-.22-6a18.06,18.06,0,0,1,1-1.75,48.44,48.44,0,0,0,2.58-4.78,18.89,18.89,0,0,1,2.22-3.13l.32-.4a11.87,11.87,0,0,1,.89-1c.29-.31.58-.61.84-.94a13.28,13.28,0,0,0,.76-1.1,14,14,0,0,1,.91-1.31,13.09,13.09,0,0,1,2.76-2.3,72.2,72.2,0,0,1,10.82-6.51,11.69,11.69,0,0,1,1.88-.59,5.4,5.4,0,0,0,2.56-1.12,22.14,22.14,0,0,0,2.26-2.79l.83-1.12a21,21,0,0,1,3.05-3.22h0c1.59-1.32,3-2.65,4.36-3.94s2.79-2.65,4.39-4c2.33-1.94,2.86-2.14,3.28-1.75s0,1.12-.4,1.67a16.8,16.8,0,0,1-3,3.4,48.29,48.29,0,0,0-6.28,6.39c-.44.54-.85,1.11-1.26,1.68a25.11,25.11,0,0,1-2.36,2.94c-.58.6-1.21,1.14-1.83,1.67s-1,.85-1.47,1.3a38.21,38.21,0,0,0-6.41,8.9c-.85,1.46-1.73,3-2.75,4.51a26.88,26.88,0,0,0-3.06,8.23c-.28,1.68-.66,3.29-2.35,4.53-1.14.84-2.85.51-4.36.21a12.61,12.61,0,0,0-2-.28h0a4.21,4.21,0,0,0-2.94,1.36,6.15,6.15,0,0,1-3.24,1.69Zm32.44-37.77a20.74,20.74,0,0,0-2.89,3.06c-.27.35-.54.72-.82,1.1A22.75,22.75,0,0,1,159,437.4a6.1,6.1,0,0,1-3,1.38,9.77,9.77,0,0,0-1.71.54,71,71,0,0,0-10.66,6.42,11.9,11.9,0,0,0-2.56,2.11,12.3,12.3,0,0,0-.84,1.21,12.53,12.53,0,0,1-.82,1.18c-.28.36-.59.68-.9,1s-.57.6-.83.92l-.32.4a19,19,0,0,0-2.1,2.94,50,50,0,0,1-2.62,4.86c-.4.68-.72,1.22-.93,1.66-.41.88-.62,4.29-.2,4.73a3.7,3.7,0,0,0,1.16.34,5.17,5.17,0,0,0,2.74-1.46A5.14,5.14,0,0,1,139,464h0a12.86,12.86,0,0,1,2.15.3c1.37.27,2.79.54,3.58,0,1.27-.93,1.65-2,1.95-3.89a28.16,28.16,0,0,1,3.22-8.62c1-1.52,1.87-3,2.71-4.47a39.39,39.39,0,0,1,6.58-9.11c.49-.47,1-.91,1.52-1.34s1.22-1,1.77-1.6a24.92,24.92,0,0,0,2.26-2.84c.42-.58.84-1.16,1.29-1.72a49.15,49.15,0,0,1,6.42-6.52,14.81,14.81,0,0,0,2.35-2.58l-1,.78c-1.58,1.32-3,2.65-4.34,3.94s-2.8,2.65-4.41,4Z" transform="translate(-119.1 -318.31)"/><path d="M248.5,478.54c-.19,0-.39,0-.59,0a11.11,11.11,0,0,1-3.11-1.22c-1.25-.7-2.54-1.29-3.79-1.85s-2.58-1.17-3.87-1.89a5.73,5.73,0,0,1-1.31-1.21,7.27,7.27,0,0,0-.51-.56,4.57,4.57,0,0,1-.9-1.54,6.92,6.92,0,0,0-.38-.77h0a24.26,24.26,0,0,0-1.46-2.1,26.41,26.41,0,0,1-1.51-2.17c-.13-.21-.34-.5-.59-.84-1.15-1.59-2.08-3-1.78-3.94.75-2.4,5-2.41,8.1-2.21l13.56.89.26-.06c.47-.11.78-.16,1,0l.17.09c.47.27.85.49,1,.81a25,25,0,0,0,3.88,6.05l.7.89.31.37a2.51,2.51,0,0,1,.76,1.54,4.32,4.32,0,0,1-1.19,3.06c-.9,1.23-1.75,2.38-.71,4.59l.6,1.27-1.27-.61c-1.19-.57-2.54,0-4,.55A9.54,9.54,0,0,1,248.5,478.54Zm-13.6-9.61a8.45,8.45,0,0,1,.43.9,4.45,4.45,0,0,0,.68,1.22c.18.17.38.39.58.62a5.07,5.07,0,0,0,1,1c1.25.69,2.54,1.28,3.79,1.85s2.58,1.16,3.87,1.88a9.5,9.5,0,0,0,2.76,1.11,7.33,7.33,0,0,0,3.49-.8,7.55,7.55,0,0,1,3.74-.83c-.63-2.16.36-3.51,1.18-4.63a3.46,3.46,0,0,0,1-2.36,1.52,1.52,0,0,0-.51-1,5.26,5.26,0,0,1-.35-.41l-.69-.88a25.85,25.85,0,0,1-4-6.28,5.15,5.15,0,0,0-.54-.32l-.11-.07a2.83,2.83,0,0,0-.4.08,2.72,2.72,0,0,1-.53.08l-13.56-.89c-5.36-.35-6.81.63-7.09,1.51-.17.55,1.1,2.31,1.64,3.06.27.36.49.67.63.9.47.77,1,1.41,1.46,2.09s1,1.36,1.52,2.17Zm16.23-9.05Z" transform="translate(-119.1 -318.31)"/><path d="M226.51,436.8c-3,0-6.48-1.67-7.44-4.95a10.43,10.43,0,0,1-.24-3.51h0c.25-3.85,1.46-11,6.73-15.81,3.65-3.31,6.38-3.16,10.9-2.92,1.87.1,4,.21,6.66.13,2.18-.05,4.7,1.36,6.42,2.57a8,8,0,0,1,3.13,6c0,2.47-2.55,4.46-4.42,5.92a27,27,0,0,1-3.59,2.23c-.72.39-1.47.8-2.17,1.24a42.53,42.53,0,0,0-4.41,3.34c-.9.75-1.83,1.51-2.78,2.22-3.09,2.31-5.9,3.46-8.59,3.52Zm-6.68-8.4a9.22,9.22,0,0,0,.2,3.17c.83,2.83,4.06,4.29,6.65,4.23s5.1-1.14,8-3.32c.94-.69,1.85-1.45,2.74-2.19a43.82,43.82,0,0,1,4.52-3.41c.72-.46,1.48-.88,2.22-1.28a26,26,0,0,0,3.45-2.13c1.71-1.34,4.06-3.16,4-5.13a7,7,0,0,0-2.71-5.21c-1.59-1.12-3.89-2.46-5.81-2.39-2.72.08-4.85,0-6.74-.14-4.55-.24-6.83-.36-10.18,2.67-5,4.55-6.16,11.43-6.4,15.13Z" transform="translate(-119.1 -318.31)"/><path d="M238.92,444.65a5,5,0,0,1-3-.76,2.41,2.41,0,0,1-.93-2.2,11.77,11.77,0,0,1,2.41-5.56,27.07,27.07,0,0,1,3.82-4.14,10.79,10.79,0,0,0,.8-.82,10.47,10.47,0,0,1,2.77-2.39,33.92,33.92,0,0,0,7.55-5.11l1.12-.89a21.26,21.26,0,0,0,2.72-2.38c.3-.34.59-.7.89-1a21.35,21.35,0,0,1,2.15-2.33,10.83,10.83,0,0,1,9-2.48,1.89,1.89,0,0,1,1,.4,1.86,1.86,0,0,1,.55,1.14,17.16,17.16,0,0,1-.11,5.32,10.72,10.72,0,0,1-.9,3.58,10.54,10.54,0,0,1-3.57,3.55c-.44.32-.88.64-1.29,1a29,29,0,0,0-3.38,3.36,36.49,36.49,0,0,1-2.88,3,37.2,37.2,0,0,1-3.8,2.81,39.62,39.62,0,0,1-8.79,4.88A22,22,0,0,1,238.92,444.65Zm27.42-29.28a9.91,9.91,0,0,0-6.46,2.4,20.81,20.81,0,0,0-2.05,2.22c-.29.36-.59.72-.9,1.07a22,22,0,0,1-2.85,2.51c-.39.3-.76.59-1.1.87a34.21,34.21,0,0,1-7.75,5.24,10.07,10.07,0,0,0-2.47,2.17c-.35.37-.65.69-.89.9a26.81,26.81,0,0,0-3.69,4,10.84,10.84,0,0,0-2.19,5,1.43,1.43,0,0,0,.53,1.34c1.59,1.2,6.17.16,8.14-.53h0a38.63,38.63,0,0,0,8.57-4.77,26.82,26.82,0,0,0,6.5-5.61,31.78,31.78,0,0,1,3.49-3.47c.43-.35.88-.67,1.34-1a9.7,9.7,0,0,0,3.26-3.2,9.58,9.58,0,0,0,.8-3.25,16.14,16.14,0,0,0,.12-5,1,1,0,0,0-.23-.58,1.14,1.14,0,0,0-.49-.17A9.46,9.46,0,0,0,266.34,415.37Z" transform="translate(-119.1 -318.31)"/><path d="M143.4,505.53a15.91,15.91,0,0,1-9.37-2.78,8.44,8.44,0,0,1-3.42-5.19,4.36,4.36,0,0,1,.79-3.36c1.4-1.86,3.75-2.06,6-2.25a21,21,0,0,0,2.43-.29,18.17,18.17,0,0,0,5.1-2.14c.73-.39,1.47-.79,2.23-1.15a11.87,11.87,0,0,1,8.46-.35,28.88,28.88,0,0,0,1.19-2.73,8.82,8.82,0,0,1,3.4-4.78c1.15-.82,2.37-1.66,3.6-2.51,2.25-1.55,4.57-3.16,6.59-4.73a2.36,2.36,0,0,1,1.76-.46,6.25,6.25,0,0,0,3.11-.66c4.1-1.81,11.37-1.62,16.67-1.47l2.25.05,3.2,0c6.08.05,13.58.12,19,1.65a45.23,45.23,0,0,0-4-10.22,68.06,68.06,0,0,0-10.76-3.36,107.33,107.33,0,0,0-18.07-2.45c-1,0-2.76.1-4.64.23-2.3.16-4.69.32-5.95.25-1-.06-1.17-1-1.34-1.62s-.25-.85-.43-.86a17.78,17.78,0,0,0-4.78.32,32,32,0,0,1-4,.5c-1.22,1.12-2.47,2.15-3.68,3.15-3.13,2.58-5.83,4.82-7.05,7.62a18.07,18.07,0,0,0-.53,4.71c-.11,2.39-.2,4.64-.81,5.74-3.59,6.49-6.37,7.2-12.91,6-2.93-.53-3.86-2-4.84-3.64a8.63,8.63,0,0,0-3.4-3.52,14.12,14.12,0,0,0-2.25-.81,9.23,9.23,0,0,1-3.82-1.76c-2.69-2.8-3.53-10-1.55-13.32,1-1.74,2.77-2.23,4.43-2.69s2.93-.83,3.84-2.13c3-4.25,8.6-10.15,14.52-16.4,4.35-4.58,8.84-9.32,12.84-13.94a146.43,146.43,0,0,1,26.35-23.2c35-24.69,69.78-48.07,110-62.73,31.21-11.37,58.16-15.08,78.15-17,37.32-3.65,67-1.72,90.46,19.62l1.91,1.7c3.64,3.21,6.52,5.74,8.18,10.71,1.86,5.58-.23,11.83-5.32,15.93-4.75,3.81-12.13,4.44-18.36,1.55a9.14,9.14,0,0,1-4.86-4.63,9.89,9.89,0,0,0-3.95-4.32c-12.37-7.71-35.05-10.1-50.13-8.43-11.47,1.27-21.36,4.54-31.83,8-2.91,1-5.93,2-9,2.93a165,165,0,0,0-20.94,8.4,116.36,116.36,0,0,1-13.91,5.74c-2.22.7-4.48,1.31-6.88,2-6.17,1.69-12.56,3.42-18.54,6.75-10,5.56-21.72,11.07-28.51,13.38-2.41.82-4.7,2.78-4.28,4.83.49.35,3.12.58,4.88.73,1.22.1,2.48.21,3.47.36h0a60.13,60.13,0,0,0,14.32.88c6.46-.16,12.56-.32,20,4a5.34,5.34,0,0,1,2.27,2.13,4.91,4.91,0,0,1,.37,2.43c-.23,4.78-3.13,8.73-5.93,12.55-1.12,1.53-2.29,3.12-3.25,4.73a57.33,57.33,0,0,0-2.67,5.24,47,47,0,0,1-3.48,6.52c-2.08,3.07-8.63,7.66-10.57,6.91a1,1,0,0,1-.62-1.18c.47-2.71,1.95-4.61,3.51-6.62.61-.78,1.23-1.58,1.8-2.43,1.78-2.68,3-6.69,2-9.86a25.86,25.86,0,0,0-13.35,15.65c-1.85,6.39-1.15,13.29-.4,20a3.65,3.65,0,0,1,1-.61,4.1,4.1,0,0,1,3-.05,5.66,5.66,0,0,1,3.18,4.12c.68,3.06-.48,6.54-3.12,9.31A18.89,18.89,0,0,1,266,484c-.9.41-1.75.79-2.56,1.21-8.72,4.57-18.7,9.43-26.61,10.79-7.34,1.26-14.76.26-21.93-.71-2.71-.37-5.52-.75-8.3-1a71.3,71.3,0,0,0-23.45,1.25c-2.14.52-4.29,1.19-6.38,1.83A62.89,62.89,0,0,1,165.87,500c-.59.07-1.17.13-1.76.18a18.76,18.76,0,0,0-8,2.15l-1,.47A30,30,0,0,1,143.4,505.53Zm8.24-17.11a9.31,9.31,0,0,0-4,.86c-.74.34-1.47.74-2.18,1.12a19.09,19.09,0,0,1-5.39,2.24,21.23,21.23,0,0,1-2.54.31c-2.14.18-4.17.35-5.3,1.85a3.36,3.36,0,0,0-.6,2.61,7.32,7.32,0,0,0,3,4.52c7,4.94,16.34,1.63,20,0l1-.46a25.31,25.31,0,0,1,4-1.57,26.48,26.48,0,0,1,4.39-.67l1.73-.18a63.21,63.21,0,0,0,10.77-2.65c2.1-.65,4.27-1.32,6.44-1.85a72.66,72.66,0,0,1,23.77-1.28c2.8.26,5.62.64,8.35,1,7.42,1,14.43,1.95,21.62.71,7.77-1.33,17.66-6.15,26.31-10.68.84-.44,1.75-.85,2.62-1.24a18.13,18.13,0,0,0,5.87-3.54c2.37-2.49,3.46-5.71,2.86-8.4a4.73,4.73,0,0,0-2.58-3.41,3.07,3.07,0,0,0-2.27,0,2.28,2.28,0,0,0-1.24,1.2l-.74,1.85-.3-2.69c-.78-7-1.59-14.19.36-21A26.92,26.92,0,0,1,282,430.64l.47-.2.2.47c1.57,3.83-.05,8.47-1.92,11.28-.59.89-1.22,1.7-1.84,2.49-1.48,1.91-2.89,3.71-3.31,6.16a.36.36,0,0,0,0,.12c.81.47,7.08-3.17,9.37-6.56a45.92,45.92,0,0,0,3.4-6.38,58.31,58.31,0,0,1,2.72-5.34c1-1.64,2.17-3.25,3.3-4.8,2.84-3.87,5.53-7.53,5.75-12a4.19,4.19,0,0,0-.28-1.94,4.51,4.51,0,0,0-1.88-1.71c-7.13-4.15-12.83-4-19.42-3.84a61,61,0,0,1-14.53-.89c-.95-.15-2.19-.26-3.38-.36-3.6-.3-5.22-.51-5.68-1.2l-.07-.16c-.68-2.7,1.95-5.13,4.91-6.13,6.74-2.3,18.39-7.78,28.34-13.31,6.09-3.39,12.54-5.14,18.77-6.84,2.38-.65,4.64-1.26,6.84-2a116.31,116.31,0,0,0,13.79-5.68,163.6,163.6,0,0,1,21.06-8.45c3.08-1,6.1-2,9-2.93,10.52-3.49,20.46-6.78,32-8.06,15.24-1.68,38.21.75,50.77,8.58a10.84,10.84,0,0,1,4.3,4.69,8.08,8.08,0,0,0,4.4,4.2c5.9,2.73,12.85,2.16,17.31-1.42,4.77-3.84,6.73-9.65,5-14.83-1.58-4.71-4.36-7.17-7.89-10.28-.62-.55-1.26-1.11-1.92-1.71-23.19-21.09-52.63-23-89.7-19.36-19.93,2-46.79,5.65-77.9,17-40.18,14.64-73.49,37-109.78,62.61a144.78,144.78,0,0,0-26.17,23c-4,4.64-8.52,9.38-12.87,14-5.9,6.22-11.47,12.09-14.43,16.29-1.12,1.59-2.78,2.05-4.39,2.51s-3,.84-3.85,2.25c-1.72,2.87-.93,9.66,1.42,12.11a9.08,9.08,0,0,0,3.39,1.49,13.9,13.9,0,0,1,2.43.9,9.51,9.51,0,0,1,3.78,3.87c.94,1.52,1.68,2.73,4.17,3.17,6.2,1.12,8.51.53,11.85-5.53.5-.89.6-3.23.69-5.29a18,18,0,0,1,.61-5.07c1.31-3,4.24-5.44,7.33-8,1.25-1,2.53-2.09,3.78-3.24l.13-.12h.18a32.84,32.84,0,0,0,4.05-.49,18.64,18.64,0,0,1,5-.34c.95.06,1.18,1,1.35,1.62s.24.85.43.86c1.19.07,3.55-.09,5.83-.25,1.89-.13,3.67-.25,4.71-.23a108.45,108.45,0,0,1,18.27,2.47A70.46,70.46,0,0,1,213,461.32c.87.42,4.27,8.78,4.58,11.76l.07.76-.72-.23c-5.35-1.72-13.19-1.79-19.5-1.84l-3.2,0-2.27-.05c-5.21-.15-12.34-.34-16.24,1.38a7.13,7.13,0,0,1-3.54.75,1.48,1.48,0,0,0-1.12.25c-2,1.59-4.38,3.2-6.63,4.76-1.23.85-2.44,1.68-3.59,2.51a7.78,7.78,0,0,0-3.05,4.32,29,29,0,0,1-1.43,3.21l-.19.37-.4-.13A13.33,13.33,0,0,0,151.64,488.42Z" transform="translate(-119.1 -318.31)"/><path d="M160.05,500.77l-.59-.81c.42-.3.51-.89.62-1.57a7.53,7.53,0,0,1,.22-1.05,5.22,5.22,0,0,0,.19-1,5.34,5.34,0,0,1,.25-1.24,4,4,0,0,0-.22-3.3,3.93,3.93,0,0,0-3-2.29,12.41,12.41,0,0,1-2-.43l.27-1a12.87,12.87,0,0,0,1.83.4,4.9,4.9,0,0,1,3.83,2.91,5,5,0,0,1,.24,4,4.54,4.54,0,0,0-.21,1.05,5.77,5.77,0,0,1-.23,1.16,7,7,0,0,0-.18.91A3.14,3.14,0,0,1,160.05,500.77Z" transform="translate(-119.1 -318.31)"/><path d="M212.29,483.83l-.49-.87a8.77,8.77,0,0,0,4.71-6.77l0-.55a10.69,10.69,0,0,0,0-2.66,53,53,0,0,0-3.45-9.84c-.32-.76-.64-1.5-.94-2.23a3.88,3.88,0,0,0-2.06-2l-.5-.28a5.2,5.2,0,0,0-2.14-.55,9,9,0,0,1-1.88-.38,57.73,57.73,0,0,0-5.82-1.66c-1-.25-1.95-.47-2.69-.71-5.6-1.81-13.7-1.65-22.21-1.3l-1.64.06c-3.56.1-9.51.28-11.24,1.61l-.61-.79c2-1.53,7.67-1.7,11.82-1.82l1.63-.06c8.6-.35,16.8-.52,22.55,1.35.71.23,1.6.44,2.62.69a56.2,56.2,0,0,1,5.93,1.69,7.75,7.75,0,0,0,1.66.32,6.18,6.18,0,0,1,2.53.69l.48.27a4.85,4.85,0,0,1,2.49,2.46c.3.72.62,1.47.94,2.22a54.2,54.2,0,0,1,3.51,10,11.51,11.51,0,0,1,.05,2.93l0,.54A9.78,9.78,0,0,1,212.29,483.83Z" transform="translate(-119.1 -318.31)"/><path d="M249.54,459.9l-.33-.95a4.09,4.09,0,0,0,2.61-2.9,13.52,13.52,0,0,0-.18-2.43c-.07-.57-.15-1.16-.18-1.76a20.34,20.34,0,0,1,.1-2.6l.05-.54a45.45,45.45,0,0,0,.07-6,2.86,2.86,0,0,0-.37-1.54,1,1,0,0,0-.63-.35.51.51,0,0,0-.37.07l-.64-.76a1.46,1.46,0,0,1,1.13-.3,1.93,1.93,0,0,1,1.32.76,3.69,3.69,0,0,1,.56,2.07,47.47,47.47,0,0,1-.07,6.08l-.05.54a19,19,0,0,0-.1,2.48c0,.55.1,1.12.17,1.67a12.59,12.59,0,0,1,.18,2.61C252.72,457.77,251,459.37,249.54,459.9Z" transform="translate(-119.1 -318.31)"/><path d="M225.17,461.34a16,16,0,0,1-5.49-1,2.57,2.57,0,0,1-1.05-.63,2.54,2.54,0,0,1-.56-1.23,16.11,16.11,0,0,1-.19-3.8c0-1.9.09-3.69-.85-5.15a5.69,5.69,0,0,0-5-2.33,14.62,14.62,0,0,0-5.78,1.68,3.74,3.74,0,0,1-1.6.48,3.62,3.62,0,0,1-1.75-.56,15.21,15.21,0,0,1-3.15-2.37,4.48,4.48,0,0,1-1.06-1.43,5,5,0,0,1-.3-1.7l-.29-5a8.28,8.28,0,0,1,.41-3.88,8.44,8.44,0,0,1,.71-1.25,6,6,0,0,0,.68-1.2c.06-.14.1-.28.15-.42a4.23,4.23,0,0,1,.36-.9,4.45,4.45,0,0,1,1.52-1.41,4.48,4.48,0,0,0,1.14-.94,4.23,4.23,0,0,0,.53-1.26,5.84,5.84,0,0,1,.53-1.34,6.81,6.81,0,0,1,1.63-1.63,5.05,5.05,0,0,0,2-2.46l1,.23a5.81,5.81,0,0,1-2.38,3,6.3,6.3,0,0,0-1.4,1.37,5.68,5.68,0,0,0-.44,1.12,4.88,4.88,0,0,1-.68,1.56,5.2,5.2,0,0,1-1.38,1.19,3.57,3.57,0,0,0-1.22,1.07,4.43,4.43,0,0,0-.27.7c-.05.17-.11.33-.17.49a7.67,7.67,0,0,1-.77,1.38,8.25,8.25,0,0,0-.64,1.1,7.79,7.79,0,0,0-.32,3.43l.28,5a4.37,4.37,0,0,0,.23,1.37,3.67,3.67,0,0,0,.84,1.1,14.47,14.47,0,0,0,2.94,2.22,2.71,2.71,0,0,0,1.25.43,2.9,2.9,0,0,0,1.16-.37,15.43,15.43,0,0,1,6.21-1.79,6.75,6.75,0,0,1,5.87,2.79c1.1,1.72,1,3.75,1,5.72a15,15,0,0,0,.17,3.56,1.68,1.68,0,0,0,.31.76,1.86,1.86,0,0,0,.68.38c2.89,1.09,6.93,1.48,9.43-.1l.53.85A9.05,9.05,0,0,1,225.17,461.34Z" transform="translate(-119.1 -318.31)"/><path d="M218.44,423.57a4.28,4.28,0,0,1-2.6-.84,3,3,0,0,0-1-.58c-.88-.24-.82-1.16-.79-1.54a1.19,1.19,0,0,0,0-.19l1-.08a1.9,1.9,0,0,1,0,.33c0,.11,0,.44,0,.5a4,4,0,0,1,1.35.77,3.27,3.27,0,0,0,3.51.21l.57.82A3.66,3.66,0,0,1,218.44,423.57Z" transform="translate(-119.1 -318.31)"/><path d="M209.67,422.79a2,2,0,0,1-2.09-1.36,2.25,2.25,0,0,1,0-.86,1.81,1.81,0,0,0,0-.51c-.08-.36-.46-.53-1.08-.78l-.09,0c-.34-.22-.36-.7-.35-1.39v-.15h1v.17c0,.11,0,.4,0,.58a2.12,2.12,0,0,1,1.49,1.42,2.67,2.67,0,0,1,0,.85,1.56,1.56,0,0,0,0,.52c.09.42.75.62,1.31.56a7.81,7.81,0,0,0,4.39-1.78c.42-.36.85-.76,1.29-1.17a21.64,21.64,0,0,1,2.71-2.26l.75-.52c1.39-1,3-2.08,5.15-1.9l-.08,1c-1.82-.15-3.18.81-4.5,1.73-.26.19-.52.37-.77.53a21,21,0,0,0-2.58,2.16c-.45.42-.89.83-1.32,1.2a8.71,8.71,0,0,1-4.93,2Z" transform="translate(-119.1 -318.31)"/><path d="M235.09,410.16l-1-.28.05-.18a6.4,6.4,0,0,0,.3-1.29.77.77,0,0,0-.29-.62,1.76,1.76,0,0,0-.47-.13l-.1,0a6,6,0,0,1-2.77-1.29,2.6,2.6,0,0,1-.68-.77,3.33,3.33,0,0,1-.32-1.05c-.09-.45-.15-.74-.35-.88a1.23,1.23,0,0,0-1-.1c-.17,0-.55.07-.94.1s-.68.06-.83.09l-.2-1c.16,0,.55-.07.94-.11s.68,0,.82-.08a1.88,1.88,0,0,1,2.52,1.78,3.36,3.36,0,0,0,.21.75,1.85,1.85,0,0,0,.44.48,5.06,5.06,0,0,0,2.32,1.08,2.5,2.5,0,0,1,.89.27,1.71,1.71,0,0,1,.79,1.43,5.64,5.64,0,0,1-.34,1.63Z" transform="translate(-119.1 -318.31)"/><path d="M269.28,416.67l-.5-.86c1.8-1.05,3.88-1.07,5.89-1.08a15.15,15.15,0,0,0,4.33-.44c.29-.09.32-.16.32-.16a1.08,1.08,0,0,0-.62-.42l-2.53-.89a3.93,3.93,0,0,1-1.24-.63,1.64,1.64,0,0,1-.6-1.57c.23-1,1.28-1.21,2.05-1.37l.29-.07a8.19,8.19,0,0,0,1.95-.82,6.59,6.59,0,0,1,3-1h0v1h0a5.68,5.68,0,0,0-2.58.88,9.63,9.63,0,0,1-2.18.91l-.31.07c-.7.15-1.2.28-1.28.61a.67.67,0,0,0,.27.59,2.86,2.86,0,0,0,.93.44l2.52.9a2.11,2.11,0,0,1,1.21,1,1,1,0,0,1,0,.8,1.41,1.41,0,0,1-.95.72,15.6,15.6,0,0,1-4.61.49C272.71,415.74,270.85,415.76,269.28,416.67Z" transform="translate(-119.1 -318.31)"/><path d="M235,408l-.48-.87a66.47,66.47,0,0,1,7-3.37,9.18,9.18,0,0,1,3.15-.83,9.47,9.47,0,0,1,2.91.52c.22.06.43.13.65.18.6.17,1.21.36,1.82.56a12.51,12.51,0,0,0,5.28.93l.13,1a13.38,13.38,0,0,1-5.71-1c-.6-.19-1.2-.38-1.78-.54l-.67-.19a8.38,8.38,0,0,0-2.6-.48,8.14,8.14,0,0,0-2.8.76A67.45,67.45,0,0,0,235,408Z" transform="translate(-119.1 -318.31)"/><path d="M258.83,401.09l-.77-.63a3.31,3.31,0,0,0,.19-2.63,8.1,8.1,0,0,0-1.38-2.32,5.35,5.35,0,0,0-1.63-1.65,5.57,5.57,0,0,0-1.65-.43,33.71,33.71,0,0,0-8.5-.61l-.62.06a15.92,15.92,0,0,1-4.36.07l.17-1a15.62,15.62,0,0,0,4.09-.08l.62-.07a34.52,34.52,0,0,1,8.75.62,4.75,4.75,0,0,1,3.93,2.47,8.9,8.9,0,0,1,1.53,2.62A4.13,4.13,0,0,1,258.83,401.09Z" transform="translate(-119.1 -318.31)"/><path d="M251.41,459.8h-.59l.06-1a6,6,0,0,0,4.87-1.64,4.65,4.65,0,0,0,.83-4.87,9.46,9.46,0,0,0-.67-1.12,10,10,0,0,1-.69-1.15,6.24,6.24,0,0,1-.49-2.56l0-.58a17.47,17.47,0,0,1,.17-4.8l0-.15c.31-1.65.63-3.35-.25-4.61l.82-.58c1.12,1.61.74,3.61.41,5.38l0,.15a17.16,17.16,0,0,0-.16,4.54c0,.2,0,.4,0,.6a5.41,5.41,0,0,0,.39,2.17,7.59,7.59,0,0,0,.63,1,9.52,9.52,0,0,1,.73,1.25,5.65,5.65,0,0,1-1,5.95A6.67,6.67,0,0,1,251.41,459.8Z" transform="translate(-119.1 -318.31)"/><path d="M213.63,459.46a3.94,3.94,0,0,1-3-1.06,3.19,3.19,0,0,1-.72-2.52,5.57,5.57,0,0,1,.39-1.9,5.08,5.08,0,0,1,3.43-2.45,14.56,14.56,0,0,1,4.74-.1l-.1,1a13.25,13.25,0,0,0-4.4.07,4.07,4.07,0,0,0-2.79,2,4.91,4.91,0,0,0-.28,1.52,2.22,2.22,0,0,0,.47,1.74,3,3,0,0,0,2.39.74v1Z" transform="translate(-119.1 -318.31)"/><path d="M248.93,491.56a55.87,55.87,0,0,1-7.06-.46,1.07,1.07,0,0,1-.71-.3,1.14,1.14,0,0,1-.14-1.11l.56-1.77a1,1,0,0,0,.06-.32,1.16,1.16,0,0,0-.29-.17,1.91,1.91,0,0,1-.42-.24,2.2,2.2,0,0,1-.64-2.06,2.29,2.29,0,0,0-.15-1.25c-.25-.36-.75-.39-1.54-.41a5,5,0,0,1-1.44-.15,4.5,4.5,0,0,1-2.08-1.65l-3.38-4.06a14.82,14.82,0,0,1-1.46-2.3,17,17,0,0,0-.87-1.49,21.69,21.69,0,0,1-3.79-13l1,.06a20.69,20.69,0,0,0,3.64,12.36c.33.5.63,1,.91,1.56a13.17,13.17,0,0,0,1.35,2.14l3.38,4.06a3.72,3.72,0,0,0,1.59,1.33,4.31,4.31,0,0,0,1.17.11,2.62,2.62,0,0,1,2.35.85,2.89,2.89,0,0,1,.33,1.85c0,.63,0,1,.23,1.22a1.3,1.3,0,0,0,.26.14,1.35,1.35,0,0,1,.78.69,1.45,1.45,0,0,1,0,1L242,490l0,.11h0a55.61,55.61,0,0,0,8.25.44l0,1Z" transform="translate(-119.1 -318.31)"/><path d="M243.53,480.3l-.71,0,.08-1a9.16,9.16,0,0,0,5.12-1.15,7.66,7.66,0,0,1,1.42-.57,4.72,4.72,0,0,0,1.3-.57l.6.81a5.69,5.69,0,0,1-1.59.71,7.44,7.44,0,0,0-1.24.49A10.19,10.19,0,0,1,243.53,480.3Z" transform="translate(-119.1 -318.31)"/><path d="M260.81,478.94h-.14a6.68,6.68,0,0,1-3.54-.74c-1.46-.93-2.13-2.07-2-3.39l1,.11c-.1.92.41,1.72,1.54,2.44a6,6,0,0,0,3,.58,7.35,7.35,0,0,0,2.93-.46,6.32,6.32,0,0,0,3.42-4.42,16.42,16.42,0,0,0,.14-5.6l0-.29,1-.08,0,.29a17.33,17.33,0,0,1-.17,5.92,7.36,7.36,0,0,1-4,5.11A8.41,8.41,0,0,1,260.81,478.94Z" transform="translate(-119.1 -318.31)"/><path d="M280.31,432.69l-.39-.92a11.35,11.35,0,0,0,4.25-2.87,5.84,5.84,0,0,0,1.5-4.57,3.86,3.86,0,0,0-3.05-3.23c-1.49-.21-2.95.66-4.44,1.64l-3.24,2.12a13.8,13.8,0,0,1-3.35,1.79,5.07,5.07,0,0,1-4-.25l.5-.87a4,4,0,0,0,3.16.16,13.13,13.13,0,0,0,3.11-1.66l3.24-2.13c1.65-1.09,3.29-2,5.13-1.79a4.81,4.81,0,0,1,3.9,4.07,6.82,6.82,0,0,1-1.74,5.38A12.26,12.26,0,0,1,280.31,432.69Z" transform="translate(-119.1 -318.31)"/><path d="M282.44,442.7a11.12,11.12,0,0,1-2.21-.29l.19-1a6.84,6.84,0,0,0,3,.15,6.52,6.52,0,0,0,1.1-.45c.32-.16.64-.29,1-.43a4.53,4.53,0,0,0,2.28-1.49l.86.52a5.41,5.41,0,0,1-2.75,1.89c-.3.13-.61.26-.91.41a7.94,7.94,0,0,1-1.28.52A4.68,4.68,0,0,1,282.44,442.7Z" transform="translate(-119.1 -318.31)"/><path d="M162.05,455.6l-.65-.77c1.75-1.47,3.45-3,5-4.3,1.2-1.07,2.3-2,3.21-2.8l1.22-1c.74-.64,1.46-1.26,2.24-1.88,1.38-1.12,6.39-5.51,7.69-6.65,2.88-2.55,4.72-3.93,6.65-5.39s3.64-2.73,6.4-5.13l1.6-1.36c1.09-.91,2.32-1.95,3.11-2.7a116,116,0,0,1,15.37-11.68c2.64-1.78,5.36-3.61,8-5.58,5.71-4.24,10.78-8.34,15.69-12.29,11.58-9.34,22.52-18.16,38.06-25.58.57-.27,2.08-1,3.82-1.9,2.68-1.34,6-3,7.2-3.55,2.28-1.09,11.46-4.73,14.12-5.74l1-.37a231.75,231.75,0,0,1,28.65-9.28c3.19-.78,6.42-1.59,9.66-2.4,8.25-2.07,16.79-4.21,25.2-5.92,6.8-1.38,21.68-4,26.95-4.14,28.81-.71,45.51,4.47,66.2,20.54l-.61.79c-20.48-15.91-37-21.05-65.56-20.33-5.22.13-20,2.75-26.78,4.12-8.39,1.7-16.91,3.84-25.16,5.91-3.24.81-6.47,1.62-9.66,2.4a231.76,231.76,0,0,0-28.54,9.24l-1,.37c-3,1.15-11.94,4.71-14.06,5.71-1.17.54-4.5,2.21-7.17,3.55-1.75.87-3.27,1.63-3.84,1.9-15.44,7.37-25.83,15.75-37.86,25.45-4.92,4-10,8.07-15.72,12.32-2.68,2-5.41,3.83-8.06,5.61a115.34,115.34,0,0,0-15.24,11.58c-.82.77-2.06,1.81-3.16,2.74-.59.49-1.15,1-1.59,1.35-2.79,2.42-4.65,3.82-6.44,5.17s-3.74,2.82-6.6,5.34c-1.3,1.15-6.33,5.55-7.73,6.67-.76.62-1.48,1.24-2.21,1.86-.4.35-.8.7-1.22,1.05-.91.77-2,1.73-3.2,2.79C165.51,452.61,163.8,454.12,162.05,455.6Z" transform="translate(-119.1 -318.31)"/><path d="M184.12,436.49l-.62-.78a60.57,60.57,0,0,0,16-19.84,6.45,6.45,0,0,0,.94-3.26.77.77,0,0,0-.16-.5,1,1,0,0,0-.56-.21c-8.19-1.59-17.85,2-23.49,8.83l-.77-.64c5.86-7.06,15.91-10.83,24.45-9.17a1.94,1.94,0,0,1,1.09.49,1.77,1.77,0,0,1,.44,1.12,7.34,7.34,0,0,1-1.05,3.79A61.42,61.42,0,0,1,184.12,436.49Z" transform="translate(-119.1 -318.31)"/><path d="M170.6,474.3l-.24-1a80.68,80.68,0,0,1,10-2.05c1.23-.1,4.51-.38,6.21-.38.92,0,3.58-.13,4.52-.22,1.52-.15,6.76-.47,8.22-.39l2.21.12c6,.3,9.3.47,15.83,2.61l-.31,1c-6.4-2.1-9.46-2.26-15.57-2.57l-2.21-.11c-1.42-.07-6.57.24-8.08.38-1,.1-3.67.23-4.61.23-1.65,0-4.9.28-6.12.38A77.82,77.82,0,0,0,170.6,474.3Z" transform="translate(-119.1 -318.31)"/><path d="M193.64,441.74a2.63,2.63,0,0,1,.27-2.75l.79.62a1.64,1.64,0,0,0-.17,1.68Z" transform="translate(-119.1 -318.31)"/><path d="M198.55,452a4,4,0,0,1,.73-2.55l.81.59a2.91,2.91,0,0,0-.54,1.89Z" transform="translate(-119.1 -318.31)"/><path d="M237,431.94l-.54-.84a4.65,4.65,0,0,1,2.54-.51h2.16a12.3,12.3,0,0,0,1.52-.06l.12,1a14.62,14.62,0,0,1-1.62.06H239A3.34,3.34,0,0,0,237,431.94Z" transform="translate(-119.1 -318.31)"/><path d="M184.25,471.49a3,3,0,0,1-.09-1.62l.05-.22a1.18,1.18,0,0,0-.36-1.36l0,0-.22.51a1.58,1.58,0,0,0-.2,1.07,1.51,1.51,0,0,0,.09.18l.07.12a4.58,4.58,0,0,1,.35,1.09l-1,.21a3.5,3.5,0,0,0-.25-.83l-.06-.1a2.1,2.1,0,0,1-.15-.3,2.35,2.35,0,0,1,.22-1.83l.29-.69a1.12,1.12,0,0,1,.82-.76l.31,0,.56.84a2.7,2.7,0,0,1,.61,1.65,2.36,2.36,0,0,1-.1.53l-.05.18a2,2,0,0,0,.07,1.07Z" transform="translate(-119.1 -318.31)"/><path d="M186.43,471.34a3,3,0,0,1-.09-1.62l.06-.22a1.86,1.86,0,0,0,.07-.34,1.89,1.89,0,0,0-.44-1l0,0-.22.51a1.59,1.59,0,0,0-.21,1.07.91.91,0,0,0,.09.17l.07.14a4,4,0,0,1,.35,1.08l-1,.21a3.5,3.5,0,0,0-.25-.83l-.06-.1a1.68,1.68,0,0,1-.15-.3,2.35,2.35,0,0,1,.22-1.83l.29-.69a1.12,1.12,0,0,1,.82-.76l.31,0,.57.84a2.69,2.69,0,0,1,.6,1.65,2.36,2.36,0,0,1-.1.53l-.05.18a2.05,2.05,0,0,0,.07,1.07Z" transform="translate(-119.1 -318.31)"/><path d="M188.65,471.13a2.89,2.89,0,0,1-.1-1.62l.06-.22a1.94,1.94,0,0,0,.07-.33,1.88,1.88,0,0,0-.44-1l0,0-.22.51a1.59,1.59,0,0,0-.21,1.07l.09.17.08.14a4,4,0,0,1,.34,1.08l-1,.22a3.05,3.05,0,0,0-.25-.84l-.06-.1a2.8,2.8,0,0,1-.15-.3,2.44,2.44,0,0,1,.22-1.83l.3-.69a1.1,1.1,0,0,1,.81-.75l.31-.05.57.84a2.76,2.76,0,0,1,.61,1.65,2.59,2.59,0,0,1-.11.54l0,.17a2,2,0,0,0,.06,1.07Z" transform="translate(-119.1 -318.31)"/><path d="M196.63,470.88a3,3,0,0,1-.09-1.62l.05-.21a1.28,1.28,0,0,0,.07-.34,1.79,1.79,0,0,0-.44-1l0,0-.22.51a1.58,1.58,0,0,0-.2,1.07.7.7,0,0,0,.09.17l.07.13a4.44,4.44,0,0,1,.35,1.09l-1,.21a3.1,3.1,0,0,0-.26-.83l-.05-.1a2.1,2.1,0,0,1-.15-.3,2.43,2.43,0,0,1,.21-1.84l.3-.68a1.12,1.12,0,0,1,.82-.76l.31,0,.56.84a2.67,2.67,0,0,1,.61,1.65,2.47,2.47,0,0,1-.1.53l-.05.17a1.94,1.94,0,0,0,.06,1.07Z" transform="translate(-119.1 -318.31)"/><path d="M182.14,471.83a2.88,2.88,0,0,1-.09-1.62l0-.21a1.37,1.37,0,0,0,.07-.34,1.79,1.79,0,0,0-.44-1l0,0-.22.51a1.63,1.63,0,0,0-.21,1.07l.09.17.08.13a4,4,0,0,1,.34,1.09l-1,.21a3.23,3.23,0,0,0-.26-.83l-.05-.1a2.1,2.1,0,0,1-.15-.3,2.43,2.43,0,0,1,.21-1.84l.3-.68a1.12,1.12,0,0,1,.82-.76l.31,0,.56.84a2.68,2.68,0,0,1,.61,1.64,3.22,3.22,0,0,1-.1.54l0,.17a2,2,0,0,0,.06,1.07Z" transform="translate(-119.1 -318.31)"/><path d="M198.69,470.93a2.88,2.88,0,0,1,0-1.62l.07-.22a2,2,0,0,0,.08-.33,1.8,1.8,0,0,0-.38-1l0,0-.25.5a1.62,1.62,0,0,0-.26,1.06,1.42,1.42,0,0,0,.08.18l.07.14a4.27,4.27,0,0,1,.29,1.1l-1,.16a3.65,3.65,0,0,0-.21-.85l0-.1a2.92,2.92,0,0,1-.14-.31,2.44,2.44,0,0,1,.31-1.82l.33-.67a1.13,1.13,0,0,1,.86-.71l.31,0,.52.87a2.64,2.64,0,0,1,.53,1.68,3,3,0,0,1-.13.52l-.06.18a2,2,0,0,0,0,1.07Z" transform="translate(-119.1 -318.31)"/><path d="M192.45,471a2.91,2.91,0,0,1,0-1.63l.07-.21a2,2,0,0,0,.08-.33,1.8,1.8,0,0,0-.38-1l0,0-.25.5a1.62,1.62,0,0,0-.26,1.06,1.42,1.42,0,0,0,.08.18l.07.13a4.34,4.34,0,0,1,.29,1.11l-1,.16a3.53,3.53,0,0,0-.21-.85l0-.1a2.92,2.92,0,0,1-.14-.31,2.44,2.44,0,0,1,.31-1.82l.33-.67a1.13,1.13,0,0,1,.86-.71l.31,0,.52.87a2.64,2.64,0,0,1,.53,1.68,3.3,3.3,0,0,1-.13.52l-.06.17a2,2,0,0,0,0,1.08Z" transform="translate(-119.1 -318.31)"/><path d="M194.43,470.94a3,3,0,0,1,0-1.63l.07-.21c0-.11.07-.22.09-.33a2,2,0,0,0-.39-1l0,0-.25.5a1.62,1.62,0,0,0-.26,1.06.89.89,0,0,0,.08.17l.07.14a4.38,4.38,0,0,1,.29,1.1l-1,.16a2.88,2.88,0,0,0-.21-.84l-.05-.11a1.6,1.6,0,0,1-.13-.3,2.35,2.35,0,0,1,.31-1.82l.33-.67a1.12,1.12,0,0,1,.85-.72l.31,0,.52.87a2.69,2.69,0,0,1,.53,1.67,3.16,3.16,0,0,1-.13.53l-.06.17a2,2,0,0,0,0,1.07Z" transform="translate(-119.1 -318.31)"/><path d="M209.85,471.67a2.67,2.67,0,0,1,.23-1.45l.09-.17c0-.09.09-.18.12-.27a1.49,1.49,0,0,0-.16-.85l-.22.31c-.21.29-.41.59-.37.83l0,.16,0,.13a3.61,3.61,0,0,1,.1,1h-1a3,3,0,0,0-.06-.75l0-.09c0-.1-.06-.2-.08-.3a2.18,2.18,0,0,1,.55-1.58l.38-.53a1,1,0,0,1,.9-.52l.31,0,.34.87a2.41,2.41,0,0,1,.22,1.57,3,3,0,0,1-.2.45l-.07.14a1.62,1.62,0,0,0-.14.9Z" transform="translate(-119.1 -318.31)"/><path d="M211.67,472a2.65,2.65,0,0,1,.23-1.44l.09-.18a1.23,1.23,0,0,0,.12-.26,1.51,1.51,0,0,0-.15-.86l-.23.31a1.41,1.41,0,0,0-.36.84.42.42,0,0,0,0,.15l0,.14a4,4,0,0,1,.09,1h-1a3,3,0,0,0-.06-.75l0-.1a2.46,2.46,0,0,1-.07-.29,2.19,2.19,0,0,1,.54-1.58l.38-.53a1.07,1.07,0,0,1,.9-.53l.31,0,.35.86a2.49,2.49,0,0,1,.21,1.57,2.25,2.25,0,0,1-.19.45l-.07.14a1.75,1.75,0,0,0-.15.9Z" transform="translate(-119.1 -318.31)"/><path d="M213.31,472.38a2.65,2.65,0,0,1,.23-1.44l.09-.18a1.5,1.5,0,0,0,.12-.27,1.42,1.42,0,0,0-.16-.85l-.22.31a1.37,1.37,0,0,0-.37.84.88.88,0,0,0,.05.15l0,.14a4,4,0,0,1,.09,1h-1a3,3,0,0,0-.06-.75l0-.1A1.53,1.53,0,0,1,212,471a2.11,2.11,0,0,1,.54-1.58l.38-.53a1.06,1.06,0,0,1,.9-.53l.31,0,.34.86a2.42,2.42,0,0,1,.22,1.57,3.21,3.21,0,0,1-.19.45l-.07.14a1.66,1.66,0,0,0-.15.9Z" transform="translate(-119.1 -318.31)"/><path d="M208,471.4a2.58,2.58,0,0,1,.23-1.5l.1-.18a1.19,1.19,0,0,0,.12-.26,1.55,1.55,0,0,0-.22-.93l0,0-.3.4c-.22.29-.44.59-.39.82a.75.75,0,0,0,.05.16l0,.14a3.5,3.5,0,0,1,.12,1l-1,0a2.57,2.57,0,0,0-.08-.76l0-.1a1.71,1.71,0,0,1-.09-.3,2.09,2.09,0,0,1,.57-1.63l.42-.54a1.15,1.15,0,0,1,.94-.51l.29,0,.38.86a2.37,2.37,0,0,1,.27,1.62,2,2,0,0,1-.21.47l-.07.14a1.44,1.44,0,0,0-.14.89Z" transform="translate(-119.1 -318.31)"/><path d="M206.35,471.17a2.66,2.66,0,0,1,.08-1.53l.08-.19a1.28,1.28,0,0,0,.09-.28,1.6,1.6,0,0,0-.31-.94v0l-.26.42c-.19.33-.37.66-.3.9a.77.77,0,0,0,.07.16l.05.13a3.5,3.5,0,0,1,.23,1l-1,.12a2.56,2.56,0,0,0-.16-.77l0-.1a1.48,1.48,0,0,1-.12-.29,2.2,2.2,0,0,1,.4-1.7l.36-.59a1.1,1.1,0,0,1,.88-.62h.3l.46.83a2.48,2.48,0,0,1,.43,1.61,2.7,2.7,0,0,1-.16.48l-.06.16a1.58,1.58,0,0,0-.05.94Z" transform="translate(-119.1 -318.31)"/><path d="M190.47,471.22a3.17,3.17,0,0,1,0-1.7l.07-.22c0-.12.07-.24.09-.37a2,2,0,0,0-.39-1.14h0l-.24.52a1.84,1.84,0,0,0-.27,1.16l.09.2.06.14a4.81,4.81,0,0,1,.29,1.16l-1,.15a3.57,3.57,0,0,0-.22-.91l-.05-.12a2.88,2.88,0,0,1-.13-.31,2.66,2.66,0,0,1,.31-1.89l.34-.72a1.12,1.12,0,0,1,.85-.75l.32,0,.52.92a2.92,2.92,0,0,1,.51,1.74,2.59,2.59,0,0,1-.13.55l0,.19a2.32,2.32,0,0,0,0,1.17Z" transform="translate(-119.1 -318.31)"/><path d="M200.67,471a2.92,2.92,0,0,1,0-1.63l.07-.22a1.67,1.67,0,0,0,.08-.32,1.8,1.8,0,0,0-.39-1v0l-.25.5a1.54,1.54,0,0,0-.26,1.05,1,1,0,0,0,.08.18l.07.14a4.38,4.38,0,0,1,.29,1.1l-1,.16a3.33,3.33,0,0,0-.21-.84l0-.11c-.05-.1-.1-.2-.14-.3a2.44,2.44,0,0,1,.31-1.82l.33-.67a1.12,1.12,0,0,1,.86-.72l.31,0,.52.86a2.74,2.74,0,0,1,.53,1.68,4.39,4.39,0,0,1-.13.52l-.06.18a1.94,1.94,0,0,0,0,1.07Z" transform="translate(-119.1 -318.31)"/><path d="M202.52,471.06a3,3,0,0,1,.06-1.63l.07-.21a1.19,1.19,0,0,0,.1-.32,1.8,1.8,0,0,0-.34-1.06l0,0-.26.48a1.65,1.65,0,0,0-.31,1,1.42,1.42,0,0,0,.08.18l.06.14a4.26,4.26,0,0,1,.24,1.11l-1,.12A3.2,3.2,0,0,0,201,470l0-.11a1.69,1.69,0,0,1-.13-.31,2.44,2.44,0,0,1,.39-1.81l.36-.65a1.12,1.12,0,0,1,.88-.68h.31l.49.89a2.7,2.7,0,0,1,.45,1.69,3.1,3.1,0,0,1-.15.52l-.06.18a2,2,0,0,0,0,1.07Z" transform="translate(-119.1 -318.31)"/><path d="M204.46,471.2a2.88,2.88,0,0,1,0-1.62l.08-.21a2.07,2.07,0,0,0,.1-.33,1.9,1.9,0,0,0-.34-1.06l0,0-.27.49a1.55,1.55,0,0,0-.3,1,.51.51,0,0,0,.07.17l.06.15a4.39,4.39,0,0,1,.25,1.11l-1,.12a3.13,3.13,0,0,0-.17-.85l-.05-.11a1.88,1.88,0,0,1-.12-.3,2.38,2.38,0,0,1,.39-1.81l.35-.66a1.12,1.12,0,0,1,.89-.68h.31l.49.89a2.71,2.71,0,0,1,.45,1.7,2.4,2.4,0,0,1-.16.52l-.06.17a2,2,0,0,0,0,1.07Z" transform="translate(-119.1 -318.31)"/><path d="M215.61,472.93l-1,0a2.65,2.65,0,0,1,.46-1.39l.11-.16a1.25,1.25,0,0,0,.16-.24,1.44,1.44,0,0,0,0-.87l-.26.27c-.26.26-.5.53-.5.77a1,1,0,0,0,0,.16l0,.14a3.65,3.65,0,0,1-.07,1l-1-.16a2.41,2.41,0,0,0,.06-.74v-.11a1.43,1.43,0,0,1,0-.29,2.18,2.18,0,0,1,.79-1.48l.46-.47a1,1,0,0,1,1-.37l.3.07.2.91a2.45,2.45,0,0,1,0,1.58,2.85,2.85,0,0,1-.26.41l-.1.13A1.69,1.69,0,0,0,215.61,472.93Z" transform="translate(-119.1 -318.31)"/><path d="M180.23,471.89a2.65,2.65,0,0,1-.1-1.55l.06-.21a2.11,2.11,0,0,0,.07-.3,1.68,1.68,0,0,0-.43-.92l0,0-.22.48a1.39,1.39,0,0,0-.21.95l.09.16.08.13a4,4,0,0,1,.35,1l-1,.23a2.43,2.43,0,0,0-.25-.76l-.05-.1a2.54,2.54,0,0,1-.16-.28,2.21,2.21,0,0,1,.22-1.77l.3-.64a1.1,1.1,0,0,1,.82-.71l.29,0,.57.78a2.58,2.58,0,0,1,.62,1.58,3.24,3.24,0,0,1-.11.51l-.05.16a1.78,1.78,0,0,0,.06,1Z" transform="translate(-119.1 -318.31)"/><path d="M171.68,473.82a2.16,2.16,0,0,0-.33-.6,2.52,2.52,0,0,1-.24-.3,1.86,1.86,0,0,1-.07-1.62l.17-.6a1,1,0,0,1,.65-.77l.28-.08.64.6a2.24,2.24,0,0,1,.81,1.32,3.47,3.47,0,0,1,0,.47l0,.14a1.34,1.34,0,0,0,.18.78l-.85.51a2.37,2.37,0,0,1-.33-1.37l0-.19a1.09,1.09,0,0,0,0-.25c0-.21-.24-.43-.48-.67l-.11.39c-.09.29-.17.62-.06.78l.09.11.09.11a3.33,3.33,0,0,1,.48.85Z" transform="translate(-119.1 -318.31)"/><path d="M173.55,473.23a3,3,0,0,0-.37-.71l-.06-.08a2.43,2.43,0,0,1-.2-.25,2.23,2.23,0,0,1-.08-1.76l.18-.67a1.09,1.09,0,0,1,.67-.84l.29-.09.68.69a2.47,2.47,0,0,1,.85,1.43,2.2,2.2,0,0,1,0,.52v.16a1.63,1.63,0,0,0,.21.94l-.86.49a2.61,2.61,0,0,1-.35-1.49l0-.21a1.68,1.68,0,0,0,0-.31c0-.27-.27-.53-.56-.83l0,0-.12.49a1.41,1.41,0,0,0-.05,1l.12.14.09.11a3.63,3.63,0,0,1,.5,1Z" transform="translate(-119.1 -318.31)"/><path d="M175.35,472.57a2.81,2.81,0,0,0-.35-.67l-.07-.08-.19-.24a2.15,2.15,0,0,1-.08-1.71l.18-.65a1.08,1.08,0,0,1,.66-.82l.29-.08.66.66a2.34,2.34,0,0,1,.83,1.39,2,2,0,0,1,0,.5V471a1.62,1.62,0,0,0,.2.89l-.86.5a2.59,2.59,0,0,1-.34-1.46l0-.2c0-.11,0-.21,0-.29a1.63,1.63,0,0,0-.54-.78l-.12.44a1.32,1.32,0,0,0,0,.91.64.64,0,0,0,.1.13l.09.11a3.69,3.69,0,0,1,.49.91Z" transform="translate(-119.1 -318.31)"/><path d="M177,472.24a3,3,0,0,0-.29-.73l-.06-.09a1.81,1.81,0,0,1-.12-2l.21-.65a1.05,1.05,0,0,1,.7-.79l.31-.07.59.75a2.54,2.54,0,0,1,.69,1.47,2.63,2.63,0,0,1-.05.49l0,.17a1.81,1.81,0,0,0,.14.95l-.91.41a2.73,2.73,0,0,1-.22-1.49l0-.2a1.55,1.55,0,0,0,0-.31,1.58,1.58,0,0,0-.42-.81l-.13.38a1.53,1.53,0,0,0-.1,1,.78.78,0,0,0,.1.15l.07.11a3.91,3.91,0,0,1,.4,1Z" transform="translate(-119.1 -318.31)"/><path d="M173.4,457h-.3a1,1,0,0,1-.79-.56l-.29-.5a1.82,1.82,0,0,1-.32-1.47,1.09,1.09,0,0,1,.1-.25,2.08,2.08,0,0,0,.16-.69l1,.12a2.74,2.74,0,0,1,0-.28l1,.25a1.29,1.29,0,0,0,0,.73l.05.13a3,3,0,0,1,.13.42,2.13,2.13,0,0,1-.38,1.38Zm-.45-3.29a3.26,3.26,0,0,1-.19.81l0,.11-.06.12c-.05.17.1.44.24.68l.12.22a1.09,1.09,0,0,0,.19-.6,1.7,1.7,0,0,0-.07-.21l-.07-.17A2.25,2.25,0,0,1,173,453.69Z" transform="translate(-119.1 -318.31)"/><path d="M175,457h-.29a1,1,0,0,1-.78-.54l-.28-.48a1.78,1.78,0,0,1-.32-1.43,1.89,1.89,0,0,1,.11-.25,2.16,2.16,0,0,0,.15-.65l1,.11a2.61,2.61,0,0,1,.06-.27l1,.25a1.16,1.16,0,0,0,0,.69l0,.12a1.7,1.7,0,0,1-.24,1.75Zm-.46-2.91a2.55,2.55,0,0,1-.15.52l0,.11a.54.54,0,0,0-.05.11c-.05.16.09.41.22.64l.11.18a1,1,0,0,0,.17-.53,1.28,1.28,0,0,0-.07-.21l-.06-.16A1.84,1.84,0,0,1,174.53,454.07Z" transform="translate(-119.1 -318.31)"/><path d="M176.4,456.94a1,1,0,0,1-.78-.51l-.3-.47a1.92,1.92,0,0,1-.42-1.41,2.33,2.33,0,0,1,.07-.25,2.62,2.62,0,0,0,.1-.7l.92,0a2.29,2.29,0,0,1,0-.25l1,.16a1.41,1.41,0,0,0,.09.73l.06.12a2.74,2.74,0,0,1,.15.4,2.16,2.16,0,0,1-.23,1.36l-.33.77-.31,0Zm-.37-2.75c0,.1,0,.21-.07.32l0,.11a.56.56,0,0,0,0,.12,1.19,1.19,0,0,0,.27.67l.09.14a1,1,0,0,0,.09-.52,1.45,1.45,0,0,0-.09-.22l-.07-.16A1.88,1.88,0,0,1,176,454.19Z" transform="translate(-119.1 -318.31)"/><path d="M178.19,456.91a1,1,0,0,1-.78-.51l-.3-.47a2,2,0,0,1-.42-1.41,2.41,2.41,0,0,1,.08-.25,2.57,2.57,0,0,0,.09-.69l.92,0a2,2,0,0,1,0-.24l1,.15a1.52,1.52,0,0,0,.09.73l.06.12a1.93,1.93,0,0,1,.15.4,2.16,2.16,0,0,1-.22,1.36l-.33.78h-.35Zm-.37-2.75a2.06,2.06,0,0,1-.07.32l0,.11a.5.5,0,0,0,0,.13c0,.17.12.43.27.67l.08.13a.87.87,0,0,0,.09-.52.67.67,0,0,0-.09-.21l-.07-.16A2.79,2.79,0,0,1,177.82,454.16Z" transform="translate(-119.1 -318.31)"/><path d="M181.71,456.69a1,1,0,0,1-.77-.51l-.31-.47a1.91,1.91,0,0,1-.41-1.41,1.17,1.17,0,0,1,.07-.25,2.22,2.22,0,0,0,.09-.69l.92,0,0-.24,1,.15a1.31,1.31,0,0,0,.09.73l.05.12a1.93,1.93,0,0,1,.15.4,2.1,2.1,0,0,1-.22,1.36l-.33.77-.31,0Zm-.37-2.75a1.32,1.32,0,0,1-.07.32l0,.11a.5.5,0,0,0,0,.13c0,.17.12.43.27.67l.09.13a.93.93,0,0,0,.08-.52,1.43,1.43,0,0,0-.08-.22l-.08-.16A2.44,2.44,0,0,1,181.34,453.94Z" transform="translate(-119.1 -318.31)"/><path d="M179.9,456.85a1,1,0,0,1-.78-.51l-.3-.46a1.92,1.92,0,0,1-.42-1.41,2.5,2.5,0,0,1,.07-.26,2.45,2.45,0,0,0,.1-.69l.92,0a2.29,2.29,0,0,1,0-.25l1,.15a1.38,1.38,0,0,0,.09.73l0,.12a2,2,0,0,1,.16.4,2.19,2.19,0,0,1-.23,1.37l-.33.77h-.34Zm-.37-2.75c0,.11,0,.22-.07.33l0,.11s0,.08,0,.12a1.14,1.14,0,0,0,.28.67l.08.13a1,1,0,0,0,.09-.52,1.89,1.89,0,0,0-.09-.21l-.07-.16A2.54,2.54,0,0,1,179.53,454.1Z" transform="translate(-119.1 -318.31)"/><path d="M184.59,456.89l-.16,0a1.38,1.38,0,0,1-.91-1,2.07,2.07,0,0,1-.33-1.5s0-.21,0-.39,0-.43,0-.55l1,.11c0,.1,0,.3,0,.48a2.38,2.38,0,0,1,0,.61,1.17,1.17,0,0,0,.23.69,1.85,1.85,0,0,1,.09.23l0,.09a2.42,2.42,0,0,0,.08-.69,7,7,0,0,1,0-1.7l1,.22a8.4,8.4,0,0,0,0,1.32,2.72,2.72,0,0,1-.49,1.88A.71.71,0,0,1,184.59,456.89Z" transform="translate(-119.1 -318.31)"/><path d="M186,456.75l-.32-.05c-.23,0-.49-.14-.92-1.15a1.94,1.94,0,0,1-.16-1.46s0-.21,0-.38.07-.43.09-.55l1,.2c0,.11-.05.3-.07.49a2.77,2.77,0,0,1-.12.6,1.22,1.22,0,0,0,.16.71l0,.1a1.45,1.45,0,0,0,.19-.47,7.73,7.73,0,0,1,.21-1.68l.94.33a7.74,7.74,0,0,0-.15,1.31,3.54,3.54,0,0,1-.75,1.73Z" transform="translate(-119.1 -318.31)"/><path d="M183.35,456.71H183c-.17,0-.45,0-1-1a1.78,1.78,0,0,1-.29-1.36s0-.19,0-.35,0-.4,0-.52l1,.11c0,.1,0,.28,0,.45a2.25,2.25,0,0,1,0,.58c0,.16.12.45.21.61l0,0a1.2,1.2,0,0,0,.12-.39,7.13,7.13,0,0,1,0-1.58l1,.23a6.14,6.14,0,0,0,0,1.21,3.37,3.37,0,0,1-.55,1.71Z" transform="translate(-119.1 -318.31)"/><path d="M187.79,457h-.31c-.24,0-.51-.1-1-1.06a1.93,1.93,0,0,1-.3-1.44s0-.2,0-.38,0-.43,0-.56l1,.11c0,.11,0,.3,0,.48a3.19,3.19,0,0,1-.05.62,1.17,1.17,0,0,0,.22.69l.06.1a2,2,0,0,0,.14-.49,8.15,8.15,0,0,1,0-1.69l1,.23a6.43,6.43,0,0,0,0,1.31,3.85,3.85,0,0,1-.57,1.81Z" transform="translate(-119.1 -318.31)"/><path d="M192.57,457.42l-.3-.06c-.22,0-.49-.17-.87-1.2a1.89,1.89,0,0,1-.09-1.48s0-.2.07-.37.09-.43.12-.55l1,.27c0,.11-.07.3-.11.48a3.49,3.49,0,0,1-.14.59c-.08.16,0,.45.11.71l.06.15a2,2,0,0,0,.24-.5,7.83,7.83,0,0,1,.31-1.66l.92.38a8.18,8.18,0,0,0-.23,1.29,3.37,3.37,0,0,1-.87,1.7Z" transform="translate(-119.1 -318.31)"/><path d="M189.44,457.08h-.31c-.17,0-.47,0-1-1.06a1.93,1.93,0,0,1-.31-1.44s0-.2,0-.38,0-.43,0-.55l1,.1c0,.11,0,.3,0,.49a3.15,3.15,0,0,1-.05.61,1.15,1.15,0,0,0,.22.69l.06.1a1.9,1.9,0,0,0,.14-.49,8.15,8.15,0,0,1,0-1.69l1,.23a7.24,7.24,0,0,0,0,1.31,3.85,3.85,0,0,1-.57,1.81Z" transform="translate(-119.1 -318.31)"/><path d="M190.9,457.17l-.31-.06c-.17,0-.45-.07-.88-1.18a1.94,1.94,0,0,1-.11-1.47s0-.2.06-.37.08-.43.11-.55l1,.24a4.71,4.71,0,0,0-.09.48,3.43,3.43,0,0,1-.13.6,1.23,1.23,0,0,0,.12.71l.05.1a1.55,1.55,0,0,0,.2-.46,8.05,8.05,0,0,1,.26-1.67l.94.35a7.2,7.2,0,0,0-.2,1.31,3.6,3.6,0,0,1-.8,1.71Z" transform="translate(-119.1 -318.31)"/><path d="M194.44,457.82l-.3-.06c-.17,0-.46-.08-.87-1.2a1.88,1.88,0,0,1-.09-1.48s0-.19.08-.37a5.15,5.15,0,0,1,.12-.54l1,.26c0,.11-.07.3-.1.48a4.1,4.1,0,0,1-.15.6c-.08.16,0,.45.11.7l.06.15a2.41,2.41,0,0,0,.25-.49,7.22,7.22,0,0,1,.3-1.67l.92.39a7,7,0,0,0-.22,1.29,3.58,3.58,0,0,1-.88,1.7Z" transform="translate(-119.1 -318.31)"/><path d="M196,458l-.31-.06c-.17,0-.45-.08-.87-1.2a1.88,1.88,0,0,1-.08-1.48s0-.2.07-.37.09-.42.12-.54l1,.26c0,.11-.07.3-.11.48a2.39,2.39,0,0,1-.15.6,1.12,1.12,0,0,0,.12.7l.06.15a2,2,0,0,0,.24-.49,7.31,7.31,0,0,1,.31-1.67l.92.39a7.8,7.8,0,0,0-.23,1.29,3.44,3.44,0,0,1-.87,1.7Z" transform="translate(-119.1 -318.31)"/><path d="M203.77,459.44l-.25,0c-.15,0-.45-.07-.9-1a1.4,1.4,0,0,1-.1-1.35,1.17,1.17,0,0,1,0-.24c.05-.17.09-.35.13-.45l.94.33c0,.08-.06.22-.1.36a1.75,1.75,0,0,1-.16.52s0,.11.14.38l.09.17a1.59,1.59,0,0,0,.27-.39,4.32,4.32,0,0,1,.3-1.35l.89.48a4.17,4.17,0,0,0-.2.93c0,.12,0,.5-.92,1.44Z" transform="translate(-119.1 -318.31)"/><path d="M205.43,460l-.25,0c-.14,0-.45-.07-.9-1a1.38,1.38,0,0,1-.1-1.34h0a1.17,1.17,0,0,1,0-.24c.05-.17.09-.35.13-.45l.94.33c0,.08-.06.22-.1.36a1.75,1.75,0,0,1-.16.52s0,.12.14.38a1.4,1.4,0,0,0,.09.17,1.59,1.59,0,0,0,.27-.39,4.58,4.58,0,0,1,.3-1.34l.89.47a4.17,4.17,0,0,0-.2.93c0,.12,0,.5-.92,1.44Z" transform="translate(-119.1 -318.31)"/><path d="M201.85,459.06l-.25-.05c-.15,0-.44-.07-.9-1a1.39,1.39,0,0,1-.1-1.34,2.17,2.17,0,0,1,.06-.25,3.24,3.24,0,0,1,.12-.44l.94.33a3.46,3.46,0,0,0-.09.35,2,2,0,0,1-.17.53s0,.12.14.37l.09.18a1.81,1.81,0,0,0,.27-.39,4.39,4.39,0,0,1,.31-1.35l.88.47a5,5,0,0,0-.2.93c0,.13,0,.5-.92,1.44Zm.06-1Z" transform="translate(-119.1 -318.31)"/><path d="M200,458.73l-.28-.05c-.16,0-.45-.08-.89-1.11a1.64,1.64,0,0,1-.1-1.43s0-.16.07-.32.09-.39.12-.5l1,.29c0,.1-.07.27-.11.43a2.37,2.37,0,0,1-.15.57c-.07.12.06.43.13.57l.07.18a1.52,1.52,0,0,0,.27-.47,6.51,6.51,0,0,1,.31-1.54l.91.42a6.27,6.27,0,0,0-.22,1.15c0,.13,0,.53-.91,1.6Z" transform="translate(-119.1 -318.31)"/><path d="M198,458.41l-.3-.05c-.16,0-.46-.08-.89-1.17a1.85,1.85,0,0,1-.09-1.47s0-.19.07-.36.09-.41.13-.53l1,.28c0,.1-.07.28-.11.46a2.39,2.39,0,0,1-.15.59c-.08.15.05.48.12.66s.05.12.08.17a2.34,2.34,0,0,0,.27-.5,6.62,6.62,0,0,1,.31-1.63l.91.41a6.35,6.35,0,0,0-.22,1.24,3.31,3.31,0,0,1-.91,1.67Z" transform="translate(-119.1 -318.31)"/><path d="M207.31,460.54l-.23,0c-.12,0-.43-.06-.9-.87a1.19,1.19,0,0,1-.1-1.29s0-.08,0-.19.09-.31.13-.4l.93.37a2.25,2.25,0,0,0-.09.3,1.43,1.43,0,0,1-.18.48s.06.09.15.23a1.08,1.08,0,0,0,.11.18,2.38,2.38,0,0,0,.27-.32,3.68,3.68,0,0,1,.32-1.22l.86.52a3.32,3.32,0,0,0-.18.77c0,.12,0,.48-1,1.33Zm.05-1Zm.07-.49h0Z" transform="translate(-119.1 -318.31)"/><path d="M208.84,461l-.25,0c-.15,0-.44-.07-.9-1a1.38,1.38,0,0,1-.09-1.35,1.17,1.17,0,0,1,.05-.24,4,4,0,0,1,.12-.45l.94.33-.09.36a2,2,0,0,1-.17.52s0,.13.14.38l.09.17a1.67,1.67,0,0,0,.27-.39,4.34,4.34,0,0,1,.31-1.34l.88.47a4.81,4.81,0,0,0-.2.93c0,.14,0,.49-.92,1.44Z" transform="translate(-119.1 -318.31)"/><path d="M210.33,461.59l-.26,0c-.14,0-.44-.08-.89-1a1.38,1.38,0,0,1-.1-1.34h0a1.17,1.17,0,0,1,0-.24,3.72,3.72,0,0,1,.13-.45l.94.33c0,.08-.06.22-.1.36a1.55,1.55,0,0,1-.16.51s0,.13.14.38a1.51,1.51,0,0,0,.09.18,1.92,1.92,0,0,0,.27-.39,4.32,4.32,0,0,1,.3-1.35l.89.47a4.25,4.25,0,0,0-.2.94c0,.13,0,.49-.92,1.43Z" transform="translate(-119.1 -318.31)"/><path d="M211.71,462.15l-.24,0c-.13,0-.41-.06-.81-.84a1.15,1.15,0,0,1-.09-1.2s0-.07,0-.17.08-.29.11-.37l.94.34-.08.28a1.47,1.47,0,0,1-.15.45s.05.08.12.21l0,.05.14-.19a3.71,3.71,0,0,1,.27-1.13l.88.48a3.57,3.57,0,0,0-.16.72c0,.1,0,.45-.81,1.24Zm.08-1Zm-.09-.47v0Z" transform="translate(-119.1 -318.31)"/></g><g class="teeth"><path d="M184.25,471.49a3,3,0,0,1-.09-1.62l.05-.22a1.18,1.18,0,0,0-.36-1.36l0,0-.22.51a1.58,1.58,0,0,0-.2,1.07,1.51,1.51,0,0,0,.09.18l.07.12a4.58,4.58,0,0,1,.35,1.09l-1,.21a3.5,3.5,0,0,0-.25-.83l-.06-.1a2.1,2.1,0,0,1-.15-.3,2.35,2.35,0,0,1,.22-1.83l.29-.69a1.12,1.12,0,0,1,.82-.76l.31,0,.56.84a2.7,2.7,0,0,1,.61,1.65,2.36,2.36,0,0,1-.1.53l-.05.18a2,2,0,0,0,.07,1.07Z" transform="translate(-119.1 -318.31)"/><path d="M186.43,471.34a3,3,0,0,1-.09-1.62l.06-.22a1.86,1.86,0,0,0,.07-.34,1.89,1.89,0,0,0-.44-1l0,0-.22.51a1.59,1.59,0,0,0-.21,1.07.91.91,0,0,0,.09.17l.07.14a4,4,0,0,1,.35,1.08l-1,.21a3.5,3.5,0,0,0-.25-.83l-.06-.1a1.68,1.68,0,0,1-.15-.3,2.35,2.35,0,0,1,.22-1.83l.29-.69a1.12,1.12,0,0,1,.82-.76l.31,0,.57.84a2.69,2.69,0,0,1,.6,1.65,2.36,2.36,0,0,1-.1.53l-.05.18a2.05,2.05,0,0,0,.07,1.07Z" transform="translate(-119.1 -318.31)"/><path d="M188.65,471.13a2.89,2.89,0,0,1-.1-1.62l.06-.22a1.94,1.94,0,0,0,.07-.33,1.88,1.88,0,0,0-.44-1l0,0-.22.51a1.59,1.59,0,0,0-.21,1.07l.09.17.08.14a4,4,0,0,1,.34,1.08l-1,.22a3.05,3.05,0,0,0-.25-.84l-.06-.1a2.8,2.8,0,0,1-.15-.3,2.44,2.44,0,0,1,.22-1.83l.3-.69a1.1,1.1,0,0,1,.81-.75l.31-.05.57.84a2.76,2.76,0,0,1,.61,1.65,2.59,2.59,0,0,1-.11.54l0,.17a2,2,0,0,0,.06,1.07Z" transform="translate(-119.1 -318.31)"/><path d="M196.63,470.88a3,3,0,0,1-.09-1.62l.05-.21a1.28,1.28,0,0,0,.07-.34,1.79,1.79,0,0,0-.44-1l0,0-.22.51a1.58,1.58,0,0,0-.2,1.07.7.7,0,0,0,.09.17l.07.13a4.44,4.44,0,0,1,.35,1.09l-1,.21a3.1,3.1,0,0,0-.26-.83l-.05-.1a2.1,2.1,0,0,1-.15-.3,2.43,2.43,0,0,1,.21-1.84l.3-.68a1.12,1.12,0,0,1,.82-.76l.31,0,.56.84a2.67,2.67,0,0,1,.61,1.65,2.47,2.47,0,0,1-.1.53l-.05.17a1.94,1.94,0,0,0,.06,1.07Z" transform="translate(-119.1 -318.31)"/><path d="M182.14,471.83a2.88,2.88,0,0,1-.09-1.62l0-.21a1.37,1.37,0,0,0,.07-.34,1.79,1.79,0,0,0-.44-1l0,0-.22.51a1.63,1.63,0,0,0-.21,1.07l.09.17.08.13a4,4,0,0,1,.34,1.09l-1,.21a3.23,3.23,0,0,0-.26-.83l-.05-.1a2.1,2.1,0,0,1-.15-.3,2.43,2.43,0,0,1,.21-1.84l.3-.68a1.12,1.12,0,0,1,.82-.76l.31,0,.56.84a2.68,2.68,0,0,1,.61,1.64,3.22,3.22,0,0,1-.1.54l0,.17a2,2,0,0,0,.06,1.07Z" transform="translate(-119.1 -318.31)"/><path d="M198.69,470.93a2.88,2.88,0,0,1,0-1.62l.07-.22a2,2,0,0,0,.08-.33,1.8,1.8,0,0,0-.38-1l0,0-.25.5a1.62,1.62,0,0,0-.26,1.06,1.42,1.42,0,0,0,.08.18l.07.14a4.27,4.27,0,0,1,.29,1.1l-1,.16a3.65,3.65,0,0,0-.21-.85l0-.1a2.92,2.92,0,0,1-.14-.31,2.44,2.44,0,0,1,.31-1.82l.33-.67a1.13,1.13,0,0,1,.86-.71l.31,0,.52.87a2.64,2.64,0,0,1,.53,1.68,3,3,0,0,1-.13.52l-.06.18a2,2,0,0,0,0,1.07Z" transform="translate(-119.1 -318.31)"/><path d="M192.45,471a2.91,2.91,0,0,1,0-1.63l.07-.21a2,2,0,0,0,.08-.33,1.8,1.8,0,0,0-.38-1l0,0-.25.5a1.62,1.62,0,0,0-.26,1.06,1.42,1.42,0,0,0,.08.18l.07.13a4.34,4.34,0,0,1,.29,1.11l-1,.16a3.53,3.53,0,0,0-.21-.85l0-.1a2.92,2.92,0,0,1-.14-.31,2.44,2.44,0,0,1,.31-1.82l.33-.67a1.13,1.13,0,0,1,.86-.71l.31,0,.52.87a2.64,2.64,0,0,1,.53,1.68,3.3,3.3,0,0,1-.13.52l-.06.17a2,2,0,0,0,0,1.08Z" transform="translate(-119.1 -318.31)"/><path d="M194.43,470.94a3,3,0,0,1,0-1.63l.07-.21c0-.11.07-.22.09-.33a2,2,0,0,0-.39-1l0,0-.25.5a1.62,1.62,0,0,0-.26,1.06.89.89,0,0,0,.08.17l.07.14a4.38,4.38,0,0,1,.29,1.1l-1,.16a2.88,2.88,0,0,0-.21-.84l-.05-.11a1.6,1.6,0,0,1-.13-.3,2.35,2.35,0,0,1,.31-1.82l.33-.67a1.12,1.12,0,0,1,.85-.72l.31,0,.52.87a2.69,2.69,0,0,1,.53,1.67,3.16,3.16,0,0,1-.13.53l-.06.17a2,2,0,0,0,0,1.07Z" transform="translate(-119.1 -318.31)"/><path d="M209.85,471.67a2.67,2.67,0,0,1,.23-1.45l.09-.17c0-.09.09-.18.12-.27a1.49,1.49,0,0,0-.16-.85l-.22.31c-.21.29-.41.59-.37.83l0,.16,0,.13a3.61,3.61,0,0,1,.1,1h-1a3,3,0,0,0-.06-.75l0-.09c0-.1-.06-.2-.08-.3a2.18,2.18,0,0,1,.55-1.58l.38-.53a1,1,0,0,1,.9-.52l.31,0,.34.87a2.41,2.41,0,0,1,.22,1.57,3,3,0,0,1-.2.45l-.07.14a1.62,1.62,0,0,0-.14.9Z" transform="translate(-119.1 -318.31)"/><path d="M211.67,472a2.65,2.65,0,0,1,.23-1.44l.09-.18a1.23,1.23,0,0,0,.12-.26,1.51,1.51,0,0,0-.15-.86l-.23.31a1.41,1.41,0,0,0-.36.84.42.42,0,0,0,0,.15l0,.14a4,4,0,0,1,.09,1h-1a3,3,0,0,0-.06-.75l0-.1a2.46,2.46,0,0,1-.07-.29,2.19,2.19,0,0,1,.54-1.58l.38-.53a1.07,1.07,0,0,1,.9-.53l.31,0,.35.86a2.49,2.49,0,0,1,.21,1.57,2.25,2.25,0,0,1-.19.45l-.07.14a1.75,1.75,0,0,0-.15.9Z" transform="translate(-119.1 -318.31)"/><path d="M213.31,472.38a2.65,2.65,0,0,1,.23-1.44l.09-.18a1.5,1.5,0,0,0,.12-.27,1.42,1.42,0,0,0-.16-.85l-.22.31a1.37,1.37,0,0,0-.37.84.88.88,0,0,0,.05.15l0,.14a4,4,0,0,1,.09,1h-1a3,3,0,0,0-.06-.75l0-.1A1.53,1.53,0,0,1,212,471a2.11,2.11,0,0,1,.54-1.58l.38-.53a1.06,1.06,0,0,1,.9-.53l.31,0,.34.86a2.42,2.42,0,0,1,.22,1.57,3.21,3.21,0,0,1-.19.45l-.07.14a1.66,1.66,0,0,0-.15.9Z" transform="translate(-119.1 -318.31)"/><path d="M208,471.4a2.58,2.58,0,0,1,.23-1.5l.1-.18a1.19,1.19,0,0,0,.12-.26,1.55,1.55,0,0,0-.22-.93l0,0-.3.4c-.22.29-.44.59-.39.82a.75.75,0,0,0,.05.16l0,.14a3.5,3.5,0,0,1,.12,1l-1,0a2.57,2.57,0,0,0-.08-.76l0-.1a1.71,1.71,0,0,1-.09-.3,2.09,2.09,0,0,1,.57-1.63l.42-.54a1.15,1.15,0,0,1,.94-.51l.29,0,.38.86a2.37,2.37,0,0,1,.27,1.62,2,2,0,0,1-.21.47l-.07.14a1.44,1.44,0,0,0-.14.89Z" transform="translate(-119.1 -318.31)"/><path d="M206.35,471.17a2.66,2.66,0,0,1,.08-1.53l.08-.19a1.28,1.28,0,0,0,.09-.28,1.6,1.6,0,0,0-.31-.94v0l-.26.42c-.19.33-.37.66-.3.9a.77.77,0,0,0,.07.16l.05.13a3.5,3.5,0,0,1,.23,1l-1,.12a2.56,2.56,0,0,0-.16-.77l0-.1a1.48,1.48,0,0,1-.12-.29,2.2,2.2,0,0,1,.4-1.7l.36-.59a1.1,1.1,0,0,1,.88-.62h.3l.46.83a2.48,2.48,0,0,1,.43,1.61,2.7,2.7,0,0,1-.16.48l-.06.16a1.58,1.58,0,0,0-.05.94Z" transform="translate(-119.1 -318.31)"/><path d="M190.47,471.22a3.17,3.17,0,0,1,0-1.7l.07-.22c0-.12.07-.24.09-.37a2,2,0,0,0-.39-1.14h0l-.24.52a1.84,1.84,0,0,0-.27,1.16l.09.2.06.14a4.81,4.81,0,0,1,.29,1.16l-1,.15a3.57,3.57,0,0,0-.22-.91l-.05-.12a2.88,2.88,0,0,1-.13-.31,2.66,2.66,0,0,1,.31-1.89l.34-.72a1.12,1.12,0,0,1,.85-.75l.32,0,.52.92a2.92,2.92,0,0,1,.51,1.74,2.59,2.59,0,0,1-.13.55l0,.19a2.32,2.32,0,0,0,0,1.17Z" transform="translate(-119.1 -318.31)"/><path d="M200.67,471a2.92,2.92,0,0,1,0-1.63l.07-.22a1.67,1.67,0,0,0,.08-.32,1.8,1.8,0,0,0-.39-1v0l-.25.5a1.54,1.54,0,0,0-.26,1.05,1,1,0,0,0,.08.18l.07.14a4.38,4.38,0,0,1,.29,1.1l-1,.16a3.33,3.33,0,0,0-.21-.84l0-.11c-.05-.1-.1-.2-.14-.3a2.44,2.44,0,0,1,.31-1.82l.33-.67a1.12,1.12,0,0,1,.86-.72l.31,0,.52.86a2.74,2.74,0,0,1,.53,1.68,4.39,4.39,0,0,1-.13.52l-.06.18a1.94,1.94,0,0,0,0,1.07Z" transform="translate(-119.1 -318.31)"/><path d="M202.52,471.06a3,3,0,0,1,.06-1.63l.07-.21a1.19,1.19,0,0,0,.1-.32,1.8,1.8,0,0,0-.34-1.06l0,0-.26.48a1.65,1.65,0,0,0-.31,1,1.42,1.42,0,0,0,.08.18l.06.14a4.26,4.26,0,0,1,.24,1.11l-1,.12A3.2,3.2,0,0,0,201,470l0-.11a1.69,1.69,0,0,1-.13-.31,2.44,2.44,0,0,1,.39-1.81l.36-.65a1.12,1.12,0,0,1,.88-.68h.31l.49.89a2.7,2.7,0,0,1,.45,1.69,3.1,3.1,0,0,1-.15.52l-.06.18a2,2,0,0,0,0,1.07Z" transform="translate(-119.1 -318.31)"/><path d="M204.46,471.2a2.88,2.88,0,0,1,0-1.62l.08-.21a2.07,2.07,0,0,0,.1-.33,1.9,1.9,0,0,0-.34-1.06l0,0-.27.49a1.55,1.55,0,0,0-.3,1,.51.51,0,0,0,.07.17l.06.15a4.39,4.39,0,0,1,.25,1.11l-1,.12a3.13,3.13,0,0,0-.17-.85l-.05-.11a1.88,1.88,0,0,1-.12-.3,2.38,2.38,0,0,1,.39-1.81l.35-.66a1.12,1.12,0,0,1,.89-.68h.31l.49.89a2.71,2.71,0,0,1,.45,1.7,2.4,2.4,0,0,1-.16.52l-.06.17a2,2,0,0,0,0,1.07Z" transform="translate(-119.1 -318.31)"/><path d="M215.61,472.93l-1,0a2.65,2.65,0,0,1,.46-1.39l.11-.16a1.25,1.25,0,0,0,.16-.24,1.44,1.44,0,0,0,0-.87l-.26.27c-.26.26-.5.53-.5.77a1,1,0,0,0,0,.16l0,.14a3.65,3.65,0,0,1-.07,1l-1-.16a2.41,2.41,0,0,0,.06-.74v-.11a1.43,1.43,0,0,1,0-.29,2.18,2.18,0,0,1,.79-1.48l.46-.47a1,1,0,0,1,1-.37l.3.07.2.91a2.45,2.45,0,0,1,0,1.58,2.85,2.85,0,0,1-.26.41l-.1.13A1.69,1.69,0,0,0,215.61,472.93Z" transform="translate(-119.1 -318.31)"/><path d="M180.23,471.89a2.65,2.65,0,0,1-.1-1.55l.06-.21a2.11,2.11,0,0,0,.07-.3,1.68,1.68,0,0,0-.43-.92l0,0-.22.48a1.39,1.39,0,0,0-.21.95l.09.16.08.13a4,4,0,0,1,.35,1l-1,.23a2.43,2.43,0,0,0-.25-.76l-.05-.1a2.54,2.54,0,0,1-.16-.28,2.21,2.21,0,0,1,.22-1.77l.3-.64a1.1,1.1,0,0,1,.82-.71l.29,0,.57.78a2.58,2.58,0,0,1,.62,1.58,3.24,3.24,0,0,1-.11.51l-.05.16a1.78,1.78,0,0,0,.06,1Z" transform="translate(-119.1 -318.31)"/><path d="M171.68,473.82a2.16,2.16,0,0,0-.33-.6,2.52,2.52,0,0,1-.24-.3,1.86,1.86,0,0,1-.07-1.62l.17-.6a1,1,0,0,1,.65-.77l.28-.08.64.6a2.24,2.24,0,0,1,.81,1.32,3.47,3.47,0,0,1,0,.47l0,.14a1.34,1.34,0,0,0,.18.78l-.85.51a2.37,2.37,0,0,1-.33-1.37l0-.19a1.09,1.09,0,0,0,0-.25c0-.21-.24-.43-.48-.67l-.11.39c-.09.29-.17.62-.06.78l.09.11.09.11a3.33,3.33,0,0,1,.48.85Z" transform="translate(-119.1 -318.31)"/><path d="M173.55,473.23a3,3,0,0,0-.37-.71l-.06-.08a2.43,2.43,0,0,1-.2-.25,2.23,2.23,0,0,1-.08-1.76l.18-.67a1.09,1.09,0,0,1,.67-.84l.29-.09.68.69a2.47,2.47,0,0,1,.85,1.43,2.2,2.2,0,0,1,0,.52v.16a1.63,1.63,0,0,0,.21.94l-.86.49a2.61,2.61,0,0,1-.35-1.49l0-.21a1.68,1.68,0,0,0,0-.31c0-.27-.27-.53-.56-.83l0,0-.12.49a1.41,1.41,0,0,0-.05,1l.12.14.09.11a3.63,3.63,0,0,1,.5,1Z" transform="translate(-119.1 -318.31)"/><path d="M175.35,472.57a2.81,2.81,0,0,0-.35-.67l-.07-.08-.19-.24a2.15,2.15,0,0,1-.08-1.71l.18-.65a1.08,1.08,0,0,1,.66-.82l.29-.08.66.66a2.34,2.34,0,0,1,.83,1.39,2,2,0,0,1,0,.5V471a1.62,1.62,0,0,0,.2.89l-.86.5a2.59,2.59,0,0,1-.34-1.46l0-.2c0-.11,0-.21,0-.29a1.63,1.63,0,0,0-.54-.78l-.12.44a1.32,1.32,0,0,0,0,.91.64.64,0,0,0,.1.13l.09.11a3.69,3.69,0,0,1,.49.91Z" transform="translate(-119.1 -318.31)"/><path d="M177,472.24a3,3,0,0,0-.29-.73l-.06-.09a1.81,1.81,0,0,1-.12-2l.21-.65a1.05,1.05,0,0,1,.7-.79l.31-.07.59.75a2.54,2.54,0,0,1,.69,1.47,2.63,2.63,0,0,1-.05.49l0,.17a1.81,1.81,0,0,0,.14.95l-.91.41a2.73,2.73,0,0,1-.22-1.49l0-.2a1.55,1.55,0,0,0,0-.31,1.58,1.58,0,0,0-.42-.81l-.13.38a1.53,1.53,0,0,0-.1,1,.78.78,0,0,0,.1.15l.07.11a3.91,3.91,0,0,1,.4,1Z" transform="translate(-119.1 -318.31)"/><path d="M173.4,457h-.3a1,1,0,0,1-.79-.56l-.29-.5a1.82,1.82,0,0,1-.32-1.47,1.09,1.09,0,0,1,.1-.25,2.08,2.08,0,0,0,.16-.69l1,.12a2.74,2.74,0,0,1,0-.28l1,.25a1.29,1.29,0,0,0,0,.73l.05.13a3,3,0,0,1,.13.42,2.13,2.13,0,0,1-.38,1.38Zm-.45-3.29a3.26,3.26,0,0,1-.19.81l0,.11-.06.12c-.05.17.1.44.24.68l.12.22a1.09,1.09,0,0,0,.19-.6,1.7,1.7,0,0,0-.07-.21l-.07-.17A2.25,2.25,0,0,1,173,453.69Z" transform="translate(-119.1 -318.31)"/><path d="M175,457h-.29a1,1,0,0,1-.78-.54l-.28-.48a1.78,1.78,0,0,1-.32-1.43,1.89,1.89,0,0,1,.11-.25,2.16,2.16,0,0,0,.15-.65l1,.11a2.61,2.61,0,0,1,.06-.27l1,.25a1.16,1.16,0,0,0,0,.69l0,.12a1.7,1.7,0,0,1-.24,1.75Zm-.46-2.91a2.55,2.55,0,0,1-.15.52l0,.11a.54.54,0,0,0-.05.11c-.05.16.09.41.22.64l.11.18a1,1,0,0,0,.17-.53,1.28,1.28,0,0,0-.07-.21l-.06-.16A1.84,1.84,0,0,1,174.53,454.07Z" transform="translate(-119.1 -318.31)"/><path d="M176.4,456.94a1,1,0,0,1-.78-.51l-.3-.47a1.92,1.92,0,0,1-.42-1.41,2.33,2.33,0,0,1,.07-.25,2.62,2.62,0,0,0,.1-.7l.92,0a2.29,2.29,0,0,1,0-.25l1,.16a1.41,1.41,0,0,0,.09.73l.06.12a2.74,2.74,0,0,1,.15.4,2.16,2.16,0,0,1-.23,1.36l-.33.77-.31,0Zm-.37-2.75c0,.1,0,.21-.07.32l0,.11a.56.56,0,0,0,0,.12,1.19,1.19,0,0,0,.27.67l.09.14a1,1,0,0,0,.09-.52,1.45,1.45,0,0,0-.09-.22l-.07-.16A1.88,1.88,0,0,1,176,454.19Z" transform="translate(-119.1 -318.31)"/><path d="M178.19,456.91a1,1,0,0,1-.78-.51l-.3-.47a2,2,0,0,1-.42-1.41,2.41,2.41,0,0,1,.08-.25,2.57,2.57,0,0,0,.09-.69l.92,0a2,2,0,0,1,0-.24l1,.15a1.52,1.52,0,0,0,.09.73l.06.12a1.93,1.93,0,0,1,.15.4,2.16,2.16,0,0,1-.22,1.36l-.33.78h-.35Zm-.37-2.75a2.06,2.06,0,0,1-.07.32l0,.11a.5.5,0,0,0,0,.13c0,.17.12.43.27.67l.08.13a.87.87,0,0,0,.09-.52.67.67,0,0,0-.09-.21l-.07-.16A2.79,2.79,0,0,1,177.82,454.16Z" transform="translate(-119.1 -318.31)"/><path d="M181.71,456.69a1,1,0,0,1-.77-.51l-.31-.47a1.91,1.91,0,0,1-.41-1.41,1.17,1.17,0,0,1,.07-.25,2.22,2.22,0,0,0,.09-.69l.92,0,0-.24,1,.15a1.31,1.31,0,0,0,.09.73l.05.12a1.93,1.93,0,0,1,.15.4,2.1,2.1,0,0,1-.22,1.36l-.33.77-.31,0Zm-.37-2.75a1.32,1.32,0,0,1-.07.32l0,.11a.5.5,0,0,0,0,.13c0,.17.12.43.27.67l.09.13a.93.93,0,0,0,.08-.52,1.43,1.43,0,0,0-.08-.22l-.08-.16A2.44,2.44,0,0,1,181.34,453.94Z" transform="translate(-119.1 -318.31)"/><path d="M179.9,456.85a1,1,0,0,1-.78-.51l-.3-.46a1.92,1.92,0,0,1-.42-1.41,2.5,2.5,0,0,1,.07-.26,2.45,2.45,0,0,0,.1-.69l.92,0a2.29,2.29,0,0,1,0-.25l1,.15a1.38,1.38,0,0,0,.09.73l0,.12a2,2,0,0,1,.16.4,2.19,2.19,0,0,1-.23,1.37l-.33.77h-.34Zm-.37-2.75c0,.11,0,.22-.07.33l0,.11s0,.08,0,.12a1.14,1.14,0,0,0,.28.67l.08.13a1,1,0,0,0,.09-.52,1.89,1.89,0,0,0-.09-.21l-.07-.16A2.54,2.54,0,0,1,179.53,454.1Z" transform="translate(-119.1 -318.31)"/><path d="M184.59,456.89l-.16,0a1.38,1.38,0,0,1-.91-1,2.07,2.07,0,0,1-.33-1.5s0-.21,0-.39,0-.43,0-.55l1,.11c0,.1,0,.3,0,.48a2.38,2.38,0,0,1,0,.61,1.17,1.17,0,0,0,.23.69,1.85,1.85,0,0,1,.09.23l0,.09a2.42,2.42,0,0,0,.08-.69,7,7,0,0,1,0-1.7l1,.22a8.4,8.4,0,0,0,0,1.32,2.72,2.72,0,0,1-.49,1.88A.71.71,0,0,1,184.59,456.89Z" transform="translate(-119.1 -318.31)"/><path d="M186,456.75l-.32-.05c-.23,0-.49-.14-.92-1.15a1.94,1.94,0,0,1-.16-1.46s0-.21,0-.38.07-.43.09-.55l1,.2c0,.11-.05.3-.07.49a2.77,2.77,0,0,1-.12.6,1.22,1.22,0,0,0,.16.71l0,.1a1.45,1.45,0,0,0,.19-.47,7.73,7.73,0,0,1,.21-1.68l.94.33a7.74,7.74,0,0,0-.15,1.31,3.54,3.54,0,0,1-.75,1.73Z" transform="translate(-119.1 -318.31)"/><path d="M183.35,456.71H183c-.17,0-.45,0-1-1a1.78,1.78,0,0,1-.29-1.36s0-.19,0-.35,0-.4,0-.52l1,.11c0,.1,0,.28,0,.45a2.25,2.25,0,0,1,0,.58c0,.16.12.45.21.61l0,0a1.2,1.2,0,0,0,.12-.39,7.13,7.13,0,0,1,0-1.58l1,.23a6.14,6.14,0,0,0,0,1.21,3.37,3.37,0,0,1-.55,1.71Z" transform="translate(-119.1 -318.31)"/><path d="M187.79,457h-.31c-.24,0-.51-.1-1-1.06a1.93,1.93,0,0,1-.3-1.44s0-.2,0-.38,0-.43,0-.56l1,.11c0,.11,0,.3,0,.48a3.19,3.19,0,0,1-.05.62,1.17,1.17,0,0,0,.22.69l.06.1a2,2,0,0,0,.14-.49,8.15,8.15,0,0,1,0-1.69l1,.23a6.43,6.43,0,0,0,0,1.31,3.85,3.85,0,0,1-.57,1.81Z" transform="translate(-119.1 -318.31)"/><path d="M192.57,457.42l-.3-.06c-.22,0-.49-.17-.87-1.2a1.89,1.89,0,0,1-.09-1.48s0-.2.07-.37.09-.43.12-.55l1,.27c0,.11-.07.3-.11.48a3.49,3.49,0,0,1-.14.59c-.08.16,0,.45.11.71l.06.15a2,2,0,0,0,.24-.5,7.83,7.83,0,0,1,.31-1.66l.92.38a8.18,8.18,0,0,0-.23,1.29,3.37,3.37,0,0,1-.87,1.7Z" transform="translate(-119.1 -318.31)"/><path d="M189.44,457.08h-.31c-.17,0-.47,0-1-1.06a1.93,1.93,0,0,1-.31-1.44s0-.2,0-.38,0-.43,0-.55l1,.1c0,.11,0,.3,0,.49a3.15,3.15,0,0,1-.05.61,1.15,1.15,0,0,0,.22.69l.06.1a1.9,1.9,0,0,0,.14-.49,8.15,8.15,0,0,1,0-1.69l1,.23a7.24,7.24,0,0,0,0,1.31,3.85,3.85,0,0,1-.57,1.81Z" transform="translate(-119.1 -318.31)"/><path d="M190.9,457.17l-.31-.06c-.17,0-.45-.07-.88-1.18a1.94,1.94,0,0,1-.11-1.47s0-.2.06-.37.08-.43.11-.55l1,.24a4.71,4.71,0,0,0-.09.48,3.43,3.43,0,0,1-.13.6,1.23,1.23,0,0,0,.12.71l.05.1a1.55,1.55,0,0,0,.2-.46,8.05,8.05,0,0,1,.26-1.67l.94.35a7.2,7.2,0,0,0-.2,1.31,3.6,3.6,0,0,1-.8,1.71Z" transform="translate(-119.1 -318.31)"/><path d="M194.44,457.82l-.3-.06c-.17,0-.46-.08-.87-1.2a1.88,1.88,0,0,1-.09-1.48s0-.19.08-.37a5.15,5.15,0,0,1,.12-.54l1,.26c0,.11-.07.3-.1.48a4.1,4.1,0,0,1-.15.6c-.08.16,0,.45.11.7l.06.15a2.41,2.41,0,0,0,.25-.49,7.22,7.22,0,0,1,.3-1.67l.92.39a7,7,0,0,0-.22,1.29,3.58,3.58,0,0,1-.88,1.7Z" transform="translate(-119.1 -318.31)"/><path d="M196,458l-.31-.06c-.17,0-.45-.08-.87-1.2a1.88,1.88,0,0,1-.08-1.48s0-.2.07-.37.09-.42.12-.54l1,.26c0,.11-.07.3-.11.48a2.39,2.39,0,0,1-.15.6,1.12,1.12,0,0,0,.12.7l.06.15a2,2,0,0,0,.24-.49,7.31,7.31,0,0,1,.31-1.67l.92.39a7.8,7.8,0,0,0-.23,1.29,3.44,3.44,0,0,1-.87,1.7Z" transform="translate(-119.1 -318.31)"/><path d="M203.77,459.44l-.25,0c-.15,0-.45-.07-.9-1a1.4,1.4,0,0,1-.1-1.35,1.17,1.17,0,0,1,0-.24c.05-.17.09-.35.13-.45l.94.33c0,.08-.06.22-.1.36a1.75,1.75,0,0,1-.16.52s0,.11.14.38l.09.17a1.59,1.59,0,0,0,.27-.39,4.32,4.32,0,0,1,.3-1.35l.89.48a4.17,4.17,0,0,0-.2.93c0,.12,0,.5-.92,1.44Z" transform="translate(-119.1 -318.31)"/><path d="M205.43,460l-.25,0c-.14,0-.45-.07-.9-1a1.38,1.38,0,0,1-.1-1.34h0a1.17,1.17,0,0,1,0-.24c.05-.17.09-.35.13-.45l.94.33c0,.08-.06.22-.1.36a1.75,1.75,0,0,1-.16.52s0,.12.14.38a1.4,1.4,0,0,0,.09.17,1.59,1.59,0,0,0,.27-.39,4.58,4.58,0,0,1,.3-1.34l.89.47a4.17,4.17,0,0,0-.2.93c0,.12,0,.5-.92,1.44Z" transform="translate(-119.1 -318.31)"/><path d="M201.85,459.06l-.25-.05c-.15,0-.44-.07-.9-1a1.39,1.39,0,0,1-.1-1.34,2.17,2.17,0,0,1,.06-.25,3.24,3.24,0,0,1,.12-.44l.94.33a3.46,3.46,0,0,0-.09.35,2,2,0,0,1-.17.53s0,.12.14.37l.09.18a1.81,1.81,0,0,0,.27-.39,4.39,4.39,0,0,1,.31-1.35l.88.47a5,5,0,0,0-.2.93c0,.13,0,.5-.92,1.44Zm.06-1Z" transform="translate(-119.1 -318.31)"/><path d="M200,458.73l-.28-.05c-.16,0-.45-.08-.89-1.11a1.64,1.64,0,0,1-.1-1.43s0-.16.07-.32.09-.39.12-.5l1,.29c0,.1-.07.27-.11.43a2.37,2.37,0,0,1-.15.57c-.07.12.06.43.13.57l.07.18a1.52,1.52,0,0,0,.27-.47,6.51,6.51,0,0,1,.31-1.54l.91.42a6.27,6.27,0,0,0-.22,1.15c0,.13,0,.53-.91,1.6Z" transform="translate(-119.1 -318.31)"/><path d="M198,458.41l-.3-.05c-.16,0-.46-.08-.89-1.17a1.85,1.85,0,0,1-.09-1.47s0-.19.07-.36.09-.41.13-.53l1,.28c0,.1-.07.28-.11.46a2.39,2.39,0,0,1-.15.59c-.08.15.05.48.12.66s.05.12.08.17a2.34,2.34,0,0,0,.27-.5,6.62,6.62,0,0,1,.31-1.63l.91.41a6.35,6.35,0,0,0-.22,1.24,3.31,3.31,0,0,1-.91,1.67Z" transform="translate(-119.1 -318.31)"/><path d="M207.31,460.54l-.23,0c-.12,0-.43-.06-.9-.87a1.19,1.19,0,0,1-.1-1.29s0-.08,0-.19.09-.31.13-.4l.93.37a2.25,2.25,0,0,0-.09.3,1.43,1.43,0,0,1-.18.48s.06.09.15.23a1.08,1.08,0,0,0,.11.18,2.38,2.38,0,0,0,.27-.32,3.68,3.68,0,0,1,.32-1.22l.86.52a3.32,3.32,0,0,0-.18.77c0,.12,0,.48-1,1.33Zm.05-1Zm.07-.49h0Z" transform="translate(-119.1 -318.31)"/><path d="M208.84,461l-.25,0c-.15,0-.44-.07-.9-1a1.38,1.38,0,0,1-.09-1.35,1.17,1.17,0,0,1,.05-.24,4,4,0,0,1,.12-.45l.94.33-.09.36a2,2,0,0,1-.17.52s0,.13.14.38l.09.17a1.67,1.67,0,0,0,.27-.39,4.34,4.34,0,0,1,.31-1.34l.88.47a4.81,4.81,0,0,0-.2.93c0,.14,0,.49-.92,1.44Z" transform="translate(-119.1 -318.31)"/><path d="M210.33,461.59l-.26,0c-.14,0-.44-.08-.89-1a1.38,1.38,0,0,1-.1-1.34h0a1.17,1.17,0,0,1,0-.24,3.72,3.72,0,0,1,.13-.45l.94.33c0,.08-.06.22-.1.36a1.55,1.55,0,0,1-.16.51s0,.13.14.38a1.51,1.51,0,0,0,.09.18,1.92,1.92,0,0,0,.27-.39,4.32,4.32,0,0,1,.3-1.35l.89.47a4.25,4.25,0,0,0-.2.94c0,.13,0,.49-.92,1.43Z" transform="translate(-119.1 -318.31)"/><path d="M211.71,462.15l-.24,0c-.13,0-.41-.06-.81-.84a1.15,1.15,0,0,1-.09-1.2s0-.07,0-.17.08-.29.11-.37l.94.34-.08.28a1.47,1.47,0,0,1-.15.45s.05.08.12.21l0,.05.14-.19a3.71,3.71,0,0,1,.27-1.13l.88.48a3.57,3.57,0,0,0-.16.72c0,.1,0,.45-.81,1.24Zm.08-1Zm-.09-.47v0Z" transform="translate(-119.1 -318.31)"/></g><g class="fenestra"><path d="M132.66,468.1a4.79,4.79,0,0,1-1.63-.47c-1.31-.68-.55-5.33-.22-6a18.06,18.06,0,0,1,1-1.75,48.44,48.44,0,0,0,2.58-4.78,18.89,18.89,0,0,1,2.22-3.13l.32-.4a11.87,11.87,0,0,1,.89-1c.29-.31.58-.61.84-.94a13.28,13.28,0,0,0,.76-1.1,14,14,0,0,1,.91-1.31,13.09,13.09,0,0,1,2.76-2.3,72.2,72.2,0,0,1,10.82-6.51,11.69,11.69,0,0,1,1.88-.59,5.4,5.4,0,0,0,2.56-1.12,22.14,22.14,0,0,0,2.26-2.79l.83-1.12a21,21,0,0,1,3.05-3.22h0c1.59-1.32,3-2.65,4.36-3.94s2.79-2.65,4.39-4c2.33-1.94,2.86-2.14,3.28-1.75s0,1.12-.4,1.67a16.8,16.8,0,0,1-3,3.4,48.29,48.29,0,0,0-6.28,6.39c-.44.54-.85,1.11-1.26,1.68a25.11,25.11,0,0,1-2.36,2.94c-.58.6-1.21,1.14-1.83,1.67s-1,.85-1.47,1.3a38.21,38.21,0,0,0-6.41,8.9c-.85,1.46-1.73,3-2.75,4.51a26.88,26.88,0,0,0-3.06,8.23c-.28,1.68-.66,3.29-2.35,4.53-1.14.84-2.85.51-4.36.21a12.61,12.61,0,0,0-2-.28h0a4.21,4.21,0,0,0-2.94,1.36,6.15,6.15,0,0,1-3.24,1.69Zm32.44-37.77a20.74,20.74,0,0,0-2.89,3.06c-.27.35-.54.72-.82,1.1A22.75,22.75,0,0,1,159,437.4a6.1,6.1,0,0,1-3,1.38,9.77,9.77,0,0,0-1.71.54,71,71,0,0,0-10.66,6.42,11.9,11.9,0,0,0-2.56,2.11,12.3,12.3,0,0,0-.84,1.21,12.53,12.53,0,0,1-.82,1.18c-.28.36-.59.68-.9,1s-.57.6-.83.92l-.32.4a19,19,0,0,0-2.1,2.94,50,50,0,0,1-2.62,4.86c-.4.68-.72,1.22-.93,1.66-.41.88-.62,4.29-.2,4.73a3.7,3.7,0,0,0,1.16.34,5.17,5.17,0,0,0,2.74-1.46A5.14,5.14,0,0,1,139,464h0a12.86,12.86,0,0,1,2.15.3c1.37.27,2.79.54,3.58,0,1.27-.93,1.65-2,1.95-3.89a28.16,28.16,0,0,1,3.22-8.62c1-1.52,1.87-3,2.71-4.47a39.39,39.39,0,0,1,6.58-9.11c.49-.47,1-.91,1.52-1.34s1.22-1,1.77-1.6a24.92,24.92,0,0,0,2.26-2.84c.42-.58.84-1.16,1.29-1.72a49.15,49.15,0,0,1,6.42-6.52,14.81,14.81,0,0,0,2.35-2.58l-1,.78c-1.58,1.32-3,2.65-4.34,3.94s-2.8,2.65-4.41,4Z" transform="translate(-119.1 -318.31)"/><path d="M226.51,436.8c-3,0-6.48-1.67-7.44-4.95a10.43,10.43,0,0,1-.24-3.51h0c.25-3.85,1.46-11,6.73-15.81,3.65-3.31,6.38-3.16,10.9-2.92,1.87.1,4,.21,6.66.13,2.18-.05,4.7,1.36,6.42,2.57a8,8,0,0,1,3.13,6c0,2.47-2.55,4.46-4.42,5.92a27,27,0,0,1-3.59,2.23c-.72.39-1.47.8-2.17,1.24a42.53,42.53,0,0,0-4.41,3.34c-.9.75-1.83,1.51-2.78,2.22-3.09,2.31-5.9,3.46-8.59,3.52Zm-6.68-8.4a9.22,9.22,0,0,0,.2,3.17c.83,2.83,4.06,4.29,6.65,4.23s5.1-1.14,8-3.32c.94-.69,1.85-1.45,2.74-2.19a43.82,43.82,0,0,1,4.52-3.41c.72-.46,1.48-.88,2.22-1.28a26,26,0,0,0,3.45-2.13c1.71-1.34,4.06-3.16,4-5.13a7,7,0,0,0-2.71-5.21c-1.59-1.12-3.89-2.46-5.81-2.39-2.72.08-4.85,0-6.74-.14-4.55-.24-6.83-.36-10.18,2.67-5,4.55-6.16,11.43-6.4,15.13Z" transform="translate(-119.1 -318.31)"/><path d="M238.92,444.65a5,5,0,0,1-3-.76,2.41,2.41,0,0,1-.93-2.2,11.77,11.77,0,0,1,2.41-5.56,27.07,27.07,0,0,1,3.82-4.14,10.79,10.79,0,0,0,.8-.82,10.47,10.47,0,0,1,2.77-2.39,33.92,33.92,0,0,0,7.55-5.11l1.12-.89a21.26,21.26,0,0,0,2.72-2.38c.3-.34.59-.7.89-1a21.35,21.35,0,0,1,2.15-2.33,10.83,10.83,0,0,1,9-2.48,1.89,1.89,0,0,1,1,.4,1.86,1.86,0,0,1,.55,1.14,17.16,17.16,0,0,1-.11,5.32,10.72,10.72,0,0,1-.9,3.58,10.54,10.54,0,0,1-3.57,3.55c-.44.32-.88.64-1.29,1a29,29,0,0,0-3.38,3.36,36.49,36.49,0,0,1-2.88,3,37.2,37.2,0,0,1-3.8,2.81,39.62,39.62,0,0,1-8.79,4.88A22,22,0,0,1,238.92,444.65Zm27.42-29.28a9.91,9.91,0,0,0-6.46,2.4,20.81,20.81,0,0,0-2.05,2.22c-.29.36-.59.72-.9,1.07a22,22,0,0,1-2.85,2.51c-.39.3-.76.59-1.1.87a34.21,34.21,0,0,1-7.75,5.24,10.07,10.07,0,0,0-2.47,2.17c-.35.37-.65.69-.89.9a26.81,26.81,0,0,0-3.69,4,10.84,10.84,0,0,0-2.19,5,1.43,1.43,0,0,0,.53,1.34c1.59,1.2,6.17.16,8.14-.53h0a38.63,38.63,0,0,0,8.57-4.77,26.82,26.82,0,0,0,6.5-5.61,31.78,31.78,0,0,1,3.49-3.47c.43-.35.88-.67,1.34-1a9.7,9.7,0,0,0,3.26-3.2,9.58,9.58,0,0,0,.8-3.25,16.14,16.14,0,0,0,.12-5,1,1,0,0,0-.23-.58,1.14,1.14,0,0,0-.49-.17A9.46,9.46,0,0,0,266.34,415.37Z" transform="translate(-119.1 -318.31)"/>
	</g>
</svg>