<svg xmlns="http://www.w3.org/2000/svg" viewBox="0 0 352.46 185.71">
  <defs>
    <style>
      path {
        fill: none;
        stroke: #000;
        stroke-miterlimit: 10;
      }
    </style>
  </defs>
  <title>Parasaurolophus walker</title>
  <metadata>
        <phyloxml xmlns:xsi="http://www.w3.org/2001/XMLSchema-instance" xmlns="http://www.phyloxml.org" xsi:schemaLocation="http://www.phyloxml.org http://www.phyloxml.org/1.10/phyloxml.xsd">
            <phylogeny rooted="true" rerootable="false">
                <clade>
                    <name>Animalia</name>
                    <clade>
                        <name>Chordata</name>
                        <clade>
                            <name>Dinosauria</name>
                            <clade>
                                <name>Ornithischia</name>
                                <clade>
                                    <name>Ornithopoda</name>
                                    <clade>
                                        <name>Hadrosauridae</name>
                                        <clade>
                                            <name>Parasaurolophini</name>
                                            <clade>
                                                <name>Parasaurolophus</name>
                                            </clade>
                                        </clade>
                                    </clade>
                                </clade>
                            </clade>
                        </clade>
                    </clade>
                </clade>
            </phylogeny>
        </phyloxml>
    </metadata>
  <g class="outline">
    <path class="cls-1" d="M264.11,407c-2.91-.44-8.17-.49-8.73-1.34-.64-2.54,2.1-4.7,4.58-5.54,7.16-2.45,18.93-8.06,28.43-13.35,8.33-4.63,17.49-6.22,25.51-8.75,10.49-3.3,19.24-9.25,34.85-14.14,14.15-4.43,26.21-9.33,40.95-11s37.86.66,50.45,8.5c5.32,3.32,3.06,6.28,8.75,8.92s13,2.45,17.84-1.48c4.67-3.76,7.05-9.69,5.15-15.38s-5.51-8.17-9.94-12.2c-23.62-21.47-53.84-23-90.09-19.49-25.12,2.46-50,6.79-78,17-40.79,14.86-75.4,38.34-109.9,62.67a146.07,146.07,0,0,0-26.26,23.12c-9.58,11.06-22.21,23-27.33,30.3-2.07,2.95-6.4,1.71-8.26,4.79s-1,10.12,1.49,12.72c1.18,1.23,4.45,1.66,6,2.47,4.39,2.39,3.17,6.22,8.09,7.11,6.44,1.15,8.91.49,12.38-5.78,1-1.89.47-8.43,1.32-10.41,1.77-4.08,6.6-7,11-11.06,4.38-.25,5-1.05,9-.83,1.17.07.62,2.41,1.78,2.48,2.24.12,8.33-.52,10.56-.48a108.48,108.48,0,0,1,18.17,2.46,64.77,64.77,0,0,1,10.61,3.55c.49.23,3.06,4.61,3.8,8.29-6.38-2.05-14.82-2.14-21.52-2.26-5.32-.1-16.31.27-20.92,2.31-3,1.34-1.95,2.57-3.05,3.43-3.14,2.43-6.93,4.91-10.21,7.25-3,2.14-2.65,4-4.63,7.71a11.42,11.42,0,0,0-8.5.2c-2.46,1.16-4.76,2.8-7.44,3.32-2.86.57-6.39,0-8.15,2.35s0,6.06,2.52,7.84c5.85,4.15,14,2.94,20.54,0a34,34,0,0,1,4.9-2,42,42,0,0,1,6.05-.85c5.91-.72,11.48-3.1,17.27-4.5a72.24,72.24,0,0,1,23.61-1.27c10.13.93,20.07,3.44,30.09,1.72,7.93-1.37,17.95-6.28,26.47-10.74,2.87-1.5,6.37-2.53,8.61-4.88s3.7-5.68,3-8.85a5.19,5.19,0,0,0-2.88-3.76,3.26,3.26,0,0,0-4.17,1.52c-.79-7.14-1.72-14.57.28-21.47a26.42,26.42,0,0,1,14.11-16.19c1.4,3.38.16,7.77-1.86,10.82s-4.61,5.23-5.24,8.83c-.33,2.56,7.81-2.41,10.28-6.07s3.87-7.95,6.14-11.74c3.36-5.6,8.79-10.52,9.12-17a4.63,4.63,0,0,0-.33-2.19,4.9,4.9,0,0,0-2.08-1.92C286.19,404.79,278,409.8,264.11,407Z" transform="translate(-120.59 -319.81)"/>
  </g>
  <g class="teeth">
    <path class="cls-1" d="M183.42,471.34a4,4,0,0,0-.3-1c-.06-.12-.14-.23-.19-.35a2,2,0,0,1,.22-1.46l.29-.68c.09-.2.21-.43.43-.46l.39.58a2.22,2.22,0,0,1,.52,1.34,4.7,4.7,0,0,1-.13.63,2.45,2.45,0,0,0,.07,1.34" transform="translate(-120.59 -319.81)"/>
    <path class="cls-1" d="M185.6,471.19a3.57,3.57,0,0,0-.3-1c-.06-.12-.14-.23-.19-.35a2,2,0,0,1,.22-1.46l.29-.68c.09-.2.21-.43.43-.46l.39.58a2.3,2.3,0,0,1,.53,1.34,4.75,4.75,0,0,1-.14.63,2.45,2.45,0,0,0,.07,1.34" transform="translate(-120.59 -319.81)"/>
    <path class="cls-1" d="M187.81,471a3.57,3.57,0,0,0-.3-1c-.06-.12-.13-.23-.18-.35a1.92,1.92,0,0,1,.21-1.45l.3-.69c.08-.2.2-.43.42-.46l.39.58a2.24,2.24,0,0,1,.53,1.34,4.75,4.75,0,0,1-.14.63,2.48,2.48,0,0,0,.08,1.35" transform="translate(-120.59 -319.81)"/>
    <path class="cls-1" d="M195.8,470.73a3.89,3.89,0,0,0-.3-1c-.06-.12-.14-.23-.19-.36a1.92,1.92,0,0,1,.21-1.45l.3-.68c.09-.21.21-.44.43-.47l.39.59a2.26,2.26,0,0,1,.52,1.33,3.38,3.38,0,0,1-.14.63,2.48,2.48,0,0,0,.08,1.35" transform="translate(-120.59 -319.81)"/>
    <path class="cls-1" d="M181.31,471.68a4.11,4.11,0,0,0-.3-1,2.37,2.37,0,0,1-.19-.35,1.92,1.92,0,0,1,.21-1.45l.3-.69c.08-.2.21-.43.42-.46l.4.59a2.26,2.26,0,0,1,.52,1.33,3.38,3.38,0,0,1-.14.63,2.48,2.48,0,0,0,.08,1.35" transform="translate(-120.59 -319.81)"/>
    <path class="cls-1" d="M197.87,470.74a3.74,3.74,0,0,0-.26-1,3.92,3.92,0,0,1-.16-.36,1.93,1.93,0,0,1,.28-1.44l.33-.67c.1-.19.23-.42.45-.43l.36.6a2.17,2.17,0,0,1,.46,1.36,3.58,3.58,0,0,1-.17.62,2.48,2.48,0,0,0,0,1.35" transform="translate(-120.59 -319.81)"/>
    <path class="cls-1" d="M191.63,470.83a3.64,3.64,0,0,0-.26-1,3.92,3.92,0,0,1-.16-.36,1.93,1.93,0,0,1,.28-1.44l.33-.67c.1-.19.23-.42.45-.44l.36.61a2.15,2.15,0,0,1,.46,1.36,3.58,3.58,0,0,1-.17.62,2.48,2.48,0,0,0,0,1.35" transform="translate(-120.59 -319.81)"/>
    <path class="cls-1" d="M193.61,470.74a4.07,4.07,0,0,0-.25-1,2.92,2.92,0,0,1-.17-.36,2,2,0,0,1,.28-1.44l.33-.67c.1-.2.23-.42.45-.44l.37.6a2.24,2.24,0,0,1,.45,1.36,3.45,3.45,0,0,1-.17.63,2.48,2.48,0,0,0,0,1.35" transform="translate(-120.59 -319.81)"/>
    <path class="cls-1" d="M209.22,471.37a3.28,3.28,0,0,0-.08-.88,3.37,3.37,0,0,1-.09-.34,1.66,1.66,0,0,1,.45-1.2l.39-.54c.11-.15.26-.33.45-.31l.23.57a2,2,0,0,1,.2,1.25,4.74,4.74,0,0,1-.24.51,2.19,2.19,0,0,0-.19,1.18" transform="translate(-120.59 -319.81)"/>
    <path class="cls-1" d="M211,471.69a3.65,3.65,0,0,0-.07-.88,1.91,1.91,0,0,1-.1-.34,1.72,1.72,0,0,1,.46-1.21l.38-.53c.11-.16.26-.33.45-.32l.23.58a1.94,1.94,0,0,1,.2,1.24,3,3,0,0,1-.23.52,2.05,2.05,0,0,0-.19,1.17" transform="translate(-120.59 -319.81)"/>
    <path class="cls-1" d="M212.68,472.09a3.21,3.21,0,0,0-.08-.88c0-.12-.07-.23-.09-.34a1.72,1.72,0,0,1,.46-1.21l.38-.53c.11-.16.26-.33.45-.32l.23.58a1.93,1.93,0,0,1,.2,1.24,3.48,3.48,0,0,1-.24.52,2.13,2.13,0,0,0-.18,1.17" transform="translate(-120.59 -319.81)"/>
    <path class="cls-1" d="M207.26,471.06a3,3,0,0,0-.1-.9,2.35,2.35,0,0,1-.11-.35,1.62,1.62,0,0,1,.48-1.23l.41-.53c.13-.16.29-.34.5-.32l.27.6a1.87,1.87,0,0,1,.24,1.27,2.84,2.84,0,0,1-.25.53,1.94,1.94,0,0,0-.18,1.19" transform="translate(-120.59 -319.81)"/>
    <path class="cls-1" d="M205.58,470.92a3.36,3.36,0,0,0-.2-.9c0-.12-.11-.23-.14-.35a1.69,1.69,0,0,1,.35-1.29l.36-.59a.61.61,0,0,1,.46-.38l.32.58a2,2,0,0,1,.37,1.27,4.18,4.18,0,0,1-.2.56,2.06,2.06,0,0,0-.06,1.23" transform="translate(-120.59 -319.81)"/>
    <path class="cls-1" d="M189.65,471a4,4,0,0,0-.25-1c-.05-.13-.12-.25-.16-.38a2.2,2.2,0,0,1,.29-1.53l.33-.72c.1-.21.23-.44.45-.46l.36.63a2.64,2.64,0,0,1,.45,1.45,5,5,0,0,1-.18.66,2.77,2.77,0,0,0,0,1.43" transform="translate(-120.59 -319.81)"/>
    <path class="cls-1" d="M199.84,470.81a3.55,3.55,0,0,0-.25-1c-.05-.12-.12-.24-.16-.36a1.92,1.92,0,0,1,.28-1.44l.33-.67c.1-.2.23-.42.45-.44l.36.6a2.25,2.25,0,0,1,.46,1.36,4.5,4.5,0,0,1-.17.63,2.44,2.44,0,0,0,0,1.34" transform="translate(-120.59 -319.81)"/>
    <path class="cls-1" d="M201.7,470.83a3.65,3.65,0,0,0-.21-1c-.05-.13-.11-.24-.15-.37a2,2,0,0,1,.35-1.43l.36-.65c.1-.19.24-.41.46-.42l.34.62a2.23,2.23,0,0,1,.4,1.38,4.35,4.35,0,0,1-.2.61,2.48,2.48,0,0,0-.05,1.35" transform="translate(-120.59 -319.81)"/>
    <path class="cls-1" d="M203.64,471a3.65,3.65,0,0,0-.21-1c-.05-.12-.11-.24-.15-.37a2,2,0,0,1,.34-1.42l.36-.66c.11-.19.25-.41.47-.42l.34.62a2.26,2.26,0,0,1,.39,1.38,3.31,3.31,0,0,1-.19.61,2.48,2.48,0,0,0-.05,1.35" transform="translate(-120.59 -319.81)"/>
    <path class="cls-1" d="M214,472.5a3.69,3.69,0,0,0,.06-.88c0-.12,0-.23,0-.35a1.75,1.75,0,0,1,.64-1.12l.46-.47c.14-.13.31-.28.5-.24l.14.61a2,2,0,0,1,0,1.26,3.88,3.88,0,0,1-.32.47,2.08,2.08,0,0,0-.37,1.13" transform="translate(-120.59 -319.81)"/>
    <path class="cls-1" d="M179.39,471.73a3.18,3.18,0,0,0-.3-.9,3.54,3.54,0,0,1-.19-.33,1.75,1.75,0,0,1,.22-1.36l.29-.64c.09-.19.21-.4.43-.43l.39.55a2.06,2.06,0,0,1,.53,1.25,3.77,3.77,0,0,1-.14.58,2.09,2.09,0,0,0,.08,1.26" transform="translate(-120.59 -319.81)"/>
    <path class="cls-1" d="M172.14,473.62a2.82,2.82,0,0,0-.4-.72c-.07-.09-.16-.17-.22-.26a1.44,1.44,0,0,1,0-1.2l.17-.6c.05-.17.13-.38.32-.43l.43.41a1.73,1.73,0,0,1,.65,1,2.37,2.37,0,0,1,0,.53,1.76,1.76,0,0,0,.26,1.07" transform="translate(-120.59 -319.81)"/>
    <path class="cls-1" d="M174,473a3.63,3.63,0,0,0-.43-.83,2.31,2.31,0,0,1-.24-.29,1.73,1.73,0,0,1,0-1.36l.18-.67c.05-.2.13-.43.34-.49l.46.47A1.94,1.94,0,0,1,175,471a4,4,0,0,1,0,.6,2.18,2.18,0,0,0,.28,1.22" transform="translate(-120.59 -319.81)"/>
    <path class="cls-1" d="M175.81,472.38a3.17,3.17,0,0,0-.42-.79c-.07-.09-.16-.18-.23-.28a1.65,1.65,0,0,1,0-1.31l.17-.65c.05-.19.13-.41.33-.47l.45.45a1.93,1.93,0,0,1,.68,1.09,3.82,3.82,0,0,1,0,.58,2.11,2.11,0,0,0,.27,1.17" transform="translate(-120.59 -319.81)"/>
    <path class="cls-1" d="M177.48,472.09a3.71,3.71,0,0,0-.35-.85c-.06-.1-.14-.2-.19-.3a1.79,1.79,0,0,1,.07-1.34l.2-.65c.06-.19.15-.41.35-.45l.39.5a2,2,0,0,1,.58,1.17,5.93,5.93,0,0,1-.07.59,2.28,2.28,0,0,0,.17,1.21" transform="translate(-120.59 -319.81)"/>
    <path class="cls-1" d="M172.46,453.56a2.64,2.64,0,0,1-.16.74c0,.1-.09.19-.12.29a1.37,1.37,0,0,0,.27,1.07l.29.5c.08.14.2.31.37.31l.27-.47a1.72,1.72,0,0,0,.31-1.05,3.53,3.53,0,0,0-.15-.46,1.81,1.81,0,0,1,0-1" transform="translate(-120.59 -319.81)"/>
    <path class="cls-1" d="M174.08,453.68a2.44,2.44,0,0,1-.16.71c0,.1-.09.18-.12.28a1.32,1.32,0,0,0,.27,1l.28.47c.08.14.19.3.36.31L175,456a1.58,1.58,0,0,0,.3-1,3.81,3.81,0,0,0-.15-.44,1.72,1.72,0,0,1,0-1" transform="translate(-120.59 -319.81)"/>
    <path class="cls-1" d="M175.57,453.62a3.06,3.06,0,0,1-.09.74c0,.1-.07.19-.09.29a1.49,1.49,0,0,0,.35,1l.3.46c.09.14.21.29.37.29l.2-.48a1.71,1.71,0,0,0,.2-1,3.52,3.52,0,0,0-.18-.45,1.8,1.8,0,0,1-.12-1" transform="translate(-120.59 -319.81)"/>
    <path class="cls-1" d="M177.36,453.59a3.14,3.14,0,0,1-.09.75,2.29,2.29,0,0,0-.09.28,1.51,1.51,0,0,0,.35,1l.3.46c.09.14.21.29.37.29l.21-.48a1.77,1.77,0,0,0,.2-1.05,2.53,2.53,0,0,0-.19-.45,1.89,1.89,0,0,1-.12-1" transform="translate(-120.59 -319.81)"/>
    <path class="cls-1" d="M180.88,453.37a2.37,2.37,0,0,1-.09.75c0,.09-.06.18-.08.28a1.45,1.45,0,0,0,.34,1l.31.46c.09.14.2.29.36.29l.21-.48a1.7,1.7,0,0,0,.2-1,3.52,3.52,0,0,0-.18-.45,1.8,1.8,0,0,1-.13-1" transform="translate(-120.59 -319.81)"/>
    <path class="cls-1" d="M179.07,453.54a3.06,3.06,0,0,1-.09.74c0,.1-.07.19-.09.28a1.46,1.46,0,0,0,.35,1l.3.47c.09.14.21.29.37.28l.2-.48a1.69,1.69,0,0,0,.2-1.05,4.07,4.07,0,0,0-.18-.44,1.91,1.91,0,0,1-.12-1" transform="translate(-120.59 -319.81)"/>
    <path class="cls-1" d="M183.73,453.5c0,.25,0,.93-.06,1a1.47,1.47,0,0,0,.27,1.06c.09.17.12.65.61.8s.58-1.13.52-1.49a7.74,7.74,0,0,1,0-1.51" transform="translate(-120.59 -319.81)"/>
    <path class="cls-1" d="M185.25,453.26c-.05.25-.13.92-.16,1a1.47,1.47,0,0,0,.15,1.08c.08.17.37.84.53.86a4,4,0,0,0,.67-1.44,7.48,7.48,0,0,1,.18-1.49" transform="translate(-120.59 -319.81)"/>
    <path class="cls-1" d="M182.29,453.53c0,.23,0,.85-.06.94a1.38,1.38,0,0,0,.25,1c.08.15.43.74.58.74a3.84,3.84,0,0,0,.49-1.39,6.74,6.74,0,0,1,0-1.4" transform="translate(-120.59 -319.81)"/>
    <path class="cls-1" d="M186.68,453.57c0,.25,0,.92-.06,1a1.49,1.49,0,0,0,.26,1.07c.09.16.45.79.61.8A4.08,4.08,0,0,0,188,455a7.83,7.83,0,0,1,0-1.51" transform="translate(-120.59 -319.81)"/>
    <path class="cls-1" d="M192,453.9c-.07.24-.19.9-.23,1a1.44,1.44,0,0,0,.1,1.09c.07.18.34.86.5.89.11-.14.78-1,.77-1.39a7.52,7.52,0,0,1,.27-1.49" transform="translate(-120.59 -319.81)"/>
    <path class="cls-1" d="M188.33,453.69c0,.25,0,.92-.06,1a1.47,1.47,0,0,0,.26,1.06c.09.16.46.79.62.8a4.27,4.27,0,0,0,.52-1.5,6.94,6.94,0,0,1,0-1.5" transform="translate(-120.59 -319.81)"/>
    <path class="cls-1" d="M190.25,453.66c-.06.24-.15.91-.19,1a1.45,1.45,0,0,0,.12,1.09c.06.17.34.84.5.87a4.23,4.23,0,0,0,.71-1.41,7.88,7.88,0,0,1,.23-1.49" transform="translate(-120.59 -319.81)"/>
    <path class="cls-1" d="M193.86,454.3c-.07.24-.18.91-.23,1a1.44,1.44,0,0,0,.1,1.09c.07.17.34.85.5.88a4.18,4.18,0,0,0,.78-1.39,6.87,6.87,0,0,1,.26-1.49" transform="translate(-120.59 -319.81)"/>
    <path class="cls-1" d="M195.45,454.52c-.06.24-.18.91-.22,1a1.44,1.44,0,0,0,.1,1.09c.07.17.34.85.5.88.11-.14.78-1,.77-1.39a7.65,7.65,0,0,1,.27-1.49" transform="translate(-120.59 -319.81)"/>
    <path class="cls-1" d="M203.17,456.56c-.07.19-.18.71-.22.78a.9.9,0,0,0,.12.86c.07.14.36.68.52.71s.79-.8.78-1.09a4.31,4.31,0,0,1,.26-1.17" transform="translate(-120.59 -319.81)"/>
    <path class="cls-1" d="M204.83,457.11c-.07.19-.18.71-.22.78a.9.9,0,0,0,.12.86c.07.14.36.68.52.71s.79-.8.78-1.09a4.31,4.31,0,0,1,.26-1.17" transform="translate(-120.59 -319.81)"/>
    <path class="cls-1" d="M201.25,456.17c-.07.19-.17.71-.22.78a.92.92,0,0,0,.12.87c.07.13.36.67.53.7s.78-.8.77-1.09a4.66,4.66,0,0,1,.26-1.16" transform="translate(-120.59 -319.81)"/>
    <path class="cls-1" d="M199.4,455.47c-.07.22-.18.83-.23.91a1.2,1.2,0,0,0,.12,1c.06.16.35.78.51.81.11-.13.8-.94.79-1.27a5.8,5.8,0,0,1,.27-1.36" transform="translate(-120.59 -319.81)"/>
    <path class="cls-1" d="M197.38,455c-.07.24-.19.88-.23,1a1.33,1.33,0,0,0,.11,1.06c.07.17.35.84.51.87.11-.14.8-1,.8-1.36a6,6,0,0,1,.27-1.44" transform="translate(-120.59 -319.81)"/>
    <path class="cls-1" d="M206.7,457.93c-.06.17-.17.63-.21.69-.16.24,0,.52.12.76s.37.6.54.63.79-.7.78-1a3.27,3.27,0,0,1,.25-1" transform="translate(-120.59 -319.81)"/>
    <path class="cls-1" d="M208.24,458.1c-.07.19-.17.71-.22.78a.9.9,0,0,0,.12.86c.07.14.36.68.53.71s.78-.8.77-1.09a4.73,4.73,0,0,1,.26-1.17" transform="translate(-120.59 -319.81)"/>
    <path class="cls-1" d="M209.73,458.7c-.07.19-.18.72-.22.79-.16.26,0,.58.12.86s.35.68.52.7.79-.8.78-1.08a4.57,4.57,0,0,1,.25-1.17" transform="translate(-120.59 -319.81)"/>
    <path class="cls-1" d="M211.18,459.7c-.06.15-.15.58-.18.64-.14.21,0,.47.1.7s.3.56.45.58.66-.65.65-.89a3.73,3.73,0,0,1,.22-1" transform="translate(-120.59 -319.81)"/>
  </g>
  <g class="skull">
    <path class="base" d="M471.89,353.47c-1.9-5.68-5.51-8.17-9.94-12.2-23.62-21.47-53.84-23-90.09-19.49-25.12,2.46-50,6.79-78,17-40.79,14.86-75.4,38.34-109.9,62.67a146.07,146.07,0,0,0-26.26,23.12c-9.58,11.06-22.21,23-27.33,30.3-2.07,2.95-6.4,1.71-8.26,4.79s-1,10.12,1.49,12.72c1.18,1.23,4.45,1.66,6,2.47,4.39,2.39,3.17,6.22,8.09,7.11,6.44,1.15,8.91.49,12.38-5.78,1-1.89.47-8.43,1.32-10.41,1.77-4.08,6.6-7,11-11.06,4.38-.25,5-1.05,9-.83,1.17.07,3-.45,4.19-.38,2.23.12,7.56-.26,9.8-.22a78.66,78.66,0,0,1,15.52,2.2c2.81.6,8.24,1.92,10.68,3.08.48.23,5.23,11.3,5.56,14.56-6.38-2.05-16.15-1.78-22.85-1.9-5.32-.09-14.1-.66-18.71,1.38-3,1.33-3.66.2-4.76,1.06-3.14,2.43-6.93,4.91-10.21,7.25-3,2.14-2.65,4-4.63,7.71a11.42,11.42,0,0,0-8.5.2c-2.46,1.16-4.76,2.8-7.44,3.32-2.86.57-6.39,0-8.15,2.35s0,6.06,2.52,7.84c5.85,4.15,14,2.94,20.54,0a34,34,0,0,1,4.9-2,42,42,0,0,1,6.05-.85c5.91-.72,11.48-3.1,17.27-4.5a72.24,72.24,0,0,1,23.61-1.27c10.13.93,20.07,3.44,30.09,1.72,7.93-1.37,17.95-6.28,26.47-10.74,2.87-1.5,6.37-2.53,8.61-4.88s3.7-5.68,3-8.85a5.19,5.19,0,0,0-2.88-3.76,3.26,3.26,0,0,0-4.17,1.52c-.79-7.14-1.72-14.57.28-21.47a26.42,26.42,0,0,1,14.11-16.19c1.4,3.38.16,7.77-1.86,10.82s-4.61,5.23-5.24,8.83c-.33,2.56,7.81-2.41,10.28-6.07s3.87-7.95,6.14-11.74c3.36-5.6,8.79-10.52,9.12-17a4.63,4.63,0,0,0-.33-2.19,4.9,4.9,0,0,0-2.08-1.92c-12-7-20.24-2-34.11-4.8-2.91-.44-8.17-.49-8.73-1.34-.64-2.54,2.1-4.7,4.58-5.54,7.16-2.45,18.93-8.06,28.43-13.35,8.33-4.63,17.49-6.22,25.51-8.75,10.49-3.3,19.24-9.25,34.85-14.14,14.15-4.43,26.21-9.33,40.95-11s37.86.66,50.45,8.5c5.32,3.32,3.06,6.28,8.75,8.92s13,2.45,17.84-1.48C471.41,365.09,473.79,359.16,471.89,353.47ZM219.55,431.71a9.85,9.85,0,0,1-.22-3.34c.37-5.63,2.29-11.59,6.57-15.47,4.91-4.46,7.88-2.38,17.24-2.66,2.05-.06,4.44,1.3,6.11,2.48a7.53,7.53,0,0,1,2.92,5.61c0,2.23-2.48,4.17-4.24,5.53a65.46,65.46,0,0,1-5.71,3.44c-2.58,1.62-4.78,3.77-7.22,5.58s-5.26,3.35-8.31,3.42S220.41,434.63,219.55,431.71Zm36.55,44.93c-2.51-1.22-5.35,1.75-8.12,1.36a10,10,0,0,1-2.94-1.16c-2.54-1.42-5.11-2.32-7.65-3.74a10.18,10.18,0,0,1-1.72-1.69,11.26,11.26,0,0,1-1.2-2.22c-1-1.58-2-2.68-3-4.26-.56-.92-2.64-3.33-2.32-4.37.72-2.3,5.9-2,7.6-1.86l13.56.89c.19,0,.91-.24,1.07-.14s.85.44.95.68c1.14,2.76,2.81,4.69,4.65,7,.49.64.88.87,1,1.67C258.24,471.49,254.16,472.51,256.1,476.64Zm.45-55.91a38,38,0,0,1,3-3.33,10.3,10.3,0,0,1,8.56-2.37,1.55,1.55,0,0,1,.73.28,1.52,1.52,0,0,1,.39.86,16.56,16.56,0,0,1-.12,5.16,10.22,10.22,0,0,1-.84,3.42c-1,1.93-3,3-4.74,4.36-2.32,1.86-4,4.37-6.27,6.34a36.26,36.26,0,0,1-3.75,2.77,39.49,39.49,0,0,1-8.68,4.82c-2,.69-9.6,2.68-9.34-1.31a11.4,11.4,0,0,1,2.3-5.29,27.31,27.31,0,0,1,3.75-4.07c.72-.61,2.11-2.48,3.47-3.14a33.87,33.87,0,0,0,7.65-5.17A34.33,34.33,0,0,0,256.55,420.73Z" transform="translate(-120.59 -319.81)"/>
    <path class="cls-1" d="M164.78,430a21.45,21.45,0,0,0-3,3.13,37.77,37.77,0,0,1-3.14,4c-1.19,1.17-3.06,1.12-4.58,1.81a70.81,70.81,0,0,0-10.75,6.47,12.46,12.46,0,0,0-2.65,2.2c-.62.75-1.06,1.64-1.67,2.4s-1.19,1.25-1.73,1.93a23.08,23.08,0,0,0-2.48,3.44c-1.62,3.46-3,5.28-3.55,6.52-.4.85-.83,4.93,0,5.37a3.73,3.73,0,0,0,1.49.41c2.88-.43,3.36-3.07,6.27-3.06,1.8,0,4.58,1.23,6,.17s1.85-2.41,2.14-4.21a27.7,27.7,0,0,1,3.14-8.42c3.23-4.88,5-9.43,9.23-13.5,1.06-1,2.27-1.9,3.29-2.95,1.36-1.4,2.38-3.08,3.59-4.6a49,49,0,0,1,6.35-6.45,16.5,16.5,0,0,0,2.89-3.3c1.69-2.44-1.35.08-2.15.74C170.34,424.68,168,427.29,164.78,430Z" transform="translate(-120.59 -319.81)"/>
    <path class="cls-1" d="M159.76,500.37c.84-.62.71-1.88,1-2.88.25-.81.16-1.42.43-2.22a4.79,4.79,0,0,0-3.65-6.25,11.29,11.29,0,0,1-1.9-.41" transform="translate(-120.59 -319.81)"/>
    <path class="cls-1" d="M161.64,455.34c2.15-1.65,9.61-1.63,13.17-1.78,8.36-.34,16.64-.54,22.38,1.32,1.9.62,5,1.12,8.53,2.38,1.33.48,2.89.24,4.11,1,1,.61,2.16,1,2.76,2.49,1.54,3.74,3.55,7.91,4.42,12.16a13.82,13.82,0,0,1,0,3.34c-.18,3-2.33,5.68-5,7.18" transform="translate(-120.59 -319.81)"/>
    <path class="cls-1" d="M250,440.57a1.31,1.31,0,0,1,1.73.37,3.27,3.27,0,0,1,.46,1.8,44.78,44.78,0,0,1-.07,6,24.43,24.43,0,0,0-.15,3.08,40.39,40.39,0,0,1,.35,4.24c-.08,1.41-1.6,2.88-2.94,3.34" transform="translate(-120.59 -319.81)"/>
    <path class="cls-1" d="M229.74,459.73c-2.76,1.73-7.07,1.2-9.88.13a2,2,0,0,1-.86-.5,2.07,2.07,0,0,1-.44-1c-.64-3,.57-6.51-1.11-9.12a6.24,6.24,0,0,0-5.43-2.56,15.14,15.14,0,0,0-6,1.73,3.36,3.36,0,0,1-1.4.43,2.92,2.92,0,0,1-1.49-.5,14.84,14.84,0,0,1-3.05-2.29,3.92,3.92,0,0,1-.95-1.27,4.64,4.64,0,0,1-.26-1.53l-.29-4.95a8,8,0,0,1,.36-3.66c.38-.87,1.06-1.58,1.41-2.46a9.05,9.05,0,0,1,.47-1.26c.59-1,1.94-1.36,2.63-2.31.56-.77.6-1.81,1.09-2.63.8-1.34,3.27-2.29,3.72-4.23" transform="translate(-120.59 -319.81)"/>
    <path class="cls-1" d="M220.25,422.57a3.77,3.77,0,0,1-4.1-.23,3.44,3.44,0,0,0-1.15-.67c-.62-.17-.39-1-.42-1.29" transform="translate(-120.59 -319.81)"/>
    <path class="cls-1" d="M224.12,414.64c-2.38-.19-4,1.33-5.59,2.34a46.94,46.94,0,0,0-3.95,3.4,8.25,8.25,0,0,1-4.65,1.9c-.76.08-1.69-.21-1.86-1-.1-.45.12-.92,0-1.37-.14-.64-.78-.89-1.39-1.14-.16-.11-.12-.9-.12-1.12" transform="translate(-120.59 -319.81)"/>
    <path class="cls-1" d="M226.65,403.25c.31-.06,1.46-.13,1.76-.19a1.73,1.73,0,0,1,1.38.18c.63.45.45,1.43.82,2.1a2.1,2.1,0,0,0,.56.63,5.55,5.55,0,0,0,2.54,1.18,2.27,2.27,0,0,1,.73.21,1.23,1.23,0,0,1,.54,1,7.24,7.24,0,0,1-.37,1.63" transform="translate(-120.59 -319.81)"/>
    <path class="cls-1" d="M269,416.24c3-1.73,6.83-.46,10.12-1.47a.93.93,0,0,0,.63-.45c.21-.49-.41-.9-.91-1.08l-2.53-.89a3.58,3.58,0,0,1-1.09-.54,1.15,1.15,0,0,1-.43-1.08c.18-.77,1.19-.88,2-1.06,1.75-.41,3.1-1.8,4.89-1.8" transform="translate(-120.59 -319.81)"/>
    <path class="cls-1" d="M255.38,405.65c-2.42.31-4.95-.87-7.3-1.5a12,12,0,0,0-3.42-.69,8.67,8.67,0,0,0-3,.79,69.6,69.6,0,0,0-7,3.34" transform="translate(-120.59 -319.81)"/>
    <path class="cls-1" d="M240.19,392.46a18.78,18.78,0,0,0,4.85-.14,34.22,34.22,0,0,1,8.62.61,5.85,5.85,0,0,1,1.81.49,5.7,5.7,0,0,1,1.8,1.79,8.85,8.85,0,0,1,1.46,2.47,3.69,3.69,0,0,1-.29,3.09" transform="translate(-120.59 -319.81)"/>
    <path class="cls-1" d="M250.85,459.29a6.47,6.47,0,0,0,5.28-1.81,5.15,5.15,0,0,0,.9-5.41c-.37-.81-1-1.48-1.36-2.28a7.9,7.9,0,0,1-.48-3,17.9,17.9,0,0,1,.17-4.66c.33-1.78.73-3.67-.3-5.15" transform="translate(-120.59 -319.81)"/>
    <path class="cls-1" d="M213.75,459c-3.47.05-3.44-2.29-3.36-3a6.48,6.48,0,0,1,.33-1.71,4.56,4.56,0,0,1,3.11-2.21,14,14,0,0,1,4.57-.08" transform="translate(-120.59 -319.81)"/>
    <path class="cls-1" d="M226.08,460.88a21.06,21.06,0,0,0,3.71,12.66,39.58,39.58,0,0,0,2.3,3.75l3.37,4.06a4,4,0,0,0,1.84,1.49c1.11.33,2.6-.19,3.25.76s-.23,2.52.67,3.19c.3.22.74.28.88.62a1,1,0,0,1,0,.66l-.55,1.77a.64.64,0,0,0,0,.62.63.63,0,0,0,.4.14,55.12,55.12,0,0,0,8.32.45" transform="translate(-120.59 -319.81)"/>
    <path class="cls-1" d="M242.86,479.78a9.73,9.73,0,0,0,5.41-1.21c.92-.52,2-.62,2.77-1.17" transform="translate(-120.59 -319.81)"/>
    <path class="cls-1" d="M255.63,474.86a3.13,3.13,0,0,0,1.77,2.92,6.35,6.35,0,0,0,3.27.66,7.87,7.87,0,0,0,3.12-.5,6.84,6.84,0,0,0,3.71-4.76,17.8,17.8,0,0,0,.13-6.05" transform="translate(-120.59 -319.81)"/>
    <path class="cls-1" d="M267.87,426a4.52,4.52,0,0,0,3.57.21,13.44,13.44,0,0,0,3.23-1.73l3.23-2.12c1.45-1,3.07-1.95,4.79-1.72a4.33,4.33,0,0,1,3.47,3.65,6.3,6.3,0,0,1-1.61,5,11.89,11.89,0,0,1-4.44,3" transform="translate(-120.59 -319.81)"/>
    <path class="cls-1" d="M280.33,441.92a7.08,7.08,0,0,0,3.2.14,7.59,7.59,0,0,0,1.19-.48c1.32-.64,2.79-1,3.45-2.11" transform="translate(-120.59 -319.81)"/>
    <path class="cls-1" d="M161.73,455.21c3.13-2.64,6.11-5.36,8.17-7.1,1.17-1,2.25-1.95,3.44-2.92,1.38-1.11,6.38-5.48,7.71-6.66,5.61-4.95,7.37-5.57,13-10.51,1.27-1.1,3.5-2.9,4.74-4.07,7.54-7.1,15.53-11.43,23.34-17.23,19.49-14.48,31.75-27.36,53.67-37.82,1.46-.7,9.08-4.57,11-5.45,2.2-1,11.22-4.63,14.09-5.72a238,238,0,0,1,29.56-9.64c11.4-2.77,23.17-5.94,34.84-8.31,6.29-1.27,21.52-4,26.86-4.13,28.74-.71,45.51,4.61,65.88,20.44" transform="translate(-120.59 -319.81)"/>
    <path class="cls-1" d="M175.85,420.41c5.59-6.73,15.38-10.67,24-9a1.52,1.52,0,0,1,.82.35,1.28,1.28,0,0,1,.3.81,7,7,0,0,1-1,3.52,60.86,60.86,0,0,1-16.14,20" transform="translate(-120.59 -319.81)"/>
    <path class="cls-1" d="M170.48,473.82a81,81,0,0,1,10-2c1.33-.11,4.52-.38,6.17-.38.94,0,3.63-.13,4.57-.22,1.45-.14,6.69-.47,8.14-.39,7.58.41,10.71.34,17.92,2.7" transform="translate(-120.59 -319.81)"/>
    <path class="cls-1" d="M194.31,439.3a2.11,2.11,0,0,0-.23,2.21" transform="translate(-120.59 -319.81)"/>
    <path class="cls-1" d="M199.68,449.75a3.37,3.37,0,0,0-.63,2.22" transform="translate(-120.59 -319.81)"/>
    <path class="cls-1" d="M236.75,431.52a4.17,4.17,0,0,1,2.27-.43h2.16a13.82,13.82,0,0,0,1.58-.06" transform="translate(-120.59 -319.81)"/>
  </g>
  <g class="fenestrae">
    <path class="cls-1" d="M164.78,430a21.45,21.45,0,0,0-3,3.13,37.77,37.77,0,0,1-3.14,4c-1.19,1.17-3.06,1.12-4.58,1.81a70.81,70.81,0,0,0-10.75,6.47,12.46,12.46,0,0,0-2.65,2.2c-.62.75-1.06,1.64-1.67,2.4s-1.19,1.25-1.73,1.93a23.08,23.08,0,0,0-2.48,3.44c-1.62,3.46-3,5.28-3.55,6.52-.4.85-.83,4.93,0,5.37a3.73,3.73,0,0,0,1.49.41c2.88-.43,3.36-3.07,6.27-3.06,1.8,0,4.58,1.23,6,.17s1.85-2.41,2.14-4.21a27.7,27.7,0,0,1,3.14-8.42c3.23-4.88,5-9.43,9.23-13.5,1.06-1,2.27-1.9,3.29-2.95,1.36-1.4,2.38-3.08,3.59-4.6a49,49,0,0,1,6.35-6.45,16.5,16.5,0,0,0,2.89-3.3c1.69-2.44-1.35.08-2.15.74C170.34,424.68,168,427.29,164.78,430Z" transform="translate(-120.59 -319.81)"/>
    <path class="cls-1" d="M219.33,428.37a9.85,9.85,0,0,0,.22,3.34c.86,2.92,4.1,4.66,7.14,4.59s5.87-1.6,8.31-3.42,4.64-4,7.22-5.58a65.46,65.46,0,0,0,5.71-3.44c1.76-1.36,4.26-3.3,4.24-5.53a7.53,7.53,0,0,0-2.92-5.61c-1.67-1.18-4.06-2.54-6.11-2.48-9.36.28-12.33-1.8-17.24,2.66C221.62,416.78,219.7,422.74,219.33,428.37Z" transform="translate(-120.59 -319.81)"/>
    <path class="cls-1" d="M244.83,443a39.49,39.49,0,0,0,8.68-4.82,36.26,36.26,0,0,0,3.75-2.77c2.23-2,3.95-4.48,6.27-6.34,1.69-1.35,3.75-2.43,4.74-4.36a10.22,10.22,0,0,0,.84-3.42,16.56,16.56,0,0,0,.12-5.16,1.52,1.52,0,0,0-.39-.86,1.55,1.55,0,0,0-.73-.28,10.3,10.3,0,0,0-8.56,2.37,38,38,0,0,0-3,3.33,34.33,34.33,0,0,1-3.89,3.33,33.87,33.87,0,0,1-7.65,5.17c-1.36.66-2.75,2.53-3.47,3.14a27.31,27.31,0,0,0-3.75,4.07,11.4,11.4,0,0,0-2.3,5.29C235.23,445.72,242.87,443.73,244.83,443Z" transform="translate(-120.59 -319.81)"/>
  </g>
</svg>
