<svg xmlns="http://www.w3.org/2000/svg" viewBox="0 0 190.71 86.56">
	<title>Stegosaurus stenops</title>
	<metadata>
		<phyloxml xmlns:xsi="http://www.w3.org/2001/XMLSchema-instance" xmlns="http://www.phyloxml.org" xsi:schemaLocation="http://www.phyloxml.org http://www.phyloxml.org/1.10/phyloxml.xsd">
			<phylogeny rooted="true" rerootable="false">
				<clade>
					<name>Animalia</name>
					<clade>
						<name>Chordata</name>
						<clade>
							<name>Dinosauria</name>
							<clade>
								<name>Ornithischia</name>
								<clade>
									<name>Stegosauria</name>
									<clade>
										<name>Stegosauridae</name>
										<clade>
											<name>Stegosaurinae</name>
											<clade>
												<name>Stegosaurus</name>
											</clade>
										</clade>
									</clade>
								</clade>
							</clade>
						</clade>
					</clade>
				</clade>
			</phylogeny>
		</phyloxml>
	</metadata>
	<g class="skull">
		<path d="M67.83,383.4a38.6,38.6,0,0,1-8.31-.72,15.69,15.69,0,0,1-2.77-.8c-.53-.18-1-.36-1.45-.47-1.52-.41-1.84-2.24-1.62-3.82s1.65-2.36,3-3l.15-.07c7-3.19,15.07-3.3,22.14-3.39,2,0,4.14.17,5.15,1.86a3.62,3.62,0,0,0,.47.58,2.47,2.47,0,0,1,.8,1.52c0,.39.1,2.34-.8,3.31a8.21,8.21,0,0,1-2.12,1.47,18.28,18.28,0,0,0-3.07,1.51,10.56,10.56,0,0,1-4.93,1.7C72.81,383.27,70.37,383.4,67.83,383.4ZM79.3,372.15H79c-7,.09-14.89.2-21.74,3.3l-.16.07c-1.41.64-2.29,1.09-2.44,2.21-.12.89-.07,2.46.89,2.71.43.12,1,.3,1.52.5a14.59,14.59,0,0,0,2.6.75h.06c3.87,1,11,.76,14.65.4a9.45,9.45,0,0,0,4.52-1.56A19.41,19.41,0,0,1,82.14,379a7.65,7.65,0,0,0,1.74-1.21,4,4,0,0,0,.53-2.56,1.61,1.61,0,0,0-.54-.92,4.9,4.9,0,0,1-.58-.73C82.58,372.35,80.91,372.15,79.3,372.15Z" transform="translate(-39.4 -339.84)"/><path d="M162.07,411.52a20.81,20.81,0,0,1-9.39-2.68c-.58-.33-2.48-1.49-2.52-2.77a2.11,2.11,0,0,1,1-1.92,5.94,5.94,0,0,1,2.33-.77l.39-.08a8.77,8.77,0,0,1,3.26-.05c.64.08,1.37.17,2.39.21a6.62,6.62,0,0,1,2.92,1,10.06,10.06,0,0,0,1,.51,5.55,5.55,0,0,1,2.11,1.48,5.61,5.61,0,0,0,.48.53c.61.64,1.36,1.43,1.09,2.32-.34,1.08-2.05,1.85-2.89,2A10.39,10.39,0,0,1,162.07,411.52Zm-6.62-7.4a6.55,6.55,0,0,0-1.42.16l-.4.08a5.9,5.9,0,0,0-1.91.58,1.15,1.15,0,0,0-.56,1.1c0,.51,1,1.38,2,1.92h0c2.77,1.55,7.26,3.1,10.79,2.38.81-.17,2-.83,2.14-1.33.1-.34-.45-.91-.85-1.33a7,7,0,0,1-.55-.62,4.75,4.75,0,0,0-1.76-1.19c-.37-.18-.73-.36-1.07-.56a5.43,5.43,0,0,0-2.43-.85c-1.06,0-1.84-.14-2.47-.22A14.89,14.89,0,0,0,155.45,404.12Z" transform="translate(-39.4 -339.84)"/><path d="M177.54,380.1c-.57,0-1.13,0-1.64-.07l-8.1-.56c-6.6-.47-13.42-1-17.73-1a3.54,3.54,0,0,1-2.84-1.15,9.24,9.24,0,0,0-1.76-1.89,4.19,4.19,0,0,1-.9-.94c-.95-1.71-1.8-5.4,0-8h0a10.71,10.71,0,0,1,4.88-3.7,25.26,25.26,0,0,0,2.64-1.29,25.72,25.72,0,0,1,2.75-1.33,48.32,48.32,0,0,1,11-2.69c3.56-.51,8.48-.67,11.66,1.51,4.45,3.05,6.44,6.94,6.45,12.6,0,2.82-.33,6.24-2.92,7.73A6.84,6.84,0,0,1,177.54,380.1Zm-32.16-13c-1.58,2.29-.64,5.65.07,6.92a4.2,4.2,0,0,0,.68.68,10.32,10.32,0,0,1,1.94,2.1,2.7,2.7,0,0,0,2,.69c4.35.06,11.18.55,17.79,1L176,379c1.43.09,3.22.21,4.57-.57,2.15-1.24,2.42-4.32,2.42-6.86,0-5.38-1.81-8.9-6-11.79-2.91-2-7.56-1.83-11-1.34a47.5,47.5,0,0,0-10.77,2.62,25.54,25.54,0,0,0-2.65,1.29,27.48,27.48,0,0,1-2.74,1.33,10,10,0,0,0-4.44,3.35Z" transform="translate(-39.4 -339.84)"/><path d="M192.48,367a.52.52,0,0,1-.18,0,.62.62,0,0,1-.46-.44c-.3-1.07,2.47-7.69,3.8-9.08.78-.82,2.94-1.91,5.22-3.06,1.34-.68,2.73-1.38,3.77-2a33.36,33.36,0,0,1,7.44-3.35l.34.94a17.7,17.7,0,0,0-2.41,3,16.31,16.31,0,0,1-3.6,4.28,51.51,51.51,0,0,0-6.64,5.42C198.9,363.56,194,367,192.48,367Zm18-16.38a38.22,38.22,0,0,0-5.35,2.63c-1.07.64-2.47,1.35-3.83,2a25.65,25.65,0,0,0-4.94,2.86c-1.21,1.26-3.19,6.27-3.52,7.79a28.09,28.09,0,0,0,6.21-3.92,52.65,52.65,0,0,1,6.77-5.52,15.27,15.27,0,0,0,3.32-4C209.23,352.36,209.83,351.46,210.49,350.61Z" transform="translate(-39.4 -339.84)"/><path d="M71.15,424.9c-2,0-4.63-.77-5.69-1.82-2.37-2.37-3.74-3-6.95-3.64-2.85-.6-7.24-5.34-7.36-7a.8.8,0,0,1,.51-.84l3.94-.67c3.28-.57,7-1.2,9.72-1.61a9.41,9.41,0,0,0,3.18-1.87,20.42,20.42,0,0,1,7.85-4.07c7.25-1.58,19.46-3.87,23.87-4,1.12-.05,2.24-.08,3.38-.12,7.76-.27,15.78-.54,24.61-2.14,5.93-1.07,14.46-4.33,21.32-7,2.45-.94,4.76-1.82,6.66-2.49,4.52-1.59,14.58-1.51,21,.4-1.06-.76-2.15-1.44-3.16-2.07l-1.08-.68a8,8,0,0,0-2-1.05h0a40.08,40.08,0,0,1-6.31-.48,30.39,30.39,0,0,0-4.84-.4c-2.42,0-4.82-.1-7.15-.22s-4.7-.26-7.08-.23a17.38,17.38,0,0,1-2.49-.18c-1.78-.21-3.47-.41-4.78.44a32.33,32.33,0,0,1-8.08,3.22l-.14,0a82.26,82.26,0,0,1-14.69,2.6l-2.13.22c-4,.44-9.51,1-15.47,1.6-1.75.17-3.59.31-5.45.45a115.82,115.82,0,0,0-12.6,1.4,37.28,37.28,0,0,1-9.67.06c-2.55-.21-4.75-.39-6,0a28.37,28.37,0,0,1-6.68,1.39,27.93,27.93,0,0,0-3.82.63,49.75,49.75,0,0,1-10.64,1.73A1.54,1.54,0,0,1,41,395c-.59-4.06,1.43-7.67,3.39-11.17l.79-1.41a60.71,60.71,0,0,1,3.39-5.65A8.33,8.33,0,0,1,51.42,374a24.22,24.22,0,0,1,4.75-1.64c13.44-3.56,32.71-8,51.51-11.89,3.65-.76,7.42-1.44,11.06-2.11a226.62,226.62,0,0,0,23.42-5.12,20.35,20.35,0,0,1,7.12-.81,9.41,9.41,0,0,0,4.37-.56,58.15,58.15,0,0,1,17.91-4.06,82.79,82.79,0,0,0,11.71-2,110.4,110.4,0,0,1,11.14-2.07,29,29,0,0,1,7.37,0,29.55,29.55,0,0,0,5.14.22,20.9,20.9,0,0,0,3.35-1c3.07-1.08,5.15-1.78,6.06-1.44a25.19,25.19,0,0,1,5.44,3.69c3.5,3.15,6.27,5.63,6.78,10.63.48,4.65-2,10-4.32,13.2l-.2.28a6.46,6.46,0,0,1-3,2.75c-1.39.44-2.71-.77-3.36-1.51a10,10,0,0,0-.61,1c-.07.13-.15.26-.23.39a7.26,7.26,0,0,1,1,8.26,6.83,6.83,0,0,1-7.11,3.81,67.93,67.93,0,0,0-.8,9.48c-.06,1.36-.12,2.67-.19,3.8a20.93,20.93,0,0,0,.26,3.44l.33.06a3.3,3.3,0,0,1,1.81.67c1.14.95,1.52,2.67,1.18,5.24a2.22,2.22,0,0,1-1.48,1.94c-.25.11-.4.18-.46.3l-.26.51c-1,2-2,4-6,4.74a72,72,0,0,1-7.94.9l-2,.15a116.81,116.81,0,0,0-18.73,3.13,54.71,54.71,0,0,1-8.83,1.6c-13.9.88-29.39.78-45.78.66-11.72-.08-23.83-.16-36.29.1-2.25.05-4.1.12-5.64.19s-2.62.11-3.61.11a12.09,12.09,0,0,0-.89,1.07c-1.08,1.38-2,2.45-2.79,2.71A5.35,5.35,0,0,1,71.15,424.9Zm-19-12.37c.34,1.15,4.06,5.41,6.54,5.93,3.37.71,4.92,1.38,7.45,3.91,1.09,1.08,4.62,1.87,6.2,1.38.59-.18,1.62-1.5,2.3-2.37.86-1.1,1.15-1.45,1.56-1.45,1,0,2.19-.05,3.69-.11s3.4-.14,5.66-.19c12.47-.26,24.59-.18,36.31-.1,16.38.12,31.85.22,45.72-.66a52.63,52.63,0,0,0,8.66-1.57,115.77,115.77,0,0,1,18.88-3.15l2-.16a71.86,71.86,0,0,0,7.83-.88c3.47-.65,4.3-2.3,5.27-4.21l.26-.52a1.75,1.75,0,0,1,.94-.75,1.23,1.23,0,0,0,.9-1.17c.29-2.17,0-3.63-.83-4.34a2.53,2.53,0,0,0-1.31-.44c-.45-.07-1-.14-1.11-.63a19.67,19.67,0,0,1-.34-3.92c.07-1.13.13-2.43.19-3.79.2-4.3.4-8.74,1-10.18l.16-.37.39.07a5.88,5.88,0,0,0,6.46-3.2c1.29-2.67.86-5.7-1.05-7.36l-.33-.28.23-.37c.15-.22.29-.46.43-.7a9.39,9.39,0,0,1,1.09-1.62l.41-.47.37.51c.58.82,1.77,1.94,2.67,1.66a5.85,5.85,0,0,0,2.47-2.38l.2-.29c2.36-3.28,4.56-8.42,4.14-12.51-.48-4.62-3.11-7-6.45-10a24.38,24.38,0,0,0-5.12-3.5c-.64-.24-3.61.82-5.38,1.45a18.58,18.58,0,0,1-3.64,1.09,31.36,31.36,0,0,1-5.3-.22,27.65,27.65,0,0,0-7.14,0,106.21,106.21,0,0,0-11,2.06,85.47,85.47,0,0,1-11.85,2.05,57.32,57.32,0,0,0-17.6,4,10.41,10.41,0,0,1-4.79.64,19.56,19.56,0,0,0-6.8.77,231.11,231.11,0,0,1-23.53,5.15c-3.64.66-7.4,1.35-11,2.1-18.78,3.88-38,8.32-51.48,11.89a22.91,22.91,0,0,0-4.5,1.54,7.5,7.5,0,0,0-2.51,2.53,61.89,61.89,0,0,0-3.34,5.56l-.79,1.42c-1.87,3.35-3.81,6.82-3.27,10.54a1,1,0,0,0,.2.58,1.1,1.1,0,0,0,.66.08,47.82,47.82,0,0,0,10.44-1.7,29.71,29.71,0,0,1,4-.65,27.56,27.56,0,0,0,6.47-1.34h0c1.45-.46,3.75-.27,6.4,0a36.52,36.52,0,0,0,9.4-.05,121.64,121.64,0,0,1,12.71-1.41c1.86-.14,3.69-.28,5.44-.45,6-.57,11.44-1.16,15.46-1.59l2.12-.23a80.48,80.48,0,0,0,14.51-2.56l.15,0a31.77,31.77,0,0,0,7.82-3.11c1.61-1,3.55-.81,5.43-.59a19.87,19.87,0,0,0,2.37.17c2.41,0,4.82.1,7.15.23s4.7.25,7.08.22a30.51,30.51,0,0,1,5,.41,40,40,0,0,0,6.17.47h0a6,6,0,0,1,2.5,1.2l1.08.68a35.49,35.49,0,0,1,5.81,4.22L183,392l-3.29-1.79c-5.6-3.05-18.57-3.2-23.21-1.56-1.89.67-4.2,1.55-6.65,2.48-6.89,2.64-15.47,5.92-21.49,7-8.9,1.61-17,1.88-24.76,2.15-1.13,0-2.26.07-3.37.12-4.35.16-16.48,2.44-23.7,4a19.78,19.78,0,0,0-7.47,3.89,9.66,9.66,0,0,1-3.62,2.06c-2.72.4-6.43,1-9.7,1.6Z" transform="translate(-39.4 -339.84)"/><path d="M128.46,420.51l-.37-.93c3.29-1.32,18.57-4,28-3.36a32.58,32.58,0,0,1,10.26,2.88l-.47.88a31.45,31.45,0,0,0-9.86-2.76C146.71,416.56,131.69,419.21,128.46,420.51Z" transform="translate(-39.4 -339.84)"/><path d="M172.24,418.88a16.12,16.12,0,0,0-3.19-2.25,21.32,21.32,0,0,1-2.84-1.85l-.33-.24c-1.45-1.05-3-2.15-4.43-3.07l.54-.84c1.46.93,3,2,4.47,3.1l.33.24a20,20,0,0,0,2.72,1.76,17.7,17.7,0,0,1,3.46,2.46Z" transform="translate(-39.4 -339.84)"/><path d="M210.37,408.79a11.66,11.66,0,0,1-3.72-.86c-.7-.25-1.38-.55-2-.83a23.57,23.57,0,0,0-2.93-1.12c-.64-.18-1.32-.31-2-.44s-1.13-.21-1.69-.35-1.22-.27-2-.43a33.27,33.27,0,0,1-3.71-.83c-6.91-2.44-12.56-2.6-17.77-.51a45.58,45.58,0,0,0-8.42,4.35l-.56-.83a46.41,46.41,0,0,1,8.61-4.45c5.37-2.15,11.41-2,18.47.5a34.73,34.73,0,0,0,3.57.79c.85.17,1.63.32,2.11.44s1.08.24,1.63.34,1.38.26,2.06.46a22.44,22.44,0,0,1,3.06,1.16c.65.28,1.31.57,2,.81,1.68.61,3.55,1.15,4.62.51l.51.85A3.33,3.33,0,0,1,210.37,408.79Z" transform="translate(-39.4 -339.84)"/><path d="M161.76,404.5l-1-.08a16,16,0,0,1,1.47-4.85,18.12,18.12,0,0,1,1.42-2.39,26,26,0,0,0,2-3.31c.56-1.22,2.55-5.34,4.54-7l.63.77c-1.87,1.53-3.88,5.77-4.26,6.61a27.56,27.56,0,0,1-2,3.44,19.44,19.44,0,0,0-1.35,2.24A15.11,15.11,0,0,0,161.76,404.5Z" transform="translate(-39.4 -339.84)"/><path d="M202.21,400.46c-.43-2.91-1.89-6.64-4.61-7.56-1.78-.6-3.66,0-5.65.54a12.63,12.63,0,0,1-5.4.78c-2.33-.34-4.17-1.86-5.94-3.34l-.12-.1c-5.31-4.42-13.44-10.34-22.68-10.76-1,0-2.1,0-3.14,0a24.58,24.58,0,0,1-6.33-.42c-.7-.17-1.39-.4-2.05-.63s-1.26-.42-1.9-.58c-3.77-.94-7.74,0-11.58.88-1.32.31-2.7.63-4.05.87-1.83.33-4.18.56-6-.6l-.28-.17,0-.32c.23-1.57,1.45-2.45,2.64-3.29a8,8,0,0,0,2-1.77,9.45,9.45,0,0,0,1.15-3.42c.35-1.64.7-3.35,1.94-4.45a7.3,7.3,0,0,1,4.74-1.45c4.31-.17,7.37.54,9.66,2.24l-.59.8c-2.1-1.56-5-2.2-9-2a6.42,6.42,0,0,0-4.12,1.19c-1,.89-1.3,2.36-1.63,3.92a10.06,10.06,0,0,1-1.31,3.78,8.78,8.78,0,0,1-2.24,2c-1,.71-1.88,1.33-2.16,2.28a8.18,8.18,0,0,0,5,.3c1.32-.24,2.68-.56,4-.86,3.95-.93,8-1.88,12-.88.68.17,1.34.39,2,.61s1.31.44,2,.6a23.47,23.47,0,0,0,6.08.39c1,0,2.13,0,3.19,0,9.54.44,17.86,6.48,23.28,11l.12.1c1.67,1.39,3.39,2.82,5.44,3.13a12.09,12.09,0,0,0,5-.76c2.05-.6,4.17-1.23,6.25-.53,3.15,1.07,4.81,5.17,5.28,8.36Z" transform="translate(-39.4 -339.84)"/><path d="M161.64,383.39a55.4,55.4,0,0,1-7.93-1.51c-2-.49-4.11-1-5.9-1.26a33.49,33.49,0,0,0-6.41-.16l0-1a34.77,34.77,0,0,1,6.6.17c1.83.28,3.94.78,6,1.27a54.34,54.34,0,0,0,7.76,1.5Z" transform="translate(-39.4 -339.84)"/><path d="M144.18,376.16h-.12a2.85,2.85,0,0,1-1.75-1.19l-1.08-1.31a2.44,2.44,0,0,0-.93-.81,2.5,2.5,0,0,0-1-.05,5.39,5.39,0,0,1-.9,0,5.06,5.06,0,0,1-1.94-.82c-.68-.41-1.27-.76-1.86-.6s-.77.31-.92.47a2.1,2.1,0,0,1-.3.29,2.91,2.91,0,0,1-2.08.68,2,2,0,0,1-1.44-1.77,1,1,0,0,0-.47-.68,3.06,3.06,0,0,1-.77-.84l.87-.51a1.83,1.83,0,0,0,.53.57,2,2,0,0,1,.82,1.26c.11.55.26.91.66,1a2,2,0,0,0,1.27-.49l.18-.18a2.47,2.47,0,0,1,1.38-.75,3.39,3.39,0,0,1,2.65.71,4.28,4.28,0,0,0,1.54.67,3.4,3.4,0,0,0,.71,0,3.48,3.48,0,0,1,1.38.11A3.32,3.32,0,0,1,142,373l1.09,1.31c.33.4.69.79,1.08.83a.63.63,0,0,0,.4-.2.53.53,0,0,0,.2-.3l.82-.57a1.06,1.06,0,0,1,0,1.17A1.76,1.76,0,0,1,144.18,376.16Z" transform="translate(-39.4 -339.84)"/><path d="M131.58,365.64a5,5,0,0,1,.91-3.59,10.74,10.74,0,0,1,2.31-2.28c1.23-.85,2.32-1.52,3.58-2.29a20,20,0,0,1,3.35-1.56l.1,0a28.08,28.08,0,0,1,3.72-1.17,65.27,65.27,0,0,1,8-1.07l.05,1a64.74,64.74,0,0,0-7.92,1.05,28.64,28.64,0,0,0-3.56,1.13l-.1,0a18.46,18.46,0,0,0-3.15,1.46c-1.26.77-2.34,1.44-3.55,2.27a9.88,9.88,0,0,0-2.08,2.07,4,4,0,0,0-.73,2.79Z" transform="translate(-39.4 -339.84)"/><path d="M137,365.34l-.81-.59a24.44,24.44,0,0,1,9.18-7.85c1-.57,3.53-1.65,4.58-2l.29-.11a22.32,22.32,0,0,1,4.16-1.26,44.55,44.55,0,0,1,7.68-.51h0c.66,0,1.32,0,2,.06a19,19,0,0,0,4.72-.21,23.47,23.47,0,0,0,5.81-2.53c2.41-1.3,4.91-2.65,7.49-2.84a12.22,12.22,0,0,1,3.91.29,6.76,6.76,0,0,1,1.84.81c1,.76,1.44,2,1.26,3.91-.49,5.28-3.1,9.89-7,12.32l-.53-.84c3.63-2.27,6.06-6.6,6.53-11.58.13-1.49-.15-2.48-.87-3a5.79,5.79,0,0,0-1.5-.64,11.32,11.32,0,0,0-3.58-.27c-2.36.18-4.76,1.48-7.09,2.73A24.19,24.19,0,0,1,169,353.8a19,19,0,0,1-5,.23c-.64,0-1.3,0-1.95,0a43.44,43.44,0,0,0-7.51.5,21.06,21.06,0,0,0-4,1.2l-.29.11c-1,.39-3.45,1.43-4.46,2A23.31,23.31,0,0,0,137,365.34Z" transform="translate(-39.4 -339.84)"/><path d="M183.29,380.68a3.86,3.86,0,0,1-3-1.31l.78-.63a3.05,3.05,0,0,0,2.8.9,9.38,9.38,0,0,0,3.15-1.12l.36-.19a7.85,7.85,0,0,0,1.38-.83c1.23-1.14,1.35-2.54,1.49-4.32l0-.29a31.4,31.4,0,0,1,1.78-7.63l.94.34a30.93,30.93,0,0,0-1.72,7.37l0,.3c-.16,1.91-.29,3.56-1.81,5a8.3,8.3,0,0,1-1.61,1l-.34.18a10.31,10.31,0,0,1-3.47,1.23A5.62,5.62,0,0,1,183.29,380.68Z" transform="translate(-39.4 -339.84)"/><path d="M211.19,350.06l-.94-.33a1.56,1.56,0,0,0-.19-1.1,2.27,2.27,0,0,0-1.16-1.12,15.91,15.91,0,0,0-3.07-.22,9.36,9.36,0,0,1-1.46-.27,4.85,4.85,0,0,0-2.25-.21,5.41,5.41,0,0,0-1.65,1,9,9,0,0,1-1.15.83,9.61,9.61,0,0,1-6.7.89c-.44-.08-.86-.18-1.26-.27a7.63,7.63,0,0,0-4.36-.13l-.3-1a8.59,8.59,0,0,1,4.88.12l1.22.26a8.8,8.8,0,0,0,6-.78,9.57,9.57,0,0,0,1-.74,6.22,6.22,0,0,1,2-1.21,5.56,5.56,0,0,1,2.76.2,10.44,10.44,0,0,0,1.32.25,14.66,14.66,0,0,1,3.28.26,3.16,3.16,0,0,1,1.75,1.61A2.45,2.45,0,0,1,211.19,350.06Z" transform="translate(-39.4 -339.84)"/><path d="M201.78,396.63l-.5-.87c.13-.07.27-.38.26-1.47v-.2c0-.75,0-1.43-.1-2.09a12,12,0,0,1,.12-3.85,11.67,11.67,0,0,1,3-5.23l.48-.49a26.82,26.82,0,0,1,3.72-3.35,6,6,0,0,1,3.37-1.37l0,1a5,5,0,0,0-2.78,1.2,25.1,25.1,0,0,0-3.57,3.22l-.49.49a10.55,10.55,0,0,0-2.75,4.74,11.28,11.28,0,0,0-.11,3.56,20.89,20.89,0,0,1,.11,2.18v.18C202.55,395,202.56,396.19,201.78,396.63Z" transform="translate(-39.4 -339.84)"/><path d="M48.53,384.73a10.26,10.26,0,0,1-.05-2.18,5,5,0,0,1,.91-2.28,13.14,13.14,0,0,1,6-5l.42.9a12.21,12.21,0,0,0-5.62,4.67,4,4,0,0,0-.75,1.82,8.81,8.81,0,0,0,0,1.95Z" transform="translate(-39.4 -339.84)"/><path d="M204.39,383.1a11.85,11.85,0,0,1-3.48-.5c-3.83-1.21-8-4-10.89-6.17l.6-.8c2.79,2.1,6.9,4.85,10.59,6a11.06,11.06,0,0,0,4.38.37l.15,1A9.46,9.46,0,0,1,204.39,383.1Z" transform="translate(-39.4 -339.84)"/><path d="M210.51,384.79l-1-.19a26.19,26.19,0,0,1,4.56-10.8c2.09-2.72,3.74-5.17,5.48-7.76l1.37-2c.31-.46.67-1,1-1.47s.71-1,1-1.46a12.34,12.34,0,0,0,1.59-3,6.67,6.67,0,0,0,.07-4.15c0-.09-.23-.41-1.36-1.29l-.34-.27a16.82,16.82,0,0,0-1.36-1.06l-1.1-.43a9.26,9.26,0,0,0-4.5-1c-.85.06-1.47.06-2,.05a8.89,8.89,0,0,0-3.11.39l-.28-1A9.88,9.88,0,0,1,214,349c.53,0,1.13,0,1.94-.05a10.05,10.05,0,0,1,4.94,1l1.09.42a9.26,9.26,0,0,1,1.64,1.22l.29.24a5.09,5.09,0,0,1,1.72,1.79,7.52,7.52,0,0,1-.09,4.81,12.9,12.9,0,0,1-1.69,3.2c-.31.46-.67,1-1,1.48l-1,1.45-1.37,2c-1.75,2.6-3.41,5.06-5.52,7.81A25.26,25.26,0,0,0,210.51,384.79Z" transform="translate(-39.4 -339.84)"/><path d="M211.8,402.48a3,3,0,0,0-2.24-.87c-.4,0-.9.06-1.41.11-.68.06-1.39.13-1.94.12a9.2,9.2,0,0,1-5.35-1.76,11.63,11.63,0,0,1-3.68-4.77,7.3,7.3,0,0,0-2.52-2.7l.44-.9a8.16,8.16,0,0,1,3,3.14,10.62,10.62,0,0,0,3.35,4.4,8.28,8.28,0,0,0,4.82,1.59,16.08,16.08,0,0,0,1.82-.12c.53-.05,1.06-.1,1.48-.11a4,4,0,0,1,3,1.23Z" transform="translate(-39.4 -339.84)"/><path d="M186.8,348.67a11.87,11.87,0,0,1-2.3-.22l.19-1c2.66.54,5.28-.08,8.06-.74l.4-.1a20.66,20.66,0,0,1,7.38-.51,5.1,5.1,0,0,0,2-.51s.25-.14,0-1.19l1-.19c.09.46.38,1.87-.63,2.3a5.89,5.89,0,0,1-2.49.58,19.88,19.88,0,0,0-7,.49l-.4.1A27,27,0,0,1,186.8,348.67Z" transform="translate(-39.4 -339.84)"/><path d="M207.71,399.73a23.8,23.8,0,0,1-2.59-.18s-3.15-.53-3.41-1.18l.93-.38-.47.19.33-.36a16.12,16.12,0,0,0,2.77.74,12.61,12.61,0,0,0,3.67.05l.48.88A4.28,4.28,0,0,1,207.71,399.73Z" transform="translate(-39.4 -339.84)"/><path d="M105.46,372.76l-.39-.92.22-.09c3.85-1.65,7.48-3.21,10.31-3.51a51.3,51.3,0,0,1,13.39.4l-.17,1a49.69,49.69,0,0,0-13.12-.39c-2.67.28-6.41,1.88-10,3.43Z" transform="translate(-39.4 -339.84)"/><path d="M62.59,420.06l-.89-.46a4.57,4.57,0,0,0,.26-2.31,5.28,5.28,0,0,1,.41-2.88,5.39,5.39,0,0,1,1.38-1.47,2.51,2.51,0,0,0,1.35-2q0-.31.12-.63a2.69,2.69,0,0,1,.91-1.27l.65.76a1.66,1.66,0,0,0-.59.79,2.77,2.77,0,0,0-.1.5,4.52,4.52,0,0,1-.16.73,4.3,4.3,0,0,1-1.54,1.88,4.52,4.52,0,0,0-1.14,1.18,4.41,4.41,0,0,0-.29,2.36A5.43,5.43,0,0,1,62.59,420.06Z" transform="translate(-39.4 -339.84)"/><path d="M71.72,424.84l0-1a2.42,2.42,0,0,0,1.24-.7l.17-.14a11.45,11.45,0,0,0,2-2.27c.17-.22.33-.45.49-.67.63-.82,1.31-1.61,2-2.37a3,3,0,0,1,.44-.44,3.19,3.19,0,0,1,2.18-.45l0,1a2.34,2.34,0,0,0-1.52.24,1.65,1.65,0,0,0-.29.3c-.66.76-1.33,1.53-1.93,2.33l-.48.65a12.49,12.49,0,0,1-2.15,2.46l-.16.13A3.16,3.16,0,0,1,71.72,424.84Z" transform="translate(-39.4 -339.84)"/><path d="M64.65,392.64l-.18-1,1-.18A20.62,20.62,0,0,0,71,390c.77-.36,1.53-.81,2.27-1.24s1.68-.9,2.48-1.29a24,24,0,0,0,3.31-1.83,18.41,18.41,0,0,1,2.22-1.2,19.69,19.69,0,0,0,2-1.06c1-.62,2.1-1.25,3.32-1.9,2-1.09,4.08-2.2,5-3.25,1.32-1.49,4.05-2.13,6.69-2.75l1.38-.34c1-.24,4.23-1.18,5.18-3.05l.89.46c-1.11,2.17-4.44,3.22-5.82,3.56l-1.41.34c-2.37.56-5,1.19-6.16,2.44s-3.19,2.34-5.28,3.47c-1.2.64-2.33,1.25-3.23,1.85a19.4,19.4,0,0,1-2.09,1.13,17.71,17.71,0,0,0-2.1,1.13,26.24,26.24,0,0,1-3.43,1.9c-.79.38-1.6.78-2.42,1.26s-1.54.89-2.35,1.27a21.45,21.45,0,0,1-5.78,1.59Z" transform="translate(-39.4 -339.84)"/><path d="M65.52,388.89l-.22-1a17.26,17.26,0,0,0,6.16-2.48l1.4-.79c1.07-.6,2.31-1.37,3.39-2s2-1.23,2.47-1.47a12.74,12.74,0,0,0,1.38-.84c.39-.27.78-.53,1.19-.76.73-.4,1.35-.72,1.93-1a34.39,34.39,0,0,0,3.39-1.94,9.88,9.88,0,0,1,2-.81,11.87,11.87,0,0,0,1.51-.58,35.8,35.8,0,0,1,3.82-1.47c3.49-1.13,8.67-2.18,11.39-1.91l-.1,1c-2.27-.23-7,.57-11,1.86a37.4,37.4,0,0,0-3.64,1.39,12,12,0,0,1-1.68.66,9.39,9.39,0,0,0-1.76.7,35.31,35.31,0,0,1-3.48,2c-.57.29-1.18.61-1.9,1a13.18,13.18,0,0,0-1.12.71,11.73,11.73,0,0,1-1.5.91c-.44.22-1.34.77-2.38,1.42s-2.34,1.45-3.43,2.06L72,386.3A18.54,18.54,0,0,1,65.52,388.89Z" transform="translate(-39.4 -339.84)"/><path d="M108.75,392.22a2.24,2.24,0,0,1-1.23-.42,3.54,3.54,0,0,1-1.24-2.21l1-.16a2.52,2.52,0,0,0,.85,1.57,1,1,0,0,0,.75.2,5.35,5.35,0,0,0,.43-2.14l1,0a6.19,6.19,0,0,1-.59,2.71,1,1,0,0,1-.71.45A1,1,0,0,1,108.75,392.22Z" transform="translate(-39.4 -339.84)"/><path d="M116.69,391.83a1.92,1.92,0,0,1-1.72-1.1,6,6,0,0,1-.23-1.94l1,0a5.24,5.24,0,0,0,.17,1.58,1,1,0,0,0,.81.43,1.47,1.47,0,0,0,.92-.58,4.07,4.07,0,0,0,.21-1.84l1,0a4.65,4.65,0,0,1-.33,2.34,2.53,2.53,0,0,1-1.59,1.09A.88.88,0,0,1,116.69,391.83Z" transform="translate(-39.4 -339.84)"/><path d="M121.22,391.08a2.15,2.15,0,0,1-.59-.1,2.11,2.11,0,0,1-1.3-1.13,5.62,5.62,0,0,1-.32-1.77l1-.06a4.88,4.88,0,0,0,.27,1.49,1.17,1.17,0,0,0,.68.52.54.54,0,0,0,.37,0,3,3,0,0,0,.68-2.25l1-.28a3.74,3.74,0,0,1-1.08,3.36A1.14,1.14,0,0,1,121.22,391.08Z" transform="translate(-39.4 -339.84)"/><path d="M124.54,390.66h-.06a1.92,1.92,0,0,1-1.48-.91,5,5,0,0,1-.56-2.05l1-.06a4.09,4.09,0,0,0,.44,1.63.89.89,0,0,0,.64.39c.12,0,.29,0,.47-.3a4,4,0,0,0,.18-2.15l1-.13a4.86,4.86,0,0,1-.33,2.83A1.54,1.54,0,0,1,124.54,390.66Z" transform="translate(-39.4 -339.84)"/><path d="M112,391.67a1.78,1.78,0,0,1-1.63-.9,4.66,4.66,0,0,1-.36-1.36l0-.19,1-.16,0,.21a3.44,3.44,0,0,0,.27,1.06.88.88,0,0,0,1,.32.73.73,0,0,0,.61-.54,3.56,3.56,0,0,0,.1-1.31l1-.14a4.46,4.46,0,0,1-.12,1.68,1.74,1.74,0,0,1-1.4,1.3Z" transform="translate(-39.4 -339.84)"/><path d="M130,390.05l-.2,0c-.84-.15-1.35-1.11-1.58-1.67a13.45,13.45,0,0,1-.57-1.87l1-.23a13.5,13.5,0,0,0,.52,1.72c.28.68.63,1,.83,1.06s.21-.05.35-.2a6.83,6.83,0,0,0,.21-3.18l1-.17c.06.39.32,3.16-.46,4A1.42,1.42,0,0,1,130,390.05Z" transform="translate(-39.4 -339.84)"/><path d="M131.79,396.63a5.21,5.21,0,0,1,.13-2.06,1.7,1.7,0,0,1,1.31-1.07,2,2,0,0,1,1.86.37c.15.16,1,1.19.91,1.85l-1-.1a3.77,3.77,0,0,0-.65-1.07,1.11,1.11,0,0,0-.89-.08c-.34.09-.55.25-.58.37a4.18,4.18,0,0,0-.12,1.63Z" transform="translate(-39.4 -339.84)"/><path d="M127.4,390.05A1.53,1.53,0,0,1,126,389a11.18,11.18,0,0,1-.43-2l1-.12a10.69,10.69,0,0,0,.37,1.73c.12.3.32.47.55.43s.48-.32.49-.85a10.84,10.84,0,0,0-.07-1.11c0-.2,0-.4,0-.6l1-.07c0,.19,0,.38,0,.57,0,.4.07.81.07,1.24a1.73,1.73,0,0,1-1.32,1.8A1,1,0,0,1,127.4,390.05Z" transform="translate(-39.4 -339.84)"/><path d="M132.8,388.63a1,1,0,0,1-.42-.08,3.5,3.5,0,0,1-1.67-2.45,3.23,3.23,0,0,0-.1-.32l.91-.4a3.08,3.08,0,0,1,.15.44c.16.57.44,1.53,1.1,1.81a.62.62,0,0,0,.52-.31,7.81,7.81,0,0,0,.16-2.19v-.37h1v.34a7.35,7.35,0,0,1-.24,2.6A1.64,1.64,0,0,1,132.8,388.63Z" transform="translate(-39.4 -339.84)"/><path d="M124.41,398a2.82,2.82,0,0,1,1-2.83,2.38,2.38,0,0,1,2.17-.09,4.48,4.48,0,0,1,1.43,2.14l-1,.29a4.33,4.33,0,0,0-.92-1.54,1.58,1.58,0,0,0-1.09,0c-.43.35-.73.69-.61,2Z" transform="translate(-39.4 -339.84)"/><path d="M128.46,397.47l0-.35a5.34,5.34,0,0,1,.07-2.17,1.68,1.68,0,0,1,1.53-1.11,1.52,1.52,0,0,1,1.58.73,6.12,6.12,0,0,1,.32,1,5.9,5.9,0,0,0,.31.91l-.87.49a5.24,5.24,0,0,1-.4-1.13,6.89,6.89,0,0,0-.26-.8c-.06-.13-.31-.2-.59-.18s-.61.19-.66.39a4.3,4.3,0,0,0,0,1.79l0,.36Z" transform="translate(-39.4 -339.84)"/><path d="M117.42,399a2.75,2.75,0,0,1,1-2.85,2.14,2.14,0,0,1,2-.11,3,3,0,0,1,1.29,2.49l-1,0a2.08,2.08,0,0,0-.78-1.58,1.26,1.26,0,0,0-1,.1,1.85,1.85,0,0,0-.51,1.84Z" transform="translate(-39.4 -339.84)"/><path d="M113.75,399.26l-1,0a4,4,0,0,1,.77-2,2.21,2.21,0,0,1,1.91-.46c.83.22,1.38,1.69,1.46,2.23l-1,.14a2.68,2.68,0,0,0-.74-1.41,1.23,1.23,0,0,0-1,.24A3.76,3.76,0,0,0,113.75,399.26Z" transform="translate(-39.4 -339.84)"/><path d="M107,399.63l-1-.14a2.75,2.75,0,0,1,1.65-2.46,2.16,2.16,0,0,1,2,.48,2.26,2.26,0,0,1,.71,1.95l-1-.13a1.27,1.27,0,0,0-.38-1.06,1.13,1.13,0,0,0-1-.28C107.42,398.15,107.11,399,107,399.63Z" transform="translate(-39.4 -339.84)"/><path d="M101.46,399.66a2.53,2.53,0,0,1,1-2.28,3.2,3.2,0,0,1,2.52-.07,3.37,3.37,0,0,1,1.18,2l-1,.21a2.31,2.31,0,0,0-.76-1.4,2.56,2.56,0,0,0-1.42.09,1.57,1.57,0,0,0-.56,1.41Z" transform="translate(-39.4 -339.84)"/><path d="M110.53,399.52l-1-.17,0-.25a3.45,3.45,0,0,1,.54-1.7,1.85,1.85,0,0,1,2.48-.16,3.75,3.75,0,0,1,.82,2l-1,.09A3,3,0,0,0,112,398a.88.88,0,0,0-1.07,0,3.4,3.4,0,0,0-.31,1.2Z" transform="translate(-39.4 -339.84)"/><path d="M121.23,398.65a1.84,1.84,0,0,1,.47-2.2,2,2,0,0,1,2.19-.24,2.29,2.29,0,0,1,1.23,1.76l-1,.14a1.32,1.32,0,0,0-.69-1,1,1,0,0,0-1.1.11.82.82,0,0,0-.22,1Z" transform="translate(-39.4 -339.84)"/><path d="M63,373.2a3.22,3.22,0,0,1-.6-1,1.61,1.61,0,0,1,0-1.2l.93.37a.7.7,0,0,0,0,.47,2.56,2.56,0,0,0,.37.67Z" transform="translate(-39.4 -339.84)"/></g><g class="outline"><path d="M215.77,341.84a1.1,1.1,0,0,1,.39.06,24.66,24.66,0,0,1,5.28,3.6c3.54,3.18,6.13,5.56,6.62,10.3.43,4.22-1.75,9.41-4.23,12.86-.78,1.07-1.67,2.45-2.93,2.84a1.41,1.41,0,0,1-.45.07c-1.14,0-2.27-1.2-2.78-1.91a18.08,18.08,0,0,0-1.47,2.26c2.22,1.93,2.46,5.31,1.18,8a6.32,6.32,0,0,1-5.76,3.59,7.52,7.52,0,0,1-1.24-.11c-.75,1.8-.87,9.28-1.15,13.8a18.71,18.71,0,0,0,.32,3.74c.12.42,1.37.1,2.26.84,1.11.94,1.28,2.72,1,4.79-.23,1.72-1.5,1.34-1.88,2.08-1.09,2.09-1.84,4.23-5.89,5a95.3,95.3,0,0,1-9.85,1c-14.58,1.21-20.95,4.31-27.55,4.73-9.25.59-19.18.74-29.63.74-10.72,0-22-.16-33.61-.16q-9.27,0-18.81.18c-4.43.09-7.31.3-9.36.3-.45,0-2.46,3.41-3.71,3.8a4.55,4.55,0,0,1-1.36.17c-1.86,0-4.36-.69-5.34-1.68A11.73,11.73,0,0,0,58.61,419c-3-.64-8-6.45-6.78-6.87,3.52-.58,9.63-1.67,13.57-2.26,2.28-.34,5.64-4.77,11-5.94,6.74-1.47,19.82-4,25-4h.47a2.52,2.52,0,0,1,.83-2.1,2.73,2.73,0,0,1,1.2-.22,1.55,1.55,0,0,1,.77.14,2.83,2.83,0,0,1,1,1.72l.83.12a2.39,2.39,0,0,1,1.3-2.05,1.31,1.31,0,0,1,.39-.05,1.68,1.68,0,0,1,1.66,1.94l.17,0a4.13,4.13,0,0,1,.46-1.72,1.25,1.25,0,0,1,.93-.38,1.32,1.32,0,0,1,.85.28,3.28,3.28,0,0,1,.64,1.67l.33,0a3.63,3.63,0,0,1,.61-1.67,1.76,1.76,0,0,1,1.11-.39,1.15,1.15,0,0,1,.33,0c.51.14,1,1.28,1.09,1.82l1.52-.12a2.28,2.28,0,0,1,.76-2.34,2,2,0,0,1,.93-.25,1.2,1.2,0,0,1,.61.15,2.55,2.55,0,0,1,1,2l.43-.1a1.36,1.36,0,0,1,.35-1.59,1.55,1.55,0,0,1,1.64-.17,1.82,1.82,0,0,1,1,1.38l.28-.07a2.32,2.32,0,0,1,.79-2.39,1.36,1.36,0,0,1,.79-.2,2.18,2.18,0,0,1,.85.16,4.34,4.34,0,0,1,1.17,1.85l.45,0a5.76,5.76,0,0,1,0-2.34,1.25,1.25,0,0,1,1.25-.75,1,1,0,0,1,.93.46c.22.44.4,1.47.64,1.9l.49-.14a4.7,4.7,0,0,1,.12-1.84c.14-.49.85-.78,1.47-.78a1.18,1.18,0,0,1,.86.28,3.14,3.14,0,0,1,.77,1.46c3.83-1.42,12.32-4.27,20.86-7.54a27.16,27.16,0,0,1,8.76-1.14c5.39,0,11.48.89,14.86,2.73A40.22,40.22,0,0,0,173.4,385a7.62,7.62,0,0,0-2.46-1.27h-.41c-4.37,0-7-.88-10.47-.88h-1c-4.27,0-8.43-.45-12.7-.45h-.9c-1.48,0-3-.31-4.51-.31a5.84,5.84,0,0,0-2.89.64,15.76,15.76,0,0,1-4.07,2,9.52,9.52,0,0,1-.2,2.74,1.13,1.13,0,0,1-.94.62.67.67,0,0,1-.24,0c-1-.41-1.37-1.64-1.57-2.2l0,0a0,0,0,0,0,0,0c.12.85.26,2.74-.22,3.28a1,1,0,0,1-.69.37c-.54,0-1-.64-1.32-1.38a10.07,10.07,0,0,1-.25-1.66l-.23.08c0,.59.23,1,.22,1.63,0,.87-.54,1.33-1.06,1.33a1,1,0,0,1-.94-.75,9.54,9.54,0,0,1-.37-1.73l-.43.08a4.3,4.3,0,0,1-.25,2.49,1,1,0,0,1-.87.52,1.39,1.39,0,0,1-1.1-.65,4.49,4.49,0,0,1-.5-1.84l-.5.1a3.09,3.09,0,0,1-.84,2.71.7.7,0,0,1-.38.1,1.7,1.7,0,0,1-1.42-.9,4.19,4.19,0,0,1-.29-1.44l-1.16.15a4.31,4.31,0,0,1-.27,2.09,2,2,0,0,1-1.26.83l-.14,0a1.45,1.45,0,0,1-1.24-.77,5.57,5.57,0,0,1-.2-1.76l-1.88.17a2.6,2.6,0,0,1-.08,1.18,1.3,1.3,0,0,1-1,1,1.32,1.32,0,0,1-.28,0,1.28,1.28,0,0,1-1.18-.62,4.48,4.48,0,0,1-.34-1.41l-.67.11a4.73,4.73,0,0,1-.47,2.23.62.62,0,0,1-.54.24,1.68,1.68,0,0,1-.93-.32,3,3,0,0,1-1-1.89c-6,.8-21.53,1.66-27.13,2.72a22,22,0,0,1-4.16.35c-3.4,0-6.83-.52-9.31-.52a7.86,7.86,0,0,0-2.28.26c-4.23,1.5-7.29,1.17-10.47,2A49.09,49.09,0,0,1,42.88,396h-.26a1.17,1.17,0,0,1-.76-.21,1.37,1.37,0,0,1-.36-.89c-.58-4,1.5-7.58,3.46-11.09a78,78,0,0,1,4-6.79,8,8,0,0,1,2.68-2.68,23.92,23.92,0,0,1,4.61-1.59c15.49-4.1,35.89-8.67,51.51-11.89,11.42-2.36,23.34-3.94,34.53-7.24a18.81,18.81,0,0,1,5.6-.82c.92,0,1.73,0,2.52,0a8.15,8.15,0,0,0,3.42-.62,58,58,0,0,1,17.75-4c7.5-.58,14.55-3.12,22.87-4.1a29,29,0,0,1,3.46-.22c2.9,0,4.7.5,7.64.5l1.38,0c1.33-.07,6.9-2.57,8.82-2.57m0-2h0c-1.33,0-3.24.64-6,1.62a27.77,27.77,0,0,1-3,1c-.4,0-.83,0-1.25,0a30.7,30.7,0,0,1-3.63-.24,35.37,35.37,0,0,0-4-.26,30.46,30.46,0,0,0-3.7.23,111.28,111.28,0,0,0-11.29,2.1,83.9,83.9,0,0,1-11.49,2,59.83,59.83,0,0,0-18.39,4.17,6.3,6.3,0,0,1-2.63.46l-1.1,0c-.46,0-.92,0-1.42,0a20.76,20.76,0,0,0-6.17.9,224.63,224.63,0,0,1-23.27,5.09c-3.65.66-7.43,1.35-11.1,2.11-18.79,3.88-38.07,8.33-51.56,11.91a24.64,24.64,0,0,0-5.1,1.78,9.69,9.69,0,0,0-3.36,3.28,62,62,0,0,0-3.48,5.79l-.66,1.17-.13.24c-2,3.54-4.23,7.56-3.56,12.12a3.26,3.26,0,0,0,1,2.12,3.07,3.07,0,0,0,2.06.69H43a51.1,51.1,0,0,0,10.94-1.78,26.93,26.93,0,0,1,3.61-.59,30.2,30.2,0,0,0,7-1.45,5.82,5.82,0,0,1,1.65-.16c1.06,0,2.38.11,3.77.22,1.7.14,3.62.3,5.54.3A24.57,24.57,0,0,0,80,394.2c3.18-.61,10-1.17,16-1.67,3.56-.29,7-.57,9.48-.85a4.46,4.46,0,0,0,1.15,1.32,3.71,3.71,0,0,0,2.13.72,2.62,2.62,0,0,0,1.92-.78,3.55,3.55,0,0,0,1.28.23,3.2,3.2,0,0,0,.61-.05,3.28,3.28,0,0,0,1.69-.82,3.62,3.62,0,0,0,2.43,1,2.72,2.72,0,0,0,.58-.06,4.27,4.27,0,0,0,2.14-1.22,3.73,3.73,0,0,0,1.82.53,2.66,2.66,0,0,0,1.49-.44,2.41,2.41,0,0,0,.4-.33,3.09,3.09,0,0,0,1.43.35,3,3,0,0,0,2-.75,3,3,0,0,0,.9.14,2.85,2.85,0,0,0,1.36-.33,2.62,2.62,0,0,0,1.28.33,2.87,2.87,0,0,0,2.17-1,3,3,0,0,0,.3-.4h.3a3.1,3.1,0,0,0,2.78-1.83,6,6,0,0,0,.36-2.1A17.36,17.36,0,0,0,138.2,385c.28-.17.54-.33.79-.46a3.8,3.8,0,0,1,1.92-.39c.64,0,1.33.07,2.05.14a24.56,24.56,0,0,0,2.46.17h.9c2.08,0,4.2.11,6.24.22s4.27.23,6.46.23h1a24.07,24.07,0,0,1,2.72.17,25,25,0,0,0-7.14,1.21c-5.5,2.11-10.89,4-15.22,5.53l-3.95,1.4a2.8,2.8,0,0,0-.29-.35,3.09,3.09,0,0,0-2.31-.91,4.05,4.05,0,0,0-2.27.69,3.28,3.28,0,0,0-1.38-.29,3.38,3.38,0,0,0-2.64,1.19,4.49,4.49,0,0,0-1.09-.14,3.23,3.23,0,0,0-2,.64,4.89,4.89,0,0,0-.61.59,3.54,3.54,0,0,0-2.45.26l-.21-.13a3.22,3.22,0,0,0-1.58-.4,4,4,0,0,0-1.92.51,3.21,3.21,0,0,0-1,.88,2.53,2.53,0,0,0-.87-.43,3.3,3.3,0,0,0-.85-.11,3.85,3.85,0,0,0-2,.53,3.47,3.47,0,0,0-3.29.07,3.85,3.85,0,0,0-1.52-.33,3.3,3.3,0,0,0-.95.13,3.35,3.35,0,0,0-1.19.64l-.23-.17a3.35,3.35,0,0,0-1.89-.48,4.43,4.43,0,0,0-2.27.54,3.6,3.6,0,0,0-1.41,1.8c-5.94.31-17.8,2.61-24.24,4a22.15,22.15,0,0,0-8.42,4.33,11.17,11.17,0,0,1-2.51,1.6c-2.75.41-6.48,1-9.78,1.61l-3.82.65-.18,0-.16.06a2.29,2.29,0,0,0-1.5,2.35c.16,2.41,5.13,7.64,8.54,8.36,3,.62,4.07,1.1,6.2,3.23,1.49,1.48,4.53,2.26,6.76,2.26a6.67,6.67,0,0,0,2-.26c1.25-.39,2.25-1.58,3.53-3.22l.39-.5c.86,0,1.84-.05,3-.1,1.51-.06,3.38-.14,5.61-.19,5.66-.12,11.8-.18,18.76-.18,5.93,0,11.81,0,17.49.08s10.87.08,16.13.08c12.52,0,21.7-.23,29.76-.74a55.4,55.4,0,0,0,9.07-1.64,114.54,114.54,0,0,1,18.52-3.09l1.95-.16a73.86,73.86,0,0,0,8.1-.92c4.68-.88,6-3.46,7-5.53l.08-.16a3.64,3.64,0,0,0,2.26-3.07c.43-3.12-.13-5.28-1.7-6.59a4.37,4.37,0,0,0-1.76-.87,17.34,17.34,0,0,1-.1-2.06c.07-1.13.13-2.45.19-3.82.11-2.38.27-6,.54-8a8.32,8.32,0,0,0,7.23-4.71,9.36,9.36,0,0,0,.43-7.27,3.77,3.77,0,0,0,.83.09,3.37,3.37,0,0,0,1-.16c1.8-.56,2.93-2.15,3.76-3.31l.2-.27c2.45-3.4,5.12-9.17,4.6-14.24-.58-5.57-3.68-8.36-7.27-11.58a26.88,26.88,0,0,0-5.94-4,3.25,3.25,0,0,0-1.07-.17Z" transform="translate(-39.4 -339.84)"/></g><g class="fenestra"><path d="M67.83,383.4a38.6,38.6,0,0,1-8.31-.72,15.69,15.69,0,0,1-2.77-.8c-.53-.18-1-.36-1.45-.47-1.52-.41-1.84-2.24-1.62-3.82s1.65-2.36,3-3l.15-.07c7-3.19,15.07-3.3,22.14-3.39,2,0,4.14.17,5.15,1.86a3.62,3.62,0,0,0,.47.58,2.47,2.47,0,0,1,.8,1.52c0,.39.1,2.34-.8,3.31a8.21,8.21,0,0,1-2.12,1.47,18.28,18.28,0,0,0-3.07,1.51,10.56,10.56,0,0,1-4.93,1.7C72.81,383.27,70.37,383.4,67.83,383.4ZM79.3,372.15H79c-7,.09-14.89.2-21.74,3.3l-.16.07c-1.41.64-2.29,1.09-2.44,2.21-.12.89-.07,2.46.89,2.71.43.12,1,.3,1.52.5a14.59,14.59,0,0,0,2.6.75h.06c3.87,1,11,.76,14.65.4a9.45,9.45,0,0,0,4.52-1.56A19.41,19.41,0,0,1,82.14,379a7.65,7.65,0,0,0,1.74-1.21,4,4,0,0,0,.53-2.56,1.61,1.61,0,0,0-.54-.92,4.9,4.9,0,0,1-.58-.73C82.58,372.35,80.91,372.15,79.3,372.15Z" transform="translate(-39.4 -339.84)"/><path d="M162.07,411.52a20.81,20.81,0,0,1-9.39-2.68c-.58-.33-2.48-1.49-2.52-2.77a2.11,2.11,0,0,1,1-1.92,5.94,5.94,0,0,1,2.33-.77l.39-.08a8.77,8.77,0,0,1,3.26-.05c.64.08,1.37.17,2.39.21a6.62,6.62,0,0,1,2.92,1,10.06,10.06,0,0,0,1,.51,5.55,5.55,0,0,1,2.11,1.48,5.61,5.61,0,0,0,.48.53c.61.64,1.36,1.43,1.09,2.32-.34,1.08-2.05,1.85-2.89,2A10.39,10.39,0,0,1,162.07,411.52Zm-6.62-7.4a6.55,6.55,0,0,0-1.42.16l-.4.08a5.9,5.9,0,0,0-1.91.58,1.15,1.15,0,0,0-.56,1.1c0,.51,1,1.38,2,1.92h0c2.77,1.55,7.26,3.1,10.79,2.38.81-.17,2-.83,2.14-1.33.1-.34-.45-.91-.85-1.33a7,7,0,0,1-.55-.62,4.75,4.75,0,0,0-1.76-1.19c-.37-.18-.73-.36-1.07-.56a5.43,5.43,0,0,0-2.43-.85c-1.06,0-1.84-.14-2.47-.22A14.89,14.89,0,0,0,155.45,404.12Z" transform="translate(-39.4 -339.84)"/><path d="M177.54,380.1c-.57,0-1.13,0-1.64-.07l-8.1-.56c-6.6-.47-13.42-1-17.73-1a3.54,3.54,0,0,1-2.84-1.15,9.24,9.24,0,0,0-1.76-1.89,4.19,4.19,0,0,1-.9-.94c-.95-1.71-1.8-5.4,0-8h0a10.71,10.71,0,0,1,4.88-3.7,25.26,25.26,0,0,0,2.64-1.29,25.72,25.72,0,0,1,2.75-1.33,48.32,48.32,0,0,1,11-2.69c3.56-.51,8.48-.67,11.66,1.51,4.45,3.05,6.44,6.94,6.45,12.6,0,2.82-.33,6.24-2.92,7.73A6.84,6.84,0,0,1,177.54,380.1Zm-32.16-13c-1.58,2.29-.64,5.65.07,6.92a4.2,4.2,0,0,0,.68.68,10.32,10.32,0,0,1,1.94,2.1,2.7,2.7,0,0,0,2,.69c4.35.06,11.18.55,17.79,1L176,379c1.43.09,3.22.21,4.57-.57,2.15-1.24,2.42-4.32,2.42-6.86,0-5.38-1.81-8.9-6-11.79-2.91-2-7.56-1.83-11-1.34a47.5,47.5,0,0,0-10.77,2.62,25.54,25.54,0,0,0-2.65,1.29,27.48,27.48,0,0,1-2.74,1.33,10,10,0,0,0-4.44,3.35Z" transform="translate(-39.4 -339.84)"/><path d="M192.48,367a.52.52,0,0,1-.18,0,.62.62,0,0,1-.46-.44c-.3-1.07,2.47-7.69,3.8-9.08.78-.82,2.94-1.91,5.22-3.06,1.34-.68,2.73-1.38,3.77-2a33.36,33.36,0,0,1,7.44-3.35l.34.94a17.7,17.7,0,0,0-2.41,3,16.31,16.31,0,0,1-3.6,4.28,51.51,51.51,0,0,0-6.64,5.42C198.9,363.56,194,367,192.48,367Zm18-16.38a38.22,38.22,0,0,0-5.35,2.63c-1.07.64-2.47,1.35-3.83,2a25.65,25.65,0,0,0-4.94,2.86c-1.21,1.26-3.19,6.27-3.52,7.79a28.09,28.09,0,0,0,6.21-3.92,52.65,52.65,0,0,1,6.77-5.52,15.27,15.27,0,0,0,3.32-4C209.23,352.36,209.83,351.46,210.49,350.61Z" transform="translate(-39.4 -339.84)"/></g><g class="teeth"><path d="M108.75,392.22a2.24,2.24,0,0,1-1.23-.42,3.54,3.54,0,0,1-1.24-2.21l1-.16a2.52,2.52,0,0,0,.85,1.57,1,1,0,0,0,.75.2,5.35,5.35,0,0,0,.43-2.14l1,0a6.19,6.19,0,0,1-.59,2.71,1,1,0,0,1-.71.45A1,1,0,0,1,108.75,392.22Z" transform="translate(-39.4 -339.84)"/><path d="M116.69,391.83a1.92,1.92,0,0,1-1.72-1.1,6,6,0,0,1-.23-1.94l1,0a5.24,5.24,0,0,0,.17,1.58,1,1,0,0,0,.81.43,1.47,1.47,0,0,0,.92-.58,4.07,4.07,0,0,0,.21-1.84l1,0a4.65,4.65,0,0,1-.33,2.34,2.53,2.53,0,0,1-1.59,1.09A.88.88,0,0,1,116.69,391.83Z" transform="translate(-39.4 -339.84)"/><path d="M121.22,391.08a2.15,2.15,0,0,1-.59-.1,2.11,2.11,0,0,1-1.3-1.13,5.62,5.62,0,0,1-.32-1.77l1-.06a4.88,4.88,0,0,0,.27,1.49,1.17,1.17,0,0,0,.68.52.54.54,0,0,0,.37,0,3,3,0,0,0,.68-2.25l1-.28a3.74,3.74,0,0,1-1.08,3.36A1.14,1.14,0,0,1,121.22,391.08Z" transform="translate(-39.4 -339.84)"/><path d="M124.54,390.66h-.06a1.92,1.92,0,0,1-1.48-.91,5,5,0,0,1-.56-2.05l1-.06a4.09,4.09,0,0,0,.44,1.63.89.89,0,0,0,.64.39c.12,0,.29,0,.47-.3a4,4,0,0,0,.18-2.15l1-.13a4.86,4.86,0,0,1-.33,2.83A1.54,1.54,0,0,1,124.54,390.66Z" transform="translate(-39.4 -339.84)"/><path d="M112,391.67a1.78,1.78,0,0,1-1.63-.9,4.66,4.66,0,0,1-.36-1.36l0-.19,1-.16,0,.21a3.44,3.44,0,0,0,.27,1.06.88.88,0,0,0,1,.32.73.73,0,0,0,.61-.54,3.56,3.56,0,0,0,.1-1.31l1-.14a4.46,4.46,0,0,1-.12,1.68,1.74,1.74,0,0,1-1.4,1.3Z" transform="translate(-39.4 -339.84)"/><path d="M130,390.05l-.2,0c-.84-.15-1.35-1.11-1.58-1.67a13.45,13.45,0,0,1-.57-1.87l1-.23a13.5,13.5,0,0,0,.52,1.72c.28.68.63,1,.83,1.06s.21-.05.35-.2a6.83,6.83,0,0,0,.21-3.18l1-.17c.06.39.32,3.16-.46,4A1.42,1.42,0,0,1,130,390.05Z" transform="translate(-39.4 -339.84)"/><path d="M131.79,396.63a5.21,5.21,0,0,1,.13-2.06,1.7,1.7,0,0,1,1.31-1.07,2,2,0,0,1,1.86.37c.15.16,1,1.19.91,1.85l-1-.1a3.77,3.77,0,0,0-.65-1.07,1.11,1.11,0,0,0-.89-.08c-.34.09-.55.25-.58.37a4.18,4.18,0,0,0-.12,1.63Z" transform="translate(-39.4 -339.84)"/><path d="M127.4,390.05A1.53,1.53,0,0,1,126,389a11.18,11.18,0,0,1-.43-2l1-.12a10.69,10.69,0,0,0,.37,1.73c.12.3.32.47.55.43s.48-.32.49-.85a10.84,10.84,0,0,0-.07-1.11c0-.2,0-.4,0-.6l1-.07c0,.19,0,.38,0,.57,0,.4.07.81.07,1.24a1.73,1.73,0,0,1-1.32,1.8A1,1,0,0,1,127.4,390.05Z" transform="translate(-39.4 -339.84)"/><path d="M132.8,388.63a1,1,0,0,1-.42-.08,3.5,3.5,0,0,1-1.67-2.45,3.23,3.23,0,0,0-.1-.32l.91-.4a3.08,3.08,0,0,1,.15.44c.16.57.44,1.53,1.1,1.81a.62.62,0,0,0,.52-.31,7.81,7.81,0,0,0,.16-2.19v-.37h1v.34a7.35,7.35,0,0,1-.24,2.6A1.64,1.64,0,0,1,132.8,388.63Z" transform="translate(-39.4 -339.84)"/><path d="M124.41,398a2.82,2.82,0,0,1,1-2.83,2.38,2.38,0,0,1,2.17-.09,4.48,4.48,0,0,1,1.43,2.14l-1,.29a4.33,4.33,0,0,0-.92-1.54,1.58,1.58,0,0,0-1.09,0c-.43.35-.73.69-.61,2Z" transform="translate(-39.4 -339.84)"/><path d="M128.46,397.47l0-.35a5.34,5.34,0,0,1,.07-2.17,1.68,1.68,0,0,1,1.53-1.11,1.52,1.52,0,0,1,1.58.73,6.12,6.12,0,0,1,.32,1,5.9,5.9,0,0,0,.31.91l-.87.49a5.24,5.24,0,0,1-.4-1.13,6.89,6.89,0,0,0-.26-.8c-.06-.13-.31-.2-.59-.18s-.61.19-.66.39a4.3,4.3,0,0,0,0,1.79l0,.36Z" transform="translate(-39.4 -339.84)"/><path d="M117.42,399a2.75,2.75,0,0,1,1-2.85,2.14,2.14,0,0,1,2-.11,3,3,0,0,1,1.29,2.49l-1,0a2.08,2.08,0,0,0-.78-1.58,1.26,1.26,0,0,0-1,.1,1.85,1.85,0,0,0-.51,1.84Z" transform="translate(-39.4 -339.84)"/><path d="M113.75,399.26l-1,0a4,4,0,0,1,.77-2,2.21,2.21,0,0,1,1.91-.46c.83.22,1.38,1.69,1.46,2.23l-1,.14a2.68,2.68,0,0,0-.74-1.41,1.23,1.23,0,0,0-1,.24A3.76,3.76,0,0,0,113.75,399.26Z" transform="translate(-39.4 -339.84)"/><path d="M107,399.63l-1-.14a2.75,2.75,0,0,1,1.65-2.46,2.16,2.16,0,0,1,2,.48,2.26,2.26,0,0,1,.71,1.95l-1-.13a1.27,1.27,0,0,0-.38-1.06,1.13,1.13,0,0,0-1-.28C107.42,398.15,107.11,399,107,399.63Z" transform="translate(-39.4 -339.84)"/><path d="M101.46,399.66a2.53,2.53,0,0,1,1-2.28,3.2,3.2,0,0,1,2.52-.07,3.37,3.37,0,0,1,1.18,2l-1,.21a2.31,2.31,0,0,0-.76-1.4,2.56,2.56,0,0,0-1.42.09,1.57,1.57,0,0,0-.56,1.41Z" transform="translate(-39.4 -339.84)"/><path d="M110.53,399.52l-1-.17,0-.25a3.45,3.45,0,0,1,.54-1.7,1.85,1.85,0,0,1,2.48-.16,3.75,3.75,0,0,1,.82,2l-1,.09A3,3,0,0,0,112,398a.88.88,0,0,0-1.07,0,3.4,3.4,0,0,0-.31,1.2Z" transform="translate(-39.4 -339.84)"/><path d="M121.23,398.65a1.84,1.84,0,0,1,.47-2.2,2,2,0,0,1,2.19-.24,2.29,2.29,0,0,1,1.23,1.76l-1,.14a1.32,1.32,0,0,0-.69-1,1,1,0,0,0-1.1.11.82.82,0,0,0-.22,1Z" transform="translate(-39.4 -339.84)"/>
	</g>
</svg>