<svg xmlns="http://www.w3.org/2000/svg" viewBox="0 0 198.06 88.13">
  <defs>
    <style>
      path {
        fill: none;
        stroke: #000;
        stroke-miterlimit: 10;
      }
    </style>
  </defs>
  <title>Stegosaurus stenops</title>
  <metadata>
    <phyloxml xmlns:xsi="http://www.w3.org/2001/XMLSchema-instance" xmlns="http://www.phyloxml.org" xsi:schemaLocation="http://www.phyloxml.org http://www.phyloxml.org/1.10/phyloxml.xsd">
        <phylogeny rooted="true" rerootable="false">
            <clade>
                <name>Animalia</name>
                <clade>
                    <name>Chordata</name>
                    <clade>
                        <name>Dinosauria</name>
                        <clade>
                            <name>Ornithischia</name>
                            <clade>
                                <name>Stegosauria</name>
                                <clade>
                                    <name>Stegosauridae</name>
                                    <clade>
                                        <name>Stegosaurinae</name>
                                        <clade>
                                            <name>Stegosaurus</name>
                                        </clade>
                                    </clade>
                                </clade>
                            </clade>
                        </clade>
                    </clade>
                </clade>
            </clade>
        </phylogeny>
    </phyloxml>
  </metadata>
  <g class="outline">
    <path class="cls-1" d="M201.66,425.6a3.22,3.22,0,0,0-.82-1.54,1.75,1.75,0,0,0-2.45.52,5.09,5.09,0,0,0-.13,1.95l-.51.15c-.26-.46-.45-1.54-.68-2-.39-.79-2-.58-2.3.31a6.22,6.22,0,0,0,0,2.47l-.48,0a4.42,4.42,0,0,0-1.23-1.94,2.05,2.05,0,0,0-1.73,0c-.66.53-1,1.11-.84,2.52l-.29.07a2,2,0,0,0-1-1.46,1.64,1.64,0,0,0-1.74.19,1.42,1.42,0,0,0-.36,1.67l-.46.11a2.7,2.7,0,0,0-1.09-2.15,1.79,1.79,0,0,0-1.62.11,2.43,2.43,0,0,0-.8,2.48l-1.61.12c-.08-.57-.61-1.78-1.15-1.92a1.81,1.81,0,0,0-1.52.37,3.85,3.85,0,0,0-.64,1.76l-.35,0a3.38,3.38,0,0,0-.68-1.76,1.43,1.43,0,0,0-1.87.1,4.27,4.27,0,0,0-.49,1.82l-.17-.05a1.89,1.89,0,0,0-.58-1.59,1.76,1.76,0,0,0-1.59-.4c-.81.24-1.24,1.24-1.37,2.17l-.88-.13a3,3,0,0,0-1-1.82,3,3,0,0,0-2.08.09,2.69,2.69,0,0,0-.88,2.21c-5.09-.17-19.54,2.61-26.88,4.2-5.71,1.24-9.26,5.92-11.66,6.28-4.16.62-10.61,1.77-14.32,2.39-1.24.44,4,6.57,7.16,7.24s5,1.33,7.6,4c1.33,1.33,5.27,2.15,7.07,1.59,1.33-.41,3.45-4,3.92-4,2.17,0,5.2-.23,9.87-.32,31.7-.67,61.54.79,86.6-.8,7-.45,13.69-3.72,29.08-5a100.25,100.25,0,0,0,10.39-1.11c4.27-.8,5.07-3,6.22-5.26.4-.78,1.74-.38,2-2.2.29-2.18.11-4.06-1.06-5.05-.94-.78-2.26-.44-2.39-.89a20.87,20.87,0,0,1-.34-3.95c.3-4.77.43-12.66,1.22-14.57a6.74,6.74,0,0,0,7.39-3.66c1.35-2.8,1.09-6.36-1.24-8.4a17.82,17.82,0,0,1,1.54-2.39c.61.85,2.07,2.36,3.41,2s2.27-1.87,3.09-3c2.62-3.64,4.92-9.11,4.46-13.57-.51-5-3.24-7.52-7-10.87a26.14,26.14,0,0,0-5.57-3.8c-1.43-.52-8.2,2.57-9.72,2.65-5.23.27-7-1-13.17-.27-8.78,1-16.22,3.73-24.14,4.34A61.29,61.29,0,0,0,221,379.81c-3.56,1.52-6-.35-12.18,1.46-11.8,3.48-24.38,5.15-36.43,7.64-16.49,3.41-38,8.23-54.37,12.56a23.68,23.68,0,0,0-4.86,1.68,8.39,8.39,0,0,0-2.83,2.82,82.75,82.75,0,0,0-4.24,7.17c-2.08,3.7-4.27,7.5-3.66,11.7a1.45,1.45,0,0,0,.39.94,1.5,1.5,0,0,0,1.07.21A51,51,0,0,0,115,424.18c3.36-.88,6.59-.54,11-2.12,3.1-1,10.59,1.06,16.62-.09s22.28-2,28.64-2.87a3.21,3.21,0,0,0,1.11,2c.43.32,1.25.54,1.55.09a5.13,5.13,0,0,0,.5-2.36l.7-.11a5.08,5.08,0,0,0,.36,1.49,1.42,1.42,0,0,0,1.54.63,1.38,1.38,0,0,0,1.11-1.06,2.87,2.87,0,0,0,.09-1.24l2-.18a5.92,5.92,0,0,0,.21,1.86A1.51,1.51,0,0,0,182,421a2.07,2.07,0,0,0,1.33-.88,4.52,4.52,0,0,0,.28-2.21l1.22-.15a4.37,4.37,0,0,0,.31,1.52c.22.61,1.37,1.19,1.9.84a3.23,3.23,0,0,0,.88-2.86l.54-.1a4.58,4.58,0,0,0,.53,1.94,1.2,1.2,0,0,0,2.07.13,4.57,4.57,0,0,0,.27-2.62l.45-.09a11.07,11.07,0,0,0,.39,1.83c.48,1.28,2.08,1,2.11-.62A16.7,16.7,0,0,0,194,416l.24-.09a12.65,12.65,0,0,0,.26,1.76c.46,1.1,1.29,2,2.13,1.06.51-.57.36-2.57.23-3.46,0,0,0,0,0,0,.22.6.64,1.9,1.66,2.33a1.09,1.09,0,0,0,1.24-.61,9.61,9.61,0,0,0,.21-2.9,16.55,16.55,0,0,0,4.3-2.1c2.33-1.3,5.28-.32,8-.36,5.07-.07,10,.54,15,.47,4-.05,6.77,1,11.77.93a7.86,7.86,0,0,1,2.6,1.34,42.84,42.84,0,0,1,6.94,4.95c-5.92-3.22-19.71-3.67-24.92-1.68C214.66,421.09,205.7,424.1,201.66,425.6Z" transform="translate(-101.85 -368.29)"/>
  </g>
  <g class="teeth">
    <path class="cls-1" d="M171.34,419.1a3.21,3.21,0,0,0,1.11,2c.43.32,1.25.54,1.55.09a5.87,5.87,0,0,0,.53-2.56" transform="translate(-101.85 -368.29)"/>
    <path class="cls-1" d="M180.28,418.35a5.92,5.92,0,0,0,.21,1.86A1.51,1.51,0,0,0,182,421a2.07,2.07,0,0,0,1.33-.88,4.52,4.52,0,0,0,.28-2.21" transform="translate(-101.85 -368.29)"/>
    <path class="cls-1" d="M184.78,417.55a5.67,5.67,0,0,0,.31,1.73c.22.61,1.37,1.19,1.9.84a3.46,3.46,0,0,0,.93-3" transform="translate(-101.85 -368.29)"/>
    <path class="cls-1" d="M188.41,417.16a4.58,4.58,0,0,0,.53,1.94,1.2,1.2,0,0,0,2.07.13,4.57,4.57,0,0,0,.27-2.62" transform="translate(-101.85 -368.29)"/>
    <path class="cls-1" d="M175.2,418.71a5.08,5.08,0,0,0,.36,1.49,1.45,1.45,0,0,0,1.57.63,1.33,1.33,0,0,0,1.07-1,4.38,4.38,0,0,0,.11-1.57" transform="translate(-101.85 -368.29)"/>
    <path class="cls-1" d="M193.93,415.79a15.94,15.94,0,0,0,.57,1.9c.46,1.1,1.29,2,2.13,1.06.55-.62.48-3.05.35-3.8" transform="translate(-101.85 -368.29)"/>
    <path class="cls-1" d="M198.26,426.53a5.09,5.09,0,0,1,.13-1.95,1.75,1.75,0,0,1,2.45-.52,3.22,3.22,0,0,1,.82,1.54" transform="translate(-101.85 -368.29)"/>
    <path class="cls-1" d="M191.69,416.4a11.79,11.79,0,0,0,.43,2c.48,1.28,2.08,1,2.11-.62,0-.62-.09-1.24-.13-1.86" transform="translate(-101.85 -368.29)"/>
    <path class="cls-1" d="M200,414.09a9.61,9.61,0,0,1-.21,2.9,1.09,1.09,0,0,1-1.24.61c-1.16-.49-1.4-2.21-1.59-2.65" transform="translate(-101.85 -368.29)"/>
    <path class="cls-1" d="M194.28,427.41a4.42,4.42,0,0,0-1.23-1.94,2.05,2.05,0,0,0-1.73,0c-.66.53-1,1.11-.84,2.52" transform="translate(-101.85 -368.29)"/>
    <path class="cls-1" d="M194.76,427.45a6.22,6.22,0,0,1,0-2.47c.25-.89,1.91-1.1,2.3-.31.23.47.42,1.55.68,2" transform="translate(-101.85 -368.29)"/>
    <path class="cls-1" d="M186.61,428.61a2.7,2.7,0,0,0-1.09-2.15,1.79,1.79,0,0,0-1.62.11,2.43,2.43,0,0,0-.8,2.48" transform="translate(-101.85 -368.29)"/>
    <path class="cls-1" d="M181.49,429.17c-.08-.57-.61-1.78-1.15-1.92a1.81,1.81,0,0,0-1.52.37,3.85,3.85,0,0,0-.64,1.76" transform="translate(-101.85 -368.29)"/>
    <path class="cls-1" d="M174.62,429.53a1.89,1.89,0,0,0-.58-1.59,1.76,1.76,0,0,0-1.59-.4c-.81.24-1.24,1.24-1.37,2.17" transform="translate(-101.85 -368.29)"/>
    <path class="cls-1" d="M166.26,429.8a2.18,2.18,0,0,1,.84-1.95,3,3,0,0,1,2.08-.09,3,3,0,0,1,1,1.82" transform="translate(-101.85 -368.29)"/>
    <path class="cls-1" d="M174.79,429.58a4.27,4.27,0,0,1,.49-1.82,1.43,1.43,0,0,1,1.87-.1,3.38,3.38,0,0,1,.68,1.76" transform="translate(-101.85 -368.29)"/>
    <path class="cls-1" d="M187.07,428.5a1.42,1.42,0,0,1,.36-1.67,1.64,1.64,0,0,1,1.74-.19,2,2,0,0,1,1,1.46" transform="translate(-101.85 -368.29)"/>
  </g>
  <g class="skull">
    <path class="base" d="M299.34,383.52c-.51-5-3.24-7.52-7-10.87a26.14,26.14,0,0,0-5.57-3.8c-1.43-.52-8.2,2.57-9.72,2.65-5.23.27-7-1-13.17-.27-8.78,1-16.22,3.73-24.14,4.34A61.29,61.29,0,0,0,221,379.81c-3.56,1.52-6-.35-12.18,1.46-11.8,3.48-24.38,5.15-36.43,7.64-16.49,3.41-38,8.23-54.37,12.56a23.68,23.68,0,0,0-4.86,1.68,8.39,8.39,0,0,0-2.83,2.82,82.75,82.75,0,0,0-4.24,7.17c-2.08,3.7-4.27,7.5-3.66,11.7a1.45,1.45,0,0,0,.39.94,1.5,1.5,0,0,0,1.07.21A51,51,0,0,0,115,424.18c3.36-.88,6.59-.54,11-2.12,3.1-1,10.59,1.06,16.62-.09s13-1.36,19.1-2c7.47-.72,14.19-1.46,18.57-1.92a85.49,85.49,0,0,0,15.41-2.73,34.57,34.57,0,0,0,8.54-3.38c2.24-1.45,5.28-.32,8-.36,5.07-.07,10,.54,15,.47,4-.05,6.77,1,11.77.93a7.86,7.86,0,0,1,2.6,1.34,42.84,42.84,0,0,1,6.94,4.95c-5.92-3.22-19.66-3.53-24.92-1.68-7.58,2.68-21.05,8.44-29.62,10-10.74,1.95-20.51,2.05-29.61,2.39-4.69.18-17.77,2.65-25.11,4.24-5.71,1.24-9.26,5.92-11.66,6.28-4.16.62-10.61,1.77-14.32,2.39-1.24.44,4,6.57,7.16,7.24s5,1.33,7.6,4c1.33,1.33,5.27,2.15,7.07,1.59,1.33-.41,3.45-4,3.92-4,2.17,0,5.2-.23,9.87-.32,31.7-.67,61.54.79,86.6-.8,7-.45,13.69-3.72,29.08-5a100.25,100.25,0,0,0,10.39-1.11c4.27-.8,5.07-3,6.22-5.26.4-.78,1.74-.38,2-2.2.29-2.18.11-4.06-1.06-5.05-.94-.78-2.26-.44-2.39-.89a20.87,20.87,0,0,1-.34-3.95c.3-4.77.43-12.66,1.22-14.57a6.74,6.74,0,0,0,7.39-3.66c1.35-2.8,1.09-6.36-1.24-8.4a17.82,17.82,0,0,1,1.54-2.39c.61.85,2.07,2.36,3.41,2s2.27-1.87,3.09-3C297.5,393.45,299.8,388,299.34,383.52ZM147.57,407a8.64,8.64,0,0,1-2,1.41c-3.76,1.41-4.31,3-8.31,3.36s-11.58.57-15.64-.44a41.21,41.21,0,0,1-4.42-1.33c-1.33-.35-1.51-2.15-1.33-3.45.22-1.59,1.58-2.15,3-2.81,7.16-3.24,15.29-3.43,23.15-3.53,1.84,0,4,.13,5,1.71.44.72,1.21,1.14,1.26,2A4.7,4.7,0,0,1,147.57,407Zm86.89,32.79c-.26.84-1.79,1.59-2.65,1.77-3.88.79-8.75-.88-11.76-2.56-.82-.47-2.36-1.53-2.39-2.48a1.71,1.71,0,0,1,.8-1.59,8.09,8.09,0,0,1,2.65-.8c2.08-.44,2.83.05,5.84.18a6.46,6.46,0,0,1,2.83,1c1,.65,2.37,1,3.11,2C233.45,438,234.73,439,234.46,439.83Zm15-31.94c-1.52.88-3.38.79-5.12.68C235,408,223.5,407,217.05,406.9a3.28,3.28,0,0,1-2.57-1c-1-1.5-2.47-2.4-2.78-3-.89-1.59-1.81-5.3,0-7.87a11,11,0,0,1,4.92-3.71c2.46-1,3.24-1.76,5.69-2.77a49.6,49.6,0,0,1,11.49-2.8c3.8-.55,8.78-.66,11.94,1.5,4.18,2.87,6.57,6.54,6.57,12.87C252.27,403.08,252,406.45,249.45,407.89Zm21,21.54a9.74,9.74,0,0,1-2.45-3.12,17.23,17.23,0,0,0-1.94-3,12.26,12.26,0,0,0-1.53-1.35,6.21,6.21,0,0,1,3.9.78,5.9,5.9,0,0,1,1.6,1.39,13,13,0,0,1,.88,1.31,8.49,8.49,0,0,1,.78,1.64c.17.49.37,1.18.5,1.68a11.11,11.11,0,0,1,.41,2A18.29,18.29,0,0,1,270.44,429.43Zm9.4-49.12a16.56,16.56,0,0,1-3.66,4.36,55.85,55.85,0,0,0-7.07,5.78c-1.36,1.32-7.25,5.06-7.48,4.24s2.41-7.53,3.89-9.08c1.23-1.29,6.48-3.52,9.37-5.24a34.49,34.49,0,0,1,7.72-3.48A17.38,17.38,0,0,0,279.84,380.31Z" transform="translate(-101.85 -368.29)"/>
    <path class="cls-1" d="M194,451.32c3.54-1.41,19.52-4.2,29.35-3.5a34,34,0,0,1,10.61,3" transform="translate(-101.85 -368.29)"/>
    <path class="cls-1" d="M240.82,449.73a17.38,17.38,0,0,0-3.51-2.48,25.43,25.43,0,0,1-3.28-2.16c-1.48-1.08-3.15-2.27-4.7-3.26" transform="translate(-101.85 -368.29)"/>
    <path class="cls-1" d="M233.62,437.93a49.42,49.42,0,0,1,9-4.64c6-2.39,12.26-1.89,19.13.53,1.26.44,4.74,1,6,1.31s2.61.48,3.89.84c1.82.52,3.5,1.43,5.28,2.07s3.95,1.32,5.32.49" transform="translate(-101.85 -368.29)"/>
    <path class="cls-1" d="M238.57,416.76c-2.12,1.74-4.33,6.48-4.64,7.16-1,2.21-3,4.59-3.58,6a16.1,16.1,0,0,0-1.5,4.95" transform="translate(-101.85 -368.29)"/>
    <path class="cls-1" d="M211,395.66c-2.77-2.05-6.43-2.4-9.86-2.26a7.25,7.25,0,0,0-4.68,1.39c-2.13,1.91-1.55,5.88-3.18,8.22-1.4,2-4.45,2.7-4.81,5.11,1.74,1.09,4,.92,6,.56,5.57-1,11.22-3.21,16.71-1.84,1.41.35,2.76.93,4.17,1.28,3.22.78,6.59.29,9.89.44,9.1.41,17.25,5.65,24.25,11.47,1.84,1.53,3.77,3.18,6.13,3.52,4,.58,8-2.65,11.76-1.37,3.09,1,4.75,5.17,5.22,8.4" transform="translate(-101.85 -368.29)"/>
    <path class="cls-1" d="M207.87,409a35.71,35.71,0,0,1,6.86.17c4.46.69,10.4,2.62,14.56,2.93" transform="translate(-101.85 -368.29)"/>
    <path class="cls-1" d="M194.9,397.75c.5.85,1.18.81,1.37,1.77.09.44.27,1.28,1.11,1.46a2.52,2.52,0,0,0,1.76-.62,2.54,2.54,0,0,1,1.47-.89c1.47-.41,2.7,1.3,4.21,1.48a9.06,9.06,0,0,1,2.09.08,3,3,0,0,1,1.2,1l1.15,1.37a2.41,2.41,0,0,0,1.49,1.07c.63.07,1.5-.83,1.12-1.33" transform="translate(-101.85 -368.29)"/>
    <path class="cls-1" d="M198,393.81a4.73,4.73,0,0,1,.87-3.37,10.9,10.9,0,0,1,2.31-2.29c1.3-.9,2.43-1.59,3.77-2.42a19.72,19.72,0,0,1,3.43-1.58,32.18,32.18,0,0,1,3.94-1.25,70.49,70.49,0,0,1,8.43-1.12" transform="translate(-101.85 -368.29)"/>
    <path class="cls-1" d="M202.85,393.28a25.21,25.21,0,0,1,9.51-8.14c1.07-.58,3.63-1.69,4.77-2.12a24.41,24.41,0,0,1,4.6-1.41,45.75,45.75,0,0,1,8-.53c2.43,0,4.8.34,7.19-.18,4.65-1,9.21-5.3,14-5.66a12.5,12.5,0,0,1,3.95.3,6.62,6.62,0,0,1,1.77.76c1.11.83,1.25,2.28,1.12,3.66-.45,4.81-2.71,9.84-7.13,12.61" transform="translate(-101.85 -368.29)"/>
    <path class="cls-1" d="M249.31,408.07a3.73,3.73,0,0,0,3.45,1.13,10.2,10.2,0,0,0,3.49-1.24,10.86,10.86,0,0,0,1.95-1.15c1.53-1.41,1.59-3.13,1.76-5.21a33.21,33.21,0,0,1,1.84-7.91" transform="translate(-101.85 -368.29)"/>
    <path class="cls-1" d="M255.85,376c2.23-.71,3.9,0,6.19.41a9.75,9.75,0,0,0,6.72-.88c1-.57,2-1.69,3.06-2,1.26-.36,2.81.38,4.11.49a15.52,15.52,0,0,1,3.35.25,2.84,2.84,0,0,1,1.77,3" transform="translate(-101.85 -368.29)"/>
    <path class="cls-1" d="M271.35,426.16c.62-.35.53-1.71.54-2.22,0-2.3-.49-3.91,0-6.16a11.59,11.59,0,0,1,3.05-5.26,31.58,31.58,0,0,1,4.35-4,5.83,5.83,0,0,1,3.25-1.36" transform="translate(-101.85 -368.29)"/>
    <path class="cls-1" d="M110.39,414a10.92,10.92,0,0,1,0-2.17,4.63,4.63,0,0,1,.88-2.17,13.23,13.23,0,0,1,6.15-5.11" transform="translate(-101.85 -368.29)"/>
    <path class="cls-1" d="M259.52,404.87c2.87,2.17,7.34,5.17,11.33,6.44a12.1,12.1,0,0,0,4.86.41" transform="translate(-101.85 -368.29)"/>
    <path class="cls-1" d="M280.31,414A27.28,27.28,0,0,1,285,402.84c2.79-3.63,4.84-6.8,7.25-10.35.66-1,1.51-2.13,2.17-3.09a13.11,13.11,0,0,0,1.72-3.27,7.43,7.43,0,0,0,.09-4.73c-.15-.49-1.23-1.32-1.64-1.64a19.06,19.06,0,0,0-1.9-1.45c-2.33-.88-3.75-1.68-6.14-1.51s-3.14-.22-5.52.49" transform="translate(-101.85 -368.29)"/>
    <path class="cls-1" d="M264.33,421.9a8,8,0,0,1,2.9,3.08c1,2,1.88,3.6,3.71,4.83a9.18,9.18,0,0,0,5.36,1.77c1,0,2.53-.22,3.51-.23a3.63,3.63,0,0,1,2.78,1.1" transform="translate(-101.85 -368.29)"/>
    <path class="cls-1" d="M253.48,375.25c3.06.62,6.11-.17,9.15-.89a21,21,0,0,1,7.6-.53,6,6,0,0,0,2.36-.58c.61-.26.47-1.25.35-1.84" transform="translate(-101.85 -368.29)"/>
    <path class="cls-1" d="M272,428.25a13,13,0,0,0,3.18.93c.76.11,3.57.34,4.22,0" transform="translate(-101.85 -368.29)"/>
    <path class="cls-1" d="M194.7,397.59a53.71,53.71,0,0,0-14-.41c-3,.31-6.93,2-11,3.76" transform="translate(-101.85 -368.29)"/>
    <path class="cls-1" d="M124.24,451.1c.85-1.66-.2-3.84.71-5.47.69-1.24,2.34-1.8,2.79-3.14.14-.42.14-.86.26-1.28a2.17,2.17,0,0,1,.8-1.08" transform="translate(-101.85 -368.29)"/>
    <path class="cls-1" d="M134.34,455.86a3.34,3.34,0,0,0,1.81-1,16.54,16.54,0,0,0,2.69-3.19c.64-.85,1.35-1.66,2-2.47a2.46,2.46,0,0,1,.39-.4,2.88,2.88,0,0,1,1.95-.36" transform="translate(-101.85 -368.29)"/>
    <path class="cls-1" d="M126.79,421.89a27.08,27.08,0,0,0,7-1.82c.84-.39,1.64-.86,2.44-1.32,2.12-1.24,4.12-1.93,6.14-3.32,1.24-.84,3.18-1.56,4.42-2.38,2.67-1.76,7.25-3.67,8.89-5.53s5.26-2.34,8.25-3.09c2-.51,4.85-1.63,5.8-3.49" transform="translate(-101.85 -368.29)"/>
    <path class="cls-1" d="M127.69,417.93c3.82-.84,4.7-1.6,8.12-3.51,2.24-1.26,5.16-3.2,6.16-3.69s1.8-1.18,2.74-1.7c2.24-1.24,3.5-1.74,5.64-3.14.77-.51,2.86-1,3.66-1.46a36.71,36.71,0,0,1,3.94-1.5c3.9-1.26,9.15-2.26,11.8-2" transform="translate(-101.85 -368.29)"/>
    <path class="cls-1" d="M125.47,401.51a2.74,2.74,0,0,1-.52-.89,1.22,1.22,0,0,1,0-.88" transform="translate(-101.85 -368.29)"/>
  </g>
  <g class="fenestrae">
    <path class="cls-1" d="M121.58,411.37a41.21,41.21,0,0,1-4.42-1.33c-1.33-.35-1.51-2.15-1.33-3.45.22-1.59,1.58-2.15,3-2.81,7.16-3.24,15.29-3.43,23.15-3.53,1.84,0,4,.13,5,1.71.44.72,1.21,1.14,1.26,2a4.7,4.7,0,0,1-.7,3.1,8.64,8.64,0,0,1-2,1.41c-3.76,1.41-4.31,3-8.31,3.36S125.64,412.38,121.58,411.37Z" transform="translate(-101.85 -368.29)"/>
    <path class="cls-1" d="M220.05,439c-.82-.47-2.36-1.53-2.39-2.48a1.71,1.71,0,0,1,.8-1.59,8.09,8.09,0,0,1,2.65-.8c2.08-.44,2.83.05,5.84.18a6.46,6.46,0,0,1,2.83,1c1,.65,2.37,1,3.11,2,.56.73,1.84,1.65,1.57,2.53s-1.79,1.59-2.65,1.77C227.93,442.39,223.06,440.72,220.05,439Z" transform="translate(-101.85 -368.29)"/>
    <path class="cls-1" d="M211.65,395.1a11,11,0,0,1,4.92-3.71c2.46-1,3.24-1.76,5.69-2.77a49.6,49.6,0,0,1,11.49-2.8c3.8-.55,8.78-.66,11.94,1.5,4.18,2.87,6.57,6.54,6.57,12.87,0,2.89-.31,6.26-2.81,7.7-1.52.88-3.38.79-5.12.68C235,408,223.5,407,217.05,406.9a3.28,3.28,0,0,1-2.57-1c-1-1.5-2.47-2.4-2.78-3C210.81,401.38,209.89,397.67,211.65,395.1Z" transform="translate(-101.85 -368.29)"/>
    <path class="cls-1" d="M282.61,376.89a34.69,34.69,0,0,0-7.72,3.48c-2.89,1.72-8.14,3.95-9.37,5.24-1.48,1.55-4.11,8.31-3.89,9.08s6.12-2.92,7.48-4.24a55.85,55.85,0,0,1,7.07-5.78,16.56,16.56,0,0,0,3.66-4.36A17.38,17.38,0,0,1,282.61,376.89Z" transform="translate(-101.85 -368.29)"/>
    <path class="cls-1" d="M270.93,373.76a8.83,8.83,0,0,1-6.62,2.73c-2.3-.05-5.92-.95-7.78-1a53.9,53.9,0,0,0,7.37-1.4,14.42,14.42,0,0,1,3.72-.41C269.4,373.74,270.64,374.07,270.93,373.76Z" transform="translate(-101.85 -368.29)"/>
  </g>
</svg>
