<svg xmlns="http://www.w3.org/2000/svg" viewBox="0 0 184.74 186.38">
  <defs>
    <style>
      path {
        fill: none;
        stroke: #000;
        stroke-miterlimit: 10;
      }
    </style>
  </defs>
  <title>Triceratops horridus</title>
  <metadata>
    <phyloxml xmlns:xsi="http://www.w3.org/2001/XMLSchema-instance" xmlns="http://www.phyloxml.org" xsi:schemaLocation="http://www.phyloxml.org http://www.phyloxml.org/1.10/phyloxml.xsd">
      <phylogeny rooted="true" rerootable="false">
        <clade>
          <name>Animalia</name>
          <clade>
            <name>Chordata</name>
            <clade>
              <name>Dinosauria</name>
              <clade>
                <name>Ornithischia</name>
                <clade>
                  <name>Ceratopsidae</name>
                  <clade>
                    <name>Chasmosaurinae</name>
                    <clade>
                      <name>Triceratopsini</name>
                      <clade>
                        <name>Triceratops</name>
                      </clade>
                    </clade>
                  </clade>
                </clade>
              </clade>
            </clade>
          </clade>
        </clade>
      </phylogeny>
    </phyloxml>
  </metadata>
  <g class="outline">
    <path class="cls-1" d="M240.09,259.87c1.45,2.18,1.89,2.5,3.47,4.9,1.4,2.12,3.79,4.88,5.51,7,2.28,2.9,2.43,3.06,4.72,5.93a88.73,88.73,0,0,0,7.1,7.79c6.08,5.91,10,10.43,16.41,16.21,1.83,1.64,5.69,5.54,7.94,7.67,1.66,1.57,5.35,4.61,8.43,7.82s6.64,6.19,9.65,9.71c3.8,4.44,7.31,7.56,8.67,9.2s3.6,3.54,5,5.15c3.28,3.66,12.05,14.12,14.23,9.64,2.08-4.28,6.83-2.08,9.12-5.2,4.71-6.44,4.89-6,11.51-9.26,4-2,5-6.52,8.48-9.25,6.73-5.3,9-11.68,10.83-13.48,5.57-5.43,5.12-9.18,7.32-12.9,1.46-2.46,1.23-3.68,2-6.52.39-1.55.62-5.26,1.85-4.52,2.06,1.05,3.18,3,4.22,4.83.87,1.56.1,2.28,2,1.86,1-.22,2.83-1.93,4.05-2.37,2.29-.62.86,3.13,1.13,5.63.11,1,.15,1.31,1.05,1.91s3.58.85,4.48,1.19c3.76,1.4,1,2.8.26,10.88,4.61,4.06,3.31,6,2.29,11.57a25,25,0,0,0-.4,6.67c.21,2.33,1.15,5.36.44,7.71-1.37,4.54-5,8.66-6.72,12.94-1,2.51-1,4.62-2.37,7.17a13.36,13.36,0,0,1-3.88,4.9c-1.62,1.34-3.76,5-4.25,5.85-1.35,2.27-1.87,4.67-3.78,6.53-3.59,3.51-5.64.2-8.71,5.28-1.47,2.44-2.07,5.56-4.75,6a10.41,10.41,0,0,0-6.34,3.47c-1.36,1.79-2.59,3.82-4.66,4.65-1.06.43-1.83-.28-2.73.06-1.15.44-.95,2.71-1.8,3.54-2.18,2.17-4.76,1.17-7.93,1.22-6.36.1-4.23-3.61-7.14-5.78-1.56,1.69-3.66,7.47-4.45,9.68-.87,2.45-2.08,4.73-2.34,7.35-.17,1.69-.28,4,.34,4.18,3.72,1.12,3.35,2.39,2.1,4.34-1.63,3-3.51,2.89-4.89,3.3s-3.14,1.1-6.31,1.78-13.34,4-16.37,4.55c-7.9,1.33-7,1.5-14.88,3.46-6,1.48-11.1,3.74-17,5.27-4.22,1.1-9.27,5.44-10.73,5.41-3-.07-5.45-.21-8.27-.38a35.13,35.13,0,0,1-10.12-2.13c-5.26-1.87-10.55-6.07-12.21-11.78-2.09,1.54-2.57,6.84-2.32,8.92-6-6.28-12.21-13.69-9.75-23.29,1.4-5.47,5.65-11.75,9.43-15.13,1.58-1.41,3.56-2.08,5.26-3.29a4.37,4.37,0,0,0,2-3.78,41.81,41.81,0,0,1-1.45-5.11c-.41-1.69-1.43-5.21-1.75-6.39-.14-.92,0-1.38,2-1,2.38.4,3.9.54,5.78.85,1.31.21,4.48.76,5.91.86a56,56,0,0,0,8.41.29,37.7,37.7,0,0,0,12.83-2.67c3.45-1.22,5.94-2.14,9.13-3.5,7.18-3.07,11.89-6.41,15.55-13.29,1.52-2.86,3.66-5.37,4.2-8.52.8-4.65-1.2-8-3.26-12-3.32-6.37-6.16-13.25-10.26-19.26a47.67,47.67,0,0,0-3.64-4.83c-2.11-2.63-5.34-6.71-7.66-9.14-1.1-1.36-3.13-4.09-4.36-5.35a44.16,44.16,0,0,1-4.57-5.86c-2.62-3.66-4.61-6.2-7.26-9.86-1.12-1.55-3.09-4.45-4.46-6.8-3.13-5.38-4.52-7.77-7.68-13.07-1.47-2.48-2.89-5.06-4.64-8.73C238.81,259.47,239.42,259.09,240.09,259.87Z" transform="translate(-218.58 -258.96)"/>
  </g>
  <g class="skull">
    <path class="base" d="M401.84,325.3c1-5.54,2.32-7.51-2.29-11.57.78-8.08,3.5-9.48-.26-10.88-.9-.33-3.73-.69-4.48-1.19s-.94-.87-1.05-1.91c-.27-2.5,1.16-6.25-1.13-5.63-1.22.44-3,2.15-4.05,2.37-1.94.42-1.17-.3-2-1.86-1-1.83-2.16-3.78-4.22-4.83-1.23-.74-1.46,3-1.85,4.52-.72,2.84-.49,4.06-2,6.52-2.2,3.72-1.75,7.47-7.32,12.9-1.85,1.8-4.1,8.18-10.83,13.48-3.47,2.73-4.51,7.27-8.48,9.25-6.62,3.31-6.8,2.82-11.51,9.26-2.29,3.12-7,.92-9.12,5.2-2.18,4.48-10.95-6-14.23-9.64-1.44-1.61-3.67-3.51-5-5.15s-4.87-4.76-8.67-9.2c-3-3.52-6.48-6.41-9.65-9.71s-6.77-6.25-8.43-7.82c-2.25-2.13-6.11-6-7.94-7.67-6.44-5.78-10.33-10.3-16.41-16.21a88.73,88.73,0,0,1-7.1-7.79c-2.29-2.87-2.44-3-4.72-5.93-1.72-2.16-4.11-4.92-5.51-7-1.58-2.4-2-2.72-3.47-4.9-.67-.78-1.28-.4-.94.71,1.75,3.67,3.17,6.25,4.64,8.73,3.16,5.3,4.55,7.69,7.68,13.07,1.37,2.35,3.34,5.25,4.46,6.8,2.65,3.66,4.64,6.2,7.26,9.86a44.16,44.16,0,0,0,4.57,5.86c1.23,1.26,3.26,4,4.36,5.35,2.32,2.43,5.55,6.51,7.66,9.14a47.67,47.67,0,0,1,3.64,4.83c4.1,6,6.94,12.89,10.26,19.26,2.06,4,4.06,7.35,3.26,12-.54,3.15-2.68,5.66-4.2,8.52-3.66,6.88-8.37,10.22-15.55,13.29-3.19,1.36-5.68,2.28-9.13,3.5a37.7,37.7,0,0,1-12.83,2.67,56,56,0,0,1-8.41-.29c-1.43-.1-4.6-.65-5.91-.86-1.88-.31-3.4-.45-5.78-.85-2-.36-2.16.1-2,1,.32,1.18,1.34,4.7,1.75,6.39a41.81,41.81,0,0,0,1.45,5.11,4.37,4.37,0,0,1-2,3.78c-1.7,1.21-3.68,1.88-5.26,3.29-3.78,3.38-8,9.66-9.43,15.13-2.46,9.6,3.79,17,9.75,23.29-.25-2.08.23-7.38,2.32-8.92,1.66,5.71,7,9.91,12.21,11.78A35.13,35.13,0,0,0,254,444.46c2.82.17,5.29.31,8.27.38,1.46,0,6.51-4.31,10.73-5.41,5.89-1.53,11-3.79,17-5.27,7.9-2,7-2.13,14.88-3.46,3-.51,13.27-3.88,16.37-4.55s4.91-1.41,6.31-1.78,3.26-.27,4.89-3.3c1.25-1.95,1.62-3.22-2.1-4.34-.62-.19-.51-2.49-.34-4.18.26-2.62,1.47-4.9,2.34-7.35.79-2.21,2.89-8,4.45-9.68,2.91,2.17.78,5.88,7.14,5.78,3.17-.05,5.75.95,7.93-1.22.85-.83.65-3.1,1.8-3.54.9-.34,1.67.37,2.73-.06,2.07-.83,3.3-2.86,4.66-4.65a10.41,10.41,0,0,1,6.34-3.47c2.68-.45,3.28-3.57,4.75-6,3.07-5.08,5.12-1.77,8.71-5.28,1.91-1.86,2.43-4.26,3.78-6.53.49-.83,2.63-4.51,4.25-5.85a13.36,13.36,0,0,0,3.88-4.9c1.37-2.55,1.35-4.66,2.37-7.17,1.75-4.28,5.35-8.4,6.72-12.94.71-2.35-.23-5.38-.44-7.71A25,25,0,0,1,401.84,325.3ZM282.52,386.57a7.38,7.38,0,0,1,1.19-2.1c.31-.42.61-.94,1-1.32a8.1,8.1,0,0,1,2-1.68c.25-.14.87-.44,1.16-.33s.28.54.19.81c-.15.44-.61,1.3-.95,2.05a6.35,6.35,0,0,1-.63,1.18,5.23,5.23,0,0,1-1.57,1.22,4.22,4.22,0,0,1-1.35.61C283,387.14,282.39,387.18,282.52,386.57Zm-40.91,7.6c1.09-2.55,7.12-5.15,12.1-5.76a59.93,59.93,0,0,1,8-.74c3.28,0,4.44-.25,7.64,1.71,1.92,1.21-1.59,9-3.88,13.29a36.67,36.67,0,0,1-7.57,9.07c1-6.7-1.58-7-2.58-8.1-1.49-1.6-.53-3.28-3.06-4.07-1.93,1.45-4.63,3.33-7.61,0C242.88,397.56,240.65,396.39,241.61,394.17Zm53.84,23.07c-2.53,1.3-7.37,2.26-10.25,2.73-4.11.69-6.8,2.06-10.07,3.11-.21,0-2.53.89-3.2,1.1a21.35,21.35,0,0,0-4.12,1.31,18.64,18.64,0,0,0-4.32,2.18c-3,2-6.81,4.59-10.24,5.34a16.65,16.65,0,0,1-4.72.24,17.15,17.15,0,0,1-5.16-1.07c-2.05-.82-13.34-5.55-7.3-7.7a10.73,10.73,0,0,1,4.81-.58c2.27.07,6.23-1,8.48-1.35a13.81,13.81,0,0,0,6.51-2.39c2.39-1.54,1.78-.35,4.49.16a24,24,0,0,0,6.52-.16,39.92,39.92,0,0,0,6.1-1.57c2.32-.72,4.35-1.07,6.79-1.62,1.37-.31,2.55-.68,4-.89a39.37,39.37,0,0,0,4.69-.62c2.29-.59,6.08-.89,8.32-1.31A5.83,5.83,0,0,1,295.45,417.24Zm4.21-39.57c-4.36.19-5.59-2.24-5.3-6.35.16-2.44,2.07-9,5.39-8.13l.87.06a5.7,5.7,0,0,1,3.42,2.18c.93,1.27,1,3.65,1.13,5.17C305.49,374,303.58,377.5,299.66,377.67Zm31.11,13.45c.4.07,1.18.36,1.24.57a14.13,14.13,0,0,1-4.2,1.81c-2.6.85-2.43-1.26-3.38-3.54-1.9-4.56-.75-5.7,2-8.76,1.41-1.56,3.1-3.05,3.87-2.7a4.43,4.43,0,0,1,2.27,4.19C332.57,385.69,326.79,389.37,330.77,391.12Zm13.3-27.87a24.54,24.54,0,0,0-2.57,0c-.39,0-3.61.63-4.23.58a6.94,6.94,0,0,1-4.19-1.5c-2.71-1.52-.15-2.88,1.06-2.63,1.75.36,2.8.72,4.53,1.09.88.19,2.47.93,3.23,1.17a38.5,38.5,0,0,1,4,1.16C346.05,363.23,344.27,363.28,344.07,363.25Z" transform="translate(-218.58 -258.96)"/>
    <path class="cls-1" d="M292.05,397.76c2.37,1.14,5.26-1,7.67-1.14,3-.21,6.14,2.06,8.73,3.48,1.89,1,1.94,1.77,3.12,3.22s2.72,2.15,3.59,3.5,1,2.3,2.43,3.49,3,1.38,4.37,2.16a6.52,6.52,0,0,0-1,3.57c-2.73,1-7.22-1.5-9.75-2.88-3.32-1.82-5.46-9.09-10.21-9.81-2.29-.34-2-1.11-4.08-.44-1.54.5-2.46,2-4.08,1.74-3.2-.52-5.43-7.5-1-7Z" transform="translate(-218.58 -258.96)"/>
    <path class="cls-1" d="M290.4,367.9c-.34,2.24.09,5.15,1.87,6.35,1.53,1,3.82.73,2.75,3.81-.63,1.85-2.68,2.41-4.22,2.78-2.17.52-2.57.37-3.92,3.51-.64,1.48-2.16,2.5-4.49,2.83" transform="translate(-218.58 -258.96)"/>
    <path class="cls-1" d="M304.74,374.57c1.53.63,2.16,2.17,3.53,2.82,1.8.86,2.68-.11,4.47,1.09,1.34.9,5.45-1.63,9.15-3.69,2.41-1.34,4.43-1.88,6.3-3.73,2.19-2.16,3.3-5.8,5.51-7.9" transform="translate(-218.58 -258.96)"/>
    <path class="cls-1" d="M285.18,426.31a20,20,0,0,0,8.87-7.07c1.1-1.54,2.9-3.7,2.76-5.78s-2.14-2.89-3-4.37c-.43-.78-.94-1.1-.5-2.22.6-1.56,1.25-.67,2.13-1.46,1.61-1.47,1.64-3.15,4.1-2.72,3.91.67,7.32,3.76,6.6,5.8-.61,1.71-1.86,5-1.86,6.69a10.83,10.83,0,0,0,1.9,5.22c2.6,3.28,3.18,5.6,8,7.89" transform="translate(-218.58 -258.96)"/>
    <path class="cls-1" d="M231.11,406.9c2.37-2.08,7.57-5.76,10.24-6.56,2-.61,1.6,4.68,2.55,7.8" transform="translate(-218.58 -258.96)"/>
    <path class="cls-1" d="M261.82,428.94c1.42,3.1-1.79,5.91-2.43,8.46-.17,1.46,6.66,2.49,9.65,3.71" transform="translate(-218.58 -258.96)"/>
    <path class="cls-1" d="M235.07,425a4.9,4.9,0,0,0-1.7,1.42,6.15,6.15,0,0,0-.92,1.38,5.68,5.68,0,0,0-.25,4.15" transform="translate(-218.58 -258.96)"/>
    <path class="cls-1" d="M233.89,398a65.14,65.14,0,0,0-6.5,10.77c-.73,1.72-2.43,4.62-2.78,6.42-.19,1,.59,2.93.84,4.07a4.56,4.56,0,0,0,2.19,2.32c.93.48,5.55.49,6.21.61a8.26,8.26,0,0,1,3.57,1.72" transform="translate(-218.58 -258.96)"/>
    <path class="cls-1" d="M293,374.54a5.73,5.73,0,0,0-1.84,1c-.52.52-.89,1.16-1.44,1.67a7.17,7.17,0,0,0-1.43,1.94,6.93,6.93,0,0,0-.46,1.79c-.07.43-.33.1-.91.42-2,1.08-3.26,3-4.38,5a16.6,16.6,0,0,0-1.39,3.62,6.87,6.87,0,0,0,0,2.89,2.53,2.53,0,0,0,.34,1" transform="translate(-218.58 -258.96)"/>
    <path class="cls-1" d="M326.38,350.56a34,34,0,0,0,2.71,8.18c1.47,2.22,3.91,3.74,6.16,5.07a24.35,24.35,0,0,0,5.07,1.69,62.37,62.37,0,0,0,7.72.95,14.17,14.17,0,0,0,3.46-.33c.61-.27,4.73-.78,6-1.29a19.34,19.34,0,0,0,5.31-2.87c1-.79,6.06-4,7.36-5.07,2.64-2.16,5.07-4.76,6.13-5.69s5.35-5.9,6.06-6.74c1.36-1.62,2.53-3.39,3.87-5a54.91,54.91,0,0,0,4.19-5.91c5.42-9.43,7.84-11.15,7.86-11.2" transform="translate(-218.58 -258.96)"/>
    <path class="cls-1" d="M246.76,419c1.13.34,7.42-3.52,8.41-4.37,1.4-1.21,5.38-5.27,6.3-6.35,2.28-2.7,4.36-6.14,4.63-6.39.57-.53,2.08-.37,2.82-.55a11.67,11.67,0,0,0,2.45-.74" transform="translate(-218.58 -258.96)"/>
    <path class="cls-1" d="M255.46,420.22c1.49.17,6.17-5.62,7.76-7.34a56.21,56.21,0,0,0,5.25-7.19c1.55-2.37,4.63-8.43,5-9.07s5.67-2.51,7.44-2.56,2.8.11,3.92-1.42,2.13-3.12,3.2-4.73c.49-.73,1.38-2.92,2.41-1.36.86,1.31-.19,3.77-.31,4.42a20.18,20.18,0,0,1-1.17,3.58,2.81,2.81,0,0,0,1.16,3.42" transform="translate(-218.58 -258.96)"/>
    <path class="cls-1" d="M268.83,412.34c.62-.48,3.41-2.22,4.1-2.76a55.49,55.49,0,0,0,4.05-3.91,29.6,29.6,0,0,1,5.68-5.55c1.1-.91,5.78-3.21,6.61-3.1" transform="translate(-218.58 -258.96)"/>
    <path class="cls-1" d="M310.17,425.68c-1.06-.14-2.56,1.38-3.15,2.09-.39.48-3.44,3.27-4.87,3.44" transform="translate(-218.58 -258.96)"/>
    <path class="cls-1" d="M236.31,394a3,3,0,0,0,2.69.65,3.36,3.36,0,0,1,2.5.32" transform="translate(-218.58 -258.96)"/>
    <path class="cls-1" d="M238.48,391.31c.63-.15,1.15-.84,1.61-1.29a7.9,7.9,0,0,0,1.27-1.87,7,7,0,0,1,2.1-2.1,5.35,5.35,0,0,0,1.89-3" transform="translate(-218.58 -258.96)"/>
    <path class="cls-1" d="M331.9,391.63c1.94.69,3.55,2.34,5.08,4.07" transform="translate(-218.58 -258.96)"/>
    <path class="cls-1" d="M325.58,393.22a2.25,2.25,0,0,0,.07,1.15c.09.49.49,3.85.55,4.44a11.65,11.65,0,0,1-.26,2.52c-.08.79-.12,2.31-.28,3.14a16.47,16.47,0,0,1-1,4.27c-.77,1.6-2.19,3.22-2.94,4.82a5.61,5.61,0,0,0,.05,4.72,15.62,15.62,0,0,0,1.19,2,4.47,4.47,0,0,0,1.48,1.31,8.9,8.9,0,0,1,2.6,2.83" transform="translate(-218.58 -258.96)"/>
    <path class="cls-1" d="M321.44,417.06a11.67,11.67,0,0,0,2.82,1.8,3.8,3.8,0,0,0,3-.29c.37-.24.51-.22.86-.44a5.81,5.81,0,0,1,1.82-.64,4.61,4.61,0,0,1,2.71.25" transform="translate(-218.58 -258.96)"/>
    <path class="cls-1" d="M329.81,378.4c.34-.43,1.07-1.28,1-1.81a2,2,0,0,0-.57-1,3.77,3.77,0,0,0-2.86-.54c-1,.09-2.19.33-3.7.6a21.1,21.1,0,0,0-3.34.8c-.34.12-2.34.62-2.67.75" transform="translate(-218.58 -258.96)"/>
  </g>
  <g class="teeth">
    <path class="cls-1" d="M267.07,425.59c.18-.47-.37-1-.31-1.49a1.81,1.81,0,0,1,1-1.15c1.3-.67,2,0,3,1,.39-.57.47-1.59,1.18-1.83.45-.16,1.26.71,1.6,1.07.42-.23-.19-1.64.82-1.91a1.25,1.25,0,0,1,1.25.88c.22-.43.25-1.19.66-1.36s1.68.79,1.87.62c-.66-1.45-.41-2,.85-2.7,1.1-.06,1.2,1.32,1.93,2.22-.65-.8-.58-3.65.69-4,.62-.19.73.45,1.06.84a4.74,4.74,0,0,1,.93,2.32c-.14-.74-.26-2.13.19-2.39.78-.21,1.56,1.13,1.67,2-.14-.67-.22-3.21.6-3.55,1.23-.52,1.66,1.78,1.94,2.56.33-.73.24-2.36,1.16-2.55s1.1,2,1.58,2.19c.1-.78-.64-2.58.77-2.49.86.05,1.49,1.46,1.74,2.12-.27-1.12-.21-2.45.65-2.21s.77,1.05.87,1.82" transform="translate(-218.58 -258.96)"/>
    <path class="cls-1" d="M265,420.34c.11.65.9,1.65,1.59,1.55s1.33-1.09,1.48-1.79c-.07.83,1.41,1.3,2,1.21,1-.16.79-.89.85-1.7.52-.51,1,1,1.54,1.08,1,.09,1.18-1.48,1.37-2,.58,0,.57,1.33,1.48,1.29.55,0,1.21-.09,1.4-.66a3.52,3.52,0,0,0,0-1.29" transform="translate(-218.58 -258.96)"/>
  </g>
  <g class="fenestrae">
    <path class="cls-1" d="M241.61,394.17c1.09-2.55,7.12-5.15,12.1-5.76a59.93,59.93,0,0,1,8-.74c3.28,0,4.44-.25,7.64,1.71,1.92,1.21-1.59,9-3.88,13.29a36.67,36.67,0,0,1-7.57,9.07c1-6.7-1.58-7-2.58-8.1-1.49-1.6-.53-3.28-3.06-4.07-1.93,1.45-4.63,3.33-7.61,0C242.88,397.56,240.65,396.39,241.61,394.17Z" transform="translate(-218.58 -258.96)"/>
    <path class="cls-1" d="M300.62,363.25a5.7,5.7,0,0,1,3.42,2.18c.93,1.27,1,3.65,1.13,5.17.32,3.42-1.59,6.9-5.51,7.07-4.36.19-5.59-2.24-5.3-6.35.16-2.44,2.07-9,5.39-8.13Z" transform="translate(-218.58 -258.96)"/>
    <path class="cls-1" d="M332,391.69a14.13,14.13,0,0,1-4.2,1.81c-2.6.85-2.43-1.26-3.38-3.54-1.9-4.56-.75-5.7,2-8.76,1.41-1.56,3.1-3.05,3.87-2.7a4.43,4.43,0,0,1,2.27,4.19c0,3-5.81,6.68-1.83,8.43C331.17,391.19,332,391.48,332,391.69Z" transform="translate(-218.58 -258.96)"/>
    <path class="cls-1" d="M333.08,362.32c-2.71-1.52-.15-2.88,1.06-2.63,1.75.36,2.8.72,4.53,1.09.88.19,2.47.93,3.23,1.17a38.5,38.5,0,0,1,4,1.16c.15.12-1.63.17-1.83.14a24.54,24.54,0,0,0-2.57,0c-.39,0-3.61.63-4.23.58A6.94,6.94,0,0,1,333.08,362.32Z" transform="translate(-218.58 -258.96)"/>
    <path class="cls-1" d="M284.66,383.15c-.34.38-.64.9-1,1.32a7.38,7.38,0,0,0-1.19,2.1c-.13.61.48.57,1,.44a4.22,4.22,0,0,0,1.35-.61,5.23,5.23,0,0,0,1.57-1.22,6.35,6.35,0,0,0,.63-1.18c.34-.75.8-1.61.95-2.05.09-.27.15-.68-.19-.81s-.91.19-1.16.33A8.1,8.1,0,0,0,284.66,383.15Z" transform="translate(-218.58 -258.96)"/>
  </g>
</svg>
