<svg xmlns="http://www.w3.org/2000/svg" viewBox="0 0 187.74 189.38">
	<title>Triceratops horridus</title>
	<metadata>
		<phyloxml xmlns:xsi="http://www.w3.org/2001/XMLSchema-instance" xmlns="http://www.phyloxml.org" xsi:schemaLocation="http://www.phyloxml.org http://www.phyloxml.org/1.10/phyloxml.xsd">
			<phylogeny rooted="true" rerootable="false">
				<clade>
					<name>Animalia</name>
					<clade>
						<name>Chordata</name>
						<clade>
							<name>Dinosauria</name>
							<clade>
								<name>Ornithischia</name>
								<clade>
									<name>Ceratopsidae</name>
									<clade>
										<name>Chasmosaurinae</name>
										<clade>
											<name>Triceratopsini</name>
											<clade>
												<name>Triceratops</name>
											</clade>
										</clade>
									</clade>
								</clade>
							</clade>
						</clade>
					</clade>
				</clade>
			</phylogeny>
		</phyloxml>
	</metadata>
	<g class="outline">
		<path d="M239.43,259.46a.93.93,0,0,1,.65.41c1.46,2.18,1.9,2.5,3.48,4.9,1.4,2.12,3.79,4.88,5.51,7,2.28,2.9,2.43,3.06,4.72,5.93a88.73,88.73,0,0,0,7.1,7.79c6.08,5.91,10,10.43,16.41,16.21,1.83,1.64,5.69,5.54,7.94,7.67,1.66,1.57,5.35,4.61,8.43,7.82s6.64,6.19,9.65,9.71c3.8,4.44,7.31,7.56,8.67,9.2s3.6,3.54,5,5.15c2.72,3,9.21,10.74,12.59,10.74a1.73,1.73,0,0,0,1.64-1.1c2.08-4.28,6.83-2.08,9.12-5.2,4.71-6.44,4.89-6,11.51-9.26,4-2,5-6.52,8.48-9.25,6.73-5.3,9-11.68,10.83-13.48,5.57-5.43,5.12-9.18,7.32-12.9,1.46-2.46,1.23-3.68,2-6.52.36-1.41.58-4.61,1.55-4.61a.64.64,0,0,1,.3.09c2.06,1.05,3.18,3,4.22,4.83.71,1.26.33,2,1.2,2a4.16,4.16,0,0,0,.84-.12c1-.22,2.83-1.93,4.05-2.37a1.53,1.53,0,0,1,.44-.07c1.65,0,.44,3.38.69,5.7.11,1,.15,1.31,1.05,1.91s3.58.85,4.48,1.19c3.76,1.4,1,2.8.26,10.88,4.61,4.06,3.31,6,2.29,11.57a25,25,0,0,0-.4,6.67c.21,2.33,1.15,5.36.44,7.71-1.37,4.54-5,8.66-6.72,12.94-1,2.51-1,4.62-2.37,7.17a13.36,13.36,0,0,1-3.88,4.9c-1.62,1.34-3.76,5-4.25,5.85-1.35,2.27-1.87,4.67-3.78,6.53-3.59,3.51-5.64.2-8.71,5.28-1.47,2.44-2.07,5.56-4.75,6a10.41,10.41,0,0,0-6.34,3.47c-1.36,1.79-2.59,3.82-4.66,4.65a1.83,1.83,0,0,1-.74.14c-.51,0-1-.17-1.44-.17a1.55,1.55,0,0,0-.55.09c-1.15.44-.95,2.71-1.8,3.54a5,5,0,0,1-3.82,1.41c-1.19,0-2.47-.19-3.88-.19h-.48c-6.06,0-4-3.64-6.89-5.78-1.56,1.69-3.66,7.47-4.45,9.68-.87,2.45-2.08,4.73-2.34,7.35-.17,1.69-.28,4,.34,4.18,3.72,1.12,3.35,2.39,2.1,4.34-1.63,3-3.51,2.89-4.89,3.3s-3.14,1.1-6.31,1.78-13.34,4-16.37,4.55c-7.9,1.33-7,1.5-14.88,3.46-6,1.48-11.1,3.74-17,5.27-4.2,1.1-9.23,5.41-10.71,5.41h0c-3-.07-5.45-.21-8.27-.38a35.13,35.13,0,0,1-10.12-2.13c-5.26-1.87-10.55-6.07-12.21-11.78-2.09,1.54-2.57,6.84-2.32,8.92-6-6.28-12.21-13.69-9.75-23.29,1.4-5.47,5.65-11.75,9.43-15.13,1.58-1.41,3.56-2.08,5.26-3.29a4.37,4.37,0,0,0,2-3.78,41.81,41.81,0,0,1-1.45-5.11c-.41-1.69-1.43-5.21-1.75-6.39-.11-.71,0-1.15.92-1.15a5.73,5.73,0,0,1,1.1.13c2.38.4,3.9.54,5.78.85,1.31.21,4.48.76,5.91.86,2.29.18,4.14.35,6.24.35.69,0,1.4,0,2.17-.06a37.7,37.7,0,0,0,12.83-2.67c3.45-1.22,5.94-2.14,9.13-3.5,7.18-3.07,11.89-6.41,15.55-13.29,1.52-2.86,3.66-5.37,4.2-8.52.8-4.65-1.2-8-3.26-12-3.32-6.37-6.16-13.25-10.26-19.26a47.67,47.67,0,0,0-3.64-4.83c-2.11-2.63-5.34-6.71-7.66-9.14-1.1-1.36-3.13-4.09-4.36-5.35a44.16,44.16,0,0,1-4.57-5.86c-2.62-3.66-4.61-6.2-7.26-9.86-1.12-1.55-3.09-4.45-4.46-6.8-3.13-5.38-4.52-7.77-7.68-13.07-1.47-2.48-2.89-5.06-4.64-8.73-.22-.71-.05-1.12.28-1.12m0-2h0a2.3,2.3,0,0,0-1.88,1,3,3,0,0,0-.32,2.75l.05.15.06.14c1.56,3.27,3,5.93,4.74,8.88,2.87,4.82,4.29,7.26,6.87,11.69l.8,1.37c1.35,2.32,3.31,5.24,4.56,7s2.31,3.15,3.36,4.57c1.28,1.7,2.48,3.32,3.89,5.29l.71,1a38.85,38.85,0,0,0,4.06,5.09c.81.83,2.09,2.47,3.11,3.78.43.54.81,1,1.12,1.42l.05.07.06.06c2,2.11,4.81,5.6,6.85,8.14l.71.88c.41.52.74.91,1,1.24a34.71,34.71,0,0,1,2.54,3.45A105,105,0,0,1,289,338.56c.93,1.93,1.9,3.92,2.9,5.84l.41.79c1.84,3.51,3.29,6.28,2.66,9.95a15.81,15.81,0,0,1-2.48,5.35c-.51.82-1,1.67-1.52,2.57-3.54,6.67-8,9.59-14.57,12.39-3,1.3-5.42,2.18-9,3.46a36.26,36.26,0,0,1-12.27,2.55c-.7,0-1.38.06-2.06.06-1.72,0-3.29-.12-5.11-.26l-1-.08c-1.15-.09-3.73-.51-5.11-.74l-.62-.1c-.86-.14-1.65-.25-2.47-.36-1-.14-2-.28-3.31-.5a8,8,0,0,0-1.43-.15,2.92,2.92,0,0,0-2.33.95,3,3,0,0,0-.56,2.5v.11l0,.11.5,1.78c.41,1.46,1,3.46,1.24,4.56l.12.49a38.15,38.15,0,0,0,1.29,4.56,2.72,2.72,0,0,1-1.17,1.74,17.81,17.81,0,0,1-2,1.2,16.77,16.77,0,0,0-3.4,2.22c-3.8,3.41-8.47,10-10,16.13-2.69,10.46,3.87,18.47,10.23,25.16l4.14,4.37-.71-6a14.43,14.43,0,0,1,.26-4,23,23,0,0,0,11.62,9,36.93,36.93,0,0,0,10.67,2.25c2.85.16,5.32.31,8.34.38h.07c1.16,0,2.33-.7,4.66-2.15a27.5,27.5,0,0,1,6.55-3.32c2.91-.76,5.65-1.69,8.29-2.59s5.66-1.93,8.68-2.68c2.66-.66,4.33-1.12,5.67-1.49a72.29,72.29,0,0,1,9.06-1.94c1.8-.3,5.71-1.47,9.5-2.6,2.91-.86,5.66-1.68,7-2,2.23-.49,3.82-1,5-1.37.55-.18,1-.33,1.42-.44h.06a5.63,5.63,0,0,1,.59-.14,7.27,7.27,0,0,0,5.45-4.06c.58-.91,1.58-2.54.94-4.27a5,5,0,0,0-3.23-2.69,18.68,18.68,0,0,1,.12-2.38,17.7,17.7,0,0,1,1.45-4.84c.26-.65.53-1.33.78-2,1.14-3.18,2-5.26,2.65-6.61.88,2.09,2.23,4,6.81,4h.48c.66,0,1.32.05,2,.09s1.28.1,1.92.1a7,7,0,0,0,5.23-2,5.34,5.34,0,0,0,1.23-2.55c0-.13.08-.29.12-.44a5.89,5.89,0,0,0,1,.1,4,4,0,0,0,1.49-.28c2.3-.93,3.7-2.84,4.93-4.53l.57-.78a8.6,8.6,0,0,1,5.07-2.7c3-.5,4.23-3.06,5.21-5.12.31-.65.6-1.27.93-1.82,1.23-2,1.94-2.16,3.23-2.37a8.57,8.57,0,0,0,5.17-2.52,14.49,14.49,0,0,0,3-4.71,24.42,24.42,0,0,1,1.12-2.23l.08-.14c2-3.42,3.14-4.71,3.72-5.19a15.28,15.28,0,0,0,4.38-5.5,18.48,18.48,0,0,0,1.62-4.58,19.1,19.1,0,0,1,.84-2.77,37.93,37.93,0,0,1,2.88-5.32,34.67,34.67,0,0,0,3.89-7.8c.64-2.12.26-4.43-.07-6.46-.12-.72-.23-1.41-.28-2a22.35,22.35,0,0,1,.37-6.14c.14-.76.28-1.45.42-2.08.81-3.88,1.41-6.74-2.58-10.63a36.82,36.82,0,0,1,1.05-5.19c.68-2.59,1.38-5.26-2.71-6.79a15.61,15.61,0,0,0-2-.49,18.67,18.67,0,0,1-2.08-.51l-.09-.06c0-.12,0-.27-.05-.38a12.54,12.54,0,0,1,.1-2.22c.16-1.67.31-3.25-.71-4.37a2.71,2.71,0,0,0-2.06-.89,4.17,4.17,0,0,0-1,.13l-.08,0-.08,0a11.64,11.64,0,0,0-2.47,1.44c-.26.18-.6.42-.89.6-.08-.19-.19-.41-.31-.63-1.07-1.9-2.41-4.27-5-5.61a2.61,2.61,0,0,0-1.26-.33c-2.41,0-2.88,2.73-3.26,4.92-.08.47-.16.91-.23,1.2-.24.94-.38,1.71-.5,2.39a8.93,8.93,0,0,1-1.23,3.6,21.84,21.84,0,0,0-1.79,4.1,19.06,19.06,0,0,1-5.21,8.39,17.37,17.37,0,0,0-2.32,3.3,34.75,34.75,0,0,1-8.34,10,19.71,19.71,0,0,0-4,4.72c-1.26,1.84-2.34,3.43-4.11,4.31-.8.4-1.5.75-2.13,1.05-4.86,2.37-5.79,2.93-10.1,8.81-.55.76-1.43,1-2.94,1.29-2,.42-4.77,1-6.34,4.19-1.54-.2-5-3.28-10.15-9.16l-.81-.91c-.69-.77-1.54-1.6-2.37-2.39s-1.94-1.88-2.62-2.7-1.5-1.63-2.64-2.78c-1.7-1.7-3.81-3.82-6.05-6.44a84,84,0,0,0-6-6.09c-1.25-1.2-2.55-2.44-3.77-3.71-2.17-2.26-4.65-4.45-6.46-6-.83-.73-1.54-1.36-2-1.84-.93-.88-2.19-2.11-3.41-3.31-1.71-1.67-3.47-3.41-4.56-4.39-3.89-3.49-6.83-6.51-9.95-9.71-2-2-4-4.13-6.4-6.44a85.75,85.75,0,0,1-6.94-7.61l-2.06-2.59c-.73-.89-1.33-1.65-2.65-3.33-.52-.65-1.1-1.36-1.7-2.09-1.37-1.67-2.79-3.41-3.71-4.81s-1.41-2-1.93-2.74-.89-1.19-1.55-2.17l-.07-.1-.07-.09a2.89,2.89,0,0,0-2.18-1.11Z" transform="translate(-217.08 -257.46)"/>
	</g>
	<g class="skull">
		<path d="M262.31,445.34h0c-3-.07-5.45-.21-8.29-.38a35.49,35.49,0,0,1-10.26-2.16c-4.64-1.65-10.19-5.47-12.27-11.32-1.37,1.79-1.83,5.93-1.6,7.93l.18,1.49-1-1.09c-6.36-6.69-12.36-14-9.86-23.76,1.49-5.8,5.94-12.13,9.58-15.38a15.45,15.45,0,0,1,3.11-2,19.33,19.33,0,0,0,2.19-1.29,4,4,0,0,0,1.79-3.26,38.59,38.59,0,0,1-1.33-4.63l-.11-.48c-.28-1.13-.82-3.06-1.26-4.62-.21-.74-.39-1.38-.49-1.76a1.54,1.54,0,0,1,.27-1.42c.4-.39,1.07-.45,2.32-.23s2.35.37,3.35.5c.81.11,1.58.22,2.43.36l.62.1c1.5.25,4,.66,5.24.76l1,.07a48.57,48.57,0,0,0,7.37.21,37.57,37.57,0,0,0,12.69-2.64c3.62-1.28,6-2.18,9.1-3.49,6.68-2.86,11.57-6,15.31-13.06.45-.86,1-1.69,1.46-2.49a16.65,16.65,0,0,0,2.69-5.89c.71-4.17-.92-7.29-2.81-10.9l-.41-.78c-1-1.91-2-3.89-2.88-5.81A106.93,106.93,0,0,0,283,324.5a38.38,38.38,0,0,0-2.62-3.56l-1.7-2.11c-2.06-2.57-4.88-6.08-6.93-8.24-.34-.41-.72-.9-1.14-1.44-1.05-1.34-2.35-3-3.22-3.9a37.1,37.1,0,0,1-3.91-4.91l-.71-1c-1.42-2-2.62-3.59-3.9-5.31-1.06-1.42-2.14-2.87-3.36-4.55s-3.15-4.56-4.48-6.83l-.82-1.41c-2.58-4.44-4-6.85-6.85-11.67-1.23-2.05-2.74-4.7-4.68-8.76-.38-1.24.17-1.64.34-1.74s.75-.32,1.44.48l0,0c.68,1,1.15,1.64,1.6,2.24s1,1.39,1.88,2.66c1,1.47,2.41,3.24,3.8,4.94.59.72,1.17,1.42,1.68,2.07,1.32,1.68,1.93,2.44,2.65,3.34l2.07,2.59a87.3,87.3,0,0,0,7.06,7.74c2.36,2.3,4.4,4.39,6.38,6.42,3.13,3.21,6.09,6.25,10,9.78,1.07.95,2.82,2.67,4.52,4.34,1.25,1.22,2.48,2.44,3.43,3.33.52.49,1.24,1.13,2.07,1.87,1.8,1.58,4.25,3.76,6.38,6,1.24,1.29,2.55,2.54,3.82,3.75a81,81,0,0,1,5.85,6c2.28,2.66,4.41,4.8,6.13,6.52,1.11,1.13,2,2,2.55,2.68a39.15,39.15,0,0,0,2.73,2.81c.8.78,1.63,1.59,2.29,2.32l.81.91c2.88,3.25,8.89,10,11.62,9.65a1.26,1.26,0,0,0,1-.8c1.24-2.56,3.41-3,5.31-3.41,1.51-.31,2.93-.61,3.85-1.87,4.21-5.75,4.93-6.1,9.55-8.35.63-.31,1.34-.65,2.15-1.06,2.11-1,3.35-2.88,4.67-4.81a18.75,18.75,0,0,1,3.72-4.39,36.28,36.28,0,0,0,8.7-10.43,17.27,17.27,0,0,1,2.09-3,20.18,20.18,0,0,0,5.57-9,21.08,21.08,0,0,1,1.67-3.83,10.74,10.74,0,0,0,1.42-4.11c.11-.65.25-1.39.48-2.28.08-.35.16-.82.25-1.32.34-1.94.61-3.23,1.39-3.59a1,1,0,0,1,.95.08c2.19,1.12,3.36,3.19,4.39,5a5.5,5.5,0,0,1,.53,1.34,1.43,1.43,0,0,0,.12.37h0a2.24,2.24,0,0,0,.85-.1,7.26,7.26,0,0,0,1.87-1.09,9.89,9.89,0,0,1,2.12-1.26,1.47,1.47,0,0,1,1.45.19c.7.59.57,1.86.43,3.33a13.63,13.63,0,0,0-.09,2.52c.11,1,.12,1.08.84,1.56a10.89,10.89,0,0,0,2.57.69,14.35,14.35,0,0,1,1.8.44c2.82,1.05,2.48,2.37,1.79,5a37.71,37.71,0,0,0-1.18,6.15c4,3.58,3.52,5.79,2.69,9.74-.14.65-.29,1.35-.43,2.12a24.05,24.05,0,0,0-.39,6.54c.06.65.18,1.36.3,2.11a13.49,13.49,0,0,1,.12,5.79,33.77,33.77,0,0,1-3.74,7.45,40.77,40.77,0,0,0-3,5.53,21.76,21.76,0,0,0-.91,3,16.82,16.82,0,0,1-1.49,4.23,13.8,13.8,0,0,1-4,5.05,23.87,23.87,0,0,0-4.06,5.58l-.08.15a21,21,0,0,0-1.19,2.37,13.28,13.28,0,0,1-2.67,4.26,7.08,7.08,0,0,1-4.37,2.11c-1.49.25-2.68.44-4.26,3.07a20.13,20.13,0,0,0-1,2c-.91,1.92-1.85,3.91-4.09,4.28a10,10,0,0,0-6,3.28l-.59.79c-1.17,1.6-2.38,3.26-4.28,4a2.94,2.94,0,0,1-1.77.07,1.88,1.88,0,0,0-1,0c-.41.16-.6.87-.79,1.56a3.92,3.92,0,0,1-.84,1.87c-1.78,1.77-3.82,1.62-6,1.46-.74-.06-1.49-.11-2.3-.1-4.42.06-5.11-1.69-5.79-3.39a5.58,5.58,0,0,0-1.28-2.18c-.77,1-2,3.49-4.05,9.14-.24.67-.5,1.33-.77,2a19.44,19.44,0,0,0-1.55,5.24c-.31,3.2.06,3.68.07,3.7,1.82.52,2.81,1.17,3.14,2s-.22,2-.84,3a5.8,5.8,0,0,1-4.46,3.34c-.25.05-.48.1-.71.17-.46.12-1,.28-1.51.46a46.88,46.88,0,0,1-4.83,1.33c-1.37.29-4.14,1.12-7.09,2-3.73,1.11-7.6,2.26-9.31,2.55a73.62,73.62,0,0,0-9.21,2c-1.33.37-3,.82-5.63,1.48-3.09.77-6,1.76-8.81,2.72-2.61.89-5.32,1.82-8.17,2.56a27.79,27.79,0,0,0-7,3.5C264.23,444.64,263.07,445.34,262.31,445.34ZM232,429.72l.2.69c1.73,5.94,7.28,9.8,11.9,11.44a34.32,34.32,0,0,0,10,2.11c2.83.17,5.27.31,8.25.38h0a12.85,12.85,0,0,0,3.34-1.77,28.93,28.93,0,0,1,7.25-3.62c2.81-.73,5.5-1.65,8.1-2.54,2.83-1,5.76-2,8.89-2.74,2.63-.65,4.28-1.11,5.61-1.47a72.43,72.43,0,0,1,9.3-2c1.65-.28,5.49-1.42,9.2-2.53,3-.88,5.76-1.71,7.16-2a44,44,0,0,0,4.73-1.3c.58-.19,1.09-.35,1.55-.47.23-.07.49-.13.76-.19a4.84,4.84,0,0,0,3.82-2.87c.6-.94,1-1.64.76-2.14s-1.06-1-2.56-1.48c-.59-.18-1.08-.87-.7-4.71a20.25,20.25,0,0,1,1.62-5.52c.25-.64.51-1.29.75-1.94,1.89-5.33,3.43-8.64,4.55-9.86l.31-.33.36.27a6.06,6.06,0,0,1,2,2.92c.63,1.57,1.1,2.79,4.85,2.76.84,0,1.62.05,2.38.1,2.1.15,3.75.28,5.21-1.17a3.5,3.5,0,0,0,.58-1.41c.23-.9.5-1.91,1.4-2.24a2.58,2.58,0,0,1,1.5,0,2,2,0,0,0,1.21,0c1.64-.66,2.72-2.13,3.85-3.69l.6-.8a10.87,10.87,0,0,1,6.66-3.67c1.72-.28,2.47-1.87,3.35-3.72.32-.68.65-1.38,1.05-2.05,1.83-3,3.42-3.28,5-3.54a6,6,0,0,0,3.83-1.84,12.49,12.49,0,0,0,2.46-3.95,23.89,23.89,0,0,1,1.24-2.48l.08-.14c.66-1.11,2.67-4.5,4.28-5.84a12.82,12.82,0,0,0,3.76-4.75,15.83,15.83,0,0,0,1.4-4,22.15,22.15,0,0,1,.95-3.11,41.86,41.86,0,0,1,3.07-5.68,32.8,32.8,0,0,0,3.63-7.22,12.45,12.45,0,0,0-.15-5.34c-.12-.77-.24-1.5-.3-2.19a24.75,24.75,0,0,1,.4-6.8c.14-.78.29-1.49.43-2.14.84-4,1.19-5.66-2.56-9l-.19-.16,0-.26a38.65,38.65,0,0,1,1.23-6.56c.68-2.6.81-3.07-1.17-3.8a14.35,14.35,0,0,0-1.65-.4,10.06,10.06,0,0,1-2.93-.84,2.41,2.41,0,0,1-1.27-2.28,14,14,0,0,1,.09-2.73c.09-.93.21-2.22-.09-2.47-.07-.07-.26-.07-.51,0a10.19,10.19,0,0,0-1.84,1.13,7.45,7.45,0,0,1-2.23,1.25c-1.4.3-1.86.09-2.15-1a4.33,4.33,0,0,0-.43-1.11c-1-1.71-2.05-3.64-4-4.63-.4.14-.71,1.94-.86,2.8-.1.53-.18,1-.28,1.39-.21.86-.34,1.59-.46,2.22A11.34,11.34,0,0,1,379,301.1a20.78,20.78,0,0,0-1.59,3.66,21.34,21.34,0,0,1-5.81,9.34,15.7,15.7,0,0,0-1.93,2.81,37.39,37.39,0,0,1-8.94,10.7,17.84,17.84,0,0,0-3.51,4.16c-1.34,2-2.71,4-5.06,5.15L350,338c-4.53,2.21-5.11,2.49-9.18,8-1.15,1.57-2.83,1.92-4.45,2.26-1.85.39-3.59.75-4.62,2.87A2.22,2.22,0,0,1,330,352.5c-3,.41-8-4.93-12.5-10l-.8-.9c-.64-.71-1.42-1.47-2.25-2.27-1-1-2-2-2.8-2.89-.53-.64-1.4-1.51-2.49-2.61-1.64-1.64-3.87-3.89-6.18-6.58-1.81-2.12-3.83-4-5.78-5.92-1.28-1.21-2.6-2.47-3.85-3.78-2.1-2.18-4.54-4.34-6.32-5.91-.84-.75-1.57-1.39-2.09-1.89-1-.9-2.2-2.12-3.45-3.35-1.69-1.65-3.44-3.37-4.48-4.31-4-3.55-6.93-6.6-10.07-9.82-2-2-4-4.11-6.36-6.4a91.16,91.16,0,0,1-7.15-7.84c-.95-1.21-1.54-1.93-2.06-2.59-.72-.9-1.33-1.66-2.66-3.34L247,270.06c-1.41-1.72-2.87-3.5-3.87-5-.82-1.25-1.34-1.94-1.84-2.61s-.93-1.23-1.61-2.26l-.14-.13a1.58,1.58,0,0,0,.07.4c1.9,4,3.39,6.58,4.6,8.61,2.87,4.82,4.28,7.24,6.87,11.67l.82,1.41c1.31,2.25,3.21,5.08,4.42,6.76s2.29,3.11,3.35,4.53c1.28,1.72,2.49,3.34,3.91,5.33l.72,1a35.68,35.68,0,0,0,3.8,4.79c.91.93,2.24,2.62,3.3,4,.41.53.79,1,1.1,1.39,2.06,2.16,4.89,5.69,7,8.27l1.7,2.11a37.13,37.13,0,0,1,2.66,3.63,105.33,105.33,0,0,1,7.41,13.53c.93,1.91,1.9,3.88,2.88,5.78l.41.78c1.89,3.61,3.68,7,2.91,11.53a17.68,17.68,0,0,1-2.83,6.24c-.48.79-1,1.61-1.43,2.44-3.88,7.28-8.92,10.57-15.8,13.51-3.1,1.32-5.51,2.22-9.15,3.51a38.2,38.2,0,0,1-13,2.7,51.7,51.7,0,0,1-7.51-.21l-1-.08c-1.26-.09-3.81-.51-5.33-.77l-.62-.1-2.4-.35c-1-.13-2.06-.28-3.38-.5s-1.44-.05-1.45,0-.06.06,0,.49l.47,1.7c.44,1.56,1,3.51,1.27,4.65l.11.48a36.83,36.83,0,0,0,1.32,4.57l0,.12a4.91,4.91,0,0,1-2.2,4.25,20.87,20.87,0,0,1-2.29,1.36,14.55,14.55,0,0,0-2.93,1.89c-3.52,3.15-7.83,9.27-9.27,14.88-2.25,8.76,2.89,15.62,8.7,21.85,0-2.5.66-6.58,2.58-8Z" transform="translate(-217.08 -257.46)"/><path d="M257.24,413l.21-1.37c.79-5.22-.67-6.3-1.73-7.09A5.27,5.27,0,0,1,255,404a5,5,0,0,1-1.09-2.07,2.19,2.19,0,0,0-1.51-1.78c-1.76,1.31-4.85,3.38-8.07-.21-.41-.46-.85-.88-1.27-1.28-1.43-1.36-2.78-2.65-1.91-4.67,1.2-2.81,7.55-5.45,12.5-6.06l1.75-.22a46.11,46.11,0,0,1,6.36-.52h.91c2.65,0,4-.05,7,1.79.66.42,2.33,2.65-3.7,13.95a37,37,0,0,1-7.68,9.21Zm-5-14,.24.07a3.18,3.18,0,0,1,2.4,2.52,3.91,3.91,0,0,0,.88,1.68,3.67,3.67,0,0,0,.57.48c1.1.81,2.72,2,2.3,6.69a34.82,34.82,0,0,0,6.47-8c3.4-6.37,5.18-11.92,4.05-12.63-2.75-1.68-3.83-1.67-6.45-1.64h-.91a46.08,46.08,0,0,0-6.24.51l-1.76.23c-5.18.63-10.75,3.24-11.7,5.46h0c-.57,1.32.18,2.12,1.67,3.55.44.41.89.84,1.33,1.33,2.54,2.83,4.73,1.57,6.94-.08Z" transform="translate(-217.08 -257.46)"/><path d="M299.19,378.18a5.27,5.27,0,0,1-4-1.38c-1.08-1.11-1.52-2.91-1.34-5.51.13-2,1.35-6.52,3.56-8.1a2.81,2.81,0,0,1,2.45-.49l.91.07.34.12a5.83,5.83,0,0,1,3.32,2.24c.89,1.21,1.05,3.18,1.17,4.76l.06.66a7.49,7.49,0,0,1-1.66,5.6,6,6,0,0,1-4.33,2Zm0-14.57a1.89,1.89,0,0,0-1.15.4c-1.85,1.32-3,5.42-3.15,7.35-.15,2.29.19,3.85,1.07,4.75a4.69,4.69,0,0,0,3.72,1.06,5,5,0,0,0,3.62-1.68,6.47,6.47,0,0,0,1.41-4.85l-.05-.67c-.11-1.38-.26-3.27-1-4.24a4.92,4.92,0,0,0-2.84-1.9l-.28-.09-.81-.05A2.29,2.29,0,0,0,299.15,363.61Z" transform="translate(-217.08 -257.46)"/><path d="M319.51,416.79c-2.72,0-6.09-1.85-8.26-3l-.27-.15c-1.46-.8-2.66-2.51-3.92-4.31-1.74-2.48-3.53-5.05-6.12-5.44a8.13,8.13,0,0,1-1.85-.5,2.31,2.31,0,0,0-2,0,5.5,5.5,0,0,0-1.46.81,3.86,3.86,0,0,1-2.85.94c-2.36-.38-4.18-3.64-3.87-5.89.2-1.51,1.31-2.29,3-2.1l.17.05.21.12c1.32.62,2.86.1,4.49-.46a11.89,11.89,0,0,1,2.93-.74c2.58-.19,5.24,1.36,7.58,2.72l1.42.82A6.14,6.14,0,0,1,311.2,402c.21.31.44.64.76,1a10.25,10.25,0,0,0,1.62,1.53,9.34,9.34,0,0,1,2,2c.31.49.53.9.73,1.29a5.72,5.72,0,0,0,1.6,2.08,8.14,8.14,0,0,0,2.58,1.36,14.14,14.14,0,0,1,1.72.76l.44.25-.26.44a6,6,0,0,0-.93,3.3v.35l-.32.13A4.67,4.67,0,0,1,319.51,416.79Zm-21.26-14.64a3.08,3.08,0,0,1,1.19.27,7.25,7.25,0,0,0,1.65.44c3,.46,5,3.32,6.79,5.85,1.19,1.71,2.32,3.32,3.58,4l.27.15c2.38,1.3,6.3,3.44,8.73,2.8a6.79,6.79,0,0,1,.82-3c-.37-.18-.75-.32-1.15-.47a9.2,9.2,0,0,1-2.86-1.53,6.64,6.64,0,0,1-1.85-2.39,13.62,13.62,0,0,0-.68-1.21,8.73,8.73,0,0,0-1.8-1.79,11.52,11.52,0,0,1-1.76-1.67c-.34-.41-.58-.77-.81-1.09a5.19,5.19,0,0,0-2.16-2c-.46-.25-.95-.53-1.44-.82-2.22-1.29-4.72-2.75-7-2.6a11.78,11.78,0,0,0-2.68.69c-1.75.6-3.56,1.23-5.25.41l-.15-.08c-1.08-.09-1.67.32-1.79,1.25-.24,1.73,1.3,4.49,3,4.77a2.82,2.82,0,0,0,2.12-.78,6.75,6.75,0,0,1,1.72-.93A4.83,4.83,0,0,1,298.25,402.15Z" transform="translate(-217.08 -257.46)"/><path d="M326.79,394.19a1.87,1.87,0,0,1-.9-.2c-.81-.42-1.09-1.34-1.43-2.41a15,15,0,0,0-.49-1.42c-2-4.77-.75-6.13,1.95-9.12l.17-.18c3.1-3.42,4.11-3,4.45-2.81a4.91,4.91,0,0,1,2.56,4.65c0,1.31-.92,2.62-1.8,3.9s-1.61,2.34-1.39,3.12a1.63,1.63,0,0,0,1,.92c.28.06,1.39.34,1.56.9l.09.32-.26.21a12.82,12.82,0,0,1-4,1.78L328,394A3.93,3.93,0,0,1,326.79,394.19ZM330.05,379c-.33,0-1.4.58-3.22,2.58l-.17.18c-2.62,2.9-3.51,3.88-1.77,8.06.22.53.38,1.05.53,1.51.27.89.49,1.6.93,1.82a1.78,1.78,0,0,0,1.31-.07l.39-.13a16.78,16.78,0,0,0,3-1.19,3.75,3.75,0,0,0-.39-.1l-.11,0A2.56,2.56,0,0,1,329,390c-.35-1.23.56-2.55,1.53-4,.79-1.15,1.61-2.34,1.62-3.34a4,4,0,0,0-2-3.73Z" transform="translate(-217.08 -257.46)"/><path d="M282.46,387.67l-.14-1c2.1-.29,3.51-1.16,4.1-2.53,1.29-3,1.85-3.23,3.78-3.68l.48-.12c1.67-.4,3.34-.92,3.87-2.45.63-1.84,0-2.08-1.19-2.56a7.21,7.21,0,0,1-1.37-.67c-1.95-1.32-2.45-4.39-2.09-6.84l1,.15c-.31,2.07.08,4.79,1.66,5.86a5.85,5.85,0,0,0,1.18.57c1.21.48,2.71,1.08,1.77,3.81-.75,2.18-3.15,2.76-4.59,3.11l-.48.11c-1.65.38-1.95.45-3.09,3.11C286.62,386.23,284.88,387.34,282.46,387.67Z" transform="translate(-217.08 -257.46)"/><path d="M313.47,379.17a1.74,1.74,0,0,1-1-.28,3.32,3.32,0,0,0-2.13-.58,5,5,0,0,1-2.28-.46,6.38,6.38,0,0,1-1.76-1.44,5.14,5.14,0,0,0-1.74-1.38l.38-.92a6,6,0,0,1,2.08,1.61,5.3,5.3,0,0,0,1.48,1.22,3.93,3.93,0,0,0,1.86.37,4.29,4.29,0,0,1,2.66.75c.94.63,4.66-1.47,7.37-3l1.27-.7c.75-.42,1.45-.76,2.14-1.09a13.51,13.51,0,0,0,4-2.57,17.55,17.55,0,0,0,2.62-3.79,17.76,17.76,0,0,1,2.9-4.11l.69.73a17.14,17.14,0,0,0-2.72,3.87,18.58,18.58,0,0,1-2.78,4,14.61,14.61,0,0,1-4.33,2.76c-.67.33-1.36.66-2.09,1.06l-1.25.71C317.44,377.87,315,379.17,313.47,379.17Z" transform="translate(-217.08 -257.46)"/><path d="M314,428.74a14.5,14.5,0,0,1-6.54-5.83c-.48-.7-1-1.42-1.6-2.2a11.42,11.42,0,0,1-2-5.53c0-1.58,1-4.42,1.69-6.3l.19-.56a1.9,1.9,0,0,0-.29-1.55,9,9,0,0,0-5.91-3.59c-1.41-.25-1.79.27-2.48,1.2a9,9,0,0,1-1.21,1.4,2,2,0,0,1-1.22.53c-.36.05-.52.08-.78.74a1.14,1.14,0,0,0,.2,1.34c.09.14.19.28.28.45a6.19,6.19,0,0,0,1.16,1.34,4.91,4.91,0,0,1,1.88,3.24c.13,2-1.3,4-2.45,5.56l-.4.55a20.43,20.43,0,0,1-9.07,7.23l-.43-.9a19.33,19.33,0,0,0,8.68-6.91l.41-.56c1.06-1.45,2.37-3.24,2.26-4.9a4,4,0,0,0-1.58-2.59,7.19,7.19,0,0,1-1.33-1.57c-.08-.14-.17-.27-.25-.39a2.09,2.09,0,0,1-.29-2.25c.43-1.12,1-1.28,1.57-1.37a1.09,1.09,0,0,0,.69-.28,8.15,8.15,0,0,0,1.08-1.26c.73-1,1.43-1.93,3.45-1.59,2.76.48,5.48,2.15,6.6,4.07a2.84,2.84,0,0,1,.38,2.39l-.2.57c-.61,1.7-1.63,4.56-1.63,6a10.28,10.28,0,0,0,1.8,4.91c.63.81,1.14,1.54,1.63,2.25a13.54,13.54,0,0,0,6.15,5.5Z" transform="translate(-217.08 -257.46)"/><path d="M250.13,433.82c-.52,0-1,0-1.63-.07a17.67,17.67,0,0,1-5.32-1.11c-2.83-1.13-9.42-4-9.37-6.58,0-.87.72-1.56,2.09-2.05a10.47,10.47,0,0,1,4.72-.61h.28a28.3,28.3,0,0,0,5.57-.81c1-.22,2-.42,2.82-.53a13.28,13.28,0,0,0,6.31-2.32c1.63-1.05,2.11-1,3.07-.52a6,6,0,0,0,1.78.61,23.15,23.15,0,0,0,6.36-.17,38.46,38.46,0,0,0,5.88-1.5l.14-.05c1.74-.54,3.32-.87,5-1.23l1.83-.4,1.31-.31a26.53,26.53,0,0,1,2.73-.59c.61-.08,1.2-.14,1.78-.19a16.74,16.74,0,0,0,2.85-.41,46.37,46.37,0,0,1,5.21-.86c1.17-.15,2.28-.3,3.15-.46l.19,1c-.9.17-2,.32-3.21.47a47.77,47.77,0,0,0-5.09.84,17.79,17.79,0,0,1-3,.44c-.57.05-1.13.1-1.73.18-.94.14-1.76.35-2.63.56-.43.12-.87.23-1.33.33l-1.85.4c-1.65.35-3.21.68-4.91,1.21l-.14,0a39,39,0,0,1-6,1.54,23.85,23.85,0,0,1-6.68.16,7.08,7.08,0,0,1-2-.69c-.64-.31-.79-.38-2.09.46a14.34,14.34,0,0,1-6.71,2.47c-.76.11-1.73.31-2.76.52a29.27,29.27,0,0,1-5.8.83h-.28a9.66,9.66,0,0,0-4.36.55c-.64.23-1.41.61-1.42,1.13,0,1.46,4.51,3.94,8.74,5.63a16.61,16.61,0,0,0,5,1,15.94,15.94,0,0,0,4.59-.23c3.11-.68,6.66-3,9.5-4.9l.55-.37a19.38,19.38,0,0,1,4.43-2.23l1-.38a14.64,14.64,0,0,1,3.16-1c.29-.09.83-.28,1.38-.48a16.32,16.32,0,0,1,1.8-.6c1-.32,1.93-.67,2.84-1a37,37,0,0,1,7.26-2.11c2.69-.45,7.57-1.39,10.1-2.69l.46.89C293,419,288,420,285.29,420.47a35.84,35.84,0,0,0-7.08,2c-.94.35-1.91.71-2.92,1l-.14,0c-.12,0-1,.34-1.6.56s-1.18.43-1.47.51l-.11,0a14.11,14.11,0,0,0-2.93.9L268,426a18.19,18.19,0,0,0-4.22,2.13l-.55.36c-2.91,1.93-6.54,4.33-9.86,5.05A18,18,0,0,1,250.13,433.82Z" transform="translate(-217.08 -257.46)"/><path d="M243.42,408.29a22.57,22.57,0,0,1-.66-3.7c-.2-1.6-.43-3.42-1-3.76a.32.32,0,0,0-.3,0c-2.52.77-7.64,4.34-10.06,6.47l-.66-.75c2.19-1.92,7.54-5.8,10.43-6.67a1.3,1.3,0,0,1,1.13.13c.92.6,1.15,2.39,1.41,4.47a23.14,23.14,0,0,0,.63,3.54Z" transform="translate(-217.08 -257.46)"/><path d="M268.85,441.57a38.5,38.5,0,0,0-4-1.21c-3.91-1.05-6.12-1.7-6-3a11.22,11.22,0,0,1,1.3-2.86c1-1.73,2-3.52,1.16-5.34l.91-.42c1.05,2.29-.14,4.4-1.2,6.26a11,11,0,0,0-1.19,2.54c.16.51,3.46,1.39,5.23,1.87a37.73,37.73,0,0,1,4.12,1.25Z" transform="translate(-217.08 -257.46)"/><path d="M231.73,432.13a6.21,6.21,0,0,1,.29-4.59l.25-.43a5,5,0,0,1,.72-1l.13-.15a5.4,5.4,0,0,1,1.7-1.38l.49.87a4.38,4.38,0,0,0-1.43,1.16l-.13.16a4,4,0,0,0-.62.86,4.06,4.06,0,0,1-.26.44,5.26,5.26,0,0,0-.2,3.72Z" transform="translate(-217.08 -257.46)"/><path d="M237,424.24a8,8,0,0,0-3.26-1.55c-.17,0-.78-.06-1.43-.08-2.29-.11-4.24-.22-4.93-.58a5,5,0,0,1-2.45-2.65c-.07-.33-.19-.72-.31-1.13a7.81,7.81,0,0,1-.53-3.14,21.49,21.49,0,0,1,1.89-4.59c.36-.72.69-1.39.92-1.94a66.52,66.52,0,0,1,6.56-10.87l.8.6A65.67,65.67,0,0,0,227.85,409c-.24.57-.58,1.26-.94,2a20.89,20.89,0,0,0-1.8,4.33,7.48,7.48,0,0,0,.49,2.67c.14.44.26.86.34,1.21a4.1,4.1,0,0,0,1.93,2,21.48,21.48,0,0,0,4.52.47,14.93,14.93,0,0,1,1.55.1,8.57,8.57,0,0,1,3.86,1.89Z" transform="translate(-217.08 -257.46)"/><path d="M281.08,394.16a2.89,2.89,0,0,1-.4-1.19l0-.14a7,7,0,0,1,0-2.95,16.6,16.6,0,0,1,1.44-3.73c1-1.91,2.34-4,4.57-5.24a1.65,1.65,0,0,1,.68-.21,6.58,6.58,0,0,1,.49-1.8,7.89,7.89,0,0,1,1.53-2.07,6.56,6.56,0,0,0,.73-.83,9.3,9.3,0,0,1,.7-.83,4.72,4.72,0,0,1,1.59-.92l.39-.17.41.92-.42.17a4,4,0,0,0-1.26.71,7,7,0,0,0-.62.73,7.4,7.4,0,0,1-.84,1,6.3,6.3,0,0,0-1.33,1.82,6.23,6.23,0,0,0-.41,1.61.74.74,0,0,1-.77.68.9.9,0,0,0-.4.11c-1.78,1-3,2.63-4.17,4.84a15.52,15.52,0,0,0-1.35,3.51,6.22,6.22,0,0,0,0,2.54l0,.15a1.8,1.8,0,0,0,.26.8Z" transform="translate(-217.08 -257.46)"/><path d="M348.05,367h0a63.14,63.14,0,0,1-7.81-1,24.29,24.29,0,0,1-5.22-1.75c-2.49-1.47-4.84-3-6.33-5.23a33.74,33.74,0,0,1-2.78-8.36l1-.18a33,33,0,0,0,2.64,8c1.37,2.08,3.61,3.51,6,4.92a24.79,24.79,0,0,0,4.93,1.63A61.81,61.81,0,0,0,348,366a13.35,13.35,0,0,0,3.26-.28,14.06,14.06,0,0,1,2.35-.51,26.9,26.9,0,0,0,3.64-.79l.42-.17a18,18,0,0,0,4.77-2.63c.46-.35,1.61-1.12,2.95-2,1.72-1.15,3.68-2.45,4.4-3,1.74-1.43,3.41-3.06,4.62-4.25.62-.61,1.14-1.12,1.5-1.43,1-.88,5.15-5.67,6-6.7.69-.82,1.34-1.69,2-2.55s1.23-1.65,1.9-2.45a49.68,49.68,0,0,0,3.93-5.52l.22-.34c4.58-8,7.06-10.54,7.92-11.28l.31.32.49.27-.15.17c-.64.55-3.07,3-7.72,11l-.23.36a51.64,51.64,0,0,1-4,5.62c-.65.78-1.27,1.61-1.86,2.41s-1.31,1.75-2,2.6-5,5.81-6.11,6.8c-.35.31-.85.8-1.46,1.39-1.23,1.21-2.91,2.86-4.68,4.31-.76.62-2.74,1.94-4.49,3.11-1.26.84-2.46,1.64-2.88,2a19,19,0,0,1-5,2.77l-.41.16a25.2,25.2,0,0,1-3.84.86c-.85.15-1.91.34-2.12.43A14.59,14.59,0,0,1,348.05,367Z" transform="translate(-217.08 -257.46)"/><path d="M246.89,419.53a1.06,1.06,0,0,1-.27,0l.28-1c.94.16,6.78-3.26,7.95-4.27,1.42-1.23,5.36-5.27,6.24-6.29a59.48,59.48,0,0,0,3.85-5.29,10,10,0,0,1,.82-1.15,3.55,3.55,0,0,1,2.17-.57,7.28,7.28,0,0,0,.87-.1l.34-.08a9.52,9.52,0,0,0,2-.6l.54.85a8.93,8.93,0,0,1-2.26.72l-.34.08A5.33,5.33,0,0,1,268,402a3.53,3.53,0,0,0-1.55.31c-.06.07-.37.53-.67,1a60,60,0,0,1-3.92,5.37c-.89,1.05-4.9,5.16-6.35,6.4C254.85,415.59,248.8,419.53,246.89,419.53Z" transform="translate(-217.08 -257.46)"/><path d="M255.52,420.72h-.11l.11-1c1,.15,4.69-4.17,6.09-5.78l1.24-1.4a55.43,55.43,0,0,0,5.16-7.06c1.09-1.66,2.83-5,4-7.13.57-1.07.95-1.78,1.09-2,.64-1,6.1-2.74,7.84-2.79h.48c1.37,0,2.19,0,3-1.22s1.62-2.32,2.44-3.57l.76-1.14.24-.4c.43-.76,1-1.7,1.79-1.72a1.42,1.42,0,0,1,1.21.77c.82,1.24.22,3.21-.09,4.26a4.7,4.7,0,0,0-.15.52,16.81,16.81,0,0,1-1,3.16l-.19.51a2.31,2.31,0,0,0,.94,2.8l-.49.87a3.26,3.26,0,0,1-1.38-4l.19-.51a16.29,16.29,0,0,0,.95-3c0-.14.09-.36.17-.63.27-.9.77-2.57.21-3.42-.18-.27-.35-.35-.33-.32-.27,0-.78.88-1,1.21-.1.18-.19.34-.27.46l-.75,1.14c-.79,1.2-1.61,2.45-2.47,3.61-1.15,1.58-2.4,1.6-3.84,1.63H281c-1.74.05-6.58,1.74-7,2.33-.12.18-.55,1-1.05,1.93-1.16,2.19-2.92,5.51-4,7.15a57,57,0,0,1-5.3,7.25l-1.21,1.37C258.91,418.55,256.77,420.72,255.52,420.72Z" transform="translate(-217.08 -257.46)"/><path d="M269.14,412.73l-.61-.79c.31-.24,1.09-.75,1.92-1.29s1.82-1.2,2.17-1.47c.75-.59,3.7-3.45,3.95-3.8a27.57,27.57,0,0,1,5.37-5.31l.4-.34c1-.85,5.92-3.38,7-3.2l-.13,1h0c-.77,0-5.12,2.09-6.2,3l-.41.34a26.75,26.75,0,0,0-5.18,5.12,52,52,0,0,1-4.16,4c-.38.3-1.32.92-2.24,1.52C270.22,412,269.42,412.52,269.14,412.73Z" transform="translate(-217.08 -257.46)"/><path d="M267.53,425.77l-.93-.36a1.26,1.26,0,0,0-.12-.41,1.73,1.73,0,0,1-.21-1,2.23,2.23,0,0,1,1.22-1.53,2.44,2.44,0,0,1,3.09.56v0a2.13,2.13,0,0,1,1.16-1.44,1.62,1.62,0,0,1,1.45.54,1.37,1.37,0,0,1,1-1.38,1.62,1.62,0,0,1,1.19.31,1.25,1.25,0,0,1,.64-.77,1.56,1.56,0,0,1,1.25.2c-.18-1,.26-1.61,1.43-2.26l.1-.06h.12a1.4,1.4,0,0,1,1.09.38,5.1,5.1,0,0,1,.15-.7,2,2,0,0,1,1.26-1.48,1.13,1.13,0,0,1,1.39.72,2.75,2.75,0,0,0,.19.28l.15.19a.92.92,0,0,1,.35-.38l.11,0a1.24,1.24,0,0,1,1,.2,1.74,1.74,0,0,1,.22.18c.09-.85.34-1.67.94-1.92a1.29,1.29,0,0,1,1.07,0,2.31,2.31,0,0,1,1,1.23,1.58,1.58,0,0,1,1.13-1.25,1.08,1.08,0,0,1,1.17.48,1,1,0,0,1,.25-.43,1.23,1.23,0,0,1,1.06-.36,1.78,1.78,0,0,1,1.19.66,1.17,1.17,0,0,1,.31-.51,1,1,0,0,1,1-.22c1.05.29,1.14,1.23,1.2,1.92l0,.32-1,.13c0-.12,0-.24,0-.36-.07-.74-.14-1-.47-1.05-.15.08-.25.72,0,1.61l-.95.29c-.4-1.05-.92-1.77-1.3-1.79-.16,0-.24,0-.27,0s-.06.76,0,1.09a4.25,4.25,0,0,1,0,.92l-.08.59-.57-.17c-.43-.14-.59-.62-.77-1.17-.13-.37-.35-1-.55-1s-.45.73-.55,1.27a4.55,4.55,0,0,1-.27,1l-.51,1.14-.42-1.18c0-.13-.09-.29-.14-.47-.15-.52-.48-1.62-.88-1.81a.24.24,0,0,0-.25,0c-.33.14-.47,1.83-.33,2.8,0,.08,0,.15,0,.22l-1,.17s0-.08,0-.14a2.53,2.53,0,0,0-.81-1.4l-.12-.06a5.24,5.24,0,0,0,.07,1.81l-1,.21-.09-.39a3.4,3.4,0,0,0-.74-1.73,3.4,3.4,0,0,1-.28-.42,1.2,1.2,0,0,0-.2-.28c-.37.12-.55.57-.63.83a3.45,3.45,0,0,0,.13,2.43h0l-.78.63v0a6,6,0,0,1-.63-1.07c-.33-.67-.49-.91-.77-.94-.92.52-1.07.81-.52,2l.15.34-.28.24c-.34.3-.76.08-1.25-.18a2.89,2.89,0,0,0-.8-.34s-.1.34-.15.51a3.36,3.36,0,0,1-.22.61l-.59,1.16-.33-1.26a.75.75,0,0,0-.7-.51c-.14,0-.2.15-.21.75,0,.39,0,.87-.44,1.1l-.34.19-.27-.29c-.76-.82-1-.92-1.12-.93s-.34.45-.5.84a3.8,3.8,0,0,1-.37.79l-.34.49-.43-.42c-1.05-1-1.5-1.34-2.43-.86a1.27,1.27,0,0,0-.69.76,1.43,1.43,0,0,0,.13.45A1.43,1.43,0,0,1,267.53,425.77Z" transform="translate(-217.08 -257.46)"/><path d="M266.5,422.39c-1,0-1.85-1.15-2-2l1-.16c.08.49.69,1.19,1,1.13s.93-.79,1.06-1.39l1,.14a.38.38,0,0,0,.14.24,2.06,2.06,0,0,0,1.3.44c.39-.06.41-.1.41-.75,0-.16,0-.33,0-.5l0-.19.13-.13a.81.81,0,0,1,.63-.24c.43,0,.71.41,1,.77a1.77,1.77,0,0,0,.37.42c.27.06.52-.64.68-1.26.05-.17.09-.31.13-.41l.11-.31.32,0c.58,0,.85.47,1,.8s.32.49.46.49c.56,0,.88-.09.95-.31a3.32,3.32,0,0,0-.05-1.05l1-.19a4.44,4.44,0,0,1,0,1.55c-.29.91-1.3,1-1.84,1a1.36,1.36,0,0,1-1.28-.8c-.23.71-.68,1.59-1.65,1.51a1.6,1.6,0,0,1-1-.78,1.32,1.32,0,0,1-1.25,1.4,3,3,0,0,1-2-.59,2.18,2.18,0,0,1-1.49,1.16Z" transform="translate(-217.08 -257.46)"/><path d="M302.21,431.7l-.12-1c1.2-.14,4.13-2.75,4.55-3.25s2.11-2.47,3.6-2.28l-.13,1c-.65-.09-1.88.93-2.7,1.92C307.07,428.49,303.9,431.51,302.21,431.7Z" transform="translate(-217.08 -257.46)"/><path d="M241.25,395.38a2.84,2.84,0,0,0-2.11-.27,3.55,3.55,0,0,1-3.2-.8l.74-.66a2.62,2.62,0,0,0,2.18.5,3.81,3.81,0,0,1,2.89.37Z" transform="translate(-217.08 -257.46)"/><path d="M238.59,391.79l-.23-1a2.71,2.71,0,0,0,1.06-.83l.32-.33a5.57,5.57,0,0,0,1-1.39l.21-.37a7.58,7.58,0,0,1,2.26-2.26,4.88,4.88,0,0,0,1.69-2.72l1,.27a5.76,5.76,0,0,1-2.09,3.28,6.51,6.51,0,0,0-2,1.93l-.21.37a6.4,6.4,0,0,1-1.14,1.61l-.29.3A3.35,3.35,0,0,1,238.59,391.79Z" transform="translate(-217.08 -257.46)"/><path d="M336.6,396c-1.43-1.62-3-3.27-4.87-3.93l.34-.94c2.1.74,3.82,2.56,5.28,4.21Z" transform="translate(-217.08 -257.46)"/><path d="M337.35,364.32h-.12a7.36,7.36,0,0,1-4.43-1.59c-1.56-.88-1.51-1.77-1.34-2.23a2.67,2.67,0,0,1,2.78-1.3c.93.19,1.66.38,2.4.57s1.32.35,2.13.52a17.32,17.32,0,0,1,2.17.76c.43.17.83.33,1.11.42s.53.15,1,.26a13.18,13.18,0,0,1,3.17,1l.3.23-.14.37c-.25.6-2.34.43-2.36.43a14.13,14.13,0,0,0-1.95,0h-.57c-.14,0-.85.12-1.42.21A22.41,22.41,0,0,1,337.35,364.32Zm-3.53-4.16a1.74,1.74,0,0,0-1.42.69c-.1.27.24.65.92,1l.07.05a6.54,6.54,0,0,0,3.92,1.39,25.37,25.37,0,0,0,2.59-.35,11.85,11.85,0,0,1,1.61-.23H342l.78,0h0c-.49-.12-.89-.22-1.05-.28s-.71-.26-1.17-.44a15.53,15.53,0,0,0-2-.71c-.83-.18-1.5-.35-2.17-.53s-1.44-.37-2.35-.56A.78.78,0,0,0,333.82,360.16Z" transform="translate(-217.08 -257.46)"/><path d="M326.58,424.67a8.72,8.72,0,0,0-2.41-2.64,5,5,0,0,1-1.65-1.47l-.14-.21a14.57,14.57,0,0,1-1.09-1.86,6.12,6.12,0,0,1,0-5.14,20.08,20.08,0,0,1,1.52-2.52,18.51,18.51,0,0,0,1.41-2.3,16.13,16.13,0,0,0,1-4.13,18.59,18.59,0,0,0,.21-2.17c0-.36.05-.69.07-1s.09-.63.14-.93a4.92,4.92,0,0,0,.13-1.48c-.07-.63-.46-3.94-.55-4.4l0-.14a2.33,2.33,0,0,1,0-1.26l.95.3a1.42,1.42,0,0,0,.05.75l0,.16c.1.52.5,3.93.56,4.48a5.91,5.91,0,0,1-.13,1.77,7.37,7.37,0,0,0-.13.84c0,.25-.05.57-.07.92a22.36,22.36,0,0,1-.22,2.28,16.43,16.43,0,0,1-1.06,4.39,21,21,0,0,1-1.49,2.44,18.31,18.31,0,0,0-1.44,2.37,5.12,5.12,0,0,0,0,4.31,12.83,12.83,0,0,0,1,1.72l.14.22a4.22,4.22,0,0,0,1.31,1.15,9.5,9.5,0,0,1,2.78,3Z" transform="translate(-217.08 -257.46)"/><path d="M325.46,419.54a4,4,0,0,1-1.37-.22,11.52,11.52,0,0,1-3-1.92l.74-.67a11.42,11.42,0,0,0,2.63,1.66,3.3,3.3,0,0,0,2.59-.24,2.37,2.37,0,0,1,.52-.27c.1-.05.2-.09.34-.17a6.13,6.13,0,0,1,2-.71,5,5,0,0,1,3,.3l-.48.88a4,4,0,0,0-2.33-.2,5.41,5.41,0,0,0-1.7.58,3.48,3.48,0,0,1-.46.24,1.93,1.93,0,0,0-.39.19A4,4,0,0,1,325.46,419.54Z" transform="translate(-217.08 -257.46)"/><path d="M330.2,378.71l-.78-.63.08-.1c.56-.69.83-1.13.8-1.31a1.55,1.55,0,0,0-.4-.72,3.42,3.42,0,0,0-2.49-.44c-.77.07-1.66.23-2.68.42l-1,.18a20.26,20.26,0,0,0-3.27.78c-.16.06-.69.2-1.25.35s-1.25.33-1.4.39l-.36-.93c.19-.07.69-.21,1.5-.43l1.18-.32a23.05,23.05,0,0,1,3.42-.83l1-.17c1.05-.19,1.95-.36,2.77-.43a4.2,4.2,0,0,1,3.22.66,2.47,2.47,0,0,1,.75,1.33c.1.66-.44,1.4-1,2.1Z" transform="translate(-217.08 -257.46)"/>
	</g>
	<g class="teeth">
		<path d="M267.53,425.77l-.93-.36a1.26,1.26,0,0,0-.12-.41,1.73,1.73,0,0,1-.21-1,2.23,2.23,0,0,1,1.22-1.53,2.44,2.44,0,0,1,3.09.56v0a2.13,2.13,0,0,1,1.16-1.44,1.62,1.62,0,0,1,1.45.54,1.37,1.37,0,0,1,1-1.38,1.62,1.62,0,0,1,1.19.31,1.25,1.25,0,0,1,.64-.77,1.56,1.56,0,0,1,1.25.2c-.18-1,.26-1.61,1.43-2.26l.1-.06h.12a1.4,1.4,0,0,1,1.09.38,5.1,5.1,0,0,1,.15-.7,2,2,0,0,1,1.26-1.48,1.13,1.13,0,0,1,1.39.72,2.75,2.75,0,0,0,.19.28l.15.19a.92.92,0,0,1,.35-.38l.11,0a1.24,1.24,0,0,1,1,.2,1.74,1.74,0,0,1,.22.18c.09-.85.34-1.67.94-1.92a1.29,1.29,0,0,1,1.07,0,2.31,2.31,0,0,1,1,1.23,1.58,1.58,0,0,1,1.13-1.25,1.08,1.08,0,0,1,1.17.48,1,1,0,0,1,.25-.43,1.23,1.23,0,0,1,1.06-.36,1.78,1.78,0,0,1,1.19.66,1.17,1.17,0,0,1,.31-.51,1,1,0,0,1,1-.22c1.05.29,1.14,1.23,1.2,1.92l0,.32-1,.13c0-.12,0-.24,0-.36-.07-.74-.14-1-.47-1.05-.15.08-.25.72,0,1.61l-.95.29c-.4-1.05-.92-1.77-1.3-1.79-.16,0-.24,0-.27,0s-.06.76,0,1.09a4.25,4.25,0,0,1,0,.92l-.08.59-.57-.17c-.43-.14-.59-.62-.77-1.17-.13-.37-.35-1-.55-1s-.45.73-.55,1.27a4.55,4.55,0,0,1-.27,1l-.51,1.14-.42-1.18c0-.13-.09-.29-.14-.47-.15-.52-.48-1.62-.88-1.81a.24.24,0,0,0-.25,0c-.33.14-.47,1.83-.33,2.8,0,.08,0,.15,0,.22l-1,.17s0-.08,0-.14a2.53,2.53,0,0,0-.81-1.4l-.12-.06a5.24,5.24,0,0,0,.07,1.81l-1,.21-.09-.39a3.4,3.4,0,0,0-.74-1.73,3.4,3.4,0,0,1-.28-.42,1.2,1.2,0,0,0-.2-.28c-.37.12-.55.57-.63.83a3.45,3.45,0,0,0,.13,2.43h0l-.78.63v0a6,6,0,0,1-.63-1.07c-.33-.67-.49-.91-.77-.94-.92.52-1.07.81-.52,2l.15.34-.28.24c-.34.3-.76.08-1.25-.18a2.89,2.89,0,0,0-.8-.34s-.1.34-.15.51a3.36,3.36,0,0,1-.22.61l-.59,1.16-.33-1.26a.75.75,0,0,0-.7-.51c-.14,0-.2.15-.21.75,0,.39,0,.87-.44,1.1l-.34.19-.27-.29c-.76-.82-1-.92-1.12-.93s-.34.45-.5.84a3.8,3.8,0,0,1-.37.79l-.34.49-.43-.42c-1.05-1-1.5-1.34-2.43-.86a1.27,1.27,0,0,0-.69.76,1.43,1.43,0,0,0,.13.45A1.43,1.43,0,0,1,267.53,425.77Z" transform="translate(-217.08 -257.46)"/><path d="M266.5,422.39c-1,0-1.85-1.15-2-2l1-.16c.08.49.69,1.19,1,1.13s.93-.79,1.06-1.39l1,.14a.38.38,0,0,0,.14.24,2.06,2.06,0,0,0,1.3.44c.39-.06.41-.1.41-.75,0-.16,0-.33,0-.5l0-.19.13-.13a.81.81,0,0,1,.63-.24c.43,0,.71.41,1,.77a1.77,1.77,0,0,0,.37.42c.27.06.52-.64.68-1.26.05-.17.09-.31.13-.41l.11-.31.32,0c.58,0,.85.47,1,.8s.32.49.46.49c.56,0,.88-.09.95-.31a3.32,3.32,0,0,0-.05-1.05l1-.19a4.44,4.44,0,0,1,0,1.55c-.29.91-1.3,1-1.84,1a1.36,1.36,0,0,1-1.28-.8c-.23.71-.68,1.59-1.65,1.51a1.6,1.6,0,0,1-1-.78,1.32,1.32,0,0,1-1.25,1.4,3,3,0,0,1-2-.59,2.18,2.18,0,0,1-1.49,1.16Z" transform="translate(-217.08 -257.46)"/>
	</g>
	<g class="fenestra">
		<path d="M257.24,413l.21-1.37c.79-5.22-.67-6.3-1.73-7.09A5.27,5.27,0,0,1,255,404a5,5,0,0,1-1.09-2.07,2.19,2.19,0,0,0-1.51-1.78c-1.76,1.31-4.85,3.38-8.07-.21-.41-.46-.85-.88-1.27-1.28-1.43-1.36-2.78-2.65-1.91-4.67,1.2-2.81,7.55-5.45,12.5-6.06l1.75-.22a46.11,46.11,0,0,1,6.36-.52h.91c2.65,0,4-.05,7,1.79.66.42,2.33,2.65-3.7,13.95a37,37,0,0,1-7.68,9.21Zm-5-14,.24.07a3.18,3.18,0,0,1,2.4,2.52,3.91,3.91,0,0,0,.88,1.68,3.67,3.67,0,0,0,.57.48c1.1.81,2.72,2,2.3,6.69a34.82,34.82,0,0,0,6.47-8c3.4-6.37,5.18-11.92,4.05-12.63-2.75-1.68-3.83-1.67-6.45-1.64h-.91a46.08,46.08,0,0,0-6.24.51l-1.76.23c-5.18.63-10.75,3.24-11.7,5.46h0c-.57,1.32.18,2.12,1.67,3.55.44.41.89.84,1.33,1.33,2.54,2.83,4.73,1.57,6.94-.08Z" transform="translate(-217.08 -257.46)"/><path d="M299.19,378.18a5.27,5.27,0,0,1-4-1.38c-1.08-1.11-1.52-2.91-1.34-5.51.13-2,1.35-6.52,3.56-8.1a2.81,2.81,0,0,1,2.45-.49l.91.07.34.12a5.83,5.83,0,0,1,3.32,2.24c.89,1.21,1.05,3.18,1.17,4.76l.06.66a7.49,7.49,0,0,1-1.66,5.6,6,6,0,0,1-4.33,2Zm0-14.57a1.89,1.89,0,0,0-1.15.4c-1.85,1.32-3,5.42-3.15,7.35-.15,2.29.19,3.85,1.07,4.75a4.69,4.69,0,0,0,3.72,1.06,5,5,0,0,0,3.62-1.68,6.47,6.47,0,0,0,1.41-4.85l-.05-.67c-.11-1.38-.26-3.27-1-4.24a4.92,4.92,0,0,0-2.84-1.9l-.28-.09-.81-.05A2.29,2.29,0,0,0,299.15,363.61Z" transform="translate(-217.08 -257.46)"/><path d="M326.79,394.19a1.87,1.87,0,0,1-.9-.2c-.81-.42-1.09-1.34-1.43-2.41a15,15,0,0,0-.49-1.42c-2-4.77-.75-6.13,1.95-9.12l.17-.18c3.1-3.42,4.11-3,4.45-2.81a4.91,4.91,0,0,1,2.56,4.65c0,1.31-.92,2.62-1.8,3.9s-1.61,2.34-1.39,3.12a1.63,1.63,0,0,0,1,.92c.28.06,1.39.34,1.56.9l.09.32-.26.21a12.82,12.82,0,0,1-4,1.78L328,394A3.93,3.93,0,0,1,326.79,394.19ZM330.05,379c-.33,0-1.4.58-3.22,2.58l-.17.18c-2.62,2.9-3.51,3.88-1.77,8.06.22.53.38,1.05.53,1.51.27.89.49,1.6.93,1.82a1.78,1.78,0,0,0,1.31-.07l.39-.13a16.78,16.78,0,0,0,3-1.19,3.75,3.75,0,0,0-.39-.1l-.11,0A2.56,2.56,0,0,1,329,390c-.35-1.23.56-2.55,1.53-4,.79-1.15,1.61-2.34,1.62-3.34a4,4,0,0,0-2-3.73Z" transform="translate(-217.08 -257.46)"/><path d="M337.35,364.32h-.12a7.36,7.36,0,0,1-4.43-1.59c-1.56-.88-1.51-1.77-1.34-2.23a2.67,2.67,0,0,1,2.78-1.3c.93.19,1.66.38,2.4.57s1.32.35,2.13.52a17.32,17.32,0,0,1,2.17.76c.43.17.83.33,1.11.42s.53.15,1,.26a13.18,13.18,0,0,1,3.17,1l.3.23-.14.37c-.25.6-2.34.43-2.36.43a14.13,14.13,0,0,0-1.95,0h-.57c-.14,0-.85.12-1.42.21A22.41,22.41,0,0,1,337.35,364.32Zm-3.53-4.16a1.74,1.74,0,0,0-1.42.69c-.1.27.24.65.92,1l.07.05a6.54,6.54,0,0,0,3.92,1.39,25.37,25.37,0,0,0,2.59-.35,11.85,11.85,0,0,1,1.61-.23H342l.78,0h0c-.49-.12-.89-.22-1.05-.28s-.71-.26-1.17-.44a15.53,15.53,0,0,0-2-.71c-.83-.18-1.5-.35-2.17-.53s-1.44-.37-2.35-.56A.78.78,0,0,0,333.82,360.16Z" transform="translate(-217.08 -257.46)"/><path d="M283,387.59a1,1,0,0,1-.73-.26.88.88,0,0,1-.21-.87,7.17,7.17,0,0,1,1.27-2.28q.15-.21.3-.45a8.73,8.73,0,0,1,.68-.92h0a8.24,8.24,0,0,1,2.13-1.77,2.08,2.08,0,0,1,1.6-.36c.4.15.74.61.47,1.42a11.57,11.57,0,0,1-.57,1.28c-.13.27-.27.56-.39.83a7.79,7.79,0,0,1-.69,1.27,4.54,4.54,0,0,1-1.42,1.16l-.29.18a4.46,4.46,0,0,1-1.49.67A2.69,2.69,0,0,1,283,387.59Zm4.6-6a2.71,2.71,0,0,0-.66.28,7.12,7.12,0,0,0-1.89,1.57h0a6.79,6.79,0,0,0-.59.81c-.11.16-.21.33-.32.48a7.59,7.59,0,0,0-1.08,1.81,1.64,1.64,0,0,0,.36-.06,3.77,3.77,0,0,0,1.2-.54l.3-.19a3.9,3.9,0,0,0,1.15-.91,7.53,7.53,0,0,0,.57-1.08c.12-.28.27-.58.4-.86a10.58,10.58,0,0,0,.52-1.15A.37.37,0,0,0,287.58,381.63Z" transform="translate(-217.08 -257.46)"/>
	</g>
</svg>