<?xml version="1.0" encoding="utf-8"?>
<!-- Generator: Adobe Illustrator 16.0.4, SVG Export Plug-In . SVG Version: 6.00 Build 0)  -->
<!DOCTYPE svg PUBLIC "-//W3C//DTD SVG 1.1//EN" "http://www.w3.org/Graphics/SVG/1.1/DTD/svg11.dtd">
<svg version="1.1" xmlns="http://www.w3.org/2000/svg" xmlns:xlink="http://www.w3.org/1999/xlink" x="0px" y="0px" width="382px" height="382px" viewBox="0 0 382 382" enable-background="new 0 0 382 382" xml:space="preserve">
<g id="Layer_1">
	<path fill="#bbb" d="M341.4,232.8c4.3-7,6.8-9.7,8-10.8c4.3-3.4,6-5.7,8.6-10.5c1.8-3.2,2.5-6.1,3.3-8.9c0.5-2,1-3.8,1.9-5.8
		c1.5-3.6,3.8-7.1,6.1-10.9c3.1-4.9,6.2-9.9,7.9-15.3c1.3-3.9,0.6-8.4,0-12.4c-0.2-1.5-0.4-2.9-0.5-4.2c-0.3-4,0-8.1,1-12.8
		c0.3-1.5,0.6-2.9,0.9-4.2c1.8-8.1,2.9-13-5-20.7c0.7-5.1,1.7-8.7,2.4-11.4c1.3-4.7,2.4-8.4-2.4-11c-0.6-0.3-1.2-0.6-2-0.9
		c-0.9-0.3-2.3-0.7-3.9-1c-1.6-0.3-3.9-0.9-4.6-1.3c-0.7-0.5-0.8-0.6-0.8-0.7c-0.1-0.2-0.2-1-0.2-1.4c-0.1-1.4,0.1-3.1,0.3-4.8
		c0.4-3.4,0.8-7-1.9-8.5c-1-0.5-2.2-0.7-3.5-0.3l-0.2,0.1c-1.5,0.5-3.1,1.6-4.7,2.7c-1.1,0.7-2.7,1.8-3.3,1.9c-0.1,0-0.2,0-0.3,0.1
		c-0.2-0.7-0.5-1.6-1-2.6c-2-3.6-4.4-8.2-9.1-10.8l-0.3-0.2c-1-0.6-2.2-0.6-3.2-0.2c-2.3,1.1-3,4.4-3.7,8.3c-0.2,1-0.4,1.9-0.5,2.5
		c-0.5,1.9-0.8,3.4-1.1,4.7c-0.6,2.9-0.9,4.7-2.8,7.8c-1.6,2.7-2.6,5.4-3.6,8c-1.9,5.2-3.9,10.5-11.2,17.4c-1.4,1.4-2.8,3.5-4.6,6.3
		c-3.6,5.7-8.5,13.5-17.6,20.4c-3.4,2.6-5.7,5.9-8,9.1c-2.6,3.7-5.1,7.2-9,9.1c-1.6,0.8-3.1,1.5-4.4,2.1c-9.9,4.7-11.5,5.7-20.1,17
		c-1.5,2-3.6,2.5-6.9,3.1c-4,0.8-9,1.7-11.9,7.5c-0.3,0.6-0.6,0.7-0.7,0.7c-0.2,0.1-1.1,0.2-3.2-0.9c-5.9-3.3-14.4-13.1-18.9-18.4
		c-0.6-0.7-1.1-1.3-1.6-1.9c-1.3-1.5-3-3.2-4.6-4.8c-1.9-1.9-3.9-3.9-5.3-5.7c-1.1-1.4-2.9-3.3-5.2-5.6c-3.4-3.5-7.6-7.9-12.1-13.3
		c-3.7-4.5-7.8-8.5-11.8-12.4c-2.5-2.5-5.1-5-7.6-7.7c-4.3-4.6-9.2-9.1-12.8-12.4c-1.7-1.5-3.1-2.8-4.1-3.8
		c-1.9-1.8-4.4-4.4-6.8-6.8c-3.4-3.4-6.9-7-9.1-9c-7.8-7.2-13.7-13.4-19.9-20c-3.9-4.2-8-8.5-12.7-13.2
		c-4.8-4.8-10.2-10.9-13.9-15.8c-1.9-2.5-3.1-4-4.1-5.3c-1.4-1.8-2.6-3.4-5.3-6.8c-1-1.3-2.2-2.8-3.3-4.3c-2.7-3.5-5.6-7-7.4-10
		c-1.7-2.7-2.7-4.1-3.8-5.5C54.3,5.2,53.4,4,52.1,2l-0.2-0.2c-1.5-1.9-3.7-2.2-5.2-1.1c-0.6,0.5-1.9,1.9-1,4.8l0.1,0.4
		c3.8,8.3,6.8,13.8,9.2,18c5.7,9.8,8.5,14.8,13.5,23.9l1.6,2.8c2.6,4.7,6.5,10.6,8.9,14.1c2.4,3.4,4.6,6.4,6.7,9.3
		c2.5,3.5,4.9,6.8,7.7,10.9c0.5,0.7,1,1.4,1.4,2.1c2.4,3.5,4.7,6.9,7.9,10.2c1.7,1.8,4.2,5.2,6.3,7.9c0.8,1.1,1.6,2.1,2.2,2.9
		l0.1,0.2c4.1,4.4,9.6,11.6,13.7,16.8l1.4,1.8c0.8,1.1,1.5,1.9,2,2.5c2,2.6,2.2,2.8,5.1,7.2c5.6,8.5,10,18,14.3,27.2
		c1.8,3.9,3.7,8,5.7,11.9l0.8,1.6c3.6,7.1,6.7,13.3,5.2,21.2c-0.8,4-3,7.6-5.4,11.3c-1,1.6-2.1,3.3-3.1,5.1
		c-7.6,13.7-17.3,19.8-30.6,25.3c-6.2,2.6-11.1,4.3-18.4,6.8c-9.8,3.3-14.6,4.4-25.3,4.9c-5.4,0.2-9.5-0.2-14.7-0.6l-2-0.2
		c-2.4-0.2-7.4-1.1-10.5-1.7l-1.3-0.2c-1.7-0.3-3.3-0.5-4.9-0.8c-2-0.3-4.1-0.6-6.7-1.1c-2.2-0.4-4.5-0.7-6,0.8
		c-1.4,1.4-1.2,3.3-1.1,4l0.1,0.3c0.2,0.8,0.5,2.1,0.9,3.6c0.8,3.1,1.9,7.1,2.4,9.3l0.2,1c0.7,3.1,1.4,6.4,2.5,9.4
		c0,1.9-1.5,3.9-3.1,5c-1.3,0.9-2.8,1.7-4.3,2.5c-2.2,1.2-4.6,2.4-6.7,4.2c-7.6,6.6-17.1,19.6-20.3,31.6
		c-5.5,20.3,7.2,36.3,19.6,49.8l5.1,5.5l-0.8-7.5c-0.3-3,0.3-8.7,1.8-12.4c3.3,7.3,9.6,13.7,17.7,18.2c2.1,1.2,4.3,2.2,6.5,3
		c7.6,2.8,13.9,4.2,21.1,4.8c5.8,0.4,10.7,0.8,16.8,1c2,0.1,4.2-1.2,8.8-4c4.2-2.5,9.4-5.6,13.8-6.7c5.8-1.4,11.4-3.2,16.7-5
		c5.7-1.8,11.6-3.8,17.8-5.2c5.4-1.2,8.8-2.1,11.5-2.8c5.3-1.4,8-2.1,18.5-3.7c3.6-0.5,11.5-2.8,19.1-4.9c5.9-1.7,11.6-3.3,14.3-3.8
		c4.4-0.9,7.5-1.8,10-2.6c1.1-0.3,2.1-0.6,3-0.9c0.4-0.1,0.9-0.2,1.3-0.3c2.7-0.5,6.8-1.4,10.1-7.3c1.3-2,2.6-4.3,2-6.8
		c-0.4-1.7-1.6-3-3.6-4.1c-0.8-0.5-1.8-0.9-3-1.3c-0.1-0.8-0.2-2.5,0.2-6.1c0.4-3.5,1.8-6.7,3.2-10.2c0.5-1.3,1.1-2.7,1.6-4
		c3.4-9.1,5.7-13.8,7.2-16.3c0.4,0.7,0.7,1.5,1.1,2.4c0.8,2.1,1.8,4.7,4.8,6.4c2,1.1,4.7,1.6,8.2,1.6c1.5,0,3.1,0.1,4.5,0.3
		c4.5,0.4,9.2,0.8,13.3-3.2c1.2-1.2,1.7-2.9,2.2-4.4c0.2-0.7,0.5-1.8,0.8-2.2c0.2,0,0.6,0,1.1,0.1c1.1,0.2,2.6,0.5,4.4-0.2
		c4.3-1.6,7-5.3,9.4-8.5c0.4-0.5,0.8-1,1.2-1.6c2.2-2.8,6.8-5.2,11.3-5.9c5.3-0.8,7.6-5.3,9.5-9.3c0.6-1.3,1.3-2.6,2-3.8
		c2.9-4.7,4.8-5,7.7-5.4c2.6-0.4,5.9-0.9,9.7-4.5c2.9-2.7,4.4-5.9,5.8-9c0.7-1.5,1.5-3.1,2.4-4.6L341.4,232.8z M158.9,174.7
		l-0.8-1.6c-1.9-3.8-3.8-7.9-5.6-11.7c-4.4-9.3-8.9-19-14.7-27.8c-3-4.5-3.3-4.9-5.3-7.5c-0.5-0.7-1.2-1.5-2-2.5l-1.4-1.8
		c-4.1-5.3-9.7-12.5-13.9-17.1c-0.6-0.8-1.3-1.7-2.1-2.7c-2.1-2.8-4.8-6.4-6.7-8.3c-2.9-3.1-5-6.1-7.4-9.6c-0.5-0.7-0.9-1.4-1.4-2.1
		c-2.8-4.1-5.2-7.4-7.8-10.9c-2.1-2.9-4.2-5.8-6.6-9.3c-2-2.8-5.9-8.8-8.7-13.7L73,45.2c-5.1-9.1-7.9-14-13.6-23.9
		c-0.1-0.2-0.3-0.5-0.4-0.8c1.2,1.5,2.4,3,3.6,4.6c1.2,1.5,2.3,2.9,3.3,4.2c2.6,3.5,3.8,5,5.3,6.9c1,1.3,2.2,2.8,4.1,5.3
		c3.9,5,9.4,11.3,14.3,16.2c4.7,4.7,8.7,9,12.6,13.1c6.3,6.6,12.2,12.9,20.1,20.3c2.1,1.9,5.5,5.4,8.9,8.8c2.4,2.5,5,5,6.9,6.9
		c1.1,1,2.5,2.4,4.2,3.9c3.7,3.4,8.4,7.6,12.5,12.1c2.5,2.7,5.2,5.3,7.7,7.8c3.9,3.8,7.9,7.8,11.4,12c4.6,5.6,9.1,10.2,12.4,13.6
		c2.2,2.2,3.9,4,4.9,5.3c1.6,2,3.7,4,5.7,6.1c1.6,1.6,3.2,3.2,4.4,4.6c0.5,0.5,1,1.2,1.6,1.8c4.6,5.4,12,14,18.4,18.4
		c1.2,6.5,3.8,12.6,4.9,14.4c2.2,3.4,5.3,6,8.8,8.4c-2.1,2.2-3.8,5-5.4,7.7c-1.6,2.7-3.3,5.6-5.4,7.6c-2.5,2.4-5.2,3.7-8.3,5.1
		c-1.4,0.6-2.8,1.3-4.4,2.1c-0.9,0.5-1.7,0.9-2.6,1.4c-5.5,3-12.9,7-14.9,5.9c0,0-0.1,0-0.1-0.1c-2.2-1.5-3.9-1.6-5.4-1.6
		c-1.2,0-2.3-0.1-3.8-0.8c-1.1-0.6-2-1.5-2.9-2.5c-1-1.1-2.1-2.3-3.7-3.1c0.9-2.2,1.3-4.8,1.1-7.4c0-0.4-0.1-0.9-0.1-1.3
		c-0.2-3.2-0.5-7.2-2.2-9.7c-1.1-1.5-2.3-2.6-3.7-3.4c-1-0.5-2-0.9-2.9-1.2l-0.7-0.2l-1.9-0.2c-1.7-0.4-3.3-0.1-4.9,0.9
		c-4.5,3.1-7.1,12.3-7.5,16.3c-0.2,2.6-0.1,4.8,0.3,6.6c-0.2-0.1-0.4-0.2-0.6-0.3c-0.8-0.3-1.7-0.7-2.4-1.2c-2.7-1.9-3.6-5.2-3-9.9
		c2.1-2.6,4-5.5,5.9-8.8c0.9-1.6,1.9-3.2,2.9-4.8c2.5-4,5.2-8.1,6.1-13.1C166.3,189.4,162.7,182.3,158.9,174.7z M246.3,217.2
		c0,0.4,0.4,0.9,0.9,1.4c-2.6-0.8-5.9-1.9-7.3-2.8c-2.6-1.6-5.1-3.2-7.3-5c0.6-0.2,1.1-0.5,1.6-0.7c1-0.5,1.9-1,2.8-0.8
		c1.8,0.4,3.2,0.8,4.7,1.2c1.3,0.4,2.7,0.7,4.4,1.1c1,0.2,2.6,0.9,4,1.5c0.9,0.4,1.7,0.7,2.4,0.9c0.3,0.1,1.1,0.3,2.1,0.6
		c0,0,0.1,0,0.1,0c-0.6,0-1.2,0-1.7,0c-0.5,0-0.8,0-1,0c0,0-3.9-0.1-5.2,1.3C246.4,216.4,246.3,216.8,246.3,217.2z M139.9,256.3
		c-1.1,2.4-3.5,4.1-7,4.8c2.5-4.4,4.9-7.7,8.5-9.5c0.3-0.2,0.6-0.2,0.8-0.2c0.1,0,0.3,0,0.6-0.1C141.9,252.2,141,253.8,139.9,256.3z
		 M143.7,250.4c0.1-0.1,0.1-0.3,0.1-0.4c0.3-1.5,0.6-2.8,0.9-3.3c0.9-1.6,1.6-2.6,2.8-3.6c0.7-0.6,1.2-1.3,1.7-1.9
		c0.4-0.5,0.8-1,1.3-1.5c0.6-0.6,1.6-1,2.6-1.4c0.1,0,0.1-0.1,0.2-0.1c0.3,0.2,0.7,0.3,1,0.4c2.5,1,3.7,1.5,2.3,5.2
		c-1.1,3.1-4.5,4.1-7.9,4.9l-1,0.2C145.9,249.3,144.7,249.6,143.7,250.4z M157.3,230.6c0.3-3.9,2.8-12.2,6.6-14.8
		c1.1-0.7,2.2-1,3.3-0.6l1.8,0.2l0.6,0.2c0.9,0.3,1.8,0.6,2.6,1.1c1.2,0.6,2.1,1.5,3.1,2.8c1.4,2,1.7,5.8,1.9,8.6
		c0,0.5,0.1,0.9,0.1,1.4c0.3,3.8-0.8,7.3-3,9.8c-1.9,2.1-4.4,3.2-7.4,3.3C159.4,242.8,156.6,239.4,157.3,230.6z M38.1,264.6l-0.2-1
		c-0.5-2.4-1.6-6.3-2.4-9.5c-0.3-1-0.5-1.9-0.7-2.7c0.3,0,0.6,0.1,1,0.2c2.7,0.5,4.8,0.8,6.9,1.1c1.6,0.2,3.1,0.5,4.8,0.8l1.2,0.2
		c1.7,0.3,4.1,0.7,6.2,1.1c-0.8,1.5-1.2,2.2-2.6,3c-2,1.3-3.7,3-4.6,4.5c-0.2,0.3-0.3,0.5-0.4,0.8c-0.6,1.1-1.2,2-2,2.8
		c-0.2,0.2-0.4,0.4-0.7,0.7c-0.7,0.7-1.5,1.5-2.2,1.7l0.4,2c1.3-0.3,2.3-1.3,3.2-2.2c0.2-0.2,0.4-0.4,0.6-0.6c1.1-1,1.7-2.1,2.4-3.2
		c0.1-0.2,0.3-0.5,0.4-0.7c0.8-1.3,2.3-2.8,4-3.9c1.8-1.2,2.4-2.3,3.3-3.9l0.3-0.5c1,0.1,1.8,0.3,2.5,0.3l2,0.2
		c5.2,0.5,9.6,0.9,15.4,0.7c11.3-0.5,16.6-1.7,26.7-5.1c7.4-2.5,12.4-4.3,18.7-6.9c10-4.1,18.2-8.6,25-16.1c0,3.8,1.2,6.7,3.7,8.6
		c-0.7,0.3-1.4,0.7-2,1.3c-0.5,0.5-1,1.1-1.4,1.6c-0.5,0.6-1,1.2-1.5,1.7c-1.5,1.3-2.3,2.7-3.2,4.1c-0.5,0.8-0.8,2.3-1.1,3.6
		c-0.3,0-0.8,0.1-1.4,0.4c-4.5,2.4-7.2,6.6-9.4,10.5c-1.5,2.7-2.4,5.3-3,7.5c-0.6,2-0.3,4-0.1,6l0,0.3c0,0.4,0.1,0.8,0.3,1.2
		c-4.9,0.2-14.8,3.9-15.7,5.4c-0.3,0.4-1.1,1.9-2.3,4c-0.6,1.2-1.4,2.5-2.1,3.8c-0.7,0.3-2.3,0.7-3.7,1l-0.7,0.2
		c-0.4,0.1-1.1,0.1-1.8,0.2c-0.7,0-1.4,0.1-2.1,0.2c4-7.8,10.3-21.6,6-24.4c-6-3.8-8.7-3.8-14.1-3.8c-0.6,0-1.2,0-1.8,0
		c-5.1,0-8.4,0.3-12.9,0.8c-1.1,0.1-2.3,0.3-3.5,0.4c-10,1.1-23,6.2-25.5,11.9c-0.1,0.2-0.1,0.3-0.2,0.5c-1.4-0.5-3-0.6-4.5-0.2
		l-0.3,0.1c-1.2,0.3-1.5,0.4-2.2-0.4l-0.1,0.1c0-0.2,0-0.4,0-0.5l0-0.3l-0.1-0.3C39.5,270.9,38.8,267.7,38.1,264.6z M104,313.5
		c0.6-0.4,2.2-1.5,3.8-2.5c1.9-1.2,3.8-2.4,4.6-3c1.5-1.1,7.8-7,8.5-8c2.9-4,6.7-7,10.7-10.2l0.8-0.7c2.1-1.7,9.9-5.3,12.2-5.8
		c0.2,0.3,0.5,0.7,0.8,1c-0.3,0.4-0.6,0.9-0.8,1.5c-1.3,3.9,1.4,10.1,5.4,12.3c0,0,0,0,0,0c0.7,0.4,1.4,0.6,2,0.7
		c2.4,0.4,4.1-0.7,5.8-1.8c0.4-0.2,0.8-0.5,1.1-0.7c-0.6,0.8-1.3,1.6-2.2,2.4c-0.5,0.4-0.9,0.5-1.4,0.6c-1.2,0.2-2.3,0.5-3.2,2.7
		c-0.9,2.3-0.2,3.4,0.5,4.6c0.2,0.2,0.3,0.5,0.5,0.8c0.7,1.2,1.7,2.2,2.6,3.2c1.5,1.5,3,3,3.1,5.3c0,0.2,0,0.3,0,0.5
		c-1.6,0.2-3.6,0.5-5.6,0.7c-3.8,0.4-7.7,0.9-10.6,1.6c-2,0.5-3.8,0.6-5.8,0.7c-1.2,0.1-2.4,0.2-3.6,0.3c-2,0.3-3.8,0.7-5.5,1.1
		c-0.9,0.2-1.7,0.4-2.7,0.6c-1.3,0.3-2.5,0.5-3.7,0.7c-3.4,0.7-6.6,1.3-10.2,2.4l-0.3,0.1c-4.1,1.2-7.9,2.3-11.9,2.9
		c-3.8,0.5-9.4,0.8-12.9,0.1c-1.8-0.4-2.8-0.9-3.6-1.3c-0.3-0.2-0.6-0.3-0.9-0.4c2.3-2.1,5.1-5,8.5-8.9c1-1.1,1.9-2.1,2.5-2.7
		c3.8-4,7.7-9.7,10.9-14.4l0.1-0.1c2.2-3.3,5.9-9.9,8.3-14.3c1-1.9,1.9-3.5,2.2-3.9c0.9-1.2,10.8-4.5,14.3-4.5c0.3,0,0.6,0,1,0
		c2.9,0,5.4,0,7.8-3.2c1.8-2.3,3.5-4.8,5.1-7.3c0.5-0.8,1-1.5,1.5-2.3c0.2-0.2,0.4-0.6,0.6-0.9c0.4-0.7,1.4-2.4,2-2.4
		c0.1,0,0.3,0.1,0.7,0.7c1.1,1.8,0,5.1-0.5,6.9c-0.2,0.5-0.3,0.9-0.4,1.3c-0.4,2.1-1.2,3.9-2,6l-0.4,1c-0.6,1.5-0.6,3.2-0.2,4.6
		c-3.6,1-10.8,4.6-12.5,6l-0.8,0.7c-4.1,3.3-7.9,6.4-11,10.6c-0.5,0.7-6.6,6.4-8.1,7.6c-0.7,0.5-2.7,1.8-4.4,2.9
		c-1.7,1.1-3.3,2.1-3.9,2.6L104,313.5z M207.8,321.1c-4.3,1-10.9-2.2-15.5-4.8c-0.7-0.4-1.4-0.8-2.1-1.2l-0.5-0.3
		c-2.5-1.4-4.8-4.7-7.1-8.2c-0.9-1.3-1.7-2.6-2.7-3.8c-0.1-0.4-0.3-0.8-0.6-1.2c-2.2-3.9-7.7-7.4-13.2-8.4c-1-0.2-1.8-0.2-2.5-0.1
		c-0.8-0.1-1.8,0.1-3.3,0.5c-1.4,0.4-2.5,1.1-3.5,1.8c-1.5,1-2.7,1.8-4.3,1.5c-0.5-0.1-0.9-0.3-1.4-0.5c0,0,0,0,0,0
		c-3.1-1.7-5.4-6.9-4.5-9.9c0.5-1.4,1.6-2,3.5-1.8l0.3,0.2c3.4,1.7,7.1,0.5,10.6-0.7c1.9-0.6,3.8-1.2,5.4-1.3
		c3.6-0.2,7.4,1.6,10.3,3.3c1.3,0.7,2.6,1.5,3.8,2.2c1,0.6,2,1.2,2.9,1.7c2.5,1.4,3.2,2.5,4.3,4.1c0.4,0.7,0.9,1.4,1.6,2.2
		c1,1.3,2.3,2.4,3.5,3.4c1.4,1.2,2.7,2.3,3.6,3.7c0.6,0.9,1,1.7,1.4,2.5c0.8,1.7,1.6,3.1,3.6,4.9c0.7,0.6,1.5,1.2,2.4,1.7
		c1.1,0.6,2.3,1.1,3.3,1.5c0.8,0.3,1.6,0.6,2.3,1C208.5,317.1,207.9,319.1,207.8,321.1z M90.5,343.5c-5.8,3.7-13.1,8.3-19.4,9.6
		c-3.9,0.6-6.1,0.6-9.3,0.3c-3.9-0.3-7.3-1.1-10.1-2.3c-8.5-3.6-17.6-8.7-17.5-11.7c0-0.2,0.1-0.5,0.3-0.7c0.3-0.2,0.6-0.4,0.9-0.7
		l0-0.1c0.5-0.3,1.2-0.6,1.8-0.8c3.6-1.2,5.4-1.1,8.8-1l0.6,0c3.1,0.1,7.7-0.7,11.8-1.5c2.1-0.4,4.1-0.8,5.6-1
		c5.8-0.7,8.8-1.8,13.7-4.8c0,0,0,0,0,0c0.5-0.2,1.1-0.5,1.7-1c1.2-0.6,1.6-0.4,2.5,0.1c0.9,0.4,2,1,4.1,1.5
		c2.4,0.5,5.8,0.5,8.9,0.3c0.4,1,1.3,2.1,2.3,2.7c0.5,0.3,1.1,0.4,1.7,0.4c1.3-0.2,2.4-1.2,3.1-2.3c1.2,0.9,3,1.4,4,1.2
		c2.1-0.3,2.5-1.6,2.6-2.8c0.5,0.7,1.1,1.5,2,1.6c2,0.2,2.9-1.6,3.4-3c0.4,0.8,1.2,1.7,2.6,1.7c0.3,0,0.6,0,1-0.1
		c-0.4,0.3-0.7,0.8-0.8,1.3c-0.7-0.5-1.6-0.8-2.3-0.7l-0.1,0c-1.6,0.4-2,1.7-2.1,2.8c-1-0.9-2-1.5-2.9-1.1c-1.4,0.4-1.9,1.8-2.4,2.9
		c0,0,0,0.1,0,0.1c-1.6-1.5-3.4-2.6-6.2-1.2c-1.1,0.6-2.3,1.7-2.5,3.1c-0.1,0.7,0.2,1.4,0.4,1.9c0.1,0.3,0.3,0.7,0.2,0.8l0.1,0
		c-2.4,1-4.5,2-7,3.6L90.5,343.5z M29.7,289.7c0.8-1.2,1.5-2.3,2.2-3.3c1.2-0.6,2.4-1.3,3.5-2.1c2.1-1.5,4.4-4.1,5.1-7.2
		c1.1,0.6,2.1,0.3,3.1,0l0.3-0.1c1.1-0.3,2.4-0.2,3.5,0.3c0,2.7,2.1,4.8,4.3,7c0.8,0.8,1.7,1.7,2.5,2.6c1.2,1.3,2.4,2.4,3.6,3.1
		c5.1,2.8,9.7-0.3,12.7-2.4c0.3,0.1,0.6,0.2,0.8,0.4c1.4,0.8,1.8,1.8,2.2,3.3c0.4,1.3,0.8,2.7,2.2,4.2c0.4,0.5,0.9,0.8,1.4,1.2
		c2.1,1.6,5.1,3.9,3.3,14.4l0,0.3c-2.1,2-4.1,3.9-5.3,4.9c-2.4,2-14.4,8.8-16.2,8.4l-0.6,1.9c3.1,1,16.7-7.6,18.1-8.8
		c3-2.5,11.2-10.7,13-12.8c0.6-0.7,1.2-1.5,1.8-2.2c2.5-2.9,4.6-5.8,6.2-8.4c0,0,0.1-0.1,0.1-0.1c0.6-0.9,1.3-1.8,1.4-2
		c0.5-0.5,2-0.5,3.1-0.6c0.8,0,1.5-0.1,2.1-0.2l0.7-0.2c0.7-0.2,1.3-0.3,1.9-0.4c-1.7,3-3.4,6-4.7,7.8l-0.1,0.1
		c-3.1,4.6-7,10.3-10.7,14.1c-0.6,0.7-1.5,1.6-2.5,2.8c-2.2,2.5-7.4,8.2-10.4,10.5c-0.5,0.2-1.1,0.6-1.8,1c-0.1,0-0.2,0-0.2,0l0,0.1
		c-4.5,2.8-7.2,3.7-12.7,4.4c-1.6,0.2-3.6,0.6-5.7,1c-3.9,0.8-8.4,1.6-11.3,1.5l-0.6,0c-2.3-0.1-3.9-0.2-5.9,0.1
		c-1.5-1.7-5.8-3.4-7.6-3.8c-0.4-0.1-1.4-0.1-3.1-0.2c-2.8-0.2-8-0.5-9.1-1.1c-1.6-0.9-3.6-2.8-3.9-4.1c-0.1-0.7-0.4-1.6-0.6-2.5
		c-0.5-1.9-1.2-4.2-0.9-5.4c0.5-2.3,2.2-5.7,3.8-8.7c0.8-1.5,1.5-2.8,2-4C22.6,300.1,26.4,294.5,29.7,289.7z M49.8,275.5
		c2-4.5,13.4-9.6,23.9-10.7c1.3-0.1,2.5-0.3,3.6-0.4c4.4-0.5,7.6-0.9,12.6-0.8c0.7,0,1.3,0,1.9,0c4.6,0,6.8,0,11,2.3
		c0.6,0.3,1.3,0.7,2,1.2c2.3,1.5-1.5,12.7-8.6,25.4c-0.2,0.3-0.3,0.6-0.5,0.8c-1.4,2.1-3.5,5-5.8,7.9c-2.1,2.5-4.5,5-7.1,7.3
		c1-9.5-2.2-11.9-4.4-13.6c-0.5-0.4-0.9-0.7-1.2-1c-1-1.1-1.4-2.3-1.7-3.4c-0.5-1.6-1-3.3-3.1-4.5c-0.5-0.3-1-0.5-1.6-0.7l-0.5-0.2
		l-0.4,0.3c-3.6,2.6-7.1,4.7-11,2.6c-1-0.6-2.1-1.5-3.1-2.6c-0.9-1-1.8-1.9-2.6-2.7C50.1,279.9,48.6,278.2,49.8,275.5z M156.6,322.6
		c-0.1-1.3-0.5-2.7-2.3-3.2c-0.8-0.2-1.5-0.1-2,0.4c-0.3,0.3-0.5,0.6-0.6,1c-0.5-0.6-1.1-1-1.7-1.3c1.2-0.2,2.5-0.3,3.7-0.4
		c1.8-0.2,3.5-0.4,5.1-0.6C158.2,319.9,157.4,321.3,156.6,322.6z M146.5,321c-0.2-0.3-0.5-0.6-0.9-0.8c0.5-0.1,1.1-0.2,1.7-0.3
		c-0.1,0.1-0.2,0.1-0.2,0.2C146.8,320.4,146.7,320.7,146.5,321z M141.9,322.5c-0.2-0.5-0.5-1-0.8-1.4c0.6-0.1,1.1-0.2,1.7-0.3
		C142.4,321.2,142.1,321.8,141.9,322.5z M136.3,321.5c-0.3,0.7-0.4,1.4-0.5,2.2c-0.1-0.1-0.3-0.3-0.5-0.4c-0.8-0.6-1.6-0.6-2.1-0.5
		L133,323c-0.3,0.2-0.5,0.4-0.7,0.8c-0.1-0.1-0.2-0.3-0.3-0.4c-0.1-0.2-0.2-0.4-0.4-0.6c-0.1-0.2-0.2-0.4-0.4-0.6
		c0.8-0.2,1.6-0.3,2.5-0.4C134.6,321.7,135.4,321.6,136.3,321.5z M126.7,323.2c-0.2,0.3-0.3,0.7-0.4,1.1c-0.1,0.4-0.2,0.9-0.3,1.4
		c-0.5-0.5-1.2-0.9-2.2-0.8l-0.2,0l-0.2,0.1c-2.4,1.3-3.3,2.6-3,4.5c-0.5-0.3-1.1-0.5-1.6-0.5c0.6-0.3,1.2-0.7,1.4-1.5
		c0.3-0.9,0.1-2.4,0-2.9c0.6-0.1,1.2-0.2,1.8-0.3c1.2-0.2,2.4-0.5,3.7-0.7C126,323.4,126.3,323.3,126.7,323.2z M118.2,324.9
		c0.1,0.8,0.1,1.6,0,1.9c-0.2,0.5-0.8,0.6-1.9,0.6c-0.3,0-0.5-0.2-0.9-1c-0.1-0.2-0.3-0.5-0.4-0.7
		C116,325.4,117.1,325.2,118.2,324.9z M111.9,326.5c0.1,0,0.1,0,0.2-0.1c-0.4,1.2-0.8,2.4-1.4,2.4c-0.2-0.1-0.5-0.6-0.7-0.9
		c-0.2-0.2-0.3-0.5-0.5-0.7c0.7-0.2,1.4-0.4,2.2-0.6L111.9,326.5z M106.4,328c0,0.1,0,0.3,0,0.4c0,1.3-0.1,1.4-0.9,1.5
		c-0.6,0.1-2-0.3-2.6-0.9c0,0-0.1-0.1-0.1-0.1C104,328.7,105.2,328.4,106.4,328z M100.2,329.4c-0.4,0.8-1.1,1.6-1.8,1.7
		c-0.4,0.1-1.1-0.5-1.6-1.2c0.9-0.1,1.7-0.2,2.5-0.3C99.7,329.5,99.9,329.4,100.2,329.4z M100.6,338.4c-0.1,0-0.1,0-0.2,0.1
		c-0.1-0.3-0.2-0.6-0.3-0.9c-0.1-0.3-0.3-0.7-0.3-0.9c0.1-0.5,0.8-1.2,1.4-1.5c1.8-0.9,2.7-0.3,4.6,1.5c-1,0.3-2,0.7-3.1,1.1
		C102,337.9,101.3,338.1,100.6,338.4z M108.2,335.9c0.1-0.2,0.2-0.5,0.3-0.7c0.3-0.8,0.6-1.5,1-1.7c0.2,0,0.6,0.2,1.9,1.5
		c-0.9,0.3-1.8,0.6-2.3,0.8C108.9,335.8,108.5,335.9,108.2,335.9z M113.9,334.2c0-0.3,0-0.5,0.1-0.8c0-1.2,0.2-1.4,0.5-1.5
		c0.4,0,1.2,0.4,1.4,1.1l0.2,0.6c-0.1,0-0.2,0.1-0.3,0.1C115.4,333.8,114.9,333.9,113.9,334.2z M117.7,333c0.2-0.3,0.3-0.7,0.4-1
		c0.1-0.3,0.3-0.8,0.4-1c0.3,0.1,1.1,0.5,1.5,0.7c0.2,0.1,0.4,0.2,0.6,0.3C119.7,332.4,118.7,332.7,117.7,333z M123,331.2l-0.1-0.3
		c-1.1-2.4-0.8-3,1.1-4c0.6,0.1,0.9,0.6,1.5,1.9c0.2,0.4,0.4,0.8,0.7,1.3C125.1,330.5,124,330.8,123,331.2z M128.2,329.5
		c-0.4-1-0.5-3,0-4.6c0.2-0.5,0.6-1.4,1.2-1.6c0.1,0,0.1,0,0.1,0c0.1,0.1,0.3,0.4,0.4,0.6c0.2,0.3,0.3,0.6,0.6,0.9
		c1,1.2,1.1,2.1,1.4,3.5c0,0.1,0,0.2,0.1,0.3C130.6,328.8,129.4,329.2,128.2,329.5z M133.9,328.1c-0.2-1.6-0.1-2.8,0-3.2
		c0.1,0,0.2,0.1,0.3,0.1c0.7,0.5,1.4,1.8,1.6,2.8C135.1,327.9,134.5,328,133.9,328.1z M137.7,327.5
		C137.7,327.5,137.7,327.5,137.7,327.5c-0.3-2,0.1-5.5,0.8-5.7c0.3-0.1,0.4-0.1,0.5,0c0,0,0,0,0,0c0.8,0.4,1.4,2.6,1.7,3.7
		c0.1,0.4,0.2,0.7,0.3,0.9l0.2,0.5C139.9,327.1,138.8,327.3,137.7,327.5z M142.8,326.6L142.8,326.6c0.3-0.6,0.4-1.3,0.6-2.1
		c0.2-1.1,0.5-2.5,1.2-2.6c0.4-0.1,0.9,1.3,1.1,2.1c0.2,0.7,0.4,1.4,0.8,1.8C145.2,326.1,144,326.4,142.8,326.6z M148.5,325.3
		c0-0.5,0-1-0.1-1.6c-0.1-0.7-0.2-1.9,0.1-2.2c0.1-0.1,0.3-0.1,0.6-0.1c0.7,0.1,1.6,1.3,2.4,3.1
		C150.5,324.8,149.5,325.1,148.5,325.3z M153.4,323.9c-0.2-1.5,0-2.5,0.1-2.7c0,0,0,0,0.1,0c0.7,0.2,0.8,0.6,0.9,2.1c0,0,0,0,0,0.1
		C154.3,323.6,153.9,323.8,153.4,323.9z M6.2,319.6c3-11,11.7-23,18.8-29.1c1-0.8,2.1-1.5,3.2-2.2c0,0.1-0.1,0.1-0.1,0.2
		c-3.4,4.9-7.2,10.5-9.3,15.3c-0.5,1.1-1.2,2.5-1.9,3.9c-1.6,3.1-3.4,6.6-4,9.2c-0.4,1.7,0.3,4.2,1,6.4c0.2,0.9,0.5,1.7,0.6,2.3
		c0.5,2.3,3.2,4.5,4.8,5.4c0,0,0,0,0.1,0c1.4,0.7,5.3,1,10,1.3c1.3,0.1,2.5,0.2,2.9,0.2c1.4,0.3,4,1.4,5.5,2.4
		c-0.4,0.1-0.8,0.2-1.2,0.4c-1.6,0.5-2.7,1.2-3.4,2c-0.1,0.1-0.2,0.2-0.3,0.2c-1.1,0.8-1.7,1.3-2.2,1.9c-0.9,1-1.1,1.3-1.5,2
		c-0.1,0.2-0.3,0.5-0.5,0.9c-0.5,0.8-0.8,2-0.9,3.1l-1.3,0.9c-3.7,2.6-5.3,8.7-5.8,13.7C10.2,348.3,1.9,335.4,6.2,319.6z
		 M89.2,375.8c-6-0.2-10.9-0.6-16.6-1c-6.7-0.5-12.6-1.8-19.7-4.5c-2-0.7-3.9-1.6-5.8-2.7c-8.7-4.8-14.9-12-17-19.8l-0.6-2.2
		c0.1-0.9,0.3-1.7,0.6-2.2c0.2-0.4,0.4-0.7,0.5-0.9c0.4-0.6,0.5-0.9,1.3-1.7c0.1-0.1,0.2-0.2,0.3-0.3c0.5,1.6,2.5,4.4,9.2,8.1
		c2.4,1.4,5.5,2.8,9.4,4.5c3,1.3,6.6,2.1,10.7,2.4c3.4,0.3,5.7,0.3,9.8-0.4c5.5-1.1,11.4-4.5,16.6-7.7c1,3.4-0.9,6.7-2.8,10
		c-1.1,1.9-2.2,3.7-2.7,5.6l0,0.1c-0.2,1.1,0.6,2.1,2.1,2.9c2,1.1,5.4,2,9.2,3.1c1.7,0.5,3.5,1,5.1,1.5c-1.2,0.7-2.4,1.4-3.6,2.1
		C93,373.9,90.1,375.7,89.2,375.8z M156.4,352.3c-2.7,0.7-6,1.6-11.4,2.8c-6.4,1.5-12.4,3.4-18.2,5.3c-5.3,1.7-10.7,3.5-16.4,4.9
		c-3.1,0.7-6.2,2.2-9.3,3.8c-2-0.7-4.5-1.4-6.9-2.1c-3.3-0.9-9.5-2.6-9.8-3.7c0.4-1.6,1.4-3.2,2.5-5c2.1-3.6,4.5-7.6,2.8-12.1
		c0.6-0.4,1.2-0.7,1.7-1.1l1.1-0.7c3-1.9,5.3-3,8.6-4.2c0.7-0.2,1.4-0.5,2.1-0.8c2.4-0.8,4.6-1.6,6-1.7l0.2,0c0.6-0.2,1.8-0.6,3-1
		c1.3-0.4,3-1,3.3-1.1l0.3,0c2.1-0.6,4-1.3,6-2c4.3-1.5,8.7-3.1,14.4-3.9c4.6-0.7,12.3-2,17.9-4c0,0,0,0-0.1,0.1
		c-0.3,0.4-0.6,0.8-0.9,1.1c-5.3,7.2-10.3,10.4-17.8,13.7l0.8,1.8c7.6-3.4,13-6.8,18.6-14.3c0.3-0.4,0.5-0.7,0.8-1.1
		c2.4-3.1,5.3-7.1,5.1-11.1c-0.2-3.1-2-5-3.7-6.6c-0.9-0.9-1.8-1.8-2.3-2.8c-0.2-0.3-0.4-0.6-0.6-0.9c-0.6-1-0.9-1.4-0.4-2.7
		c0.5-1.3,0.9-1.4,1.6-1.5c0.6-0.1,1.5-0.2,2.5-1c1.1-1,1.8-1.9,2.5-2.8c1-1.3,1.7-2.2,3-2.4c0.4,0.1,0.8,0.2,1.3,0.4
		c0.8,0.3,1.9,0.8,3.7,1.1c1.1,0.2,2.1,0.5,3.1,1.1c2.4,1.3,4.4,3.6,6.3,6.1c0.2,0.6,0.3,1.3,0,2l-0.4,1.1
		c-1.4,3.8-3.6,9.5-3.6,12.7c0,3.1,1.9,8.6,3.9,11.2c1.3,1.7,2.4,3.3,3.4,4.8c1.2,1.7,2.2,3.2,3.5,4.7c-2.5,0.9-4.9,3.6-5.4,4.2
		c-0.8,0.9-4.6,3.9-5.2,4.2l0,0C164.5,350.3,161.7,351,156.4,352.3z M178.7,347.9c1-0.8,1.9-1.7,2.3-2.1c1.7-1.9,4.1-3.9,5.5-3.8
		c1,1,2.1,2,3.4,2.9C185.8,346.1,181.7,347.2,178.7,347.9z M208.6,339.9c-2.9,0.6-8.6,2.2-14.6,3.9c-0.5,0.1-1,0.3-1.5,0.4
		c-4.6-2.9-6.6-5.8-9.4-9.7c-1-1.4-2.1-3.1-3.5-4.8c-1.8-2.3-3.5-7.3-3.5-10c0-2.8,2.2-8.6,3.5-12l0.4-1.1c0.3,0.4,0.6,0.9,0.9,1.3
		c2.5,3.7,4.9,7.2,7.8,8.8l0.5,0.3c0.6,0.4,1.3,0.8,2.1,1.2c5.4,3,12.2,6.2,17.1,4.9c0.2,1.3,0.5,2.5,1,3.8c0.5,1.3,1.4,2.6,2.1,3.8
		l0.3,0.4c0.9,1.4,2.4,2.5,3.3,3c0.3,0.2,0.5,0.3,0.8,0.5c1.2,0.7,2.5,1.5,3.3,2.5c-0.4,0.1-0.8,0.2-1.2,0.4
		C215.7,338.2,212.8,339,208.6,339.9z M229.8,331l-0.1,0.2c-2.3,4-4.5,4.5-6.8,4.9c-0.6,0.1-1.2,0.2-1.6,0.4c0,0,0,0,0,0
		c-1-1.6-2.7-2.7-4.4-3.6c-0.3-0.2-0.5-0.3-0.8-0.5c-1.2-0.7-2.1-1.6-2.6-2.4l-0.3-0.5c-0.6-0.9-1.2-2-1.7-2.9
		c0.7,0.5,1.5,0.9,2.1,1.3c0.6,0.3,1.1,0.6,1.4,0.7c1.8,0.7,4.9,0.7,7-0.6c0.3-0.2,0.5-0.3,0.8-0.4c0.3-0.1,0.5-0.2,0.9-0.5
		c0.8-0.4,2.4-1,3.3-1.1c0.1,0,0.3,0,0.4,0c1.1,0.4,2,0.7,2.7,1.1c0.9,0.5,1.1,0.8,1.1,0.9C231.3,328.3,231.2,328.9,229.8,331z
		 M225.2,324.5c-0.9,0.3-1.9,0.7-2.5,1c-0.3,0.2-0.5,0.2-0.7,0.3c-0.3,0.1-0.6,0.2-1.1,0.5c-1.5,0.9-3.9,0.9-5.3,0.4
		c-1.2-0.5-4.5-2.6-5.3-3.4l0,0c-0.3-2.1-0.1-4.2,0.8-6c0.8-1.6,1.9-3.2,3-4.8c1.1-1.6,2.3-3.2,3.1-4.9c1.2-2.3,1.8-5.7,2.3-8.9
		c0.3-1.2,0.4-3,0.5-4.6c0.1-0.7,0.1-1.3,0.2-1.9c0.1-0.6,0.2-1.1,0.3-1.7c0.2-1.1,0.5-2.2,0.3-3.6c-0.1-1.1-0.8-8-1-9.1l-0.1-0.3
		c0,0,0-0.1,0-0.1c1,0.4,2.3,0.3,3.8-0.1l0.8-0.2c2.5-0.8,5.5-1.7,7.6-3.2c2.6,1,5.5,2.4,8.1,4.6l-0.5,0.5
		c-2.5,2.6-5.7,9.2-9.8,20.3c-0.5,1.3-1,2.6-1.6,3.9c-1.5,3.6-3.1,7.3-3.6,11.5C224.1,320.3,224.4,323,225.2,324.5z M225.7,269.3
		c0.3,1.4,1.4,2.5,3.3,3.4l0.2,0.1c0.2,0,0.5,0.1,0.8,0.2c-1.8,1-4.2,1.7-6.2,2.3l-0.8,0.2c-1.2,0.4-2.1,0.4-2.7,0.1
		c-0.9-0.5-1.3-2-1.8-3.7c-0.3-0.9-0.6-2-1-3.1c-3.4-8.5-1.6-10.5,3.8-16.3l0.3-0.4c4.1-4.4,6.3-5.3,6.8-5.1c0.1,0,0.2,0.1,0.3,0.2
		c2.3,1.3,3.7,4.2,3.6,7.5c0,2-1.7,4.4-3.4,6.7C227,264.2,225.2,266.8,225.7,269.3z M346.3,218.1c-3.5,2.8-7.8,9.8-9.2,12.1
		l-0.2,0.3c-1.1,1.7-1.9,3.4-2.7,5.1c-1.3,2.8-2.6,5.4-4.8,7.5c-2.7,2.6-4.7,2.9-7,3.2c-3.3,0.5-7,1.1-11.2,7.7
		c-0.9,1.4-1.6,2.8-2.3,4.2c-1.9,3.8-3.2,6.2-5.8,6.6c-5.8,0.9-11.5,3.9-14.5,7.8c-0.4,0.5-0.8,1.1-1.2,1.6
		c-2.2,2.9-4.3,5.7-7.3,6.9c-0.4,0.2-0.8,0.1-1.6-0.1c-1-0.2-2.3-0.5-3.8,0.1c-2.5,0.9-3.3,3.6-3.8,5.5c-0.2,0.7-0.5,1.9-0.8,2.2
		c-2.4,2.3-4.9,2.2-9.4,1.8c-1.6-0.1-3.2-0.3-5-0.3c-2.6,0-4.6-0.3-5.8-1c-1.3-0.7-1.8-1.8-2.5-3.8c-0.7-1.9-1.6-4.3-4-6.2l0.1-0.1
		c-3.2-3.8-7.6-5.8-11.1-7.1c-0.2-0.2-0.4-0.3-0.6-0.5c-0.6-0.4-1.5-0.7-2.1-0.8c-1.2-0.6-1.9-1.2-2-2c-0.4-1.6,1.3-3.9,2.9-6.2
		c1.8-2.5,3.7-5.2,3.8-7.8c0.1-4.2-1.9-8-5-9.5c-0.7-0.3-2.7-1.3-9.1,5.5l-0.3,0.4c-5.6,5.9-8.1,8.7-4.2,18.4c0.4,1,0.7,2,1,2.9
		c0.4,1.2,0.7,2.3,1.2,3.2c-0.2,0.8-0.1,1.6,0.1,2.3l0.1,0.3c0.2,0.9,0.9,7.7,1,8.9c0.1,1-0.1,2-0.3,3c-0.1,0.6-0.2,1.2-0.3,1.9
		c-0.1,0.5-0.1,1.2-0.2,1.9c-0.1,1.5-0.3,3.3-0.5,4.4c-0.4,2.4-1,6.1-2.1,8.3c-0.8,1.5-1.9,3.1-2.9,4.6c-0.5,0.7-1,1.5-1.5,2.2
		c-1-0.6-2.1-1-3.1-1.4c-1.1-0.4-2.1-0.8-3.1-1.4c-0.8-0.4-1.4-0.9-2.1-1.4c-1.8-1.5-2.4-2.7-3.2-4.3c-0.4-0.8-0.8-1.6-1.4-2.6
		c-1-1.6-2.5-2.9-4-4.2c-1.1-1-2.3-2-3.2-3.1c-0.6-0.8-1.1-1.5-1.5-2.1c-1.1-1.7-2-3.1-5-4.8c-0.9-0.5-1.9-1.1-2.8-1.7
		c-1.2-0.8-2.5-1.5-3.8-2.3c-3.1-1.7-7.3-3.7-11.4-3.5c-1.9,0.1-4,0.8-5.9,1.4c-3.3,1.1-6.5,2.1-9.1,0.8l-0.6-0.3l-0.2,0
		c-1.3-0.2-2.5,0-3.4,0.4c-1.7-1.3-2.1-3.7-1.4-5.4l0.4-1c0.9-2.1,1.7-4.1,2.1-6.4c0-0.2,0.2-0.6,0.3-1c0.7-2.1,1.9-6.1,0.3-8.6
		c-0.7-1.1-1.5-1.6-2.4-1.6c-1.7,0-2.8,1.9-3.7,3.4c-0.2,0.3-0.4,0.6-0.5,0.8c-0.5,0.8-1,1.5-1.6,2.3c-1.7,2.5-3.3,4.9-5.1,7.2
		c-1.6,2.1-3.1,2.3-5.3,2.4c-0.2-0.5-0.3-0.9-0.4-1.5l0-0.3c-0.2-1.8-0.5-3.5,0-5.1c0.6-2,1.1-3.5,1.8-5v0c4.9-0.6,8.4-2.8,10-6.2
		c2.4-5.3,3-5.5,6.4-6.2l1-0.2c2.9-0.7,7.8-1.8,9.4-6.1c0.3-0.7,0.4-1.4,0.5-2c0.3,0.2,0.6,0.4,0.9,0.6c1.8,1,4.1,1.5,7,1.4
		c3.5-0.1,6.6-1.5,8.8-3.9c0.6-0.6,1.1-1.3,1.5-2.1c1.2,0.6,2.2,1.6,3.1,2.7c0.9,1,1.9,2.1,3.2,2.8c0.1,0.1,0.2,0.1,0.3,0.2
		c1.8,0.9,3.3,1,4.6,1c1.4,0,2.6,0.1,4.3,1.3c2.7,1.9,8.3-0.9,17.1-5.7c0.9-0.5,1.7-0.9,2.6-1.4c1.5-0.8,2.9-1.4,4.3-2.1
		c3.1-1.4,6.1-2.8,8.8-5.5c2.3-2.2,4.1-5.2,5.8-8c1.6-2.7,3.3-5.6,5.4-7.6c0.7,0.4,1.4,0.9,2.1,1.3c0.1,0.1,0.2,0.1,0.3,0.2
		c2.5,1.4,7.9,3,10.2,3.5c4.8,1.1,13.9,2.2,15.8,2.2c0.1,0,5.7,0.1,7.4-0.6c0.4-0.2,2.6-0.5,4.3-0.8c2.9-0.5,6.3-1,7.8-1.6
		c0.2-0.1,0.5-0.2,0.8-0.3c2.2-0.8,6-2.2,10.2-5.4c0.9-0.7,3.3-2.2,5.9-3.9c3.6-2.3,7.6-4.9,9.2-6.1c3.6-2.9,7.1-6.2,9.6-8.6
		c1.2-1.2,2.3-2.2,3-2.8c2.3-2,11.2-12,12.6-13.6c1.5-1.7,2.8-3.5,4.1-5.2c1.2-1.6,2.5-3.3,3.8-4.8c3.6-4.2,5.8-7.5,8.3-11.2
		l0.5-0.7c9.6-16.2,14.7-21,16-22.1c0.1-0.1,0.2-0.2,0.3-0.4l-1.8-1c0.1-0.1,0.2-0.2,0.2-0.2s0,0,0,0c-1.8,1.5-6.9,6.6-16.4,22.6
		l-0.5,0.7c-2.5,3.7-4.6,6.9-8.1,11c-1.4,1.6-2.7,3.3-3.9,4.9c-1.3,1.7-2.7,3.5-4.1,5.1c-1.8,2.1-10.3,11.6-12.4,13.4
		c-0.7,0.6-1.8,1.6-3.1,2.9c-2.5,2.4-5.9,5.6-9.5,8.4c-1.5,1.2-5.5,3.8-9,6c-2.7,1.8-5.1,3.3-6,4c-4.1,3-7.5,4.3-9.8,5.2
		c-0.3,0.1-0.6,0.2-0.9,0.3c-1.3,0.5-4.7,1.1-7.4,1.5c-2.6,0.4-4.2,0.7-4.8,0.9c-0.9,0.4-4.5,0.5-6.6,0.5c-1.5,0-8.6-0.8-13.5-1.8
		l0-0.1c0.1,0,0.2,0,0.2,0c-0.5-0.2-2.4-1.6-3.3-2.4c0.8-0.3,2.5-0.5,3.4-0.5c0.3,0,0.7,0,1.2,0c1.1,0,2.8-0.1,3.9,0.1
		c0,0,4.3,0.4,4.8-0.8l0.3-0.7l-0.6-0.5c-0.6-0.5-2.4-1-6.4-2.1c-0.9-0.3-1.7-0.5-2-0.6c-0.5-0.2-1.4-0.5-2.2-0.9
		c-1.5-0.6-3.2-1.3-4.4-1.6c-1.6-0.4-3-0.8-4.3-1.1c-1.5-0.4-3-0.8-4.8-1.2c-1.6-0.4-3,0.3-4.2,0.9c-0.9,0.5-1.8,0.9-2.6,0.8
		c-1.1-1.1-2-2.2-2.8-3.4c-1-1.5-3.1-6.4-4.3-11.9c2.6,1.3,4.7,1.7,6.6,1.1c1.1-0.3,2.6-1.2,3.7-3.3c1.8-3.6,4.7-4.2,8.4-4.9
		c3.4-0.7,7.3-1.4,10-5c8.2-10.8,9.1-11.3,18.3-15.5c1.3-0.6,2.8-1.3,4.4-2.1c5.1-2.5,8.1-6.7,11-10.7c2.1-3,4.1-5.8,6.9-8
		c9.8-7.5,15.2-16.1,18.8-21.8c1.5-2.4,2.8-4.4,3.8-5.3c8.1-7.6,10.4-13.8,12.4-19.3c0.9-2.5,1.8-4.8,3.2-7.1
		c2.3-3.8,2.8-6.4,3.4-9.4c0.3-1.3,0.5-2.7,1-4.4c0.2-0.8,0.4-1.8,0.6-2.9c0.2-1.1,0.5-2.8,0.9-3.9c2.8,2,4.5,5.1,6.2,8.2
		c0.4,0.7,0.6,1.3,0.7,1.9c0.2,0.9,0.6,2.2,1.9,2.9c1.1,0.6,2.5,0.6,4.1,0.2c1.6-0.3,3.3-1.5,5.1-2.7c1-0.6,2-1.3,2.8-1.8
		c0,0.9-0.2,2.2-0.3,3.2c-0.2,1.8-0.4,3.9-0.3,5.8c0.3,2.7,0.6,4,3.1,5.7c0.1,0.1,0.3,0.2,0.4,0.3c1.3,0.7,3.2,1.2,6,1.8
		c1.2,0.3,2.6,0.6,3.1,0.8c0.5,0.2,1,0.4,1.4,0.6c1.2,0.7,1.3,0.7,0,5.3c-0.9,3.1-2,7.3-2.7,13.5l-0.1,1.3l0.9,0.9
		c6.8,6.2,6.2,8.9,4.5,16.8c-0.3,1.3-0.6,2.8-0.9,4.4c-1,5.1-1.4,9.8-1.1,14.2c0.1,1.5,0.3,3,0.6,4.6c0.5,3.6,1.1,7.3,0.2,10.1
		c-1.5,4.8-4.5,9.6-7.4,14.2c-2.4,3.8-4.8,7.6-6.5,11.6c-1,2.3-1.5,4.4-2.1,6.5c-0.7,2.6-1.3,5-2.8,7.7
		C351.3,213.5,350,215.2,346.3,218.1z M27.9,301.3l-1.3-1.5c4.5-3.8,15.4-11.5,21.3-13.2c1.1-0.3,1.8,0,2.3,0.3
		c1.8,1.2,2.2,4.9,2.7,9.1c0.3,2.5,0.6,5.1,1.2,7.2l-1.9,0.6c-0.6-2.2-0.9-4.9-1.2-7.5c-0.4-3.2-0.8-6.9-1.8-7.6
		c-0.1-0.1-0.3-0.1-0.6,0C43.3,290,32.9,297.1,27.9,301.3z"/>
</g>
</svg>
