<svg xmlns="http://www.w3.org/2000/svg" viewBox="0 0 143.76 115.86">
	<title>Tyrannosaurus rex</title>
	<metadata>
		<phyloxml xmlns:xsi="http://www.w3.org/2001/XMLSchema-instance" xmlns="http://www.phyloxml.org" xsi:schemaLocation="http://www.phyloxml.org http://www.phyloxml.org/1.10/phyloxml.xsd">
			<phylogeny rooted="true" rerootable="false">
				<clade>
					<name>Animalia</name>
					<clade>
						<name>Chordata</name>
						<clade>
							<name>Dinosauria</name>
							<clade>
								<name>Saurischia</name>
								<clade>
									<name>Theropoda</name>
									<clade>
										<name>Tyrannosauridae</name>
										<clade>
											<name>Tyrannosaurinae</name>
											<clade>
												<name>Tyrannosaurus</name>
											</clade>
										</clade>
									</clade>
								</clade>
							</clade>
						</clade>
					</clade>
				</clade>
			</phylogeny>
		</phyloxml>
	</metadata>
	<g class="outline">
		<path d="M349.87,355.45c3.23,0,2.32,5.34,4.88,6.67a29.61,29.61,0,0,1,8.87,7.07c1,1.1,3.84,4.45,4.59,5.6,1.07,1.63,3.77,6.15,4.12,6.92.43,1,.79,1.76,1.18,2.8.58,1.59,1.07,4.39.37,6.11a5.42,5.42,0,0,1-3.21,3.05,10.15,10.15,0,0,1-2,.33,2.84,2.84,0,0,1-1.22-.25,4.5,4.5,0,0,1-1.13-.81l-.25-.13H366c-.6,0-1.2,1.66-2.47,4.87-1.19,2.72-1.82,5.52-.83,8.5.58,1.74.7,2.13,1,2.36l.09.09c1.28.88,3.09,2,2.72,4a3.81,3.81,0,0,1-3.63,2.84l-.53.19c-.46.17-1,.41-.32.52a10.18,10.18,0,0,0,1.53.11c1.86,0,4-.42,5.11-1.47h.76c1.48.78,1.69.53,2.12,2.2a11.63,11.63,0,0,0,1.26,3.48c1.46,2.39,1.87,3.38,1.29,6.12-.25,1.19-.83,1.64-1.33,2.83-.43,1-.74,1.6-1.48,1.6a2.93,2.93,0,0,1-1-.21,7.62,7.62,0,0,0-2.68-.49,8.86,8.86,0,0,0-3.4.73,21.05,21.05,0,0,0-6.74,4.43c-3,2.61-5.55,6.19-8.66,8.78s-6.16,5.23-9.7,6.88c-4.18,1.95-14.78,4.51-19.67,5.15-2.42.32-5.61.17-8,.33a85.89,85.89,0,0,0-14.58,2.52c-8.21,2.2-13.9,4.25-22,6-1.84.4-9.19,1.91-10.79,2.06-.31,0-.6,0-.9,0-3.38,0-6.08-1.87-8.82-3.82a55.67,55.67,0,0,1-7.9-7c-1.92-2-1-3.7-.1-4.26l.37-.37c.06-.44-.5-1.13-.69-2a7.23,7.23,0,0,1-.06-2.37,12.38,12.38,0,0,1,.42-2.72c.05-.13.1-.19.15-.19s.25.41.34.71.37,1.26.57,1.26c0,0,.06,0,.08-.07a8.32,8.32,0,0,1,.75-2.44c.16-.36.68-1.46,1-1.46.05,0,.09,0,.13.09.2.76-.15,2.34,0,3.12a9.08,9.08,0,0,0,.94,2.38,3.48,3.48,0,0,0,.43.75,3.63,3.63,0,0,0,.45.5.72.72,0,0,0,.41.2c.33,0,.39-.55.39-1,0-1.4,0-2.43-.06-3.79a10.2,10.2,0,0,1,.69-4.26,3.7,3.7,0,0,1,1.12-1.74l.11,0c.5,0-.11,2.16,0,3.09a19.49,19.49,0,0,0,1.18,3.5c.36.92.59,2.31.88,2.44a2,2,0,0,0,.76.14,1.83,1.83,0,0,0,.35,0c.09-1.46-.18-2.84-.11-4.29a8.61,8.61,0,0,1,.32-2.06c.13-.45.61-1.5.76-1.5s.05.05,0,.17c-.12,2.13,1.32,4.59,1.88,5.69.4.79.3,1.64,1.35,1.64a2.85,2.85,0,0,0,.65-.08c.64-.14.52-1.42.59-2,.1-.83.18-1.91.35-2.71s1.25-4.25,2.52-4.25h.1c.56,0-.62,2.32-.12,4.5.2.9.61,2.31.87,3.19.1.34.15.9.44,1.07a.77.77,0,0,0,.3,0c.26,0,.59-.05.75-.06a5.12,5.12,0,0,0,.26-1.61,14.23,14.23,0,0,1,.64-3c.12-.47,1.37-3.51,2.26-3.51a.41.41,0,0,1,.29.13c.33.33-.15,2.08-.19,2.5a11.53,11.53,0,0,0,0,2.69c.26,1.09.43,2.69,1.68,2.69,2,0,1.2-1.44,2.51-2.57a.53.53,0,0,1,.3-.13c.46,0,.12,1.61.57,1.95a.41.41,0,0,0,.21.05,3.16,3.16,0,0,0,1.55-.61,8.13,8.13,0,0,1,.12-3.63,17.58,17.58,0,0,1,.69-1.81,4,4,0,0,1,1.31-1.56.26.26,0,0,1,.16-.08c.24,0-.3,1.2-.35,1.7a14.21,14.21,0,0,0,.19,2.56c.06.55,1,2.34,1.52,2.34a.18.18,0,0,0,.16-.1,17.82,17.82,0,0,1,1-5.54c.37-.67.66-1,.81-1s.16.34,0,1.06a7.9,7.9,0,0,0,.12,2.22,4.67,4.67,0,0,0,.88,2.56c.48-.16,1.4-.66,1.87-.83A7,7,0,0,0,288,443c.64-.44.51-.7.43-1.45s-.32-1.2-.38-1.81a7.15,7.15,0,0,1,.19-2c.12-.51.24-.72.35-.72.35,0,.64,2,.84,2.4.32.69.63,1.65,1.42,1.65a1.59,1.59,0,0,0,.75-.23,1.74,1.74,0,0,0,.64-.68c.16-.47-.12-.82-.27-1.26s-.25-2.73.46-2.86h.08c.52,0-.17,1.17.62,1.87.26.23.67.69,1,.76l.22,0c.53,0,.85-.5,1.35-.84l.37-.31c1.75-1.38,6.35-5.95,7-7.87,1-2.22,8.94-6.29,10.06-6.85,2.65-1.35,10.16-5.79,11.37-6.42,6.25-3.22,9.53-3.68,12.57-4,1.47-.16,4.87-.38,7.21-.38a17.29,17.29,0,0,1,1.84.08v-.25c-2-.28-2.51-.35-4.88-.64a50.87,50.87,0,0,0-6.14-.45,24.52,24.52,0,0,0-5.26.53,26.77,26.77,0,0,0-3.47,1.45,4.09,4.09,0,0,1-1.51.28,5.36,5.36,0,0,1-2.37-.59c-2-1-4.52-4-5.77-5.64l-.15-.08c-.37-.06-3.5-.27-6.35-.76-3.06-.54-6.06-1.35-9.28-1.35l-.87.19c-1.56,1-.47,2.42-1,2.42H299c-1.29-.52-1.06-1.91-1.94-1.91a1.24,1.24,0,0,0-.39.07c-2.29.74.06,3.67-.47,3.67h0c-2.16-.29-2.42-2.81-3.78-2.81a1.62,1.62,0,0,0-.6.14c-.48,1.31.39,3.52.88,4.5s1.42,1.86.81,1.86l-.19,0c-2.17-.67-3.21-2.55-4.12-4.21a1.8,1.8,0,0,0-1.5-1.13.9.9,0,0,0-.88.55,10.6,10.6,0,0,0,.5,3.74c.44,1.28,1.62,2.82,1.17,2.82l-.13,0c-3.53-1.18-4.79-6.35-6-6.35a.63.63,0,0,0-.48.29,16,16,0,0,0-.07,4.93c.2,1.11,1.38,3.87.81,3.87a.27.27,0,0,1-.14,0c-.92-.45-2.38-2.65-3.25-4.45-.47-1-1.06-4.49-2.8-4.49a1.62,1.62,0,0,0-.74.2c-.49,1.52,1.09,5.3.67,5.3h0c-3.79-2.67-2.37-5.3-4.25-5.38h-.1c-2.77,0-.06,4.84-.53,4.84h0c-3.36-1.47-3.42-5-4.87-5a1.32,1.32,0,0,0-.63.18c-.79.42-.55,1.71-.46,3.42s1.35,5.09,1.22,5.52a.47.47,0,0,1-.41.24c-1.08,0-3.13-3.45-3.61-4.55-.83-1.95-1.44-5.44-2.87-5.44l-.21,0c-1.12,3.84.46,6.5.92,9.63a.13.13,0,0,1-.14.12c-.87,0-5.46-4.8-5.61-10.91a2.36,2.36,0,0,0-.8-.15c-2.93,0,.39,7.91,0,7.91l-.05,0c-4.76-3.47-4.56-9.42-5-9.42,0,0-.05,0-.08.05-2.46,2.91.65,9.38,0,9.38h0c-2.13-.56-4.31-4.43-4.5-5.68L244,408c-.52.23.13,2.48-.35,2.48a.26.26,0,0,1-.15-.05,22.73,22.73,0,0,1-1.62-1.93h0c-.29,0-.35.35-.56.38h-.06c-.36,0-.62-.45-.81-.76s-.36-1-.77-1.3a.52.52,0,0,0-.36-.14h-.22c-.13,0-.25,0-.4-.25a5.22,5.22,0,0,0-.52-.85c-.18-.15-.42,0-.61-.15a12.64,12.64,0,0,1-1.37-4.88l.06-.06a1.21,1.21,0,0,0-.35-.1h0s0,0-.3-.24c-1-.84-1.15-3.75-.93-5,.9-5.37,0-7.72,1.56-10.87a9.91,9.91,0,0,1,3.5-4.16c1.87-1.39,3.9-1.78,6.28-2.76a53.12,53.12,0,0,1,5.88-2.05c.78-.22,4.15-.74,4.81-1.19a3.09,3.09,0,0,1,1.82-.67l.59,0a1.45,1.45,0,0,0,.65-.13c1.15-.51.72-1,2.66-1.37a26,26,0,0,0,2.71-.19,6.53,6.53,0,0,0,1.76-.7c1.3-.91,2.95-.55,4.62-.72,1.14-.11,2.19-.23,3.25-.23a12.17,12.17,0,0,1,2.42.24,5.25,5.25,0,0,0,1,.12c1.42,0,1.47-1,3.35-1.65a5.35,5.35,0,0,1,1.83-.3c.82,0,1.59.13,2.36.13a4.45,4.45,0,0,0,1.19-.14c.94-.25,2.76-1.09,3.75-1.22h.2c.49,0,1.14.18,1.61.23l.33,0a8.88,8.88,0,0,0,4.14-1.21c1.91-1.71,2.57-.53,5.84-1.65s7.28-2.44,12.41-4.44c1.47-.58,4.27-1.71,5.76-2.15a5.52,5.52,0,0,1,1.66-.26,13.12,13.12,0,0,1,2.2.28,29.81,29.81,0,0,0,5.22-1.34,13.66,13.66,0,0,1,3.89-.49,25,25,0,0,1,8.42,1.49,6,6,0,0,0,1.85.64,2.74,2.74,0,0,0,1.43-.59c1.42-.93,1.95-2,3.71-2.3a3.5,3.5,0,0,1,.54-.05m0-2a5,5,0,0,0-.85.07,6.56,6.56,0,0,0-3.52,1.83,10.34,10.34,0,0,1-1,.78l-.37.22-.35-.15-.73-.31a27,27,0,0,0-9.16-1.63,15.57,15.57,0,0,0-4.48.58l-.81.25a24.62,24.62,0,0,1-3.77,1,12.81,12.81,0,0,0-2.25-.26,7.6,7.6,0,0,0-2.23.34c-1.33.4-3.51,1.26-5.11,1.89l-.81.32c-4.35,1.69-7.8,2.86-10.84,3.9l-1.49.5a8.27,8.27,0,0,1-2.56.48,5.64,5.64,0,0,0-3.91,1.53,8.06,8.06,0,0,1-2.86.75h-.12a4.46,4.46,0,0,1-.46-.08,8.05,8.05,0,0,0-1.36-.16,3.19,3.19,0,0,0-.45,0,13.21,13.21,0,0,0-2.79.84c-.47.17-.95.35-1.23.43a2.6,2.6,0,0,1-.67.07c-.29,0-.62,0-1-.06s-.89-.07-1.39-.07a7.4,7.4,0,0,0-2.52.42,8.25,8.25,0,0,0-2.27,1.29,3.29,3.29,0,0,1-.32.24h-.07a4,4,0,0,1-.62-.08,13.46,13.46,0,0,0-2.81-.28,29.15,29.15,0,0,0-3.09.21l-.35,0c-.4,0-.82.05-1.27.05a7.13,7.13,0,0,0-4.31,1,1.56,1.56,0,0,1-.52.2c-.2.06-.45.13-.73.23a8.64,8.64,0,0,1-.92,0,7.57,7.57,0,0,0-1.55.1,4.94,4.94,0,0,0-2.76,1.29,1.66,1.66,0,0,1-.22.17h-.1l-.42,0a5,5,0,0,0-2.87,1,26.36,26.36,0,0,1-2.83.65c-.74.14-1.17.23-1.47.31a57.58,57.58,0,0,0-6.1,2.13c-.68.28-1.35.52-2,.75a16.42,16.42,0,0,0-4.72,2.26,11.94,11.94,0,0,0-4.09,4.86,13.9,13.9,0,0,0-1.28,6.35,37.7,37.7,0,0,1-.47,5.09s-.71,5,1.63,6.9c.28,1.69,1,4.57,2.07,5.36a1.94,1.94,0,0,0,.52.29c0,.09.1.18.16.27a2.52,2.52,0,0,0,1.38,1,5,5,0,0,0,.31.6l0,.06a3,3,0,0,0,2.42,1.62,4.63,4.63,0,0,0,1.31,1.3,2.3,2.3,0,0,0,1.13.3l.34,0c1.09,1.61,2.6,3.16,4.25,3.6l.25.06h.29a2.06,2.06,0,0,0,1.64-.8,2.1,2.1,0,0,0,.44-1.17,12.37,12.37,0,0,0,1.77,1.57,2.13,2.13,0,0,0,1.23.41h1l.62-.81.1-.12c1.56,2.44,3.44,4.08,4.75,4.08a2.13,2.13,0,0,0,2.12-1.84l0-.28,0-.29c0-.1,0-.19-.05-.29,1,1.46,2.38,2.92,3.84,2.92a2.47,2.47,0,0,0,2.09-1.15l.15-.24.09-.27c.22-.75,0-1.41-.42-3-.18-.66-.41-1.47-.56-2.16a8,8,0,0,0,3,2.28l.09,0,.08,0,.31.1h.36a2.07,2.07,0,0,0,1.66-.84,1.91,1.91,0,0,0,.28-.55,10.58,10.58,0,0,0,1.79,1.56l.12.09.14.07a2.09,2.09,0,0,0,.94.22h1l.65-.79.09-.12c.77,1.37,2.12,3.45,3.5,4.14a2.27,2.27,0,0,0,1,.25,2.1,2.1,0,0,0,1.72-.87c.77-1.06.39-2.25-.18-4.06-.08-.24-.17-.51-.24-.75a8.25,8.25,0,0,0,3.8,2.83,2.25,2.25,0,0,0,.76.13,2.07,2.07,0,0,0,1.8-1,2.21,2.21,0,0,0,.07-2.1,7,7,0,0,0,2.37,1.26l.12,0,.13,0a3.38,3.38,0,0,0,.53.05,2.15,2.15,0,0,0,1.95-1.14,2.61,2.61,0,0,0-.45-2.79,3.73,3.73,0,0,0,.86.21l.14,0h.22a2.08,2.08,0,0,0,1.73-.91,2,2,0,0,0,.35-1.06l.16.07.19,0a2.25,2.25,0,0,0,.44,0,2.17,2.17,0,0,0,1.61-.71,2.37,2.37,0,0,0,.51-1.9,35.48,35.48,0,0,1,6.29.87c.79.15,1.57.31,2.36.45,2.2.38,4.56.6,5.73.7,1.19,1.51,3.67,4.41,6,5.59a7.74,7.74,0,0,0,1.64.61c-.62.34-1.7,1-3.34,1.91-2.72,1.56-6.09,3.5-7.67,4.3-4.39,2.23-9.86,5.4-11,7.81l0,.1,0,.1c-.38,1.17-4.25,5.3-6.31,6.93l0,0h0l-.06.06a2.24,2.24,0,0,0-.62-1.37,2.19,2.19,0,0,0-1.58-.66,3.42,3.42,0,0,0-.44,0,2.44,2.44,0,0,0-1.68,1.22,3.1,3.1,0,0,0-.21.45,2,2,0,0,0-1.59-.72c-.81,0-1.86.4-2.3,2.27a9,9,0,0,0-.23,2.63,7.53,7.53,0,0,0,.25,1.24c0,.15.08.3.1.42-.24.12-.51.21-.77.31l-.09,0v-.09c0-.14,0-.31-.06-.5a7,7,0,0,1-.1-1.06,3,3,0,0,0-.28-2.7,2.09,2.09,0,0,0-1.65-.81,2.32,2.32,0,0,0-1.72.82l-.53-.72-1,0a2.18,2.18,0,0,0-1.39.5,6.17,6.17,0,0,0-1.9,2.31,19.64,19.64,0,0,0-.79,2.06,8.27,8.27,0,0,0-.18.84,2.24,2.24,0,0,0-.35,0,2.41,2.41,0,0,0-1.53.56l0,0,0,0a4.12,4.12,0,0,0-.91,1.06l0-.13a10.18,10.18,0,0,1,0-2c0-.06,0-.18.07-.33.26-1.31.55-2.79-.46-3.79a2.4,2.4,0,0,0-1.7-.71c-1.62,0-2.77,1.68-3.46,3.1,0-.07,0-.14.05-.21a3,3,0,0,0-.34-2.73,2.1,2.1,0,0,0-1.47-.77h-.28c-3.17,0-4.36,5.25-4.48,5.84-.05.26-.1.53-.14.81a6.53,6.53,0,0,1-.72-2.78,2.15,2.15,0,0,0-.56-1.65l-.59-.63h-.89a2.29,2.29,0,0,0-2,1.25,2.58,2.58,0,0,0-.59-1.82,2.15,2.15,0,0,0-1.61-.72,2.32,2.32,0,0,0-.93.2l-.12.05-.1.07a5.08,5.08,0,0,0-1.85,2.5l-.06.15a8.15,8.15,0,0,0-.4,1.12,2.12,2.12,0,0,0-1.15-.34c-1,0-1.83.64-2.53,2h-.21a2.15,2.15,0,0,0-2,1.52A12.24,12.24,0,0,0,244,447c0,.13,0,.25,0,.35a9.23,9.23,0,0,0,.1,3,6.74,6.74,0,0,0,.31,1,4.25,4.25,0,0,0-1,2.26,5.17,5.17,0,0,0,1.65,4.33,57.17,57.17,0,0,0,8.19,7.23c2.76,2,5.89,4.19,10,4.19a9.94,9.94,0,0,0,1.09-.05c1.89-.18,10-1.88,11-2.1,5.18-1.12,9.37-2.36,13.8-3.66,2.6-.77,5.3-1.56,8.33-2.37a81.7,81.7,0,0,1,14.2-2.46c.9-.07,1.95-.08,3.07-.1a42.72,42.72,0,0,0,5-.25c4.84-.63,15.72-3.21,20.26-5.32,3.58-1.67,6.66-4.25,9.64-6.74l.5-.41a49.72,49.72,0,0,0,4.8-4.83,49.23,49.23,0,0,1,3.89-4A19.38,19.38,0,0,1,365,433a7.11,7.11,0,0,1,2.65-.58,5.78,5.78,0,0,1,2,.37,4.87,4.87,0,0,0,1.64.33c2.16,0,2.92-1.84,3.33-2.83a6.83,6.83,0,0,1,.49-.93,7.15,7.15,0,0,0,.95-2.26c.71-3.4.08-4.92-1.54-7.57a9.71,9.71,0,0,1-1-2.74l0-.19a3.83,3.83,0,0,0-2.47-3.16l-.64-.32-.46-.25-.52,0h-.88c.46-3.08-2-4.81-3.39-5.75-.1-.26-.27-.77-.47-1.35l-.07-.22c-.7-2.1-.46-4.28.76-7.07l0,0v0l.27-.67c.3-.78.62-1.58.88-2.21l.11.06a5,5,0,0,0,2,.42,8.88,8.88,0,0,0,2-.29l.38-.09a7.31,7.31,0,0,0,4.64-4.24c1-2.49.26-5.93-.35-7.57-.33-.88-.64-1.59-1-2.33l-.25-.57c-.44-1-3.31-5.74-4.27-7.21s-4-4.95-4.77-5.84a31.43,31.43,0,0,0-9.45-7.51c-.41-.22-.77-1.32-1.05-2.2-.56-1.76-1.51-4.7-4.75-4.7Z" transform="translate(-232.58 -353.45)"/></g><g class="skull"><path d="M301.8,396h-.1c-.77,0-1.58-.06-2.43-.11a40.71,40.71,0,0,0-4.58-.1,18.34,18.34,0,0,1-3.87-.35l-.4-.07a20.17,20.17,0,0,1-6.5-3.83c-1.8-2-1.14-5.41-.75-7.46l.05-.22c.3-1.6,2.35-3.55,3.7-4.84l.36-.34a22.07,22.07,0,0,1,8.18-5.07,55.71,55.71,0,0,1,7.56-2.18,14.18,14.18,0,0,0,3.53-1.08h0a7.38,7.38,0,0,1,4.9-.88c1.95.85,1.09,3.61.52,5.44-.11.35-.21.67-.28.93l0,.15c-.72,2.82-1.61,6.32.19,8.57,1.66,2.07.67,5.22-2.63,8.42A12.62,12.62,0,0,1,301.8,396ZM296,394.72c1.16,0,2.28.07,3.38.13.83,0,1.63.1,2.39.11a11.74,11.74,0,0,0,6.81-2.73c1.08-1.06,4.47-4.67,2.54-7.08-2.11-2.64-1.15-6.42-.38-9.45l0-.15c.07-.27.18-.61.29-1,.47-1.49,1.16-3.73.12-4.2a7.06,7.06,0,0,0-.77-.05,7,7,0,0,0-3.33.87h0a14.79,14.79,0,0,1-3.8,1.17,57.34,57.34,0,0,0-7.44,2.15,21.09,21.09,0,0,0-7.82,4.85l-.36.35c-1.18,1.12-3.16,3-3.41,4.3l0,.22c-.36,1.87-1,5,.5,6.6a20,20,0,0,0,5.92,3.51l.4.07a17.44,17.44,0,0,0,3.66.34Z" transform="translate(-232.58 -353.45)"/><path d="M263.22,467.81c-3.64,0-6.54-2.07-9.13-3.91a57.5,57.5,0,0,1-8-7,3.58,3.58,0,0,1-1.28-3.16c.43-2,3.23-3.1,5.49-4l.92-.38a24.09,24.09,0,0,1,11-2.23,62.79,62.79,0,0,0,13.55-.84L277,446a73.93,73.93,0,0,0,8.45-2.14,54.47,54.47,0,0,0,5.16-2.77,88.16,88.16,0,0,0,7.26-5.59l.22-.23c1.07-1.12,3.91-4.08,4.47-5.76,1.05-2.32,8.15-6.06,10.3-7.15,1.61-.82,5-2.77,7.74-4.34,1.76-1,3.15-1.82,3.64-2.07,6.11-3.16,9.38-3.71,12.73-4.06a65.76,65.76,0,0,1,9.28-.13l1.37.16a18.73,18.73,0,0,1,5.86,1.32,6.94,6.94,0,0,1,1.41.91,3.22,3.22,0,0,0,2.15,1,10.19,10.19,0,0,1,2.94.13l.49.14a16.1,16.1,0,0,0,1.61.36c2.07.32,5-.06,6.22-1.21l.14-.14,1.09,0,.12.06c.27.15.5.26.7.35,1,.46,1.28.66,1.66,2.18l.05.19a10.85,10.85,0,0,0,1.16,3.15c1.49,2.45,2,3.57,1.35,6.48a5.61,5.61,0,0,1-.77,1.81,8.23,8.23,0,0,0-.59,1.12c-.58,1.41-1.15,2.36-3.07,1.66a7.51,7.51,0,0,0-5.72.23,20.45,20.45,0,0,0-6.6,4.35,52,52,0,0,0-4,4.1,46.8,46.8,0,0,1-4.66,4.68l-.49.42c-2.91,2.43-5.91,4.95-9.32,6.53-4.27,2-15,4.57-19.81,5.2a46.45,46.45,0,0,1-4.85.24c-1.14,0-2.21,0-3.15.09a84.09,84.09,0,0,0-14.49,2.51c-3.05.81-5.75,1.61-8.36,2.38-4.41,1.3-8.57,2.52-13.69,3.64-1.51.32-9.15,1.9-10.86,2.07C263.83,467.8,263.52,467.81,263.22,467.81Zm-1.86-19.73a23.31,23.31,0,0,0-9.72,2.17l-.94.38c-1.93.77-4.57,1.82-4.88,3.28a2.64,2.64,0,0,0,1,2.25,55.54,55.54,0,0,0,7.83,6.92c2.79,2,5.67,4.05,9.38,3.69,1.55-.15,8.76-1.62,10.74-2,5.08-1.1,9.22-2.33,13.61-3.62,2.62-.77,5.33-1.57,8.39-2.39a86.3,86.3,0,0,1,14.68-2.54c1-.07,2.06-.08,3.2-.09a43.78,43.78,0,0,0,4.74-.24c4.71-.61,15.33-3.15,19.52-5.1a44.21,44.21,0,0,0,9.1-6.4l.49-.41a49.42,49.42,0,0,0,4.56-4.59,53.94,53.94,0,0,1,4.09-4.18,21.78,21.78,0,0,1,6.88-4.53,8.45,8.45,0,0,1,6.44-.24c1.1.4,1.26.21,1.81-1.11A10.14,10.14,0,0,1,373,428a4.35,4.35,0,0,0,.65-1.5c.53-2.5.22-3.38-1.23-5.75a11.48,11.48,0,0,1-1.27-3.43l-.05-.19c-.28-1.12-.35-1.15-1.12-1.51l-.62-.31h-.46c-1.63,1.4-5,1.64-6.91,1.35a14.12,14.12,0,0,1-1.71-.39l-.49-.13a9.43,9.43,0,0,0-2.62-.1,4.18,4.18,0,0,1-2.83-1.17,6,6,0,0,0-1.2-.79,17.89,17.89,0,0,0-5.57-1.24l-1.39-.16a63.94,63.94,0,0,0-9,.14c-3.25.34-6.42.87-12.39,3.95-.46.24-1.91,1.07-3.59,2-2.74,1.58-6.15,3.54-7.79,4.37-4.4,2.24-9.15,5.15-9.82,6.62-.61,1.84-3.46,4.82-4.67,6.09l-.22.23a86,86,0,0,1-7.48,5.76,53.93,53.93,0,0,1-5.25,2.82,69.94,69.94,0,0,1-8.66,2.21l-1.23.27c-.81.19-5.28,1.09-13.8.87Z" transform="translate(-232.58 -353.45)"/><path d="M359.6,414.66a17.88,17.88,0,0,1-4.72-.86c-.34-.09-.67-.19-1-.27a8.79,8.79,0,0,0-2.66-.33c-.4,0-.84,0-1.4,0a39.47,39.47,0,0,1-4.95-.83c-1.39-.28-2.7-.55-3.71-.68a33.62,33.62,0,0,0-11.23.08,10.24,10.24,0,0,0-2.11.85c-.42.2-.84.41-1.28.58a5.25,5.25,0,0,1-4.29-.34,19,19,0,0,1-5.64-5.11,11.23,11.23,0,0,0-4.79-3.47l-1.29-.64-1.12-.56c-1.55-.77-3.46-1.73-4.62-2.46a6.61,6.61,0,0,0-1.08-.39c-.94-.28-1.53-.48-1.81-.86A3.66,3.66,0,0,0,299.3,398a9,9,0,0,1-1.31-.33,3.11,3.11,0,0,1-1.39-1.22,2,2,0,0,0-2.47-1c-3.32.57-7,.19-11.62-1.19-2-.6-4.31-1.44-6.86-2.49l-.59-.24c-1.95-.78-4.89-2-5.76-3.85-1.73-3.76,4.37-7.34,5.61-8a42.61,42.61,0,0,1,4.82-2.28,19.92,19.92,0,0,0,2.07-1,24.18,24.18,0,0,1,2.31-1.07c.61-.23,1.16-.47,1.72-.72.73-.33,1.48-.66,2.38-1a29.86,29.86,0,0,1,5.27-1.21l.1,1a28.17,28.17,0,0,0-5,1.16c-.86.29-1.59.62-2.3.93s-1.15.51-1.78.75a24.22,24.22,0,0,0-2.2,1,21.22,21.22,0,0,1-2.18,1,43.2,43.2,0,0,0-4.69,2.23c-2.46,1.34-6.31,4.27-5.19,6.72.71,1.53,3.43,2.62,5.23,3.35l.6.24c2.52,1,4.8,1.86,6.77,2.45,4.45,1.34,8,1.71,11.16,1.17a3,3,0,0,1,3.45,1.4,2.2,2.2,0,0,0,.93.87,7.43,7.43,0,0,0,1.15.29,4.53,4.53,0,0,1,3.2,1.72,5.19,5.19,0,0,0,1.3.5,5.94,5.94,0,0,1,1.32.49c1.12.71,3,1.65,4.53,2.41l1.14.57c.44.23.86.43,1.27.63a12.2,12.2,0,0,1,5.15,3.77,18.1,18.1,0,0,0,5.29,4.82,4.24,4.24,0,0,0,3.47.3c.42-.16.81-.36,1.21-.55a11.45,11.45,0,0,1,2.32-.93,34.4,34.4,0,0,1,11.58-.09c1.05.13,2.38.4,3.79.69a38.38,38.38,0,0,0,4.8.81c.54,0,1,0,1.36,0a9.94,9.94,0,0,1,2.91.36l1,.27c2.71.75,5.05,1.39,7.6.07,2-1,1.43-2.47.3-4.71a13.74,13.74,0,0,1-.84-1.86c-.89-2.71-.62-5.53.84-8.87a30.57,30.57,0,0,1,1.48-3c1.08-2.05,2.1-4,1.41-5.26-.51-1-3.89-2.15-5.17-2.59l-.47-.17a21.64,21.64,0,0,0-7-.75c-1.14,0-2.22,0-3.2-.1l-1.86-.18c-1.09-.12-2.22-.24-3.37-.28l0-1c1.19,0,2.34.16,3.45.28l1.83.18c.94.08,2,.09,3.13.1a22.63,22.63,0,0,1,7.29.81l.47.16c2.42.86,5.07,1.87,5.72,3.07.93,1.74-.21,3.9-1.42,6.2a30.09,30.09,0,0,0-1.44,3c-1.38,3.16-1.63,5.67-.81,8.16a12.65,12.65,0,0,0,.78,1.73c1,1.89,2.28,4.49-.74,6.05A7.58,7.58,0,0,1,359.6,414.66Z" transform="translate(-232.58 -353.45)"/><path d="M310.24,397a1.56,1.56,0,0,1-.57-.1,1.22,1.22,0,0,1-.82-1.07l1-.1a.23.23,0,0,0,.17.23,1.16,1.16,0,0,0,1.07-.31,1.26,1.26,0,0,0,.43-1.18.26.26,0,0,0-.25-.19l.11-1a1.24,1.24,0,0,1,1.08.85,2.22,2.22,0,0,1-.66,2.21A2.26,2.26,0,0,1,310.24,397Z" transform="translate(-232.58 -353.45)"/><path d="M276.49,390.19a4.08,4.08,0,0,1-2.7-1.14,2.51,2.51,0,0,1-.6-3.37,2.09,2.09,0,0,1,1.52-.79,3.44,3.44,0,0,1,2.52.67c1.3,1.12,1.73,2.28,1.31,3.54l-.06.11-.29.4A2.71,2.71,0,0,1,276.49,390.19Zm-1.37-4.33-.29,0a1.22,1.22,0,0,0-.83.38c-.64.89.21,1.81.48,2.07a2.49,2.49,0,0,0,3,.54l.1-.15c.25-.83-.07-1.57-1-2.4A2.36,2.36,0,0,0,275.12,385.86Z" transform="translate(-232.58 -353.45)"/><path d="M272,408.62a56,56,0,0,1-6.35-.33c-.82-.09-1.69-.16-2.56-.23a41.43,41.43,0,0,1-5.34-.67l-2.34-.45c-1.67-.32-3.4-.64-4.09-.87a13.18,13.18,0,0,0-3.9-1.18c-.6-.11-1.2-.23-1.78-.37a22.48,22.48,0,0,1-4.18-1.53l-1-.47c-.38-.16-.76-.35-1.13-.54a11.7,11.7,0,0,0-1.23-.57,5.85,5.85,0,0,0-.86-.22,4.58,4.58,0,0,1-1.87-.64c-1.26-1-1.35-4.14-1.12-5.51a38.19,38.19,0,0,0,.49-5.28,12.6,12.6,0,0,1,1.12-5.73,10.37,10.37,0,0,1,3.65-4.34,15.54,15.54,0,0,1,4.32-2.05c.66-.23,1.35-.47,2.07-.77a54.4,54.4,0,0,1,5.93-2.07c.25-.07.76-.17,1.36-.29a18.11,18.11,0,0,0,3.3-.83,3.41,3.41,0,0,1,2.45-.75,1.36,1.36,0,0,0,.7-.07,2.55,2.55,0,0,0,.71-.49,3.6,3.6,0,0,1,2.05-.92,6.53,6.53,0,0,1,1.25-.07,5.84,5.84,0,0,0,1.38-.09,6.07,6.07,0,0,1,.68-.23,2.68,2.68,0,0,0,1-.42,5.76,5.76,0,0,1,3.46-.75c.46,0,.93,0,1.4-.05l.36,0a17.28,17.28,0,0,1,5.46.05,2.11,2.11,0,0,0,2.22-.44,6.44,6.44,0,0,1,1.87-1.07,7.07,7.07,0,0,1,3.26-.26,6.49,6.49,0,0,0,2.16-.06c.35-.1.84-.28,1.37-.48a12.61,12.61,0,0,1,2.44-.75,4.28,4.28,0,0,1,1.36.12l.57.09a8.29,8.29,0,0,0,4.08-1.06,4.16,4.16,0,0,1,3.06-1.2,10,10,0,0,0,3-.56l1.49-.5c3.05-1,6.51-2.22,10.9-3.93l.81-.32c1.57-.62,3.72-1.46,5-1.84a7.33,7.33,0,0,1,3.86,0l.16,0a24.72,24.72,0,0,0,4.25-1.07l.8-.25c3.52-1.07,9.3-.31,12.65,1l.68.28c.94.41,1.11.49,2.14-.19a9.92,9.92,0,0,0,1.13-.9,5.11,5.11,0,0,1,2.77-1.48c2.64-.42,3.33,1.72,3.94,3.61.41,1.26.83,2.57,1.79,3.07a30,30,0,0,1,9,7.18c1,1.09,3.86,4.48,4.63,5.66,1,1.52,3.78,6.15,4.15,7l.26.58c.32.72.62,1.41.93,2.25.58,1.55,1.15,4.56.37,6.47a5.91,5.91,0,0,1-3.57,3.35l-.4.09a4.71,4.71,0,0,1-3.14,0,6.51,6.51,0,0,1-1.64-1l.82-.57a8.26,8.26,0,0,0,1.23.7,3.73,3.73,0,0,0,2.51,0l.41-.09a4.91,4.91,0,0,0,2.85-2.74c.6-1.47.26-4.06-.37-5.76-.3-.81-.59-1.45-.92-2.19l-.25-.58c-.33-.73-3-5.24-4.08-6.84-.74-1.14-3.58-4.48-4.54-5.55a29.11,29.11,0,0,0-8.73-6.95c-1.33-.69-1.81-2.2-2.28-3.66-.66-2.05-1.11-3.19-2.83-2.92a4.19,4.19,0,0,0-2.27,1.24,11.68,11.68,0,0,1-1.24,1,2.57,2.57,0,0,1-3.09.27l-.65-.28c-3.2-1.26-8.78-2-12-1l-.8.25a25.41,25.41,0,0,1-4.51,1.11h-.07l-.31-.06a6.39,6.39,0,0,0-3.39,0c-1.23.36-3.36,1.2-4.91,1.81l-.82.32c-4.4,1.72-7.88,2.9-10.94,3.94l-1.49.51a11.18,11.18,0,0,1-3.22.61,3.21,3.21,0,0,0-2.45.95,9.06,9.06,0,0,1-4.85,1.31,6.47,6.47,0,0,1-.66-.11,4.09,4.09,0,0,0-1-.11,12.43,12.43,0,0,0-2.22.7c-.55.2-1.07.4-1.47.5a7.05,7.05,0,0,1-2.5.09,6.26,6.26,0,0,0-2.83.21,5.62,5.62,0,0,0-1.6.92,3,3,0,0,1-3,.63,16.24,16.24,0,0,0-5.16,0l-.36,0c-.51.05-1,.06-1.49.06a4.88,4.88,0,0,0-2.89.57,3.69,3.69,0,0,1-1.27.56,5.71,5.71,0,0,0-.59.19,5.13,5.13,0,0,1-1.74.17,6.15,6.15,0,0,0-1.06.05,2.57,2.57,0,0,0-1.57.68,3.32,3.32,0,0,1-1,.66,2.25,2.25,0,0,1-1.15.16,2.48,2.48,0,0,0-1.83.58,14.29,14.29,0,0,1-3.68,1c-.57.11-1,.21-1.28.27a53.27,53.27,0,0,0-5.82,2c-.74.3-1.44.55-2.12.79a14.22,14.22,0,0,0-4,1.9,9.42,9.42,0,0,0-3.35,4,11.55,11.55,0,0,0-1,5.33,38.88,38.88,0,0,1-.5,5.41c-.23,1.37,0,3.94.76,4.56a4.47,4.47,0,0,0,1.44.44,7.72,7.72,0,0,1,1,.26,14.14,14.14,0,0,1,1.33.62c.35.18.72.36,1.07.51l1.07.48a22.19,22.19,0,0,0,4,1.47c.57.14,1.15.25,1.73.36a14.12,14.12,0,0,1,4.11,1.24c.54.18,2.31.51,3.88.81.91.17,1.77.33,2.36.46a40.76,40.76,0,0,0,5.21.64c.89.07,1.76.15,2.59.24a78.41,78.41,0,0,0,12.08.16c2-.08,3.88-.25,5.84-.43l1.63-.15a21.12,21.12,0,0,0,6.16-1.26c3.37-1.45,5.83-1.56,9.48-1.56a36.64,36.64,0,0,1,7,.91c.77.16,1.54.31,2.31.44.93.17,2.05.3,3.12.44.86.1,1.69.2,2.38.31.51.08,1.27.13,2.06.17a24.46,24.46,0,0,1,2.79.27l-.2,1a23.51,23.51,0,0,0-2.65-.25c-.82-.05-1.59-.09-2.16-.18s-1.5-.21-2.34-.31c-1.09-.14-2.22-.28-3.17-.44l-2.33-.44a35.29,35.29,0,0,0-6.86-.9c-3.52,0-5.89.1-9.09,1.48a22.1,22.1,0,0,1-6.46,1.33l-1.63.15c-2,.19-3.83.36-5.89.44S273.91,408.62,272,408.62Z" transform="translate(-232.58 -353.45)"/><path d="M243.47,389.65a2.54,2.54,0,0,1-1.52-.5c-1.12-.84-1.49-2.48-1-4.26.94-3.18,2.39-3.94,5.28-5.46l.84-.46a14.87,14.87,0,0,1,3-1.43h0a8.74,8.74,0,0,1,2.66-.19,16.1,16.1,0,0,0,2.6.1c.6,0,1,0,1.28.19a.76.76,0,0,1,.36.42c.13.39-.08.77-.37,1.3a9.57,9.57,0,0,0-.55,1.11c-.29.68-1.31,1.23-2.63,1.89a9,9,0,0,0-.82.44c-.19.12-.47.28-.8.45a9,9,0,0,0-1.89,1.22,19.29,19.29,0,0,1-4.8,4.65A3.1,3.1,0,0,1,243.47,389.65Zm6.86-11.13a14.4,14.4,0,0,0-2.73,1.32l-.87.48c-2.8,1.47-4,2.08-4.78,4.85-.49,1.65,0,2.72.6,3.18a1.75,1.75,0,0,0,2-.07,18.46,18.46,0,0,0,4.57-4.43,8.21,8.21,0,0,1,2.19-1.48c.3-.16.57-.3.75-.42s.53-.29.91-.48c.64-.32,2-1,2.14-1.38s.43-.89.6-1.21c.08-.15.18-.32.23-.44h-.59a17,17,0,0,1-2.74-.11,7.94,7.94,0,0,0-2.33.18Z" transform="translate(-232.58 -353.45)"/><path d="M314.3,370.78l-1-.25a8.6,8.6,0,0,1,.32-.92c.42-1.08.73-2,.24-2.33s-1.88.22-2.8.69a7.35,7.35,0,0,1-1.11.51l-.29-1a7.17,7.17,0,0,0,.94-.44c1.14-.58,2.69-1.39,3.82-.63s.56,2.45.13,3.53A6,6,0,0,0,314.3,370.78Z" transform="translate(-232.58 -353.45)"/><path d="M300.29,371.29l-.76-.64a2.88,2.88,0,0,1,1.13-.74c.65-.29.72-.38.67-.61a8.8,8.8,0,0,0-1.12-.4c-1.35-.43-3.19-1-4-2.31l.85-.52c.59,1,2.23,1.49,3.43,1.87,1,.33,1.56.5,1.73.94.38,1.25-.6,1.68-1.18,1.94A2.41,2.41,0,0,0,300.29,371.29Z" transform="translate(-232.58 -353.45)"/><path d="M258.4,381.24a16.64,16.64,0,0,1-2.74-.34l.18-1c1.77.32,3.17.57,4.28-.09a6.66,6.66,0,0,0,1-.77,4,4,0,0,1,2.67-1.24,3.38,3.38,0,0,0,2.92-1.4,9.78,9.78,0,0,1,1-.92,2.84,2.84,0,0,1,3-.72,10.14,10.14,0,0,0,1.16.2,2.64,2.64,0,0,0,2-.39,7.83,7.83,0,0,1,1.06-.54,3.63,3.63,0,0,1,1.71-.24,2.57,2.57,0,0,0,1.49-.27,12.56,12.56,0,0,1,4.05-.67,14.12,14.12,0,0,0,2.43-.3,5,5,0,0,0,.8-.39c.2-.11.42-.23.67-.34a5.15,5.15,0,0,1,2.14-.16c.27,0,.52,0,.7,0a28.17,28.17,0,0,0,4.13-.6c3.42-.65,6.95-1.32,8.95.61l-.69.72c-1.64-1.57-4.91-.95-8.07-.34a29.45,29.45,0,0,1-4.29.61l-.77,0a5.23,5.23,0,0,0-1.69.07,6.71,6.71,0,0,0-.6.31,6.39,6.39,0,0,1-.94.45,12.27,12.27,0,0,1-2.69.35,13.22,13.22,0,0,0-3.64.56,3.67,3.67,0,0,1-2,.39,2.74,2.74,0,0,0-1.29.16,8.23,8.23,0,0,0-.95.48,3.59,3.59,0,0,1-2.64.53,12.7,12.7,0,0,1-1.28-.22,1.91,1.91,0,0,0-2.14.51,12.09,12.09,0,0,0-.89.85,4.41,4.41,0,0,1-3.65,1.7,2.87,2.87,0,0,0-2,1,8,8,0,0,1-1.14.87A4.25,4.25,0,0,1,258.4,381.24Z" transform="translate(-232.58 -353.45)"/><path d="M251.83,378.09l-1-.18c.19-1.09-.16-1.39-.5-1.69l-.12-.1.68-.74.1.09A2.44,2.44,0,0,1,251.83,378.09Z" transform="translate(-232.58 -353.45)"/><path d="M238.5,401.23c-.2-1.68-.15-2.74.72-3.93.3-.4.57-.87.87-1.37a16.83,16.83,0,0,1,1.33-2,21.49,21.49,0,0,0,1.43-2.43A20.07,20.07,0,0,1,245,388l.77.64a20.46,20.46,0,0,0-2.06,3.34,22.17,22.17,0,0,1-1.51,2.57,15.64,15.64,0,0,0-1.27,1.93c-.31.52-.6,1-.92,1.45-.68.93-.72,1.74-.53,3.22Z" transform="translate(-232.58 -353.45)"/><path d="M325.44,393.44l-.31-.95a10.81,10.81,0,0,1,3.28-.51,8.87,8.87,0,0,0,3.23-.57c2.26-.85,5.21-3.58,6.84-5.71.9-1.19,2.43-3.74,3.16-5l.18-.3a24.46,24.46,0,0,0,2.5-6.78c.29-1.35.81-3.8,2.35-4.25,2.36-.7,4.87.18,7.1,1,.5.17,1,.34,1.44.48a23.74,23.74,0,0,1,5.27,2.75,20.73,20.73,0,0,0,1.8,1.08,51.28,51.28,0,0,0-5.32-5.22c-1.59-1.43-3.09-2.79-4.11-3.85-.55-.57-2.4-2.08-3.51-3l-.72-.59a21.64,21.64,0,0,0-3.17-2.26l-.4-.22a7.93,7.93,0,0,0-2.17-.92l.24-1a8.69,8.69,0,0,1,2.41,1l.4.21a24,24,0,0,1,3.33,2.37l.71.59c1.2,1,3,2.46,3.6,3.07,1,1,2.48,2.38,4.06,3.8,4.74,4.29,6.08,5.67,5.8,6.54a.75.75,0,0,1-.64.5c-.53.13-1.24-.29-2.85-1.32a23.08,23.08,0,0,0-5-2.63c-.47-.14-1-.32-1.48-.49-2.08-.73-4.44-1.55-6.49-.95-1,.29-1.46,2.61-1.64,3.48a26.32,26.32,0,0,1-2.63,7.11l-.18.31c-.75,1.24-2.29,3.83-3.23,5.05-1.75,2.3-4.82,5.12-7.28,6a9.77,9.77,0,0,1-3.55.64A9.74,9.74,0,0,0,325.44,393.44Z" transform="translate(-232.58 -353.45)"/><path d="M334.56,366.69l-.44,0,.1-1a3.53,3.53,0,0,0,1.79-.31,7.35,7.35,0,0,1,1.24-.35,14.34,14.34,0,0,1,1.7-.16,11.18,11.18,0,0,0,1.78-.18l.39-.07c.86-.17,1.32-.28,1.59-1a1.57,1.57,0,0,0,0-.64,2.81,2.81,0,0,1,0-1,2.76,2.76,0,0,1,.49-.95,3.28,3.28,0,0,0,.37-.62l.92.37a3.93,3.93,0,0,1-.47.82,2.1,2.1,0,0,0-.34.61,2.15,2.15,0,0,0,0,.6,2.25,2.25,0,0,1,0,1.15,2.63,2.63,0,0,1-2.34,1.55l-.37.07a11.49,11.49,0,0,1-1.93.2c-.52,0-1.07.06-1.59.14a7.22,7.22,0,0,0-1.06.31A4.88,4.88,0,0,1,334.56,366.69Z" transform="translate(-232.58 -353.45)"/><path d="M364.15,423.43a11.49,11.49,0,0,1-2.2-.27c-.64-.12-1.22-.25-1.78-.38a22.81,22.81,0,0,0-4.94-.7,18.67,18.67,0,0,0-6.36,1.21l-.38-.93a19.19,19.19,0,0,1,6.75-1.28,22.91,22.91,0,0,1,5.14.73c.56.12,1.14.25,1.77.37,2.4.48,3.71.39,4.67-1.39a3,3,0,0,0,.24-2.55,2.67,2.67,0,0,0-1.8-1.49l.29-1a3.58,3.58,0,0,1,2.43,2.06,4,4,0,0,1-.28,3.42A3.7,3.7,0,0,1,364.15,423.43Z" transform="translate(-232.58 -353.45)"/><path d="M333,453.76l-.58-.81c.38-.27.88-.55,1.46-.89,1.63-.94,4.09-2.35,3.85-3.56a.33.33,0,0,0-.12-.21c-.33-.2-1.26,0-1.88.19l-.61.15-.1,0a12.28,12.28,0,0,1-3.52.39l.13-1a11.47,11.47,0,0,0,3.18-.36l.11,0,.56-.13a3.67,3.67,0,0,1,2.66-.08,1.28,1.28,0,0,1,.57.86c.39,1.92-2.23,3.42-4.33,4.63C333.81,453.24,333.3,453.53,333,453.76Z" transform="translate(-232.58 -353.45)"/><path d="M338.93,440.75l-.44-.9.22.45-.23-.44c.32-.24.4-2,.43-2.63,0-.25,0-.49,0-.67.16-2,.59-2.51,1.91-3.92a10.68,10.68,0,0,0,.79-1,6.43,6.43,0,0,1,1.77-1.76,6.14,6.14,0,0,1,3.85-.75h.87a18.67,18.67,0,0,0,7.52-1.8c.51-.21,4.1-1.22,5.41-1.52,1.55-.34,5.08-.58,6.27.21a1.06,1.06,0,0,1,.49.67c.21,1.82-1.22,2.25-2.26,2.57a4.39,4.39,0,0,0-1.17.46,10.93,10.93,0,0,0-3.24,3.46l-.86-.51a11.81,11.81,0,0,1,3.54-3.77,5.1,5.1,0,0,1,1.44-.6c1.21-.37,1.66-.59,1.56-1.46-.29-.39-3.38-.53-5.56-.05-1.33.3-4.82,1.3-5.25,1.47a19.53,19.53,0,0,1-7.89,1.87h-.9a4.53,4.53,0,0,0-4.78,2.11c-.26.34-.52.69-.87,1.08-1.24,1.32-1.51,1.66-1.65,3.31,0,.18,0,.4,0,.64C339.83,439,339.7,440.38,338.93,440.75Z" transform="translate(-232.58 -353.45)"/><path d="M305.92,433.05l-.72-.69c2.26-2.37,3.62-4.58,3.29-5.38-.13-.34-.68-.43-1.12-.44l0-1c1.06,0,1.74.4,2,1.07C310.11,428.32,307.52,431.38,305.92,433.05Z" transform="translate(-232.58 -353.45)"/><path d="M356.76,425.58a2.83,2.83,0,0,1-2.59-1.17,3,3,0,0,1,.33-3.15l.86.51a2.15,2.15,0,0,0-.34,2.12,2.11,2.11,0,0,0,2,.69c1.41-.08,2.77-1.37,3.56-2.57l.83.56c-.93,1.39-2.56,2.91-4.34,3Z" transform="translate(-232.58 -353.45)"/><path d="M329.91,411.55a10.74,10.74,0,0,0-3.89-2.07l.3-1c1.41.45,3.72,1.54,4.39,2.43Z" transform="translate(-232.58 -353.45)"/><path d="M320.32,393.21a4.31,4.31,0,0,1-1.37-.64,3.4,3.4,0,0,0-1.1-.54,4.52,4.52,0,0,0-1.59,0,10.86,10.86,0,0,1-1.28.1,5.82,5.82,0,0,1-1.46-.28,4.29,4.29,0,0,0-1-.23,4.11,4.11,0,0,0-1,.16,5.2,5.2,0,0,1-1.66.18l.11-1a3.79,3.79,0,0,0,1.32-.16,5.3,5.3,0,0,1,1.31-.18,5.55,5.55,0,0,1,1.29.27,4.27,4.27,0,0,0,1.19.24,6.49,6.49,0,0,0,1.13-.1,5.74,5.74,0,0,1,1.94,0,4.44,4.44,0,0,1,1.42.67,3.19,3.19,0,0,0,1,.51Z" transform="translate(-232.58 -353.45)"/><path d="M323.5,395.48a3.55,3.55,0,0,1-1.38-.3,3.45,3.45,0,0,1-1.94-1.9,5.59,5.59,0,0,1-.19-1.47,5.47,5.47,0,0,0-.14-1.19,6.35,6.35,0,0,0-.54-1.21l-.27-.51a7.88,7.88,0,0,1-1-4.82c.53-5.29,1.4-7.07,2-8.37a5.77,5.77,0,0,0,.72-2.2,17.84,17.84,0,0,1,1.86-6.47,4.54,4.54,0,0,1,2.76-2.49l-.22-.11a2.44,2.44,0,0,1-1.35-1.68c-.44-2.05,1.57-4.72,2-5.24l.78.62c-1.07,1.35-2,3.24-1.78,4.4a1.49,1.49,0,0,0,.82,1,14.38,14.38,0,0,0,2.28.77c.64.18,1.3.36,1.86.58,1.34.51,2.86,1.1,3.54,2.92a8.76,8.76,0,0,1-.8,8,9.44,9.44,0,0,1-3.44,2.82,7.48,7.48,0,0,1-2.67.1,5.13,5.13,0,0,0-2.43.14c-.57.4-.35,1.18.05,2.32a6.49,6.49,0,0,1,.36,1.27,2.17,2.17,0,0,0,1.42.95c.45.14.91.29,1,.75a2.3,2.3,0,0,1-.4,2.31,4.54,4.54,0,0,0-.33.54,3.44,3.44,0,0,0,.08,1.86,4.71,4.71,0,0,1,.15,1.75c0,.23-.07.5-.11.81-.15,1.35-.37,3.19-1.63,3.8A2.48,2.48,0,0,1,323.5,395.48Zm3.44-30.16a3.59,3.59,0,0,0-3.42,2.14,16.36,16.36,0,0,0-1.77,6.16,7,7,0,0,1-.82,2.53c-.6,1.23-1.43,2.92-1.93,8a6.91,6.91,0,0,0,.94,4.28c.09.18.17.34.26.49a6.84,6.84,0,0,1,.6,1.4,6.38,6.38,0,0,1,.19,1.43,4.52,4.52,0,0,0,.14,1.21,2.5,2.5,0,0,0,1.38,1.28,2,2,0,0,0,1.62.09c.76-.36.95-2,1.07-3,0-.33.08-.63.12-.87a4.3,4.3,0,0,0-.15-1.38,4,4,0,0,1,0-2.5,6.36,6.36,0,0,1,.38-.64c.33-.51.52-.8.3-1.42a3,3,0,0,0-.4-.14,3,3,0,0,1-2-1.54l-.05-.17a4.72,4.72,0,0,0-.32-1.13c-.38-1.1-.91-2.6.33-3.47a5.16,5.16,0,0,1,3.07-.31,6.86,6.86,0,0,0,2.27-.06,8.61,8.61,0,0,0,2.94-2.42,7.81,7.81,0,0,0,.69-7.12c-.48-1.29-1.48-1.76-3-2.33-.39-.15-.87-.29-1.35-.43v0A5.23,5.23,0,0,0,326.94,365.32Zm-1.1,19.17h0Z" transform="translate(-232.58 -353.45)"/><path d="M351.88,413.15c-1.39-.54-3.36-1.28-4.83-1.74-.82-.26-1.74-.51-2.64-.75s-1.85-.5-2.63-.75l-.84-.22c-2.66-.67-5.52-1.51-5.94-3.05a1.81,1.81,0,0,1,.65-1.81c.78-.77,2.59-.78,4.54-.72H341a25.39,25.39,0,0,1,5.6.73l.64.15c2.14.5,5.72,1.35,7-.41l.08-.13a3.53,3.53,0,0,0,.81-1.6h1a4.28,4.28,0,0,1-1,2.18l-.09.12c-1.63,2.32-5.63,1.37-8,.81l-.63-.15a24.66,24.66,0,0,0-5.38-.7h-.85c-1.06,0-3.27-.1-3.81.43q-.48.48-.39.84c.3,1.1,3.87,2,5.22,2.34l.91.24c.75.24,1.64.48,2.58.73s1.85.5,2.68.76c1.5.48,3.49,1.23,4.89,1.77Z" transform="translate(-232.58 -353.45)"/><path d="M353.71,405.65a7.9,7.9,0,0,1-1.59-.22l-1.92-.37a86.94,86.94,0,0,1-8.91-2c-1.86-.55-2.15-3.46-2.16-5.15a36.65,36.65,0,0,1,.82-6.55,44.16,44.16,0,0,1,2-6.39l.38-1c.53-1.43,1.09-2.91,1.48-4.2a14.53,14.53,0,0,0,.47-3.77,15.62,15.62,0,0,1,.62-4.45l0-.05a3.15,3.15,0,0,1,2.56-1.77c3-.41,7.24,1.8,8.69,3.48a14.69,14.69,0,0,0,1.58,1.42c1.72,1.44,3.68,3.08,3.67,4.67a3.88,3.88,0,0,1-1.7,3.39,3.8,3.8,0,0,1-3.65.11c-1.67-.8-9.44-1.19-10.09,0a7.84,7.84,0,0,0-.54,5.69c.6,1.47,4.36,5.66,5.83,7.16a18.23,18.23,0,0,0,1.5,1.27c1.3,1,2.78,2.22,3.23,3.33a6.16,6.16,0,0,1-.15,4A2.06,2.06,0,0,1,353.71,405.65Zm-7.91-33.8a14.6,14.6,0,0,0-.56,4.14,15.79,15.79,0,0,1-.51,4c-.41,1.32-1,2.82-1.51,4.26l-.38,1a44.54,44.54,0,0,0-1.91,6.24,37.57,37.57,0,0,0-.81,6.25v.1c0,2.36.55,3.93,1.45,4.19a85.87,85.87,0,0,0,8.81,2l1.93.37c1.59.32,2.18.35,2.56-.63a5.28,5.28,0,0,0,.16-3.25c-.36-.87-1.79-2-2.93-2.93a18.2,18.2,0,0,1-1.59-1.35c-.85-.86-5.28-5.63-6-7.47a8.76,8.76,0,0,1,.58-6.56c1.21-2.18,10.13-1,11.41-.4a2.77,2.77,0,0,0,2.68-.06,2.92,2.92,0,0,0,1.23-2.56c0-1.11-1.91-2.71-3.31-3.88a14.94,14.94,0,0,1-1.7-1.53c-1.27-1.49-5.19-3.51-7.79-3.15A2.12,2.12,0,0,0,345.8,371.85Z" transform="translate(-232.58 -353.45)"/><path d="M368.75,390.77a5.11,5.11,0,0,1-2.69-1l.55-.84c1.73,1.13,2.78,1.35,4.12-.42,1-1.38,2.24-4.1,1.68-5.42l.93-.39c.82,1.95-.87,5.16-1.82,6.41A3.45,3.45,0,0,1,368.75,390.77Z" transform="translate(-232.58 -353.45)"/><path d="M358,364.72a13.39,13.39,0,0,0-4.09-2,13.68,13.68,0,0,0-4.62-.61v-1a15.45,15.45,0,0,1,9.3,2.79Z" transform="translate(-232.58 -353.45)"/><path d="M330,449.17c-1.11,0-2.77-.15-3.24-1a1.16,1.16,0,0,1,.23-1.34,6.27,6.27,0,0,1,2.48-2.13l.12-.06a47.9,47.9,0,0,0,6.09-3.76,1.48,1.48,0,0,0,.41-.75,1.89,1.89,0,0,1,1.17-1.41l.13,0,.91.22a2.45,2.45,0,0,1,1.12,1.94,10.24,10.24,0,0,1-.62,3.35,6.6,6.6,0,0,1-2.28,2.7c-.44.38-.9.76-1.31,1.19-.79.81-2.27.91-3.46,1l-.72.05S330.62,449.17,330,449.17Zm7.49-9.45c-.25.13-.33.35-.45.74a2.44,2.44,0,0,1-.72,1.2,51.07,51.07,0,0,1-6.25,3.87l-.13.07a5.36,5.36,0,0,0-2.17,1.86c-.13.16-.13.24-.13.24.14.32,1.81.6,3.28.43l.77-.06c1-.06,2.28-.14,2.8-.68a16.17,16.17,0,0,1,1.39-1.25,5.85,5.85,0,0,0,2-2.27,8.91,8.91,0,0,0,.57-3,1.47,1.47,0,0,0-.59-1.08Z" transform="translate(-232.58 -353.45)"/><path d="M331.65,444.13c-2.91-1.84-4-1.86-5.09-1.88a8.06,8.06,0,0,1-2.18-.29l-.68-.2a12.29,12.29,0,0,1-5.56-2.68,13.94,13.94,0,0,0-3.16-2l-.53-.27a2.69,2.69,0,0,1-1.49-1.59,5.93,5.93,0,0,0-.42-.84,5.5,5.5,0,0,0-2.25-1.88,11.2,11.2,0,0,1-2.87-2.08l.71-.71a10,10,0,0,0,2.63,1.9,6.62,6.62,0,0,1,2.63,2.24,6.77,6.77,0,0,1,.49,1,1.73,1.73,0,0,0,1,1.09l.53.27a14.45,14.45,0,0,1,3.37,2.13A11.25,11.25,0,0,0,324,440.8l.68.2a6.88,6.88,0,0,0,1.92.25c1.21,0,2.46,0,5.61,2Z" transform="translate(-232.58 -353.45)"/><path d="M349.27,361.74l-.79-.61c.89-1.14,1.93-4.4,1.4-5.59l.91-.41C351.55,356.84,350.24,360.49,349.27,361.74Z" transform="translate(-232.58 -353.45)"/><path d="M360.36,416.11c-1.19,0-2.38-.06-3.49-.11-2.15-.1-3.05-1.05-4-2.76l.88-.48c.82,1.52,1.43,2.16,3.09,2.24a42.34,42.34,0,0,0,6,0c1.3-.13,2.91-.84,3.19-2.43s-.83-2.38-2-3.27l-.31-.24.6-.79.31.23c1.23.93,2.77,2.09,2.39,4.25s-2.44,3.08-4.08,3.25C362.09,416.08,361.23,416.11,360.36,416.11Z" transform="translate(-232.58 -353.45)"/><path d="M304.62,370.19a2.82,2.82,0,0,1-.52,0l.17-1a3.32,3.32,0,0,0,2.24-.54l.65.76A4.21,4.21,0,0,1,304.62,370.19Z" transform="translate(-232.58 -353.45)"/><path d="M266.24,418h-.09c-1.58-.13-3.73-4.27-4-4.85s-.45-1.19-.67-1.87c-.42-1.26-1-2.94-1.58-3.23a11.79,11.79,0,0,0,.43,6.32,25,25,0,0,1,.6,2.71v.15a.62.62,0,0,1-.67.55c-1.19-.08-5.73-4.86-6.06-11a.8.8,0,0,0-.73.1c-.79.75.16,4.18.56,5.64s.49,1.77.11,2l-.28.2-.35-.21c-3.67-2.67-4.52-6.75-4.88-8.64-.81,2,0,4.91.41,6.6.32,1.25.43,1.67.12,2l-.21.2-.35-.06c-4.15-2.07-5.71-8.57-6.2-11.27l1-.18c.33,1.85,1.61,7.72,4.8,10l-.12-.47c-.56-2.13-1.6-6.09.28-8.31a.56.56,0,0,1,.58-.22c.42.1.49.46.65,1.33a12.92,12.92,0,0,0,3.52,7.35.93.93,0,0,0,0-.13c-.79-2.87-1.41-5.55-.28-6.62a1.93,1.93,0,0,1,2.07-.24l.33.11v.35a15.18,15.18,0,0,0,4.61,10.07c-.12-.6-.28-1.19-.44-1.8a12.43,12.43,0,0,1-.32-7.23l.09-.28.28-.07c1.61-.35,2.33,1.82,3,3.93.21.65.42,1.27.63,1.78.6,1.38,2.37,4,3.06,4.24-.07-.29-.25-.94-.4-1.48a19.3,19.3,0,0,1-.82-3.75c0-.27,0-.53-.05-.78-.09-1.4-.17-2.6.77-3.1,1.48-.78,2.17.44,2.78,1.52a7.42,7.42,0,0,0,2.3,2.79c-.4-1.23-.9-2.86-.19-3.8a1.76,1.76,0,0,1,1.53-.61c1.18,0,1.47.91,1.75,1.74a6.51,6.51,0,0,0,1.9,3l-.06-.24c-.35-1.36-.79-3.06-.46-4.11l.06-.2.19-.09a1.92,1.92,0,0,1,1.66-.11c1.22.51,1.8,2.34,2.22,3.67a8.08,8.08,0,0,0,.34,1,16.14,16.14,0,0,0,2.47,3.78c-.11-.4-.26-.88-.37-1.23a13.82,13.82,0,0,1-.46-1.62,16.57,16.57,0,0,1,.07-5.12l0-.12.08-.09a1.1,1.1,0,0,1,.93-.48c.73.05,1.22.86,2,2.09a10.81,10.81,0,0,0,3.31,3.91l0-.06a11.84,11.84,0,0,1-.82-1.72,10.89,10.89,0,0,1-.53-3.93l0-.12a1.34,1.34,0,0,1,1.18-.9,2.14,2.14,0,0,1,2.11,1.38,8.15,8.15,0,0,0,3.13,3.68,5,5,0,0,1-.51-.85c-.36-.74-1.5-3.27-.9-4.89l.08-.2.19-.09c1.36-.59,2.08.37,2.66,1.14a3.94,3.94,0,0,0,1.29,1.28,3.22,3.22,0,0,1-.22-2.46,1.82,1.82,0,0,1,1.19-1,1.33,1.33,0,0,1,1.78.88,3.13,3.13,0,0,0,.38.61,2.44,2.44,0,0,1,1.11-2.26l.56.84a1.5,1.5,0,0,0-.64,1.67,1,1,0,0,1-.2.91.66.66,0,0,1-.59.15,2.71,2.71,0,0,1-1.51-1.46c-.25-.5-.26-.49-.58-.39a.93.93,0,0,0-.6.44c-.22.49.11,1.32.33,1.87s.35.87.1,1.18a.6.6,0,0,1-.58.19,3.88,3.88,0,0,1-2.62-1.88c-.57-.76-.82-1-1.25-.89a7.22,7.22,0,0,0,.92,3.89,6.93,6.93,0,0,0,.56.91c.38.56.66,1,.4,1.37a.81.81,0,0,1-.87.27c-2.45-.75-3.58-2.81-4.48-4.46-.32-.59-.73-.9-1.12-.87a.5.5,0,0,0-.32.15,9.72,9.72,0,0,0,.47,3.48,11.89,11.89,0,0,0,.76,1.57c.48.88.72,1.32.4,1.7a.62.62,0,0,1-.74.16c-2.32-.77-3.68-3.05-4.68-4.71a6.1,6.1,0,0,0-1.16-1.61l0,0a16.26,16.26,0,0,0,0,4.62c.07.34.25.92.43,1.48.53,1.67.75,2.43.3,2.82a.68.68,0,0,1-.77.07c-1.18-.6-2.73-3.13-3.48-4.7a8.4,8.4,0,0,1-.39-1.08c-.34-1.09-.86-2.73-1.66-3.06a.74.74,0,0,0-.61,0,10.69,10.69,0,0,0,.52,3.34c.32,1.26.43,1.69.07,2l-.25.2-.37-.15a7.61,7.61,0,0,1-3.2-4.26c-.3-.88-.39-1-.85-1.06s-.65.16-.7.21c-.41.55.1,2.13.38,3s.39,1.2.09,1.49l-.21.22-.36-.09a7.67,7.67,0,0,1-3.67-3.7c-.73-1.29-.89-1.42-1.44-1.12-.37.19-.31,1.1-.24,2.14,0,.26,0,.53.05.81a19.24,19.24,0,0,0,.78,3.52c.39,1.37.51,1.85.42,2.17l-.06.12A1,1,0,0,1,266.24,418Z" transform="translate(-232.58 -353.45)"/><path d="M266.17,447.55a15.77,15.77,0,0,0-.62-2.22c-.16-.48-.33-1-.53-1.74a7.87,7.87,0,0,1-.21-3.13l0-.19.15-.8a4.19,4.19,0,0,0-.45.7,9.24,9.24,0,0,0-.85,2.45,14.74,14.74,0,0,0-.39,4.62l-1,.09a15.49,15.49,0,0,1,.4-4.91,10.62,10.62,0,0,1,.94-2.71c.34-.66,1.19-1.74,1.72-1.88l.22-.06.25.13c.37.24.37.68,0,2.57l0,.18a6.91,6.91,0,0,0,.2,2.69c.19.74.35,1.21.51,1.66a18.1,18.1,0,0,1,.65,2.35Z" transform="translate(-232.58 -353.45)"/><path d="M267.69,447.65a14.12,14.12,0,0,1,.54-4.71,7.89,7.89,0,0,1,1-2.36l.11-.19c.34-.58,1.08-1.48,1.6-1.59l.22-.05.52.34-.08.33s-.39,1.62-.52,2.23a7.27,7.27,0,0,0,.13,2.69,7.15,7.15,0,0,0,.18.7,10.72,10.72,0,0,1,.41,2.29l-1,.07a9.26,9.26,0,0,0-.38-2.09c-.07-.25-.13-.49-.19-.77a8.48,8.48,0,0,1-.13-3.09c0-.15.08-.37.14-.62l0,.06-.13.21a7.25,7.25,0,0,0-.93,2.08,13.51,13.51,0,0,0-.5,4.43Z" transform="translate(-232.58 -353.45)"/><path d="M277.63,446.24a10.7,10.7,0,0,1-.18-3.55,12.9,12.9,0,0,1,.58-2.17,6.44,6.44,0,0,1,1.45-2.2.7.7,0,0,1,.78-.11c.39.23.41.67.13,2.6a8.21,8.21,0,0,0,.15,2.65l.07.2a12.66,12.66,0,0,1,.53,2.11l-1,.16a10.21,10.21,0,0,0-.49-1.95l-.07-.21a8.91,8.91,0,0,1-.19-3.1c.05-.34.09-.61.11-.84a4.41,4.41,0,0,0-.53,1,11.72,11.72,0,0,0-.54,2,10.21,10.21,0,0,0,.17,3.24Z" transform="translate(-232.58 -353.45)"/><path d="M274.43,447l-.95-.32a4.26,4.26,0,0,1,1.48-2.2.89.89,0,0,1,.83-.17c.35.16.4.51.45.86,0,.18,0,.34,0,.5a2.26,2.26,0,0,0,.06.57l-.94.34a2.63,2.63,0,0,1-.12-.86,1.41,1.41,0,0,1,0-.2A3.58,3.58,0,0,0,274.43,447Z" transform="translate(-232.58 -353.45)"/><path d="M292.33,440.11a6.07,6.07,0,0,1-.55-1.52,3.74,3.74,0,0,1,.28-2.75l.19-.31.43.05c.4.1.51.51.66,1.09a3.05,3.05,0,0,0,.19.6,5.34,5.34,0,0,0,.9,1.31l-.7.72a6.32,6.32,0,0,1-1.06-1.52,5.06,5.06,0,0,0,.09.6,5.45,5.45,0,0,0,.42,1.21Z" transform="translate(-232.58 -353.45)"/><path d="M288.29,442.65l.46-.2-.49.12a7.48,7.48,0,0,1-.71-3s.07-2.84.77-3.25l.25-.15.22.1c.35.09.43.42.63,1.25a9.4,9.4,0,0,0,.75,2.3,8.17,8.17,0,0,0,.73,1.08l-.6.8a7.27,7.27,0,0,1-1-1.38,8.26,8.26,0,0,1-.67-1.81,9.86,9.86,0,0,0-.08,1.05,6.55,6.55,0,0,0,.63,2.6l-.43.28Z" transform="translate(-232.58 -353.45)"/><path d="M281.46,445.35a9.66,9.66,0,0,1,.13-3.72c.2-.89,1.06-3.14,1.82-3.46l.12-.05.34,0,.15.18c.18.22.15.46.07,1a8.9,8.9,0,0,0,0,3.06,7.93,7.93,0,0,0,.33,1,12,12,0,0,1,.4,1.21l-1,.22a10.81,10.81,0,0,0-.37-1.08,8.43,8.43,0,0,1-.37-1.13,8.26,8.26,0,0,1-.13-1.87,8.91,8.91,0,0,0-.39,1.17,8.65,8.65,0,0,0-.12,3.32Z" transform="translate(-232.58 -353.45)"/><path d="M246.15,452.13a12.86,12.86,0,0,1-.59-6.05s.26-2.26,1.07-2.41a.61.61,0,0,1,.66.35,2.85,2.85,0,0,1,.28,1.22,3.82,3.82,0,0,0,.05.45,4.52,4.52,0,0,0,.4,1c.07.13.14.26.2.4l-.91.41-.18-.36a4.92,4.92,0,0,1-.48-1.23l0-.15c0,.16-.06.3-.07.42a11.86,11.86,0,0,0,.53,5.58Zm.29-7.58Z" transform="translate(-232.58 -353.45)"/><path d="M247.55,451.13a17.86,17.86,0,0,1-.2-4.24c.08-.43.45-1.93.6-2.39l0-.11c.63-1.88.83-2.37,1.37-2.32a.6.6,0,0,1,.52.56l0,.08,0,.08a10.19,10.19,0,0,0,0,1.59,13.59,13.59,0,0,0,.41,2.52,7,7,0,0,0,1.46,2.39l-.4.92c-.7-.29-1.8-2.25-2-3a14.87,14.87,0,0,1-.41-2.23c-.15.49-.46,1.76-.54,2.15a18.12,18.12,0,0,0,.17,3.75Z" transform="translate(-232.58 -353.45)"/><path d="M256.87,447.84c0-.18-.07-.46-.13-.79a18,18,0,0,1-.26-1.91,16.54,16.54,0,0,1,.24-3c.16-.82.63-2.66,1.35-2.59.34.05.5.33.46.83a6.51,6.51,0,0,0,1,3.75,10.06,10.06,0,0,1,1.15,3.33l-1,.14a8.89,8.89,0,0,0-1-3,8.25,8.25,0,0,1-.92-2.32h0a15.45,15.45,0,0,0-.22,2.75,17.69,17.69,0,0,0,.25,1.77c.06.34.11.65.13.83Z" transform="translate(-232.58 -353.45)"/><path d="M251.89,449.53a20.37,20.37,0,0,1-.52-3.21,19.5,19.5,0,0,1,.59-4.58s.92-3.62,2.35-3.49l.1,0c.51.17.4.68.26,1.39a11.16,11.16,0,0,0-.19,1.26,6.18,6.18,0,0,0,.23,2.32,7,7,0,0,0,.68,1.64c.14.26.29.55.47.91a9.71,9.71,0,0,1,.55,2.2l0,.21-1,.16,0-.21a8.52,8.52,0,0,0-.47-1.93c-.16-.35-.31-.62-.44-.87a7.8,7.8,0,0,1-.77-1.85,7.16,7.16,0,0,1-.26-2.66,5.93,5.93,0,0,1,.07-.59,10.63,10.63,0,0,0-.62,1.71,17.52,17.52,0,0,0-.57,4.27,21.11,21.11,0,0,0,.47,2.94Z" transform="translate(-232.58 -353.45)"/><path d="M243.46,410.67c-1.05,0-2.55-4-2.65-4.37a24,24,0,0,1-.81-4.38l1-.09a23.52,23.52,0,0,0,.77,4.2,14.87,14.87,0,0,0,1.25,2.79,7.68,7.68,0,0,1,.38-1.86l.95.33A6.14,6.14,0,0,0,244,410v.13a.6.6,0,0,1-.55.56Z" transform="translate(-232.58 -353.45)"/><path d="M241.18,409.05c-1,0-2.08-3.85-2.2-4.29a15.81,15.81,0,0,1-.52-3.42l1-.09a14.55,14.55,0,0,0,.48,3.24,22.48,22.48,0,0,0,.95,2.61c0-.14.06-.28.1-.44l0-.1,1,.22,0,.1a5.25,5.25,0,0,0-.22,1.42v.19a.59.59,0,0,1-.53.56Z" transform="translate(-232.58 -353.45)"/><path d="M239.31,406.83h-.09c-1.15-.16-1.75-4.15-1.84-5.58l1-.06a11.48,11.48,0,0,0,1.13,4.71.33.33,0,0,0-.25-.06.37.37,0,0,0-.23.14l.95.33A.72.72,0,0,1,239.31,406.83Z" transform="translate(-232.58 -353.45)"/><path d="M237.83,405.55l-.2,0-.24,0-.12-.22a13,13,0,0,1-1.22-4.54l1-.12a12.33,12.33,0,0,0,1,3.95l.52.56-.07.08A.77.77,0,0,1,237.83,405.55Z" transform="translate(-232.58 -353.45)"/></g><g class="teeth"><path d="M266.24,418h-.09c-1.58-.13-3.73-4.27-4-4.85s-.45-1.19-.67-1.87c-.42-1.26-1-2.94-1.58-3.23a11.79,11.79,0,0,0,.43,6.32,25,25,0,0,1,.6,2.71v.15a.62.62,0,0,1-.67.55c-1.19-.08-5.73-4.86-6.06-11a.8.8,0,0,0-.73.1c-.79.75.16,4.18.56,5.64s.49,1.77.11,2l-.28.2-.35-.21c-3.67-2.67-4.52-6.75-4.88-8.64-.81,2,0,4.91.41,6.6.32,1.25.43,1.67.12,2l-.21.2-.35-.06c-4.15-2.07-5.71-8.57-6.2-11.27l1-.18c.33,1.85,1.61,7.72,4.8,10l-.12-.47c-.56-2.13-1.6-6.09.28-8.31a.56.56,0,0,1,.58-.22c.42.1.49.46.65,1.33a12.92,12.92,0,0,0,3.52,7.35.93.93,0,0,0,0-.13c-.79-2.87-1.41-5.55-.28-6.62a1.93,1.93,0,0,1,2.07-.24l.33.11v.35a15.18,15.18,0,0,0,4.61,10.07c-.12-.6-.28-1.19-.44-1.8a12.43,12.43,0,0,1-.32-7.23l.09-.28.28-.07c1.61-.35,2.33,1.82,3,3.93.21.65.42,1.27.63,1.78.6,1.38,2.37,4,3.06,4.24-.07-.29-.25-.94-.4-1.48a19.3,19.3,0,0,1-.82-3.75c0-.27,0-.53-.05-.78-.09-1.4-.17-2.6.77-3.1,1.48-.78,2.17.44,2.78,1.52a7.42,7.42,0,0,0,2.3,2.79c-.4-1.23-.9-2.86-.19-3.8a1.76,1.76,0,0,1,1.53-.61c1.18,0,1.47.91,1.75,1.74a6.51,6.51,0,0,0,1.9,3l-.06-.24c-.35-1.36-.79-3.06-.46-4.11l.06-.2.19-.09a1.92,1.92,0,0,1,1.66-.11c1.22.51,1.8,2.34,2.22,3.67a8.08,8.08,0,0,0,.34,1,16.14,16.14,0,0,0,2.47,3.78c-.11-.4-.26-.88-.37-1.23a13.82,13.82,0,0,1-.46-1.62,16.57,16.57,0,0,1,.07-5.12l0-.12.08-.09a1.1,1.1,0,0,1,.93-.48c.73.05,1.22.86,2,2.09a10.81,10.81,0,0,0,3.31,3.91l0-.06a11.84,11.84,0,0,1-.82-1.72,10.89,10.89,0,0,1-.53-3.93l0-.12a1.34,1.34,0,0,1,1.18-.9,2.14,2.14,0,0,1,2.11,1.38,8.15,8.15,0,0,0,3.13,3.68,5,5,0,0,1-.51-.85c-.36-.74-1.5-3.27-.9-4.89l.08-.2.19-.09c1.36-.59,2.08.37,2.66,1.14a3.94,3.94,0,0,0,1.29,1.28,3.22,3.22,0,0,1-.22-2.46,1.82,1.82,0,0,1,1.19-1,1.33,1.33,0,0,1,1.78.88,3.13,3.13,0,0,0,.38.61,2.44,2.44,0,0,1,1.11-2.26l.56.84a1.5,1.5,0,0,0-.64,1.67,1,1,0,0,1-.2.91.66.66,0,0,1-.59.15,2.71,2.71,0,0,1-1.51-1.46c-.25-.5-.26-.49-.58-.39a.93.93,0,0,0-.6.44c-.22.49.11,1.32.33,1.87s.35.87.1,1.18a.6.6,0,0,1-.58.19,3.88,3.88,0,0,1-2.62-1.88c-.57-.76-.82-1-1.25-.89a7.22,7.22,0,0,0,.92,3.89,6.93,6.93,0,0,0,.56.91c.38.56.66,1,.4,1.37a.81.81,0,0,1-.87.27c-2.45-.75-3.58-2.81-4.48-4.46-.32-.59-.73-.9-1.12-.87a.5.5,0,0,0-.32.15,9.72,9.72,0,0,0,.47,3.48,11.89,11.89,0,0,0,.76,1.57c.48.88.72,1.32.4,1.7a.62.62,0,0,1-.74.16c-2.32-.77-3.68-3.05-4.68-4.71a6.1,6.1,0,0,0-1.16-1.61l0,0a16.26,16.26,0,0,0,0,4.62c.07.34.25.92.43,1.48.53,1.67.75,2.43.3,2.82a.68.68,0,0,1-.77.07c-1.18-.6-2.73-3.13-3.48-4.7a8.4,8.4,0,0,1-.39-1.08c-.34-1.09-.86-2.73-1.66-3.06a.74.74,0,0,0-.61,0,10.69,10.69,0,0,0,.52,3.34c.32,1.26.43,1.69.07,2l-.25.2-.37-.15a7.61,7.61,0,0,1-3.2-4.26c-.3-.88-.39-1-.85-1.06s-.65.16-.7.21c-.41.55.1,2.13.38,3s.39,1.2.09,1.49l-.21.22-.36-.09a7.67,7.67,0,0,1-3.67-3.7c-.73-1.29-.89-1.42-1.44-1.12-.37.19-.31,1.1-.24,2.14,0,.26,0,.53.05.81a19.24,19.24,0,0,0,.78,3.52c.39,1.37.51,1.85.42,2.17l-.06.12A1,1,0,0,1,266.24,418Z" transform="translate(-232.58 -353.45)"/><path d="M266.17,447.55a15.77,15.77,0,0,0-.62-2.22c-.16-.48-.33-1-.53-1.74a7.87,7.87,0,0,1-.21-3.13l0-.19.15-.8a4.19,4.19,0,0,0-.45.7,9.24,9.24,0,0,0-.85,2.45,14.74,14.74,0,0,0-.39,4.62l-1,.09a15.49,15.49,0,0,1,.4-4.91,10.62,10.62,0,0,1,.94-2.71c.34-.66,1.19-1.74,1.72-1.88l.22-.06.25.13c.37.24.37.68,0,2.57l0,.18a6.91,6.91,0,0,0,.2,2.69c.19.74.35,1.21.51,1.66a18.1,18.1,0,0,1,.65,2.35Z" transform="translate(-232.58 -353.45)"/><path d="M267.69,447.65a14.12,14.12,0,0,1,.54-4.71,7.89,7.89,0,0,1,1-2.36l.11-.19c.34-.58,1.08-1.48,1.6-1.59l.22-.05.52.34-.08.33s-.39,1.62-.52,2.23a7.27,7.27,0,0,0,.13,2.69,7.15,7.15,0,0,0,.18.7,10.72,10.72,0,0,1,.41,2.29l-1,.07a9.26,9.26,0,0,0-.38-2.09c-.07-.25-.13-.49-.19-.77a8.48,8.48,0,0,1-.13-3.09c0-.15.08-.37.14-.62l0,.06-.13.21a7.25,7.25,0,0,0-.93,2.08,13.51,13.51,0,0,0-.5,4.43Z" transform="translate(-232.58 -353.45)"/><path d="M277.63,446.24a10.7,10.7,0,0,1-.18-3.55,12.9,12.9,0,0,1,.58-2.17,6.44,6.44,0,0,1,1.45-2.2.7.7,0,0,1,.78-.11c.39.23.41.67.13,2.6a8.21,8.21,0,0,0,.15,2.65l.07.2a12.66,12.66,0,0,1,.53,2.11l-1,.16a10.21,10.21,0,0,0-.49-1.95l-.07-.21a8.91,8.91,0,0,1-.19-3.1c.05-.34.09-.61.11-.84a4.41,4.41,0,0,0-.53,1,11.72,11.72,0,0,0-.54,2,10.21,10.21,0,0,0,.17,3.24Z" transform="translate(-232.58 -353.45)"/><path d="M274.43,447l-.95-.32a4.26,4.26,0,0,1,1.48-2.2.89.89,0,0,1,.83-.17c.35.16.4.51.45.86,0,.18,0,.34,0,.5a2.26,2.26,0,0,0,.06.57l-.94.34a2.63,2.63,0,0,1-.12-.86,1.41,1.41,0,0,1,0-.2A3.58,3.58,0,0,0,274.43,447Z" transform="translate(-232.58 -353.45)"/><path d="M292.33,440.11a6.07,6.07,0,0,1-.55-1.52,3.74,3.74,0,0,1,.28-2.75l.19-.31.43.05c.4.1.51.51.66,1.09a3.05,3.05,0,0,0,.19.6,5.34,5.34,0,0,0,.9,1.31l-.7.72a6.32,6.32,0,0,1-1.06-1.52,5.06,5.06,0,0,0,.09.6,5.45,5.45,0,0,0,.42,1.21Z" transform="translate(-232.58 -353.45)"/><path d="M288.29,442.65l.46-.2-.49.12a7.48,7.48,0,0,1-.71-3s.07-2.84.77-3.25l.25-.15.22.1c.35.09.43.42.63,1.25a9.4,9.4,0,0,0,.75,2.3,8.17,8.17,0,0,0,.73,1.08l-.6.8a7.27,7.27,0,0,1-1-1.38,8.26,8.26,0,0,1-.67-1.81,9.86,9.86,0,0,0-.08,1.05,6.55,6.55,0,0,0,.63,2.6l-.43.28Z" transform="translate(-232.58 -353.45)"/><path d="M281.46,445.35a9.66,9.66,0,0,1,.13-3.72c.2-.89,1.06-3.14,1.82-3.46l.12-.05.34,0,.15.18c.18.22.15.46.07,1a8.9,8.9,0,0,0,0,3.06,7.93,7.93,0,0,0,.33,1,12,12,0,0,1,.4,1.21l-1,.22a10.81,10.81,0,0,0-.37-1.08,8.43,8.43,0,0,1-.37-1.13,8.26,8.26,0,0,1-.13-1.87,8.91,8.91,0,0,0-.39,1.17,8.65,8.65,0,0,0-.12,3.32Z" transform="translate(-232.58 -353.45)"/><path d="M246.15,452.13a12.86,12.86,0,0,1-.59-6.05s.26-2.26,1.07-2.41a.61.61,0,0,1,.66.35,2.85,2.85,0,0,1,.28,1.22,3.82,3.82,0,0,0,.05.45,4.52,4.52,0,0,0,.4,1c.07.13.14.26.2.4l-.91.41-.18-.36a4.92,4.92,0,0,1-.48-1.23l0-.15c0,.16-.06.3-.07.42a11.86,11.86,0,0,0,.53,5.58Zm.29-7.58Z" transform="translate(-232.58 -353.45)"/><path d="M247.55,451.13a17.86,17.86,0,0,1-.2-4.24c.08-.43.45-1.93.6-2.39l0-.11c.63-1.88.83-2.37,1.37-2.32a.6.6,0,0,1,.52.56l0,.08,0,.08a10.19,10.19,0,0,0,0,1.59,13.59,13.59,0,0,0,.41,2.52,7,7,0,0,0,1.46,2.39l-.4.92c-.7-.29-1.8-2.25-2-3a14.87,14.87,0,0,1-.41-2.23c-.15.49-.46,1.76-.54,2.15a18.12,18.12,0,0,0,.17,3.75Z" transform="translate(-232.58 -353.45)"/><path d="M256.87,447.84c0-.18-.07-.46-.13-.79a18,18,0,0,1-.26-1.91,16.54,16.54,0,0,1,.24-3c.16-.82.63-2.66,1.35-2.59.34.05.5.33.46.83a6.51,6.51,0,0,0,1,3.75,10.06,10.06,0,0,1,1.15,3.33l-1,.14a8.89,8.89,0,0,0-1-3,8.25,8.25,0,0,1-.92-2.32h0a15.45,15.45,0,0,0-.22,2.75,17.69,17.69,0,0,0,.25,1.77c.06.34.11.65.13.83Z" transform="translate(-232.58 -353.45)"/><path d="M251.89,449.53a20.37,20.37,0,0,1-.52-3.21,19.5,19.5,0,0,1,.59-4.58s.92-3.62,2.35-3.49l.1,0c.51.17.4.68.26,1.39a11.16,11.16,0,0,0-.19,1.26,6.18,6.18,0,0,0,.23,2.32,7,7,0,0,0,.68,1.64c.14.26.29.55.47.91a9.71,9.71,0,0,1,.55,2.2l0,.21-1,.16,0-.21a8.52,8.52,0,0,0-.47-1.93c-.16-.35-.31-.62-.44-.87a7.8,7.8,0,0,1-.77-1.85,7.16,7.16,0,0,1-.26-2.66,5.93,5.93,0,0,1,.07-.59,10.63,10.63,0,0,0-.62,1.71,17.52,17.52,0,0,0-.57,4.27,21.11,21.11,0,0,0,.47,2.94Z" transform="translate(-232.58 -353.45)"/><path d="M243.46,410.67c-1.05,0-2.55-4-2.65-4.37a24,24,0,0,1-.81-4.38l1-.09a23.52,23.52,0,0,0,.77,4.2,14.87,14.87,0,0,0,1.25,2.79,7.68,7.68,0,0,1,.38-1.86l.95.33A6.14,6.14,0,0,0,244,410v.13a.6.6,0,0,1-.55.56Z" transform="translate(-232.58 -353.45)"/><path d="M241.18,409.05c-1,0-2.08-3.85-2.2-4.29a15.81,15.81,0,0,1-.52-3.42l1-.09a14.55,14.55,0,0,0,.48,3.24,22.48,22.48,0,0,0,.95,2.61c0-.14.06-.28.1-.44l0-.1,1,.22,0,.1a5.25,5.25,0,0,0-.22,1.42v.19a.59.59,0,0,1-.53.56Z" transform="translate(-232.58 -353.45)"/><path d="M239.31,406.83h-.09c-1.15-.16-1.75-4.15-1.84-5.58l1-.06a11.48,11.48,0,0,0,1.13,4.71.33.33,0,0,0-.25-.06.37.37,0,0,0-.23.14l.95.33A.72.72,0,0,1,239.31,406.83Z" transform="translate(-232.58 -353.45)"/><path d="M237.83,405.55l-.2,0-.24,0-.12-.22a13,13,0,0,1-1.22-4.54l1-.12a12.33,12.33,0,0,0,1,3.95l.52.56-.07.08A.77.77,0,0,1,237.83,405.55Z" transform="translate(-232.58 -353.45)"/></g><g class="fenestra"><path d="M301.8,396h-.1c-.77,0-1.58-.06-2.43-.11a40.71,40.71,0,0,0-4.58-.1,18.34,18.34,0,0,1-3.87-.35l-.4-.07a20.17,20.17,0,0,1-6.5-3.83c-1.8-2-1.14-5.41-.75-7.46l.05-.22c.3-1.6,2.35-3.55,3.7-4.84l.36-.34a22.07,22.07,0,0,1,8.18-5.07,55.71,55.71,0,0,1,7.56-2.18,14.18,14.18,0,0,0,3.53-1.08h0a7.38,7.38,0,0,1,4.9-.88c1.95.85,1.09,3.61.52,5.44-.11.35-.21.67-.28.93l0,.15c-.72,2.82-1.61,6.32.19,8.57,1.66,2.07.67,5.22-2.63,8.42A12.62,12.62,0,0,1,301.8,396ZM296,394.72c1.16,0,2.28.07,3.38.13.83,0,1.63.1,2.39.11a11.74,11.74,0,0,0,6.81-2.73c1.08-1.06,4.47-4.67,2.54-7.08-2.11-2.64-1.15-6.42-.38-9.45l0-.15c.07-.27.18-.61.29-1,.47-1.49,1.16-3.73.12-4.2a7.06,7.06,0,0,0-.77-.05,7,7,0,0,0-3.33.87h0a14.79,14.79,0,0,1-3.8,1.17,57.34,57.34,0,0,0-7.44,2.15,21.09,21.09,0,0,0-7.82,4.85l-.36.35c-1.18,1.12-3.16,3-3.41,4.3l0,.22c-.36,1.87-1,5,.5,6.6a20,20,0,0,0,5.92,3.51l.4.07a17.44,17.44,0,0,0,3.66.34Z" transform="translate(-232.58 -353.45)"/><path d="M243.47,389.65a2.54,2.54,0,0,1-1.52-.5c-1.12-.84-1.49-2.48-1-4.26.94-3.18,2.39-3.94,5.28-5.46l.84-.46a14.87,14.87,0,0,1,3-1.43h0a8.74,8.74,0,0,1,2.66-.19,16.1,16.1,0,0,0,2.6.1c.6,0,1,0,1.28.19a.76.76,0,0,1,.36.42c.13.39-.08.77-.37,1.3a9.57,9.57,0,0,0-.55,1.11c-.29.68-1.31,1.23-2.63,1.89a9,9,0,0,0-.82.44c-.19.12-.47.28-.8.45a9,9,0,0,0-1.89,1.22,19.29,19.29,0,0,1-4.8,4.65A3.1,3.1,0,0,1,243.47,389.65Zm6.86-11.13a14.4,14.4,0,0,0-2.73,1.32l-.87.48c-2.8,1.47-4,2.08-4.78,4.85-.49,1.65,0,2.72.6,3.18a1.75,1.75,0,0,0,2-.07,18.46,18.46,0,0,0,4.57-4.43,8.21,8.21,0,0,1,2.19-1.48c.3-.16.57-.3.75-.42s.53-.29.91-.48c.64-.32,2-1,2.14-1.38s.43-.89.6-1.21c.08-.15.18-.32.23-.44h-.59a17,17,0,0,1-2.74-.11,7.94,7.94,0,0,0-2.33.18Z" transform="translate(-232.58 -353.45)"/><path d="M323.5,395.48a3.55,3.55,0,0,1-1.38-.3,3.45,3.45,0,0,1-1.94-1.9,5.59,5.59,0,0,1-.19-1.47,5.47,5.47,0,0,0-.14-1.19,6.35,6.35,0,0,0-.54-1.21l-.27-.51a7.88,7.88,0,0,1-1-4.82c.53-5.29,1.4-7.07,2-8.37a5.77,5.77,0,0,0,.72-2.2,17.84,17.84,0,0,1,1.86-6.47,4.76,4.76,0,0,1,5.61-2.59h0c2.91.68,4.41,1.69,5,3.38a8.76,8.76,0,0,1-.8,8,9.44,9.44,0,0,1-3.44,2.82,7.48,7.48,0,0,1-2.67.1,5.13,5.13,0,0,0-2.43.14c-.57.4-.35,1.18.05,2.32a6.49,6.49,0,0,1,.36,1.27,2.17,2.17,0,0,0,1.42.95c.45.14.91.29,1,.75a2.3,2.3,0,0,1-.4,2.31,4.54,4.54,0,0,0-.33.54,3.44,3.44,0,0,0,.08,1.86,4.71,4.71,0,0,1,.15,1.75c0,.23-.07.5-.11.81-.15,1.35-.37,3.19-1.63,3.8A2.48,2.48,0,0,1,323.5,395.48Zm3.44-30.16a3.59,3.59,0,0,0-3.42,2.14,16.36,16.36,0,0,0-1.77,6.16,7,7,0,0,1-.82,2.53c-.6,1.23-1.43,2.92-1.93,8a6.91,6.91,0,0,0,.94,4.28c.09.18.17.34.26.49a6.84,6.84,0,0,1,.6,1.4,6.38,6.38,0,0,1,.19,1.43,4.52,4.52,0,0,0,.14,1.21,2.5,2.5,0,0,0,1.38,1.28,2,2,0,0,0,1.62.09c.76-.36.95-2,1.07-3,0-.33.08-.63.12-.87a4.3,4.3,0,0,0-.15-1.38,4,4,0,0,1,0-2.5,6.36,6.36,0,0,1,.38-.64c.33-.51.52-.8.3-1.42a3,3,0,0,0-.4-.14,3,3,0,0,1-2-1.54l-.05-.17a4.72,4.72,0,0,0-.32-1.13c-.38-1.1-.91-2.6.33-3.47a5.16,5.16,0,0,1,3.07-.31,6.86,6.86,0,0,0,2.27-.06,8.61,8.61,0,0,0,2.94-2.42,7.81,7.81,0,0,0,.69-7.12c-.5-1.34-1.75-2.14-4.32-2.74A5.08,5.08,0,0,0,326.94,365.32Zm-1.1,19.17h0Z" transform="translate(-232.58 -353.45)"/><path d="M353.71,405.65a7.9,7.9,0,0,1-1.59-.22l-1.92-.37a86.94,86.94,0,0,1-8.91-2c-1.86-.55-2.15-3.46-2.16-5.15a36.65,36.65,0,0,1,.82-6.55,44.16,44.16,0,0,1,2-6.39l.38-1c.53-1.43,1.09-2.91,1.48-4.2a14.53,14.53,0,0,0,.47-3.77,15.62,15.62,0,0,1,.62-4.45l0-.05a3.15,3.15,0,0,1,2.56-1.77c3-.41,7.24,1.8,8.69,3.48a14.69,14.69,0,0,0,1.58,1.42c1.72,1.44,3.68,3.08,3.67,4.67a3.88,3.88,0,0,1-1.7,3.39,3.8,3.8,0,0,1-3.65.11c-1.67-.8-9.44-1.19-10.09,0a7.84,7.84,0,0,0-.54,5.69c.6,1.47,4.36,5.66,5.83,7.16a18.23,18.23,0,0,0,1.5,1.27c1.3,1,2.78,2.22,3.23,3.33a6.16,6.16,0,0,1-.15,4A2.06,2.06,0,0,1,353.71,405.65Zm-7.91-33.8a14.6,14.6,0,0,0-.56,4.14,15.79,15.79,0,0,1-.51,4c-.41,1.32-1,2.82-1.51,4.26l-.38,1a44.54,44.54,0,0,0-1.91,6.24,37.57,37.57,0,0,0-.81,6.25v.1c0,2.36.55,3.93,1.45,4.19a85.87,85.87,0,0,0,8.81,2l1.93.37c1.59.32,2.18.35,2.56-.63a5.28,5.28,0,0,0,.16-3.25c-.36-.87-1.79-2-2.93-2.93a18.2,18.2,0,0,1-1.59-1.35c-.85-.86-5.28-5.63-6-7.47a8.76,8.76,0,0,1,.58-6.56c1.21-2.18,10.13-1,11.41-.4a2.77,2.77,0,0,0,2.68-.06,2.92,2.92,0,0,0,1.23-2.56c0-1.11-1.91-2.71-3.31-3.88a14.94,14.94,0,0,1-1.7-1.53c-1.27-1.49-5.19-3.51-7.79-3.15A2.12,2.12,0,0,0,345.8,371.85Z" transform="translate(-232.58 -353.45)"/><path d="M330,449.17c-1.11,0-2.77-.15-3.24-1a1.16,1.16,0,0,1,.23-1.34,6.27,6.27,0,0,1,2.48-2.13l.12-.06a47.9,47.9,0,0,0,6.09-3.76,1.48,1.48,0,0,0,.41-.75,1.89,1.89,0,0,1,1.17-1.41l.13,0,.91.22a2.45,2.45,0,0,1,1.12,1.94,10.24,10.24,0,0,1-.62,3.35,6.6,6.6,0,0,1-2.28,2.7c-.44.38-.9.76-1.31,1.19-.79.81-2.27.91-3.46,1l-.72.05S330.62,449.17,330,449.17Zm7.49-9.45c-.25.13-.33.35-.45.74a2.44,2.44,0,0,1-.72,1.2,51.07,51.07,0,0,1-6.25,3.87l-.13.07a5.36,5.36,0,0,0-2.17,1.86c-.13.16-.13.24-.13.24.14.32,1.81.6,3.28.43l.77-.06c1-.06,2.28-.14,2.8-.68a16.17,16.17,0,0,1,1.39-1.25,5.85,5.85,0,0,0,2-2.27,8.91,8.91,0,0,0,.57-3,1.47,1.47,0,0,0-.59-1.08Z" transform="translate(-232.58 -353.45)"/>
	</g>
</svg>