<svg xmlns="http://www.w3.org/2000/svg" viewBox="0 0 186.79 149.69">
  <defs>
    <style>
      path {
        fill: none;
        stroke: #000;
        stroke-miterlimit: 10;
      }
    </style>
  </defs>
  <title>Tyrannosaurus rex</title>
  <metadata>
        <phyloxml xmlns:xsi="http://www.w3.org/2001/XMLSchema-instance" xmlns="http://www.phyloxml.org" xsi:schemaLocation="http://www.phyloxml.org http://www.phyloxml.org/1.10/phyloxml.xsd">
            <phylogeny rooted="true" rerootable="false">
                <clade>
                    <name>Animalia</name>
                    <clade>
                        <name>Chordata</name>
                        <clade>
                            <name>Dinosauria</name>
                            <clade>
                                <name>Saurischia</name>
                                <clade>
                                    <name>Theropoda</name>
                                    <clade>
                                        <name>Tyrannosauridae</name>
                                        <clade>
                                            <name>Tyrannosaurinae</name>
                                            <clade>
                                                <name>Tyrannosaurus</name>
                                            </clade>
                                        </clade>
                                    </clade>
                                </clade>
                            </clade>
                        </clade>
                    </clade>
                </clade>
            </phylogeny>
        </phyloxml>
    </metadata>
  <g class="outline">
    <path class="cls-1" d="M227.75,465.22c.09-.58-.66-1.49-.91-2.65a9.43,9.43,0,0,1-.08-3.14,16.51,16.51,0,0,1,.56-3.62c.25-.68.49.15.64.69s.62,2.08.87,1.58a10.72,10.72,0,0,1,1-3.24c.24-.57,1.13-2.43,1.5-1.83.27,1-.19,3.11,0,4.16a12.59,12.59,0,0,0,1.24,3.15,5.22,5.22,0,0,0,.58,1,4.92,4.92,0,0,0,.6.67c.92.75,1.07-.28,1.07-1,0-1.87,0-3.23-.09-5.05a13.54,13.54,0,0,1,.92-5.65,5,5,0,0,1,1.49-2.32c.92-.42,0,2.75.17,4.07a24.83,24.83,0,0,0,1.58,4.65c.47,1.22.77,3.07,1.16,3.24a2.82,2.82,0,0,0,1.48.15c.11-1.94-.25-3.77-.15-5.7a11.54,11.54,0,0,1,.42-2.74c.22-.74,1.13-2.65,1.07-1.76-.16,2.82,1.75,6.09,2.5,7.56.62,1.23.33,2.57,2.65,2.07.86-.18.69-1.89.79-2.72.13-1.1.24-2.54.46-3.59.27-1.29,1.74-5.89,3.49-5.65.75,0-.83,3.07-.17,6,.28,1.2.82,3.06,1.17,4.24.13.45.19,1.2.58,1.41a4.12,4.12,0,0,0,1.4,0,7,7,0,0,0,.34-2.15,18.37,18.37,0,0,1,.85-4c.17-.7,2.22-5.64,3.39-4.48.44.43-.2,2.75-.25,3.32a15.22,15.22,0,0,0,0,3.57c.34,1.45.57,3.57,2.23,3.57,2.67,0,1.59-1.91,3.34-3.4,1.18-.93.46,1.88,1.16,2.41.33.25,1.75-.26,2.33-.75a10.86,10.86,0,0,1,.16-4.82,22.37,22.37,0,0,1,.92-2.41A5.47,5.47,0,0,1,272,448c.75-.59-.18,1.4-.25,2.16a17.78,17.78,0,0,0,.25,3.4c.09.83,1.74,3.74,2.23,3a23.68,23.68,0,0,1,1.29-7.37c1-1.76,1.55-1.92,1,0a10.87,10.87,0,0,0,.17,3c.09.89.42,2.8,1.16,3.41.64-.22,1.87-.89,2.49-1.11a9.54,9.54,0,0,0,2.26-1c.84-.58.68-.93.57-1.92-.09-.82-.43-1.59-.5-2.41a8.8,8.8,0,0,1,.25-2.64c.66-2.85,1.23,1.5,1.57,2.22.56,1.17,1.06,2.91,2.9,1.89a2.17,2.17,0,0,0,.84-.89c.22-.64-.15-1.1-.36-1.68s-.33-3.63.61-3.81-.16,1.5.94,2.48c.35.31.89.92,1.31,1,.89.21,1.32-.58,2.07-1.08l.5-.41c2.33-1.83,8.44-7.92,9.28-10.46,1.35-3,11.87-8.36,13.36-9.11,3.53-1.79,13.52-7.7,15.13-8.53,8.3-4.28,12.66-4.9,16.69-5.32,2.6-.28,9.67-.7,12-.39V412c-2.66-.37-3.33-.47-6.49-.85-5.1-.63-10.18-1-15.15.11a33.92,33.92,0,0,0-4.61,1.93,6.39,6.39,0,0,1-5.16-.42c-2.7-1.38-6-5.28-7.67-7.5l-.2-.11c-.5-.08-4.65-.35-8.44-1-4.07-.7-8.06-1.78-12.34-1.78l-1.15.25c-2.16,1.44-.5,3.37-1.39,3.21-1.93-.78-1.3-3-3.1-2.44-3.1,1,.23,5-.66,4.88-3.24-.44-3.27-4.66-5.82-3.55-.64,1.74.53,4.67,1.17,6s2.1,2.66.83,2.44c-2.88-.89-4.28-3.38-5.49-5.6s-2.93-1.55-3.15-.77a13.85,13.85,0,0,0,.66,5c.63,1.82,2.38,4,1.39,3.72-5.32-1.78-6.76-10.36-8.61-8.06a21.22,21.22,0,0,0-.09,6.56c.28,1.57,2.05,5.65.89,5.09s-3.17-3.53-4.32-5.92c-.71-1.48-1.62-7.26-4.71-5.71-.66,2.11,1.61,7.43.83,7-5-3.55-3.15-7-5.65-7.15-4-.16-.05,6.7-.88,6.43-5-2.22-4.49-7.87-7.32-6.37-1,.55-.71,2.27-.6,4.54s1.8,6.77,1.62,7.34c-1.13,1.74-4.62-4.06-5.34-5.73-1.16-2.72-2-7.67-4.09-7.2-1.5,5.09.61,8.64,1.22,12.79-.19,1.3-7.43-5.48-7.65-14.34-5.81-1.94-.22,11-1.19,10.29-6.67-4.87-6-13.4-6.73-12.45-3.32,3.93,1,12.73,0,12.46-2.82-.75-5.73-5.9-6-7.56l-.33-.58c-.75.33.33,3.82-.66,3.23a32.11,32.11,0,0,1-2.16-2.57c-.39,0-.47.47-.75.5-.53.07-.89-.57-1.17-1s-.48-1.32-1-1.74-.83.17-1.31-.5a8.51,8.51,0,0,0-.69-1.13c-.24-.2-.55,0-.81-.19-.45-.34-1.74-4.25-1.83-6.49l.09-.08c-.86-.33-.15.12-.88-.46-1.38-1.11-1.53-5-1.24-6.69,1.2-7.14,0-10.27,2.08-14.45a13.23,13.23,0,0,1,4.65-5.53c2.48-1.85,5.19-2.37,8.35-3.67a70.07,70.07,0,0,1,7.81-2.72c1-.3,5.52-1,6.39-1.58,2.25-1.54,2.87-.5,4.07-1,1.53-.69,1-1.3,3.53-1.83.82-.17,2.9,0,3.62-.25a9.15,9.15,0,0,0,2.33-.93c1.72-1.21,3.93-.73,6.14-1a23.55,23.55,0,0,1,7.54,0c3.29.66,2.8-.93,5.8-2,2.66-1,4.83.2,7.14-.42,1.26-.33,3.67-1.45,5-1.62a13.54,13.54,0,0,1,2.41.29,11.41,11.41,0,0,0,5.94-1.58c2.55-2.27,3.42-.71,7.77-2.2s9.68-3.24,16.49-5.9c2-.76,5.68-2.26,7.67-2.86a9.8,9.8,0,0,1,5.13,0,40.48,40.48,0,0,0,6.93-1.79c4.58-1.4,12.19-.32,16.37,1.33,2.08.83,2.36,1.38,4.36.07s2.58-2.69,4.93-3.06c5.14-.82,3.62,6.95,7.2,8.81a39.32,39.32,0,0,1,11.8,9.39c1.29,1.46,5.09,5.91,6.09,7.45,1.42,2.16,5,8.16,5.47,9.2.57,1.3,1.06,2.33,1.57,3.71.78,2.12,1.43,5.84.49,8.13-.73,1.79-2.59,3.69-4.26,4-1.44.31-2.82.78-4.3.11a5.41,5.41,0,0,1-1.49-1.08l-.33-.16c-.84-.25-1.64,2-3.41,6.45-1.59,3.62-2.42,7.34-1.1,11.3.77,2.31.93,2.83,1.35,3.14l.12.13c1.71,1.16,4.1,2.68,3.62,5.36-.41,2.3-2.63,3.56-4.83,3.77l-.7.25c-.61.24-1.38.56-.43.7,2.64.39,7,0,8.82-1.8l1,0c2,1,2.25.71,2.81,2.93a15.72,15.72,0,0,0,1.68,4.63c1.94,3.17,2.48,4.49,1.72,8.13-.34,1.58-1.11,2.19-1.77,3.77-.77,1.85-1.26,2.56-3.24,1.84a10.68,10.68,0,0,0-8.08.31c-3.88,1.57-5.94,3.25-9,5.9-3.94,3.47-7.38,8.23-11.5,11.67s-8.2,6.95-12.9,9.14c-5.56,2.59-19.64,6-26.15,6.85-3.22.43-7.46.22-10.58.44A114.37,114.37,0,0,0,294.44,475c-10.91,2.92-18.48,5.65-29.28,8-2.45.53-12.22,2.53-14.35,2.74-5.06.49-9-2.21-12.92-5a74.44,74.44,0,0,1-10.5-9.27c-2.54-2.68-1.38-4.92-.13-5.67Z" transform="translate(-211.06 -336.56)"/>
  </g>
  <g class="teeth">
    <path class="cls-1" d="M222.66,400.59c.39,2.16,2.3,11.72,7.75,14.46,1,.27-3.32-8.53,0-12.46.72-.95.06,7.58,6.73,12.45,1,.67-4.62-12.23,1.19-10.29.22,8.86,7.46,15.64,7.65,14.34-.61-4.15-2.72-7.7-1.22-12.79,2.09-.47,2.93,4.48,4.09,7.2.72,1.67,4.21,7.47,5.34,5.73.18-.57-1.51-5-1.62-7.34s-.44-4,.6-4.54c2.83-1.5,2.28,4.15,7.32,6.37.83.27-3.11-6.59.88-6.43,2.5.11.61,3.6,5.65,7.15.78.39-1.49-4.93-.83-7,3.09-1.55,4,4.23,4.71,5.71,1.15,2.39,3.1,5.32,4.32,5.92s-.61-3.52-.89-5.09a21.22,21.22,0,0,1,.09-6.56c1.85-2.3,3.29,6.28,8.61,8.06,1,.33-.76-1.9-1.39-3.72a13.85,13.85,0,0,1-.66-5c.22-.78,1.95-1.42,3.15.77s2.61,4.71,5.49,5.6c1.27.22-.15-1.05-.83-2.44s-1.81-4.24-1.17-6c2.55-1.11,2.58,3.11,5.82,3.55.89.16-2.44-3.88.66-4.88,1.8-.58,1.17,1.66,3.1,2.44.89.16-.74-2.09,1.42-3.53" transform="translate(-211.06 -336.56)"/>
    <path class="cls-1" d="M249.11,459.12a20,20,0,0,1,.52-6.33,13.36,13.36,0,0,1,1.19-3.43c.55-1.08,1.75-2.29,2-2.16s-.25,2.43-.36,3a9.48,9.48,0,0,0,.28,3.87c.58,2.29,1,2.69,1.53,5.3" transform="translate(-211.06 -336.56)"/>
    <path class="cls-1" d="M256.25,459.58a18.24,18.24,0,0,1,.69-6.07,10.93,10.93,0,0,1,1.47-3.22c.61-1,1.58-1.93,1.78-1.78,0,0-.53,2.18-.69,3a10.55,10.55,0,0,0,.17,3.85,20,20,0,0,1,.77,3.88" transform="translate(-211.06 -336.56)"/>
    <path class="cls-1" d="M269.45,457.62a13.72,13.72,0,0,1-.23-4.5,16,16,0,0,1,.75-2.78,7.5,7.5,0,0,1,1.7-2.6c.33-.25.59-.45.14,2.68a11.24,11.24,0,0,0,.23,3.83,15.26,15.26,0,0,1,.77,3" transform="translate(-211.06 -336.56)"/>
    <path class="cls-1" d="M263.91,458.5a4.9,4.9,0,0,1,1.72-2.58c.57-.39.58-.1.67.51a8.73,8.73,0,0,0,.16,1.5" transform="translate(-211.06 -336.56)"/>
    <path class="cls-1" d="M288.9,449.24a8.29,8.29,0,0,1-.64-1.81,4.46,4.46,0,0,1,.29-3.17c.31-.34.5,1.34.8,1.88a7.79,7.79,0,0,0,1.32,1.89" transform="translate(-211.06 -336.56)"/>
    <path class="cls-1" d="M283.59,452.7a9.48,9.48,0,0,1-.94-3.83c0-.82.34-4,.8-3.74.24.05.59,2.94,1.44,4.41a10,10,0,0,0,1.14,1.64" transform="translate(-211.06 -336.56)"/>
    <path class="cls-1" d="M274.54,456.44a12.13,12.13,0,0,1,.17-4.68c.32-1.44,1.45-3.9,2-4.14.28,0-.58,2.3-.06,5.09.11.59.82,2.17,1,2.91" transform="translate(-211.06 -336.56)"/>
    <path class="cls-1" d="M227.58,465.32a17.43,17.43,0,0,1-.75-7.72c.07-.73.69-3.2,1-2.51a7.31,7.31,0,0,1,.4,2.07,8.76,8.76,0,0,0,.83,2" transform="translate(-211.06 -336.56)"/>
    <path class="cls-1" d="M229.45,464a23.55,23.55,0,0,1-.25-5.3c.11-.58.6-2.54.78-3.09.35-1,1.14-3.46,1.28-2.6a14.15,14.15,0,0,0-.08,2.24,18.75,18.75,0,0,0,.58,3.51c.3,1.09,1.7,3.36,2.3,3.61" transform="translate(-211.06 -336.56)"/>
    <path class="cls-1" d="M245.56,459.49a12.69,12.69,0,0,0-1.45-4.18,9.38,9.38,0,0,1-1.36-5.38c.11-1.42-.88,1.43-1.1,2.52a23.31,23.31,0,0,0-.3,3.81c0,.83.43,2.82.52,3.52" transform="translate(-211.06 -336.56)"/>
    <path class="cls-1" d="M235.21,461.87a28.23,28.23,0,0,1-.66-4.08,24.71,24.71,0,0,1,.78-5.89c.19-.81,1.35-4.25,2.4-4.13.21.07-.26,1.5-.37,2.84a9.25,9.25,0,0,0,.33,3.31,18,18,0,0,0,1.57,3.5,13.49,13.49,0,0,1,.72,3" transform="translate(-211.06 -336.56)"/>
    <path class="cls-1" d="M219.45,398.76a31.22,31.22,0,0,0,1.05,5.71c.57,2,2.83,6.22,3,5.15a9,9,0,0,1,.44-3.88" transform="translate(-211.06 -336.56)"/>
    <path class="cls-1" d="M217.4,398a21,21,0,0,0,.66,4.43c.57,2,2.22,6.11,2.38,5a8.85,8.85,0,0,1,.33-2.33" transform="translate(-211.06 -336.56)"/>
    <path class="cls-1" d="M216,397.88c.25,4,1.66,7.88,2.16,6.53" transform="translate(-211.06 -336.56)"/>
    <path class="cls-1" d="M214.18,397.16a17,17,0,0,0,1.56,5.81c.45.07.39-.13.66-.38" transform="translate(-211.06 -336.56)"/>
  </g>
  <g class="skull">
    <path class="base" d="M396.24,375.68c-.51-1.38-1-2.41-1.57-3.71-.46-1-4.05-7-5.47-9.2-1-1.54-4.8-6-6.09-7.45a39.32,39.32,0,0,0-11.8-9.39c-3.58-1.86-2.06-9.63-7.2-8.81-2.35.37-3.06,1.82-4.93,3.06s-2.28.76-4.36-.07c-4.18-1.65-11.79-2.73-16.37-1.33a40.48,40.48,0,0,1-6.93,1.79,9.8,9.8,0,0,0-5.13,0c-2,.6-5.71,2.1-7.67,2.86-6.81,2.66-12,4.37-16.49,5.9s-5.22-.07-7.77,2.2a11.41,11.41,0,0,1-5.94,1.58,13.54,13.54,0,0,0-2.41-.29c-1.31.17-3.72,1.29-5,1.62-2.31.62-4.48-.56-7.14.42-3,1.1-2.51,2.69-5.8,2a23.84,23.84,0,0,0-7.54,0c-2.21.22-4.42-.26-6.14,1a9.15,9.15,0,0,1-2.33.93c-.72.3-2.8.08-3.62.25-2.57.53-2,1.14-3.53,1.83-1.2.54-1.82-.5-4.07,1-.87.6-5.35,1.28-6.39,1.58a68.16,68.16,0,0,0-7.81,2.73c-3.16,1.29-5.87,1.81-8.35,3.66a13.23,13.23,0,0,0-4.65,5.53c-2.1,4.18-.88,7.31-2.08,14.45-.29,1.71-.14,5.58,1.24,6.69.73.58,2.6.72,3.45,1s2.1,1,3.16,1.49a38.11,38.11,0,0,0,6.85,2.62c2.52.64,5.27.81,7.6,2.08,1.38.45,6.32,1.27,8.48,1.74,3.27.71,7.08.81,10.44,1.19a106.22,106.22,0,0,0,16.16.22c3.47-.15,6.58-.49,9.95-.78a29.55,29.55,0,0,0,8.39-1.72c4.45-1.92,7.73-2,12.34-2,4.28,0,8.27,1.08,12.34,1.78,2.23.39,6.24.87,8.43,1.11,1.66,2.22,5.18,6.13,7.88,7.51a6.39,6.39,0,0,0,5.16.42,33.92,33.92,0,0,1,4.61-1.93c5-1.1,10-.74,15.15-.11,3.16.38,8.53,1.83,11.46,2,2.45.13,2.29-.18,4.66.44,1.16,2.16,2.15,3.21,4.65,3.32a55,55,0,0,0,8,0c2.2-.21,4.42-1.47,4.83-3.77.48-2.68-1.67-4-3.33-5.31,0,0-.73-.17-1.76-3.32-1.3-4-.49-7.68,1.1-11.3a28.63,28.63,0,0,1,3.32-6.37,8.13,8.13,0,0,0,1.91,1.16c1.48.67,2.86.2,4.3-.11,1.67-.35,3.53-2.25,4.26-4C397.67,381.52,397,377.8,396.24,375.68Zm-156.69-5.62c-.43,1-3.42,2.21-4.32,2.78s-3.09,1.59-3.74,2.37a25,25,0,0,1-6.23,6.05c-2.78,1.8-5.77-.69-4.53-4.88,1.17-3.94,2.88-4.85,6.69-6.86a32.29,32.29,0,0,1,4.94-2.45,11.37,11.37,0,0,1,3.33-.25c3.11.38,4.44-.08,4.86.29C241.21,367.41,240.3,368.28,239.55,370.06Zm74.21,6.05c2.22,2.77.14,6.84-3.43,10.3a16,16,0,0,1-9.52,3.83c-2.79-.05-6-.45-9.37-.28a26.83,26.83,0,0,1-5.54-.55,26.83,26.83,0,0,1-8.25-4.88c-2.25-2.48-1.28-7-.77-9.64.41-2.11,3.61-5,5.21-6.53a28.44,28.44,0,0,1,10.63-6.59,74.33,74.33,0,0,1,10-2.88,19.67,19.67,0,0,0,4.87-1.5,9.21,9.21,0,0,1,6-1.11c2.33,1,.36,5.59-.17,7.66C312.45,367.82,311.12,372.81,313.76,376.11Zm27.39-12.32a12,12,0,0,1-4.23,3.49c-1.77.61-5.6-.54-6.94.4-1.78,1.24.14,3.94.27,5.51.85,1.81,3.09,1.57,3.26,2.23.58,1.58-.33,2.16-.91,3.32-.67,1.34.49,3.66.24,5-.28,1.51-.26,4.83-1.95,5.64s-4.38-.63-4.9-2.23c-.34-1.07-.11-2.4-.44-3.52a13.47,13.47,0,0,0-1.11-2.41,9.92,9.92,0,0,1-1.32-6c1.08-10.88,3.24-10.3,3.66-14a22.78,22.78,0,0,1,2.41-8.39c1.14-2.44,3.51-3.72,6.73-3.07,3.63.85,5.47,2,6.23,4.07A10.94,10.94,0,0,1,341.15,363.79Zm32.15,9c-1.91-.91-13-2-14.29.25a11,11,0,0,0-.74,8.14c.88,2.16,6.11,7.91,7.89,9.72,1.45,1.49,5.35,3.95,6.15,5.9a7.62,7.62,0,0,1-.21,4.82c-.82,2.1-2.54,1.57-4.61,1.16-4.43-.86-9.14-1.66-13.88-3.07-2.53-.76-2.39-6.07-2.41-6.32a49,49,0,0,1,1.08-8.47,62.22,62.22,0,0,1,2.58-8.39c.83-2.24,1.83-4.82,2.49-7,1.07-3.47.21-7.29,1.44-10.91,2-4.46,11.25-.6,13.85,2.44,1.49,1.74,6.84,5.06,6.81,7.64C379.4,372.72,376,374.05,373.3,372.76Z" transform="translate(-211.06 -336.56)"/>
    <path class="base" d="M395.3,423.55a15.72,15.72,0,0,1-1.68-4.63c-.56-2.22-.84-1.89-2.81-2.93l-1,0c-1.85,1.8-6.18,2.19-8.82,1.8-1-.14-2-.47-2.86-.68a12.43,12.43,0,0,0-3.7-.15c-2.09.13-3.33-1.8-5-2.55-3.2-1.4-5.92-1.48-9.43-1.92a85.88,85.88,0,0,0-12.18.18c-4,.42-8.39,1-16.69,5.32-1.61.83-11.6,6.74-15.13,8.53-1.49.75-12,6.16-13.36,9.11-.84,2.54-5.09,6.87-6.38,8.22a116.2,116.2,0,0,1-9.79,7.54,71.34,71.34,0,0,1-6.92,3.71c-2.1,1-10.75,2.75-13,3.26-2.55.58-8.83,1.38-18.18,1.14-4.38-.12-8.28.39-14.3,2.92-4,1.67-11.45,3.91-6.61,8.94a76.9,76.9,0,0,0,10.5,9.27c4,2.82,7.86,5.52,12.92,5,2.13-.21,11.9-2.21,14.35-2.74,10.8-2.35,18.37-5.08,29.28-8a114.37,114.37,0,0,1,19.39-3.35c3.12-.22,7.36,0,10.58-.44,6.51-.85,20.59-4.26,26.15-6.85,4.7-2.19,8.82-5.73,12.9-9.14S371,447,375,443.5c3-2.65,5.09-4.33,9-5.9a10.68,10.68,0,0,1,8.08-.31c2,.72,2.47,0,3.24-1.84.66-1.58,1.43-2.19,1.77-3.77C397.78,428,397.24,426.72,395.3,423.55ZM349.51,454.8c-.69,2-2.91,3.15-4.62,4.93-1.08,1.13-3.74,1-5.14,1.18-1.92.21-6.32,0-4.78-2a7.85,7.85,0,0,1,3.26-2.74,66.15,66.15,0,0,0,8.2-5.06c1-.82.53-2.27,1.9-2.76l.79.16a2.63,2.63,0,0,1,1.19,2A12.46,12.46,0,0,1,349.51,454.8Z" transform="translate(-211.06 -336.56)"/>
    <path class="cls-1" d="M289.94,360.3a38.09,38.09,0,0,0-6.86,1.58c-2.07.7-3.55,1.53-5.44,2.24s-3.95,2-5.81,2.7a57.1,57.1,0,0,0-6.33,3c-2.94,1.61-9,5.84-7.17,9.8,1.16,2.53,5.65,4.1,8.1,5.1,2.83,1.17,6,2.38,9.05,3.29,5,1.5,10.18,2.41,15.13,1.56,3.88-.66,3.52,2.27,5.49,3,1.77.66,3.93.33,5.48,2.44.46.63,2.87,1,3.66,1.49,1.93,1.22,5.59,3,7.58,4,3.37,1.71,6,2.56,8.31,5.65a24.56,24.56,0,0,0,7.26,6.61,6.39,6.39,0,0,0,5.16.42,33.92,33.92,0,0,1,4.61-1.93c5-1.1,10-.74,15.15-.11,3.16.38,8.53,1.83,11.46,2,2.45.13,3.18-.13,5.54.5,4.18,1.1,7.86,2.5,11.92.4,4.5-2.33.64-6.39-.39-9.54-1.3-4-.49-7.68,1.1-11.3,1.77-4.49,5.37-8.75,3.82-11.63-.9-1.68-6.2-3.38-7.86-4-4-1.44-9.64-.83-13.68-1.16-2.28-.19-4.55-.54-7-.61" transform="translate(-211.06 -336.56)"/>
    <path class="cls-1" d="M311,390.71c.13,1.26,1.91,1.17,2.79.29,1.13-1.13,1.06-2.81-.17-2.95" transform="translate(-211.06 -336.56)"/>
    <path class="cls-1" d="M269.37,381.57c.54-1.62-.29-2.91-1.53-4s-3.61-1.08-4.41,0c-1.91,2.69,3,6.44,5.7,4.32Z" transform="translate(-211.06 -336.56)"/>
    <path class="cls-1" d="M325.8,405.7c-1.66-.34-3.67-.22-5.29-.47" transform="translate(-211.06 -336.56)"/>
    <path class="cls-1" d="M311.61,353.74c1.31-.41,4.15-2.59,5.76-1.51s-.13,3.68-.48,5" transform="translate(-211.06 -336.56)"/>
    <path class="cls-1" d="M294.1,351.52c1.44,2.38,6.51,2.86,6.8,3.63.51,1.66-1.62,1.51-2.49,2.53" transform="translate(-211.06 -336.56)"/>
    <path class="cls-1" d="M239.72,370.23c2.53.45,4.47.79,6.14-.21s2.49-2.6,4.53-2.58c3.16.05,3.79-1.77,5.61-3.24,2.1-1.69,2.57-.78,5-.54s2.49-.45,4.44-1.28c1.57-.67,2.7.19,4.32-.71s7.11-.73,8.52-1.25c.77-.28,1.25-.66,2-1s2.65-.1,3.53-.13c5.29-.15,13.37-3.57,16.91-.16" transform="translate(-211.06 -336.56)"/>
    <path class="cls-1" d="M232.82,364a2.66,2.66,0,0,1,1,3" transform="translate(-211.06 -336.56)"/>
    <path class="cls-1" d="M226,380.7c-1.86,2.2-3.28,5.85-4.78,7.89-1.17,1.44-2,3.19-2.91,4.48s-1.08,2.75-.83,4.75" transform="translate(-211.06 -336.56)"/>
    <path class="cls-1" d="M355.69,340.61a13,13,0,0,1,3.57,1.58,30.12,30.12,0,0,1,4.32,3.07c1.19,1,4.74,3.83,5.69,4.82,4.16,4.33,15.1,13,12.59,13.29-1,.34-5.82-3.9-10.14-5.23-3.23-1-7.35-3-11-1.91-1.68.5-2.34,3.65-2.66,5.15a33.42,33.42,0,0,1-3.41,9.22c-.86,1.44-3.15,5.32-4.48,7.06-2.11,2.77-6.1,6.58-9.39,7.81-3.66,1.37-5,.28-8.68,1.46" transform="translate(-211.06 -336.56)"/>
    <path class="cls-1" d="M344,351.3c1.8.19,2.67-.63,4.2-.89s3.16-.13,4.66-.44c1.3-.28,2.53-.31,3.11-1.76.25-.62-.16-1.57,0-2.23s.79-1.19,1.11-2" transform="translate(-211.06 -336.56)"/>
    <path class="cls-1" d="M363.24,426.61A25.88,25.88,0,0,1,372,425c3.39.05,5.69.79,9.06,1.46,3.09.61,5.38.7,6.93-2.18,1.28-2.4.72-5.36-2.47-6.34" transform="translate(-211.06 -336.56)"/>
    <path class="cls-1" d="M340.45,460.79a16.26,16.26,0,0,0,4.59-.52c1.41-.3,3.92-1.29,4.25.33.55,2.7-5.25,5.14-7.32,6.59" transform="translate(-211.06 -336.56)"/>
    <path class="cls-1" d="M350,449.84c.92-.45.87-3.63,1-4.92.2-2.4.66-3,2.36-4.81,1.25-1.34,1.65-2.52,3.28-3.55,1.87-1.2,3.7-.88,5.85-.87,3.89,0,6.62-1,10.3-2.45.66-.26,5.39-1.6,7.09-2,2.61-.58,7.93-.71,8.19.65.3,2.64-2.76,2.31-4.28,3.35a15.09,15.09,0,0,0-4.5,4.81" transform="translate(-211.06 -336.56)"/>
    <path class="cls-1" d="M308.36,430.88c5.65.22-1.28,7.66-2.44,8.86" transform="translate(-211.06 -336.56)"/>
    <path class="cls-1" d="M371.55,424.87c-1.63,2.69-.59,4.9,2.78,4.73,2.11-.11,4.09-1.94,5.26-3.7" transform="translate(-211.06 -336.56)"/>
    <path class="cls-1" d="M333.32,408.24c1.85.58,4.76,2,5.51,3" transform="translate(-211.06 -336.56)"/>
    <path class="cls-1" d="M311.61,385c1.27.14,2.43-.49,3.53-.44s2.05.64,3.32.67,2.68-.46,4-.18,2.11,1.34,3.27,1.57" transform="translate(-211.06 -336.56)"/>
    <path class="cls-1" d="M367.74,413.14c-1.86-.72-4.48-1.71-6.47-2.34-2.22-.7-5-1.34-7-2-1.68-.55-11.35-2.25-7.89-5.65,1.12-1.11,5-.74,6.56-.75a33.76,33.76,0,0,1,7.39.94c2.89.65,8.7,2.37,10.8-.61a5.62,5.62,0,0,0,1.31-2.68" transform="translate(-211.06 -336.56)"/>
    <path class="cls-1" d="M386.71,382.09c2.38,1.55,4.27,2.05,6.36-.72,1.33-1.76,3.24-5.71,2.33-7.86" transform="translate(-211.06 -336.56)"/>
    <path class="cls-1" d="M364.08,345.26a18.86,18.86,0,0,1,6.31.83,18.47,18.47,0,0,1,5.65,2.75" transform="translate(-211.06 -336.56)"/>
    <path class="cls-1" d="M308.87,436.26a13.8,13.8,0,0,0,3.65,2.64,8.22,8.22,0,0,1,3.25,2.74c.93,1.51.58,2.12,2.27,3a22.26,22.26,0,0,1,5,3.09c2.62,2.29,4.66,2.71,8,3.69s3.81-.86,9.83,3" transform="translate(-211.06 -336.56)"/>
    <path class="cls-1" d="M363.5,345c1.28-1.65,2.78-6.22,1.94-8.11" transform="translate(-211.06 -336.56)"/>
    <path class="cls-1" d="M304.1,355.94a5.1,5.1,0,0,0,3.52-.87" transform="translate(-211.06 -336.56)"/>
    <path class="cls-1" d="M335.92,349.67" transform="translate(-211.06 -336.56)"/>
    <path class="cls-1" d="M333.32,340.22c-1.54,1.95-4.3,6.54-1.06,8.2,1.41.72,3.88,1.18,5.57,1.83" transform="translate(-211.06 -336.56)"/>
  </g>
  <g class="fenestrae">
    <path class="cls-1" d="M307.56,357.39a19.67,19.67,0,0,1-4.87,1.5,74.33,74.33,0,0,0-10,2.88,28.44,28.44,0,0,0-10.63,6.59c-1.6,1.54-4.8,4.42-5.21,6.53-.51,2.65-1.48,7.16.77,9.64a26.83,26.83,0,0,0,8.25,4.88,26.83,26.83,0,0,0,5.54.55c3.33-.17,6.58.23,9.37.28a16,16,0,0,0,9.52-3.83c3.57-3.46,5.65-7.53,3.43-10.3-2.64-3.3-1.31-8.29-.33-12.17.53-2.07,2.5-6.63.17-7.66A9.21,9.21,0,0,0,307.56,357.39Z" transform="translate(-211.06 -336.56)"/>
    <path class="cls-1" d="M232.36,367.07a32.29,32.29,0,0,0-4.94,2.45c-3.81,2-5.52,2.92-6.69,6.86-1.24,4.19,1.75,6.68,4.53,4.88a25,25,0,0,0,6.23-6.05c.65-.78,2.92-1.84,3.74-2.37s3.89-1.75,4.32-2.78c.75-1.78,1.66-2.65,1-2.95-.42-.37-1.75.09-4.86-.29A11.37,11.37,0,0,0,232.36,367.07Z" transform="translate(-211.06 -336.56)"/>
    <path class="cls-1" d="M335.92,349.67c-3.22-.65-5.59.63-6.73,3.07a22.78,22.78,0,0,0-2.41,8.39c-.42,3.74-2.58,3.16-3.66,14a9.92,9.92,0,0,0,1.32,6,13.47,13.47,0,0,1,1.11,2.41c.33,1.12.1,2.45.44,3.52.52,1.6,3.19,3,4.9,2.23s1.67-4.13,1.95-5.64c.25-1.33-.91-3.65-.24-5,.58-1.16,1.49-1.74.91-3.32-.17-.66-2.41-.42-3.26-2.23-.13-1.57-2.05-4.27-.27-5.51,1.34-.94,5.17.21,6.94-.4a12,12,0,0,0,4.23-3.49,10.94,10.94,0,0,0,1-10.05C341.39,351.7,339.55,350.52,335.92,349.67Z" transform="translate(-211.06 -336.56)"/>
    <path class="cls-1" d="M358.79,358.61c-1.23,3.62-.37,7.44-1.44,10.91-.66,2.16-1.66,4.74-2.49,7a62.22,62.22,0,0,0-2.58,8.39,49,49,0,0,0-1.08,8.47c0,.25-.12,5.56,2.41,6.32,4.74,1.41,9.45,2.21,13.88,3.07,2.07.41,3.79.94,4.61-1.16a7.62,7.62,0,0,0,.21-4.82c-.8-1.95-4.7-4.41-6.15-5.9-1.78-1.81-7-7.56-7.89-9.72A11,11,0,0,1,359,373c1.25-2.24,12.38-1.16,14.29-.25,2.7,1.29,6.1,0,6.15-4.07,0-2.58-5.32-5.9-6.81-7.64C370,358,360.84,354.15,358.79,358.61Z" transform="translate(-211.06 -336.56)"/>
    <path class="cls-1" d="M348.33,448.38c-1.37.49-.91,1.94-1.9,2.76a66.15,66.15,0,0,1-8.2,5.06,7.85,7.85,0,0,0-3.26,2.74c-1.54,1.93,2.86,2.18,4.78,2,1.4-.16,4.06-.05,5.14-1.18,1.71-1.78,3.93-2.94,4.62-4.93a12.46,12.46,0,0,0,.8-4.22,2.63,2.63,0,0,0-1.19-2Z" transform="translate(-211.06 -336.56)"/>
  </g>
</svg>
