<?xml version="1.0" encoding="utf-8"?>
<!-- Generator: Adobe Illustrator 16.0.4, SVG Export Plug-In . SVG Version: 6.00 Build 0)  -->
<!DOCTYPE svg PUBLIC "-//W3C//DTD SVG 1.1//EN" "http://www.w3.org/Graphics/SVG/1.1/DTD/svg11.dtd">
<svg version="1.1" id="Layer_2" xmlns="http://www.w3.org/2000/svg" xmlns:xlink="http://www.w3.org/1999/xlink" x="0px" y="0px"
	 width="382px" height="382px" viewBox="0 0 382 382" enable-background="new 0 0 382 382" xml:space="preserve">
<path fill="#bbb" d="M211.9,145.4c0.6,1.7-0.1,3.9-1.7,5.5c-1,1-2.5,1.6-3.9,1.6c-0.5,0-0.9-0.1-1.4-0.2c-1.1-0.4-1.9-1.3-2-2.6l2-0.2
	c0,0.5,0.2,0.7,0.7,0.9c0.8,0.3,2.3,0,3.2-0.9c1.2-1.2,1.5-2.6,1.2-3.4c-0.2-0.4-0.5-0.7-0.9-0.7l0.2-2
	C210.5,143.4,211.5,144.2,211.9,145.4z M122.1,131.7L122,132l-0.7,1c-1.2,1-2.7,1.5-4.3,1.5c0,0,0,0,0,0c-3.4,0-7.2-2.3-8.8-5.3
	c-1.1-2.1-1-4.3,0.3-6.1c0.9-1.3,2.7-2,4.9-2c2.1,0,4.1,0.7,5.4,1.8C122.1,125.6,123.2,128.5,122.1,131.7z M117.5,124.2
	c-0.9-0.8-2.5-1.3-4.1-1.3c-1.5,0-2.7,0.4-3.2,1.2c-1.1,1.5-0.7,3-0.1,4c1.2,2.4,4.3,4.3,7,4.3c0,0,0,0,0,0c1.1,0,2.1-0.3,2.9-0.9
	l0.3-0.5C121,128.6,120.1,126.5,117.5,124.2z M217.3,72.2c-2.8-1.9-6.8,0.2-9.8,1.7c-1,0.5-1.9,1-2.6,1.2l0.6,1.9
	c0.8-0.2,1.8-0.7,2.9-1.3c2.5-1.3,5.9-3,7.7-1.8c1.5,1,0.7,3.6-0.5,6.6c-0.3,0.9-0.7,1.7-0.8,2.4l1.9,0.5c0.1-0.6,0.4-1.3,0.8-2.2
	C218.7,78.2,220.2,74.2,217.3,72.2z M275.3,71.2c0.9-0.3,1.8-0.7,2.9-0.8c1.4-0.2,2.8-0.3,4.2-0.4c1.7-0.1,3.4-0.2,5.1-0.5
	c0.3-0.1,0.7-0.1,1-0.2c2.2-0.4,4.7-0.9,5.9-3.9c0.4-0.9,0.2-1.9,0.1-2.9c-0.1-0.6-0.2-1.3-0.1-1.7c0.1-0.6,0.5-1.1,0.9-1.7
	c0.4-0.6,0.9-1.3,1.2-2.1l-1.9-0.7c-0.2,0.6-0.6,1.1-1,1.7c-0.5,0.7-1,1.5-1.2,2.4c-0.2,0.8-0.1,1.6,0,2.4c0.1,0.7,0.2,1.4,0,1.9
	c-0.8,1.9-2.1,2.2-4.5,2.7c-0.3,0.1-0.7,0.1-1,0.2c-1.5,0.3-3.1,0.4-4.7,0.5c-1.5,0.1-3,0.1-4.5,0.4c-1.2,0.2-2.2,0.6-3.2,0.9
	c-1.5,0.6-2.9,1-4.9,0.8l-0.2,2c0.4,0,0.8,0.1,1.1,0.1C272.5,72.2,274,71.7,275.3,71.2z M190.5,79.4l-0.3,2c0.4,0.1,0.8,0.1,1.3,0.1
	c2.2,0,5-0.7,6.6-2.1l-1.3-1.5C195.4,79,192.3,79.7,190.5,79.4z M380.2,232.2c-0.6,2.7-1.6,4.4-2.5,5.9c-0.5,0.8-0.9,1.5-1.3,2.5
	c-1.1,2.6-3,7.3-8.5,7.3c-1.3,0-2.6-0.3-4.2-0.9c-1.9-0.7-3.6-1-5.4-1c-2.2,0-4.5,0.5-7.1,1.6c-7.1,2.9-10.9,6-16.4,10.9
	c-3.5,3.1-6.8,6.7-10.3,10.6c-4,4.4-8.1,8.9-12.7,12.7l-1.3,1.1c-7.9,6.6-16,13.4-25.5,17.8c-12,5.6-40.7,12.4-53.5,14.1
	c-4.1,0.5-8.7,0.6-13.2,0.7c-3,0-5.7,0.1-8.1,0.2c-11,0.8-25.8,3.3-37.6,6.5c-8,2.1-15.2,4.2-22.1,6.3c-11.7,3.5-22.8,6.7-36.5,9.7
	c-4,0.9-24.4,5.1-29.1,5.5c-0.9,0.1-1.9,0.1-2.8,0.1c-10.8,0-19-5.9-26.3-11c-7.2-5.1-14.2-11.4-21.6-19.1
	c-4.2-4.4-4.7-8.5-4.3-11.2c0.3-2.2,1.3-4.3,2.8-6c-0.3-0.8-0.7-1.7-0.9-2.8c-0.6-2.9-0.5-5.5-0.2-7.8c0-0.3,0.1-0.6,0.1-0.9
	c0.2-2,0.4-5,1.3-7.4c1-2.8,3.3-3.8,5.1-3.8c0.4,0,0.8,0,1.1,0.1c1-2.5,2.7-5.4,6.1-5.4c1.2,0,2.3,0.4,3.2,1.1
	c0.3-1.2,0.7-2.3,1.1-3.3l0.2-0.4c0.8-1.9,2.1-4.8,4.8-6.5l0.3-0.2l0.3-0.1c0.8-0.3,1.6-0.5,2.4-0.5c1.5,0,3,0.7,4,1.8
	c1.5,1.7,1.6,3.7,1.4,6c0,0,0-0.1,0-0.1c0.6-1.3,2.1-4.3,5.5-4.3c1.4,0,2.7,0.6,3.7,1.6c0.7,0.8,1.5,2.1,1.4,4.2
	c-0.1,2.5,1.1,5.8,2.4,8.4c0.1-1.1,0.3-2.1,0.5-3.1c0.4-1.8,1.4-5,2.7-7.7c2.4-5,5.4-7.6,8.9-7.6c0.2,0,0.5,0,0.7,0
	c1.5,0.1,2.8,0.8,3.7,1.9c1.8,2.2,1.3,4.6,0.8,7c-0.2,0.9-0.4,1.9-0.5,3c0.5-1.1,1-2.3,1.7-3.5c1.7-3.2,4.2-6.8,8.2-6.8
	c1.6,0,3.1,0.6,4.3,1.8c2.7,2.7,1.6,6.6,0.6,10c-0.1,0.4-0.3,0.9-0.3,1.1c-0.1,1.2,0.2,3.7,0.5,4.7c0.1,0.4,0.2,0.8,0.3,1.2
	c0.6-1,1.4-2.2,2.7-3.3l0.1-0.1l0.1-0.1c1.2-0.9,2.5-1.4,3.9-1.4c0.4,0,0.8,0,1.2,0.1c0.2-1,0.4-1.9,0.5-2.5
	c0.5-1.5,1.3-3.9,2.1-5.4c1.4-3,3.5-4.9,5-6c1.1-0.8,2.2-1.3,3.5-1.3c1.6,0,3.2,0.8,4.1,2.1c0,0,0,0,0,0.1c1.1-1.3,2.6-2.3,4.6-2.3
	c1.6,0,3.1,0.7,4.1,2c1.6,2,1.3,4.5,0.7,6.9c0,0.6,0.2,2.1,0.3,2.9c0.1,0.5,0.1,0.9,0.2,1.3c0,0.2,0,0.4,0.1,0.6
	c0.2-0.1,0.4-0.2,0.6-0.2c0.8-0.3,1.6-0.6,2.3-0.9c-0.1-0.4-0.2-0.9-0.3-1.4c-0.2-0.9-0.5-2-0.6-3.2c-0.3-2.7,0.3-5.7,0.6-6.9
	c1.1-4.8,3.8-5.8,5.8-5.8c2,0,3.4,0.9,4.3,2.2c0.2-0.6,0.4-1.2,0.7-1.7c1-1.7,2.5-2.8,4.2-3.1c0.4-0.1,0.8-0.1,1.1-0.1
	c1.5,0,2.9,0.6,4,1.7c1.3,1.3,1.5,2.9,1.6,4l0.6-0.5l0.1,0l0.1,0c5.5-4.3,15.8-15.3,16.8-18.5l0.1-0.3l0.1-0.2
	c2.9-6.3,17.3-14.6,28.9-20.5c4.2-2.1,13.1-7.3,20.3-11.4c4.4-2.5,8-4.6,9.5-5.4c-1.7-0.3-3.4-0.9-5-1.8
	c-6.1-3.1-12.7-10.9-15.8-14.8c-3.1-0.3-9.4-0.9-15.3-1.9c-2.1-0.4-4.2-0.8-6.3-1.2c-5.8-1.1-11.2-2.2-16.9-2.3l-0.1,0
	c0,0,0,0.1,0,0.1c0.1,0.9,0.4,3.1-1.3,5c-1,1.1-2.5,1.8-4,1.8c-0.4,0-0.7,0-1.1-0.1l-0.5-0.1l-0.5-0.2c-0.1,0-0.2-0.1-0.3-0.1
	c0,1-0.2,2-0.9,3.1c-1,1.4-2.6,2.3-4.3,2.3c-0.3,0-0.6,0-0.8-0.1c-1.2-0.2-2.2-0.5-3.2-0.9c0.1,0.2,0.3,0.4,0.4,0.6
	c1.2,1.7,2.9,4.3,1.4,7.3c-0.9,1.8-2.8,2.9-4.9,2.9c-0.4,0-0.9,0-1.3-0.1l-0.3-0.1L160,199c-2.9-0.9-5.3-2.4-7.2-4.2
	c1.1,2.1,1.8,4.3,0.4,6.5c-0.9,1.6-2.6,2.6-4.5,2.6c-0.6,0-1.3-0.1-1.9-0.3c-4.8-1.6-8.2-5.1-10.8-8.6c0.1,0.7,0.6,2.2,1,3.4
	c1.5,4.7,2.5,7.8,0.5,10.5c-1,1.4-2.6,2.2-4.3,2.2c-0.9,0-1.7-0.2-2.5-0.6l0,0l0,0c-3.7-1.9-7.4-7.7-9.4-11.3
	c-0.1,0.2-0.3,0.5-0.5,0.7c-1,1.3-2.5,2-4.1,2c-0.8,0-1.6-0.2-2.4-0.6l-0.3-0.2l-0.3-0.2c-2.1-1.5-3.8-3-5-4.5
	c-0.1,0.6-0.4,1.2-0.9,1.9c-1,1.3-2.5,2.1-4.1,2.1c-0.6,0-1.1-0.1-1.7-0.3l-0.2-0.1l-0.2-0.1c-4.1-1.8-6.7-4.4-8.6-6.9
	c0.4,2.1,1.1,4.8,1.8,7c1.2,4.2,1.7,5.9,1.1,7.8l-0.2,0.7l-0.4,0.6C94,211,92,212,89.9,212c-3.1,0-6-2.1-9.5-7.1
	c-0.4-0.6-0.9-1.3-1.3-1.9c0.2,0.8,0.3,1.5,0.4,2.3l0.1,0.7l-0.1,0.7c-0.4,2.7-2.6,4.6-5.3,4.6c-4.9,0-10.2-7.4-12.3-10.6
	c-0.1-0.1-0.2-0.3-0.3-0.4c-0.1,0.2-0.3,0.5-0.5,0.7c-1,1.3-2.5,2-4,2c-1.1,0-2.1-0.3-3-1l0,0l0,0c-2-1.4-3.7-3-5.2-4.7
	c0.1,1.3-0.2,2.5-1.1,3.7c-1,1.3-2.5,2-4.1,2c-0.5,0-0.9-0.1-1.4-0.2c-4.4-1.2-8.3-5.3-11.2-9.6c-0.3,0.1-0.7,0.1-1,0.1
	c-1,0-1.9-0.3-2.8-0.8c-1.1-0.6-2-1.6-3.3-3.5c-0.1,0-0.2,0-0.2,0c-3.6,0-5.5-2.9-6.3-4.2l-0.1-0.2c-0.6-0.9-0.9-1.9-1-2.8
	c-0.9-0.4-1.9-1.1-2.8-2.3c-0.2-0.3-0.6-0.8-0.9-1.2c-0.4-0.2-0.9-0.4-1.4-0.8c-2.5-1.8-4.7-8.1-5.5-12.8c-6.2-4.9-4.3-17.9-4.3-18
	c0.9-5.5,1.1-9.8,1.2-13.5c0.2-5.8,0.4-10.8,3.4-16.7c2.9-5.8,5.4-8.8,10.7-12.8c4-3,8.3-4.5,12.4-5.9c1.7-0.6,3.5-1.2,5.3-2
	c5.8-2.4,11-4.2,16.1-5.6c0.8-0.2,1.9-0.4,3.9-0.8c2.1-0.4,6.3-1.2,7.6-1.8c2.6-1.7,4.9-2.5,7.5-2.5c0.4,0,0.7,0,1.1,0
	c0.1,0,0.2,0,0.3,0c0.3-0.1,0.4-0.2,0.7-0.5c1.4-1.3,3-2.5,7.2-3.3c1.2-0.2,2.6-0.2,4.1-0.3c0.8,0,2,0,2.5-0.1
	c0.8-0.3,1.4-0.5,1.9-0.6c0.8-0.2,1.1-0.3,1.4-0.6c3.7-2.6,7.7-2.6,11.2-2.7c1.2,0,2.3,0,3.4-0.1l0.9-0.1c2.8-0.3,5.4-0.5,8.2-0.5
	c2.6,0,5,0.2,7.4,0.7c0.9,0.2,1.4,0.2,1.7,0.2c0.2,0,0.3,0,0.3,0c0.1-0.1,0.6-0.4,0.9-0.7c1.2-0.9,2.9-2.3,5.9-3.4
	c2-0.8,4.2-1.1,6.6-1.1c1.3,0,2.5,0.1,3.6,0.2c0.9,0.1,1.8,0.2,2.6,0.2c0.7,0,1.3-0.1,1.9-0.2c0.7-0.2,2-0.7,3.3-1.2
	c2.5-0.9,5.1-1.9,7.3-2.2c0.4,0,0.8-0.1,1.1-0.1c1.3,0,2.5,0.2,3.6,0.4c0.5,0.1,0.9,0.2,1.2,0.2c0.1,0,0.2,0,0.3,0
	c2.4,0,6.6-1.3,7.7-2c4.1-3.6,7.4-3.8,10.2-4c1.8-0.1,3.8-0.2,6.9-1.3c1.3-0.4,2.6-0.9,3.9-1.3c8.1-2.7,17.2-5.8,28.7-10.3
	c0.6-0.2,1.4-0.5,2.2-0.8c4.2-1.7,10-3.9,13.5-5c2-0.6,3.9-0.9,5.8-0.9c2.1,0,4,0.3,5.9,0.7c3.3-0.5,6.8-1.6,10.1-2.6
	c0.7-0.2,1.4-0.5,2.2-0.7c3.3-1,7.2-1.5,11.8-1.5c8.1,0,17.6,1.7,24.1,4.3c0.8,0.3,1.4,0.6,1.9,0.8c0.4,0.2,0.8,0.3,1.1,0.4
	c0.2-0.1,0.6-0.3,1.1-0.7c0.9-0.6,1.8-1.3,2.6-2.1c2.1-1.8,4.6-4.1,9.2-4.8c0.8-0.1,1.5-0.2,2.2-0.2c2.6,0,6.4,0.8,9.1,4.9
	c1.5,2.2,2.4,4.8,3.2,7.3c0.8,2.4,1.7,5.4,2.9,6c9.6,5,17,10.9,24.9,19.8c2.1,2.4,10.2,11.8,12.6,15.4c2.6,3.9,10.1,16.4,11.3,19
	c0.2,0.5,0.4,1,0.7,1.5c0.9,2,1.7,3.8,2.6,6.2c1.6,4.3,3.6,13.3,0.9,19.8c-1.9,4.6-6.6,9.9-12.1,11c-0.3,0.1-0.7,0.1-1,0.2
	c-1.6,0.4-3.4,0.8-5.3,0.8c-1.9,0-3.6-0.4-5.3-1.1c-0.1,0-0.3-0.1-0.6-0.3c-0.7,1.7-1.6,3.9-2.5,6.1l-0.7,1.8l0,0.1l0,0.1
	c-3.3,7.5-3.9,13.3-2,18.9l0.2,0.6c0.5,1.6,1,3,1.3,3.7c3.7,2.5,10.3,7.1,8.9,15.3l0.6,0l2,0l1.3,0l1.1,0.6c0.7,0.3,1.2,0.6,1.7,0.8
	c3.6,1.7,5.1,3.2,6.4,8.2l0.1,0.5c0.7,2.6,1.3,5.1,2.6,7.3C380.4,219.3,382,223.3,380.2,232.2z M370.8,238.3
	c0.6-1.3,1.2-2.4,1.7-3.3c0.8-1.3,1.4-2.4,1.8-4.1c1.4-6.8,0.6-9.1-3.3-15.5c-1.8-3-2.6-6-3.3-9l-0.1-0.5c-0.8-3.1-1-3.2-3.1-4.2
	c-0.5-0.2-1.1-0.5-1.7-0.8l-1.4,0c-1.6,1.5-3.9,2.4-6.1,2.9c1.7,1,2.9,2.4,3.6,4.1c1.1,2.7,0.8,5.8-0.7,8.8
	c-2.3,4.3-5.5,5.6-9.2,5.6c-1.8,0-3.8-0.3-5.7-0.7c-0.9-0.2-1.7-0.3-2.5-0.5c-2.5,3.3-6.4,6.7-10.6,6.9c-0.3,0-0.5,0-0.7,0
	c-3.1,0-5.4-1-6.6-3c-1-1.7-1-3.9,0-6.3c-4.7,0.3-10.4,1.6-14.4,3.2l-0.7-1.9c5.7-2.3,13.3-3.4,17.7-3.4c5.2,0.1,9,0.9,13.5,1.9
	c1.5,0.3,3,0.7,4.7,1c6.5,1.3,10.1,1.1,12.7-3.8c1.3-2.4,1.5-4.9,0.6-7c-0.8-2-2.5-3.4-5-4.1l0-0.2c-2,0.3-3.7,0.3-4.6,0.3
	c-1.5,0-2.9-0.1-4.2-0.3c-1.5-0.2-3.1-0.7-4.5-1c-0.4-0.1-0.9-0.2-1.3-0.3c-0.4-0.1-0.9-0.2-1.4-0.2c-1.3,0-2.5-0.1-3.7-0.1
	c-0.6,0-1.2,0.1-1.9,0.1c-1.2,0.1-2.3-0.1-3.2-0.5c-2.5-0.5-4.2-1.8-5.7-3.7c-0.5-0.3-1-0.6-1.5-0.9c-3.2-1.4-6.1-2.1-9.2-2.6
	c-1.5-0.1-3.2-0.3-5-0.7c-0.2,0-0.4-0.1-0.7-0.1c-1.2-0.1-2.4-0.3-3.7-0.4c-1.5-0.2-4.1-0.3-7.5-0.3c-5.8,0-13,0.3-16.5,0.7
	c-8.6,0.9-17.1,2.3-32.9,10.5c-1.2,0.6-5.1,2.8-9.5,5.4c-7.3,4.2-16.3,9.4-20.6,11.6c-4.2,2.1-8.8,4.6-13,7.2
	c1.2,0.4,2.1,1.2,2.5,2.2c0.9,2.3-0.6,5.7-2.8,8.9c2.3,2.2,4.5,3.5,6.5,4.5c3.2,1.7,5.5,3.6,6.8,5.8c0.6,1,1,1.9,1.3,2.5
	c0.6,1.4,0.9,2,2.8,3l1.4,0.7c3.1,1.6,5.8,2.9,8.9,5.6c4.6,4,8.3,5,13.8,6.6l1.8,0.5c2.1,0.6,3.6,0.6,5.2,0.7
	c3.3,0.1,6.4,0.1,14.6,5.3c4.6-2.7,8.2-5.1,9.7-6.3c0.6-0.5,0.9-1.3,1.2-2.1c0.4-1.3,0.9-2.8,2.9-3.5l0.3-0.1l2,0.4l0.2,0.1
	c0.5,0.4,1,0.8,1.4,1.3c0.4-1.7,0.6-4.7,0.6-5.9c0-0.7,0.1-1.3,0.1-1.8c0.4-5.1,1.5-6.5,5-10.2c0.9-0.9,1.5-1.8,2.1-2.6
	c1.2-1.6,2.3-3.2,4.6-4.6c3.3-2.1,6.6-2,10-1.9c0.7,0,1.4,0,2.2,0c0,0,0.1,0,0.1,0c7.5,0,12.8-1.9,20-4.8c1.4-0.5,10.8-3.2,14.3-4
	c4.1-0.9,13.3-1.5,16.4,0.5c0.6,0.4,1,1,1.2,1.6c0.5,4.5-3,5.6-5.8,6.4c-1.2,0.4-2.4,0.7-3.2,1.3c-2.2,1.5-4.2,3.3-5.9,5.4
	c1.6-0.9,3.4-1.7,5.3-2.5c6.1-2.5,11.3-2.7,16.8-0.6c0.9,0.3,1.6,0.5,2.2,0.5C369,241.9,369.7,241.1,370.8,238.3z M339.2,247.1
	c2.3-3.8,5.4-7.2,9.1-9.7c1.1-0.7,2.4-1.1,3.7-1.5c3-0.9,4.7-1.5,4.4-4.2c0,0-0.1-0.1-0.3-0.2c-2.1-1.4-10-1.3-14.8-0.2
	c-3.3,0.7-12.7,3.4-13.9,3.9c-7.5,3-13,4.9-20.9,4.9c-0.8,0-1.5,0-2.2,0c-3.2-0.1-6.1-0.2-8.9,1.6c-1.9,1.2-2.9,2.6-4.1,4.1
	c-0.7,0.9-1.4,1.8-2.3,2.8c-3.3,3.5-4.1,4.5-4.4,9c0,0.5-0.1,1-0.1,1.7c-0.2,3.6-0.4,6.5-1.4,8c0.1,0.5,0.2,0.9,0.2,1.4
	c0.1,2.4-0.5,5.6-1.6,8.8c-1,2.9-3.4,4.9-5.9,7c-0.8,0.7-1.6,1.4-2.4,2.1c2.3-0.6,4.9-1.2,6.6-0.2c0.7,0.4,1.2,1.1,1.4,2
	c0.8,4.1-3.9,7.5-8.6,10.3c3.9-1.2,7.2-2.5,9.7-3.7c8.7-4.1,16.6-10.6,24.2-17l1.3-1.1c4.3-3.6,8.3-7.9,12.1-12.2
	c3.5-3.8,7-7.7,10.8-11C333.8,251.3,336.4,249.1,339.2,247.1z M37.5,282.9c-0.7,6.6,0.2,11.2,1.1,14c0.7-0.4,1.4-0.8,2.1-1.2
	c-0.3-1.3-0.7-6.5-0.6-9.4c-0.1-0.3-0.3-0.6-0.5-0.9c-0.4-0.8-0.9-1.8-1.3-3.2c-0.1-0.4-0.1-0.9-0.2-1.5c0-0.2,0-0.4-0.1-0.6
	C37.8,281,37.5,282.2,37.5,282.9z M42.6,294.7c1.8-0.8,3.6-1.6,5.4-2.3c0.4-0.2,0.8-0.3,1.1-0.5c-1.5-1.8-3.3-5-3.7-6.6
	c-0.6-2.2-1.1-5.3-1.2-7.2c0-0.1,0-0.2,0-0.3c-0.1,0.4-0.3,0.8-0.3,1l-0.1,0.3c-0.3,1-1.3,4.9-1.5,6C41.8,287,42.3,292.9,42.6,294.7
	z M53.9,290.1c2.7-1,5.2-1.8,7.6-2.5c-0.3-1.6-0.6-3.5-1.2-4.8c-0.4-0.9-0.8-1.6-1.2-2.3c-0.8-1.4-1.4-2.6-2-4.8
	c-0.7-2.5-0.9-4.5-0.7-6.9c0.1-1.2,0.3-2.4,0.5-3.4c-0.9,1.4-2,3.9-2.6,6.3c-0.8,3.6-1.8,8.8-1.5,11.4
	C53,284.6,53.5,288.2,53.9,290.1z M67.3,286.3c1.8-0.3,3.5-0.5,5.3-0.6c-0.4-1.7-1.2-4.6-2.6-7c-1.6-2.8-2.4-5.4-2.7-7.5
	c-0.2,0.5-0.3,1-0.4,1.5c-0.4,2.2-0.6,6-0.6,7.4c0,1,0.4,3.1,0.7,4.7C67.2,285.4,67.2,285.9,67.3,286.3z M38.3,309.5
	c7.5,7.7,14.1,13.6,20.8,18.3c6.9,4.9,13.9,9.9,22.8,9.9c0.7,0,1.5,0,2.3-0.1c4.1-0.4,23.2-4.3,28.4-5.4c13.5-2.9,24.4-6.2,36.1-9.6
	c6.9-2,14.1-4.2,22.2-6.3c12.2-3.3,27.4-5.9,38.8-6.7c2.6-0.2,5.4-0.2,8.5-0.3c4.3-0.1,8.8-0.1,12.5-0.6c8-1,22.3-4.2,34.6-7.6
	l-0.1-0.1c1-0.7,2.3-1.4,3.8-2.3c4.4-2.5,11-6.3,10.3-9.8c-0.1-0.5-0.3-0.6-0.5-0.7c-1-0.6-3.4,0-5.2,0.5c-0.6,0.1-1.1,0.3-1.6,0.4
	l-0.3,0.1c-2.3,0.5-5.7,1.2-8.3,1.1c-0.1,0-0.1,0-0.2,0c-0.7,0-1.4,0.1-1.9,0.1c-0.8,0.1-1.7,0.1-2.6,0.1c0,0,0,0,0,0
	c-2.7,0-7.3-0.3-8.4-2.6c-0.3-0.7-0.5-1.7,0.6-3.1c2.9-3.6,4-4.2,6.5-5.5l0.3-0.2c1.5-0.8,3-1.7,4.5-2.5c-7.1-4.4-9.8-4.4-12.7-4.5
	c-1.6,0-3.3-0.1-5.7-0.8l-1.8-0.5c-5.8-1.7-9.7-2.7-14.6-7c-2.8-2.5-5.4-3.8-8.4-5.3l-1.4-0.7c-2.6-1.3-3.1-2.5-3.8-4
	c-0.3-0.6-0.6-1.4-1.1-2.3c-1.2-1.9-3.2-3.6-6.1-5.1c-2.1-1.1-4.3-2.4-6.7-4.7c-1.8,2.5-3.9,4.7-5.2,6.1l-1.4-1.4
	c5.1-5.4,9.9-11.9,8.8-14.6c-0.3-0.8-1.4-1.3-3.2-1.4c-5.3,3.4-9.5,6.6-10.6,8.9c-1.7,4.9-9.1,12.7-12.3,16.1l-0.6,0.6
	c-2.4,2.6-17.1,13.6-19.7,15.2c-4.2,2.5-8.4,4.9-13.9,7.4c-3.6,1.6-16.2,4.4-22.9,5.9c-1.3,0.3-2.4,0.5-3.2,0.7
	c-5.1,1.1-15.5,2.4-29.6,2.4c-2.2,0-4.5,0-6.8-0.1c-0.7,0-1.5,0-2.2,0c-8.6,0-16.1,1.7-25.9,5.8c-0.8,0.3-1.6,0.7-2.5,1
	c-5.2,2.1-12.2,4.9-13.1,8.9C35.2,305.1,36.1,307.2,38.3,309.5z M81.8,285.7c1.4,0,2.8,0,4.2,0c1.3,0,2.6,0,3.8,0
	c-0.5-2.4-1-3.7-1.5-5.1c-0.4-1.3-0.9-2.5-1.4-4.6c-0.5-1.8-1.1-5.3-0.6-8.1l0.1-0.5c0.3-1.5,0.5-2.5,0.6-3.3
	c-0.7,0.7-1.5,1.8-2,2.8c-1.1,2-1.8,4.3-2.3,6.6C82,278,81.4,281.1,81.8,285.7z M96,285.5c2.2-0.1,4.3-0.2,6.3-0.4
	c-0.2-2.1-0.6-3.4-0.9-4.6c-0.2-0.7-0.4-1.3-0.5-2c-0.4-2.2-0.9-5.4-0.3-8.1c0.1-0.7,0.4-2,0.7-3.2c-0.4,0.4-0.7,0.9-1.1,1.5
	c-0.1,0.2-0.2,0.3-0.3,0.6c-0.7,1.1-1.8,2.9-2.5,5.6C96.3,279.2,96,281.7,96,285.5z M114.4,283.5c-0.2-0.6-0.2-1.3-0.2-2
	c0-0.4,0-0.7-0.1-1l0-0.1c0,0,0,0,0,0c-1.2,1-2,2.3-2.5,3.6C112.6,283.9,113.5,283.7,114.4,283.5z M122.2,281.8c1.5-0.3,3-0.7,4.6-1
	c-0.4-1.8-0.8-3-1.1-3.8l-0.2-0.6c-0.8-2.4-0.7-6.4-0.5-8.1c0.2-1.6,0.4-2.6,0.4-3.4c-0.7,0.9-1.7,2.2-2.2,3.7
	c-0.4,1.1-1.2,3.4-1.4,5.4C121.6,275.8,121.6,277.8,122.2,281.8z M132.3,279.5c1.5-0.4,2.9-0.7,4.2-1.1c-0.2-0.6-0.5-1.4-0.8-2.2
	c-0.5-1.2-0.8-2.3-1-2.9c-0.5-2.5-0.4-4.9-0.2-6.7c-0.7,1.5-1.4,3.3-1.8,4.8C132.3,273.4,131.9,276.4,132.3,279.5z M160.7,265.2
	c0.6-0.4,1.1-0.8,1.7-1.3c-1-1.1-1.7-2.4-2.4-3.5c-0.2-0.4-0.4-0.9-0.6-1.5c-0.1,1.2,0,2.4,0.2,3.4
	C159.9,262.8,160.3,264.3,160.7,265.2z M153.3,270.4c-0.9-1-2-3-2.1-3.1c-1-1.8-1.7-4.3-2.1-6.3c-0.3,1.6-0.5,3.5-0.5,4.5
	c0,3.1,1.1,5.6,1.6,6.8C151.3,271.6,152.3,271,153.3,270.4z M279.5,265.7l-1.1-0.2c-0.8,0.4-1.1,1-1.5,2.2c-0.3,1-0.7,2.2-1.8,3
	c-2.2,1.8-9,6.2-16.5,10.2l-0.3,0.2c-2.4,1.3-3.2,1.7-5.8,5c-0.2,0.2-0.5,0.7-0.4,1c0.3,0.7,2.8,1.5,6.6,1.5c0,0,0,0,0,0
	c0.9,0,1.7,0,2.4-0.1c0.5-0.1,1-0.1,1.6-0.1l0-0.1c0.2,0,0.5,0,0.7,0.1c2.6-0.2,5.9-0.4,7.3-1.9c1.2-1.2,2.4-2.3,3.7-3.3
	c2.3-1.9,4.5-3.8,5.3-6.1c1-3,1.6-5.8,1.5-8C281.3,267.6,280.6,266.4,279.5,265.7z M177.2,173.8c-1.5,0-3,0.1-4.4,0.2
	c0.8,0.5,1.2,1.3,1.6,2c0.4,0.8,0.8,1.6,1.6,2.2C175.9,177.1,175.9,175.4,177.2,173.8z M168.9,174.4c-2.7,0.4-5.3,1-8.2,2
	c1.3,0.6,2.2,1.8,3.1,3c1.2,1.5,2.3,3.1,4.3,3.8c0-0.1-0.1-0.1-0.1-0.2c-0.7-1.8-1.8-4.6-0.8-6.8
	C167.5,175.5,168.1,174.9,168.9,174.4z M130.2,182.6l0-0.2l0.1-0.2c0,0,0.1-0.1,0.1-0.1c-3.2,0.3-6.5,0.5-9.9,0.7
	c-0.2,0-0.3,0-0.5,0c2,2,3.2,5.6,4.1,8.4c0.3,1.1,0.6,2,0.9,2.6c2.2,4.6,5.4,9.1,7.4,10.8c-0.2-1.2-0.8-3.1-1.2-4.3
	c-0.5-1.6-1-3.2-1.2-4.2C129.4,192.4,129.5,186.1,130.2,182.6z M113.8,183c-1.8,0.1-3.6,0.1-5.5,0.1c0.6,0.8,0.9,1.8,1.3,2.9
	c0.8,2.4,1.9,5.5,5.9,8.8c-0.1-0.5-0.3-1.1-0.4-1.6C114.3,190,113.2,185.7,113.8,183z M54.4,177.4c-1.7-0.4-3.1-0.7-3.9-1l-0.2-0.1
	c-1.5-0.8-3.2-1.4-4.9-1.9c0.1,0.3,0.1,0.6,0.2,0.9c0.9,4.6,2.6,13.7,10.2,20.4c-0.1-0.5-0.3-0.9-0.4-1.4
	C53.5,187.3,51.8,180.3,54.4,177.4z M42,173.7c-0.7-0.1-1.3-0.3-2-0.4c-1.6-0.3-3.2-0.6-4.7-1c-2.3-0.6-4.2-1.2-5.9-1.9
	c1.2,6.1,4.9,20.5,13.3,25.9c-0.1-0.6-0.3-1.4-0.5-2.1C40.8,189.1,38.3,179.6,42,173.7z M72.1,199.3c-1.5-5.6-3-11.4-0.9-18.7
	c-1.3-0.2-2.5-0.4-3.8-0.7c-1.5-0.3-3.8-0.8-6.2-1.2c-0.2,0-0.5-0.1-0.7-0.1c0.8,13.7,9.8,24.1,12.9,26.4
	C73,203,72.5,201.1,72.1,199.3z M87.9,182.3c-2.1-0.2-4.2-0.4-6.4-0.6c-1.9-0.2-3.8-0.3-5.8-0.5c1.6,1.9,2.7,5.3,3.8,8.7
	c0.6,1.7,1.1,3.4,1.7,4.7c1.5,3.6,6.6,11.3,8.6,11.4c0,0,0.1,0,0.1,0c-0.1-0.6-0.6-2.6-1.1-4.3c-0.9-3.2-2-7.2-2.2-9.8
	c0-0.7-0.1-1.4-0.1-2.1C86.4,186.4,86.2,183.7,87.9,182.3z M102.1,193.1c-1-3-2.4-7.6-0.6-10c-2.7,0-5.3-0.2-8-0.3
	c0.7,0.8,1.3,1.9,1.9,3c1.5,2.6,3.3,5.8,6.9,8C102.3,193.5,102.2,193.3,102.1,193.1z M143.3,181.5l0-0.2c0-0.1,0.1-0.2,0.1-0.4
	c-1,0.1-2,0.2-3,0.3c-1.4,0.1-2.9,0.3-4.3,0.4c-0.7,0.1-1.3,0.1-2,0.2c1,0.9,2,2.5,3.3,4.7c2.2,3.7,5.3,8.8,9.8,10.9
	c-0.2-0.4-0.4-0.7-0.6-1.1c-0.7-1.3-1.6-3-2.1-4.5C143.6,188.7,143.2,185.3,143.3,181.5z M151.4,182.6c2.2,4,4.6,8.5,9.5,10.4
	c-0.1-0.2-0.2-0.3-0.3-0.4c-0.6-0.8-1.2-1.7-1.7-2.7c-0.9-1.8-3.4-7.5-2.6-11.6c-1.9,0.7-4.3,1.3-7,1.9
	C150,180.5,150.8,181.3,151.4,182.6z M181.6,171.7c6.5,0,12.6,1.2,18.6,2.4c2,0.4,4.1,0.8,6.1,1.2c2.5,0.4,5.4,0.8,8.3,1.1
	c1.9,0.2,3.7,0.5,5.3,0.7c-2.7-2.4-5.8-3.8-9.3-5.5c-1.1-0.5-2.2-1.1-3.4-1.7c-0.9-0.4-1.9-0.9-3-1.5c-4.1-2-9.1-4.6-12.2-6.5
	c-0.5-0.3-1.7-0.7-2.9-1.1c-2.4-0.7-4-1.2-4.6-2.2c-2-2.6-4.4-3.1-7-3.6c-1.1-0.2-2.3-0.4-3.4-0.9c-1.7-0.6-2.7-2-3.5-3.1
	c-0.6-0.8-1.1-1.5-1.9-2.1c0,0-0.1,0-0.1,0c-1.2,0-2.3,0-3.3,0.1c-1.9,0.1-3.8,0-5.7-0.3c-7.7,0.6-16.2-0.6-26.4-3.7
	c-5.3-1.6-11.4-3.8-18.1-6.6c-0.5-0.2-1-0.4-1.6-0.6c-5.1-2-12.8-5.1-15.1-10c-1.7-3.8-0.4-8.1,3.8-12.6c4-4.2,9.4-7.3,10.9-8.2
	c4.2-2.3,9.5-4.8,12.7-6c1.8-0.7,3.6-1.6,5.5-2.6c2-1,4-2,6.1-2.8c1.6-0.6,3.1-1.2,4.6-1.9c1.9-0.9,3.9-1.7,6.3-2.5
	c4.1-1.4,10.4-2.8,13.9-3.2l0.2,2c-3.3,0.3-9.5,1.7-13.4,3.1c-2.3,0.8-4.2,1.6-6.1,2.5c-1.5,0.7-3,1.3-4.7,2c-2,0.7-3.9,1.7-5.9,2.7
	c-1.9,1-3.8,2-5.7,2.7c-3.1,1.2-8.3,3.6-12.5,5.9c-6.6,3.6-16.9,11.5-13.9,18.2c1.9,4.2,9.2,7.1,14,9c0.6,0.2,1.1,0.4,1.6,0.6
	c6.7,2.7,12.7,4.9,17.9,6.5c6.2,1.9,11.8,3,16.9,3.5c-4.4-2-11.2-6.1-13.6-8.8c-4.7-5.1-2.9-14.1-1.9-19.5l0.1-0.6
	c0.8-4.1,6.2-9.3,9.7-12.6l0.9-0.9c6.4-6.1,13.6-10.6,21.5-13.3c5.4-1.9,9.6-3.2,14.4-4.5c-4.7-3.1-12.7-1.6-20.5-0.1
	c-4.1,0.8-7.9,1.5-11.3,1.6c-0.5,0-1.3,0-2-0.1c-1.6-0.1-3.8-0.2-4.6,0.2c-0.6,0.3-1.1,0.5-1.6,0.8c-0.7,0.4-1.5,0.8-2.4,1.2
	c-1.3,0.5-4,0.7-7.1,0.9c-3.6,0.3-8.1,0.6-9.8,1.5c-2,1.1-3.7,1-5.1,1c-1.2,0-2.3-0.1-3.6,0.5c-1.1,0.5-1.9,0.9-2.6,1.3
	c-1.8,1-3,1.7-6.8,1.3c-1.4-0.1-2.5-0.4-3.4-0.6c-2.3-0.5-3.2-0.7-5.9,1.4c-0.9,0.7-1.7,1.5-2.4,2.3c-2.2,2.3-4.4,4.5-9.4,4.4
	c-2.4,0-3.8,1.2-5.5,2.7c-0.9,0.8-1.8,1.6-3,2.3c-1.8,1.1-3.7,1.4-5.8,1.4c-2.2,0-4.5-0.4-7-0.9c-1.1,1.3-3.4,2.5-6.1,3.9
	c-0.9,0.5-1.7,0.9-2.2,1.2c-0.5,0.3-1.3,0.7-2.1,1.2c-1.8,1-4.3,2.4-5.1,3.3c-3.8,4.6-6.6,8-11.4,11.4c-1.9,2.3-3.5,5.4-5.1,8.4
	c-1.4,2.5-2.6,4.9-4,6.8c-1.3,1.6-2.4,3.4-3.4,5.1c-0.8,1.4-1.6,2.7-2.4,3.8c-1.8,2.5-1.9,4.8-1.5,8.6c0.2,0.1,0.5,0.2,0.7,0.4
	c0.9,0.5,1.9,1,2.9,1.4c1,0.4,1.9,0.8,2.8,1.3c3.1,1.4,6,2.7,10.7,3.9c1.5,0.4,3.1,0.7,4.6,1c3.6,0.7,7.3,1.4,10.7,3.2
	c1.7,0.6,6.4,1.4,10.4,2.2c2.4,0.5,4.7,0.9,6.3,1.2c4.3,0.9,9.1,1.3,13.8,1.7c2.3,0.2,4.6,0.4,6.9,0.6c10.5,1.2,21.2,0.9,32,0.4
	c5.4-0.2,10.3-0.7,15.5-1.2c1.4-0.1,2.8-0.3,4.3-0.4c7.2-0.6,12.7-1.8,16.4-3.3C165.5,172,172,171.7,181.6,171.7z M36.7,101.6
	c-2,0.8-3.8,1.5-5.6,2.1c-4,1.4-7.5,2.6-10.8,5.1c-4.9,3.7-6.6,6-9,10.6c-2.4,4.7-2.5,8.7-2.7,14.2c-0.1,3.9-0.3,8.4-1.3,14.3
	c-0.6,3.3-0.2,10.5,2.1,12.4c0.7,0.6,2.5,0.9,4,1.2c1,0.2,1.9,0.4,2.6,0.7c0.2,0.1,0.4,0.2,0.7,0.3c-0.3-3.6,0-6.1,2-8.8
	c0.8-1.1,1.5-2.3,2.3-3.7c1.1-1.8,2.1-3.6,3.5-5.3c1.2-1.7,2.5-4,3.8-6.5c1-1.9,2-3.8,3.1-5.5c-0.6,0.1-1.2,0.2-1.7,0.2
	c-2.1,0-4-1-5.2-2.7c-1.8-2.4-2.1-5.8-1-9.5c2.5-8.3,6.2-10.3,13.8-14.2c0.6-0.3,1.4-0.8,2.2-1.2c2.8-1.6,5.9-3.3,7.9-3.7
	c0.8-0.2,1.6-0.3,2.3-0.4c0.1-2.2-0.8-3-1.6-3.7l0,0C44.4,98.6,40.7,100,36.7,101.6z M249,50.1c-2.6,3.4-5.2,8.3-4.5,11.6
	c0.3,1.3,1,2.2,2.3,2.9c1.5,0.8,3.8,1.4,6.1,2.1c1.7,0.5,3.4,1,4.9,1.5c3.5,1.3,7.4,2.9,9.2,7.5c2.7,7.2,1.9,14.9-2.1,20.9
	c-1.1,1.6-5.5,6.2-8.9,7.3c-1.8,0.6-4.4,0.4-6.9,0.3c-2.6-0.2-5.5-0.4-6.6,0.4c-1.7,1.2-1.1,3.4,0,6.5c0.4,1.2,0.8,2.3,0.9,3.4
	c0.9,1.7,2.6,2.3,4,2.7c1.1,0.4,2.2,0.7,2.5,1.7c1,2.8,0,4.4-1,5.9c-0.3,0.5-0.6,0.9-0.9,1.5c-0.6,1.2-0.2,3.2,0.2,5.1
	c0.3,1.7,0.7,3.2,0.4,4.5c-0.1,0.6-0.2,1.3-0.3,2.1c-0.1,0.8-0.2,1.6-0.3,2.5c2.6-0.6,4.6-0.7,6.5-0.8c2.6-0.1,5-0.2,8.6-1.5
	c6.1-2.3,13.8-9.4,18.2-15.2c2.4-3.1,6.4-9.9,8.4-13.2l0.5-0.8c3.2-5.4,5.6-13.1,6.7-18.1c0.3-1.6,0.8-3.7,1.5-5.7l-0.1,0
	c0.1-0.3,0.3-0.5,0.4-0.7c0.9-2.1,2.2-4,4.1-4.6c6.1-1.8,12.7,0.5,18.6,2.5c1.3,0.5,2.6,0.9,3.8,1.3c4.8,1.5,9.8,4.7,13.9,7.2
	c2.2,1.4,4.8,3.1,5.7,3.2c-0.9-2.3-9.1-9.7-14.6-14.6c-4.2-3.8-8.2-7.4-10.8-10.2c-1.5-1.5-6.4-5.5-9.3-7.9
	c-0.8-0.6-1.4-1.2-1.9-1.6c-3.2-2.7-6.2-4.8-8.4-6l-1.1-0.6c-2-1.1-3.3-1.8-5.8-2.5l0.1-0.2c-0.1,0-0.1-0.1-0.2-0.1
	c-0.5-0.2-1.1-0.5-1.7-0.7c-8.5-3.4-23.4-5.2-31.9-2.6c-0.7,0.2-1.4,0.4-2.1,0.7C254.3,48.7,251.7,49.5,249,50.1z M370.4,114.2
	l-0.7-1.5c-0.9-2-8-13.9-10.8-18.2c-2-3-9.5-11.9-12.1-14.7c-4.6-5.2-9-9.3-13.9-12.8l0,0c-3.2-2.3-7.1-4.2-10.9-5.3
	c-4.1-1.2-6.3-1.5-10.5-1.6c3.2,2.6,7.7,6.3,9.2,7.9c2.6,2.7,6.6,6.3,10.7,10.1c11.4,10.3,16,14.7,15.3,17c-0.1,0.4-0.5,1-1.5,1.1
	c-1.3,0.3-3.2-0.8-7.3-3.4c-3.9-2.5-8.8-5.6-13.4-7c-1.2-0.4-2.5-0.8-3.9-1.3c-0.9-0.3-1.7-0.6-2.6-0.9c4,1.8,7.6,4.3,9.4,6.4
	c0.9,1,2.5,2.4,4.2,3.8c4.5,3.8,9.6,8,9.6,12.1c0,3.9-1.6,7-4.3,8.7c-2.7,1.7-6.2,1.8-9.3,0.3c-4-1.9-25.2-3.5-27.1,0.1
	c-0.7,1.3-1.2,2.7-1.6,4.1c2.9,0.1,5.6,0.4,8.3,0.7c1.6,0.2,3.2,0.3,4.9,0.5c2.5,0.2,5.3,0.2,8.3,0.2c6.4,0,13.6,0.1,19.2,2.1
	c0.3,0.1,0.8,0.3,1.2,0.4c6.8,2.4,13.4,5,15,8c0.2,0.4,0.4,0.9,0.5,1.4c4.1,2.5,7,2.7,10.3-1.8c2.6-3.5,5.6-10.1,4.7-13.9
	C371.1,115.8,370.7,115,370.4,114.2z M350.3,186.2c1.4,3.9,1.3,7.9-4,10.7c-3.2,1.7-6.3,2.3-9.4,2.3c-4.1,0-8.2-1.1-12.4-2.3
	c-0.8-0.2-1.6-0.4-2.3-0.6c0.2,0.3,0.4,0.6,0.6,0.9c0.5,0.4,1,0.7,1.5,1.1c1.1,0.9,2.2,1.7,3.4,2.2c0.6,0.1,1.3,0.2,2,0.2l0.1,0
	c0.8,0,1.7,0.1,2.5,0.1c0.4,0,0.8,0,1.1,0c1,0,1.9,0.1,2.7,0.2c3.2,0.1,6.4,0,9.3-0.2c3.5-0.4,7.9-2.3,8.7-6.7
	C354.9,190.4,352.8,188.2,350.3,186.2z M346.3,154.1c1.1-2.7,2.5-5.4,3.9-8.1c2.5-4.7,4.8-9.2,4.3-12.6c-0.1-0.1-0.2-0.1-0.3-0.2
	l0.2-0.3c-0.1-0.4-0.2-0.8-0.4-1.2c-1.4-2.6-10.5-5.8-13.9-7c-0.5-0.2-0.9-0.3-1.3-0.4c-5.3-1.9-12-2-18.5-2c-3,0-5.9,0-8.5-0.3
	c-1.6-0.1-3.3-0.3-4.9-0.5c-2.7-0.3-5.6-0.6-8.5-0.7c-0.6,3.9-0.1,7.7,0.6,9.3c1.7,4.2,12.1,15.6,15.5,19c0.9,0.9,2.4,2.1,4,3.4
	c3.4,2.7,7.3,5.8,8.5,8.7c1.3,3.1,0.5,7.9-0.4,10.3c-0.6,1.6-1.5,2.5-2.4,3c-4.4,5.3-14.4,2.9-20.4,1.5c-0.6-0.1-1.1-0.3-1.7-0.4
	c-5.6-1.3-10.3-1.9-14.5-1.9c-0.6,0-1.2,0-2,0c-3.1-0.1-8.8-0.3-10.3,1.2c-1.4,1.4-1.2,2.2-1.1,2.5c0.8,3.1,10.1,5.4,14,6.4
	c1,0.3,1.9,0.5,2.4,0.6c2,0.6,4.3,1.3,6.8,1.9c2.4,0.6,4.9,1.3,7.1,2c3.2,1,7.5,2.6,12.9,4.7l0,0c1.4,0.1,2.9,0.3,5,0.9
	c0.9,0.2,1.8,0.5,2.7,0.7c7.2,2,13.5,3.7,20.3,0.2c5.5-2.9,4-6.8,0.9-12.9c-0.9-1.7-1.7-3.3-2.2-4.9
	C341.8,170.2,342.5,162.9,346.3,154.1z M297.3,107.7c-1.1,3.5-2.6,7.5-4,11.3l-1,2.6c-2.6,6.9-4.2,12.3-5.1,16.6
	c-1.1,5.6-2.3,13.6-2.1,16.6c0,0,0,0.1,0,0.3c0,6.4,1.6,10.7,4.1,11.4c7.9,2.4,15.8,3.9,23.4,5.3c1.4,0.3,2.8,0.5,4.2,0.8l0.9,0.2
	c2.4,0.5,4.1,0.8,5.3,0.3c0,0,0,0,0-0.1l0.2-0.3c0.9-1.3,2.2-3.1,2.2-4.4l0.1,0c0.4-2.2,0.4-4.6-0.3-6.2c-1-2.4-4.8-5.4-7.9-7.9
	c-1.6-1.3-3.2-2.5-4.2-3.6c-3.6-3.7-14.1-15.2-15.9-19.7c-1.2-2.9-1.9-10.8,1.5-17.1c2.9-5.2,25.8-2.8,29.8-0.9
	c2.5,1.2,5.3,1.1,7.4-0.2c2.2-1.3,3.4-3.8,3.4-7c0-3.1-5.1-7.4-8.9-10.5c-1.9-1.6-3.5-2.9-4.4-4c-3.4-4-13.9-9.4-20.9-8.4
	c-2.1,0.3-3.6,1.2-4.6,2.6c-0.1,0.3-0.3,0.7-0.4,1.1l0,0c-1.2,3.6-1.4,7.3-1.5,10.9C298.5,100.8,298.3,104.3,297.3,107.7z
	 M354.8,141.3c0.5,0.5,2.5,1.5,3.3,1.9c2.3,1,4.5,0.5,6.8,0c0.4-0.1,0.7-0.2,1.1-0.2c2.8-0.6,6.4-4,7.8-7.5
	c1.5-3.7,0.8-9.9-0.6-14.4c-0.9,4.2-3.4,8.5-4.9,10.6c-2.3,3.1-4.6,4.3-7,4.3c-1.5,0-3-0.5-4.6-1.3
	C356.6,136.8,355.8,139,354.8,141.3z M321.3,59.5c-1.8-2-2.7-4.9-3.6-7.6c-1.1-3.5-2.1-6.1-3.9-7.3c0.3,4.1-1.7,10.2-3.8,13.6
	C315,58.1,317.3,58.4,321.3,59.5z M309.9,43.9c-2.8,0.5-4.3,1.7-6.2,3.4c-1,0.8-2,1.7-3.3,2.6c-0.8,0.5-1.4,0.9-2,1.1
	c0.3,0.2,0.7,0.4,1.1,0.6l1,0.6c2.5,1.4,5.4,3.5,7.6,5.3c2.1-3.2,4.3-10,3.6-13.6C311.2,43.8,310.6,43.8,309.9,43.9z M241.3,102.9
	c1.7-1.2,4.7-1,7.9-0.8c2.3,0.2,4.7,0.3,6.1-0.1c2.8-1,7-5.1,7.9-6.6c3.7-5.5,4.4-12.5,1.9-19.1c-1.3-3.6-4-4.8-8-6.4
	c-1.1-0.4-2.3-0.8-3.6-1.2l0,0.1c-1-0.2-2-0.3-2.9-0.3c-4.2,0-7.6,2.1-9.3,5.9c-2.8,6-3.9,9.4-4.7,16.4c-0.3,2.9-1.2,4.6-2.1,6.6
	c-1.6,3.3-3.8,7.8-5.2,21.4c-0.5,4.6,0.5,7.3,2.5,11.5c0.2,0.5,0.5,0.9,0.7,1.3c0.6,1.1,1.1,2.1,1.6,3.6c0.4,1.2,0.4,2.5,0.5,3.7
	c0.1,1.2,0.1,2.3,0.4,3.3c0.4,1.4,2,2.8,3.8,3.6c1.7,0.7,3.3,0.8,4.5,0.2c2.2-1,2.7-5.2,3-8.2c0.1-0.8,0.2-1.6,0.3-2.3
	c0.2-0.9-0.1-2.3-0.4-3.8c-0.5-2.3-0.9-4.6,0-6.4c0.3-0.6,0.7-1.2,1-1.7c0.9-1.4,1.5-2.3,0.8-4.2c-0.2-0.1-0.8-0.3-1.2-0.5
	c-1.6-0.5-4-1.3-5.2-3.9l-0.1-0.2l0-0.2c-0.1-0.8-0.5-1.9-0.9-3.1C239.5,108.8,238.2,105.1,241.3,102.9z M246.1,50.6
	c-0.4,0.1-0.8,0.1-1.1,0.2l-0.1,0l-0.8-0.1c-3.3-0.6-5.7-1-9.1,0c-3.3,1-8.9,3.2-13,4.8l-2.2,0.9c-11.6,4.5-20.8,7.7-28.9,10.4
	l-3.9,1.3c-3.9,1.3-6.4,1.5-8.4,1.6c-2.4,0.1-4,0.3-6.4,2.4c2,2,5.7,3.2,8.5,4.1c2.6,0.8,4,1.3,4.4,2.3c0.9,3-1.4,4-2.9,4.7
	c-0.4,0.2-0.9,0.4-1.2,0.6c1.3,0.5,2.5,1.2,3.5,2.2c1-0.2,2-0.5,3.1-0.7c3.5-0.7,7.1-1.6,9.4-2.9c6.9-3.7,12.6-2.3,12.7-2.3l0.2,0.1
	c4.7,2.1,2.4,9.2,1,13.9c-0.3,0.9-0.6,1.8-0.7,2.5l-0.1,0.4c-1.9,7.5-4.3,16.9,0.6,23c3.5,4.3,2.4,10.5-2.7,17.1
	c0.4-0.1,0.9-0.2,1.3-0.3c1.1-0.3,2.2-0.5,3.4-0.5c1.2,0.1,2.3,0.4,3.3,0.7c1.1,0.3,2.1,0.6,3.2,0.6c1,0,2-0.1,3-0.2
	c1.6-0.2,3.3-0.4,5-0.1c1.4,0.3,2.5,1,3.6,1.7c0.6,0.4,1.3,0.8,1.9,1.1c0-0.4,0-0.7-0.1-1.1c-0.1-1.2-0.1-2.3-0.4-3.2
	c-0.4-1.3-0.8-2.2-1.4-3.3c-0.2-0.4-0.5-0.9-0.7-1.4c-2.2-4.4-3.2-7.6-2.7-12.6c1.4-13.9,3.7-18.6,5.3-22c1-2,1.6-3.4,1.9-5.9
	c0.8-7.4,2.1-11.1,4.9-17c1.6-3.5,4.5-5.8,8-6.7c-0.5-0.2-1-0.4-1.4-0.6c-1.8-0.9-3-2.4-3.4-4.2C241.7,58.2,244.3,53.4,246.1,50.6z
	 M177.5,147.4c2.2,0.1,4.3,0.3,6.3,0.3l0.2,0c6.7,0,14.9-4.3,18-7.3c7.8-7.6,10.3-14.7,6.7-19.2c-5.5-6.9-3-16.8-0.9-24.7l0.1-0.4
	c0.2-0.7,0.5-1.6,0.8-2.6c1.2-4,3.1-10,0.2-11.5c-0.7-0.1-5.5-0.9-11.2,2.1c-2.6,1.4-6.3,2.3-10,3.1c-7.6,1.6-12.5,3.2-19.7,5.7
	c-7.6,2.6-14.6,7-20.8,12.9l-1,0.9c-3.2,3-8.4,8.1-9.1,11.6l-0.1,0.6c-1,5-2.6,13.3,1.4,17.7c2.8,3.1,13.4,9,15.8,9.4l1.1,0.2
	c1.4,0.2,2.8,0.5,4.1,0.6c1.3-0.1,2.6-0.3,3.8-0.5c2.8-0.5,4.6-0.1,5.9,0.7C172.1,147.1,174.8,147.2,177.5,147.4z M170.4,73.2
	c-2.8,1.4-8.2,2.8-11.2,2.5c-0.5-0.1-1.1-0.2-1.7-0.3c-1-0.2-2.1-0.4-2.9-0.3c-1.5,0.2-3.8,1.1-5.9,1.9c-1.4,0.5-2.8,1.1-3.8,1.3
	c-2.2,0.6-4.4,0.4-6.5,0.2c-2.4-0.2-4.9-0.4-7.6,0.6c-2.1,0.8-3.3,1.7-4.3,2.5c-2,1.6-3.5,2.5-7.8,1.6c-4.8-1-9-0.6-13.8-0.1
	l-0.9,0.1c-1.3,0.1-2.7,0.1-3.9,0.1c-2.9,0-5.7,0-7.8,1.6c-1.2,0.9-2.3,1.2-3.3,1.4c-0.5,0.2-1,0.3-1.6,0.5c-1,0.4-2.7,0.4-4.5,0.4
	c-1.1,0-2.3,0-2.9,0.1c-2.9,0.6-3.5,1.2-4.3,1.9c-0.6,0.5-1.2,1.1-2.5,1.7c-1.1,0.5-2,0.5-2.9,0.4c-1.2-0.1-2.5-0.1-5,1.6
	c-1.3,0.9-4.9,1.6-9.6,2.6c-1.5,0.3-2.8,0.6-3.4,0.7c-0.6,0.2-1.3,0.4-2,0.6c0.7,0.8,1.5,2.1,1.4,4.2c1.6-0.1,2.6,0,2.6,0.1
	c1.7,0.2,3.4,0.3,5.1,0.3c0.7,0,1.3,0,1.8,0c0.4,0,0.8,0,1.1,0c0.7,0,1.5,0,2.1,0.5c0.5,0.3,0.7,0.7,0.8,0.9c0.3,0.9-0.2,1.8-1,3.2
	c-0.3,0.6-0.7,1.3-1.1,2.1c4.4,0.8,7.9,1.3,10.7-0.4c1-0.6,1.8-1.3,2.7-2.1c1.8-1.6,3.8-3.3,6.9-3.2c4.2,0.1,5.9-1.6,8-3.8
	c0.8-0.8,1.6-1.6,2.6-2.4c3.3-2.6,4.9-2.4,7.6-1.8c0.9,0.2,1.9,0.4,3.1,0.5c3.1,0.3,3.9-0.2,5.6-1.1c0.7-0.4,1.6-0.9,2.8-1.4
	c1.7-0.7,3.1-0.7,4.4-0.6c1.4,0,2.6,0.1,4.1-0.7c2-1.1,6.4-1.4,10.6-1.7c2.7-0.2,5.5-0.4,6.5-0.8c0.8-0.3,1.5-0.7,2.2-1.1
	c0.5-0.3,1.1-0.6,1.7-0.9c1.3-0.6,3.5-0.5,5.5-0.4c0.7,0,1.4,0.1,1.9,0.1c3.2-0.1,7-0.8,11-1.6c6.1-1.2,12.4-2.4,17.4-1.4
	c0.8-0.9,1.8-1.3,2.8-1.8c1.7-0.8,2.2-1.1,1.9-2.1c-0.4-0.3-1.9-0.8-3.1-1.2C176.8,77.1,172.7,75.8,170.4,73.2z M45,118.2
	c1.1-1.3,3.5-2.6,5.7-3.8c0.8-0.4,1.5-0.8,2-1.1c0.5-0.3,1.4-0.8,2.4-1.3c1.9-0.9,5.4-2.7,5.8-3.8c0.5-1.3,1.1-2.3,1.6-3.2
	c0.3-0.5,0.6-1.2,0.8-1.5l-0.1-0.1c0,0-0.2-0.1-0.9-0.1c-0.3,0-0.6,0-1,0c-0.5,0-1.2,0-1.9,0c-1.8,0-3.5-0.1-5.3-0.3
	c0,0-0.5-0.1-1.4-0.1c-1.1,0-2.9,0.1-4.9,0.5c-1.6,0.4-4.9,2.2-7.3,3.5c-0.9,0.5-1.6,0.9-2.3,1.2c-7.5,3.9-10.6,5.6-12.8,13
	c-0.9,3.1-0.6,5.9,0.7,7.8c1.5,2.1,4.3,2.4,6.8,0.8c0.3-0.2,0.7-0.4,1-0.6c0.1-0.1,0.1-0.2,0.2-0.3l0.1,0.1
	C38.6,125.9,41.2,122.8,45,118.2z M12.4,163.4c0.4,3.1,1,6.5,2.5,9.5c0.1,0,0.1-0.1,0.2-0.2c-0.9-3.5-1.3-7.7-1.4-9
	c-0.3-0.1-0.5-0.1-0.8-0.2C12.8,163.5,12.6,163.4,12.4,163.4z M18.9,176.3c0,0,0.1-0.1,0.1-0.1c-0.6-1.7-0.9-3-1-3
	c-0.7-2.4-0.9-4-1.3-8.5c-0.3-0.2-0.6-0.3-0.9-0.4C16.4,170.9,18,175.8,18.9,176.3z M22.9,180.5c0.1-0.6,0.2-1.3,0.4-2
	c-0.2-0.6-0.4-1-0.4-1.3c-0.7-2.4-1.6-6.1-2-10.5c-0.7-0.3-1.4-0.6-2-1c0.3,3.6,0.6,5,1.1,6.9C20.7,175.1,22,178.4,22.9,180.5z
	 M233.7,178.5l-0.4,2c-1.8-0.4-4.4-0.5-7-0.7c-0.4,0-0.9-0.1-1.3-0.1c0,0,0,0,0,0c3.4,4.6,9.1,10.3,14.1,12.9
	c3.2,1.6,6.6,1.9,9.4,0.8c1.1-0.4,2.1-0.9,3.2-1.5c1.6-0.8,3.3-1.6,5.3-2.2c-2.2-1.6-6.1-3.4-8.9-4.3l0.6-1.9
	c3.2,1,8.5,3.5,10.8,5.6c9.7-1.8,19.5-1,28.8,0.1c2.8,0.3,6.3,1.1,10,1.8c2.6,0.5,5.2,1.1,7.6,1.5c1.7,0.2,3.4,0.4,5,0.6
	c0.1,0,0.2,0,0.2,0c0.1,0,0.2,0,0.3,0c-3-1.1-5.6-2-7.6-2.7c-2.2-0.7-4.6-1.3-7-2c-2.5-0.7-4.9-1.3-6.9-2c-0.5-0.1-1.3-0.3-2.3-0.6
	c-6.9-1.7-14.4-3.9-15.5-7.8c-0.4-1.5,0.1-3,1.6-4.5c2-1.9,6.7-2,11.8-1.8c0.8,0,1.4,0,2,0c4.3,0,9.2,0.6,14.9,1.9
	c0.5,0.1,1.1,0.3,1.7,0.4c4.5,1.1,11.4,2.7,15.8,1c-0.9-0.1-1.8-0.3-2.7-0.5l-0.9-0.2c-1.4-0.3-2.8-0.5-4.1-0.8
	c-7.6-1.5-15.6-3-23.6-5.3c-4.7-1.4-5.5-8.9-5.5-13.3l0-0.2c-0.2-3.2,1-11.2,2.2-17.1c0.9-4.3,2.6-9.8,5.2-16.9l1-2.6
	c1.4-3.8,2.9-7.8,4-11.2c0.8-2.5,1-4.9,1.1-7.5c-1.2,3.6-2.8,7.4-4.6,10.5l-0.5,0.8c-2,3.3-6.1,10.1-8.5,13.4
	c-4.6,6.1-12.7,13.4-19.1,15.9c-3.9,1.5-6.7,1.6-9.3,1.7c-2.2,0.1-4.2,0.2-7,0.9c-0.6,2.2-1.5,4.2-3.4,5.1c-0.8,0.4-1.7,0.6-2.6,0.6
	c-1.1,0-2.3-0.3-3.5-0.8c-2.4-1-4.3-2.9-4.9-4.8c-0.1-0.2-0.1-0.3-0.1-0.5c-1.2-0.3-2.3-0.9-3.3-1.6c-1-0.6-1.9-1.2-3-1.5
	c-1.3-0.3-2.8-0.1-4.3,0.1c-1.1,0.1-2.2,0.3-3.3,0.3c-1.4,0-2.6-0.4-3.8-0.7c-1-0.3-1.9-0.6-2.9-0.6c-0.9,0-1.8,0.2-2.8,0.4
	c-1.1,0.3-2.3,0.5-3.6,0.5c-0.8,0.9-1.6,1.7-2.4,2.6c-3.8,3.7-12.8,7.9-19.4,7.9c0,0,0,0,0,0l-0.3,0c-2,0-4.2-0.2-6.4-0.3
	c-1.9-0.1-3.9-0.2-5.9-0.3c0.2,0.3,0.4,0.6,0.6,0.8c0.8,1.1,1.5,2,2.6,2.4c1,0.4,2,0.6,3.1,0.8c2.7,0.5,5.9,1.1,8.3,4.4
	c0.3,0.5,2.4,1.1,3.6,1.4c1.4,0.4,2.6,0.8,3.4,1.3c3,1.9,8,4.4,12,6.4c1.1,0.6,2.1,1.1,3,1.5c1.2,0.6,2.3,1.1,3.4,1.7
	c4.4,2.1,8.2,4,11.7,7.7c1,0.1,2.1,0.1,3.2,0.2C229.1,177.9,231.8,178.1,233.7,178.5z M324.5,224.1c0.8,1.4,2.8,2.1,5.5,2
	c3.2-0.2,6.3-2.7,8.5-5.4c0,0-0.1,0-0.1,0c-4.4-1-8.2-1.8-13.1-1.9c-0.1,0-0.2,0-0.3,0C324,220.9,323.8,222.8,324.5,224.1z
	 M29.7,179.5c-1.2-3.9-2-7.5-2.5-9.9c-1-0.4-1.9-0.8-2.9-1.3c-0.4-0.2-0.9-0.4-1.3-0.6c0.5,3.8,1.2,6.9,1.8,9
	c0.7,2.5,2.6,6.3,3.9,8.4C28.8,183.2,29.1,181.2,29.7,179.5z M79.8,285.3c0,0.1-0.1,0.2-0.1,0.3c0,0,0.1,0,0.1,0
	C79.8,285.5,79.8,285.4,79.8,285.3z M74.7,285.6c0,0,0-0.1-0.1-0.1C74.6,285.5,74.6,285.6,74.7,285.6
	C74.6,285.6,74.7,285.6,74.7,285.6z M30.4,188.3c0,0-0.1,0.1-0.1,0.1C30.3,188.4,30.3,188.3,30.4,188.3z"/>
</svg>
