<svg xmlns="http://www.w3.org/2000/svg" viewBox="0 0 206.37 93.46">
<title>tylosaurus2</title>
<g class="outline"><path d="M274.68,350.73c3.74,0,7.48,0,11.19.23,4.38.2,8.89.43,13.25.46,6.8,0,8.88,1.25,12.09,1.25,3.74,0,10,.66,13.67.71,3.11,0,7.33,1,10.45,1.08,5.63.12,10.23.12,16.13.12,8,0,15.75.88,23.68,1.25.25,0,.52,0,.8,0,.8,0,1.67,0,2.53,0a11.74,11.74,0,0,1,2.73.25c2.31.58,3.09,2.24,4.88,3.27,1.46.84,3,2,4.34,2.84.72.43,2,1,2.75,1.41a7.27,7.27,0,0,1,2,1.56c1.72,2.1,4.08,3,3.67,7.73-.14,1.65-.74,2.94-.51,4.47s.79,2.84.87,4.37c.13,2.25-1.27,3.57-1.4,5.77-1.68-.65-1.69-3.51-4-3.51a3.19,3.19,0,0,0-.59.06,14.65,14.65,0,0,0,.31,3.3,5.75,5.75,0,0,0,1.75,2.67c.73.89.63,1.1.5,2.42-.1,1-1,1.63-.75,2.66.49.44,3.38-.13,5.33.67,2.23.91,4.32,1.79,5.42,3.75a16.21,16.21,0,0,1,2.08,5.33,4.38,4.38,0,0,1-1.44,3.72,2,2,0,0,1-1.4.46c-1.36,0-3.13-.78-4.88-.78a5.14,5.14,0,0,0-1,.1c-1.1.24-5.66.42-7.25,2.25a5.2,5.2,0,0,1-2.63,1.3,21.13,21.13,0,0,1-4,1.31c-.18,1.34-3.76,3.22-4.86,4.06-1.94,1.5-12.75,5.83-16.58,7.25-5.38,2-11.5,4.5-17.45,6.7-1.19.43-14.78,5.91-16,6.3-2.13.69-4.16,2.17-5.84,2.17a2.37,2.37,0,0,1-.91-.17,2.7,2.7,0,0,0-1.57-.69c-.78,0-1.17.7-1.72,1a4.07,4.07,0,0,1-1.89.39c-2.16,0-4.83-1-6.44-1.2-3.42-.41-6.21-1.74-9.5-2.24-1.68-.26-5.25-1.25-5.17-1.25-2.57-.46-5.1-.56-7.56-.88-2.81-.36-6-.41-8.81-.66-7.41-.65-14.75-1.21-22.09-1.54-2.95-.14-21.5-1.25-24.66-1.25-1.3,0-2.54-.18-3.76-.18a8,8,0,0,0-2.16.26c-1,.27-3,.63-4.21.83a32.89,32.89,0,0,1-4.23.18h-2a18.49,18.49,0,0,1-6.79-.92c-.77-.29-3.17-.2-3.79-.75a4.69,4.69,0,0,1-.83-2c-.39-1.74-.73-3.24.08-4.66,1.11-2,3.71-1.21,5.79-1.75,0-1.6,1.64-4.48,2.19-4.48.07,0,.12,0,.15.14.38,2.55,1.08,3.55,3,3.55a9.58,9.58,0,0,0,1.4-.13c.92-.63.33-3.21,2.08-4.63a.19.19,0,0,1,.11,0c.39,0,.62,1.79,1.69,3.09.77.93,1.23.64,2.29.83a1.75,1.75,0,0,0,.35,0,1.45,1.45,0,0,0,1.48-.86,15,15,0,0,1,1.92-4.59c.11-.15.21-.21.29-.21.51,0,.65,2.39,2,3.92a2.73,2.73,0,0,0,1.87,1.07,1.47,1.47,0,0,0,.46-.07c1.67-.5,1.41-.91,1.63-2a10.28,10.28,0,0,1,1.74-4.36.24.24,0,0,1,.18-.1c.61,0,1.23,3.49,2.83,4.59a3,3,0,0,0,1.5.58,1.91,1.91,0,0,0,1.22-.52c.78-.64.36-2.75,1.61-5,.07-.15.16-.22.25-.22.83,0,2.65,4.69,4.76,4.69a1.43,1.43,0,0,0,.62-.14c.78-.14.48-4.31,2.71-6.25a.21.21,0,0,1,.12-.05c.58,0,1.13,3.36,2.29,4.76.6.72.5.71,1.34,1a3.32,3.32,0,0,0,1.29-2.45c.26-1.47,1.43-4.3,2.15-4.3.16,0,.29.14.39.46.36,2.07,1.13,4.9,3.41,4.9l.34,0c.87-1.68.75-2.34,1.33-4,.31-.85,1.13-2.38,1.57-2.38.13,0,.23.14.27.46a16.31,16.31,0,0,0,1.87,4.38,1.94,1.94,0,0,0,1.47.66,1.79,1.79,0,0,0,1.78-1.33c.36-1.29,1-4.43,2.25-5.08a.32.32,0,0,1,.2-.09c.55,0,.45,2.57.76,3.5.24.72,1.05,2.22,2.24,2.22h.18c1.37-.16,1.36-4.67,2.75-6.16.2-.22.36-.32.49-.32,1,0,.23,5.29,2.84,5.73a2.42,2.42,0,0,0,.45,0c.9,0,1.18-.58,1.38-1.33.36-1.33.5-3.62,1.67-5.33.14-.24.28-.35.41-.35.8,0,1.34,4.14,2,5.06a2.75,2.75,0,0,0,2.31,1.22,4.91,4.91,0,0,0,.53,0c.93-1.5.49-4.1,2-6.6q.14-.21.24-.21c.46,0,.73,2.65,2.35,4.67.47.58-.09.62,2.29.87h.15a5.74,5.74,0,0,0,2.18-.93c.14-.93,1.42-4.57,2-4.57.11,0,.19.12.24.41.46,1.87,1.75,3.75,3,3.92s4.73.34,5.75.79c1.2.52,1.7,1.67,2.64,2,.18-2.3-.34-1.75-1-3.48a2.65,2.65,0,0,1,1.66-3.25,12.15,12.15,0,0,1,3.78-.56c.58,0,1.14,0,1.72.06,1.3.06,3.72.65,5.18.75.31,0,.63,0,.95,0l1.87,0c3.69,0,6.83,0,9.81-2,1.83-1.23,2.89-3.38,4.55-4.67,1-.74,4.17-3.21,5.39-3.21h.09c1.25.14,2.82,2.63,3.5,3.75s1,1.32,2,1.32c.47,0,1.08-.07,1.91-.15,3.68-.36,6.87-.79,10.42-1.17,2.33-.25,6.71-.77,8.75-1.25,2.5-.58,4.21-1.58,6.33-1.83a17.19,17.19,0,0,1,1.95-.15,10.84,10.84,0,0,1,3,.57c-1.11-.8-1.9-1.38-.95-3.72a2.57,2.57,0,0,1-1.15.19,37,37,0,0,1-4.68-.6c-2.17-.34-13-2-15.12-2.46-4.65-1-12.27-2.5-16.86-3.87h0c-.36,0-.92,2.22-1.39,2.22l-.09,0c-.37-.25-.55-2-1.12-2.62a1,1,0,0,0-.83-.39,5.26,5.26,0,0,0-.67.07c-1.11.17-1.46,2.84-1.8,2.84-.05,0-.09,0-.14-.15-1.09-1.8.69-3.56-2.63-3.93-.72,1.11-.37,3-.71,3a.29.29,0,0,1-.16-.09c-.75-.94-.75-3.06-1.25-3.63a.66.66,0,0,0-.48-.27c-.84,0-1.25,2.81-1.56,2.81,0,0-.1-.07-.15-.22-.25-.68-.18-2.81-.56-3.25s-.52-.47-.73-.47c-.82,0-1,2.28-1.26,2.28a.1.1,0,0,1-.07-.06c-.37-.62,0-1.95-.5-2.56-.17-.21-.54-.68-1-.68s-.89.32-1.42,1.36c-.13.18-.22.26-.28.26-.33,0,.08-2.19-.78-2.88a1.36,1.36,0,0,0-.85-.37c-1,0-1.31,1.77-1.54,1.77,0,0-.08,0-.11-.15-.31-1.19.12-2.94-1.07-3.5h0c-.81,0-.81,1.85-1.44,1.85a.53.53,0,0,1-.16,0c-.56-.24-.44-1.95-.69-2.25a15,15,0,0,0-2.56-1.75,2.14,2.14,0,0,0-1-.3c-1.63,0-1.44,3.09-2,3.09a.28.28,0,0,1-.19-.08c-1.41-1-1-3.67-2.37-3.71-.77,0-1.2-.22-1.66-.22a2.09,2.09,0,0,0-1.26.51c-1.62,1.2-1.36,3.26-1.79,3.26-.08,0-.18-.07-.32-.23a11.15,11.15,0,0,1-1.7-4.32,6,6,0,0,0-1.13-.12c-3.83,0-3.18,4.69-3.87,4.74-1,0-1.94-2-2.11-2.79-.3-1.5,0-2.35-1.54-2.35l-.47,0c-4.69.36-2.31,6.14-3.52,6.14l-.11,0c-1.23-.52-1.9-2.46-2-4-.13-1.94-.11-2.08-1.85-2.75a3.4,3.4,0,0,0-1.23-.26c-2.2,0-2.67,3-3,5.35,0,.36-.1.5-.29.5-.55,0-1.75-1.28-2-2.21a21,21,0,0,1-.62-4.75,3.44,3.44,0,0,0-.81-.1c-3.65,0-3.75,6.71-4.28,6.71a.09.09,0,0,1-.06,0c-2.37-2.08-1.71-6.7-2.87-7.2a2.89,2.89,0,0,0-1.22-.35,1.44,1.44,0,0,0-.6.13c-2.79,1.25-2.61,5.36-3.59,5.36a.71.71,0,0,1-.43-.2c-1.62-2.36-.92-5.27-2.82-5.82a1.32,1.32,0,0,0-.39-.06c-1.61,0-2.56,3-2.79,4.27-.15.46-.32.65-.48.65-.58,0-1.18-2.14-1.31-2.82s-.33-2.46-.75-2.92c.08-.18-.92-.55-1.57-.55h-.18c-2,.13-3.41,4.21-3.58,5.54,0,.15-.09.21-.16.21-.41,0-1.29-2.24-1.47-3.21s-.33-2.95-.85-3.59a3.11,3.11,0,0,0-1.26-.33,1.52,1.52,0,0,0-1.22.59c-1.53,1.86-1.44,5.14-2.16,5.14a.32.32,0,0,1-.17-.06c-1.84-1-.47-5.45-2.29-6.29a1.7,1.7,0,0,0-.69-.14,3.34,3.34,0,0,0-2.19,1.1c-1.65,1.73-.5,4.18-1.2,4.18a.74.74,0,0,1-.22-.05c-2.69-1.24-1.32-4.78-3.08-6.34a4.82,4.82,0,0,0-2.57-.66,2.3,2.3,0,0,0-.94.16c-1.7.78-1.54,5.94-2.17,5.94l-.07,0c-2.53-1.34-2-4.92-3.12-5.58a4.31,4.31,0,0,0-2.14-.78c-1.54,0-2,1.82-2.16,3.9,0,.11.07.94-.25.94a.32.32,0,0,1-.16-.06c-.87-.52-1.38-1.93-2-3.29s-.59-2.75-2.41-2.75a3.65,3.65,0,0,0-.55,0c-2.51,1.33-2.34,5.2-2.93,5.2a.27.27,0,0,1-.19-.12c-1.61-1.76-1.11-5.11-2.73-5.11a1.48,1.48,0,0,0-.44.07c-1.85,1.58-.88,4.37-1.61,4.37a.45.45,0,0,1-.18,0c-.37-.15-1-1.4-1.17-1.75a16.18,16.18,0,0,0-1.21-2.37c-.93-.78-2.72-.94-3.84-1.83s-2-1.73-1.62-3.21,1.09-2,2.3-2.76a11.24,11.24,0,0,1,4.12-1.33s7.68-1.15,11.5-1.67c1.39-.18,3.3-.21,4.71-.32.44,0,.82-.05,1.29-.13.67-.13,1.74-.15,2.25-.21,2.58-.34,5.13-.25,7.83-.5,4.41-.41,18-.61,21-.63,4.66,0,9.37-.1,14.08-.1m0-2c-2.69,0-5.42,0-8.05.06-2,0-4,0-6,0-2.64,0-16.6.21-21.19.64-1.14.1-2.29.15-3.39.19-1.47.06-3,.12-4.52.31-.16,0-.4,0-.66.06a13.59,13.59,0,0,0-1.7.17,7.19,7.19,0,0,1-.72.08l-.36,0c-.52.05-1.11.08-1.71.11-1.06,0-2.16.11-3.11.23-3.79.52-11.45,1.66-11.53,1.67h0a13.23,13.23,0,0,0-4.83,1.61l-.1.06a5.66,5.66,0,0,0-3.08,3.93c-.66,2.84,1.42,4.51,2.31,5.23a8.78,8.78,0,0,0,2.64,1.31,8.37,8.37,0,0,1,1,.38,10,10,0,0,1,.65,1.32l.22.48c1.06,2.27,1.9,2.62,2.22,2.75a2.39,2.39,0,0,0,.94.19,2.13,2.13,0,0,0,2.17-1.81,6.1,6.1,0,0,0,1.13,1.83,2.29,2.29,0,0,0,1.67.77c1.77,0,2.19-1.71,2.42-2.62a5.65,5.65,0,0,1,1.09-2.55c.06.15.13.34.18.49s.21.62.36,1l.19.44c.61,1.47,1.25,3,2.58,3.78a2.29,2.29,0,0,0,1.19.35c.37,0,2.22-.14,2.24-2.73h0v0a7,7,0,0,1,.37-2,3.24,3.24,0,0,1,.6.27c.07.2.15.52.22.77.36,1.43,1,3.81,3.3,5a2.18,2.18,0,0,0,1,.25c1.94,0,2.25-1.92,2.5-3.45a14.17,14.17,0,0,1,.62-2.65,4.35,4.35,0,0,1,1.3.23,5.12,5.12,0,0,1,.4,1.57c.25,1.54.62,3.87,3.11,5l0,0,0,0a2.59,2.59,0,0,0,1,.2,2.22,2.22,0,0,0,1.58-.66,3,3,0,0,0,.67-2.33c0-.82,0-1.39.4-1.81a2.13,2.13,0,0,1,.43-.35c.07.38.12.91.15,1.27.13,1.59.32,3.76,2.16,4.78a2.33,2.33,0,0,0,1.15.31c1.9,0,2.35-1.86,2.65-3.09a11.66,11.66,0,0,1,.62-2c0,.3.09.59.12.8s.09.65.14.89c.09.5,1,4.84,3.43,4.84a2.18,2.18,0,0,0,2.1-1.72l0-.12v-.12c.15-1.13,1.18-3.42,1.81-3.79.08.37.17.9.22,1.21s.07.45.11.63c.38,2,1.26,4.44,3.27,4.44a2.51,2.51,0,0,0,2.38-2l0-.14,0-.13a7.87,7.87,0,0,1,.72-2.12c.05.22.11.46.16.66a10.52,10.52,0,0,0,1.51,3.85l.15.23.2.17a2.61,2.61,0,0,0,1.72.67c1.83,0,2.4-1.71,2.77-2.85a4.87,4.87,0,0,1,1.36-2.52c.06.28.12.62.17.91.32,1.84.76,4.36,2.66,6a2.15,2.15,0,0,0,1.38.52c1.75,0,2.11-1.63,2.37-2.81a13.91,13.91,0,0,1,.93-3,14.87,14.87,0,0,0,.5,2.51c.38,1.27,2.07,3.64,3.94,3.64a2.25,2.25,0,0,0,1.65-.7,2.44,2.44,0,0,0,.64-1.68c.29-2.07.61-3.24,1-3.48a2.16,2.16,0,0,1,.52.13l.51.21c0,.2,0,.47.06.72v.1c.14,2.06,1.06,4.78,3.21,5.7l.16.07.16,0a2.3,2.3,0,0,0,.58.07c2.4,0,2.41-2.66,2.41-3.54,0-2.19.28-2.49,1.05-2.58,0,.21.06.45.11.71.19.92,1.43,4.38,4.05,4.39h.18c1.7-.14,2-1.81,2.21-2.62.31-1.51.58-1.95,1.05-2.07a10.44,10.44,0,0,0,1.72,3.65l0,0,0,0a2.4,2.4,0,0,0,1.81.89c1.14,0,1.91-.74,2.26-2.2a2.33,2.33,0,0,1,.72-1.45l.16-.11.16,0c.17,0,.39.08.64.11a2.13,2.13,0,0,0,.08.27,5.36,5.36,0,0,0,1.88,3.11,2.24,2.24,0,0,0,1.37.47c1.78,0,2.22-1.74,2.41-2.49l.08-.3c.4.25.94.6,1.3.85.11.92.31,2.41,1.7,3a2.41,2.41,0,0,0,.94.2,3.08,3.08,0,0,0,.54-.06c0,.07,0,.14.05.22l0,.06,0,.06a2.09,2.09,0,0,0,2,1.52,1.93,1.93,0,0,0,1.12-.33A2.07,2.07,0,0,0,331.1,385a3.38,3.38,0,0,0,.37,1,2.1,2.1,0,0,0,1.79,1,2.37,2.37,0,0,0,.61-.08.88.88,0,0,0,.05.15,2.12,2.12,0,0,0,2,1.59,1.88,1.88,0,0,0,1.25-.42,4,4,0,0,0,.48.76l.09.11.1.1a2.22,2.22,0,0,0,1.53.63,2,2,0,0,0,1.37-.49,4.11,4.11,0,0,0,.21.42,2.11,2.11,0,0,0,1.9,1.19,2.42,2.42,0,0,0,2.21-1.89,2.91,2.91,0,0,0,1.1,1.66h0l0,0a2.23,2.23,0,0,0,1.15.33,2.66,2.66,0,0,0,2.36-1.86c3.63,1,8.39,2,12.32,2.8l3.17.67c1.79.39,9.25,1.56,15.19,2.48l.34.05c-.8.2-1.55.47-2.28.73a24.58,24.58,0,0,1-2.7.84c-1.74.41-5.53.89-8.51,1.21-1.5.16-2.93.33-4.36.5-1.93.22-3.92.46-6,.67l-.33,0c-.61.06-1.08.11-1.39.11h-.06c-.05-.07-.13-.18-.24-.36-1.4-2.31-3-4.48-5-4.7h-.31c-1,0-2.48.44-6.61,3.63a14.61,14.61,0,0,0-2.38,2.48,10.66,10.66,0,0,1-2.07,2.11c-2.39,1.62-4.86,1.7-8.69,1.7H328c-.28,0-.55,0-.82,0-.62,0-1.53-.2-2.41-.36a25.8,25.8,0,0,0-2.8-.39c-.62,0-1.21-.06-1.82-.06a14,14,0,0,0-4.36.65A4.64,4.64,0,0,0,313,406.4a4.54,4.54,0,0,0-.48,2.07c-1-.18-2.2-.31-3.71-.44l-1.22-.13a4.49,4.49,0,0,1-1.36-2.37,2.25,2.25,0,0,0-2.2-2c-1.62,0-2.38,1.58-3,3.19-.24.61-.51,1.37-.71,2.05a3.79,3.79,0,0,1-.48.25L299,409l0,0a9.68,9.68,0,0,1-1.44-2.93c-.34-1-.85-2.48-2.47-2.48a2.23,2.23,0,0,0-1.94,1.16,12.61,12.61,0,0,0-1.59,4.83c0,.09,0,.18,0,.26-.15-.38-.34-1.08-.46-1.53-.6-2.13-1.15-4.15-3.13-4.15a2.42,2.42,0,0,0-2.09,1.27,12.69,12.69,0,0,0-1.7,4.85l0,.16a16.19,16.19,0,0,1-.32-1.61c-.2-1.28-.54-3.43-2.61-3.43a2.66,2.66,0,0,0-2,.95,9.53,9.53,0,0,0-1.78,4.17c0,.09-.05.18-.07.27,0-.26-.07-.63-.1-.88-.13-1.4-.36-3.74-2.51-3.74a2.23,2.23,0,0,0-1.28.4c-1.63,1-2.32,3.23-2.95,5.66a2.29,2.29,0,0,1-.07.28,18.41,18.41,0,0,1-1.29-3.15,2.31,2.31,0,0,0-2.25-2.19c-1.85,0-2.95,2.32-3.45,3.7a16.08,16.08,0,0,0-.52,1.76l0,.1a9.51,9.51,0,0,1-.69-2.44l0-.12,0-.12a2.41,2.41,0,0,0-2.3-1.88c-2.26,0-3.47,3.44-3.91,5.09-.15-.37-.28-.75-.39-1.07-.53-1.51-1.07-3.07-2.77-3.07a2.18,2.18,0,0,0-1.43.54,9.16,9.16,0,0,0-2.62,5.23c-.43-.52-.89-1.2-1.14-1.58-.91-1.36-1.63-2.44-3-2.44a2.27,2.27,0,0,0-2,1.3,11.23,11.23,0,0,0-1.21,3.88c0,.14,0,.29-.08.43l-.16-.09a7.65,7.65,0,0,1-1.24-2.28c-.52-1.24-1.11-2.65-2.7-2.65a2.25,2.25,0,0,0-1.71.82,11.53,11.53,0,0,0-2.17,5.24c0,.14,0,.27-.07.39h0a2.19,2.19,0,0,1-.42-.38,6.26,6.26,0,0,1-1-2.14c-.31-.91-.82-2.44-2.48-2.44a2.33,2.33,0,0,0-1.88,1,13.8,13.8,0,0,0-2,4.5l0,.12c-.28,0-.52-.06-.71-.07h-.12l0,0a6,6,0,0,1-.84-1.65c-.32-.81-.84-2.16-2.39-2.16a2.14,2.14,0,0,0-1.36.49,6.49,6.49,0,0,0-2.14,4.19l0,.12h-.06a1.19,1.19,0,0,1-.52-.07s-.29-.25-.52-1.78l0-.12,0-.13a2.15,2.15,0,0,0-2.07-1.59,2.47,2.47,0,0,0-1.78.81,10.59,10.59,0,0,0-2.12,3.89l-.51,0c-1.7.09-4,.22-5.31,2.5-1.18,2.09-.71,4.2-.3,6.06a5.71,5.71,0,0,0,1.47,3.09,5.87,5.87,0,0,0,3.42,1,8.35,8.35,0,0,1,1,.13,20.32,20.32,0,0,0,7.43,1h2a32,32,0,0,0,4.57-.21c1.61-.28,3.39-.6,4.39-.87a6.06,6.06,0,0,1,1.64-.19c.54,0,1.09,0,1.68.08s1.35.1,2.08.1c2.17,0,12.1.55,18.67.92l5.9.32c6.36.29,13.35.78,22,1.54,1.15.1,2.36.17,3.53.24,1.75.1,3.57.2,5.2.41,1,.13,2,.23,2.95.32,1.46.13,3,.27,4.44.53l.47.15,1.42.37c1,.27,2.44.61,3.41.76a31.19,31.19,0,0,1,4.14,1,32.33,32.33,0,0,0,5.43,1.23c.49.06,1.22.25,2,.44a19.66,19.66,0,0,0,4.68.78,5.94,5.94,0,0,0,2.83-.62,4.78,4.78,0,0,0,.9-.65l.25.18.21.15.24.1a4.34,4.34,0,0,0,1.66.32,10.33,10.33,0,0,0,4.27-1.33,18.5,18.5,0,0,1,2.19-.94c.74-.24,4.84-1.87,10.55-4.15,2.6-1,5.05-2,5.49-2.18,3.1-1.14,6.25-2.37,9.29-3.56,2.88-1.12,5.59-2.18,8.16-3.13,2.19-.81,14.65-5.64,17.12-7.55.2-.16.63-.43,1.07-.71a14.66,14.66,0,0,0,3.91-3.15,14.21,14.21,0,0,0,2-.71,12.1,12.1,0,0,1,1.25-.47l.36-.11a6.25,6.25,0,0,0,3.19-1.79c.77-.9,3.84-1.28,5-1.43.48-.06.86-.11,1.16-.17a2.93,2.93,0,0,1,.61-.06,10.81,10.81,0,0,1,2.28.37,11.55,11.55,0,0,0,2.6.41,4,4,0,0,0,2.72-1,6.34,6.34,0,0,0,2.09-5.6,18.16,18.16,0,0,0-2.31-5.93c-1.45-2.59-4.08-3.67-6.4-4.62a9.82,9.82,0,0,0-3.47-.61,4.49,4.49,0,0,0,.12-.69l0-.32a4,4,0,0,0-.46-2.84l2.32.9.17-2.73a6.66,6.66,0,0,1,.57-2,8.92,8.92,0,0,0,.83-4,15.51,15.51,0,0,0-.54-2.95c-.15-.56-.28-1.09-.36-1.58a6.4,6.4,0,0,1,.21-2,15.79,15.79,0,0,0,.32-2,8.77,8.77,0,0,0-3.08-8.07,13.24,13.24,0,0,1-1-1.1,9,9,0,0,0-2.59-2.05l-1.13-.57c-.56-.27-1.18-.59-1.55-.8-.58-.35-1.21-.78-1.89-1.24s-1.63-1.13-2.47-1.61a8.81,8.81,0,0,1-1.42-1.12,8.81,8.81,0,0,0-4-2.36,13.8,13.8,0,0,0-3.21-.31l-1.36,0-1.17,0h-.71c-2.9-.14-5.83-.35-8.67-.55-4.92-.35-10-.71-15.1-.71-5.85,0-10.48,0-16.08-.12a45.44,45.44,0,0,1-4.89-.52,45.59,45.59,0,0,0-5.59-.56c-1.71,0-4.06-.19-6.34-.35-2.61-.18-5.32-.36-7.35-.36a19,19,0,0,1-3.44-.42,44.34,44.34,0,0,0-8.63-.83c-4,0-8.18-.22-12.21-.41l-1-.05c-3.31-.15-6.9-.23-11.29-.23Z" transform="translate(-203.51 -348.73)"/></g>
<g class="skull"><path d="M318.39,440.7a18.92,18.92,0,0,1-4.3-.74,19.38,19.38,0,0,0-2.18-.48,30.82,30.82,0,0,1-5.19-1.18,31.94,31.94,0,0,0-4.34-1.06,24.13,24.13,0,0,1-5.16-1.32l0,.07c-1.56-.28-3.13-.43-4.64-.57-1-.09-1.94-.18-2.89-.3-1.69-.22-3.53-.33-5.32-.43-1.18-.07-2.36-.14-3.48-.23-8.67-.77-15.68-1.25-22.06-1.55-.87,0-3.09-.16-5.88-.32-6.59-.37-16.54-.92-18.76-.92-.68,0-1.34-.05-2-.09a11.31,11.31,0,0,0-3.82.15c-.95.26-2.77.59-4.25.84a44.22,44.22,0,0,1-6.3.18,19,19,0,0,1-7-.95,8,8,0,0,0-1.36-.21,2.89,2.89,0,0,1-3.57-2.9c-.4-1.78-.76-3.43.13-5s2.52-1.66,4.09-1.75a12.94,12.94,0,0,0,1.67-.16c.21-1.65,1.61-4.43,2.56-4.57a.66.66,0,0,1,.73.51c.24,1.6.58,2.42,1.12,2.82a3.53,3.53,0,0,0,2.59.26,3.36,3.36,0,0,0,.38-1.24,5.13,5.13,0,0,1,1.61-3.31.63.63,0,0,1,.59-.13c.4.11.56.51.82,1.18a7.5,7.5,0,0,0,1.08,2.07,1.32,1.32,0,0,0,1.2.57,5.28,5.28,0,0,1,.8.09c.22,0,1.08.07,1.27-.5.07-.21.14-.45.22-.72a12.41,12.41,0,0,1,1.77-4,.81.81,0,0,1,.8-.41c.5.08.68.61.95,1.41a7.57,7.57,0,0,0,1.35,2.67c.68.74,1.27,1,1.82.85,1.08-.32,1.11-.47,1.2-1.08,0-.15,0-.31.08-.5a10.31,10.31,0,0,1,1.85-4.58.74.74,0,0,1,.66-.28c.53.08.79.7,1.21,1.73a7.33,7.33,0,0,0,1.8,2.95c.94.59,1.39.69,2.12.08a2.87,2.87,0,0,0,.43-1.42,10.12,10.12,0,0,1,1.07-3.45.73.73,0,0,1,.63-.47c.61-.06,1.07.63,1.82,1.77,1,1.41,2.25,3.35,3.4,2.82h0a6.52,6.52,0,0,0,.33-1.28c.3-1.43.75-3.59,2.24-4.88a.68.68,0,0,1,.62-.16c.52.14.75.82,1.18,2.05a10.45,10.45,0,0,0,1.33,2.87l.21.27a1.27,1.27,0,0,0,.66.52,3.1,3.1,0,0,0,.88-2c.14-.82,1.29-4.64,2.59-4.71.25,0,.69.07.92.82.54,3.11,1.46,4.55,2.95,4.54a9.08,9.08,0,0,0,.71-2,15.7,15.7,0,0,1,.47-1.61s1.06-2.84,2.11-2.7c.22,0,.6.17.69.89a16.57,16.57,0,0,0,1.76,4.12,1.47,1.47,0,0,0,1.42.44,1.24,1.24,0,0,0,1-.92c.05-.17.1-.38.16-.6.52-2.06,1.14-4.13,2.3-4.77a.73.73,0,0,1,.72-.12c.54.22.64,1,.77,2.33a9.48,9.48,0,0,0,.21,1.47c.22.65,1,1.95,1.89,1.87.39-.05.77-1.52,1-2.5a8.43,8.43,0,0,1,1.43-3.51,1.14,1.14,0,0,1,1.08-.45c.61.19.73,1,.91,2.13.24,1.5.53,3.37,1.79,3.58.84.14,1.05-.11,1.27-.93.09-.33.16-.72.24-1.15a11.33,11.33,0,0,1,1.5-4.33c.3-.52.66-.6.91-.56.74.1,1.07,1.16,1.59,3a9.45,9.45,0,0,0,.76,2.2,2.25,2.25,0,0,0,2.14,1,8.1,8.1,0,0,0,.53-2.11,11.13,11.13,0,0,1,1.39-4.28.77.77,0,0,1,.73-.45c.5.06.67.56,1,1.47a11,11,0,0,0,1.69,3.38,2.76,2.76,0,0,1,.24.37,6.38,6.38,0,0,0,1.71.33,2.7,2.7,0,0,0,1.39-.51l.47-.26c.27-1,1.33-4.72,2.42-4.73.23,0,.62.1.74.83.43,1.72,1.61,3.37,2.54,3.5l1.38.14a19.51,19.51,0,0,1,4.5.69,5.17,5.17,0,0,1,1.59,1.19c.13.14.26.26.39.38a1.84,1.84,0,0,0-.34-1.16,5.89,5.89,0,0,1-.64-1.28,2.87,2.87,0,0,1,.17-2.27,3.15,3.15,0,0,1,1.82-1.63,14.57,14.57,0,0,1,5.62-.52,23.26,23.26,0,0,1,2.66.37c.92.16,1.87.33,2.57.38s1.24,0,1.85,0h.94c3.56,0,6.63,0,9.53-1.95a11.87,11.87,0,0,0,2.39-2.41,13.75,13.75,0,0,1,2.14-2.24c4-3.11,5.26-3.39,5.83-3.32,1.37.16,2.79,2.21,3.87,4,.74,1.2.87,1.19,3.11,1l.34,0c2.13-.21,4.1-.44,6.07-.67,1.42-.17,2.85-.34,4.34-.5,3-.32,6.89-.82,8.69-1.24a25.67,25.67,0,0,0,2.87-.89,16,16,0,0,1,3.52-.95,10.1,10.1,0,0,1,3.4,0,2.82,2.82,0,0,1-.07-2.11,19.85,19.85,0,0,1-4.11-.43l-1-.17c-8.42-1.29-13.79-2.17-15.16-2.46l-3.17-.67c-4.37-.92-9.79-2.06-13.45-3.14-.1.17-.21.44-.3.64-.36.84-.61,1.35-1,1.49a.66.66,0,0,1-.55-.07c-.34-.23-.48-.7-.67-1.35a4.1,4.1,0,0,0-.55-1.35c-.25-.26-.29-.29-1.07-.17-.4.06-.8,1.16-1,1.69s-.41,1.13-.87,1.15a.65.65,0,0,1-.62-.44,4,4,0,0,1-.47-2c0-.9-.05-1.34-1.42-1.55a5.5,5.5,0,0,0-.3,1.67c0,.61-.06,1.05-.47,1.21a.65.65,0,0,1-.72-.19,5.73,5.73,0,0,1-.91-2.41,4.1,4.1,0,0,0-.37-1.24c-.09-.1-.13-.12-.14-.12a6.55,6.55,0,0,0-.64,1.57c-.26.78-.41,1.22-.9,1.25-.2,0-.48-.1-.62-.58a6.71,6.71,0,0,1-.22-1.53,6.62,6.62,0,0,0-.24-1.54c-.23-.27-.35-.29-.35-.29-.18.1-.42.94-.51,1.25-.16.58-.27,1-.68,1l-.33.05-.24-.35a2.9,2.9,0,0,1-.27-1.4,2.13,2.13,0,0,0-.19-1.1c-.15-.18-.44-.5-.66-.48s-.46.12-.94,1.08c-.16.22-.46.63-.89.5s-.48-.59-.51-1.23-.08-1.45-.43-1.73c-.17-.14-.42-.3-.6-.26s-.58.67-.74,1-.33.77-.76.74a.62.62,0,0,1-.56-.49,7.23,7.23,0,0,1-.17-1.37c-.05-.88-.11-1.47-.49-1.75a3.27,3.27,0,0,0-.31.65,1.74,1.74,0,0,1-.76,1.09.86.86,0,0,1-.67,0c-.62-.26-.72-1.1-.81-1.83a3.86,3.86,0,0,0-.1-.6,17.47,17.47,0,0,0-2.38-1.59,1.24,1.24,0,0,0-1-.19c-.44.2-.66,1.05-.82,1.68s-.3,1.18-.75,1.33a.75.75,0,0,1-.71-.16,3.87,3.87,0,0,1-1.31-2.32c-.27-.88-.42-1.27-.77-1.28a5.71,5.71,0,0,1-1.1-.14,1.44,1.44,0,0,0-1.5.33,3.75,3.75,0,0,0-1.29,2.31c-.12.49-.22.92-.65,1a.89.89,0,0,1-.85-.37,11.33,11.33,0,0,1-1.74-4.22c-2.69-.39-3.28,1.32-3.68,3.26-.16.77-.28,1.38-.86,1.42-1.52,0-2.49-2.49-2.64-3.19-.07-.34-.1-.65-.14-.93-.12-1-.13-1.1-1.34-1-2.45.19-2.65,2-2.65,4.1,0,.9,0,1.54-.42,1.87a.82.82,0,0,1-.72.14c-1.51-.64-2.26-2.69-2.38-4.45s-.12-1.78-1.53-2.32a2,2,0,0,0-1.82,0c-1.17.69-1.5,3.11-1.72,4.71a.79.79,0,0,1-.63.93c-.91.16-2.34-1.5-2.66-2.56a20.06,20.06,0,0,1-.62-4.47,2.14,2.14,0,0,0-1.46.3c-1.38.86-1.92,3.29-2.24,4.75-.23,1-.33,1.48-.73,1.61l-.28.09-.29-.21c-1.5-1.32-1.87-3.45-2.17-5.16-.13-.74-.33-1.86-.57-2-.67-.31-1.06-.37-1.42-.21-1.49.67-2,2.35-2.45,3.58-.31.95-.53,1.62-1.11,1.79a1,1,0,0,1-1-.29l-.09-.1a9.32,9.32,0,0,1-1.28-3.34c-.31-1.31-.52-2.07-1.27-2.28a.86.86,0,0,0-.74.11c-.94.59-1.61,2.58-1.8,3.71-.25.75-.58,1.09-1,1.06-1.12-.07-1.69-2.9-1.75-3.23,0-.16-.06-.36-.1-.58a7.35,7.35,0,0,0-.53-2.09l-.13-.14a2.63,2.63,0,0,0-1.18-.24c-1.57.1-3,3.64-3.16,5.11-.15.61-.54.65-.67.64-1.08,0-1.93-3.58-1.94-3.61,0-.23-.08-.52-.13-.83a9.21,9.21,0,0,0-.56-2.46c-1.06-.45-1.5-.14-1.76.18a8.42,8.42,0,0,0-1.36,3.37c-.25,1-.41,1.68-.91,1.89a.75.75,0,0,1-.71-.07c-1.13-.62-1.26-2.13-1.39-3.59-.1-1.17-.2-2.38-.85-2.67s-1.7.21-2.31.85a3.73,3.73,0,0,0-.81,2.88c0,.6,0,1.07-.35,1.32a.78.78,0,0,1-.8,0c-1.78-.82-2.05-2.45-2.28-3.9a4.13,4.13,0,0,0-1-2.53,4.58,4.58,0,0,0-3-.42c-.8.37-1.15,2.51-1.36,3.8s-.32,1.91-.75,2.12a.61.61,0,0,1-.57,0c-1.74-.91-2.21-2.74-2.55-4.08-.17-.67-.35-1.36-.61-1.52-1.05-.65-1.85-.85-2.36-.59-.82.41-1.06,2.1-1.17,3.34l0,.11v0c0,.37,0,.93-.42,1.16a.73.73,0,0,1-.75-.06c-.9-.54-1.42-1.77-2-3.07l-.19-.45a8.26,8.26,0,0,1-.32-.86c-.39-1.13-.58-1.71-2-1.56-1.38.8-1.82,2.56-2.12,3.73-.2.84-.33,1.34-.8,1.47a.74.74,0,0,1-.72-.26,7.25,7.25,0,0,1-1.41-3.16c-.19-.76-.4-1.55-.73-1.74a.54.54,0,0,0-.42,0,4,4,0,0,0-1,2.91c0,.67-.07,1.16-.46,1.4a.75.75,0,0,1-.75,0c-.57-.23-1.24-1.59-1.43-2-.07-.14-.13-.29-.2-.44a12,12,0,0,0-.93-1.8,6.13,6.13,0,0,0-1.58-.72,7.34,7.34,0,0,1-2.2-1.06c-.84-.68-2.24-1.8-1.79-3.72a4.21,4.21,0,0,1,2.41-3l.1-.06a11.69,11.69,0,0,1,4.3-1.4c.09,0,7.75-1.16,11.52-1.67h0c.89-.12,1.95-.17,3-.23l1.76-.1.34,0a6,6,0,0,0,.9-.1c.44-.08,1-.11,1.52-.15.3,0,.57,0,.76-.06,1.46-.19,2.94-.24,4.37-.3,1.13,0,2.3-.09,3.48-.2,4.54-.42,18.43-.62,21.06-.63,2,0,4,0,6,0,6.33-.07,12.87-.13,19.26.17l1,0c4.05.2,8.23.39,12.27.42a42.93,42.93,0,0,1,8.37.81,20.36,20.36,0,0,0,3.71.44c2,0,4.66.18,7.25.36,2.4.17,4.67.32,6.42.35a42,42,0,0,1,5.41.55,47.25,47.25,0,0,0,5,.53c5.62.12,10.26.12,16.12.12,5,0,10.1.36,15,.71,2.85.2,5.8.41,8.71.54.6,0,1.28,0,2,0a16.6,16.6,0,0,1,4.17.25,7.3,7.3,0,0,1,3.33,2,10.23,10.23,0,0,0,1.68,1.31c.79.45,1.6,1,2.38,1.54s1.34.93,2,1.3c.42.24,1,.55,1.65.85l1.08.55a7.58,7.58,0,0,1,2.15,1.68,16.55,16.55,0,0,0,1.14,1.21,7.35,7.35,0,0,1,2.65,6.88,15,15,0,0,1-.3,1.8,7.42,7.42,0,0,0-.22,2.56,17.84,17.84,0,0,0,.38,1.75,13.46,13.46,0,0,1,.5,2.66A7.33,7.33,0,0,1,399,385a8,8,0,0,0-.68,2.5l0,.69-.64-.25a3.89,3.89,0,0,1-1.8-1.85c-.61-1-1.09-1.68-2.14-1.63a14.27,14.27,0,0,0,.31,2.76,3.82,3.82,0,0,0,1.16,1.91l.49.54a2.53,2.53,0,0,1,.64,2.45l0,.33a3.64,3.64,0,0,1-.47,1.35,1.91,1.91,0,0,0-.32.93c.24,0,.78,0,1.22,0a10.24,10.24,0,0,1,3.84.51c2.2.9,4.47,1.83,5.67,4a16.8,16.8,0,0,1,2.14,5.49,4.93,4.93,0,0,1-1.61,4.18c-1,.92-2.47.58-4,.22a8.5,8.5,0,0,0-3.55-.32c-.23.05-.59.1-1,.15-1.68.21-4.8.61-6,1.94a4.84,4.84,0,0,1-2.48,1.33l-.39.12c-.47.14-.91.33-1.35.51a10.78,10.78,0,0,1-2.41.77c-.42,1-1.9,2-3.76,3.21-.48.32-.91.59-1.18.8-2,1.54-12.77,5.86-16.72,7.32-2.58,1-5.3,2-8.18,3.14-3,1.19-6.18,2.42-9.27,3.55l-5.52,2.2c-4.33,1.72-9.72,3.87-10.46,4.12a22.25,22.25,0,0,0-2.38,1c-1.68.81-3.28,1.57-4.72,1l-.11-.06c-1.21-.91-1.58-.6-2.12-.12a3.29,3.29,0,0,1-.63.46A4.55,4.55,0,0,1,318.39,440.7Zm-20.53-5.55c1,.27,3.4.91,4.67,1.1a33.19,33.19,0,0,1,4.47,1.09,30.94,30.94,0,0,0,5,1.15,19.62,19.62,0,0,1,2.31.5c1.94.48,4.35,1.09,5.73.37a2.09,2.09,0,0,0,.44-.34c.6-.52,1.5-1.3,3.33,0,1,.37,2.4-.28,3.85-1a22,22,0,0,1,2.5-1.06c.71-.23,6.08-2.37,10.4-4.09,2.72-1.09,5.08-2,5.54-2.2,3.08-1.14,6.22-2.36,9.26-3.55,2.88-1.13,5.6-2.19,8.2-3.15,3.78-1.4,14.56-5.72,16.45-7.18.29-.22.74-.51,1.25-.84,1.16-.74,3.31-2.12,3.42-2.89l.05-.39.39,0a8.8,8.8,0,0,0,2.47-.75c.47-.19.94-.38,1.43-.54l.41-.12a4,4,0,0,0,2-1c1.4-1.63,4.63-2,6.57-2.28.41-.05.74-.09,1-.14a9.11,9.11,0,0,1,4,.33c1.32.31,2.45.58,3.1,0a3.85,3.85,0,0,0,1.28-3.24,15.62,15.62,0,0,0-2-5.18c-1-1.84-3.05-2.66-5.18-3.54a9.63,9.63,0,0,0-3.46-.43c-1,0-1.67,0-2-.33l-.11-.1,0-.15a2.4,2.4,0,0,1,.37-1.85,2.65,2.65,0,0,0,.36-1l0-.35c.1-1,.11-1.06-.42-1.7-.14-.17-.3-.33-.45-.5a4.68,4.68,0,0,1-1.41-2.39,14.82,14.82,0,0,1-.32-3.43l0-.4.39-.07c2.11-.37,2.92,1,3.58,2.05a6,6,0,0,0,.73,1,10.44,10.44,0,0,1,.64-2,6.37,6.37,0,0,0,.65-2.9,13.06,13.06,0,0,0-.46-2.48,16,16,0,0,1-.41-1.85,8,8,0,0,1,.24-2.9,14.38,14.38,0,0,0,.27-1.68,6.39,6.39,0,0,0-2.35-6.09,16.62,16.62,0,0,1-1.21-1.28,6.43,6.43,0,0,0-1.85-1.44l-1.05-.53c-.63-.31-1.27-.63-1.72-.89-.65-.39-1.31-.85-2-1.33s-1.55-1.07-2.31-1.5a11.07,11.07,0,0,1-1.85-1.44,6.36,6.36,0,0,0-2.9-1.78,15.8,15.8,0,0,0-3.91-.22c-.73,0-1.42,0-2.06,0-2.92-.13-5.88-.34-8.73-.54-4.88-.35-9.92-.71-14.92-.71-5.87,0-10.51,0-16.14-.12a48.66,48.66,0,0,1-5.17-.54,42.41,42.41,0,0,0-5.28-.54c-1.78,0-4.06-.18-6.48-.35-2.58-.18-5.23-.36-7.18-.36a20.45,20.45,0,0,1-3.89-.46,42.36,42.36,0,0,0-8.2-.79c-4.05,0-8.25-.23-12.3-.42l-1,0c-6.36-.3-12.88-.24-19.2-.17-2,0-4,0-6,0-2.62,0-16.46.21-21,.63-1.21.11-2.39.15-3.53.2-1.47.06-2.86.11-4.29.29-.2,0-.49.05-.82.07a13.24,13.24,0,0,0-1.4.14,7.72,7.72,0,0,1-1,.11l-.31,0c-.55,0-1.16.08-1.79.11-1,.05-2.06.11-2.9.22h0c-3.77.51-11.42,1.65-11.5,1.67a10.65,10.65,0,0,0-3.93,1.26l-.1.06c-1.14.71-1.65,1-2,2.38-.25,1.09.31,1.8,1.45,2.71a6.31,6.31,0,0,0,1.9.9,6.36,6.36,0,0,1,1.94.93l.1.11a13.21,13.21,0,0,1,1,2l.19.43a10.64,10.64,0,0,0,.72,1.27c0-.12,0-.24,0-.34a4.86,4.86,0,0,1,1.44-3.68l.19-.1a1.61,1.61,0,0,1,1.29.09c.71.4.94,1.31,1.21,2.36a7.88,7.88,0,0,0,.89,2.37c0-.13.07-.28.1-.41.32-1.28.86-3.44,2.71-4.42l.17-.05c2.34-.27,2.79,1.05,3.19,2.21a7.06,7.06,0,0,0,.29.8l.19.45a9,9,0,0,0,1.21,2.31,1.27,1.27,0,0,1,0-.22c.15-1.69.47-3.49,1.71-4.12.86-.42,1.95-.22,3.34.64.59.37.8,1.18,1.05,2.12a5.25,5.25,0,0,0,1.7,3.23c.07-.3.15-.77.22-1.17.28-1.77.64-4,1.92-4.55a5.15,5.15,0,0,1,4.06.59,4.9,4.9,0,0,1,1.27,3.11c.2,1.28.38,2.4,1.44,3v-.29a4.73,4.73,0,0,1,1.09-3.61c.81-.84,2.2-1.63,3.44-1.06s1.31,2,1.44,3.5c.09,1.1.19,2.24.74,2.7a10.67,10.67,0,0,0,.3-1.08,9.37,9.37,0,0,1,1.55-3.78c.5-.6,1.43-1.15,3.08-.39l.11.05.07.09a6.83,6.83,0,0,1,.83,3c.05.3.09.58.13.79a10.15,10.15,0,0,0,.79,2.26c.44-1.73,1.77-5.07,3.89-5.21a3.15,3.15,0,0,1,2.17.67l.17.23V369a8.2,8.2,0,0,1,.6,2.35c0,.21.06.4.09.56a8.69,8.69,0,0,0,.77,2.25l.06-.15c.18-1.08.92-3.49,2.24-4.31a1.86,1.86,0,0,1,1.55-.22c1.35.39,1.65,1.66,2,3a8.93,8.93,0,0,0,1.09,3h0a6.31,6.31,0,0,0,.43-1.1c.44-1.33,1.1-3.34,3-4.18a2.58,2.58,0,0,1,2.23.21c.73.31.91,1.37,1.14,2.71a9.18,9.18,0,0,0,1.41,4.1c0-.15.07-.32.1-.48.36-1.61,1-4.3,2.69-5.38a3.26,3.26,0,0,1,2.58-.36l.37.09,0,.37a21.54,21.54,0,0,0,.6,4.64,4,4,0,0,0,1.35,1.75c.33-2.42.75-4.56,2.19-5.41a3,3,0,0,1,2.69-.05c2,.76,2,1.11,2.16,3.09.09,1.41.64,3,1.5,3.56a9.23,9.23,0,0,0,0-.95c0-1.68,0-4.82,3.58-5.1,2-.15,2.25.65,2.41,1.88,0,.25.06.54.12.85a4.37,4.37,0,0,0,1.41,2.34c0-.16.09-.38.13-.57.32-1.56,1-4.8,5.17-4l.33.06.07.33a11.88,11.88,0,0,0,1.37,3.8,4.63,4.63,0,0,1,1.65-2.81,2.38,2.38,0,0,1,2.3-.51,5.71,5.71,0,0,0,.93.12c1.11,0,1.42,1.08,1.69,2a4.06,4.06,0,0,0,.74,1.61c0-.14.08-.3.11-.43.21-.82.5-1.95,1.39-2.34a2.08,2.08,0,0,1,1.87.22,16,16,0,0,1,2.72,1.87,2.11,2.11,0,0,1,.29,1.07,6,6,0,0,0,.16.91,4,4,0,0,0,.16-.39c.21-.54.52-1.37,1.34-1.33l.19.05c1.07.5,1.14,1.68,1.2,2.64a1.72,1.72,0,0,1,1-.78,1.7,1.7,0,0,1,1.47.45,2.74,2.74,0,0,1,.77,2,1.87,1.87,0,0,1,1.26-.85,1.8,1.8,0,0,1,1.52.82,2,2,0,0,1,.4,1,1.35,1.35,0,0,1,.87-.82,1.38,1.38,0,0,1,1.31.62,4.11,4.11,0,0,1,.47,2.1v0c.28-.78.63-1.5,1.24-1.63a1.05,1.05,0,0,1,1,.43,4,4,0,0,1,.61,1.7c.06.27.12.55.19.82a3.89,3.89,0,0,1,.54-1.71l.16-.26.31,0c2.37.27,2.59,1.27,2.64,2.55a6.65,6.65,0,0,0,.07.88c.33-.91.78-2,1.72-2.18a1.82,1.82,0,0,1,1.93.45,4.42,4.42,0,0,1,.8,1.78c0,.11.08.26.12.39.09-.19.19-.41.26-.58.36-.81.63-1.45,1.24-1.27,3.62,1.09,9.17,2.25,13.63,3.19l3.18.67c1.36.29,6.71,1.16,15.06,2.45l1.09.17c1.52.26,3.82.64,4.47.3l1.22-.63-.52,1.26c-.81,2-.28,2.36.77,3.13l2.08,1.51-2.49-.62-.83-.22a8.1,8.1,0,0,0-4-.2,15.15,15.15,0,0,0-3.3.91,27.15,27.15,0,0,1-3,.92c-2.37.55-7.75,1.14-8.81,1.26l-4.33.49c-2,.23-4,.46-6.09.68l-.33,0c-2.3.23-3,.3-4.06-1.44-1.71-2.81-2.65-3.46-3.13-3.51-.22,0-1.26.13-5.11,3.11a13.25,13.25,0,0,0-2,2.09,13.07,13.07,0,0,1-2.6,2.6c-3.42,2.3-7.1,2.06-11,2.13-.63,0-1.29,0-1.94,0s-1.73-.23-2.68-.39a21.44,21.44,0,0,0-2.48-.36,13.89,13.89,0,0,0-5.33.47,2.21,2.21,0,0,0-1.22,1.12,1.87,1.87,0,0,0-.12,1.49,5.44,5.44,0,0,0,.54,1.09c.39.61.58,1,.45,2.6l-.05.63-.6-.2a3.81,3.81,0,0,1-1.4-1,4.35,4.35,0,0,0-1.28-1,23.11,23.11,0,0,0-4.19-.61l-1.43-.14c-1.41-.2-2.73-2.09-3.28-3.93a16.38,16.38,0,0,0-1.36,3.76l0,.27-.25.11a6,6,0,0,0-.6.33,3.34,3.34,0,0,1-2,.63c-1.88-.2-2.17-.26-2.49-.83a1.28,1.28,0,0,0-.14-.23,12,12,0,0,1-1.85-3.69l-.15-.41a11.08,11.08,0,0,0-1,3.52,7.45,7.45,0,0,1-.78,2.67l-.12.2-.24,0a3.31,3.31,0,0,1-3.31-1.37,8.65,8.65,0,0,1-.93-2.54,15,15,0,0,0-.72-2.18,10.71,10.71,0,0,0-1.34,4c-.08.46-.16.87-.25,1.22a1.91,1.91,0,0,1-2.4,1.66c-2-.34-2.36-2.79-2.61-4.41a11.52,11.52,0,0,0-.24-1.2l0,0a8.19,8.19,0,0,0-1.19,3.08c-.42,1.67-.79,3.11-1.86,3.24-1.59.19-2.63-1.58-3-2.55a8.26,8.26,0,0,1-.26-1.68,13.35,13.35,0,0,0-.18-1.33c-.79.67-1.35,2.83-1.65,4-.06.24-.12.45-.17.62a2.26,2.26,0,0,1-1.72,1.64,2.44,2.44,0,0,1-2.39-.78,17.17,17.17,0,0,1-1.94-4.37,8.22,8.22,0,0,0-.92,1.76,15.17,15.17,0,0,0-.44,1.51,9.82,9.82,0,0,1-.92,2.51l-.12.23-.26,0c-3.27.36-4-3.76-4.29-5.23a10.44,10.44,0,0,0-1.57,3.78,3.79,3.79,0,0,1-1.5,2.78l-.22.15-.25-.1a2.35,2.35,0,0,1-1.32-.93l-.21-.26a10.73,10.73,0,0,1-1.5-3.18c-.14-.4-.32-.92-.46-1.22a8.52,8.52,0,0,0-1.66,4.09c-.23,1.1-.38,1.85-1,2-1.9.82-3.46-1.5-4.6-3.2a12.22,12.22,0,0,0-.85-1.18,9.74,9.74,0,0,0-.86,2.94,3.19,3.19,0,0,1-.78,2c-1.3,1.07-2.34.57-3.3,0a7.67,7.67,0,0,1-2.17-3.4c-.12-.29-.28-.66-.4-.91a10.39,10.39,0,0,0-1.42,3.86,4.55,4.55,0,0,0-.07.45c-.14.94-.38,1.43-1.9,1.89a2.76,2.76,0,0,1-2.85-1.14,8.4,8.4,0,0,1-1.56-3l-.16-.48a12.35,12.35,0,0,0-1.46,3.45c-.08.28-.15.53-.22.75a2.08,2.08,0,0,1-2.4,1.16c-.27-.05-.49-.06-.69-.08a2.24,2.24,0,0,1-1.9-.93,8,8,0,0,1-1.24-2.34c0-.11-.1-.24-.14-.35a4.8,4.8,0,0,0-1,2.44c-.16.83-.3,1.55-.86,1.93l-.2.08c-1.68.27-2.72.15-3.48-.41a4.17,4.17,0,0,1-1.4-2.79,7.83,7.83,0,0,0-1.45,3.62v.39l-.38.1a11,11,0,0,1-2.21.27c-1.43.08-2.66.15-3.27,1.24-.71,1.26-.42,2.59,0,4.29a4.55,4.55,0,0,0,.68,1.76,5.88,5.88,0,0,0,2,.39,6.92,6.92,0,0,1,1.63.27,18.23,18.23,0,0,0,6.62.88,41.78,41.78,0,0,0,6.12-.16c.93-.16,3.13-.55,4.16-.82a12.38,12.38,0,0,1,4.15-.19c.62,0,1.25.09,1.9.09,2.25,0,12.22.55,18.82.92l5.87.33c6.39.29,13.41.78,22.1,1.54,1.11.1,2.28.16,3.45.23,1.8.11,3.67.21,5.38.43.95.13,1.9.22,2.86.31,1.54.14,3.13.29,4.73.58l.49.08Zm-31.22-25.7Zm44-31.37Z" transform="translate(-203.51 -348.73)"/><path d="M341.78,379.87a7.05,7.05,0,0,1-3.41-.8,7.43,7.43,0,0,0-2.95-1.11,31.77,31.77,0,0,1-4.47-1.33c-.7-.26-1.45-.46-2.18-.65a13.47,13.47,0,0,1-3.79-1.43c-2.64-1.68-5.74-4.47-5.56-8.2.1-2,.18-3.87,1.48-5.16a8.14,8.14,0,0,1,3.51-2.41l0,0,1.15-.3h.07c1.32,0,2.66,0,4,0,4.51,0,9.16-.08,12.88,2.35,3,1.92,4.35,4.51,4.06,7.47-.12,1.26-.54,5.58-.75,8.4a3.09,3.09,0,0,1-1.81,2.74A5.39,5.39,0,0,1,341.78,379.87Zm-17-20.15a7.3,7.3,0,0,0-3.14,2.17c-1,1-1.09,2.61-1.18,4.46-.16,3.3,2.68,5.82,5.1,7.35A12.11,12.11,0,0,0,329,375a23.63,23.63,0,0,1,2.27.69,33.39,33.39,0,0,0,4.35,1.29,8.39,8.39,0,0,1,3.31,1.27,6.23,6.23,0,0,0,4.64.27,2.08,2.08,0,0,0,1.23-1.9c.21-2.84.63-7.17.75-8.43.26-2.6-.95-4.8-3.6-6.53-3.47-2.27-7.78-2.23-12.33-2.19-1.28,0-2.62,0-3.93,0Z" transform="translate(-203.51 -348.73)"/><path d="M346.43,385.56c-1.94,0-4-1-5.92-1.88-.63-.3-1.26-.6-1.86-.85A56.37,56.37,0,0,0,333.2,381c-1.64-.5-3.34-1-5.06-1.69a15.24,15.24,0,0,1-2.52-1.32,14.81,14.81,0,0,0-2.2-1.17c-1.13-.47-2.23-.9-3.37-1.34l-1.69-.66c-2.93-1.15-5.32-1.14-8.37-1.13h-4a46.63,46.63,0,0,1-9.44-.67,7.58,7.58,0,0,0-2.13,0,6,6,0,0,1-3.1-.32,11,11,0,0,0-5.27-1.08,31.3,31.3,0,0,1-3.64-.1c-.76-.06-1.52-.11-2.33-.13a20.75,20.75,0,0,1-4.81-.89c-.52-.15-1-.28-1.49-.39a45.36,45.36,0,0,0-6-.73,41.86,41.86,0,0,1-6.6-.84,32.7,32.7,0,0,0-5.13-.84,29.7,29.7,0,0,1-5-.81,57.5,57.5,0,0,0-8.26-1.31c-1.42-.15-2.89-.31-4.38-.53a34.82,34.82,0,0,0-4.93-.24,37.41,37.41,0,0,1-4.77-.21l-.15,0-.11-.1a5.64,5.64,0,0,0-4.46-1.08c-.3,0-.56,0-.77,0a6.75,6.75,0,0,1-2.24-.68c-.95-.4-2-.86-2.57-.52a4.93,4.93,0,0,1-4.46.71,3.28,3.28,0,0,0-3,.41l-.53-.85a4.31,4.31,0,0,1,3.82-.53,4,4,0,0,0,3.68-.6c1-.6,2.26-.06,3.49.46a6.43,6.43,0,0,0,1.87.6c.18,0,.41,0,.67,0a6.68,6.68,0,0,1,5.07,1.22,36.45,36.45,0,0,0,4.5.19,34.05,34.05,0,0,1,5.07.26c1.48.21,2.94.37,4.35.52a57.55,57.55,0,0,1,8.4,1.33,29.45,29.45,0,0,0,4.86.79,32,32,0,0,1,5.28.87,42.76,42.76,0,0,0,6.43.81,43.62,43.62,0,0,1,6.16.75c.48.11,1,.25,1.53.39a19.72,19.72,0,0,0,4.57.86c.82,0,1.6.08,2.37.13a29.44,29.44,0,0,0,3.52.1,11.86,11.86,0,0,1,5.73,1.17,5.19,5.19,0,0,0,2.61.23,8.51,8.51,0,0,1,2.41.05,45.89,45.89,0,0,0,9.25.65H310c3,0,5.64,0,8.74,1.2l1.69.66c1.14.44,2.26.87,3.4,1.34a17.5,17.5,0,0,1,2.33,1.25,14.34,14.34,0,0,0,2.37,1.24c1.68.66,3.36,1.17,5,1.66,1.81.55,3.68,1.12,5.54,1.89.62.25,1.26.56,1.91.87,2.92,1.38,5.94,2.8,8.13.73a3.06,3.06,0,0,0,.64-2.73,23.11,23.11,0,0,1,.43-6.15c.07-.45.14-.88.2-1.28.12-.87.22-1.68.3-2.41.32-2.67.53-4.43,1.55-5.2a2.13,2.13,0,0,1,1.72-.36,54.74,54.74,0,0,0,10.83.65l2.06,0a60.58,60.58,0,0,1,7.81.53c1.14.13,2.33.27,3.64.39l.86.07a19.63,19.63,0,0,1,5.76,1c1,.44,1.88.93,2.75,1.42.57.31,1.15.63,1.77.94l.11.06c.83.42,1.17.59,2,1.06a4,4,0,0,0,1.8.43,8.12,8.12,0,0,1,1.53.23c2.65.7,3.88,2.09,4,4.51l-1,0c-.07-1.95-1-3-3.21-3.57a6.77,6.77,0,0,0-1.37-.2,4.88,4.88,0,0,1-2.22-.57c-.76-.45-1.07-.61-1.91-1l-.1-.06c-.63-.31-1.22-.64-1.8-1-.9-.49-1.74-1-2.68-1.38A19.55,19.55,0,0,0,379,368l-.86-.07c-1.33-.11-2.52-.25-3.68-.38a62.49,62.49,0,0,0-7.69-.53l-2,0a55.82,55.82,0,0,1-11-.66,1.17,1.17,0,0,0-1,.16c-.68.52-.88,2.2-1.15,4.52-.09.75-.19,1.56-.31,2.44-.06.41-.13.84-.2,1.29a22.48,22.48,0,0,0-.43,5.86,4,4,0,0,1-.94,3.6A4.67,4.67,0,0,1,346.43,385.56Z" transform="translate(-203.51 -348.73)"/><path d="M351,365.17l-.75-.67a7.61,7.61,0,0,1,4.61-3,13.15,13.15,0,0,1,6.6.35l-.33.94a12.2,12.2,0,0,0-6.07-.31C353.18,362.88,352.29,363.76,351,365.17Z" transform="translate(-203.51 -348.73)"/><path d="M392.71,363.87a8,8,0,0,0-4.55-.41l-.36,0c-5,.51-9.95-.32-14.71-1.12-1.7-.28-3.45-.58-5.15-.8-.82-.11-1.84-.2-2.91-.29-1.69-.14-3.44-.29-4.87-.55-1-.18-2-.3-2.91-.42-1.22-.15-2.38-.3-3.69-.58a15.46,15.46,0,0,1-8.17-4.65l.72-.68a14.48,14.48,0,0,0,7.66,4.35c1.27.27,2.4.42,3.61.57.94.12,1.9.24,3,.43,1.39.24,3.11.39,4.78.54,1.09.09,2.11.18,2.95.29,1.72.22,3.48.52,5.19.81,4.69.78,9.54,1.6,14.44,1.1l.35,0a8.91,8.91,0,0,1,5.07.49Z" transform="translate(-203.51 -348.73)"/><path d="M315.47,373.65a10.24,10.24,0,0,0-2.31-2l-.28-.21c-.11-.08-.38,0-.63,0a2.22,2.22,0,0,1-1.14,0,3,3,0,0,1-1-.85,2.43,2.43,0,0,0-.51-.48,8.4,8.4,0,0,0-.84-.4,3.6,3.6,0,0,1-1.6-1.11,17.54,17.54,0,0,0-2.1-1.84c-.54-.43-1.08-.85-1.52-1.26a10.11,10.11,0,0,0-4.11-2.43,4.47,4.47,0,0,1-2-1.09,6.35,6.35,0,0,0-4.22-2.11l-.17-.06c-.42-.24-.61-.53-.55-.86.1-.59.82-.72,2.12-1a7.92,7.92,0,0,0,2.8-.84,5.16,5.16,0,0,1,2.48-.95,7.13,7.13,0,0,0,1-.22c-.69-.17-1.71-.33-2.3-.42l-1.08-.18a8.63,8.63,0,0,1-1.68-.52c-.23-.09-.46-.18-.71-.26a4.64,4.64,0,0,0-.74-.16,4.21,4.21,0,0,1-2.26-.91l.63-.78a3.3,3.3,0,0,0,1.79.7,8.4,8.4,0,0,1,.89.19c.27.09.52.19.77.29a8.34,8.34,0,0,0,1.5.47l1,.17c2.76.44,3.58.65,3.71,1.27a.67.67,0,0,1-.35.72,6.45,6.45,0,0,1-2.06.63,4.14,4.14,0,0,0-2.06.77,8.55,8.55,0,0,1-3.21,1l-.5.09a7,7,0,0,1,3.85,2.22,3.66,3.66,0,0,0,1.64.84,11.12,11.12,0,0,1,4.47,2.64c.43.39.95.8,1.47,1.22a18.44,18.44,0,0,1,2.23,2,2.75,2.75,0,0,0,1.23.85,9.76,9.76,0,0,1,.93.43,3.13,3.13,0,0,1,.79.71,2.24,2.24,0,0,0,.65.58,1.71,1.71,0,0,0,.63,0,1.76,1.76,0,0,1,1.38.19l.27.2a9.83,9.83,0,0,1,2.61,2.39Z" transform="translate(-203.51 -348.73)"/><path d="M335.83,415.37a14.11,14.11,0,0,1-3.38-.59l-.56-.14c-1.65-.4-3.35-.91-5-1.41-.84-.26-1.68-.51-2.49-.74a29.16,29.16,0,0,0-5.7-1.08l-.65-.05a5,5,0,0,1-3.39-1.24l.68-.74a3.89,3.89,0,0,0,2.78,1c.23,0,.46,0,.69.06a30.4,30.4,0,0,1,5.87,1.1l2.5.75c1.63.49,3.32,1,4.94,1.39l.59.15c1.09.29,3.11.83,4.1.4a7.61,7.61,0,0,0,2.14-2.09c.33-.41.65-.8.94-1.1.55-.56,1.05-1.11,1.55-1.65s.81-.91,1.23-1.34a13.38,13.38,0,0,1,5.3-2.95,17.73,17.73,0,0,0,3.71-1.7c.2-.14.4-.26.59-.38,1.16-.73,1.42-.93,1-1.87a10.11,10.11,0,0,0-1.34-2.14c-.2-.25-.41-.53-.65-.87l.81-.58c.23.33.44.6.63.84a11.09,11.09,0,0,1,1.46,2.33c.83,1.77-.28,2.47-1.36,3.14l-.56.36a19.32,19.32,0,0,1-3.92,1.81,12.41,12.41,0,0,0-4.93,2.7c-.41.43-.81.87-1.21,1.32s-1,1.12-1.58,1.69a12.87,12.87,0,0,0-.87,1,8,8,0,0,1-2.52,2.38A3.43,3.43,0,0,1,335.83,415.37Z" transform="translate(-203.51 -348.73)"/><path d="M345.16,405.25l-1-.17a4.11,4.11,0,0,1,1.14-1.93,5.31,5.31,0,0,0,.86-1.21,3.16,3.16,0,0,0,.16-.64,3,3,0,0,1,.32-1,2.49,2.49,0,0,1,.64-.71c.35-.31.4-.35.25-.72l.92-.39a1.43,1.43,0,0,1-.52,1.86,1.86,1.86,0,0,0-.43.46,2.16,2.16,0,0,0-.2.69,3.61,3.61,0,0,1-.22.84,5.83,5.83,0,0,1-1,1.48A3.33,3.33,0,0,0,345.16,405.25Z" transform="translate(-203.51 -348.73)"/><path d="M381.51,417l-.52-.85a2.88,2.88,0,0,0,1.12-1.29,6.3,6.3,0,0,1,.49-.79,6.85,6.85,0,0,1,1.41-1.3,6.55,6.55,0,0,0,.53-.42c1.62-1.39,3.33-2.88,4.93-4.54l.46-.47a19.25,19.25,0,0,0,3.33-4.05c.84-1.52.3-2.93-.55-4.76l.91-.42c.78,1.68,1.66,3.58.52,5.66a20.39,20.39,0,0,1-3.49,4.27l-.46.47c-1.64,1.69-3.36,3.2-5,4.6l-.59.46a5.77,5.77,0,0,0-1.21,1.09,5.58,5.58,0,0,0-.41.68A3.89,3.89,0,0,1,381.51,417Z" transform="translate(-203.51 -348.73)"/><path d="M329,429a19.88,19.88,0,0,1-5.21-.76,12,12,0,0,1-8.22-7.23c-1-2.81,2.35-4.3,4.55-5.29.43-.19.83-.37,1.16-.54a39.63,39.63,0,0,0,3.57-2.06l1.27-.8.53.86-1.27.79a40.8,40.8,0,0,1-3.64,2.1c-.35.18-.77.37-1.21.56-2.57,1.15-4.64,2.25-4,4.05a11,11,0,0,0,7.53,6.6,17.93,17.93,0,0,0,8.82.31,10.65,10.65,0,0,0,1.74-.52,13,13,0,0,1,5-.9c2.52,0,17.17-2.69,20.45-3.65,2.83-.83,11-2.9,13.69-3.47a21,21,0,0,0,6.5-2.3l.56.83a21.67,21.67,0,0,1-6.85,2.45c-2.66.56-10.81,2.63-13.62,3.45-3.32,1-18.16,3.69-20.73,3.69a12,12,0,0,0-4.68.84,11.31,11.31,0,0,1-1.89.56A21,21,0,0,1,329,429Z" transform="translate(-203.51 -348.73)"/><path d="M311.67,436c-1.18,0-2.39-.08-3.56-.17s-2.32-.16-3.44-.16c-.9,0-1.91.07-3,.15a31,31,0,0,1-5.07.09l.1-1a30.12,30.12,0,0,0,4.9-.1c1.08-.08,2.11-.15,3.05-.15,1.15,0,2.35.08,3.51.16a28.11,28.11,0,0,0,5.87,0l.42-.06c1.49-.21,4-.55,4.59-1.69a4,4,0,0,0-.52-4.11c-3.23-.63-4-7.1-4.08-8.42a12.35,12.35,0,0,1,.44-3.2c.42-1.9.9-4.05-.11-4.65l.51-.86c1.63,1,1.07,3.49.58,5.72a11.49,11.49,0,0,0-.42,2.9c.22,2.5,1.21,7.3,3.4,7.55l.19,0,.13.14a5,5,0,0,1,.76,5.39c-.86,1.58-3.55,1.95-5.33,2.2l-.41.06A17.63,17.63,0,0,1,311.67,436Z" transform="translate(-203.51 -348.73)"/><path d="M324.87,440.1a4.06,4.06,0,0,1-2.79-1.21,6.93,6.93,0,0,1-2.06-6.2c.8-2.74,4.21-3.52,7-4.14.66-.15,1.28-.29,1.8-.45l.29,1c-.55.16-1.19.31-1.86.46-2.49.57-5.59,1.27-6.22,3.45a5.94,5.94,0,0,0,1.79,5.19,2.85,2.85,0,0,0,3,.79l.33.94A3.67,3.67,0,0,1,324.87,440.1Z" transform="translate(-203.51 -348.73)"/><path d="M222.38,362.55c-.2-1.15-.82-4.66,2.54-6.17,2.41-1.09,6.45-1.21,9.28-1.21,2,0,4-.11,5.91-.21l1.78-.08a16,16,0,0,0,3.15-.49,23.62,23.62,0,0,1,2.39-.43l.83-.12.15,1-.84.12a21.3,21.3,0,0,0-2.28.41,17.33,17.33,0,0,1-3.35.51l-1.78.09c-1.95.1-4,.21-6,.21-1.58,0-6.38,0-8.87,1.12s-2.28,3.27-2,5.08Z" transform="translate(-203.51 -348.73)"/><path d="M252.92,356.38a15.51,15.51,0,0,1-4.74-.92c-.63-.42-.61-.86-.54-1.09.39-1.27,4.49-1.37,4.53-1.37,2.45,0,4.87-.18,7.22-.36,1.51-.11,3.07-.23,4.63-.3.82,0,1.67-.14,2.49-.25s1.67-.21,2.52-.26c.52,0,1.06,0,1.59,0s1.27,0,1.86,0l-.81-.11a10.11,10.11,0,0,1-2-.38l.31-.95.34.1v-.13a55.15,55.15,0,0,1,7.43.68,49.37,49.37,0,0,0,7.56.66l2.55-.07c4.83-.15,9.83-.3,14.42,1.27l3,1-3.16-.05c-2.28,0-4.55-.14-6.74-.25l-1.9-.09a24.86,24.86,0,0,0-6.08.68c-.9.17-1.83.36-2.79.5a16.7,16.7,0,0,1-5.83-.46,20.75,20.75,0,0,0-4.12-.55A27.53,27.53,0,0,0,267.5,355c-.9.24-1.79.49-2.68.7a28.56,28.56,0,0,1-6.94.54,44.09,44.09,0,0,0-4.7.14Zm-4.21-1.77,0,0a16,16,0,0,0,4.33.75,41.66,41.66,0,0,1,4.82-.15,27,27,0,0,0,6.7-.51c.88-.21,1.76-.45,2.64-.7a28.54,28.54,0,0,1,7.43-1.35,21.53,21.53,0,0,1,4.32.57,15.52,15.52,0,0,0,5.48.45c.94-.14,1.86-.32,2.74-.49a32.81,32.81,0,0,1,4.6-.69c-1.31,0-2.61.05-3.9.09l-2.56.07a51.36,51.36,0,0,1-7.72-.67l-2.69-.35.48.28-.88.4a9.32,9.32,0,0,1-3.92.5c-.52,0-1,0-1.54,0-.8,0-1.63.15-2.43.25s-1.71.22-2.58.26c-1.54.07-3.1.19-4.6.3-2.36.18-4.8.36-7.29.36A10.69,10.69,0,0,0,248.71,354.61Z" transform="translate(-203.51 -348.73)"/><path d="M327,357.65a87.69,87.69,0,0,1-11.49-.87,65.47,65.47,0,0,0-11-.34c-1,0-2,.05-3,.06l0-1c1,0,2,0,3-.06a66.48,66.48,0,0,1,11.15.35,75.15,75.15,0,0,0,15.1.71l.08,1C329.55,357.6,328.26,357.65,327,357.65Z" transform="translate(-203.51 -348.73)"/><path d="M323.32,360.37l-.55-.83a24,24,0,0,1,5.22-2.65,42.5,42.5,0,0,1,6-.56,19.6,19.6,0,0,1,4.12.39,13.9,13.9,0,0,0,4.63.26c0-.11,0-.58-.79-2l.87-.48c.61,1.1,1.17,2.24.81,2.94a.93.93,0,0,1-.76.48,14.74,14.74,0,0,1-4.93-.27,18.59,18.59,0,0,0-3.91-.37,38.39,38.39,0,0,0-5.76.52A23.31,23.31,0,0,0,323.32,360.37Z" transform="translate(-203.51 -348.73)"/><path d="M349.25,372.31a1.43,1.43,0,0,1-.46-.07c-.92-.29-1.25-1.38-1.54-2.34-.36-1.22-.57-1.64-1-1.58l-.16-1c1.37-.23,1.79,1.16,2.12,2.27.22.73.47,1.55.88,1.68.19.06.66,0,1.64-.73l.62.79A3.62,3.62,0,0,1,349.25,372.31Z" transform="translate(-203.51 -348.73)"/><path d="M227.52,360.35a3.58,3.58,0,0,1-1.37-.22l.37-.93a4,4,0,0,0,1.51.14h.12l0,1h-.66Z" transform="translate(-203.51 -348.73)"/><path d="M232.21,361a10.59,10.59,0,0,1-1.61-.15l-.33,0,.13-1,.34,0a8,8,0,0,0,1.88.12l.09,1Z" transform="translate(-203.51 -348.73)"/><path d="M238.1,361.44a2.14,2.14,0,0,0-1.5-.12l-.1-.49,0-.5a3,3,0,0,1,2.11.23Z" transform="translate(-203.51 -348.73)"/><path d="M245,362.21l-.93,0-.9,0v-1l.94,0,.89,0Z" transform="translate(-203.51 -348.73)"/><path d="M254.21,363.53a4.18,4.18,0,0,1-1.94-.42l.46-.88a3.7,3.7,0,0,0,2.06.27l.09,1C254.68,363.52,254.45,363.53,254.21,363.53Z" transform="translate(-203.51 -348.73)"/><path d="M264.42,364.5a5,5,0,0,1-2.5-.56l.49-.88a4.18,4.18,0,0,0,2.24.44l0,1Z" transform="translate(-203.51 -348.73)"/><path d="M270.85,365.17l0-1c.27,0,.58-.05.9-.08a7.38,7.38,0,0,1,2.09,0l-.18,1a7.48,7.48,0,0,0-1.81.05C271.47,365.12,271.14,365.16,270.85,365.17Z" transform="translate(-203.51 -348.73)"/><path d="M283.28,366.15a5.39,5.39,0,0,0-1.86-.28l-.09-1a6.25,6.25,0,0,1,2.22.3Z" transform="translate(-203.51 -348.73)"/><path d="M300,367.33c-1.47,0-2.95-.14-4.39-.24-1.83-.12-3.73-.25-5.6-.26v-1c1.91,0,3.82.14,5.67.27,1.42.09,2.9.19,4.35.23Z" transform="translate(-203.51 -348.73)"/><path d="M269.19,422.5l0-1a105.25,105.25,0,0,0,15-1.7c2.8-.47,5.44-.92,8.63-1.22l.09,1c-3.15.3-5.78.74-8.56,1.21A104.88,104.88,0,0,1,269.19,422.5Z" transform="translate(-203.51 -348.73)"/><rect x="10.49" y="77.93" width="2.5" height="1"/><path d="M222.39,426.88l-.53-.85a2.57,2.57,0,0,1,1.89-.25,1.73,1.73,0,0,0,.41,0l.52.85a1.47,1.47,0,0,1-1.09.1A1.62,1.62,0,0,0,222.39,426.88Z" transform="translate(-203.51 -348.73)"/><path d="M232.87,426l-.84,0a6.35,6.35,0,0,0-1.4,0l-.26-1a5.87,5.87,0,0,1,1.71-.05,7.35,7.35,0,0,0,1.25,0l.18,1A4.06,4.06,0,0,1,232.87,426Z" transform="translate(-203.51 -348.73)"/><path d="M240.7,425l-.48-.88c1.22-.66,3.32-.25,4.46-.51l.22,1C243.65,424.89,241.64,424.51,240.7,425Z" transform="translate(-203.51 -348.73)"/><path d="M250.48,424.13l-.37-.93a9.11,9.11,0,0,1,3.69-.28l.87,0v1l-.92,0A8.48,8.48,0,0,0,250.48,424.13Z" transform="translate(-203.51 -348.73)"/><path d="M318,431.85l-1,0a9.29,9.29,0,0,0-.92-3.95,13,13,0,0,1-.91-3l1-.15a12.11,12.11,0,0,0,.85,2.74A10.4,10.4,0,0,1,318,431.85Z" transform="translate(-203.51 -348.73)"/><path d="M388.83,398.66a3.16,3.16,0,0,1-2.64-1.7c-1-1.73-.16-2.91.54-3.86s1.26-1.72.18-3.09a10.45,10.45,0,0,0-1.42-1.4,9.18,9.18,0,0,1-2.05-2.27c-.57-1-1.85-3.54-1.35-5.94a4.78,4.78,0,0,1,2.59-3.09l.33-.17a4.21,4.21,0,0,0,1.18-.79,2.75,2.75,0,0,0,.46-.6,3.45,3.45,0,0,1,.48-.67c1.22-1.36,4.23-1.64,5.95-1.5a6.36,6.36,0,0,1,5.9,4.82l-1,.28a5.34,5.34,0,0,0-5-4.1c-1.52-.13-4.21.16-5.13,1.17a3.15,3.15,0,0,0-.37.52,3.36,3.36,0,0,1-.61.79,5.17,5.17,0,0,1-1.43,1l-.31.16a3.8,3.8,0,0,0-2.08,2.41c-.44,2.13.83,4.55,1.23,5.24a8.21,8.21,0,0,0,1.85,2,11.79,11.79,0,0,1,1.54,1.54c1.56,2,.61,3.26-.16,4.3s-1.14,1.65-.48,2.76a1.91,1.91,0,0,0,2.57,1,3.18,3.18,0,0,0,.85-.83c.16-.19.31-.37.47-.53a5.13,5.13,0,0,1,.83-.62,3.11,3.11,0,0,0,.93-.79,3.2,3.2,0,0,0,.68-2c-.12-.38-.64-.64-1.31-1a9.82,9.82,0,0,1-1.92-1.15c-2-1.62-2.77-5.58-2.65-6.9a5.24,5.24,0,0,1,2.62-4,4.4,4.4,0,0,1,3.89-.1,5.72,5.72,0,0,1,3,3.71,9.1,9.1,0,0,1,.17,2.46v.67h-1v-.7a8.16,8.16,0,0,0-.14-2.19,4.66,4.66,0,0,0-2.44-3.05,3.46,3.46,0,0,0-3,.09,4.25,4.25,0,0,0-2.05,3.22c-.1,1,.54,4.64,2.27,6a9.07,9.07,0,0,0,1.74,1c.85.42,1.58.78,1.82,1.57s0,1.57-.77,2.83a3.5,3.5,0,0,1-1.24,1.12,4.45,4.45,0,0,0-.68.5c-.13.14-.26.29-.39.46a4.45,4.45,0,0,1-1.13,1.06A2.53,2.53,0,0,1,388.83,398.66Z" transform="translate(-203.51 -348.73)"/><path d="M381.35,388.42a2.81,2.81,0,0,1-2.11-1.09c-1.3-1.5-1.31-3.92-.75-5.65.72-2.23,1.08-3.07,3.28-4.48a8.67,8.67,0,0,1,1-.49c.67-.32,1.81-.85,1.88-1.31,0-.18-.15-.39-.3-.54l.69-.72a1.61,1.61,0,0,1,.6,1.43c-.16,1-1.38,1.54-2.45,2-.33.16-.64.3-.85.43-1.93,1.24-2.19,1.84-2.87,3.95-.46,1.41-.48,3.49.56,4.69a1.62,1.62,0,0,0,1.78.67,2,2,0,0,0,1.22-1.87l1,0a3,3,0,0,1-1.88,2.77A2.35,2.35,0,0,1,381.35,388.42Z" transform="translate(-203.51 -348.73)"/><path d="M393.84,395.88a2.06,2.06,0,0,1-1-.31l.47-.89c.46.25.46.25,1.18.07l.3-.07.23,1-.29.07A3.72,3.72,0,0,1,393.84,395.88Z" transform="translate(-203.51 -348.73)"/><path d="M392.81,385.93c-.26-.91-.63-2.54-.16-3.2a1.6,1.6,0,0,1,2.12-.32l-.54.85a.6.6,0,0,0-.78.07,5.78,5.78,0,0,0,.32,2.32Z" transform="translate(-203.51 -348.73)"/><path d="M377,389.75a16.34,16.34,0,0,1-2.15-.23l-1.43-.21c-3-.4-6.5-.83-10.11-1l0-1c3.65.15,7.21.58,10.21,1l1.44.21c2.75.42,3,.45,4.6-1.67l.8.61C379.05,389.23,378.33,389.75,377,389.75Z" transform="translate(-203.51 -348.73)"/><path d="M371,386.91a30.38,30.38,0,0,1-7.17-1.24c-1-.25-1.94-.5-2.78-.66-.38-.07-.79-.13-1.21-.19-1.62-.24-3.46-.5-4.28-1.74a3.26,3.26,0,0,1-.25-2.71,4.09,4.09,0,0,1,3.43-3,8.73,8.73,0,0,1,.91-.1c1.16-.11,1.88-.21,2.19-1.07a1.21,1.21,0,0,0,.05-1c-.22-.44-1-.67-1.66-.88a5.61,5.61,0,0,1-1.16-.44,13.73,13.73,0,0,1-3.7-3.09c-.92-1.13-2-2.73-1.83-4a1.63,1.63,0,0,1,.68-1.14l.12-.09h.15A5.59,5.59,0,0,1,357,366a8,8,0,0,0,1.56.39,15.36,15.36,0,0,0,2.72,0,21.83,21.83,0,0,1,2.29,0c3.88.25,6.59,1.11,8.28,2.62.87.35,3.24.07,5-.13l1.31-.15c.88-.09,1.75-.23,2.6-.38a33.16,33.16,0,0,1,3.59-.46l.05,1a29.61,29.61,0,0,0-3.47.45c-.87.14-1.76.3-2.67.38l-1.3.15c-2.12.25-4.52.53-5.59,0l-.13-.08c-1.5-1.39-4-2.17-7.73-2.41a19.91,19.91,0,0,0-2.17,0,15.72,15.72,0,0,1-2.91,0,8.14,8.14,0,0,1-1.75-.44,4.75,4.75,0,0,0-1.91-.33.73.73,0,0,0-.17.38c-.08.67.52,1.87,1.61,3.2a13.31,13.31,0,0,0,3.4,2.86,7.12,7.12,0,0,0,1,.36,3.41,3.41,0,0,1,2.27,1.39,2.14,2.14,0,0,1,0,1.74c-.54,1.5-1.93,1.62-3,1.72-.28,0-.56,0-.82.1a3.09,3.09,0,0,0-2.64,2.31,2.33,2.33,0,0,0,.11,1.9c.58.86,2.11,1.08,3.59,1.3.44.06.87.12,1.26.2.87.17,1.83.41,2.84.67,3.33.86,7.1,1.82,9.88.71,1.53-.62,2.45-2.14,3.43-3.75s1.87-3.1,3.41-3.82l.42.9c-1.26.6-2.09,2-3,3.43-1,1.69-2.07,3.43-3.91,4.16A8.75,8.75,0,0,1,371,386.91Z" transform="translate(-203.51 -348.73)"/><path d="M386.16,394.21a8,8,0,0,1-2.67-.67,8.67,8.67,0,0,0-1.82-.54,13.18,13.18,0,0,0-2.27,0c-.62,0-1.25,0-1.88,0-1.94-.1-3.9-.39-5.78-.66l-.41-.06a95.67,95.67,0,0,1-14.51-3.09,15.37,15.37,0,0,0-2-.39c-2.6-.4-6.15-1-5.87-4.19a2.51,2.51,0,0,1,1.29-2c1.66-1,4.53-.61,6.38.22l-.41.92c-1.65-.75-4.14-1.05-5.46-.28a1.5,1.5,0,0,0-.8,1.23c-.19,2.13,2.06,2.65,5,3.12a16.66,16.66,0,0,1,2.1.41,94.89,94.89,0,0,0,14.36,3.06l.41.06c1.95.28,3.79.55,5.69.65.58,0,1.17,0,1.79,0a15.06,15.06,0,0,1,2.42,0,9.4,9.4,0,0,1,2.06.61,6.72,6.72,0,0,0,2.5.6l.07,1Z" transform="translate(-203.51 -348.73)"/><path d="M386.42,391.7a5.06,5.06,0,0,0-2.2-.64,10.36,10.36,0,0,1-1.18-.2,18.49,18.49,0,0,0-2.44-.49c-.5-.07-1-.17-1.5-.26a15,15,0,0,0-2.61-.36l0-1a17.27,17.27,0,0,1,2.78.37c.48.1,1,.19,1.45.26a18.84,18.84,0,0,1,2.55.51,10.36,10.36,0,0,0,1.07.18,5.89,5.89,0,0,1,2.64.81Z" transform="translate(-203.51 -348.73)"/><path d="M214.52,423.32a4.18,4.18,0,0,1-2.42-.74l.55-.83c1.32.87,2.56.56,3.88.23a9.29,9.29,0,0,1,2.17-.36h0a14.71,14.71,0,0,1,1.62.12,9.59,9.59,0,0,0,5.51-.7c1.53-.67,4.13.3,7.85-1.13l.1,0h.11c4.15.21,5.79-.51,6.86-1.25l.2-.08a16.24,16.24,0,0,1,3.23-.12,10.77,10.77,0,0,0,3.88-.33c.31-.1.57-.21.82-.31a6,6,0,0,1,2.41-.54c.54,0,1.09,0,1.63,0s1.21,0,1.8,0,1.52-.06,2.33-.07a44.54,44.54,0,0,0,4.56-.24,4.23,4.23,0,0,0,1.71-.67,5.24,5.24,0,0,1,1.52-.65,4.39,4.39,0,0,1,1.78,0,6.36,6.36,0,0,0,1.3.1,20.14,20.14,0,0,0,3.22-.49,27.17,27.17,0,0,1,3-.51,22.68,22.68,0,0,0,2.47-.37,21.35,21.35,0,0,1,3.18-.42,44.11,44.11,0,0,0,5.46-.74,31.66,31.66,0,0,1,7.43-.68,18.3,18.3,0,0,0,6.49-1,11.81,11.81,0,0,1,3.08-.38c.69,0,1.34-.06,1.87-.14a17,17,0,0,0,2.39-.59,11.91,11.91,0,0,1,4-.67v1a11,11,0,0,0-3.69.62,16.17,16.17,0,0,1-2.52.63,19.05,19.05,0,0,1-2,.15,11.2,11.2,0,0,0-2.82.33,19.3,19.3,0,0,1-6.84,1.06,30,30,0,0,0-7.21.67,47.35,47.35,0,0,1-5.58.75,21,21,0,0,0-3.05.4,22.82,22.82,0,0,1-2.57.39,24.54,24.54,0,0,0-2.89.49,20.3,20.3,0,0,1-3.39.51,7.68,7.68,0,0,1-1.48-.12,3.76,3.76,0,0,0-1.42,0,4.05,4.05,0,0,0-1.23.54,5.16,5.16,0,0,1-2.09.79,44,44,0,0,1-4.66.25c-.8,0-1.58,0-2.3.06s-1.26,0-1.88,0-1,0-1.57,0a4.89,4.89,0,0,0-2.06.47,9.13,9.13,0,0,1-.9.33,11.79,11.79,0,0,1-4.22.38,15.2,15.2,0,0,0-2.92.09c-1.67,1.12-3.86,1.53-7.28,1.36-3.77,1.42-6.58.58-7.71,1.08a10.54,10.54,0,0,1-6,.77c-.53-.05-1-.11-1.52-.11h0a8.14,8.14,0,0,0-1.93.33A9,9,0,0,1,214.52,423.32Z" transform="translate(-203.51 -348.73)"/><path d="M397,367.84a2.07,2.07,0,0,0-.71-.36,4.09,4.09,0,0,1-.42-.16,5.91,5.91,0,0,0-1.5-.41l-.62-.13.22-1,.59.12a7.49,7.49,0,0,1,1.73.49l.32.13a3.06,3.06,0,0,1,1,.53Z" transform="translate(-203.51 -348.73)"/><path d="M361.42,367h0v-1a16.78,16.78,0,0,0,2.67-1,25.91,25.91,0,0,1,3.07-1.18,22.27,22.27,0,0,1,5.12-.59,23.34,23.34,0,0,1,3.5.21c1.87.27,3,.41,3.9.5.56.06,1.15.14,1.75.23s1.5.21,2.19.27l.71.06c.7.06,2,.18,2.65.2-.52-.33-1.8-1-3-1.66l-2-1c-1.23-.61-2.29-1.13-2.78-1.34-3.33-1.41-5,.05-6.33,1.23l-.39-.33-.33-.37c1.45-1.27,3.54-3.1,7.44-1.45.52.22,1.54.73,2.83,1.37l2,1c.71.38,3,1.62,3.39,1.95a1,1,0,0,1,.42.95c-.07.31-.33.51-.75.62a19.65,19.65,0,0,1-3.29-.18l-.7-.06c-.72-.06-1.5-.17-2.25-.27-.59-.09-1.17-.17-1.72-.23-.88-.09-2.05-.22-3.93-.5a22.71,22.71,0,0,0-3.36-.2,21.44,21.44,0,0,0-4.89.56,25.89,25.89,0,0,0-2.91,1.13A11.92,11.92,0,0,1,361.42,367Z" transform="translate(-203.51 -348.73)"/><path d="M318.82,371.34a3.15,3.15,0,0,1-1.46-.41,5.07,5.07,0,0,0-4.6.31l-.44-.9a6,6,0,0,1,5.51-.29c.51.26,1.19.49,1.52,0a5.15,5.15,0,0,0,.57-.93l.91.42a7.36,7.36,0,0,1-.67,1.1A1.58,1.58,0,0,1,318.82,371.34Z" transform="translate(-203.51 -348.73)"/><path d="M390.64,399.06a5.83,5.83,0,0,1-3.48-1l.6-.8c1.39,1,3.85,1,5.55.33a4.51,4.51,0,0,0,1.13-.52,1.18,1.18,0,0,0,.38-.53,2.3,2.3,0,0,1,.29-.52c.83-1.12,1.9-1.13,3.06-1.11h.16v1h-.16c-1.18,0-1.75,0-2.26.71a1.69,1.69,0,0,0-.18.33,2.23,2.23,0,0,1-.67.91,5.44,5.44,0,0,1-1.41.67A9.21,9.21,0,0,1,390.64,399.06Z" transform="translate(-203.51 -348.73)"/></g>
<g class="fenestra"><path d="M341.78,379.87a7.05,7.05,0,0,1-3.41-.8,7.43,7.43,0,0,0-2.95-1.11,31.77,31.77,0,0,1-4.47-1.33c-.7-.26-1.45-.46-2.18-.65a13.47,13.47,0,0,1-3.79-1.43c-2.64-1.68-5.74-4.47-5.56-8.2.1-2,.18-3.87,1.48-5.16a8.14,8.14,0,0,1,3.51-2.41l0,0,1.15-.3h.07c1.32,0,2.66,0,4,0,4.51,0,9.16-.08,12.88,2.35,3,1.92,4.35,4.51,4.06,7.47-.12,1.26-.54,5.58-.75,8.4a3.09,3.09,0,0,1-1.81,2.74A5.39,5.39,0,0,1,341.78,379.87Zm-17-20.15a7.3,7.3,0,0,0-3.14,2.17c-1,1-1.09,2.61-1.18,4.46-.16,3.3,2.68,5.82,5.1,7.35A12.11,12.11,0,0,0,329,375a23.63,23.63,0,0,1,2.27.69,33.39,33.39,0,0,0,4.35,1.29,8.39,8.39,0,0,1,3.31,1.27,6.23,6.23,0,0,0,4.64.27,2.08,2.08,0,0,0,1.23-1.9c.21-2.84.63-7.17.75-8.43.26-2.6-.95-4.8-3.6-6.53-3.47-2.27-7.78-2.23-12.33-2.19-1.28,0-2.62,0-3.93,0Z" transform="translate(-203.51 -348.73)"/></g>
</svg>