<svg xmlns="http://www.w3.org/2000/svg" viewBox="0 0 203.37 90.46">
  <defs>
    <style>
      path {
        fill: none;
        stroke: #000;
        stroke-miterlimit: 10;
      }
    </style>
  </defs>
  <title>Tylosaurus proriger</title>
  <metadata>
        <phyloxml xmlns:xsi="http://www.w3.org/2001/XMLSchema-instance" xmlns="http://www.phyloxml.org" xsi:schemaLocation="http://www.phyloxml.org http://www.phyloxml.org/1.10/phyloxml.xsd">
            <phylogeny rooted="true" rerootable="false">
                <clade>
                    <name>Animalia</name>
                    <clade>
                        <name>Chordata</name>
                        <clade>
                            <name>Reptilia</name>
                            <clade>
                                <name>Squamata</name>
                                <clade>
                                    <name>Mosasauroidea</name>
                                    <clade>
                                        <name>Mosasauridae</name>
                                        <clade>
                                            <name>Tylosaurinae</name>
                                            <clade>
                                                <name>Tylosaurus</name>
                                            </clade>
                                        </clade>
                                    </clade>
                                </clade>
                            </clade>
                        </clade>
                    </clade>
                </clade>
            </phylogeny>
        </phyloxml>
    </metadata>
  <g class="outline">
    <path class="cls-1" d="M223.5,352.62c1.39-.18,3.3-.21,4.71-.32.44,0,.82-.05,1.29-.13.67-.13,1.74-.15,2.25-.21,2.58-.34,5.13-.25,7.83-.5,4.41-.41,18-.61,21-.63,8.36,0,16.89-.27,25.27.13,4.38.2,8.89.43,13.25.46,6.8,0,8.88,1.25,12.09,1.25,3.74,0,10,.66,13.67.71,3.11,0,7.33,1,10.45,1.08,5.63.12,10.23.12,16.13.12,8,0,15.75.88,23.68,1.25,1.83.09,4.28-.21,6.06.23,2.31.58,3.09,2.24,4.88,3.27,1.46.84,3,2,4.34,2.84.72.43,2,1,2.75,1.41a7.27,7.27,0,0,1,2,1.56c1.72,2.1,4.08,3,3.67,7.73-.14,1.65-.74,2.94-.51,4.47s.79,2.84.87,4.37c.13,2.25-1.27,3.57-1.4,5.77-1.82-.7-1.68-4-4.61-3.45a14.65,14.65,0,0,0,.31,3.3,5.75,5.75,0,0,0,1.75,2.67c.73.89.63,1.1.5,2.42-.1,1-1,1.63-.75,2.66.49.44,3.38-.13,5.33.67,2.23.91,4.32,1.79,5.42,3.75a16.21,16.21,0,0,1,2.08,5.33,4.38,4.38,0,0,1-1.44,3.72c-1.56,1.37-4.56-.8-7.31-.22-1.1.24-5.66.42-7.25,2.25a5.2,5.2,0,0,1-2.63,1.3,21.13,21.13,0,0,1-4,1.31c-.18,1.34-3.76,3.22-4.86,4.06-1.94,1.5-12.75,5.83-16.58,7.25-5.38,2-11.5,4.5-17.45,6.7-1.19.43-14.78,5.91-16,6.3-2.53.82-4.91,2.75-6.75,2-2-1.5-2.46-.14-3.29.3-2.17,1.15-6.2-.56-8.33-.81-3.42-.41-6.21-1.74-9.5-2.24-1.68-.26-5.25-1.25-5.17-1.25-2.57-.46-5.1-.56-7.56-.88-2.81-.36-6-.41-8.81-.66-7.41-.65-14.75-1.21-22.09-1.54-2.95-.14-21.5-1.25-24.66-1.25-2.07,0-4-.44-5.92.08-1,.27-3,.63-4.21.83a51.3,51.3,0,0,1-6.21.17,18.49,18.49,0,0,1-6.79-.92c-.77-.29-3.17-.2-3.79-.75a4.69,4.69,0,0,1-.83-2c-.39-1.74-.73-3.24.08-4.66,1.11-2,3.71-1.21,5.79-1.75,0-1.79,2.08-5.23,2.34-4.34.47,3.09,1.39,3.9,4.41,3.42.92-.63.33-3.21,2.08-4.63.47-.37.63,1.63,1.8,3.05.77.93,1.23.64,2.29.83.46.08,1.54,0,1.83-.83a15,15,0,0,1,1.92-4.59c.79-1,.71,1.92,2.33,3.71a2.33,2.33,0,0,0,2.33,1c1.67-.5,1.41-.91,1.63-2a10.28,10.28,0,0,1,1.74-4.36c.68-.8,1.26,3.28,3,4.49,1,.64,1.73.87,2.72.06.78-.64.36-2.75,1.61-5,.71-1.52,3,5.54,5.63,4.33.78-.14.48-4.31,2.71-6.25.62-.54,1.16,3.21,2.41,4.71.6.72.5.71,1.34,1a3.32,3.32,0,0,0,1.29-2.45c.32-1.79,2-5.63,2.54-3.84.37,2.17,1.21,5.17,3.75,4.88.87-1.68.75-2.34,1.33-4,.4-1.1,1.66-3.34,1.84-1.92a16.31,16.31,0,0,0,1.87,4.38,1.89,1.89,0,0,0,3.25-.67c.36-1.29,1-4.43,2.25-5.08.78-.64.62,2.39,1,3.41.25.75,1.13,2.37,2.42,2.21s1.36-4.67,2.75-6.16c1.7-1.84.37,4.91,3.33,5.41,1.26.22,1.6-.43,1.83-1.29.36-1.33.5-3.62,1.67-5.33s1.64,3.65,2.46,4.71a2.79,2.79,0,0,0,2.84,1.18c.93-1.5.49-4.1,2-6.6.65-1,.71,2.12,2.59,4.46.47.58-.09.62,2.29.87.84.09,1.6-.58,2.33-.92.17-1.1,1.94-6,2.25-4.16s1.75,3.75,3,3.92,4.73.34,5.75.79c1.2.52,1.7,1.67,2.64,2,.18-2.3-.34-1.75-1-3.48a2.65,2.65,0,0,1,1.66-3.25,14.22,14.22,0,0,1,5.5-.5c1.3.06,3.72.65,5.18.75.93.06,1.89,0,2.82,0,3.69,0,6.83,0,9.81-2,1.83-1.23,2.89-3.38,4.55-4.67,1-.76,4.33-3.34,5.48-3.21s2.82,2.63,3.5,3.75c.93,1.54,1.37,1.42,3.91,1.17,3.68-.36,6.87-.79,10.42-1.17,2.33-.25,6.71-.77,8.75-1.25,2.5-.58,4.21-1.58,6.33-1.83a9.59,9.59,0,0,1,5,.42c-1.11-.8-1.9-1.38-.95-3.72-.95.5-3.84-.11-5.83-.41-2.17-.34-13-2-15.12-2.46-4.65-1-12.27-2.5-16.86-3.87-.38-.12-1,2.5-1.5,2.18s-.55-2-1.12-2.62-.69-.44-1.5-.32c-1.25.19-1.53,3.58-1.94,2.69-1.09-1.8.69-3.56-2.63-3.93-.81,1.24-.27,3.44-.87,2.87-.75-.94-.75-3.06-1.25-3.63-1.34-1.5-1.79,3.66-2.19,2.32-.25-.68-.18-2.81-.56-3.25-1.57-1.83-1.7,2.34-2.06,1.75s0-1.95-.5-2.56c-.31-.38-1.27-1.62-2.44.68-.81,1.13,0-1.8-1.06-2.62-1.9-1.53-2.19,2.18-2.5,1.25-.31-1.19.12-2.94-1.07-3.5-.9,0-.82,2.15-1.62,1.81-.56-.24-.44-1.95-.69-2.25a15,15,0,0,0-2.56-1.75c-2.92-1.54-2.25,3.49-3.21,2.71-1.41-1-1-3.67-2.37-3.71s-1.68-.63-2.92.29c-1.92,1.42-1.21,4-2.11,3a11.15,11.15,0,0,1-1.7-4.32c-5.09-1-4.25,4.56-5,4.62-1,0-1.94-2-2.11-2.79-.33-1.63.1-2.49-2-2.33-4.82.38-2.17,6.48-3.63,6.12-1.23-.52-1.9-2.46-2-4-.13-1.94-.11-2.08-1.85-2.75-3.28-1.27-3.85,2.37-4.21,5.09.08,1.41-1.94-.46-2.32-1.71a21,21,0,0,1-.62-4.75c-4.6-1.1-4.53,7.13-5.15,6.58-2.37-2.08-1.71-6.7-2.87-7.2a2.1,2.1,0,0,0-1.82-.22c-3.13,1.4-2.52,6.42-4,5.16-1.62-2.36-.92-5.27-2.82-5.82s-2.93,2.79-3.18,4.21c-.66,2-1.62-1.29-1.79-2.17s-.33-2.46-.75-2.92c.09-.2-1.12-.62-1.75-.54-2,.13-3.41,4.21-3.58,5.54-.25,1-1.42-1.87-1.63-3-.17-.94-.33-2.95-.85-3.59-1.06-.49-1.9-.45-2.48.26-1.64,2-1.42,5.62-2.33,5.08-1.84-1-.47-5.45-2.29-6.29-1-.46-2.2.25-2.88,1-1.79,1.87-.29,4.58-1.42,4.12-2.69-1.23-1.32-4.77-3.08-6.33a4.82,4.82,0,0,0-3.51-.5c-1.76.8-1.53,6.29-2.24,5.92-2.53-1.34-2-4.92-3.12-5.58-3.33-2.05-4,.29-4.3,3.12,0,.13.1,1.19-.41.88-.87-.52-1.38-1.93-2-3.29-.65-1.52-.59-3-3-2.71-2.75,1.45-2.28,6-3.12,5.08-1.74-1.9-1-5.67-3.17-5-2,1.69-.74,4.77-1.79,4.33-.37-.15-1-1.4-1.17-1.75a16.18,16.18,0,0,0-1.21-2.37c-.93-.78-2.72-.94-3.84-1.83s-2-1.73-1.62-3.21,1.09-2,2.3-2.76a11.17,11.17,0,0,1,4.12-1.33S219.68,353.14,223.5,352.62Z" transform="translate(-205.01 -350.23)"/>
  </g>
  <g class="teeth">
    <path class="cls-1" d="M349.42,383.87c-3,2.81-7.15-.08-10.58-1.5s-6.93-2.13-10.52-3.54c-1.79-.71-2.95-1.77-4.7-2.5s-3.32-1.3-5.08-2c-3.63-1.43-6.51-1.13-10.48-1.17s-7.59.11-11.37-.67c-1.78-.36-3.49.43-5.13-.31a11.34,11.34,0,0,0-5.5-1.13c-2,.1-3.85-.18-5.93-.23a30.69,30.69,0,0,1-6.19-1.27c-3.49-.81-9.14-.68-12.61-1.56-4.25-1.08-6.11-.62-10.14-1.66-4.22-1.08-8.3-1.2-12.69-1.84-3.38-.49-6.33,0-9.71-.46-2.12-1.79-4.52-1.14-5.54-1.16-1.47,0-3.81-1.91-5.08-1.13-3.71,2.29-4.34-.83-7.5,1.13a27.19,27.19,0,0,1,1.58,2.91c.16.35.8,1.6,1.17,1.75,1.05.44-.19-2.64,1.79-4.33,2.16-.63,1.43,3.14,3.17,5,.84.89.37-3.63,3.12-5.08,2.37-.29,2.31,1.19,3,2.71.58,1.36,1.09,2.77,2,3.29.51.31.37-.75.41-.88.25-2.83,1-5.17,4.3-3.12,1.08.66.59,4.24,3.12,5.58.71.37.48-5.12,2.24-5.92a4.82,4.82,0,0,1,3.51.5c1.76,1.56.39,5.1,3.08,6.33,1.13.46-.37-2.25,1.42-4.12.68-.71,1.88-1.42,2.88-1,1.82.84.45,5.29,2.29,6.29.91.54.69-3.09,2.33-5.08.58-.71,1.42-.75,2.48-.26.52.64.68,2.65.85,3.59.21,1.13,1.38,4,1.63,3,.17-1.33,1.58-5.41,3.58-5.54.63-.08,1.84.34,1.75.54.42.46.6,2.13.75,2.92s1.13,4.21,1.79,2.17c.25-1.42,1.34-4.75,3.18-4.21s1.2,3.46,2.82,5.82c1.5,1.26.89-3.76,4-5.16a2.1,2.1,0,0,1,1.82.22c1.16.5.5,5.12,2.87,7.2.62.55.55-7.68,5.15-6.58a21,21,0,0,0,.62,4.75c.38,1.25,2.4,3.12,2.32,1.71.36-2.72.93-6.36,4.21-5.09,1.74.67,1.72.81,1.85,2.75.1,1.54.77,3.48,2,4,1.46.36-1.19-5.74,3.63-6.12,2.11-.16,1.68.7,2,2.33.17.8,1.08,2.79,2.11,2.79.75-.06-.09-5.6,5-4.62a11.15,11.15,0,0,0,1.7,4.32c.9,1,.19-1.61,2.11-3,1.24-.92,1.57-.33,2.92-.29s1,2.75,2.37,3.71c1,.78.29-4.25,3.21-2.71a15,15,0,0,1,2.56,1.75c.25.3.13,2,.69,2.25.8.34.72-1.85,1.62-1.81,1.19.56.76,2.31,1.07,3.5.31.93.6-2.78,2.5-1.25,1,.82.25,3.75,1.06,2.62,1.17-2.3,2.13-1.06,2.44-.68.51.61.13,1.94.5,2.56s.49-3.58,2.06-1.75c.38.44.31,2.57.56,3.25.4,1.34.85-3.82,2.19-2.32.5.57.5,2.69,1.25,3.63.6.57.06-1.63.87-2.87,3.32.37,1.54,2.13,2.63,3.93.41.89.69-2.5,1.94-2.69.81-.12,1.06-.12,1.5.32s.75,2.37,1.12,2.62,1.12-2.31,1.5-2.18C351.79,387.87,348.49,386.39,349.42,383.87Z" transform="translate(-205.01 -350.23)"/>
    <path class="cls-1" d="M310.5,410.25c-1-.45-2.14-.22-3.25-.37s-2.5-2.05-3-3.92-2.08,3.06-2.25,4.16c-.73.34-1.49,1-2.33.92-2.38-.25-1.82-.29-2.29-.87-1.88-2.34-1.94-5.51-2.59-4.46-1.54,2.5-1.1,5.1-2,6.6a2.79,2.79,0,0,1-2.84-1.18c-.82-1.06-1.42-6.46-2.46-4.71s-1.31,4-1.67,5.33c-.23.86-.57,1.51-1.83,1.29-3-.5-1.63-7.25-3.33-5.41-1.39,1.49-1.38,6-2.75,6.16s-2.17-1.46-2.42-2.21c-.34-1-.18-4.05-1-3.41-1.26.65-1.89,3.79-2.25,5.08a1.89,1.89,0,0,1-3.25.67,16.31,16.31,0,0,1-1.87-4.38c-.18-1.42-1.44.82-1.84,1.92-.58,1.62-.46,2.28-1.33,4-2.54.29-3.38-2.71-3.75-4.88-.54-1.79-2.22,2-2.54,3.84a3.32,3.32,0,0,1-1.29,2.45c-.84-.33-.74-.32-1.34-1-1.25-1.5-1.79-5.25-2.41-4.71-2.23,1.94-1.93,6.11-2.71,6.25-2.63,1.21-4.92-5.85-5.63-4.33-1.25,2.27-.83,4.38-1.61,5-1,.81-1.7.58-2.72-.06-1.75-1.21-2.33-5.29-3-4.49a10.28,10.28,0,0,0-1.74,4.36c-.22,1.05,0,1.46-1.63,2a2.33,2.33,0,0,1-2.33-1c-1.62-1.79-1.54-4.75-2.33-3.71a15,15,0,0,0-1.92,4.59c-.29.87-1.37.91-1.83.83-1.06-.19-1.52.1-2.29-.84-1.17-1.41-1.33-3.41-1.8-3-1.75,1.42-1.16,4-2.08,4.63-3,.48-3.94-.33-4.41-3.42-.26-.89-2.36,2.55-2.34,4.33,2.25,1.5,4.37,0,6.42,0s4,.84,7.33-.62c1.33-.58,4,.33,7.83-1.13,3.92.21,5.8-.37,7.17-1.33,2.56-.42,4.64.33,7.18-.46a8.53,8.53,0,0,1,3.1-.83c1.14,0,2.29.06,3.44,0,2.11-.11,4.72,0,6.92-.32,1.46-.18,2.1-1.07,3.27-1.32s1.72.17,3,.13c2-.07,4-.79,6.25-1,2.47-.24,3-.62,5.64-.79,5.05-.32,7.84-1.63,12.84-1.42a19.53,19.53,0,0,0,6.66-1c1.35-.44,3.47-.27,4.88-.5C306.79,411.09,307.56,410.27,310.5,410.25Z" transform="translate(-205.01 -350.23)"/>
  </g>
  <g class="skull">
    <path class="base" d="M407.83,404.83a16.21,16.21,0,0,0-2.08-5.33c-1.1-2-3.19-2.84-5.42-3.75-1.95-.8-4.84-.23-5.33-.67-.26-1,.65-1.62.75-2.66.13-1.32.23-1.53-.5-2.42a5.75,5.75,0,0,1-1.75-2.67,14.65,14.65,0,0,1-.31-3.3c2.93-.52,2.79,2.75,4.61,3.45.13-2.2,1.53-3.52,1.4-5.77-.08-1.53-.67-2.95-.87-4.37s.37-2.82.51-4.47c.41-4.7-1.95-5.63-3.67-7.73a7.27,7.27,0,0,0-2-1.56c-.72-.38-2-1-2.75-1.41-1.35-.8-2.88-2-4.34-2.84-1.79-1-2.57-2.69-4.88-3.27-1.78-.44-4.23-.14-6.06-.23-7.93-.37-15.73-1.25-23.68-1.25-5.9,0-10.5,0-16.13-.12-3.12-.07-7.34-1-10.45-1.08-3.71-.05-9.93-.71-13.67-.71-3.21,0-5.29-1.21-12.09-1.25-4.36,0-8.87-.26-13.25-.46-8.38-.4-16.91-.16-25.27-.13-3,0-16.61.22-21,.63-2.7.25-5.25.16-7.83.5-.51.06-1.58.08-2.25.21-.47.08-.85.09-1.29.13-1.41.11-3.32.14-4.71.32-3.82.52-11.5,1.67-11.5,1.67a11.17,11.17,0,0,0-4.12,1.33c-1.21.76-1.92,1.16-2.3,2.76s.59,2.38,1.62,3.21a5.88,5.88,0,0,0,3.47,1.29c3.16-2,3.79,1.16,7.5-1.13,1.27-.78,3.61,1.09,5.08,1.13,1,0,3.42-.63,5.54,1.16,3.38.44,6.33,0,9.71.46,4.39.64,8.47.76,12.69,1.84,4,1,5.89.58,10.14,1.66,3.47.88,9.12.75,12.61,1.56a30.69,30.69,0,0,0,6.19,1.27c2.08.05,3.9.33,5.93.23a11.34,11.34,0,0,1,5.5,1.13c1.64.74,3.35-.05,5.13.31,3.78.78,7.5.62,11.37.67s6.85-.26,10.48,1.17c1.76.69,3.39,1.29,5.08,2s2.91,1.79,4.7,2.5c3.59,1.41,7,2.09,10.52,3.54s7.8,4.35,10.78,1.54c-.5,3.91,5,4.09,7.35,4.8a97.8,97.8,0,0,0,14.43,3.08c2.06.29,4.09.6,6.15.71,1.38.07,2.8-.16,4.17,0s3.44,1.24,4.9,1.12c-.95,2.34-.16,2.92.95,3.72a9.59,9.59,0,0,0-5-.42c-2.12.25-3.83,1.25-6.33,1.83-2,.48-6.42,1-8.75,1.25-3.55.38-6.74.81-10.42,1.17-2.54.25-3,.37-3.91-1.17-.68-1.12-2.25-3.61-3.5-3.75s-4.49,2.45-5.48,3.21c-1.66,1.29-2.72,3.44-4.55,4.67-3,2-6.12,2-9.81,2-.93,0-1.89.06-2.82,0-1.46-.1-3.88-.69-5.18-.75a14.22,14.22,0,0,0-5.5.5,2.65,2.65,0,0,0-1.66,3.25c.63,1.73,1.15,1.18,1,3.48-.94-.31-1.44-1.46-2.64-2a9.5,9.5,0,0,0-4.34-.34c-1.65.33-2.09.88-5.06,1.32-1.43,0-2.55.12-2.64.11-2.37-.22-3.09,1.32-7,1.21-1.26.17-8.26.44-9.69.89-2.87.88-5.39.55-7,1-1.26.65-6.17.77-7.49,1.21-1.51.5-3.85-.33-5.72.22-1.88,1.65-4.24,1.26-5.56,1.37a21.65,21.65,0,0,0-3.75,0c-2.92.39-2.58-.11-5,.49-3.41,1.32-6.55.5-7.76.83s-2.25.88-3.69,1.21-3.12-.11-4.79.39a18.42,18.42,0,0,1-4,.6,11.46,11.46,0,0,0-4.13.55,11.75,11.75,0,0,1-6.44.28,38,38,0,0,0-3.74.77,5,5,0,0,1-2.85-.56c-2.08.55-4.68-.21-5.79,1.75-.81,1.43-.47,2.93-.08,4.67a4.69,4.69,0,0,0,.83,2c.62.55,3,.46,3.79.75a18.49,18.49,0,0,0,6.79.92,51.3,51.3,0,0,0,6.21-.17c1.19-.2,3.21-.56,4.21-.83,1.93-.52,3.85-.09,5.92-.09,3.16,0,21.71,1.12,24.66,1.25,7.34.34,14.68.9,22.09,1.55,2.83.25,6,.3,8.81.66,2.46.32,5,.42,7.56.88-.08,0,3.49,1,5.17,1.25,3.29.5,6.08,1.84,9.5,2.24,2.13.25,6.16,2,8.33.81.83-.44,1.29-1.8,3.29-.3,1.84.75,4.22-1.18,6.75-2,1.19-.39,14.78-5.87,16-6.3,5.95-2.2,12.07-4.71,17.45-6.7,3.84-1.42,14.64-5.75,16.58-7.25,1.1-.84,4.68-2.72,4.86-4.06a21.13,21.13,0,0,0,4-1.31,5.2,5.2,0,0,0,2.63-1.3c1.59-1.83,6.15-2,7.25-2.25,2.75-.58,5.75,1.59,7.31.22A4.38,4.38,0,0,0,407.83,404.83ZM293.5,353c-3.22-.15-5.91.74-9,1.18-3.5.51-6.46-1-9.87-1s-6.66,1.25-10,2c-3.92.94-7.55.26-11.58.68a15,15,0,0,1-4.67-.84c-1.57-1,2.56-1.54,3.71-1.54,4,0,7.88-.48,11.87-.66,1.67-.07,3.33-.43,5-.51s3.75.23,5.27-.46c-1.36-.79-3-.54-4.49-1h.5c5.08,0,10.07,1.43,15,1.34,5.55-.11,11.49-.64,16.8,1.17C299.21,353.3,296.35,353.13,293.5,353Zm52.58,15.25c-.25,2.57-.58,6.08-.75,8.41-.27,3.84-5.74,2.67-6.66,2-1.7-1.23-3.34-.91-7.55-2.49-1.95-.74-4.16-.95-5.87-2.05-2.74-1.74-5.49-4.39-5.33-7.75.09-1.89.16-3.66,1.33-4.83a7.65,7.65,0,0,1,3.33-2.29l1.08-.29c5.88.2,11.95-.74,16.59,2.29C344.33,362.6,346.42,364.83,346.08,368.25Zm15.45,9c-1.19.84-3,.11-4.39,1.21-1.7,1.31-1.9,3.75-.89,4.72-2.11-.7-4.95-1.38-6.37.4a7.65,7.65,0,0,0,.3-3.43c0-.07,0-.4-.05-.76a38.09,38.09,0,0,1,.7-6c.17-1.06.34-3,.51-4a13.84,13.84,0,0,1,.49-2.3,1.69,1.69,0,0,1,1.5-1.24c.43,0,1,.07.95.28a3.31,3.31,0,0,0-.12,1.26,6.5,6.5,0,0,0,1.17,2.53,12.62,12.62,0,0,0,4.26,3.58c.31.13,1.49.56,1.82.69a1.38,1.38,0,0,1,1.06,1.36A1.9,1.9,0,0,1,361.53,377.28Z" transform="translate(-205.01 -350.23)"/>
    <path class="cls-1" d="M350.67,364.83A7.14,7.14,0,0,1,355,362a12.65,12.65,0,0,1,6.33.33" transform="translate(-205.01 -350.23)"/>
    <path class="cls-1" d="M345.75,354.75a14.9,14.9,0,0,0,7.92,4.5c2.29.49,4.2.58,6.58,1s5.67.56,7.75.83c6.43.84,13,2.61,19.75,1.92,1.79-.18,3.33-.42,5.17.42" transform="translate(-205.01 -350.23)"/>
    <path class="cls-1" d="M315.92,373.42a11.94,11.94,0,0,0-2.74-2.43c-.51-.38-1.3.12-1.89-.11s-1-1-1.49-1.3c-1.12-.6-1.49-.49-2.3-1.4s-2.56-2.13-3.67-3.14c-3.25-3-4.79-2.17-6.12-3.5a6.84,6.84,0,0,0-4.5-2.25c-1.52-.89,3-.75,4.42-1.83s2.55-.61,4.14-1.42c.9-.58-2.9-1-4.23-1.25a15.34,15.34,0,0,1-2.32-.77c-.88-.28-1.76-.11-2.84-1" transform="translate(-205.01 -350.23)"/>
    <path class="cls-1" d="M315,409.75c1.25,1.17,2.49,1,3.75,1.17a29.86,29.86,0,0,1,5.79,1.08c2.39.69,5,1.56,7.47,2.15,1.07.25,3.65,1.1,5,.52,1.14-.49,2.36-2.41,3.23-3.29,1-1,1.88-2.05,2.79-3,2.41-2.5,6.16-2.74,8.93-4.59,1.38-.92,2.49-1.27,1.75-2.87a16.88,16.88,0,0,0-2-3.09" transform="translate(-205.01 -350.23)"/>
    <path class="cls-1" d="M348,398.67c.44,1.06-.5,1.13-.92,1.87a14.75,14.75,0,0,0-.45,1.59c-.46,1.1-1.77,1.91-2,3" transform="translate(-205.01 -350.23)"/>
    <path class="cls-1" d="M393.17,398.33c.79,1.72,1.53,3.39.53,5.21a22.78,22.78,0,0,1-3.87,4.63c-1.55,1.6-3.21,3.06-5,4.57a11.16,11.16,0,0,0-1.87,1.64c-.58.78-.67,1.54-1.75,2.2" transform="translate(-205.01 -350.23)"/>
    <path class="cls-1" d="M326.33,412.75c-2.05,1.27-2.83,1.83-4.87,2.88S315,418,316,420.85a11.43,11.43,0,0,0,7.87,6.91,18.15,18.15,0,0,0,9.05.32c2-.37,3-1.41,6.66-1.41,2.5,0,17.25-2.69,20.59-3.67,2.75-.81,10.94-2.89,13.65-3.46a21.28,21.28,0,0,0,6.68-2.37" transform="translate(-205.01 -350.23)"/>
    <path class="cls-1" d="M296.67,435.42c2.5.25,5.63-.25,8-.25,3.1,0,6.41.61,9.45.17,1.65-.24,4.58-.52,5.38-2a4.48,4.48,0,0,0-.7-4.81c-2.71-.31-3.64-5.79-3.84-8s2.12-7,.08-8.24" transform="translate(-205.01 -350.23)"/>
    <path class="cls-1" d="M328.92,428.58c-2.66.79-7.52,1.16-8.42,4.25-.78,2.68,2,7.82,5.42,6.59" transform="translate(-205.01 -350.23)"/>
    <path class="cls-1" d="M222.88,362.46c-.34-1.88-.43-4.42,2.25-5.63,2.34-1.06,6.49-1.16,9.07-1.16s5.13-.17,7.72-.29a17.73,17.73,0,0,0,3.25-.5c1.05-.27,2.1-.38,3.16-.55" transform="translate(-205.01 -350.23)"/>
    <path class="cls-1" d="M301.5,356c4.71-.06,9.16-.39,14,.29a74.45,74.45,0,0,0,15.21.71" transform="translate(-205.01 -350.23)"/>
    <path class="cls-1" d="M323,360a23.53,23.53,0,0,1,5.09-2.59,44,44,0,0,1,5.87-.54c3.11-.14,5.81,1.13,8.81.65,1-.11,0-1.86-.43-2.69" transform="translate(-205.01 -350.23)"/>
    <path class="cls-1" d="M346.17,367.83c2.29-.37.83,6.29,4.87,3.13" transform="translate(-205.01 -350.23)"/>
    <path class="cls-1" d="M226.33,359.67a4.67,4.67,0,0,0,1.84.16" transform="translate(-205.01 -350.23)"/>
    <path class="cls-1" d="M230.33,360.33a10.76,10.76,0,0,0,2.34.17" transform="translate(-205.01 -350.23)"/>
    <path class="cls-1" d="M236.5,360.83a2.64,2.64,0,0,1,1.84.17" transform="translate(-205.01 -350.23)"/>
    <path class="cls-1" d="M243.21,361.66c.83,0,1,0,1.83,0" transform="translate(-205.01 -350.23)"/>
    <path class="cls-1" d="M252.5,362.67a4.23,4.23,0,0,0,2.33.33" transform="translate(-205.01 -350.23)"/>
    <path class="cls-1" d="M262.17,363.5a4.77,4.77,0,0,0,2.5.5" transform="translate(-205.01 -350.23)"/>
    <path class="cls-1" d="M270.83,364.67a14,14,0,0,1,2.88-.13" transform="translate(-205.01 -350.23)"/>
    <path class="cls-1" d="M281.38,365.37a6.18,6.18,0,0,1,2,.29" transform="translate(-205.01 -350.23)"/>
    <path class="cls-1" d="M290,366.33c3.35,0,6.66.41,10,.5" transform="translate(-205.01 -350.23)"/>
    <path class="cls-1" d="M269.17,422c10.79-.42,15.66-2.17,23.66-2.92" transform="translate(-205.01 -350.23)"/>
    <path class="cls-1" d="M214,427.17h2.5" transform="translate(-205.01 -350.23)"/>
    <path class="cls-1" d="M222.12,426.46c1-.59,1.84.07,2.3-.21" transform="translate(-205.01 -350.23)"/>
    <path class="cls-1" d="M230.5,425.54c.7-.18,2.2.09,2.92,0" transform="translate(-205.01 -350.23)"/>
    <path class="cls-1" d="M240.46,424.58c1.08-.58,3.12-.18,4.33-.46" transform="translate(-205.01 -350.23)"/>
    <path class="cls-1" d="M250.29,423.67c1.25-.5,3.19-.23,4.38-.21" transform="translate(-205.01 -350.23)"/>
    <path class="cls-1" d="M315.67,424.83c.37,2.49,1.92,4.21,1.83,7" transform="translate(-205.01 -350.23)"/>
    <path class="cls-1" d="M398.5,378.54a5.84,5.84,0,0,0-5.46-4.46c-1.56-.13-4.45.13-5.54,1.34-.45.49-.44.78-1,1.29a5.94,5.94,0,0,1-1.62,1,4.28,4.28,0,0,0-2.34,2.75,8.56,8.56,0,0,0,1.29,5.59c.88,1.52,2.39,2.3,3.43,3.61,2.53,3.18-2.49,4-.68,7,.71,1.18,2,1.9,3.25,1.17a7.43,7.43,0,0,0,1.42-1.44c.52-.5,1.46-.86,1.84-1.51,2.08-3.54-.44-3-2.67-4.8-1.88-1.5-2.57-5.28-2.46-6.46a4.75,4.75,0,0,1,2.33-3.62c3-1.44,5.53.79,6.19,3.29a12.91,12.91,0,0,1,.15,3" transform="translate(-205.01 -350.23)"/>
    <path class="cls-1" d="M384.67,374.5c1.64,1.59-1.59,2.46-2.63,3.12-2.05,1.32-2.37,2-3.08,4.21a5.66,5.66,0,0,0,.66,5.17c1.67,1.95,3.81.5,3.88-1.5" transform="translate(-205.01 -350.23)"/>
    <path class="cls-1" d="M393.08,395.12c.71.38.8.3,1.84.05" transform="translate(-205.01 -350.23)"/>
    <path class="cls-1" d="M394.5,382.83a1.09,1.09,0,0,0-1.44.19c-.31.44,0,1.9.23,2.77" transform="translate(-205.01 -350.23)"/>
    <path class="cls-1" d="M380,387.17c-2.08,2.7-2.38,2.2-6.51,1.64-3.37-.45-6.76-.84-10.16-1" transform="translate(-205.01 -350.23)"/>
    <path class="cls-1" d="M384.33,368.33c-2.13.11-4.09.63-6.16.84s-5.46.76-6.63.2c-2-1.83-5.34-2.37-8-2.54-1.65-.1-3.4.23-5,0s-2-.85-3.92-.76c-1.37,1,.54,3.53,1.24,4.39a13.73,13.73,0,0,0,3.55,3c1.17.63,3.84.61,3,2.88-.55,1.53-2.22,1.27-3.48,1.49a3.6,3.6,0,0,0-3,2.68c-1,3.68,2.81,3.53,5.35,4,3.68.71,9.18,2.88,13,1.35,3.25-1.3,3.95-6.21,6.87-7.58" transform="translate(-205.01 -350.23)"/>
    <path class="cls-1" d="M386.71,391.29c-1-.71-2.47-.64-3.54-.92a22.1,22.1,0,0,0-2.5-.5,36.69,36.69,0,0,0-4.17-.62" transform="translate(-205.01 -350.23)"/>
    <path class="cls-1" d="M212.37,422.17c2.25,1.5,4.29-.05,6.34-.05s4,.84,7.33-.62c1.33-.58,4,.33,7.83-1.13,3.92.21,5.8-.37,7.17-1.33,2.56-.42,4.64.33,7.18-.46a8.53,8.53,0,0,1,3.1-.83c1.14,0,2.29.06,3.44,0,2.11-.11,4.72,0,6.92-.32,1.46-.18,2.1-1.07,3.27-1.32s1.72.17,3,.13c2-.07,4-.79,6.25-1,2.47-.24,3-.62,5.64-.79,5.05-.32,7.84-1.63,12.84-1.42a19.53,19.53,0,0,0,6.66-1c1.35-.44,3.47-.27,4.88-.5,2.58-.41,3.35-1.23,6.29-1.25" transform="translate(-205.01 -350.23)"/>
    <path class="cls-1" d="M393.83,366.29a11.13,11.13,0,0,1,2.22.57,4.5,4.5,0,0,1,1.24.6" transform="translate(-205.01 -350.23)"/>
    <path class="cls-1" d="M361.42,366.5c.75,0,4.46-1.88,5.86-2.21a21.37,21.37,0,0,1,5-.58,23.14,23.14,0,0,1,3.43.2c1.89.28,3.06.42,3.91.5,1.26.14,2.7.4,4,.5a37.1,37.1,0,0,0,3.83.25c.54-.13.47-.4.12-.71s-3.28-1.87-3.28-1.87c-2.12-1-4.08-2-4.83-2.36-3.67-1.55-5.59.2-6.92,1.36" transform="translate(-205.01 -350.23)"/>
    <path class="cls-1" d="M320.38,369.37a7.49,7.49,0,0,1-.62,1c-.53.71-1.45.47-2.17.1a5.5,5.5,0,0,0-5,.3" transform="translate(-205.01 -350.23)"/>
    <path class="cls-1" d="M387.46,397.67c1.62,1.21,4.31,1,6,.4a5.87,5.87,0,0,0,1.27-.59c.47-.37.48-.78.76-1.15.71-1,1.63-.91,2.82-.91" transform="translate(-205.01 -350.23)"/>
  </g>
  <g class="fenestrae">
    <path class="cls-1" d="M324.58,359.25a7.65,7.65,0,0,0-3.33,2.29c-1.17,1.17-1.24,2.94-1.33,4.83-.16,3.36,2.59,6,5.33,7.75,1.71,1.1,3.92,1.31,5.87,2.05,4.21,1.58,5.85,1.26,7.55,2.49.91.67,6.39,1.84,6.66-2,.17-2.33.5-5.84.75-8.41.34-3.42-1.75-5.65-3.83-7-4.64-3-10.71-2.09-16.58-2.29Z" transform="translate(-205.01 -350.23)"/>
    <path class="cls-1" d="M351.34,369.38c-.17,1.05-.34,3-.51,4a38.09,38.09,0,0,0-.7,6c0,.36,0,.69.05.76a7.65,7.65,0,0,1-.3,3.43c1.42-1.78,4.26-1.1,6.37-.4-1-1-.81-3.41.89-4.72,1.43-1.1,3.2-.37,4.39-1.21a1.9,1.9,0,0,0,.94-1.74,1.38,1.38,0,0,0-1.06-1.36c-.33-.13-1.51-.56-1.82-.69a12.62,12.62,0,0,1-4.26-3.58,6.5,6.5,0,0,1-1.17-2.53,3.31,3.31,0,0,1,.12-1.26c.08-.21-.52-.29-.95-.28a1.69,1.69,0,0,0-1.5,1.24A13.84,13.84,0,0,0,351.34,369.38Z" transform="translate(-205.01 -350.23)"/>
    <path class="cls-1" d="M293.5,353c-3.22-.15-5.91.74-9,1.18-3.5.51-6.46-1-9.87-1s-6.66,1.25-10,2c-3.92.94-7.55.26-11.58.68a15,15,0,0,1-4.67-.84c-1.57-1,2.56-1.54,3.71-1.54,4,0,7.88-.48,11.87-.66,1.67-.07,3.33-.43,5-.51s3.75.23,5.27-.46c-1.36-.79-3-.54-4.49-1h.5c5.08,0,10.07,1.43,15,1.34,5.55-.11,11.49-.64,16.8,1.17C299.21,353.3,296.35,353.13,293.5,353Z" transform="translate(-205.01 -350.23)"/>
  </g>
</svg>
