<svg xmlns="http://www.w3.org/2000/svg" viewBox="0 0 312.74 182.34">
  <defs>
    <style>
      path {
        fill: none;
        stroke: #000;
        stroke-miterlimit: 10;
      }
    </style>
  </defs>
  <title>Dorygnathus banthensis</title>
  <metadata>
    <phyloxml xmlns:xsi="http://www.w3.org/2001/XMLSchema-instance" xmlns="http://www.phyloxml.org" xsi:schemaLocation="http://www.phyloxml.org http://www.phyloxml.org/1.10/phyloxml.xsd">
      <phylogeny rooted="true" rerootable="false">
        <clade>
          <name>Animalia</name>
          <clade>
            <name>Chordata</name>
            <clade>
              <name>Pterosauria</name>
              <clade>
                <name>Rhamphorhynchidae</name>
                <clade>
                  <name>Rhamphorhynchinae</name>
                  <clade>
                    <name>Dorygnathus</name>
                  </clade>
                </clade>
              </clade>
            </clade>
          </clade>
        </clade>
      </phylogeny>
    </phyloxml>
  </metadata>
  <g class="outline">
    <path class="cls-1" d="M544.05,345a7.63,7.63,0,0,0,2.92-2.59c5.3-8.51,8-18.35,13.35-26.86,3.54-5.69,6.83-10.56,10.37-16.24,3.42-5.5,8.15-10.46,11.78-15.8,3.5-5.14,7.93-10.73,3.58-18-3.91-6.53-12.82-10.19-20.2-11.17-20.47-2.73-41.75,1.16-61.82,6.05-59.39,14.48-120.43,30.88-179.23,51.36-12,4.17-23.94,8.64-35.45,15.25-3.12,1.79-6.49,3.63-6.13,7.21.12.36.68,1.32,1.45.55,0,0,5.73-2.59,7.6.66A54.09,54.09,0,0,0,306,336.81s5-3.26,7.16.55a18.69,18.69,0,0,1,3.85.22,24,24,0,0,1,4.68-2.48c6.28-1.59,7.43,1,7.43,1a69.79,69.79,0,0,1,9.58,0c5.61-3.74,11.3-1.85,11.94-1.87,9.25-.27,24.07-.26,24.07-.26,2.15-2.34,6.82-.49,6.82-.49l6.65-.13c3.14-2.31,5.24,0,5.24,0,4.7-.09,15-.36,15-.36,1.76-1.9,5.45-.14,5.45-.14l9.91-.31c1.65-1.12,4.4-.16,4.4-.16l7.54-.3c3-.12,9.16-.24,9.16-.24a5.44,5.44,0,0,1,4.29,0c2.74,0,8.26.08,8.26.08a2,2,0,0,1,2.43.05c2.78.07,8.3.28,8.3.28a2.29,2.29,0,0,1,2.73.13c28.07,1.36,53.8,5,60.95,7.6,2.32.85,7,4.39,9.89,5.14.43.23-2.89-.3-4.18-.86-13.57-5.83-30.66-.76-40.56,2-10.46,2.91-26.13,8-37.1,13-5.61,2.55-11,5.48-16.24,8.42,0,0-1.24,1.32-2.45,1.18,0,0-4.66,2.4-6.85,3.44a4.14,4.14,0,0,1-2.32,1.37s-2.74,1.33-4,2a4.41,4.41,0,0,1-2.39,1.32s-2.73,1.4-4.32,2.06a3.69,3.69,0,0,1-2.59,1.16s-3.36,1.68-4.82,2.34a3.54,3.54,0,0,1-3.3,1.68s-2.42,1.09-3.56,1.57c0,0-1,1.46-3.71,1.29,0,0-2,1-3.08,1.36,0,0-.8,1-3.27.93a16,16,0,0,1-2.81.44,3.32,3.32,0,0,1-3.28,1,23.43,23.43,0,0,1-3.84,1.41,2.87,2.87,0,0,1-3.42,1.28,36.62,36.62,0,0,1-4.63,1.41s-4.73,6.6-13,2.09c0,0-3.41,3.41-4.84,4.51a11.28,11.28,0,0,1-1.45,3.4c-2.74,2.88-7.69,2.55-7.69,2.55-1.21.22-3.74,2.42-6.16,4.73,0,0,3.24,3.08,2.14,6.11-2.23,6.13-22.24,5.12-22.24,5.12-7.76,3.58-12.88,6.77-20.69,8.15-3.69,2.18,18.18,3.87,26.31,3,15.57-1.62,27.8-7.66,40.73-15.14,4-2.29,8.71-4.56,12.81-6.58,4.81-2.38,10.35-3.26,15.1-5.75,13.21-6.94,28.68-12.39,44.37-19.76,3.18-1.5,11.12-5.34,14.42-6.77,4.44-1.93,8.05-2.94,12.61-4.57s16.29-5.51,20.64-7.32c16-6.68,25.15-9.58,42.66-12.55,3.46-.59,7.92-.6,11.23-1.77a12.39,12.39,0,0,0,6.49-5.12,4.19,4.19,0,0,0-.49-3.63C550.73,344.05,546.65,344.28,544.05,345Z" transform="translate(-275.62 -252.89)"/>
  </g>
  <g class="skull">
    <path class="mandible base cls-1" d="M441.25,368.76s-4.66,2.4-6.85,3.44a4.14,4.14,0,0,1-2.32,1.37s-2.74,1.33-4,2a4.41,4.41,0,0,1-2.39,1.32s-2.73,1.4-4.32,2.06a3.69,3.69,0,0,1-2.59,1.16s-3.36,1.68-4.82,2.34a3.54,3.54,0,0,1-3.3,1.68s-2.42,1.09-3.56,1.57c0,0-1,1.46-3.71,1.29,0,0-2,1-3.08,1.36,0,0-.8,1-3.27.93a16,16,0,0,1-2.81.44,3.32,3.32,0,0,1-3.28,1,23.43,23.43,0,0,1-3.84,1.41,2.87,2.87,0,0,1-3.42,1.28,36.62,36.62,0,0,1-4.63,1.41s-4.73,6.6-13,2.09c0,0-3.41,3.41-4.84,4.51a11.28,11.28,0,0,1-1.45,3.4c-2.74,2.88-7.69,2.55-7.69,2.55-1.21.22-3.74,2.42-6.16,4.73,0,0,3.24,3.08,2.14,6.11-2.23,6.13-22.24,5.12-22.24,5.12-7.76,3.58-12.88,6.77-20.69,8.15-3.69,2.18,18.18,3.87,26.31,3,15.57-1.62,27.8-7.66,40.73-15.14,4-2.29,8.71-4.56,12.81-6.58,4.81-2.38,10.35-3.26,15.1-5.75,13.21-6.94,28.68-12.39,44.37-19.76,3.18-1.5,11.12-5.34,14.42-6.77,4.44-1.93,8.05-2.94,12.61-4.57s16.29-5.51,20.64-7.32c16-6.68,25.15-9.58,42.66-12.55,3.46-.59,7.92-.6,11.23-1.77a12.39,12.39,0,0,0,6.49-5.12,4.19,4.19,0,0,0-.49-3.63c-1.28-1.55-4.86-1.27-6.77-.66-3.8,1.21-7.37-1.08-13.77-2.53-11.14-2.52-23.81.84-34.4,3.8s-26.13,8-37.1,13c-5.61,2.55-11,5.48-16.24,8.42C443.7,367.58,442.46,368.9,441.25,368.76Z" transform="translate(-275.62 -252.89)"/>
    <path class="cranium base cls-1" d="M283.22,334.17c.12.36.68,1.32,1.45.55,0,0,5.73-2.59,7.6.66A54.09,54.09,0,0,0,306,336.81s5-3.26,7.16.55a18.69,18.69,0,0,1,3.85.22,24,24,0,0,1,4.68-2.48c6.28-1.59,7.43,1,7.43,1a69.79,69.79,0,0,1,9.58,0c5.61-3.74,11.3-1.85,11.94-1.87,9.25-.27,24.07-.26,24.07-.26,2.15-2.34,6.82-.49,6.82-.49l6.65-.13c3.14-2.31,5.24,0,5.24,0,4.7-.09,15-.36,15-.36,1.76-1.9,5.45-.14,5.45-.14l9.91-.31c1.65-1.12,4.4-.16,4.4-.16l7.54-.3c3-.12,9.16-.24,9.16-.24a5.44,5.44,0,0,1,4.29,0c2.74,0,8.26.08,8.26.08a2,2,0,0,1,2.43.05c2.78.07,8.3.28,8.3.28a2.29,2.29,0,0,1,2.73.13c28.07,1.36,53.8,5,60.95,7.6,2.17.79,7.26,4.13,8.69,4.63a8.55,8.55,0,0,0,3.47.44,7.63,7.63,0,0,0,2.92-2.59c5.3-8.51,8-18.35,13.35-26.86,3.54-5.69,6.83-10.56,10.37-16.24,3.42-5.5,8.15-10.46,11.78-15.8,3.5-5.14,7.93-10.73,3.58-18-3.91-6.53-12.82-10.19-20.2-11.17-20.47-2.73-41.75,1.16-61.82,6.05-59.39,14.48-120.43,30.88-179.23,51.36-12,4.17-23.94,8.64-35.45,15.25C286.23,328.75,282.86,330.59,283.22,334.17Zm277.34-59c-5.12,0-9.25-2.08-10.89-6.93a7.3,7.3,0,0,1-.06-4.92c.69-1.65,2.44-2.65,3.85-3.75,2.6-2,4.42-2.76,7.68-2.4,3.76.42,5.7,3.66,9.41,4.38,1.89.36,5.24,0,7.11.58,2.63.86,3,4.7-.09,7.43C573.52,273.22,565.6,275.25,560.56,275.21ZM538.44,307c.83-3.09,3.69-8.05,4.78-11.06,1-2.63,3.55-5.57,5.29-7.76,2.9-3.65,6.43-6,11.1-4.88,4.47,1.11,5.26,6.31,4.47,10.1a29.13,29.13,0,0,1-3.27,8c-4.55,8.26-9.92,14.67-14,23.16-1.4,2.87-3.56,6.27-5.29,7.68-.59.47-2.76,1.27-3.47,1-1.39-.56-2.55-3-2.64-4.63C535.05,322.69,536.21,315.26,538.44,307Zm-48.39-14.28a14.51,14.51,0,0,1,5-10.94c1.56-1.31,3.89-2.33,5.55-3.51,3.91-2.78,7-8.23,11.15-10.65,1.64-1,8.17-1.16,9.66-1.32,8-.89,9.49,1.45,16.68,4.7,5.28,2.4,4.84,8.93,2.64,14.53-1,2.48-1.44,4.39-2.89,6.61-2.32,3.55-4.46,6.28-6.77,9.83a33.78,33.78,0,0,1-4.79,5.86c-1.76,1.57-2.85,3-4.54,4.62-1.43,1.38-3,3.18-4.38,4.58-3.74,3.75-10.1,5.32-14.7,2.69-3.63-2.08-7.35-6.53-10-11.07S490.13,297.92,490.05,292.72Zm-56.53,9.75a5.91,5.91,0,0,1,2.86-1.79c7.1-2.46,17-6.48,23.51-6,10.78.82,22,2.7,24.42,12.86a8.09,8.09,0,0,1-4.28,8.72,9.73,9.73,0,0,1-3.35,1.22A66.26,66.26,0,0,1,438,310.68c-1.59-.82-3.81-1.58-4.84-3A4.61,4.61,0,0,1,433.52,302.47Zm-34.46-6.61c3.08-1.28,9.49-4.17,12.72-5,8.58-2.31,10.41-4.61,18.24-4.46,2.71.05,6,.19,6,2.89-.05,1.71-1.37,3-2.81,4-8.92,5.78-12.55,8.51-30.47,11.65-2.73.47-18.34,6.29-18.82,1.4C383.41,301.62,395.83,297.19,399.06,295.86Z" transform="translate(-275.62 -252.89)"/>
    <path class="cls-1" d="M550.56,270.7a8.57,8.57,0,0,1-5.19.57,38.17,38.17,0,0,1-4.57-1.61,7.82,7.82,0,0,0-5.21.06" transform="translate(-275.62 -252.89)"/>
    <path class="cls-1" d="M561,253.79a24.31,24.31,0,0,0-6.44,4.87" transform="translate(-275.62 -252.89)"/>
    <path class="cls-1" d="M583.35,262.08a5.91,5.91,0,0,0-3.83,1" transform="translate(-275.62 -252.89)"/>
    <path class="cls-1" d="M569.15,273.93c-.12,1.53-1.4,2.72-2.42,3.51l-3.05,2.35a21.07,21.07,0,0,1-1.9,1.35,29.48,29.48,0,0,1-4.23,1.88" transform="translate(-275.62 -252.89)"/>
    <path class="cls-1" d="M542.73,297.29a13.89,13.89,0,0,1-.61-1.58,31.4,31.4,0,0,1-.25-4.95,11.28,11.28,0,0,0-1.23-5" transform="translate(-275.62 -252.89)"/>
    <path class="cls-1" d="M573.43,294.78a3.23,3.23,0,0,0-2.42.54,9.31,9.31,0,0,0-1.86,1.74,26.81,26.81,0,0,0-3.14,3.46c-.86,1.32-.69-1.88-.33-3.88a16.75,16.75,0,0,0,.5-5.12,8.38,8.38,0,0,0-3.14-5.86" transform="translate(-275.62 -252.89)"/>
    <path class="cls-1" d="M542.34,331.41c-.62,3-1.81,4.08-3.85,5.89-.47.43-2,1.88-2.5,2.26a9.6,9.6,0,0,0-1.51,1.41" transform="translate(-275.62 -252.89)"/>
    <path class="cls-1" d="M539.43,304.39a23.13,23.13,0,0,0-3.37,2.95,39.37,39.37,0,0,0-4.21,6.51c-1.65,3-3.29,5.88-4.81,8.92-2.45,4.91-3.85,9-3.58,14.92" transform="translate(-275.62 -252.89)"/>
    <path class="cls-1" d="M491,304.66a4.65,4.65,0,0,1-1.49,0,3.59,3.59,0,0,1-1.32-.66,5.19,5.19,0,0,0-5.88-1.84" transform="translate(-275.62 -252.89)"/>
    <path class="cls-1" d="M490.38,302.41c-3.73-4.32-7.05-7.8-7.49-13.49-.17-2.23.31-5.1-1-6.88a7.17,7.17,0,0,0-5.12-2.64c-1.73.07-2.87,1-4.57,1.32-5.94,1.26-10,5.88-15.28,8.36a73.8,73.8,0,0,1-8.87,3.3L435,296.63l-9.73,3.16A47.61,47.61,0,0,1,415.9,302" transform="translate(-275.62 -252.89)"/>
    <path class="cls-1" d="M497.43,334a11.19,11.19,0,0,0-3.1-2.46,22.16,22.16,0,0,0-5-1.72l-7.64-2c-1.47-.38-2.94-.76-4.37-1.27-4.29-1.53-8.09-4.15-11.83-6.74a3.33,3.33,0,0,1-1.67-2" transform="translate(-275.62 -252.89)"/>
    <path class="cls-1" d="M511.32,267.76c-2.71-.86-4.95.39-7.4,1.84s-4.91,2.71-7.37,4.13c-1.12.64-3.69,1.92-4.85,2.47a59.16,59.16,0,0,0-9.53,5.88" transform="translate(-275.62 -252.89)"/>
    <path class="cls-1" d="M486.69,269.32c-2,1.51-3.57,3.47-5.56,5s-3.63,3.91-5.17,5.07" transform="translate(-275.62 -252.89)"/>
    <path class="cls-1" d="M493.07,284a4.78,4.78,0,0,0-3.8,1.27,14.19,14.19,0,0,1-3.35,2.4,6.55,6.55,0,0,1-1.3.34,9,9,0,0,1-1.56.14" transform="translate(-275.62 -252.89)"/>
    <path class="cls-1" d="M444.25,293.65a4.91,4.91,0,0,0-2.8,2c-.43.53-1.52,1.49-2,2a9.07,9.07,0,0,1-1.92,1.63,26.67,26.67,0,0,0-3.71,2.82" transform="translate(-275.62 -252.89)"/>
    <path class="cls-1" d="M386.51,308.41c-3.12,6.29-7.88,10-14,13.37-2.1,1.16-5.32,3.8-7.49,5.36-1.07.77-3.63,2.72-4.48,3.44-1,.86-.95,2.5-.78,3.3" transform="translate(-275.62 -252.89)"/>
    <path class="cls-1" d="M517.79,257.32c-8.58,4.35-23.06,9.53-38.53,14.37-2.4.75-8.74,2.38-11.12,3.19-3,1-7,1.93-10.07,2.76-11.12,3-21,6.61-32.28,9" transform="translate(-275.62 -252.89)"/>
    <path class="cls-1" d="M551.75,349.92c-1.85.42-3.56-1.16-5.44-1.36a10.52,10.52,0,0,0-2.56.23,14.2,14.2,0,0,1-8.4-1.42,7.55,7.55,0,0,1-2.61-2,4,4,0,0,1-.87-3.12" transform="translate(-275.62 -252.89)"/>
    <path class="cls-1" d="M521.84,341.47c-8.69,2.48-17.42,6.24-31.22,10.56-1.36.42-2.79.6-4.18.94-9.06,2.22-17.73,7.1-27.05,6.52" transform="translate(-275.62 -252.89)"/>
    <path class="cls-1" d="M552.1,350.07c-3,1.27-8.56,1-11.35,1.49-14.18,2.55-25.45,5.78-36.22,8.26-1.72.39-6.48,2.05-8.15,2.64s-6.93,2.59-8.48,3.3c-10.08,4.63-16.34,7.61-26.27,12.56a6.85,6.85,0,0,0-2.94,2.21" transform="translate(-275.62 -252.89)"/>
  </g>
  <g class="teeth">
    <path class="cls-1" d="M347.3,339.91c-.81,1.54-1.62,3.08-2.3,4.68a41.88,41.88,0,0,0-3.24,13.6,71.23,71.23,0,0,0-.13,12.84c.24,2.54-1.05,0-2.13-2.51a60.26,60.26,0,0,1-2.2-8.37,95.5,95.5,0,0,1-.77-10.9,46.66,46.66,0,0,1,2.09-13,13.52,13.52,0,0,1,11.56-2.09S347.94,338.7,347.3,339.91Z" transform="translate(-275.62 -252.89)"/>
    <path class="cls-1" d="M323.15,342.26c-2.09,2.48-6.11,7.69-8,12.44a41.74,41.74,0,0,0-3.3,12.94c-.5,2.31-.94-2.54-1.1-5.23a46.6,46.6,0,0,1,.38-8.76,56.3,56.3,0,0,1,2.42-8.2c1.1-2.81,3.64-7.92,3.64-7.92,1.21-1,7.92-5.23,11.78-1.55C329,336,324.27,340.93,323.15,342.26Z" transform="translate(-275.62 -252.89)"/>
    <path class="cls-1" d="M309.83,335.54a5.05,5.05,0,0,0-3.19,1.16,22.34,22.34,0,0,0-3.52,4.07c-.34.54-2.37,4.18-2.65,4.85a21.74,21.74,0,0,0-1.92,8.25c.18.75.59.22.83-.24a65.69,65.69,0,0,1,5.17-7.19c.66-.83,2.8-3.25,3.46-4,1.37-1.59,3.69-3.57,5.29-5.06a11,11,0,0,0-1.1-1.05A4.45,4.45,0,0,0,309.83,335.54Z" transform="translate(-275.62 -252.89)"/>
    <path class="cls-1" d="M288.42,333.78a10.94,10.94,0,0,0-4,1.1,14.35,14.35,0,0,0-2.75,3.14c-.38.51-2.67,4-3,4.64a21.92,21.92,0,0,0-2.53,8.09c.14.76.58.25.85-.18a65.4,65.4,0,0,1,5.69-6.79c.72-.78,3-3,3.75-3.75a72.53,72.53,0,0,1,5.65-4.66l-.94-.93A4.31,4.31,0,0,0,288.42,333.78Z" transform="translate(-275.62 -252.89)"/>
    <path class="cls-1" d="M377.88,332.8a4.36,4.36,0,0,0-2.85.95s-1.52,2.37-2,3.35c-.26.51-1.75,3.92-1.94,4.55a21.13,21.13,0,0,0-1.11,7.59c.21.67.52.16.69-.27a60.44,60.44,0,0,1,3.92-6.81c.51-.79,2.18-3.11,2.69-3.85a61.87,61.87,0,0,1,4-4.8A13,13,0,0,0,377.88,332.8Z" transform="translate(-275.62 -252.89)"/>
    <path class="cls-1" d="M391.13,332.27a3.85,3.85,0,0,0-2.72,1.07,34.76,34.76,0,0,0-.87,3.43,32.75,32.75,0,0,0-.74,5.67c.13.4.33.09.44-.17a37.22,37.22,0,0,1,2.52-4.14c.33-.48,1.4-1.88,1.72-2.33a26.81,26.81,0,0,1,2-2.54A4.46,4.46,0,0,0,391.13,332.27Z" transform="translate(-275.62 -252.89)"/>
    <path class="cls-1" d="M410.74,332.23a2.54,2.54,0,0,0-2.23.86s-.24,3.13-.18,4.42a32.06,32.06,0,0,0,.41,5.7c.21.37.34,0,.4-.24a34.59,34.59,0,0,1,1.64-4.56c.22-.54,1-2.13,1.21-2.64a26.63,26.63,0,0,1,1.5-2.9A6.75,6.75,0,0,0,410.74,332.23Z" transform="translate(-275.62 -252.89)"/>
    <path class="cls-1" d="M425.81,331.9a3.2,3.2,0,0,0-1.94.62s.16,1.65.29,2.43c.17,1,.43,1.56.66,2.48.13.21.22,0,.26-.15a14.48,14.48,0,0,1,1-2.29c.31-.62,1.4-2.18,1.81-2.78A7.36,7.36,0,0,0,425.81,331.9Z" transform="translate(-275.62 -252.89)"/>
    <path class="cls-1" d="M352.4,399.92c-2.39-.52-5.17-1.2-7.62-1.9a87.62,87.62,0,0,1-19-8,169.71,169.71,0,0,1-17.29-11.12c-3.33-2.11-.38,1.18,2.21,4.19a92.07,92.07,0,0,0,9.9,9.36c3.75,3.08,11.89,7.59,14.76,8.91a100.75,100.75,0,0,0,16.3,6c1.45-.1,9.24.13,9.35-5.82C361,401.54,354.3,400.33,352.4,399.92Z" transform="translate(-275.62 -252.89)"/>
    <path class="cls-1" d="M334.24,416.24a86.72,86.72,0,0,1-21.47,1.33,150.65,150.65,0,0,1-19-2.58c-3.66-.47.13,1.23,3.5,2.82a85,85,0,0,0,12.19,4c4.38,1.17,13.16,1.53,16.1,1.57,16.43.25,20.56-3,20.56-3,1.19-.72,4-3.8-.08-8.18A43.9,43.9,0,0,1,334.24,416.24Z" transform="translate(-275.62 -252.89)"/>
    <path class="cls-1" d="M370.16,390.15a182.13,182.13,0,0,1-16-9c-4.59-2.79-8.67-5.2-15.44-9.91-3.47-2.56-1.86,1.05.75,4.05a71.27,71.27,0,0,0,8,7.59c3.87,3.26,5.77,4.78,8.34,6.61,8.42,6,10.32,7.51,10.32,7.51,3.64,2,9.67,2.31,13.05-2.31Z" transform="translate(-275.62 -252.89)"/>
    <path class="cls-1" d="M447.24,331.33a3.2,3.2,0,0,0-1.94.62s.47,1.33.78,2.05a5.35,5.35,0,0,0,1.37,2c.6.55.66-.66.93-1.81.16-.68.34-1.74.55-2.4A3.38,3.38,0,0,0,447.24,331.33Z" transform="translate(-275.62 -252.89)"/>
    <path class="cls-1" d="M458.61,331.4a2.37,2.37,0,0,0-1.35.43,15,15,0,0,0,.5,1.46,4,4,0,0,0,.64,1.26c.41.35.55-.44.88-1.15.19-.42.41-.94.66-1.6A2.81,2.81,0,0,0,458.61,331.4Z" transform="translate(-275.62 -252.89)"/>
    <path class="cls-1" d="M469.41,331.71a2.54,2.54,0,0,1,1.45.46s-.31,1.07-.53,1.57a4.79,4.79,0,0,1-.92,1.36c-.44.38-.58-.62-.8-1.43-.13-.47-.28-1.14-.47-1.65A2.54,2.54,0,0,1,469.41,331.71Z" transform="translate(-275.62 -252.89)"/>
    <path class="cls-1" d="M385.54,393.42a2.69,2.69,0,0,1-2-.13s-.83-1.68-1.17-2.57a24.87,24.87,0,0,1-1.37-4c0-.31.21-.12.33.05a25.07,25.07,0,0,0,2.37,2.6c.3.3,1.25,1.15,1.55,1.42a19.23,19.23,0,0,0,1.8,1.52A3.17,3.17,0,0,1,385.54,393.42Z" transform="translate(-275.62 -252.89)"/>
    <path class="cls-1" d="M392.61,390.71a2.71,2.71,0,0,1-1.92-.11s-.79-1.54-1.11-2.35a21.48,21.48,0,0,1-1.29-3.64c0-.29.2-.11.31.05a25.25,25.25,0,0,0,2.27,2.37c.28.27,1.19,1.05,1.47,1.29a18.13,18.13,0,0,0,1.73,1.39A3,3,0,0,1,392.61,390.71Z" transform="translate(-275.62 -252.89)"/>
    <path class="cls-1" d="M399,389.11a4.14,4.14,0,0,1-2.12.05s-.58-1.37-.8-2.07a22.3,22.3,0,0,1-.66-2.94c-.09-.36.46.08.68.33.42.47,1.44,1.49,1.85,1.87s1.68,1.46,2.15,1.9A1.74,1.74,0,0,1,399,389.11Z" transform="translate(-275.62 -252.89)"/>
    <path class="cls-1" d="M405.61,386.79a5.06,5.06,0,0,1-2.34.06s-.3-1.46-.47-2.18-.4-2.21-.55-3.11c-.08-.36.43.12.69.33.44.36,1.49,1.38,1.9,1.76s1.62,1.57,2.09,2A2.58,2.58,0,0,1,405.61,386.79Z" transform="translate(-275.62 -252.89)"/>
    <path class="cls-1" d="M412.71,383.74a2.42,2.42,0,0,0,1.05-1.33l-1.62-1.69c-.56-.58-1.63-1.54-2.31-2.16-.25-.26-.16.43-.1.76.12.54.44,2,.53,2.6s.25,1.57.36,2.2A4.76,4.76,0,0,0,412.71,383.74Z" transform="translate(-275.62 -252.89)"/>
    <path class="cls-1" d="M442.49,368.5a2.59,2.59,0,0,0,1.1-1.05s-.76-.82-1.18-1.17a4.76,4.76,0,0,0-1.42-.82c-.56-.14-.25.82-.09,1.64.1.48.26,1.15.32,1.69A2.54,2.54,0,0,0,442.49,368.5Z" transform="translate(-275.62 -252.89)"/>
    <path class="cls-1" d="M433.27,373.15a2.71,2.71,0,0,0,1.1-1s-.76-.83-1.18-1.18a4.76,4.76,0,0,0-1.42-.82c-.56-.14-.25.82-.09,1.64.1.48.26,1.15.32,1.69A2.6,2.6,0,0,0,433.27,373.15Z" transform="translate(-275.62 -252.89)"/>
    <path class="cls-1" d="M426.94,376.5a2.25,2.25,0,0,0,1-1s-.77-.81-1.2-1.15a4.64,4.64,0,0,0-1.21-.89c-.55-.14-.27.66-.2,1.48,0,.47.11,1.05.22,1.79A2.81,2.81,0,0,0,426.94,376.5Z" transform="translate(-275.62 -252.89)"/>
    <path class="cls-1" d="M420.19,379.86a1.8,1.8,0,0,0,1-1s-1-1-1.54-1.5a9.47,9.47,0,0,0-1.52-1.21c-.64-.25-.05.81.15,1.77.12.55.3,1.13.44,2.09A2.85,2.85,0,0,0,420.19,379.86Z" transform="translate(-275.62 -252.89)"/>
  </g>
  <g class="fenestrae">
    <path class="external-naris cls-1" d="M433.16,293.21c1.44-.93,2.76-2.25,2.81-4,.07-2.7-3.24-2.84-6-2.89-7.83-.15-9.66,2.15-18.24,4.46-3.23.87-9.64,3.76-12.72,5-3.23,1.33-15.65,5.76-15.19,10.4.48,4.89,16.09-.93,18.82-1.4C420.61,301.72,424.24,299,433.16,293.21Z" transform="translate(-275.62 -252.89)"/>
    <path class="supratemporal cls-1" d="M560.56,275.21c-5.12,0-9.25-2.08-10.89-6.93a7.3,7.3,0,0,1-.06-4.92c.69-1.65,2.44-2.65,3.85-3.75,2.6-2,4.42-2.76,7.68-2.4,3.76.42,5.7,3.66,9.41,4.38,1.89.36,5.24,0,7.11.58,2.63.86,3,4.7-.09,7.43C573.52,273.22,565.6,275.25,560.56,275.21Z" transform="translate(-275.62 -252.89)"/>
    <path class="antorbital cls-1" d="M459.89,294.7c-6.5-.5-16.41,3.52-23.51,6a5.91,5.91,0,0,0-2.86,1.79,4.61,4.61,0,0,0-.39,5.17c1,1.46,3.25,2.22,4.84,3a66.26,66.26,0,0,0,38.71,6.82,9.73,9.73,0,0,0,3.35-1.22,8.09,8.09,0,0,0,4.28-8.72C481.9,297.4,470.67,295.52,459.89,294.7Z" transform="translate(-275.62 -252.89)"/>
    <path class="lateral-temporal cls-1" d="M548.51,288.18c-1.74,2.19-4.33,5.13-5.29,7.76-1.09,3-4,8-4.78,11.06-2.23,8.26-3.39,15.69-3.06,21.55.09,1.63,1.25,4.07,2.64,4.63.71.28,2.88-.52,3.47-1,1.73-1.41,3.89-4.81,5.29-7.68,4.11-8.49,9.48-14.9,14-23.16a29.13,29.13,0,0,0,3.27-8c.79-3.79,0-9-4.47-10.1C554.94,282.15,551.41,284.53,548.51,288.18Z" transform="translate(-275.62 -252.89)"/>
    <path class="orbital cls-1" d="M521.43,266.3c-1.49.16-8,.35-9.66,1.32-4.14,2.42-7.24,7.87-11.15,10.65-1.66,1.18-4,2.2-5.55,3.51a14.51,14.51,0,0,0-5,10.94c.08,5.2,0,11.35,2.64,15.93s6.36,9,10,11.07c4.6,2.63,11,1.06,14.7-2.69,1.4-1.4,3-3.2,4.38-4.58,1.69-1.64,2.78-3.05,4.54-4.62a33.78,33.78,0,0,0,4.79-5.86c2.31-3.55,4.45-6.28,6.77-9.83,1.45-2.22,1.91-4.13,2.89-6.61,2.2-5.6,2.64-12.13-2.64-14.53C530.92,267.75,529.41,265.41,521.43,266.3Z" transform="translate(-275.62 -252.89)"/>
  </g>
</svg>
