<svg xmlns="http://www.w3.org/2000/svg" viewBox="0 0 278.53 92.61">
  <defs>
    <style>
      path {
        fill: none;
        stroke: #000;
        stroke-miterlimit: 10;
      }
    </style>
  </defs>
  <title>Rhamphorhynchus longicaudus</title>
  <metadata>
    <phyloxml xmlns:xsi="http://www.w3.org/2001/XMLSchema-instance" xmlns="http://www.phyloxml.org" xsi:schemaLocation="http://www.phyloxml.org http://www.phyloxml.org/1.10/phyloxml.xsd">
      <phylogeny rooted="true" rerootable="false">
        <clade>
          <name>Animalia</name>
          <clade>
            <name>Chordata</name>
            <clade>
              <name>Pterosauria</name>
              <clade>
                <name>Rhamphorhynchidae</name>
                <clade>
                  <name>Rhamphorhynchinae</name>
                  <clade>
                    <name>Rhamphorhynchus</name>
                  </clade>
                </clade>
              </clade>
            </clade>
          </clade>
        </clade>
      </phylogeny>
    </phyloxml>
  </metadata>
  <g class="outline">
    <path class="cls-1" d="M338.61,464.38s-19.4-4.24-30-7.82c-3.61-1.23-8.56-4.76-5.7-4.48,3.74.45,7.16.81,11.29,1.36,4.43.6,10.31,1.41,14.77,1.81,11,1,26.32,2.75,37.37,3.42,12,.74,30.54,1.71,39.82,1.71,25.08,0,59.32-1.68,84.37-2.77,18.67-.8,25.05-3.31,37.44-3.28,8,0,16.25-.82,24,1.17,4.48,1.14,12.35,5.13,14.74,6.59,3.34,2,4.24,4.32,5.62,5.46,3.13,2.58,5.82,2.74,7.09,6.6.48,1.47-.49,2.76-.66,3.74-.63,3.82,1,5.78-.73,8.39-3.52,5.36-7.93,10.58-13.92,14a184.38,184.38,0,0,1-19,9.2,168.13,168.13,0,0,0-26.14,13.92c-.81.74-.23.75.34.67,1.16.39,1.09,1.24,1.37,1.78.91,1.73,1.53.79,2.69,1.58.51.43.73,1.39.18,1.78s-1.48.2-2,.66a5.61,5.61,0,0,1-1.2.86,3.8,3.8,0,0,1-1.47.12c-4.37-.18-8.06-1.24-12.39-1.83-7.7-1.06-14.73-1.12-22.48-1.46-6.32-.28-26.08,0-39.46.67-3.39.17-14,.92-17.4,1.28-6.84.73-22.12,4-26.76,5.13-3.35.79-21.52,4.17-23.84,4.85A81.6,81.6,0,0,1,361.23,543c-2.27.33-10.16.63-12.46.67-5.25.09-10.35,0-15.61-.14-4.63-.17-17-2.24-13.46-2.91,3.36-.43,7.33-.68,10-1,3.67-.43,21.07-3.67,28-6,0,0-4.23-2.57-5.94-3.8s-6.64-5.2-8-7c-.61-.89,4.38,2.29,6,3.16a85.75,85.75,0,0,0,8.26,3.49,37.61,37.61,0,0,0,6.77,1.28c1.9-1,5.28-2.53,5.28-2.53s-5.41-3.84-7.18-5.39c-1.6-1.4-6.82-6.49-8.26-9-.6-1.22,4.42,3.06,6.07,4.23s6.6,4.2,8.5,5.31c1.51.89,4.46,2.44,6.28,3.3.41-.55,5.86-2,8-2.3h0s-4.7-4.63-6.68-6.78c-1.79-1.93-8.86-9.3-10.46-12.82-.66-1.71,6,5.13,6.83,5.83,1.71,1.55,7.38,6.33,9.36,7.93,1.64,1.32,4.79,3.58,6.69,5a66.26,66.26,0,0,1,8.17-2s-2.23-3.66-3.77-6.32a49.59,49.59,0,0,1-4.68-9.54c-.41-1.58,2.26,1.89,2.86,2.74,1.23,1.73,4,5.58,5.48,7.32s3.19,3.91,4.39,5.21v0c2.89-.7,9.5-1.73,10.65-1.82,0,0-2.4-3.25-3.79-5.41a31.82,31.82,0,0,1-3.66-7c-.29-1.17,1.47.93,1.76,1.31,1.08,1.43,4.36,4.64,5.73,6a53.21,53.21,0,0,0,4.63,4,62.92,62.92,0,0,1,12.51-1.61v-.12a54.28,54.28,0,0,1-4.23-5.65c-1.12-1.89-3.17-5.16-3.93-8.23,0-1.16,1.6,1.41,1.88,1.82,1.08,1.53,4.46,5.37,5.82,6.85a50.51,50.51,0,0,0,4.3,4.34c2.9-.48,15.29-.65,15.29-.65s-1.09-2.24-1.71-3.81a33.32,33.32,0,0,1-1.94-5.41c-.13-.93.37-.07.57.35a64,64,0,0,0,4,5.39,41.28,41.28,0,0,0,3,3.32c9.71.09,28.74.33,34.12.33,4.22,0,10.87.06,14.19.67a28.77,28.77,0,0,1,5.41,1.77c2.66,1.08,3.64.81,6.29,1.89-3.89-1.83-5.91-3.74-9.06-5.74-1.39-.89-2.68-1.63-3.33-2.12s-2.93-2.5-3.67-3c-1.06-.73-4.48-2.44-5.54-3.09-4.78-2.95-8.7-5.7-13.63-8.59-.43.35-1.23,1-1.89,1.65-.47.44-1.09,1-1.54,1.54-.11.13-.66.72-.67.33a12.46,12.46,0,0,1,1.05-2.94c.41-.81.95-1.74.95-1.74s-3.89-2.49-6.91-4.15c-.64.52-2,1.54-3,2.47-.69.66-1.6,1.6-2.26,2.34-.17.19-1,1.09-1,.5a13.11,13.11,0,0,1,1.24-3.68c.6-1.23,1.76-3.18,1.76-3.18s-11.08-3.26-13.49-3.77c-.77.66-2.53,2.21-3.68,3.36a28.34,28.34,0,0,0-2.84,3.14c-.18.26-1,1.35-1,.6a13.16,13.16,0,0,1,1.49-4.67,20.16,20.16,0,0,1,1.93-3.14s-8.7-1.84-13.38-3a39,39,0,0,0-4.62,4.07c-1.12,1.18-3.8,3.63-4.9,4.88-.29.32-1.45,1.77-1.48.8a27.41,27.41,0,0,1,3.49-6.84,45.87,45.87,0,0,1,2.78-3.85s-7.9-1.38-10.48-1.6c-1.48,1-3.46,2.58-5.93,4.54-1.63,1.3-5.36,4.38-6.69,5.45-.4.34-3.13,3-2.64,1.41a51.32,51.32,0,0,1,5-7.68c1.72-2.14,3.77-4.54,3.77-4.54s-5.45-.94-8.31-1.71a69.74,69.74,0,0,0-6.78,2.78c-1.88.89-8.45,4-10.32,5.2-.74.5-3.88,2.31-2.81,1a72.83,72.83,0,0,1,8.26-7.41c2.17-1.69,4.49-3.36,4.49-3.36s-12-.66-17.66-.75c-1,0-4.42-.34-5.4-.51a81.55,81.55,0,0,0-9.09,4.13c-4.35,2.41-8.71,5.32-11.89,9.33-1.77,1.73,1.19-4,4.63-7.68a61.92,61.92,0,0,1,7.81-6.5,62.4,62.4,0,0,1-7.4-1.62s-4.66,2.4-7.51,4.16a45,45,0,0,0-8.14,6.27c-1.77,1.73-.62-1,2.81-4.71a90.54,90.54,0,0,1,8.92-7.59A36.6,36.6,0,0,1,342.34,466a46.48,46.48,0,0,0-5,1.93,40.87,40.87,0,0,0-5.61,3c-1.19,1,0-.71,2.31-2.85C335.88,466.37,338.61,464.39,338.61,464.38Z" transform="translate(-301.58 -451.56)"/>
  </g>
  <g class="skull">
    <path class="base cranium cls-1" d="M308.63,456.56c10.58,3.58,29.57,7.82,29.57,7.82,4.84-1.11,4.14,1.62,4.14,1.62a36.6,36.6,0,0,0,11.47,4.16c4.29-.75,3.92,1.87,3.92,1.87a62.4,62.4,0,0,0,7.4,1.62s1.87-2.13,4.19-1.81c2,.27,4.57,2.64,4.57,2.64,1,.17,4.17.38,5.18.4,5.71.09,17.66.75,17.66.75,6.33-4.84,7.16,1.82,7.16,1.82,2.86.77,8.31,1.71,8.31,1.71,4.73-5.29,6.66.88,6.66.88,2.58.22,10.35,1.54,10.35,1.54,3.41-3.63,4.73.94,4.73.94,4.68,1.13,13.38,3,13.38,3,2.69-2.92,4.12.71,4.12.71,2.41.51,13.38,3.75,13.38,3.75,1.93-.88,3.62,1.73,3.62,1.73,3,1.66,6.45,3.94,6.45,3.94a2,2,0,0,1,2.44,1.4c4.92,2.9,8.68,5.45,13.46,8.4,1.06.65,4.48,2.36,5.54,3.09.74.51,2.94,2.47,3.67,3s1.94,1.23,3.33,2.12c3.15,2,4.32,3.42,7.82,4.76a7.73,7.73,0,0,1,3.26,2.83,9.49,9.49,0,0,0,1.85,2.38,2.21,2.21,0,0,0,2.79-.2,168.13,168.13,0,0,1,26.14-13.92,184.38,184.38,0,0,0,19-9.2c6-3.43,10.4-8.65,13.92-14,1.71-2.61.1-4.57.73-8.39.17-1,1.14-2.27.66-3.74-1.27-3.86-4-4-7.09-6.6-1.38-1.14-2.28-3.42-5.62-5.46-2.39-1.46-10.26-5.45-14.74-6.59-7.79-2-16-1.15-24-1.17-12.39,0-18.77,2.48-37.44,3.28-25.05,1.09-59.29,2.77-84.37,2.77-9.28,0-27.85-1-39.82-1.71C355.31,458,340,456.25,329,455.25c-4.46-.4-10.34-1.21-14.77-1.81-4.13-.55-7.55-.91-11.29-1.36C300.07,451.8,305,455.33,308.63,456.56Zm249.75,27.36a46.72,46.72,0,0,1-5.29-.25,11,11,0,0,1-3.78-1.26c-1.73-1-2.53-3.06-3.06-5-1.1-4-1.76-5.41-1.71-9.54a14.16,14.16,0,0,1,.08-3.26c.69-1.9,3.52-3.23,5.54-3.26s4.4-.12,6.27.65a72.05,72.05,0,0,1,8.47,3.67c2.76,1.53,4.53,3.08,4.4,6.19a14.89,14.89,0,0,1-1.52,6.28,9.29,9.29,0,0,1-2.88,3.41A10.36,10.36,0,0,1,558.38,483.92Zm-31,25.75c.43-.66,3.3-3.11,4.4-4.15,1.45-1.38,7.78-5.23,9.16-6.42,2.26-2,4.75-4.67,8.18-6.65a18.3,18.3,0,0,1,10.44-2.75c1.32,0,2.76-.4,3.73.49s.87,3.19.12,4.27c-1.46,2.14-4.3,3.11-6.84,4.52-2.13,1.18-11.74,6-12.66,6.51-2.42,1.25-7.41,2.72-11.83,5.52-1.55,1-4,2.33-4.82,2.08C526,512.79,526.44,511.08,527.36,509.67ZM484.3,477a8.91,8.91,0,0,1,.45-2.46,11.36,11.36,0,0,1,3.23-4.13c1,0,3.59.36,4.44.11.26-.07,3.49-.61,3.42-3.11a8.79,8.79,0,0,0-.3-1.84c1-.52,3-1.72,4.09-2.13.71-.28,2.41-.39,3.11-.67,2.48-1,3.82-1.79,6.48-2,1-.09,8.94-.94,11.6-.33,1.48.33,8,1.51,9.25,2.23a7.79,7.79,0,0,0,1.5.75,14.5,14.5,0,0,0,2.56.22,4.48,4.48,0,0,1,2.63,1.65c.37.38,4.29,5.5,5.68,9.59,1,3.05,3.06,7.57,2.39,13.07A13.51,13.51,0,0,1,543.6,491c-2,3.19-10.7,11.63-12.27,11.91s-3.91,2.69-8.31,4.28c-3.08,1.11-6.93,2.79-10.14,3.48-1.71.37-6.62-.18-9-2.08a89.3,89.3,0,0,1-6.71-6c-1.16-1.22-7.29-7.62-8.92-10.14-1.22-1.89-3.42-6.6-3.67-9.53C484.4,481.26,484.27,478.18,484.3,477Zm-24.44-1a84.93,84.93,0,0,1,16.52.16c1.95.25,3,2.52,3.34,3.18,1.14,2.52,3.21,8.85,1.22,9.12-3.42.16-10.87-3.08-17.75-6.6-.89-.45-4.89-2.28-5.39-4.23C457.57,476.75,458.93,476.08,459.86,476Zm-35.27-9.53c6.08-.47,10.42-.59,16.29-1.06,4.86-.38,9.52-1,11.07.41.81.72,2.81,2.73,2.44,3.75s-2.11,1.71-3.34,1.87c-2.9.39-7.28-.18-12.54-.9-1.41-.19-4.87-.87-6.27-1.14-2.93-.57-5.24-1.27-8.71-1.22C421.86,468.13,423.53,466.57,424.59,466.49Z" transform="translate(-301.58 -451.56)"/>
    <path class="base mandible cls-1" d="M427.26,529.52c3.37-.36,14-1.11,17.4-1.28,13.38-.67,33.14-1,39.46-.67,7.75.34,14.78.4,22.48,1.46,4.33.59,8,1.65,12.39,1.83a3.8,3.8,0,0,0,1.47-.12,5.61,5.61,0,0,0,1.2-.86c.49-.46,1.43-.28,2-.66s.33-1.35-.18-1.78c-1.16-.79-1.78.15-2.69-1.58-.28-.54-.21-1.39-1.37-1.78a2.51,2.51,0,0,0-1.62,0c-1,.3-1.53-.13-2.13-1s-2.29-3.35-3.25-3.74c-2.65-1.08-3.63-.81-6.29-1.89a28.77,28.77,0,0,0-5.41-1.77c-3.32-.61-10-.67-14.19-.67-5.38,0-24.41-.24-34.12-.33a4,4,0,0,1-3.85.16s-12.39.17-15.29.65c0,0-.17,1.77-1.74,1.69a6.9,6.9,0,0,1-2.1-.7,62.92,62.92,0,0,0-12.51,1.61c.23.88-.83,1.6-1.73,1.73a5.43,5.43,0,0,1-2.94-.66A85.41,85.41,0,0,0,401.57,521s-.08,1.82-1.36,2.06-2.35-.78-2.93-1.52a62.05,62.05,0,0,0-8.17,2,2.58,2.58,0,0,1-2.52,2.27,4.63,4.63,0,0,1-3.22-1.44c-2.09.15-7.56,1.75-8,2.3s-1.77,4.34-5.41,1.56c0,0-3.38,1.49-5.28,2.53,0,0-.63,2.84-2.19,3.42a6.1,6.1,0,0,1-4.88-.57c-6.91,2.28-24.31,5.52-28,6-2.63.3-6.6.55-10,1-3.54.67,8.83,2.74,13.46,2.91,5.26.19,10.36.23,15.61.14,2.3,0,10.19-.34,12.46-.67a81.6,81.6,0,0,0,15.43-3.46c2.32-.68,20.49-4.06,23.84-4.85C405.14,533.55,420.42,530.25,427.26,529.52Z" transform="translate(-301.58 -451.56)"/>
    <path class="cls-1" d="M486.15,502.48a11.19,11.19,0,0,0-4.4-5.13c-2.07-1.43-4.65-2.62-6.59-4.23-1.25-1-2.29-1.83-3.63-2.75-.83-.57-2.18-1.88-3-2.38a33.09,33.09,0,0,1-3.78-3c-2.55-2-6.79-5.85-6.9-7.3" transform="translate(-301.58 -451.56)"/>
    <path class="cls-1" d="M478.56,477.36a10.57,10.57,0,0,0,3.27.15,4.4,4.4,0,0,0,2.64-1.49" transform="translate(-301.58 -451.56)"/>
    <path class="cls-1" d="M462.61,475.61a17.14,17.14,0,0,1-3.4-1.24c-3.45-1.31-7.52-.78-10.65-2.72" transform="translate(-301.58 -451.56)"/>
    <path class="cls-1" d="M497.74,464.35c-1.39.77-3.62,1.56-5,2.33A18.48,18.48,0,0,0,488,470c-.6.65-1.49,1.72-2.07,2.5" transform="translate(-301.58 -451.56)"/>
    <path class="cls-1" d="M506.9,461.12a31.58,31.58,0,0,0-11.3,1.46c-1.18.35-3.88,1-4.87,1.75a4.11,4.11,0,0,0-1.79,2.28" transform="translate(-301.58 -451.56)"/>
    <path class="cls-1" d="M544.28,496.08c.1-.69.24-4.85-.39-5.73" transform="translate(-301.58 -451.56)"/>
    <path class="cls-1" d="M546,476.43h-3.1" transform="translate(-301.58 -451.56)"/>
    <path class="cls-1" d="M529,512.66a26.38,26.38,0,0,1-3.79,2.08,57.31,57.31,0,0,1-5.56,2.87c-1.46.55-4.27.86-6.9,1.65" transform="translate(-301.58 -451.56)"/>
    <path class="cls-1" d="M512.46,518.81c.85-2,2.68-3.25,4.43-4.57.72-.54,1.38-1.17,2.14-1.65s1.73-.86,2.59-1.3c3-1.52,7.49-4.61,9.81-5.47" transform="translate(-301.58 -451.56)"/>
    <path class="cls-1" d="M561.39,489.37a2.08,2.08,0,0,0-1.51-2.2,4.7,4.7,0,0,0-.84-.1,5.31,5.31,0,0,1-2.65-.92,3.29,3.29,0,0,1-1.38-2.38" transform="translate(-301.58 -451.56)"/>
    <path class="cls-1" d="M569,496.74c-2.27-.15-5,.42-7.31.3a1.19,1.19,0,0,1-.78-.24" transform="translate(-301.58 -451.56)"/>
    <path class="cls-1" d="M571.29,466.69a5.74,5.74,0,0,1-2.93,1.61" transform="translate(-301.58 -451.56)"/>
    <path class="cls-1" d="M560.52,458.81a8.71,8.71,0,0,1-4,1.49,5.8,5.8,0,0,0-1.17.17,1.71,1.71,0,0,0-.93,1" transform="translate(-301.58 -451.56)"/>
    <path class="cls-1" d="M517.77,455c-2.91.11-2.8.52-6.16,1.32-1.89.45-6,1.08-7.89,1.4a427.31,427.31,0,0,1-44,5.1,8.39,8.39,0,0,0-2.64.43,28.36,28.36,0,0,1-4.74,1.5,2.51,2.51,0,0,0-.75.23.79.79,0,0,0-.43.62" transform="translate(-301.58 -451.56)"/>
    <path class="cls-1" d="M491.94,467c-11.86-.84-23.28-1.68-35.16-1.22a5.59,5.59,0,0,0-1.53.2c-.92.3-1.81.1-2.72.43" transform="translate(-301.58 -451.56)"/>
    <path class="cls-1" d="M423,468a13.89,13.89,0,0,1-5.06,1.36c-4.61.54-9.33.2-13.93.74-2.06.23-5.23.5-7.27.82-1.05.17-5.11,1.09-6.39,1.49a37,37,0,0,0-7.15,2.64" transform="translate(-301.58 -451.56)"/>
    <path class="cls-1" d="M517.4,524.4a.5.5,0,0,1-.1.55,1.63,1.63,0,0,1-.51.3,1.66,1.66,0,0,1-.81.19,1.14,1.14,0,0,1-.88-.67,3,3,0,0,1-.25-1.11,14.25,14.25,0,0,1,0-2" transform="translate(-301.58 -451.56)"/>
    <path class="cls-1" d="M520.38,530.91a1.64,1.64,0,0,0-.33-2.37,5.89,5.89,0,0,0-2.55-.89,7.09,7.09,0,0,1-4.79-3,4.7,4.7,0,0,1,.31-5" transform="translate(-301.58 -451.56)"/>
    <path class="cls-1" d="M476,515.05c7.7,1.16,15.21,2.78,22.59,4.48,4.48,1,10.58,1.93,14.18.28" transform="translate(-301.58 -451.56)"/>
    <path class="cls-1" d="M515.27,526.88a127.74,127.74,0,0,0-14.63-2.5c-2.69-.24-5.38-.29-8.08-.31a360,360,0,0,0-36.71,1.56c-4.22.4-8.28.3-12.45,1.08l-5.85,1.1c-.63.12-1.39.37-1.48,1" transform="translate(-301.58 -451.56)"/>
  </g>
  <g class="teeth">
    <path class="cls-1" d="M364.58,478.5c-4.35,2.41-8.71,5.32-11.89,9.33-1.77,1.73,1.19-4,4.63-7.68a61.92,61.92,0,0,1,7.81-6.5c1.76-1.32,3.95-3.41,8.54.72A81.55,81.55,0,0,0,364.58,478.5Z" transform="translate(-301.58 -451.56)"/>
    <path class="cls-1" d="M449.46,484.39a2.15,2.15,0,0,0-2.14,1.1,20.16,20.16,0,0,0-1.93,3.14,13.16,13.16,0,0,0-1.49,4.67c0,.75.84-.34,1-.6a28.34,28.34,0,0,1,2.84-3.14c1.15-1.15,2.91-2.7,3.68-3.36C451.44,486.2,450.82,484.47,449.46,484.39Z" transform="translate(-301.58 -451.56)"/>
    <path class="cls-1" d="M466.35,489.89a1.32,1.32,0,0,0-1.69.66,29.07,29.07,0,0,0-1.49,2.6,13.11,13.11,0,0,0-1.24,3.68c0,.59.82-.31,1-.5.66-.74,1.57-1.68,2.26-2.34,1-.93,2.38-2,3-2.57A4.45,4.45,0,0,0,466.35,489.89Z" transform="translate(-301.58 -451.56)"/>
    <path class="cls-1" d="M476.34,495.71a1.24,1.24,0,0,0-1.36.09s-.46.8-.87,1.61a12.46,12.46,0,0,0-1.05,2.94c0,.39.56-.2.67-.33.45-.49,1.07-1.1,1.54-1.54.66-.61,1.46-1.3,1.89-1.65A3,3,0,0,0,476.34,495.71Z" transform="translate(-301.58 -451.56)"/>
    <path class="cls-1" d="M431.79,480.23c-1.15-.25-2.1.77-2.58,1.35a45.87,45.87,0,0,0-2.78,3.85,27.41,27.41,0,0,0-3.49,6.84c0,1,1.19-.48,1.48-.8,1.1-1.25,3.78-3.7,4.9-4.88a39,39,0,0,1,4.62-4.07A2.76,2.76,0,0,0,431.79,480.23Z" transform="translate(-301.58 -451.56)"/>
    <path class="cls-1" d="M415.78,477c-1.52-.27-2.94,1.48-3.58,2.15,0,0-2.05,2.4-3.77,4.54a51.32,51.32,0,0,0-5,7.68c-.49,1.57,2.24-1.07,2.64-1.41,1.33-1.07,5.06-4.15,6.69-5.45,2.47-2,4.45-3.53,5.93-4.54A3.77,3.77,0,0,0,415.78,477Z" transform="translate(-301.58 -451.56)"/>
    <path class="cls-1" d="M401.66,474c-1.89-1-4.16,1.09-4.93,1.59,0,0-2.32,1.67-4.49,3.36A72.83,72.83,0,0,0,384,486.4c-1.07,1.34,2.07-.47,2.81-1,1.87-1.24,8.44-4.31,10.32-5.2a69.74,69.74,0,0,1,6.78-2.78A4.09,4.09,0,0,0,401.66,474Z" transform="translate(-301.58 -451.56)"/>
    <path class="cls-1" d="M350.22,476.19a45,45,0,0,0-8.14,6.27c-1.77,1.73-.62-1,2.81-4.71a90.54,90.54,0,0,1,8.92-7.59c2.89-.5,4,.41,3.92,1.87C357.73,472,353.07,474.43,350.22,476.19Z" transform="translate(-301.58 -451.56)"/>
    <path class="cls-1" d="M337.33,467.93a40.87,40.87,0,0,0-5.61,3c-1.19,1,0-.71,2.31-2.85,1.85-1.72,4.58-3.7,4.58-3.71,1.66-.41,3.89-.5,3.73,1.62A46.48,46.48,0,0,0,337.33,467.93Z" transform="translate(-301.58 -451.56)"/>
    <path class="cls-1" d="M431.83,517.22a3.09,3.09,0,0,1-2.43-.82,54.28,54.28,0,0,1-4.23-5.65c-1.12-1.89-3.17-5.16-3.93-8.23,0-1.16,1.6,1.41,1.88,1.82,1.08,1.53,4.46,5.37,5.82,6.85a50.51,50.51,0,0,0,4.3,4.34A1.56,1.56,0,0,1,431.83,517.22Z" transform="translate(-301.58 -451.56)"/>
    <path class="cls-1" d="M415.15,519.86a4.45,4.45,0,0,1-2.93-.66s-2.4-3.25-3.79-5.41a31.82,31.82,0,0,1-3.66-7c-.29-1.17,1.47.93,1.76,1.31,1.08,1.43,4.36,4.64,5.73,6a53.21,53.21,0,0,0,4.63,4A2.07,2.07,0,0,1,415.15,519.86Z" transform="translate(-301.58 -451.56)"/>
    <path class="cls-1" d="M400,523c-.79.2-2.24-.79-2.76-1.42,0,0-2.23-3.66-3.77-6.32a49.59,49.59,0,0,1-4.68-9.54c-.41-1.58,2.26,1.89,2.86,2.74,1.23,1.73,4,5.58,5.48,7.32s3.19,3.91,4.39,5.21A1.88,1.88,0,0,1,400,523Z" transform="translate(-301.58 -451.56)"/>
    <path class="cls-1" d="M386.88,525.84a5,5,0,0,1-3.51-1.43s-4.7-4.63-6.68-6.78c-1.79-1.93-8.86-9.3-10.46-12.82-.66-1.71,6,5.13,6.83,5.83,1.71,1.55,7.38,6.33,9.36,7.93,1.64,1.32,4.79,3.58,6.69,5C389.11,523.58,388.63,525.68,386.88,525.84Z" transform="translate(-301.58 -451.56)"/>
    <path class="cls-1" d="M373,529.07a3.52,3.52,0,0,1-3-.8s-5.41-3.84-7.18-5.39c-1.6-1.4-6.82-6.49-8.26-9-.6-1.22,4.42,3.06,6.07,4.23s6.6,4.2,8.5,5.31c1.51.89,4.46,2.44,6.28,3.3C375.4,526.71,374.47,528.78,373,529.07Z" transform="translate(-301.58 -451.56)"/>
    <path class="cls-1" d="M362.19,534.4a7.73,7.73,0,0,1-4.55-.75s-4.23-2.57-5.94-3.8-6.64-5.2-8-7c-.61-.89,4.38,2.29,6,3.16a85.75,85.75,0,0,0,8.26,3.49,37.61,37.61,0,0,0,6.77,1.28S363.88,534.11,362.19,534.4Z" transform="translate(-301.58 -451.56)"/>
    <path class="cls-1" d="M450.91,515.41a4,4,0,0,1-2.38-.53s-1.09-2.24-1.71-3.81a33.32,33.32,0,0,1-1.94-5.41c-.13-.93.37-.07.57.35a64,64,0,0,0,4,5.39,41.28,41.28,0,0,0,3,3.32A3.77,3.77,0,0,1,450.91,515.41Z" transform="translate(-301.58 -451.56)"/>
    <path class="cls-1" d="M387,470c-.86-1.12-2.82-.85-3.64-.77,0,0-6.41,1.12-8.78,1.74a58.43,58.43,0,0,0-9.91,3.48c-1.37.62,4.17-.7,6.87-1,2-.26,7.59-.42,9.5-.36,2.87.08,5,.1,6.49.1C387.53,473.09,388.45,471.84,387,470Z" transform="translate(-301.58 -451.56)"/>
  </g>
  <g class="fenestrae">
    <path class="cls-1" d="M479.72,479.36c-.3-.66-1.39-2.93-3.34-3.18a84.93,84.93,0,0,0-16.52-.16c-.93.06-2.29.73-2.06,1.63.5,2,4.5,3.78,5.39,4.23,6.88,3.52,14.33,6.76,17.75,6.6C482.93,488.21,480.86,481.88,479.72,479.36Z" transform="translate(-301.58 -451.56)"/>
    <path class="cls-1" d="M424.59,466.49c-1.06.08-2.73,1.64-1.06,1.71,3.47-.05,5.78.65,8.71,1.22,1.4.27,4.86.95,6.27,1.14,5.26.72,9.64,1.29,12.54.9,1.23-.16,2.94-.77,3.34-1.87s-1.63-3-2.44-3.75c-1.55-1.39-6.21-.79-11.07-.41C435,465.9,430.67,466,424.59,466.49Z" transform="translate(-301.58 -451.56)"/>
    <path class="cls-1" d="M556.43,462c-1.87-.77-4.25-.68-6.27-.65s-4.85,1.36-5.54,3.26a14.16,14.16,0,0,0-.08,3.26c0,4.13.61,5.56,1.71,9.54.53,1.93,1.33,4,3.06,5a11,11,0,0,0,3.78,1.26,46.72,46.72,0,0,0,5.29.25,10.36,10.36,0,0,0,6.52-2.36,9.41,9.41,0,0,0,2.89-3.41,15,15,0,0,0,1.51-6.28c.13-3.11-1.64-4.66-4.4-6.19A72.05,72.05,0,0,0,556.43,462Z" transform="translate(-301.58 -451.56)"/>
    <path class="cls-1" d="M563.39,494.46c.75-1.08.85-3.38-.12-4.27s-2.41-.47-3.73-.49a18.3,18.3,0,0,0-10.44,2.75c-3.43,2-5.92,4.7-8.18,6.65-1.38,1.19-7.71,5-9.16,6.42-1.1,1-4,3.49-4.4,4.15-.92,1.41-1.35,3.12-.12,3.42.85.25,3.27-1.09,4.82-2.08,4.42-2.8,9.41-4.27,11.83-5.52.92-.47,10.53-5.33,12.66-6.51C559.09,497.57,561.93,496.6,563.39,494.46Z" transform="translate(-301.58 -451.56)"/>
    <path class="orbital cls-1" d="M484.54,483c-.14-1.72-.27-4.8-.24-6a8.91,8.91,0,0,1,.45-2.46,11.36,11.36,0,0,1,3.23-4.13c1,0,3.59.36,4.44.11.26-.07,3.49-.61,3.42-3.11a8.79,8.79,0,0,0-.3-1.84c1-.52,3-1.72,4.09-2.13.71-.28,2.41-.39,3.11-.67,2.48-1,3.82-1.79,6.48-2,1-.09,8.94-.94,11.6-.33,1.48.33,8,1.51,9.25,2.23a7.79,7.79,0,0,0,1.5.75,14.5,14.5,0,0,0,2.56.22,4.48,4.48,0,0,1,2.63,1.65c.37.38,4.29,5.5,5.68,9.59,1,3.05,3.06,7.57,2.39,13.07A13.51,13.51,0,0,1,543.6,491c-2,3.19-10.7,11.63-12.27,11.91s-3.91,2.69-8.31,4.28c-3.08,1.11-6.93,2.79-10.14,3.48-1.71.37-6.62-.18-9-2.08a89.3,89.3,0,0,1-6.71-6c-1.16-1.22-7.29-7.62-8.92-10.14C487,490.62,484.79,485.91,484.54,483Z" transform="translate(-301.58 -451.56)"/>
  </g>
</svg>
