<svg xmlns="http://www.w3.org/2000/svg" viewBox="0 0 297.19 157.15">
  <defs>
    <style>
      path {
        fill: none;
        stroke: #000;
        stroke-miterlimit: 10;
      }
    </style>
  </defs>
  <title>Scaphognathus crassirostris</title>
  <metadata>
    <phyloxml xmlns:xsi="http://www.w3.org/2001/XMLSchema-instance" xmlns="http://www.phyloxml.org" xsi:schemaLocation="http://www.phyloxml.org http://www.phyloxml.org/1.10/phyloxml.xsd">
      <phylogeny rooted="true" rerootable="false">
        <clade>
          <name>Animalia</name>
          <clade>
            <name>Chordata</name>
            <clade>
              <name>Pterosauria</name>
              <clade>
                <name>Rhamphorhynchidae</name>
                <clade>
                  <name>Scaphognathinae</name>
                  <clade>
                    <name>Scaphognathus</name>
                  </clade>
                </clade>
              </clade>
            </clade>
          </clade>
        </clade>
      </phylogeny>
    </phyloxml>
  </metadata>
  <g class="outline">
    <path class="cls-1" d="M302.24,155.16a14.2,14.2,0,0,1-1.74-2c-1.17-2.21,2.56-3.68,4-4.15,10.36-3.25,31.52-7.48,53.18-12.88,26-6.48,53.06-14.26,68.25-18.82,11.86-3.57,23-6.88,34.92-10.06,21.15-5.63,42.38-11,63.8-15.49,9.46-2,19.45-4.89,29.15-5.2a68,68,0,0,1,23.73,3.82c6.33,2.3,12.21,6.75,14.63,13,4.16,10.85-3.59,22-8.71,32.46-4.93,10-10.08,19.08-15.58,29.87-1.1,3.3-6.3,12.43-6.85,16.29s-2.1,4.84-4.18,4.29a15.79,15.79,0,0,1-2.1-.66c1.43,2,3.23,2.46,5.4,4.63a5.72,5.72,0,0,1,1.1,6.05c-1.32,3.53-7.37.66-26.43.66-12.66,0-54.76,8.85-62,10.69-8.22,2.08-17,4.08-25.29,6-8.14,1.92-16.28,4.13-24.55,5.39a191.67,191.67,0,0,0-28.84,6.72c-13.61,4.48-21.58,8.14-36.77,14.42a37.34,37.34,0,0,1-12.8,2.4,20.76,20.76,0,0,1-10.16-3,57.79,57.79,0,0,1-15.69-13.9,110.72,110.72,0,0,0,18.56-3.31s-.59-2-.82-3.2S336,216,336,215.37a16.64,16.64,0,0,1-.18-5.05c.23-.56.67.74.76,1.06.26,1,1.27,3.18,1.78,4.43.26.62,1.14,2.31,1.47,2.88.63,1.09,1.08,1.85,1.63,2.69,2.4-.65,4.86-1.41,6.91-2.15,2.86-1,8.31-3,8.31-3s-.49-2.47-.82-4.07c-.21-1-.72-4.35-.77-5.5a23,23,0,0,1,.16-6.55c.3-.74.7.91.77,1.32.22,1.21,1,4.19,1.49,5.78.24.79,1.1,3.24,1.43,4,.62,1.36,1.19,2.69,1.74,3.73,8-2.74,25.67-7.12,25.67-7.12s-.26-1.5-.44-2.83-.29-3.53-.32-4.17a20.29,20.29,0,0,1,0-5.5c.25-.61.63.79.7,1.13.22,1,1.11,3.41,1.56,4.74.23.67,1,2.48,1.32,3.08.58,1.16,1,1.78,1.52,2.67l20.72-4.23a29.32,29.32,0,0,1,.32-3.73,12.7,12.7,0,0,1,1.37-3.31c.39-.55.63.55.66,1,.09,1,.35,2.14.48,2.88a13.14,13.14,0,0,0,1,2.39c8.11-1.72,24.27-5.5,24.27-5.5,0-.45.07-1.34.08-1.9,0-1.1-.17-2,.49-1.52.5.57.91.87,1.57,1.56a9.74,9.74,0,0,0,1.31,1.07c6.77-1.66,13.48-3.42,20.06-5.31,11.53-3.3,22.53-7.18,34.06-10.33,9.53-2.6,23.23-6.28,32.15-4.51a61,61,0,0,0-13.65-3.75c-16-2.17-31.65-.82-47.42.5-.24,1-.55,2-.74,2.62-.33,1.06-.42,2.24-.94,1.67a7.78,7.78,0,0,1-.89-2c-.29-.73-.74-2.05-.74-2.05h0s-11.4.89-15.52,1.13c-.19.86-.66,2.23-.8,3s-.44,2.29-.52,3.28c0,.44-.28,1.54-.66,1a15.29,15.29,0,0,1-1.32-3.55c-.25-1.16-.47-3.64-.47-3.64s-16,.32-23.72.09a48.2,48.2,0,0,0-1.57,4.87c-.22.87-.75,4-.85,4.94a46.23,46.23,0,0,0-.14,6.95c0,.46.16,1.9-.33,1.15a31.45,31.45,0,0,1-2.15-7.1c-.12-.64-.5-4-.5-5.2s.53-5.92.53-5.92-6.14-.4-15-1.06a14.7,14.7,0,0,0-1.54,2.64,19.39,19.39,0,0,0-1.12,2.76,24.65,24.65,0,0,0-.64,3.44c0,.23-.13.94-.33.57a10.35,10.35,0,0,1-.26-3.38,12.91,12.91,0,0,1,.38-2.82,28.11,28.11,0,0,1,1.37-3.29s-1.46-.06-2.25-.12c-.63,1.88-1.26,3.49-1.8,5.17-.29.88-1.05,4.1-1.22,5.06a49.13,49.13,0,0,0-.64,7.21c0,.48,0,2-.42,1.17a33.63,33.63,0,0,1-1.7-7.58c-.08-.67-.22-4.25-.14-5.45s1-6.08,1-6.08-18.11-1.39-28.06-2.2c-.33,2.47-.87,5.52-1,7.82-.07,1.21,0,5.65.08,6.93a63.52,63.52,0,0,0,1.8,9.21c.16.62.69,2.56-.15,1.61a37.24,37.24,0,0,1-4.5-9,58.54,58.54,0,0,1-1.52-8.89c-.11-2.31.32-8.06.32-8.06s-15-1.27-21.63-1.89a58.64,58.64,0,0,0-1.32,5.82c-.15,1-.21,4.85-.22,5.91a49.19,49.19,0,0,0,.38,7.62c.1.51.4,2.1-.24,1.34a32.27,32.27,0,0,1-3-7.5,55.08,55.08,0,0,1-.9-5.72,66.54,66.54,0,0,1,.08-8,65,65,0,0,1-17.43-3c-1.15,1.83-2.93,4.24-3.87,6.16a37.28,37.28,0,0,0-2.42,6.06,68.67,68.67,0,0,0-1.19,8.78c-.05.58-.31,2.4-.71,1.33a45.12,45.12,0,0,1-.52-9.2,26.21,26.21,0,0,1,1-6.47A54.61,54.61,0,0,1,311,162a23.24,23.24,0,0,1-3.52-2.28,12.83,12.83,0,0,0-2.83,3.73,33.83,33.83,0,0,0-1.71,4.69,49.91,49.91,0,0,0-.93,6.3c0,.42-.24,1.72-.52,1a31.51,31.51,0,0,1-.33-6.59,18.8,18.8,0,0,1,.79-4.65,31.13,31.13,0,0,1,3-6.16,16.7,16.7,0,0,0-1.11-1.28,14.52,14.52,0,0,0-2.48,2.64,25.41,25.41,0,0,0-2,3.47,32.73,32.73,0,0,0-1.58,4.57c-.08.31-.38,1.27-.55.69a15.63,15.63,0,0,1,.43-4.77,17.66,17.66,0,0,1,1.24-3.51A26.91,26.91,0,0,1,302.24,155.16Z" transform="translate(-296.68 -86.02)"/>
  </g>
  <g class="skull">
    <path class="base cranium cls-1" d="M592.19,103.4c-2.42-6.29-8.3-10.74-14.63-13a68,68,0,0,0-23.73-3.82c-9.7.31-19.69,3.2-29.15,5.2-21.42,4.52-42.65,9.86-63.8,15.49-12,3.18-23.06,6.49-34.92,10.06-15.19,4.56-42.27,12.34-68.25,18.82-21.66,5.4-42.82,9.63-53.18,12.88-1.47.47-5.2,1.94-4,4.15a14.34,14.34,0,0,0,1.73,2c1.44-.11,1.62,1.53,1.62,1.53A16.7,16.7,0,0,1,305,158a2.53,2.53,0,0,1,2.6,1.77A22.27,22.27,0,0,0,311,162a5.35,5.35,0,0,1,4.24,1.67,65,65,0,0,0,17.43,3,4.07,4.07,0,0,1,5.2.53c6.66.62,21.63,1.89,21.63,1.89a6.12,6.12,0,0,1,5,.41c10,.81,28.06,2.2,28.06,2.2,2.07-1.9,4.88.5,4.88.5.79.06,2.25.12,2.25.12a2,2,0,0,1,2.14.08c8.9.66,15,1.06,15,1.06,2.36-2,5,.31,5,.31,7.71.23,24-.09,24-.09,2.32-2.06,3.47-.08,3.47-.08,4.12-.24,15.52-1.13,15.52-1.13a2.25,2.25,0,0,1,3.31-.27c15.77-1.32,31.41-2.67,47.42-.5,13,1.76,23.56,8.48,37.1,12.33,1.61.46,2.58,1.87,4.19,2.31,2.08.55,3.63-.43,4.18-4.29s5.75-13,6.85-16.29c5.5-10.79,10.65-19.82,15.58-29.87C588.6,125.42,596.35,114.25,592.19,103.4ZM406.71,149a26.77,26.77,0,0,1-6.95,1.86,28.14,28.14,0,0,1-4.68-.05c-4.42-.32-7.9-.29-12.16-1.49-1.83-.51-4.3-1.1-6-2.44a4,4,0,0,1-.67-5.2,9.46,9.46,0,0,1,3.14-2.14c2.61-1.54,3.7-2.84,6.4-4.2a33,33,0,0,1,5-2,212.65,212.65,0,0,0,24.56-6.94,23.54,23.54,0,0,1,3-.88c.75-.15,2.64-.18,3.41-.22a49.73,49.73,0,0,1,6.9.22,4.35,4.35,0,0,1,1.92.47c1.42.86,1.5,2.92,1,4.49a13.94,13.94,0,0,1-2.18,3.45C423.71,142,415.67,145.62,406.71,149Zm81.46,2.53c-.36,3.17-2.52,5.11-5.07,7-3.59,2.72-9,3.48-13.43,4-5.06.56-7.84.64-10.76.72-8.86.25-15,1.14-23.7-.61a6.52,6.52,0,0,1-3.19-1.1,21.64,21.64,0,0,1-2.86-2.53,9,9,0,0,1,.77-11.89,52.64,52.64,0,0,0,4.4-4.18c.87-1,2.77-2.22,3.64-3.19a23.37,23.37,0,0,1,3.77-3.17c2.56-1.86,5.12-3.71,7.76-5.44a56.55,56.55,0,0,1,14.83-7.35c4.27-1.27,9.75-1.4,13.05,2.3,1.33,1.51,1.42,3,2.86,4.41a42.83,42.83,0,0,1,3,3.85c1,1.33.79,2.3,1.11,3.94C485.16,142.51,488.64,147.25,488.17,151.53Zm23.89,2.2a29.79,29.79,0,0,1-6.5,3c-3.47.85-5.53-.07-8-2.63a21,21,0,0,1-3.83-6.69L490,138.47a88,88,0,0,0-4.64-9.94c-1.16-2-2.54-4.12-2.56-6.47a2.62,2.62,0,0,1,.9-2.21,9,9,0,0,1,.93-.47c1.83-1,1.56-3.64,1.81-5.72a7.92,7.92,0,0,1,3.37-5.66,16.27,16.27,0,0,0,1.77-1.15c.78-.65,1.28-1.58,2.06-2.23a8,8,0,0,1,2.53-1.27,63,63,0,0,1,10.38-3,50.92,50.92,0,0,1,7.61-.6c2.73-.06,5.29.32,8,.41a31,31,0,0,1,6.72.77,14.13,14.13,0,0,1,7.9,7c1.78,3.39,1.64,7.43,1.39,11.24-.34,5.24-.89,10.74-3.84,15.09a31.52,31.52,0,0,1-3.41,4A99,99,0,0,1,512.06,153.73Zm65.8-20.13-6,11.42a27.35,27.35,0,0,1-3.51,5.4c-.5.55-2.63,4.42-3.08,5.18l-6.81,10.32c-1.35,2.27-2.56,4.35-4.64,6a14,14,0,0,1-2.09,1.21,11,11,0,0,1-4.07.66,29.76,29.76,0,0,1-10.79-1.87c-3.75-1.37-7.55-4.53-8.43-8.42a15.42,15.42,0,0,1,.06-7.21,26.46,26.46,0,0,1,1.69-4.63,18.06,18.06,0,0,1,4.21-5.44,58.73,58.73,0,0,1,4.49-3.87,108.71,108.71,0,0,1,12.07-8.3c.26-.15,4.47-1.48,5.28-2.09,3.53-2.64,9-4.17,14.64-5.51a11.41,11.41,0,0,1,5.09-.23A4.32,4.32,0,0,1,579,129.1C579.37,130.64,578.6,132.2,577.86,133.6ZM586.37,106a10.56,10.56,0,0,1-1.43,2.42,40,40,0,0,1-4.74,5.17c-4.4,3.86-6.36,5.43-11.34,7.71-1.33.61-4.24,1.49-5.61,2a22.64,22.64,0,0,1-6.94,1.21,11.64,11.64,0,0,1-4.29-.33c-2.83-1-3.93-3.81-4.06-6.82a14.66,14.66,0,0,1,1.31-7.38,23.46,23.46,0,0,1,2.53-4.4,20.88,20.88,0,0,1,2.38-2.75,38,38,0,0,1,7-5.18,33.89,33.89,0,0,1,9.85-2.9c3.69-.66,7.83-.89,11.37.92a7.41,7.41,0,0,1,4.41,7.38A12.4,12.4,0,0,1,586.37,106Z" transform="translate(-296.68 -86.02)"/>
    <path class="base mandible cls-1" d="M348.35,219.23c-2.05.74-4.35,1.44-6.74,2.08,0,0-1.93,2.3-4.24,1.07a110.42,110.42,0,0,1-18.64,3.35,57.79,57.79,0,0,0,15.69,13.9,20.76,20.76,0,0,0,10.16,3,37.34,37.34,0,0,0,12.8-2.4c15.19-6.28,23.16-9.94,36.77-14.42A191.67,191.67,0,0,1,423,219.12c8.27-1.26,16.41-3.47,24.55-5.39,8.32-2,17.07-4,25.29-6,7.25-1.84,49.35-10.69,62-10.69,19.06,0,25.11,2.87,26.43-.66a5.72,5.72,0,0,0-1.1-6.05c-2.17-2.17-4-2.64-5.4-4.63-2-2.75-6.24-2.5-13.32-5.61-2.75-1.21-9.09-4-12.22-4.62-8.92-1.77-22.62,1.91-32.15,4.51-11.53,3.15-22.53,7-34.06,10.33-6.58,1.89-13.29,3.65-20.06,5.31,0,0-1.23,3.51-3.45.79-.09-.1-16.16,3.78-24.27,5.5a2.22,2.22,0,0,1-3.81.78l-20.72,4.23s-1.41,3.44-4.38.88c0,0-17.62,4.38-25.67,7.12,0,0-1.58,3.37-3.83,1.33Z" transform="translate(-296.68 -86.02)"/>
    <path class="cls-1" d="M495.32,98.52c-15.43,5.44-26.88,9.83-42.44,14.53-10.84,3.27-22.18,8-33,11.23-5.33,1.6-11.5,3.84-16.84,5.45-14.15,4.26-34,9.58-48.72,13-15.44,3.65-25.46,8.77-34.23,22" transform="translate(-296.68 -86.02)"/>
    <path class="cls-1" d="M580.62,113.38c-2.79,4.39-5.85,8.87-10.67,10.82a5.77,5.77,0,0,0-1.76.91,2.07,2.07,0,0,0-.37,2.14" transform="translate(-296.68 -86.02)"/>
    <path class="cls-1" d="M564.52,87.12a16.28,16.28,0,0,0-4.47,5.1l-4.66,7.1a6.08,6.08,0,0,0-1.33,3.34" transform="translate(-296.68 -86.02)"/>
    <path class="cls-1" d="M548.13,112.41a4.66,4.66,0,0,1-3.07-.54c-.57-.43-1-1.16-1.73-1.16s-1,.49-1.48.79a5.08,5.08,0,0,1-3.21.38" transform="translate(-296.68 -86.02)"/>
    <path class="cls-1" d="M497.3,153.67a36.9,36.9,0,0,1-8.79-11.31c-1.89-3.44-3.49-7.21-6.54-9.68" transform="translate(-296.68 -86.02)"/>
    <path class="cls-1" d="M504.07,100.75c-3.71.29-6.78,0-10.51.1a9.79,9.79,0,0,1-3.37-.32" transform="translate(-296.68 -86.02)"/>
    <path class="cls-1" d="M494.25,104.13c-3.85.08-4,1.84-7.6,3.22a30.53,30.53,0,0,0-4.37,2.15,17.09,17.09,0,0,0-2.38,1.2c-1.64,1.6-3.5,3.81-5.14,5.4" transform="translate(-296.68 -86.02)"/>
    <path class="cls-1" d="M483.49,120.09c-2.56-2.39-4-4.27-7.49-4.07s-9.15,2.37-12.47,3.5a62.77,62.77,0,0,0-8.25,3.35c-2.15,1.08-4.3,2-6.61,3a100,100,0,0,0-9.16,4.54c-4.19,2.43-8.62,4.34-12.8,6.77" transform="translate(-296.68 -86.02)"/>
    <path class="cls-1" d="M579.21,144.1c-3.17.81-4.17,5-7,6.69,0-2.61,1.89-4.75,3.38-6.89a24.6,24.6,0,0,0,3.87-8.94,11.18,11.18,0,0,0-.94-7.13" transform="translate(-296.68 -86.02)"/>
    <path class="cls-1" d="M533.88,146.41c2.15-2.49,5.32-6.45,7.46-8.94a8.81,8.81,0,0,0,2.53-4.61c.33-2.31-3.55,3.23-8.42,5.87-4.15,2.25-7.6,5.82-11.56,8.4-1.93,1.26-4,2.57-6.28,2.66" transform="translate(-296.68 -86.02)"/>
    <path class="cls-1" d="M457.18,163.42c10.15,1.73,22.3,1.9,32.69,2.31a83.66,83.66,0,0,1,27.66,5.36c2.61.94,7.84,2.57,10.55,3.16,2,.44,4,.47,6,.79,2.92.47,5.93,1.55,8.74.63,1.14-.37,2.07-1.39,3.26-1.51,3.48-.34,5.38-.51,7.59-1.42,5.07-2.08,6.88-3.39,10.59-7.43,1.81-2.64,1.27,1.1.24,2.56s-1.4,2.29-3,3.14a36.34,36.34,0,0,0-4,2.64,38.69,38.69,0,0,0-4.71,4.13c-1.64,1.85-4,2.81-5.94,4.3" transform="translate(-296.68 -86.02)"/>
    <path class="cls-1" d="M462.94,119.68c-2.42,1.29-4.11,3.26-6.34,4.85a35.83,35.83,0,0,1-3,2.39,29.84,29.84,0,0,0-9,7.47" transform="translate(-296.68 -86.02)"/>
    <path class="cls-1" d="M534.46,177.2c-3.3.83-6.66.43-9.69.43a45.58,45.58,0,0,0-5.1.17c-1.52.16-3,.45-4.5.75l-19.92,4c-3.46.69-6.92,1.38-10.34,2.27-3.72,1-7.44,2.18-11.28,2.18" transform="translate(-296.68 -86.02)"/>
    <path class="cls-1" d="M555.68,192.4a8.64,8.64,0,0,0-5.62-4.87c-2.36-.38-4.7-.88-6.46-2.5a6.35,6.35,0,0,1-2-5" transform="translate(-296.68 -86.02)"/>
    <path class="cls-1" d="M561.21,196.07c-.2-1.88-2.35-2.8-4.18-3.26a62.14,62.14,0,0,0-20.69-1.64,110.16,110.16,0,0,0-12.22,2q-6.51,1.33-13,2.83c-6.59,1.54-13.14,3.21-19.69,4.88a82.15,82.15,0,0,0-18.08,6.51" transform="translate(-296.68 -86.02)"/>
    <path class="cls-1" d="M589.43,98.59a3.77,3.77,0,0,1-2.79,1.83" transform="translate(-296.68 -86.02)"/>
    <path class="cls-1" d="M483.35,119.65a4.5,4.5,0,0,0-2.31,3.8c.32,3.6,3.31,7.14,4.87,10.41" transform="translate(-296.68 -86.02)"/>
  </g>
  <g class="teeth">
    <path class="cls-1" d="M419,172.5c-.91-.08-2.15,1.07-2.15,1.07s-.5,4.68-.5,5.78.38,4.56.5,5.2a31.45,31.45,0,0,0,2.15,7.1c.49.75.36-.69.33-1.15a46.23,46.23,0,0,1,.14-6.95c.1-.93.63-4.07.85-4.94.41-1.65,1-3,1.48-4.87A4.87,4.87,0,0,0,419,172.5Z" transform="translate(-296.68 -86.02)"/>
    <path class="cls-1" d="M447.43,172.58a4.57,4.57,0,0,0-1.9,1.49s.25,2.06.5,3.22a15.29,15.29,0,0,0,1.32,3.55c.38.55.62-.55.66-1,.08-1,.39-2.53.52-3.28s.61-2.22.8-3.08C449.33,173.49,448.34,172.38,447.43,172.58Z" transform="translate(-296.68 -86.02)"/>
    <path class="cls-1" d="M394.67,170.87c-.92-.17-2.27.92-2.27.92s-.84,4.81-.92,6,.06,4.78.14,5.45a33.63,33.63,0,0,0,1.7,7.58c.45.82.42-.69.42-1.17a49.13,49.13,0,0,1,.64-7.21c.17-1,.93-4.18,1.22-5.06.54-1.68,1.24-3.05,1.87-4.93A5.14,5.14,0,0,0,394.67,170.87Z" transform="translate(-296.68 -86.02)"/>
    <path class="cls-1" d="M361.89,168.78a6.16,6.16,0,0,0-2.56.58s-.27,5.45-.16,7.76a58.54,58.54,0,0,0,1.52,8.89,37.24,37.24,0,0,0,4.5,9c.84,1,.31-1,.15-1.61a63.52,63.52,0,0,1-1.8-9.21c-.09-1.28-.15-5.72-.08-6.93.13-2.3.5-5.12.83-7.6A4.52,4.52,0,0,0,361.89,168.78Z" transform="translate(-296.68 -86.02)"/>
    <path class="cls-1" d="M334.89,166a6.22,6.22,0,0,0-2.31.75,74.24,74.24,0,0,0,0,7.92,55.08,55.08,0,0,0,.9,5.72,32.27,32.27,0,0,0,3,7.5c.64.76.34-.83.24-1.34a49.19,49.19,0,0,1-.38-7.62c0-1.06.07-4.91.22-5.91.29-1.89.75-3.88,1.24-5.78A3.52,3.52,0,0,0,334.89,166Z" transform="translate(-296.68 -86.02)"/>
    <path class="cls-1" d="M313.12,162.31A6.39,6.39,0,0,0,311,162a52.56,52.56,0,0,0-3.49,8.32,26.21,26.21,0,0,0-1,6.47A45.12,45.12,0,0,0,307,186c.4,1.07.66-.75.71-1.33a68.67,68.67,0,0,1,1.19-8.78,37.28,37.28,0,0,1,2.42-6.06A68.45,68.45,0,0,1,315.1,164S315.16,163,313.12,162.31Z" transform="translate(-296.68 -86.02)"/>
    <path class="cls-1" d="M306.51,158.13a2.58,2.58,0,0,0-1.32-.33,30.27,30.27,0,0,0-3.25,6.33,18.8,18.8,0,0,0-.79,4.65,31.51,31.51,0,0,0,.33,6.59c.28.76.49-.54.52-1a49.91,49.91,0,0,1,.93-6.3,33.83,33.83,0,0,1,1.71-4.69,13.73,13.73,0,0,1,2.9-3.88A4.86,4.86,0,0,0,306.51,158.13Z" transform="translate(-296.68 -86.02)"/>
    <path class="cls-1" d="M303.26,155.51a2.58,2.58,0,0,0-.94-.39,26.61,26.61,0,0,0-3.43,4.66,17.66,17.66,0,0,0-1.24,3.51,15.63,15.63,0,0,0-.43,4.77c.17.58.47-.38.55-.69a32.73,32.73,0,0,1,1.58-4.57,25.41,25.41,0,0,1,2-3.47,15.44,15.44,0,0,1,2.48-2.73A2.33,2.33,0,0,0,303.26,155.51Z" transform="translate(-296.68 -86.02)"/>
    <path class="cls-1" d="M466.55,171.63a3.49,3.49,0,0,0-1.65.74s.4,1.39.69,2.12a7.78,7.78,0,0,0,.89,2c.52.57.61-.61.94-1.67.19-.61.41-1.6.65-2.58A3.22,3.22,0,0,0,466.55,171.63Z" transform="translate(-296.68 -86.02)"/>
    <path class="cls-1" d="M413.36,203.43a2.6,2.6,0,0,1-1.93-.86,28.54,28.54,0,0,1,.32-3.66,12.7,12.7,0,0,1,1.37-3.31c.39-.55.63.55.66,1,.09,1,.35,2.14.48,2.88a15.4,15.4,0,0,0,1.07,2.51A3,3,0,0,1,413.36,203.43Z" transform="translate(-296.68 -86.02)"/>
    <path class="cls-1" d="M441.57,197.35a2.42,2.42,0,0,0,1.4-1.61s-.81-.71-1.32-1.24c-.66-.69-1.07-1-1.57-1.56-.66-.5-.47.42-.49,1.52,0,.56-.13,1.61-.13,2.07C439.46,196.53,440.46,197.69,441.57,197.35Z" transform="translate(-296.68 -86.02)"/>
    <path class="cls-1" d="M358.67,216.89c-.76.24-2-.69-2-.69s-.49-2.47-.82-4.07c-.21-1-.72-4.35-.77-5.5a23,23,0,0,1,.16-6.55c.3-.74.7.91.77,1.32.22,1.21,1,4.19,1.49,5.78.24.79,1.1,3.24,1.43,4,.62,1.36,1.15,2.75,1.7,3.8A3.34,3.34,0,0,1,358.67,216.89Z" transform="translate(-296.68 -86.02)"/>
    <path class="cls-1" d="M388.86,208.66a2.84,2.84,0,0,1-2.53-1.21s-.26-1.2-.44-2.53-.29-3.53-.32-4.17a20.29,20.29,0,0,1,0-5.5c.25-.61.63.79.7,1.13.22,1,1.11,3.41,1.56,4.74.23.67,1,2.48,1.32,3.08.58,1.16.93,1.81,1.43,2.7C390.62,206.9,390.16,208.42,388.86,208.66Z" transform="translate(-296.68 -86.02)"/>
    <path class="cls-1" d="M339.6,222.48a4.15,4.15,0,0,1-2.42-.33s-.48-1.7-.71-2.93S336,216,336,215.37a16.64,16.64,0,0,1-.18-5.05c.23-.56.67.74.76,1.06.26,1,1.27,3.18,1.78,4.43.26.62,1.14,2.31,1.47,2.88.63,1.09,1,1.71,1.56,2.54A2.28,2.28,0,0,1,339.6,222.48Z" transform="translate(-296.68 -86.02)"/>
    <path class="cls-1" d="M401,172.06c-.28-.13-1.26.38-1.26.38a18.61,18.61,0,0,0-1.43,3.14,12.91,12.91,0,0,0-.38,2.82,10.35,10.35,0,0,0,.26,3.38c.2.37.32-.34.33-.57a24.65,24.65,0,0,1,.64-3.44,19.39,19.39,0,0,1,1.12-2.76,11.81,11.81,0,0,1,1.55-2.31A3.71,3.71,0,0,0,401,172.06Z" transform="translate(-296.68 -86.02)"/>
  </g>
  <g class="fenestrae">
    <path class="cls-1" d="M571,94.68a33.89,33.89,0,0,0-9.85,2.9,38,38,0,0,0-7,5.18,20.88,20.88,0,0,0-2.38,2.75,23.46,23.46,0,0,0-2.53,4.4,14.64,14.64,0,0,0-1.31,7.38c.13,3,1.23,5.78,4.06,6.82a11.64,11.64,0,0,0,4.29.33,22.64,22.64,0,0,0,6.94-1.21c1.37-.49,4.28-1.37,5.61-2,5-2.28,6.94-3.85,11.34-7.71a40,40,0,0,0,4.74-5.17,10.56,10.56,0,0,0,1.43-2.42,12.4,12.4,0,0,0,.44-3,7.41,7.41,0,0,0-4.41-7.38C578.86,93.79,574.72,94,571,94.68Z" transform="translate(-296.68 -86.02)"/>
    <path class="cls-1" d="M577.86,133.6c.74-1.4,1.51-3,1.13-4.5a4.32,4.32,0,0,0-3.06-2.91,11.41,11.41,0,0,0-5.09.23c-5.64,1.34-11.11,2.87-14.64,5.51-.81.61-5,1.94-5.28,2.09a108.71,108.71,0,0,0-12.07,8.3,58.73,58.73,0,0,0-4.49,3.87,18.06,18.06,0,0,0-4.21,5.44,26.46,26.46,0,0,0-1.69,4.63,15.42,15.42,0,0,0-.06,7.21c.88,3.89,4.68,7.05,8.43,8.42a29.76,29.76,0,0,0,10.79,1.87,11,11,0,0,0,4.07-.66,14,14,0,0,0,2.09-1.21c2.08-1.62,3.29-3.7,4.64-6l6.81-10.32c.45-.76,2.58-4.63,3.08-5.18a27.35,27.35,0,0,0,3.51-5.4Z" transform="translate(-296.68 -86.02)"/>
    <path class="orbit cls-1" d="M514.16,99.7a50.92,50.92,0,0,0-7.61.6,63,63,0,0,0-10.38,3,8,8,0,0,0-2.53,1.27c-.78.65-1.28,1.58-2.06,2.23a16.27,16.27,0,0,1-1.77,1.15,7.92,7.92,0,0,0-3.37,5.66c-.25,2.08,0,4.71-1.81,5.72a9,9,0,0,0-.93.47,2.62,2.62,0,0,0-.9,2.21c0,2.35,1.4,4.43,2.56,6.47a88,88,0,0,1,4.64,9.94l3.71,8.91a21,21,0,0,0,3.83,6.69c2.49,2.56,4.55,3.48,8,2.63a29.79,29.79,0,0,0,6.5-3,99,99,0,0,0,18.88-15.58,31.52,31.52,0,0,0,3.41-4c2.95-4.35,3.5-9.85,3.84-15.09.25-3.81.39-7.85-1.39-11.24a14.13,14.13,0,0,0-7.9-7,31,31,0,0,0-6.72-.77C519.45,100,516.89,99.64,514.16,99.7Z" transform="translate(-296.68 -86.02)"/>
    <path class="cls-1" d="M429.29,134a13.94,13.94,0,0,0,2.18-3.45c.52-1.57.44-3.63-1-4.49a4.35,4.35,0,0,0-1.92-.47,49.73,49.73,0,0,0-6.9-.22c-.77,0-2.66.07-3.41.22a23.54,23.54,0,0,0-3,.88,212.65,212.65,0,0,1-24.56,6.94,33,33,0,0,0-5,2c-2.7,1.36-3.79,2.66-6.4,4.2a9.46,9.46,0,0,0-3.14,2.14,4,4,0,0,0,.67,5.2c1.71,1.34,4.18,1.93,6,2.44,4.26,1.2,7.74,1.17,12.16,1.49a28.14,28.14,0,0,0,4.68.05,26.77,26.77,0,0,0,6.95-1.86C415.67,145.62,423.71,142,429.29,134Z" transform="translate(-296.68 -86.02)"/>
    <path class="cls-1" d="M441.74,136.58a23.37,23.37,0,0,0-3.77,3.17c-.87,1-2.77,2.2-3.64,3.19a52.64,52.64,0,0,1-4.4,4.18,9,9,0,0,0-.77,11.89,21.64,21.64,0,0,0,2.86,2.53,6.52,6.52,0,0,0,3.19,1.1c8.69,1.75,14.84.86,23.7.61,2.92-.08,5.7-.16,10.76-.72,4.48-.48,9.84-1.24,13.43-4,2.55-1.93,4.71-3.87,5.07-7,.47-4.28-3-9-3.85-13.24-.32-1.64-.1-2.61-1.11-3.94a42.83,42.83,0,0,0-3-3.85c-1.44-1.41-1.53-2.9-2.86-4.41-3.3-3.7-8.78-3.57-13.05-2.3a56.55,56.55,0,0,0-14.83,7.35C446.86,132.87,444.3,134.72,441.74,136.58Z" transform="translate(-296.68 -86.02)"/>
  </g>
</svg>
