<svg xmlns="http://www.w3.org/2000/svg" viewBox="0 0 200.91 166.94">
	<title>Arsinoitherium zitteli</title>
	<metadata>
		<phyloxml xmlns:xsi="http://www.w3.org/2001/XMLSchema-instance" xmlns="http://www.phyloxml.org" xsi:schemaLocation="http://www.phyloxml.org http://www.phyloxml.org/1.10/phyloxml.xsd">
			<phylogeny rooted="true" rerootable="false">
				<clade>
					<name>Animalia</name>
					<clade>
						<name>Chordata</name>
						<clade>
							<name>Mammalia</name>
							<clade>
								<name>Embrithopoda</name>
								<clade>
									<name>Arsinoitheriidae</name>
									<clade>
										<name>Arsinoitherium</name>
									</clade>
								</clade>
							</clade>
						</clade>
					</clade>
				</clade>
			</phylogeny>
		</phyloxml>
	</metadata>
	<g class="outline">
		<path d="M113.3,479.61a2.15,2.15,0,0,1,1.18.65l3,1.92c10.91,7.26,20.88,13.33,33.42,18.32,8.41,3.35,17,6.87,25.26,10.4,7.31,3.11,14.83,4.81,22.31,6.89,9.44,2.63,19.37,4.19,29.15,6.28,3.76.81,8.54,2.27,12,2.28h0c3.34,0,3.24-3.94,3.91-6.93.09-.5.33-.71.65-.71,1,0,2.84,2,3.83,3.09.9-1.56,3.19-5.42,5.37-5.42a1.87,1.87,0,0,1,1.09.36c3.76,2.69,1.51,7.38,4.25,9.62a6.28,6.28,0,0,0,3.65,1.13,4.46,4.46,0,0,0,1-.1c2.09-.49,6.09-1.55,7.68-2.62,3.14-2.11,2.68-2.44,6.11-4a28.82,28.82,0,0,1,12.47-2.51c2,0,4.1.13,6.26.33,4,.38,7.6.95,10.53,3.47,2.61,2.26,2.67,3.85,2.68,7.43,0,3.16-1,6-1,9,0,.82.68,2,.64,3.22a20,20,0,0,1-.76,4.13c-3,.75-1.57,3.23-1.26,5.12.35,2.19.36,4.66.61,7.07.37,3.64.61,4.07-1.77,6.34-2.94,2.83-2.7,5.91-5.68,7.13-1.88,1-2.51,1.58-4.45,1.58l-.61,0a5.51,5.51,0,0,1-.81-3,5.36,5.36,0,0,0-1-.1c-2,0-2.8,1.41-4.56,2.48-.87.54-.19,1.5-1.22,1.5a2.81,2.81,0,0,1-.57-.07c-.86-.16-2.2-2.23-3.19-2.69-1.34,6,3.7,7.15,4.72,11.69,2.88.35,2.38,2.36,3.77,3.81s4.81.26,6.25,3.29c.51,3.5-.93,7.31-.31,10.85.52,2.91,1.23,3.38,1.22,6.8,0,8.17-3.22,13.86-9.42,19.2-2.84,2.45-5,4.49-8.38,5.33s-5.81.71-9.16,1.39c-6.81,1.4-11.92,2.53-19.11,3.83-9.82,1.79-18.89,3.34-28.79,3.34-1.41,0-2.84,0-4.29-.1-1.65-.07-4.11-.2-6.31-.2-1.06,0-2.06,0-2.88.11-2.54.23-4.62,1.78-7.13,2-.3,0-.68,0-1.13,0-3.92,0-13-1.07-13.6-3.75a4.41,4.41,0,0,1-2.62-1.51c-1.26-1.46-.7-1-1.43-2.41s-3.86-4-3-5.73c.55-1.11,2.86-1.61,4-1.61,1.58-1.6,6.18-3.22,7.84-4.47,1.07-.8,3.89-1.42,5.15-1.75.95-.24,1.51-.9,2.36-1.2a18.73,18.73,0,0,0,2.5-.92c.92-.46,1.71-.62,2.5-1a1.19,1.19,0,0,1,.51-.12c1.88,0,3,5.13,3.45,5.74h.07a3.34,3.34,0,0,0,1.25-.45c.44-.22-2.3-4.67-1.32-5.4a4,4,0,0,1,2.5-1l.59,0a1.33,1.33,0,0,0,.6-.13,2.61,2.61,0,0,1,1.87-1.1c1.1-.06,1.51-.45,3-.94a3.31,3.31,0,0,1,1-.17,1.78,1.78,0,0,1,1.46.64,7.33,7.33,0,0,1,3.36-1.25,2.81,2.81,0,0,1,.5,0,3.23,3.23,0,0,0,.53,0c1.37,0,2.22-.9,3.57-1.39a9.74,9.74,0,0,0,2.31-2,4.38,4.38,0,0,1-2.64-2.59c-.55.66-2.48,2.55-2.89,3a.51.51,0,0,1-.37.13c-.75,0-2.15-.94-3.29-1.46a2.54,2.54,0,0,1-1.22-1.48c-.89,2.39-.86,3.1-1.76,3.35a4.4,4.4,0,0,1-1.27.19,6,6,0,0,1-2.36-.63c-.55.06-.11-.05-1.49.94a2.82,2.82,0,0,1-1.67.54,3.75,3.75,0,0,1-1.79-.49c-.72,2.32-3.64,2.22-6.77,3.28a20.5,20.5,0,0,0-2.28.58c-.68.36-.9.88-1.66,1.21a33.9,33.9,0,0,1-4.92,1.52c-2.84.64-5,.45-5.81,1.34-1.07,2.06-6,3.75-8.05,4.77a8.76,8.76,0,0,1-3.32,1.19c-1.07,0-1.93-.72-2.68-2.85-.43-1.22,0-3.11-.69-4.12-.52-.82-2.84-1.9-3.66-2.52-3.63-2.75-2.37-3.74-2.37-8.55A35.83,35.83,0,0,1,170,598.6a70.37,70.37,0,0,0,1.92-8.55c.59-3.66-1.94-6.71-1.76-9.95.16-2.76,2.19-5.36,2.81-8,1.69-7.19.91-10.62-5.83-13.79-4.5-2.11-20.66-14.79-23.85-18.05a186.68,186.68,0,0,1-17.45-20.6c-2.68-3.67-4-5.9-6.29-9.6a44.8,44.8,0,0,1-4.71-9.95,14.11,14.11,0,0,1-1-5.76c3-.87-2.26-9.95-1.51-13,.28-1.2.56-1.75,1-1.75m0-2h0c-2.2,0-2.76,2.39-3,3.29-.45,1.83.33,4.28,1.22,7.11a24.81,24.81,0,0,1,1.17,4.62l-.75.22-.16,1.31a15.42,15.42,0,0,0,1.14,6.64,45.62,45.62,0,0,0,4.9,10.35l.51.84c2,3.28,3.34,5.45,5.86,8.9a188.69,188.69,0,0,0,17.64,20.81c3.21,3.29,19.59,16.2,24.43,18.47,5.45,2.56,6.33,4.72,4.73,11.52a16.26,16.26,0,0,1-1.15,2.9,15.07,15.07,0,0,0-1.7,5.4,13.57,13.57,0,0,0,1,5.12,9.85,9.85,0,0,1,.79,4.62,66.92,66.92,0,0,1-1.87,8.34,38.16,38.16,0,0,0-1.64,10c0,1.05-.07,1.92-.13,2.68-.22,3-.18,4.83,3.29,7.46a15.33,15.33,0,0,0,1.46.92,14.28,14.28,0,0,1,1.74,1.11,7.67,7.67,0,0,1,.11,1.24,8.9,8.9,0,0,0,.36,2.44c.37,1,1.47,4.19,4.57,4.19a7.17,7.17,0,0,0,3-.81,3.55,3.55,0,0,0-.75,1c-1.14,2.33.77,4.66,2.17,6.36a10.63,10.63,0,0,1,.9,1.18,4.62,4.62,0,0,1,.32.71,5.8,5.8,0,0,0,1.37,2.08,6.31,6.31,0,0,0,2.76,1.9c2.95,4,14.84,4,15,4a12.23,12.23,0,0,0,1.31,0,15,15,0,0,0,4.08-1.12,11.69,11.69,0,0,1,3.06-.89c.69-.07,1.59-.1,2.69-.1,2,0,4.17.1,5.77.18l.44,0c1.45.07,2.93.1,4.39.1,9.84,0,18.65-1.46,29.15-3.37,5.45-1,9.8-1.9,14.4-2.85l4.75-1c1.44-.29,2.69-.43,4-.57a38.78,38.78,0,0,0,5.23-.84c3.59-.88,5.86-2.85,8.49-5.13l.71-.62c7-6,10.12-12.41,10.12-20.71a14.89,14.89,0,0,0-.7-4.9,19.29,19.29,0,0,1-.55-2.26,17.5,17.5,0,0,1,.15-5,22.14,22.14,0,0,0,.17-5.76l-.05-.3-.13-.27c-1.29-2.74-3.66-3.16-5.22-3.44a3.91,3.91,0,0,1-1.39-.39,3.63,3.63,0,0,1-.59-1,5.07,5.07,0,0,0-3-3.08,14.22,14.22,0,0,0-2.48-3.88c-.44-.54-.84-1-1.16-1.5l.17,0a5.69,5.69,0,0,0,.94.1,2.55,2.55,0,0,0,2.59-2,15.74,15.74,0,0,0,1.35-1,7.14,7.14,0,0,1,1.08-.79,11.07,11.07,0,0,0,.6,1.46l.15.33.5,1.1,1.21.07.72,0a8,8,0,0,0,4.37-1.27l.92-.49c2.28-1,3.21-2.74,4-4.3a11.23,11.23,0,0,1,2.21-3.2c2.79-2.68,2.81-3.88,2.44-7.3l-.07-.7c-.1-.93-.16-1.91-.22-2.85-.09-1.44-.19-2.93-.41-4.32-.08-.48-.2-.94-.32-1.39a7,7,0,0,1-.28-1.36l.37-.12,1.13-.28.31-1.13a21.07,21.07,0,0,0,.84-4.59,7.86,7.86,0,0,0-.46-2.67,6.3,6.3,0,0,1-.19-.66,23.94,23.94,0,0,1,.46-4.08,28,28,0,0,0,.52-4.89c0-3.63,0-6-3.38-8.94s-7.63-3.57-11.65-3.95c-2.54-.23-4.58-.34-6.44-.34a30.82,30.82,0,0,0-13.3,2.69,16.1,16.1,0,0,0-4.14,2.5c-.54.44-1.16.93-2.25,1.67a28.36,28.36,0,0,1-7,2.33,2.7,2.7,0,0,1-.54,0,4.35,4.35,0,0,1-2.38-.68c-.62-.5-.77-1.44-1-2.92-.27-2-.65-4.82-3.39-6.78a3.85,3.85,0,0,0-2.25-.73c-2.28,0-4.21,2-5.71,4.18-1.39-1.29-2.47-1.85-3.49-1.85a2.65,2.65,0,0,0-2.61,2.31c-.13.59-.23,1.2-.33,1.79-.51,3.05-.83,3.54-1.62,3.54a41.92,41.92,0,0,1-8.41-1.48c-1.12-.28-2.18-.53-3.2-.75-3.21-.69-6.48-1.33-9.64-2-6.45-1.26-13.11-2.56-19.39-4.31-1.59-.44-3.17-.86-4.75-1.28a129.65,129.65,0,0,1-17.31-5.52c-7.95-3.4-16.47-6.9-25.31-10.42-12-4.77-21.54-10.47-33.05-18.12l-2.89-1.87a3.77,3.77,0,0,0-2.37-1ZM221.07,612.84a3.34,3.34,0,0,0,.74-1l.6.32.29.16a8.33,8.33,0,0,0-1.48.62l-.15-.06Zm-5.79.9.45-.34.5.17a1.68,1.68,0,0,1-.64.14l-.31,0Zm-4.76,1.66a5.48,5.48,0,0,0,1-.81,6.42,6.42,0,0,0,.91.08,4.92,4.92,0,0,0,.78-.07l-.39.32h-.18a4.91,4.91,0,0,0-2.11.48Zm-2.43,1a12,12,0,0,0,1.65-.59c-.26.16-.53.35-.81.55a2.82,2.82,0,0,0-.36.33,2.92,2.92,0,0,0-.48-.29Zm-17.41,5.11a13,13,0,0,1,1.71-.28l.54-.07a4.22,4.22,0,0,0-.47.3,21.27,21.27,0,0,1-2.88,1.54l-1.24.61a8.06,8.06,0,0,0,2.34-2.1Zm-6.47,4.19c.63-.28,1.25-.56,1.83-.84a10.37,10.37,0,0,0-1,.72,6.78,6.78,0,0,0-.8.12Z" transform="translate(-110.19 -477.61)"/>
	</g>
	<g class="skull">
		<path d="M177.78,583.18l-.92-.39a2,2,0,0,1,.22-.37,1.91,1.91,0,0,0,.33-.63c-3.55-1.9-2.46-4.76-1.39-7.53a24.27,24.27,0,0,0,.82-2.4c1.27-4.79,5.31-4.78,9.7-4.32a17.4,17.4,0,0,0,3.53-.21c2.78-.33,5.94-.72,7.78,1.15,1.15,1.18,2.25,3.62,1.09,5.35s-3.28,1.29-5,1l-1.08-.18-.15,0-.11-.1a.8.8,0,0,1-.31-.72c0-.51.58-.8,1.2-1.14.8-.45,1.41-.83,1.26-1.28l0-.09v-.1a3.47,3.47,0,0,0-2-3.08c-.84,0-1.71.14-2.54.25a18.57,18.57,0,0,1-3.75.21c-5-.52-7.66-.11-8.63,3.57a25.36,25.36,0,0,1-.86,2.5c-1.2,3.15-1.74,5,1.16,6.42l.22.1,0,.24a2.06,2.06,0,0,1-.48,1.62A1.14,1.14,0,0,0,177.78,583.18Zm15.8-9.47.53.1c1.59.3,3.24.61,4-.53s-.09-3.19-1-4.1a4.2,4.2,0,0,0-2.7-1.08,4.36,4.36,0,0,1,1.29,3c.31,1.2-.94,1.89-1.77,2.35Z" transform="translate(-110.19 -477.61)"/>
		<path d="M241.58,527.51a15.09,15.09,0,0,1-4.68-.87l.32-.95c3.57,1.19,6.22,1.09,8.09-.31a11.52,11.52,0,0,0,2.54-2.6l.89.46a12.62,12.62,0,0,1-2.83,2.94A7,7,0,0,1,241.58,527.51Z" transform="translate(-110.19 -477.61)"/>
		<path d="M263.94,535c-3.22-.85-4.06-3.41-4.88-5.89a12.77,12.77,0,0,0-1.47-3.37l.81-.58a13.08,13.08,0,0,1,1.61,3.64c.77,2.32,1.49,4.52,4.19,5.23Z" transform="translate(-110.19 -477.61)"/>
		<path d="M183.66,583.76l-1-.16a6.37,6.37,0,0,1,2.39-3.48,6.14,6.14,0,0,1,1.29-.48c.82-.24,1.84-.54,2-1.09l1,.31c-.34,1-1.64,1.43-2.68,1.74a6.18,6.18,0,0,0-1.08.38A5.62,5.62,0,0,0,183.66,583.76Z" transform="translate(-110.19 -477.61)"/>
		<path d="M200.78,583l-.49-.87c1.11-.62,1-3.41,1-5.08,0-.36,0-.67,0-.94a5.86,5.86,0,0,0-1.09-3.13,7.27,7.27,0,0,1-1.1-2.59,3.31,3.31,0,0,1,.56-2.63c1-1.28,3-1.61,4.57-1.75a14.33,14.33,0,0,1,2.75.21c1.59.19,4.25.53,4.68-.15l.85.53c-.78,1.22-3.26.91-5.66.61a14.8,14.8,0,0,0-2.53-.2c-1.29.11-3.1.38-3.87,1.37a2.28,2.28,0,0,0-.36,1.85,6.44,6.44,0,0,0,1,2.24,6.75,6.75,0,0,1,1.23,3.65c0,.25,0,.56,0,.9C202.33,579,202.42,582.07,200.78,583Z" transform="translate(-110.19 -477.61)"/>
		<path d="M212.55,580.16l-1-.12a6.34,6.34,0,0,0-.19-1.68,6.5,6.5,0,0,1-.16-2.78,3.57,3.57,0,0,1,1.32-1.91,2.7,2.7,0,0,0,.87-1l.11-.28.29,0a4.52,4.52,0,0,0,1.38-.5,4.08,4.08,0,0,1,2.56-.57,9.93,9.93,0,0,1,3,1.66l.42.3c1.26.86,1.34,1,1.52,2.48.08.6.3,2.41-.9,3.27l-.58-.82c.48-.34.64-1.1.49-2.32s-.14-1.13-1-1.74l-.5-.35a9.85,9.85,0,0,0-2.6-1.49,3.09,3.09,0,0,0-1.95.48,6.27,6.27,0,0,1-1.39.54,4.18,4.18,0,0,1-1,1.19,2.61,2.61,0,0,0-1,1.38,5.62,5.62,0,0,0,.17,2.35A6.76,6.76,0,0,1,212.55,580.16Z" transform="translate(-110.19 -477.61)"/>
		<path d="M231.31,586.09l-.51,0c-2.47-.22-7.37-2.26-8.06-3.58-1.06-2-.33-4.27.39-6.46.62-1.94,1.27-3.94.67-5.71l.95-.32c.71,2.09,0,4.25-.67,6.34s-1.32,4-.46,5.68c.42.79,4.72,2.82,7.27,3.06.74.07,1.11-.05,1.2-.17.67-.84-.37-2.38-1.14-3.5a11.26,11.26,0,0,1-.62-1l-.29-.54a8.59,8.59,0,0,1-1.38-4.67,17.61,17.61,0,0,1,2.15-9.5,15.34,15.34,0,0,1,1.53-2.2,13.77,13.77,0,0,0,1.56-2.31,21.22,21.22,0,0,1,4.22-5.46,15.55,15.55,0,0,0,1-1.41c1.89-2.81,3.88-5.57,5.71-5.72a1.81,1.81,0,0,1,1.49.62l-.74.68a.76.76,0,0,0-.67-.3c-1.5.12-3.75,3.47-5,5.28a15,15,0,0,1-1.07,1.48,20.18,20.18,0,0,0-4.1,5.28,14.77,14.77,0,0,1-1.68,2.48,14.89,14.89,0,0,0-1.43,2.06,16.59,16.59,0,0,0-2,9,7.74,7.74,0,0,0,1.26,4.2l.29.54a10.36,10.36,0,0,0,.57.89c.88,1.3,2.22,3.26,1.1,4.68A1.89,1.89,0,0,1,231.31,586.09Z" transform="translate(-110.19 -477.61)"/>
		<path d="M186.41,638a3.51,3.51,0,0,1,.09-2.4l.08-.15.15-.08a3.12,3.12,0,0,1,1.18-.2,3.28,3.28,0,0,0,.76-.08c.22-1.57.72-1.91,1.45-2.23l.19-.09c.66-2.16,2.35-1.79,3.17-1.61a5.55,5.55,0,0,0,.71.13h0a3.2,3.2,0,0,1,1.08-1.09,2.55,2.55,0,0,1,2.08-.33,2.4,2.4,0,0,0,1.16,0,1.21,1.21,0,0,0,.89-.87,3,3,0,0,1,.9-1.28,2.56,2.56,0,0,1,1.62-.48,2.45,2.45,0,0,0,1-.17,2.08,2.08,0,0,0,.71-.68,2.77,2.77,0,0,1,1.31-1,5.22,5.22,0,0,1,2-.2,3.44,3.44,0,0,0,2-.33,4.74,4.74,0,0,0,1.69-1.56l.38-.61.44.57a1.87,1.87,0,0,0,1.35.74,5.24,5.24,0,0,0,3.48-1.51l.21-.18.27.08a6.47,6.47,0,0,0,3.7.35,1,1,0,0,0,.46-.35,1.83,1.83,0,0,1,1.42-.69,2.68,2.68,0,0,1,1.22.29,2.93,2.93,0,0,0,.77.23,3.72,3.72,0,0,0,2.1-.57A7.56,7.56,0,0,1,228,621a7.26,7.26,0,0,1,2-.13,6.57,6.57,0,0,0,1.78-.12,4.45,4.45,0,0,0,1.08-.6,5,5,0,0,1,1.25-.68,3.45,3.45,0,0,1,1.49,0,2.53,2.53,0,0,0,.95,0,3.65,3.65,0,0,0,1.24-.72,8.45,8.45,0,0,1,.84-.58,5,5,0,0,1,1.74-.64c.19,0,.4-.08.66-.15,1.83-.47,2.35-1.13,3.6-2.74a15.53,15.53,0,0,1,2.22-2.22c.43-.37.88-.76,1.32-1.2a12.81,12.81,0,0,0,3.14-4.15,15.18,15.18,0,0,0,1-3c.19-.67.38-1.36.61-2a21.83,21.83,0,0,0,.69-5.19,33.68,33.68,0,0,1,.33-3.55l.08-.47a8.59,8.59,0,0,1,.53-2,5,5,0,0,1,.81-1.14,3.64,3.64,0,0,0,.59-.78l.08-.15.15-.07a52.38,52.38,0,0,0,14.66-10.87l.71-.71c1.47-1.47,4.21-4.21,5.11-5.29A60.16,60.16,0,0,0,282,564c.36-.75,2.62-2.68,3.52-2.73a.62.62,0,0,1,.6.29,1.14,1.14,0,0,1-.18,1.16c-.29.51-.74,1.34-.83,1.56a10.33,10.33,0,0,0-.36,1.11,12.79,12.79,0,0,1-.43,1.33c-1.56,3.9-1.72,6.19-.7,9.8s2.32,8.23,3.08,12.12c.08.44.17.88.26,1.32a48.44,48.44,0,0,1,.88,5.28c.05.62.14,1.28.23,2a22.7,22.7,0,0,1,.29,4.75l-1-.08a23.15,23.15,0,0,0-.29-4.55c-.09-.69-.18-1.37-.24-2a44.93,44.93,0,0,0-.86-5.17c-.09-.45-.18-.89-.26-1.32-.76-3.86-2.09-8.59-3.07-12.05-1.07-3.81-.89-6.35.74-10.45.16-.4.28-.82.4-1.22a10.89,10.89,0,0,1,.4-1.22c.09-.24.41-.81.63-1.22a7.68,7.68,0,0,0-1.92,1.75,59.3,59.3,0,0,1-5.47,8c-.93,1.12-3.59,3.77-5.17,5.36l-.71.7a53.55,53.55,0,0,1-14.8,11,5.51,5.51,0,0,1-.64.83,3.57,3.57,0,0,0-.65.89A7.19,7.19,0,0,0,255,593l-.08.48a28.5,28.5,0,0,0-.32,3.43,22.94,22.94,0,0,1-.74,5.45c-.23.65-.41,1.33-.59,2a17.11,17.11,0,0,1-1.1,3.16,14.07,14.07,0,0,1-3.33,4.4c-.46.45-.92.85-1.37,1.24a14.86,14.86,0,0,0-2.07,2c-1.29,1.66-2,2.57-4.16,3.12l-.7.16a4.14,4.14,0,0,0-1.44.52,8.72,8.72,0,0,0-.73.51,4.42,4.42,0,0,1-1.62.91,3.61,3.61,0,0,1-1.31,0,2.51,2.51,0,0,0-1.09,0,4.5,4.5,0,0,0-1,.54,4.83,4.83,0,0,1-1.39.74,7.55,7.55,0,0,1-2.05.15,6.79,6.79,0,0,0-1.75.1,7,7,0,0,0-1.36.56,4.51,4.51,0,0,1-2.65.68,3.5,3.5,0,0,1-1.05-.31,2.17,2.17,0,0,0-.79-.21.84.84,0,0,0-.73.37,2,2,0,0,1-.88.62,7.3,7.3,0,0,1-4-.27,6.07,6.07,0,0,1-4,1.58,2.8,2.8,0,0,1-1.6-.66,6,6,0,0,1-1.67,1.38,4.37,4.37,0,0,1-2.55.47,4.38,4.38,0,0,0-1.65.15,1.81,1.81,0,0,0-.84.72,3.21,3.21,0,0,1-1.06,1,3.25,3.25,0,0,1-1.35.27,1.64,1.64,0,0,0-1,.26,2,2,0,0,0-.61.9,2.17,2.17,0,0,1-1.52,1.43,3.43,3.43,0,0,1-1.62,0,1.58,1.58,0,0,0-1.35.17,2.23,2.23,0,0,0-.78.78c-.4.64-.83.55-1.79.34s-1.7-.27-2.05,1.1l-.05.21-.19.1a4.6,4.6,0,0,1-.45.22c-.5.22-.74.33-.9,1.67l0,.17-.13.13a2.22,2.22,0,0,1-1.53.43,5.37,5.37,0,0,0-.62,0,2.91,2.91,0,0,0,0,1.3Z" transform="translate(-110.19 -477.61)"/>
		<path d="M258.08,572.1a1,1,0,0,1-.51-.14,1.79,1.79,0,0,1-.86-1.35c-.41-2.85,3.8-8.79,4.4-9.44a17.09,17.09,0,0,0,1.22-1.5,11.78,11.78,0,0,1,2-2.28l.6.8a11.09,11.09,0,0,0-1.83,2.08,19.75,19.75,0,0,1-1.29,1.59c-.71.75-4.47,6.33-4.14,8.6a.81.81,0,0,0,.38.64c.21,0,1-.49,1.29-.72a5.13,5.13,0,0,1,.85-.52,9.11,9.11,0,0,1,2-.5c.35-.06.71-.13,1.07-.22,2.37-.59,4.34-1,6.82-1.4,2-.31,2.7-1.2,3.63-3a19.43,19.43,0,0,1,4-5.63l.52-.53c2.12-2.13,5.65-5.72,8.7-5.63l0,1c-2.58-.08-5.95,3.31-8,5.34l-.53.53a18.68,18.68,0,0,0-3.84,5.37c-1,2-2,3.21-4.36,3.59s-4.4.8-6.73,1.38c-.39.1-.77.17-1.15.23a8.74,8.74,0,0,0-1.76.45,4.19,4.19,0,0,0-.64.41A3.76,3.76,0,0,1,258.08,572.1Z" transform="translate(-110.19 -477.61)"/>
		<path d="M249.23,580.21a30.1,30.1,0,0,1-6.34-.83,13.37,13.37,0,0,1-4-1.92,20.88,20.88,0,0,0-1.93-1.11,7,7,0,0,0-1.82-.5c-1.23-.22-2.62-.46-3-2.35-.71-3.63,1.41-7.14,3.12-10l.58-.95a28.57,28.57,0,0,1,3-4.14,7.7,7.7,0,0,0,.78-1.2,8,8,0,0,1,.62-1,9.35,9.35,0,0,1,1.15-1.2,6,6,0,0,0,1.43-1.7,3.81,3.81,0,0,0,.28-1,3.77,3.77,0,0,1,.44-1.43,3.2,3.2,0,0,1,1-.9,3.44,3.44,0,0,0,.72-.61,13.68,13.68,0,0,0,1.34-2.58c.23-.52.45-1,.71-1.54,1.1-2.14,3.42-2.95,5.46-3.66,1.8-.62,3.49-1.21,4.22-2.56l.07-.14.14-.07a10.09,10.09,0,0,1,1.89-.67,7.47,7.47,0,0,0,2.54-1.06,5.78,5.78,0,0,0,1.26-1.61,8.17,8.17,0,0,1,.95-1.33,28,28,0,0,1,8-5.39l1.47-.76a39.09,39.09,0,0,1,6.37-2.86,13.57,13.57,0,0,1,4.55-.23,10.84,10.84,0,0,0,4.45-.28l.35.94a11.85,11.85,0,0,1-4.87.34,12.55,12.55,0,0,0-4.19.19,38.11,38.11,0,0,0-6.2,2.79l-1.48.76c-2.63,1.34-5.61,3-7.68,5.18a7.81,7.81,0,0,0-.83,1.18,6.69,6.69,0,0,1-1.5,1.88,8.36,8.36,0,0,1-2.87,1.22,12.16,12.16,0,0,0-1.58.53c-.95,1.59-2.85,2.26-4.69,2.9s-4,1.38-4.9,3.17c-.25.48-.47,1-.68,1.48a14.87,14.87,0,0,1-1.45,2.76,3.65,3.65,0,0,1-1,.85,2.48,2.48,0,0,0-.69.6,3.27,3.27,0,0,0-.31,1.08,4.52,4.52,0,0,1-.36,1.3,7.12,7.12,0,0,1-1.65,2,8.67,8.67,0,0,0-1,1.07,7,7,0,0,0-.54.88,8.53,8.53,0,0,1-.89,1.36,27.43,27.43,0,0,0-2.95,4l-.58,1c-1.7,2.82-3.64,6-3,9.25.23,1.17.87,1.33,2.18,1.57a7.59,7.59,0,0,1,2.08.58,20,20,0,0,1,2,1.16,12.7,12.7,0,0,0,3.69,1.79c5.5,1.25,9.39,1,10.66-.61a9.6,9.6,0,0,0,1.26-3.23,15.22,15.22,0,0,1,.53-1.79l1-2.74c.45-1.16.9-2.34,1.3-3.44a20.92,20.92,0,0,1,9-11,66.09,66.09,0,0,1,9.25-4.17c1.09-.39,2.25-.73,3.36-1.06a29,29,0,0,0,6.54-2.52,20.21,20.21,0,0,0,6.05-5.53c1.51-2.09,1.51-4.33,1.51-6.7h1c0,2.54,0,4.93-1.7,7.28a21.08,21.08,0,0,1-6.35,5.81,29.66,29.66,0,0,1-6.76,2.61c-1.11.33-2.25.67-3.31,1.05a65.22,65.22,0,0,0-9.11,4.1,19.93,19.93,0,0,0-8.53,10.49c-.41,1.11-.86,2.29-1.3,3.45-.36,1-.72,1.88-1,2.74-.19.49-.34,1.08-.51,1.7a10,10,0,0,1-1.43,3.58C253.52,579.74,251.51,580.21,249.23,580.21Z" transform="translate(-110.19 -477.61)"/>
		<path d="M237.58,583.73c-1.84-.5-3.25-2.79-4.38-4.63-.22-.36-.43-.7-.62-1l.84-.55.64,1c1,1.6,2.32,3.79,3.78,4.18Z" transform="translate(-110.19 -477.61)"/>
		<path d="M288.51,573l-1-.26a7,7,0,0,0-.32-4.12,7.47,7.47,0,0,1-.43-2.12,4.85,4.85,0,0,1,3.26-4.9,7,7,0,0,1,6.27,1,5.58,5.58,0,0,1,2.09,4.76l0,.17c-.25.58-.94.74-1.75.93-1.43.33-2.28.62-2,1.93l-1,.18c-.43-2.34,1.59-2.81,2.8-3.09a3.91,3.91,0,0,0,1-.31,4.56,4.56,0,0,0-1.71-3.78,6,6,0,0,0-5.37-.83,3.82,3.82,0,0,0-2.54,3.94,7,7,0,0,0,.38,1.83A8,8,0,0,1,288.51,573Z" transform="translate(-110.19 -477.61)"/>
		<path d="M201.71,588.09l-1-.27a10.09,10.09,0,0,1,.82-1.9,7.93,7.93,0,0,0,.63-1.4,7.42,7.42,0,0,0,.2-1.31c.1-1.15.21-2.44,1.87-3a7.6,7.6,0,0,1,1.71-2.85,12,12,0,0,0,1.23-1.72,6.66,6.66,0,0,0,.46-1.3,5.07,5.07,0,0,1,.77-1.82,6.82,6.82,0,0,1,3.11-2l.31,1a5.88,5.88,0,0,0-2.63,1.61,4.27,4.27,0,0,0-.6,1.48,6.6,6.6,0,0,1-.54,1.52,12.88,12.88,0,0,1-1.34,1.87,6.22,6.22,0,0,0-1.56,2.7l-.06.32-.31.08c-1.26.33-1.32,1-1.43,2.22a8.18,8.18,0,0,1-.23,1.49,9.16,9.16,0,0,1-.7,1.6A8.81,8.81,0,0,0,201.71,588.09Z" transform="translate(-110.19 -477.61)"/>
		<path d="M186.3,604.62l-.86-.51a6.23,6.23,0,0,1,1.48-1.61,6.89,6.89,0,0,0,1-1,2.06,2.06,0,0,0,.22-.7,2.65,2.65,0,0,1,.24-.8,7.61,7.61,0,0,1,1-1.36c.23-.27.46-.55.66-.83,1.91-2.74,3.6-5.61,5.39-8.65l.14-.23.86.51-.14.23c-1.8,3.06-3.5,5.94-5.43,8.71-.21.31-.47.61-.72.91a7.72,7.72,0,0,0-.87,1.18,2.24,2.24,0,0,0-.14.52,2.57,2.57,0,0,1-.4,1.11,7.48,7.48,0,0,1-1.16,1.16A5.51,5.51,0,0,0,186.3,604.62Z" transform="translate(-110.19 -477.61)"/>
		<path d="M200.38,642.91h-.18l0-1c1.9.06,2.95-1.46,4.16-3.24,1-1.52,2.12-3.09,3.87-3.67.86-.29,3.51-.13,4.21,1,.2.31.41.95-.37,1.77s-2,.44-3.17.09c-1-.3-2.08-.61-2.59-.11l0,0c-.38.47-.74,1-1.1,1.53C204,641,202.72,642.91,200.38,642.91Zm7.18-6.42a10.08,10.08,0,0,1,1.67.39c.89.27,1.82.54,2.16.18.13-.14.34-.4.25-.54-.34-.54-2.39-.79-3.06-.57A3.57,3.57,0,0,0,207.56,636.49Z" transform="translate(-110.19 -477.61)"/>
		<path d="M195.88,642.31a2.65,2.65,0,0,1-1.42-2.18,3.76,3.76,0,0,0-.23-.82c-.32-.69-.67-.72-1.42-.77a5.13,5.13,0,0,1-2-.48l.44-.89a4.24,4.24,0,0,0,1.65.37,2.22,2.22,0,0,1,2.25,1.35,4.47,4.47,0,0,1,.3,1.05c.15.74.26,1.17.87,1.46Z" transform="translate(-110.19 -477.61)"/>
		<path d="M293.94,615.22a91.73,91.73,0,0,0-2.61-15c-.26-1.12-.53-2.25-.78-3.39s-.58-2.31-.92-3.54c-.4-1.45-.82-3-1.12-4.42-.13-.67-.23-1.56-.34-2.51a17.18,17.18,0,0,0-.89-4.66l.9-.44a18.22,18.22,0,0,1,1,5c.1.93.2,1.8.32,2.42.29,1.44.7,2.92,1.1,4.35.33,1.19.67,2.42.93,3.59l.78,3.39a92.61,92.61,0,0,1,2.64,15.1Z" transform="translate(-110.19 -477.61)"/>
		<path d="M297.61,602.1a33.55,33.55,0,0,0-1.37-3.79c-.33-.83-.62-1.55-.77-2-.25-.82-.37-1.39-.49-1.93s-.24-1.09-.49-1.9a21.77,21.77,0,0,0-2.9-5.52l.8-.6a22.52,22.52,0,0,1,3.05,5.82,19.39,19.39,0,0,1,.52,2c.11.52.23,1.06.47,1.84.13.43.41,1.13.74,1.94a33.82,33.82,0,0,1,1.41,3.91Z" transform="translate(-110.19 -477.61)"/>
		<path d="M174.1,618.78a1.79,1.79,0,0,1-.73-.14l.42-.91c.57.25,1.88-.39,2.94-.9a9.48,9.48,0,0,1,2.44-1l.93-.13a5.54,5.54,0,0,0,2.34-.64,2.56,2.56,0,0,0,.48-.34,3.75,3.75,0,0,1,.92-.59,3.51,3.51,0,0,1,1.06-.25,3.71,3.71,0,0,0,.63-.12,3.39,3.39,0,0,0,1.39-.87,6.55,6.55,0,0,1,1-.79,20.43,20.43,0,0,1,2.24-1.21c.44-.21.87-.42,1.25-.62a13,13,0,0,1,3.77-1.12,18,18,0,0,0,2.85-.69c1-2.57,5.18-3.16,8.91-3.68,2.26-.31,4.39-.61,5.4-1.26A5.66,5.66,0,0,0,213,603a3.66,3.66,0,0,1,1.3-.9,6.1,6.1,0,0,1,1.74-.26,7.6,7.6,0,0,0,1.13-.11c.48-.09,1.1-.14,1.75-.19a10.43,10.43,0,0,0,2.6-.39,4.46,4.46,0,0,0,.92-.59,4.83,4.83,0,0,1,1.52-.88,7.69,7.69,0,0,1,2.06-.28c.34,0,.67,0,1-.07l3.41-.37,1.66-.18a1.52,1.52,0,0,1,.58-.09,1.45,1.45,0,0,0,.61-.09l.2-.07.22,0a14.2,14.2,0,0,0,5.51-1.38,3.32,3.32,0,0,0,.7-.66,3.43,3.43,0,0,1,1.54-1.15,7.11,7.11,0,0,1,2.71-.19,9,9,0,0,0,1.72,0,11,11,0,0,0,5.39-2.49c.35-.3.67-.59,1-.88.49-.46.95-.89,1.49-1.31a24.46,24.46,0,0,1,3.47-2.33l.47.88a23.36,23.36,0,0,0-3.32,2.24,18.81,18.81,0,0,0-1.43,1.25l-1,.91a12.15,12.15,0,0,1-5.92,2.72,11.08,11.08,0,0,1-1.91,0,6.14,6.14,0,0,0-2.33.14,2.42,2.42,0,0,0-1.11.86,3.87,3.87,0,0,1-.94.85,14.67,14.67,0,0,1-5.9,1.52l-.13,0a2.52,2.52,0,0,1-1,.17v0l-2.18.23-3.39.37c-.35,0-.71.06-1.07.08a6.43,6.43,0,0,0-1.8.23,4.23,4.23,0,0,0-1.23.72,4.58,4.58,0,0,1-1.15.72,10.58,10.58,0,0,1-2.9.47c-.62.05-1.2.09-1.62.17a7.82,7.82,0,0,1-1.28.13,5.45,5.45,0,0,0-1.45.2,2.76,2.76,0,0,0-1,.69,5.27,5.27,0,0,1-.79.65c-1.2.78-3.44,1.09-5.81,1.42-3.54.49-7.56,1.05-8.17,3.2l-.07.24-.23.09a17.55,17.55,0,0,1-3.24.84,11.86,11.86,0,0,0-3.49,1c-.39.21-.83.42-1.28.64a22,22,0,0,0-2.13,1.14,8,8,0,0,0-.87.7,4.41,4.41,0,0,1-1.74,1.08,4.33,4.33,0,0,1-.83.16,2.35,2.35,0,0,0-.77.17,2.93,2.93,0,0,0-.7.46,5.2,5.2,0,0,1-.62.44,6.86,6.86,0,0,1-2.7.76l-.9.12a9,9,0,0,0-2.16.87A8.07,8.07,0,0,1,174.1,618.78Z" transform="translate(-110.19 -477.61)"/>
		<path d="M173.57,571.09l-.88-.48c.79-1.44,3.18-5.82,2.25-8.12a21.78,21.78,0,0,0-3.53-4.18c-2.12-1.81-4.7-3.62-7.19-5.37l-1.5-1.06c-3.52-2.49-20.47-18.4-21.56-19.62a155,155,0,0,1-14.7-18.74c-1-1.59-2.08-3.09-3.07-4.54-3.18-4.64-5.92-8.66-7.8-13.35-.46-1.14-.85-2.46-1.22-3.72-.3-1-.58-2-.88-2.79l.94-.34c.31.85.6,1.82.9,2.84.37,1.25.75,2.54,1.19,3.64,1.83,4.59,4.55,8.56,7.7,13.16,1,1.45,2,3,3.07,4.56a154.6,154.6,0,0,0,14.62,18.61c1.05,1.18,18.05,17.12,21.38,19.48l1.5,1c2.52,1.77,5.12,3.59,7.27,5.43a21.39,21.39,0,0,1,3.8,4.56C177,564.86,174.5,569.38,173.57,571.09Z" transform="translate(-110.19 -477.61)"/>
		<path d="M209.68,532.69c-3.29-2.24-24.93-10.88-35.33-15-3.46-1.39-5.75-2.3-6.31-2.56-1-.44-3.49-1.48-6.38-2.7-5.31-2.22-12.57-5.26-15.63-6.73-3.7-1.78-8.53-4.15-13-6.68-5.69-3.23-9.78-6.76-14.52-10.84l.65-.76c4.7,4.05,8.76,7.55,14.37,10.73,4.43,2.51,9.23,4.87,12.93,6.65,3,1.46,10.28,4.5,15.57,6.71,3,1.27,5.42,2.27,6.41,2.71.54.25,3,1.21,6.28,2.54,11.23,4.48,32.13,12.84,35.51,15.13Z" transform="translate(-110.19 -477.61)"/>
		<path d="M258.83,535.77a12.19,12.19,0,0,1-3.81-9c0-1.34.09-2.79.17-4.19s.2-3,.18-4.38l1,0c0,1.39-.08,3-.18,4.46s-.17,2.82-.17,4.13a11.22,11.22,0,0,0,3.52,8.35Z" transform="translate(-110.19 -477.61)"/>
		<path d="M257.3,569a8.22,8.22,0,0,1-1.71-.85c-.69-.41-2.32-1.36-2.69-1.16a.38.38,0,0,0-.05.21l0,.42-.43,0c-2.06.18-5-.07-6.58-1.37a2.94,2.94,0,0,1-1.09-2.07,8.78,8.78,0,0,1,.36-2.86,12.36,12.36,0,0,0,.33-1.74,9.49,9.49,0,0,1,1.36-4.73l.55-.78a21.48,21.48,0,0,0,1.94-3.12,40.62,40.62,0,0,1,3.14-5.3,6.33,6.33,0,0,1,2.51-1.94,6.53,6.53,0,0,0,1.93-1.34,7.28,7.28,0,0,0,.62-.91,5,5,0,0,1,1.25-1.54,3.65,3.65,0,0,1,1-.48c.41-.16.65-.25.79-.49l.86.51a2.18,2.18,0,0,1-1.31.91,2.83,2.83,0,0,0-.74.36,3.88,3.88,0,0,0-1,1.24,6.86,6.86,0,0,1-.73,1.05,7,7,0,0,1-2.21,1.57,5.52,5.52,0,0,0-2.15,1.63,38.73,38.73,0,0,0-3.07,5.17,23.32,23.32,0,0,1-2,3.25l-.55.78a8.37,8.37,0,0,0-1.18,4.26,15.86,15.86,0,0,1-.36,1.87,8.13,8.13,0,0,0-.34,2.54,2,2,0,0,0,.74,1.39c1.3,1.09,3.91,1.25,5.49,1.17a1,1,0,0,1,.49-.58c.86-.46,2.29.37,3.67,1.17a8.44,8.44,0,0,0,1.43.75Z" transform="translate(-110.19 -477.61)"/>
		<path d="M300,572l-.49-.87c3.39-1.92,2.41-5.11,1.28-8.8a19.22,19.22,0,0,1-1.1-5.3c0-.16,0-.34,0-.52a3,3,0,0,1,.33-2.06,1.89,1.89,0,0,1,1.46-.61c.38,0,.51-.06.58-.18.39-.58,0-1.86-.28-2.8a9.94,9.94,0,0,1-.31-1.22c-.29-2-.62-4.18.49-5.6a3.65,3.65,0,0,1,2.46-1.27l0-.69c.25-4.45.35-6.11-1.48-10.38s-2.55-5.72-6-8.45l.62-.78c3.6,2.87,4.37,4.41,6.26,8.83s1.82,6.35,1.56,10.83l-.09,1.55-.43,0a2.92,2.92,0,0,0-2.19.94c-.79,1-.61,2.7-.29,4.83a9.18,9.18,0,0,0,.28,1.08c.36,1.19.8,2.68.16,3.65a1.6,1.6,0,0,1-1.34.61c-.38,0-.6.06-.77.26s-.13.9-.1,1.35c0,.21,0,.41,0,.59a18.52,18.52,0,0,0,1.06,5C302.86,565.61,304.1,569.68,300,572Z" transform="translate(-110.19 -477.61)"/>
		<path d="M234.63,596.61a3.89,3.89,0,0,1-1.18-.15l.32-1a8.25,8.25,0,0,0,2.82-.07c.49-.06.94-.12,1.28-.13l1.44,0c.84,0,1.72,0,2.37-.06l.1,1c-.7.07-1.6.07-2.47.07l-1.41,0c-.31,0-.73.07-1.19.12A16.54,16.54,0,0,1,234.63,596.61Z" transform="translate(-110.19 -477.61)"/>
		<path d="M247.28,592.47h-.08l.05-1a2.31,2.31,0,0,0,.63-.12,4.43,4.43,0,0,1,.49-.13l.83-.12a10.13,10.13,0,0,0,1.08-.18,19.92,19.92,0,0,0,2.29-.69c1-.36,2-.8,3.35-1.42l.42.91c-1.36.63-2.41,1.07-3.42,1.45a23.69,23.69,0,0,1-2.4.72,11,11,0,0,1-1.19.2q-.39,0-.78.12a2.79,2.79,0,0,0-.39.1A3,3,0,0,1,247.28,592.47Z" transform="translate(-110.19 -477.61)"/>
		<path d="M269.76,576l-.55-.84c2.75-1.8,5-5.34,6.43-7.85l.35-.62c2.26-4,5.08-8.9,10.41-9.06l0,1c-4.77.15-7.43,4.81-9.57,8.56l-.36.62C275,570.38,272.69,574.06,269.76,576Z" transform="translate(-110.19 -477.61)"/>
		<path d="M232.17,552.29c-.2-.82-1.58-1.86-2.59-2.62-.37-.28-.71-.53-1-.75-.55-.48-1.13-.94-1.71-1.4s-1.49-1.2-2.19-1.83a21,21,0,0,1-1.92-2.1c-1.31-1.57-2.66-3.19-4.42-3.68l.27-1c2.06.57,3.58,2.39,4.92,4a20.51,20.51,0,0,0,1.82,2c.68.61,1.42,1.21,2.15,1.79s1.17.94,1.73,1.42c.24.21.56.45.91.71,1.19.9,2.68,2,3,3.19Z" transform="translate(-110.19 -477.61)"/>
		<path d="M178.48,544.06c-6.39-3.35-11.38-8.39-16.22-13.27-2.57-2.59-5.23-5.28-8.08-7.69a43.57,43.57,0,0,0-6-4c-.63-.38-1.27-.76-1.89-1.15a25.75,25.75,0,0,1-4.25-3.5c-.66-.64-1.35-1.29-2.08-1.91-1-.85-2-1.73-3-2.61-1.37-1.22-2.79-2.49-4.19-3.62l.62-.78c1.43,1.15,2.86,2.42,4.24,3.66,1,.87,2,1.75,2.95,2.58.75.65,1.45,1.31,2.12,2a24.77,24.77,0,0,0,4.08,3.38c.62.39,1.25.76,1.89,1.14a44.5,44.5,0,0,1,6.07,4.09c2.89,2.45,5.56,5.15,8.15,7.76,5,5,9.73,9.8,16,13.09Z" transform="translate(-110.19 -477.61)"/>
		<path d="M190,544.78a24.76,24.76,0,0,1-5-3.14l-.72-.54c-.74-.55-1.49-1.08-2.25-1.62-1.6-1.13-3.26-2.3-4.74-3.58-1-.82-1.89-1.69-2.8-2.53-1.08-1-2.21-2-3.36-3-.85-.69-1.72-1.36-2.57-2-1.11-.84-2.25-1.71-3.34-2.66a11.81,11.81,0,0,0-1.83-1.26,11,11,0,0,1-2.38-1.76l.73-.69a10,10,0,0,0,2.17,1.6,12.35,12.35,0,0,1,2,1.36c1.06.92,2.19,1.78,3.28,2.61.86.66,1.75,1.33,2.6,2,1.18,1,2.32,2,3.41,3,.9.83,1.83,1.69,2.77,2.5,1.45,1.25,3.08,2.4,4.67,3.52l2.26,1.63.73.55a24,24,0,0,0,4.77,3Z" transform="translate(-110.19 -477.61)"/>
		<path d="M180.2,625.2a4.61,4.61,0,0,1-.35-.91,3,3,0,0,0-.32-.79,5.26,5.26,0,0,1-.56-1.11,7.09,7.09,0,0,0-.32-.69,16.53,16.53,0,0,1-1.14-3.85c-.06-.28-.11-.54-.16-.75l1-.23.17.77a15.9,15.9,0,0,0,1,3.57c.14.27.25.54.36.8a4.32,4.32,0,0,0,.46.91,3.63,3.63,0,0,1,.45,1.07,4.65,4.65,0,0,0,.28.73Z" transform="translate(-110.19 -477.61)"/>
		<path d="M183.16,623.8a30.63,30.63,0,0,1-1.9-5c-.26-.83-.51-1.64-.76-2.34l.93-.34c.27.71.52,1.53.79,2.38a29.24,29.24,0,0,0,1.82,4.84Z" transform="translate(-110.19 -477.61)"/>
		<path d="M186,622.56a22,22,0,0,0-.89-2.53,14.42,14.42,0,0,1-1.36-5.37h1a13.85,13.85,0,0,0,1.29,5,22.53,22.53,0,0,1,.93,2.64Z" transform="translate(-110.19 -477.61)"/>
		<path d="M189.38,620.8c-1.09-1-1.93-3.39-2.47-7.23l1-.14c.49,3.44,1.27,5.85,2.14,6.61Z" transform="translate(-110.19 -477.61)"/>
		<path d="M192.75,619.57a27,27,0,0,1-1.26-4.21,32,32,0,0,0-1.15-4l.92-.37a30.35,30.35,0,0,1,1.2,4.14,27.14,27.14,0,0,0,1.2,4Z" transform="translate(-110.19 -477.61)"/>
		<path d="M195.52,618.32c-.3-.9-.55-2-.81-3.06a24.66,24.66,0,0,0-1.5-4.85l.9-.44a25.17,25.17,0,0,1,1.57,5.06c.26,1.09.5,2.12.79,3Z" transform="translate(-110.19 -477.61)"/>
		<path d="M199.18,617.74h-1a25.38,25.38,0,0,0-1.67-8.24l.91-.41A26.47,26.47,0,0,1,199.18,617.74Z" transform="translate(-110.19 -477.61)"/>
		<path d="M202.68,616c-1.18-1.62-1.68-3.93-2.17-6.17-.22-1-.44-2-.71-2.89l.95-.3c.29.92.51,1.92.74,3,.47,2.13.95,4.34,2,5.8Z" transform="translate(-110.19 -477.61)"/><path d="M206.61,615c-1.35-.87-1.91-2.61-2.24-4-.16-.71-.43-1.54-.69-2.35a27,27,0,0,1-.75-2.63l1-.21c.16.74.45,1.65.73,2.53s.54,1.68.72,2.43c.28,1.24.75,2.74,1.8,3.42Z" transform="translate(-110.19 -477.61)"/>
		<path d="M210.22,613.84l-.84-.56c.51-.76-.31-3.46-.91-5.42-.28-.94-.55-1.82-.72-2.57l1-.22c.16.71.43,1.58.71,2.49C210.23,610.2,211,612.68,210.22,613.84Z" transform="translate(-110.19 -477.61)"/>
		<path d="M231.37,610.88a1.94,1.94,0,0,1-.76-.15c-1.12-.45-1.7-1.84-2.08-2.76-.07-.16-.13-.31-.18-.44a16.88,16.88,0,0,1-1.26-3.55,25.42,25.42,0,0,0-.91-3.82l.95-.33a27.09,27.09,0,0,1,1,4,15.91,15.91,0,0,0,1.18,3.32l.19.46c.32.77.8,1.93,1.53,2.22a1.28,1.28,0,0,0,1-.07c2.36-1,2.73-4.5,1.11-10.33l-.07-.23,1-.26.06.22c.66,2.38,2.69,9.62-1.67,11.52A2.68,2.68,0,0,1,231.37,610.88Z" transform="translate(-110.19 -477.61)"/>
		<path d="M194.57,631.74c-1.85-2.13-3.76-4.34-4.3-7.21l1-.19c.49,2.61,2.31,4.71,4.08,6.75Z" transform="translate(-110.19 -477.61)"/>
		<path d="M196.76,630.53l-.1-.12c-1.37-1.66-3.92-4.76-3.82-7l1,.05c-.09,1.87,2.4,4.89,3.59,6.33l.11.13Z" transform="translate(-110.19 -477.61)"/>
		<path d="M199.26,629.09a12.08,12.08,0,0,0-1.15-2.57,9.1,9.1,0,0,1-1.52-4.73l1,.06a8.52,8.52,0,0,0,1.41,4.2,12.78,12.78,0,0,1,1.24,2.79Z" transform="translate(-110.19 -477.61)"/>
		<path d="M202.2,627.75a17.94,17.94,0,0,1-1.6-3.28,14.49,14.49,0,0,0-1.47-3l.76-.65a14.47,14.47,0,0,1,1.63,3.25,17.37,17.37,0,0,0,1.48,3.07Z" transform="translate(-110.19 -477.61)"/>
		<path d="M204.09,626l-.14-.33c-.69-1.59-2-4.56-1.21-6.28l.91.4c-.57,1.33.64,4.13,1.22,5.48l.14.34Z" transform="translate(-110.19 -477.61)"/>
		<path d="M189.74,634c-1.61-.94-2.3-2.48-3-4.11a22.17,22.17,0,0,0-1.08-2.19l.86-.51a24.36,24.36,0,0,1,1.14,2.29c.69,1.54,1.29,2.88,2.63,3.65Z" transform="translate(-110.19 -477.61)"/>
		<path d="M188.58,635.65a8.73,8.73,0,0,1-3.59-3.6c-.35-.67-.8-1.51-1.15-2.12a6.27,6.27,0,0,0-.55-.8,6.41,6.41,0,0,1-.65-1l.88-.49a4.5,4.5,0,0,0,.56.83,7.26,7.26,0,0,1,.63.92c.35.62.82,1.48,1.17,2.17a7.86,7.86,0,0,0,3.21,3.19Z" transform="translate(-110.19 -477.61)"/>
		<path d="M191.05,631.82a5,5,0,0,0-1.51-2,4.18,4.18,0,0,1-1.72-4l1,.1a3.28,3.28,0,0,0,1.4,3.21,5.77,5.77,0,0,1,1.78,2.39Z" transform="translate(-110.19 -477.61)"/>
		<path d="M240.8,617.8h-1c0-1.4,0-2.41-.08-3.32a45.8,45.8,0,0,1,0-4.94,3.07,3.07,0,0,1,2.41-2.47,2.08,2.08,0,0,1,2.47,1.27l.34.7c.67,1.37,1.59,3.26,1.59,4.46h-1a13.19,13.19,0,0,0-1.49-4c-.13-.27-.25-.51-.34-.72a1.11,1.11,0,0,0-1.35-.72c-.84.19-1.63,1-1.63,1.52a47.39,47.39,0,0,0,0,4.88C240.76,615.37,240.8,616.38,240.8,617.8Z" transform="translate(-110.19 -477.61)"/>
		<path d="M238.21,608.25l-.35,0a2.28,2.28,0,0,1-1.71-1.09,8.11,8.11,0,0,1-.6-1.94,10.86,10.86,0,0,0-.29-1.12A7.14,7.14,0,0,1,235,603c0-.2-.08-.4-.14-.6a9.09,9.09,0,0,0-.95-1.8,11,11,0,0,1-.68-1.16l.9-.44c.14.29.38.67.63,1.08a9.15,9.15,0,0,1,1.06,2.05c.07.22.11.44.16.66a5.6,5.6,0,0,0,.27,1,12.73,12.73,0,0,1,.33,1.25,7.44,7.44,0,0,0,.48,1.64,1.31,1.31,0,0,0,1,.62,2,2,0,0,0,1.55-.54,2.25,2.25,0,0,0,.17-.21,1.69,1.69,0,0,1,.42-.46l.32-.21a3,3,0,0,0,.44-.29c.1-.1.08-.46.07-.75a3.63,3.63,0,0,1,0-.87,11.24,11.24,0,0,0-.52-4.37,19.54,19.54,0,0,1-.52-2.62l1-.11a20.31,20.31,0,0,0,.5,2.49,12.1,12.1,0,0,1,.54,4.78,2.81,2.81,0,0,0,0,.65,1.81,1.81,0,0,1-.39,1.53,3.52,3.52,0,0,1-.6.42,2.22,2.22,0,0,0-.25.16.63.63,0,0,0-.18.21,2.71,2.71,0,0,1-.3.37A2.94,2.94,0,0,1,238.21,608.25Z" transform="translate(-110.19 -477.61)"/><path d="M233.78,619.92a21.53,21.53,0,0,1-.84-5.33,6.39,6.39,0,0,0-.41-1.75c-.38-1.14-.82-2.43.61-3.58a3.2,3.2,0,0,1,2.31-.41,5.06,5.06,0,0,0,1.11,0,4.42,4.42,0,0,0,.55-.14,2.46,2.46,0,0,1,1.55-.12c1.93.57,2,3.17,2,4.73l-1,0c0-1.66-.15-3.46-1.28-3.79a1.49,1.49,0,0,0-1,.11,5,5,0,0,1-.69.18,6,6,0,0,1-1.34,0,2.52,2.52,0,0,0-1.62.2c-.85.68-.69,1.29-.29,2.48a7.49,7.49,0,0,1,.46,2,19.09,19.09,0,0,0,.79,5.05Z" transform="translate(-110.19 -477.61)"/>
		<path d="M228.6,621.63l-.85-.53c.39-.63,0-1.78-.27-2.8a7.6,7.6,0,0,1-.39-1.71c0-.2,0-.42-.05-.67-.11-1.09-.25-2.46.59-3.13a2.45,2.45,0,0,1,1-.42,1.54,1.54,0,0,0,.46-.16,4.15,4.15,0,0,0,.67-.59,7.82,7.82,0,0,1,.75-.67,1.46,1.46,0,0,1,1.26-.32c.8.2,1.24,1.14,1.63,2a7.85,7.85,0,0,0,.41.79L233,614a6.68,6.68,0,0,1-.5-.94c-.25-.53-.62-1.34-1-1.42-.1,0-.24,0-.41.15a7.07,7.07,0,0,0-.65.59,5.46,5.46,0,0,1-.84.72,2.3,2.3,0,0,1-.74.28,1.69,1.69,0,0,0-.59.23c-.41.33-.3,1.49-.22,2.25,0,.27.05.51.06.73a6.82,6.82,0,0,0,.35,1.46C228.81,619.23,229.23,620.62,228.6,621.63Z" transform="translate(-110.19 -477.61)"/>
		<path d="M221.69,622c-.18-.9-.34-2-.46-2.7a2.6,2.6,0,0,0-.1-.44,2.83,2.83,0,0,1-.15-1,6.87,6.87,0,0,0,0-.76,4.49,4.49,0,0,1,.32-2.44l.11-.17.21,0a4,4,0,0,0,1-.37,5.73,5.73,0,0,1,1.1-.43,2.56,2.56,0,0,1,1.81,0c.15.08.46,0,.8-.14a5.67,5.67,0,0,1,.95-.26l.32-.05.18.28c.14.22.16.55.19,1.52a8.61,8.61,0,0,0,.09,1.33.44.44,0,0,0-.11-.14l-.62.79c-.3-.24-.33-.69-.36-2,0-.2,0-.46,0-.67l-.29.1a1.93,1.93,0,0,1-1.61.07c-.06,0-.29-.1-1.07.1a5.48,5.48,0,0,0-.92.36,5.63,5.63,0,0,1-1,.4,6.45,6.45,0,0,0-.07,1.68,8.4,8.4,0,0,1,0,.84,2,2,0,0,0,.11.7,3.86,3.86,0,0,1,.13.56c.12.74.28,1.77.45,2.65Z" transform="translate(-110.19 -477.61)"/>
		<path d="M212,623.84l-1-.12a5.67,5.67,0,0,0-.61-2.17c-.56-1.37-1.19-2.93-.36-4a3.88,3.88,0,0,1,2.64-1.09,5.54,5.54,0,0,0,1.47-.36l.36-.2a2.11,2.11,0,0,1,2.15-.34,3,3,0,0,1,1.18,2.51,9.48,9.48,0,0,1-.28,2.69,11.36,11.36,0,0,0-.28,2.08h-1a11.78,11.78,0,0,1,.3-2.28,8.59,8.59,0,0,0,.26-2.4c-.12-1.24-.47-1.61-.67-1.73s-.57,0-1.17.34l-.39.22a6,6,0,0,1-1.78.46c-.82.13-1.66.26-2,.7-.5.67,0,1.89.49,3.08A5.79,5.79,0,0,1,212,623.84Z" transform="translate(-110.19 -477.61)"/>
		<path d="M213.74,622l-.05-1a3,3,0,0,0,1.42-.61,3.2,3.2,0,0,1,1.74-.7v1a2.42,2.42,0,0,0-1.21.54A3.9,3.9,0,0,1,213.74,622Z" transform="translate(-110.19 -477.61)"/>
		<path d="M216.6,616.93c-.37-1.39.74-1.88,1.4-2.17a3.22,3.22,0,0,0,.59-.3,1.94,1.94,0,0,1,2.18.09,3,3,0,0,1,.55.68,2.3,2.3,0,0,0,.38.48l-.64.76a3.2,3.2,0,0,1-.58-.7,2.2,2.2,0,0,0-.37-.47,1,1,0,0,0-1,0,3.14,3.14,0,0,1-.69.35c-.78.35-1,.49-.83,1Z" transform="translate(-110.19 -477.61)"/>
		<path d="M219.87,621.65a4.36,4.36,0,0,1-1.15-.14l.28-1a3.36,3.36,0,0,0,2.55-.33l.74.68A3.49,3.49,0,0,1,219.87,621.65Z" transform="translate(-110.19 -477.61)"/>
		<path d="M212.73,613.09l-.54,0a2.76,2.76,0,0,1-2.53-2.42,3.77,3.77,0,0,1,0-1.11,3.8,3.8,0,0,0,0-.75,13,13,0,0,0-1.09-3.23l.88-.47a13.61,13.61,0,0,1,1.19,3.53,3.79,3.79,0,0,1,0,1,2.65,2.65,0,0,0,0,.8c.22,1,.76,1.57,1.63,1.64a2,2,0,0,0,2-.66c.95-1.07,1.57-.88,2.58-.44l.18.07a3.2,3.2,0,0,0,2.26.17,4.22,4.22,0,0,0,.82-2.58,8.77,8.77,0,0,0-2.33-6l.77-.63a9.72,9.72,0,0,1,2.56,6.65c0,.61-.25,2.64-1.24,3.33s-2.56.23-3.24-.06l-.17-.08c-.87-.37-.92-.39-1.44.19A2.74,2.74,0,0,1,212.73,613.09Z" transform="translate(-110.19 -477.61)"/>
		<path d="M225.55,611.63a4.9,4.9,0,0,1-2.32-1c-.22-.14-.43-.27-.6-.36-1.26-.64-1.74-1-1.74-2.62,0-.41,0-.87,0-1.35a14.38,14.38,0,0,0-.29-4.48l1-.31a14.92,14.92,0,0,1,.33,4.82c0,.47,0,.92,0,1.33,0,1.12.18,1.21,1.2,1.72.19.1.42.25.67.41.59.37,1.48.94,1.94.79a4.32,4.32,0,0,0,.76-.84l.39-.47.11-.1a2.17,2.17,0,0,0,.84-1.55,4.66,4.66,0,0,0-.26-1.15,7.26,7.26,0,0,1-.26-1,7.87,7.87,0,0,1-.07-.94,3.08,3.08,0,0,0-.26-1.44,20.76,20.76,0,0,1-1.31-3.14l1-.29a19.71,19.71,0,0,0,1.24,3,4,4,0,0,1,.37,1.87,7.72,7.72,0,0,0,.06.82,5.75,5.75,0,0,0,.23.88,5.37,5.37,0,0,1,.3,1.42,3.07,3.07,0,0,1-1.12,2.26l-.1.1-.33.4c-.48.61-.85,1.05-1.25,1.18A1.74,1.74,0,0,1,225.55,611.63Z" transform="translate(-110.19 -477.61)"/>
		<path d="M243.77,606.12a3.17,3.17,0,0,1-1.54-.55,4.69,4.69,0,0,0-.59-.3l.35-.94a5.78,5.78,0,0,1,.74.38c.69.39,1,.54,1.43.29a2.07,2.07,0,0,0,1.07-1.46l.22-.67a14.15,14.15,0,0,1,.54-1.43,4.6,4.6,0,0,0,.49-2.73c-.06-.28-.11-.56-.16-.84a4.85,4.85,0,0,0-.75-2.22l.8-.61a5.75,5.75,0,0,1,.93,2.66l.15.8a5.63,5.63,0,0,1-.56,3.37c-.17.37-.35.9-.49,1.32l-.22.66a3,3,0,0,1-1.48,2A1.72,1.72,0,0,1,243.77,606.12Z" transform="translate(-110.19 -477.61)"/>
		<path d="M202.66,643c-3.65,0-12.87-.86-14.1-3.83a4.8,4.8,0,0,1-2.61-1.6,4.38,4.38,0,0,1-1.09-1.61,7.3,7.3,0,0,0-.4-.9,11.1,11.1,0,0,0-1.07-1.43c-1.2-1.46-2.7-3.28-2-4.75s3-1.83,4.2-1.89a21.69,21.69,0,0,1,4.62-2.68,21.55,21.55,0,0,0,3.13-1.69,16.3,16.3,0,0,1,4.78-1.69l.55-.14a4.07,4.07,0,0,0,1.16-.58,4.9,4.9,0,0,1,1.16-.61l.69-.23a10.84,10.84,0,0,0,1.74-.67,12,12,0,0,1,1.44-.58,10,10,0,0,0,1.07-.43,1.61,1.61,0,0,1,1.34,0c1.3.54,2.14,2.69,2.88,4.84.09.25.18.53.26.73A4.78,4.78,0,0,0,211,623c-.1-.29-.32-.81-.49-1.21-.76-1.76-1.54-3.59-.63-4.27a4.2,4.2,0,0,1,3.15-1.13,1.54,1.54,0,0,0,.5,0,3.24,3.24,0,0,1,2.19-1.2,4,4,0,0,0,1.56-.43c.34-.14.74-.3,1.27-.48a2.7,2.7,0,0,1,2.7.32,6,6,0,0,1,3.84-1.08,3.6,3.6,0,0,0,2.46-.66,9.61,9.61,0,0,1,1.4-.67,6.38,6.38,0,0,0,1.61-1.32,4.89,4.89,0,0,1-1.9-1.89c-.53.56-1.27,1.3-1.81,1.84l-.59.6c-.65.67-1.78.06-3.09-.64-.39-.21-.78-.42-1.14-.58a2.49,2.49,0,0,1-.91-.73l-.15.45c-.43,1.27-.65,1.91-1.57,2.18a5,5,0,0,1-3.63-.33l-.21-.09h-.09s0,0-.06.07-.42.36-1,.76a3.61,3.61,0,0,1-3.5.32c-.76,1.51-2.48,1.93-4.44,2.41-.79.19-1.6.39-2.43.67a9,9,0,0,1-1,.23,5.33,5.33,0,0,0-1.2.32,3,3,0,0,0-.64.48,3.33,3.33,0,0,1-1,.74,34.6,34.6,0,0,1-5,1.55c-1.08.24-2.05.37-2.9.48a5.37,5.37,0,0,0-2.61.67c-1,1.74-4.08,3.09-6.59,4.18-.63.27-1.21.52-1.65.74l-.1,0c-1.74.85-3.12,1.53-4.39,1-.91-.37-1.61-1.33-2.2-3a6.88,6.88,0,0,1-.28-2,4.45,4.45,0,0,0-.36-2,8.63,8.63,0,0,0-2.23-1.58,14.75,14.75,0,0,1-1.31-.81c-3-2.27-2.89-3.57-2.7-6.16.06-.79.13-1.68.13-2.79a36.56,36.56,0,0,1,1.59-9.56,69.42,69.42,0,0,0,1.9-8.5,11,11,0,0,0-.85-5.34,12.35,12.35,0,0,1-.9-4.56,13.53,13.53,0,0,1,1.56-4.84,17.35,17.35,0,0,0,1.25-3.19c1.59-6.74,1.17-10.07-5.56-13.22-4.39-2.07-20.64-14.73-24-18.16A187.87,187.87,0,0,1,125.42,520c-2.48-3.4-3.8-5.55-5.8-8.8l-.5-.83a44.45,44.45,0,0,1-4.76-10.05,14.19,14.19,0,0,1-1.07-6l0-.33.31-.09a.62.62,0,0,0,.4-.32c.53-1-.32-3.68-1.07-6.05s-1.54-4.87-1.19-6.31c.27-1.13.56-1.87,1.19-2.08s1.24.22,1.83.72l2.93,1.89c11.59,7.7,21.21,13.45,33.32,18.26,8.82,3.51,17.33,7,25.28,10.41A130.77,130.77,0,0,0,193.85,516c1.57.42,3.15.84,4.72,1.28,6.34,1.76,13,3.07,19.51,4.33,3.15.62,6.42,1.26,9.61,1.94,1,.22,2.07.48,3.17.74a41.68,41.68,0,0,0,8.75,1.53h0c2.15,0,2.6-1.81,3.1-4.79.1-.6.2-1.19.33-1.75a1.2,1.2,0,0,1,.83-1.06c.59-.17,1.58,0,4,2.71,1.83-3.06,3.44-4.7,4.92-5a2.28,2.28,0,0,1,1.92.4c2.21,1.57,2.51,3.79,2.77,5.75.22,1.6.4,3,1.51,3.88a5.81,5.81,0,0,0,4.22.93c1.34-.31,5.85-1.43,7.51-2.54,1.15-.78,1.82-1.32,2.36-1.75A14.44,14.44,0,0,1,277,520.3c6-2.76,11.73-2.89,19-2.21,3.93.36,7.71.91,10.8,3.59,2.74,2.36,2.85,4.1,2.86,7.8a26.59,26.59,0,0,1-.5,4.64,25.4,25.4,0,0,0-.48,4.36,4.73,4.73,0,0,0,.26,1.08,6.6,6.6,0,0,1,.39,2.17,21.1,21.1,0,0,1-.78,4.25l-.08.28-.28.07a2,2,0,0,0-1.33.78,3.73,3.73,0,0,0,.15,2.54,10.34,10.34,0,0,1,.29,1.23c.21,1.33.3,2.72.39,4.19.06,1,.12,1.94.22,2.91l.08.7c.34,3.17.33,3.83-2,6.06a12.44,12.44,0,0,0-2.49,3.58c-.78,1.49-1.52,2.89-3.35,3.65l-1,.52a6.52,6.52,0,0,1-4.29,1.07l-.3,0-.28-.61a5.61,5.61,0,0,1-.71-2.47c-1.51-.18-2.27.44-3.28,1.27a13.48,13.48,0,0,1-1.51,1.11c-.21.13-.25.27-.31.55-.15.75-.52,1.19-1.83.94a4.55,4.55,0,0,1-1.93-1.49c-.26-.28-.55-.59-.82-.83-.41,2.9.85,4.44,2.3,6.21a11.13,11.13,0,0,1,2.47,4.18,3.49,3.49,0,0,1,2.85,2.45,4.82,4.82,0,0,0,.88,1.45,4,4,0,0,0,2.2.83c1.42.25,3.17.56,4.14,2.6l0,.14a20.58,20.58,0,0,1-.17,5.37,18.94,18.94,0,0,0-.14,5.46,22.12,22.12,0,0,0,.59,2.42,13.24,13.24,0,0,1,.64,4.47c0,7.94-2.88,13.79-9.6,19.58l-.72.63c-2.48,2.15-4.62,4-7.86,4.8a36.09,36.09,0,0,1-5,.8c-1.3.15-2.65.29-4.15.6l-4.8,1c-4.58,1-8.9,1.85-14.32,2.83-11.87,2.16-21.85,3.77-33.2,3.25l-.47,0a75.82,75.82,0,0,0-8.64-.08,13.1,13.1,0,0,0-3.46,1,13.92,13.92,0,0,1-3.68,1C203.47,643,203.1,643,202.66,643Zm-16.84-15c-1.13,0-3.12.53-3.51,1.33s.89,2.5,1.85,3.67a11.2,11.2,0,0,1,1.18,1.6,7.65,7.65,0,0,1,.46,1c.11.31.15.42.91,1.29a3.88,3.88,0,0,0,2.34,1.35l.33.07.06.32c.51,2.45,11,3.61,14.19,3.31a12.56,12.56,0,0,0,3.41-1,13.71,13.71,0,0,1,3.73-1,73.52,73.52,0,0,1,8.77.07l.48,0c11.24.52,21.17-1.08,33-3.23,5.41-1,9.73-1.88,14.3-2.83l4.79-1c1.56-.31,2.93-.46,4.25-.61a34.66,34.66,0,0,0,4.9-.78c3-.73,5-2.43,7.45-4.59l.72-.62c6.48-5.58,9.25-11.21,9.25-18.83a12.28,12.28,0,0,0-.6-4.19,20.61,20.61,0,0,1-.61-2.53,19.81,19.81,0,0,1,.12-5.75,19.53,19.53,0,0,0,.19-5c-.75-1.51-2-1.74-3.37-2a4.69,4.69,0,0,1-2.75-1.12,5.62,5.62,0,0,1-1.07-1.73,2.57,2.57,0,0,0-2.4-1.92l-.35-.05-.08-.34a9.78,9.78,0,0,0-2.36-4.1c-1.58-1.93-3.22-3.94-2.36-7.81l.13-.61.57.27a6.48,6.48,0,0,1,1.69,1.45c.46.48,1.08,1.14,1.39,1.2a1.27,1.27,0,0,0,.63,0,1.19,1.19,0,0,1,0-.2,1.65,1.65,0,0,1,.77-1.2,13.4,13.4,0,0,0,1.4-1,4.8,4.8,0,0,1,4.51-1.41l.44.08,0,.45a4.4,4.4,0,0,0,.6,2.43l0,.07a5.63,5.63,0,0,0,3.46-1c.3-.17.65-.35,1-.55,1.53-.63,2.13-1.77,2.88-3.2a13.68,13.68,0,0,1,2.69-3.85c2-2,2-2.26,1.68-5.23l-.07-.7c-.1-1-.17-2-.23-3-.09-1.45-.17-2.81-.38-4.09-.06-.36-.16-.75-.26-1.13-.29-1.09-.62-2.33-.05-3.31a2.74,2.74,0,0,1,1.66-1.16,18.81,18.81,0,0,0,.67-3.74,5.72,5.72,0,0,0-.35-1.84,5.23,5.23,0,0,1-.3-1.36,26.07,26.07,0,0,1,.49-4.54,26.26,26.26,0,0,0,.49-4.48c0-3.45,0-4.88-2.51-7.05-2.87-2.48-6.48-3-10.25-3.35-7.09-.66-12.66-.53-18.47,2.13a13.41,13.41,0,0,0-3.61,2.18c-.55.44-1.24,1-2.43,1.8-1.76,1.17-6.07,2.27-7.85,2.68a6.74,6.74,0,0,1-5.08-1.13c-1.4-1.15-1.64-2.86-1.86-4.51-.25-1.85-.5-3.75-2.36-5.08a1.34,1.34,0,0,0-1.12-.24c-.87.19-2.38,1.24-4.62,5.14l-.34.61-.47-.53c-2.71-3.09-3.46-2.93-3.48-2.92s-.09.09-.12.3c-.13.56-.23,1.14-.32,1.71-.44,2.64-.94,5.63-4.09,5.63h0a42.36,42.36,0,0,1-9-1.55c-1.09-.27-2.16-.53-3.15-.74-3.18-.68-6.44-1.32-9.59-1.94-6.49-1.26-13.21-2.58-19.58-4.35-1.57-.44-3.15-.86-4.72-1.28a129.78,129.78,0,0,1-17.65-5.63c-7.95-3.4-16.45-6.89-25.26-10.4-12.19-4.84-21.86-10.62-33.51-18.36l-3-1.92c-.74-.62-.92-.57-.92-.57s-.24.11-.54,1.37.46,3.51,1.17,5.77c.89,2.81,1.73,5.46,1,6.82a1.59,1.59,0,0,1-.68.68,14.53,14.53,0,0,0,1,5.25,44.2,44.2,0,0,0,4.67,9.85l.51.82c2,3.24,3.29,5.38,5.75,8.74A185.74,185.74,0,0,0,143.64,540c3.32,3.39,19.37,15.92,23.7,17.95,7.26,3.41,7.76,7.35,6.1,14.36a18.43,18.43,0,0,1-1.31,3.38,13.06,13.06,0,0,0-1.48,4.48,11.75,11.75,0,0,0,.86,4.19,11.86,11.86,0,0,1,.89,5.81,71.32,71.32,0,0,1-1.93,8.61,35.83,35.83,0,0,0-1.55,9.29c0,1.15-.07,2.1-.13,2.87-.19,2.5-.25,3.34,2.3,5.28a12.52,12.52,0,0,0,1.21.75,8.35,8.35,0,0,1,2.58,1.9,5.15,5.15,0,0,1,.51,2.49,6.86,6.86,0,0,0,.22,1.73c.48,1.37,1,2.16,1.64,2.41.86.36,2.05-.23,3.57-1l.1-.05c.45-.22,1-.48,1.69-.76,2.14-.93,5.38-2.33,6.14-3.79l.07-.1c.63-.7,1.73-.84,3.26-1,.83-.11,1.78-.23,2.81-.46a33.38,33.38,0,0,0,4.83-1.5,2.44,2.44,0,0,0,.77-.55,4.09,4.09,0,0,1,.85-.64,6.32,6.32,0,0,1,1.47-.41,6.32,6.32,0,0,0,.89-.2c.87-.3,1.71-.5,2.51-.7,2.24-.54,3.52-.91,3.94-2.25l.19-.61.54.33a2.83,2.83,0,0,0,2.92,0c.52-.37.77-.58.92-.7a1,1,0,0,1,.71-.31l.22,0,.44.18a4,4,0,0,0,3,.29c.39-.11.48-.31.89-1.53.14-.41.31-.91.54-1.52l.53-1.41.42,1.45a2.08,2.08,0,0,0,.93,1.17c.39.17.8.39,1.2.61a6,6,0,0,0,1.93.8l.57-.59c.7-.7,1.87-1.87,2.26-2.34l.56-.67.3.82a3.89,3.89,0,0,0,2.31,2.28l.76.22-.53.59a9.42,9.42,0,0,1-2.51,2.12,8.66,8.66,0,0,0-1.26.61,4.47,4.47,0,0,1-3.09.76,5.28,5.28,0,0,0-3.25,1l-.68.38-.26-.38s-.55-.71-1.88-.27c-.51.17-.88.32-1.2.46a5.26,5.26,0,0,1-1.9.5,2.13,2.13,0,0,0-1.46.84l-.08.14-.14.07a2,2,0,0,1-1.12.17,3.24,3.24,0,0,0-2.49.94c-.21.36.6,2.25.95,3.06.61,1.43.89,2.08.3,2.38-1.2.59-1.58.55-1.8.42l-.1-.05-.07-.1a8.07,8.07,0,0,1-.48-1.23c-.43-1.24-1.33-3.82-2.32-4.24a.65.65,0,0,0-.53,0,12.27,12.27,0,0,1-1.16.47,10.93,10.93,0,0,0-1.33.54,12.56,12.56,0,0,1-1.89.73c-.21.06-.43.13-.67.22a4.5,4.5,0,0,0-.94.5,5,5,0,0,1-1.45.71l-.56.14a16.36,16.36,0,0,0-4.42,1.52,22,22,0,0,1-3.29,1.79,19.12,19.12,0,0,0-4.49,2.63L186,628Z" transform="translate(-110.19 -477.61)"/>
	</g>
</svg>