<svg xmlns="http://www.w3.org/2000/svg" viewBox="0 0 197.91 163.94">
  <defs>
    <style>
      path {
        fill: none;
        stroke: #000;
        stroke-miterlimit: 10;
      }
    </style>
  </defs>
  <title>Arsinoitherium zitteli</title>
  <metadata>
        <phyloxml xmlns:xsi="http://www.w3.org/2001/XMLSchema-instance" xmlns="http://www.phyloxml.org" xsi:schemaLocation="http://www.phyloxml.org http://www.phyloxml.org/1.10/phyloxml.xsd">
            <phylogeny rooted="true" rerootable="false">
                <clade>
                    <name>Animalia</name>
                    <clade>
                        <name>Chordata</name>
                        <clade>
                            <name>Mammalia</name>
                            <clade>
                                <name>Embrithopoda</name>
                                <clade>
                                    <name>Arsinoitheriidae</name>
                                    <clade>
                                        <name>Arsinoitherium</name>
                                    </clade>
                                </clade>
                            </clade>
                        </clade>
                    </clade>
                </clade>
            </phylogeny>
        </phyloxml>
    </metadata>
  <g class="outline">
    <path class="cls-1" d="M117.45,482.18c10.91,7.26,20.88,13.33,33.42,18.32,8.41,3.35,17,6.87,25.26,10.4,7.31,3.11,14.83,4.81,22.31,6.89,9.44,2.63,19.37,4.19,29.15,6.28,3.76.81,8.54,2.27,12,2.28s3.25-3.94,3.92-6.93c.38-2.07,3.17.9,4.48,2.38,1.05-1.83,4-6.8,6.46-5.06,3.76,2.69,1.51,7.38,4.25,9.62a6.27,6.27,0,0,0,4.65,1c2.09-.49,6.09-1.55,7.68-2.62,3.14-2.11,2.68-2.44,6.11-4,6.13-2.81,12-2.8,18.73-2.18,4,.38,7.6.95,10.53,3.47,2.61,2.26,2.67,3.85,2.68,7.43,0,3.16-1,6-1,9,0,.82.68,2,.64,3.22a20,20,0,0,1-.76,4.13c-3,.75-1.57,3.23-1.26,5.12.35,2.19.36,4.66.61,7.07.37,3.64.61,4.07-1.77,6.34-2.94,2.83-2.7,5.91-5.68,7.13-2.07,1-2.63,1.7-5.06,1.56a5.51,5.51,0,0,1-.81-3c-2.81-.53-3.54,1.15-5.56,2.38-1,.61,0,1.78-1.79,1.43-.86-.16-2.2-2.23-3.19-2.69-1.34,6,3.7,7.15,4.72,11.69,2.88.35,2.38,2.36,3.77,3.81s4.81.26,6.25,3.29c.51,3.5-.93,7.31-.31,10.85.52,2.91,1.23,3.38,1.22,6.8,0,8.17-3.22,13.86-9.42,19.2-2.84,2.45-5,4.49-8.38,5.33s-5.81.71-9.16,1.39c-6.81,1.4-11.92,2.53-19.11,3.83-11.22,2-21.46,3.78-33.08,3.24a80.26,80.26,0,0,0-9.19-.09c-2.54.23-4.62,1.78-7.13,2-2.85.27-14.11-.72-14.73-3.71a4.41,4.41,0,0,1-2.62-1.51c-1.26-1.46-.7-1-1.43-2.41s-3.86-4-3-5.73c.55-1.11,2.86-1.61,4-1.61,1.58-1.6,6.18-3.22,7.84-4.47,1.07-.8,3.89-1.42,5.15-1.75.95-.24,1.51-.9,2.36-1.2a18.73,18.73,0,0,0,2.5-.92c.92-.46,1.71-.62,2.5-1,2.18-1,3.52,5,4,5.62,0,0,.21.12,1.32-.44.44-.22-2.3-4.67-1.32-5.4,2.25-1.68,2.81-.71,3.69-1.15a2.61,2.61,0,0,1,1.87-1.1c1.1-.06,1.51-.45,3-.94a2,2,0,0,1,2.45.47c1-.58,2.41-1.44,3.86-1.21,1.7.27,2.58-.8,4.1-1.35.39-.14.87-.76,1.42-1.22a8.21,8.21,0,0,1,1.24-.84,7,7,0,0,1-3.24-2.37c-.55.66-2.23,2.41-2.64,2.84s-2.28-.7-3.66-1.33a2.54,2.54,0,0,1-1.22-1.48c-.89,2.39-.86,3.1-1.76,3.35a4.82,4.82,0,0,1-3.63-.44c-.55.06-.11-.05-1.49.94a3.32,3.32,0,0,1-3.46,0c-.72,2.32-3.64,2.22-6.77,3.28a20.5,20.5,0,0,0-2.28.58c-.68.36-.9.88-1.66,1.21a33.9,33.9,0,0,1-4.92,1.52c-2.84.64-5,.45-5.81,1.34-1.07,2.06-6,3.75-8.05,4.77-2.81,1.38-4.6,2.32-6-1.66-.43-1.22,0-3.11-.69-4.12-.52-.82-2.84-1.9-3.66-2.52-3.63-2.75-2.37-3.74-2.37-8.55A35.83,35.83,0,0,1,170,598.6a70.37,70.37,0,0,0,1.92-8.55c.59-3.66-1.94-6.71-1.76-9.95.16-2.76,2.19-5.36,2.81-8,1.69-7.19.91-10.62-5.83-13.79-4.5-2.11-20.66-14.79-23.85-18.05a186.68,186.68,0,0,1-17.45-20.6c-2.68-3.67-4-5.9-6.29-9.6a44.8,44.8,0,0,1-4.71-9.95,14.11,14.11,0,0,1-1-5.76c3-.87-2.26-9.95-1.51-13,.47-2,.91-2.19,2.21-1.1Z" transform="translate(-111.69 -479.11)"/>
  </g>
  <g class="teeth">
    <path class="cls-1" d="M233.55,609.93c2.07-1.06.61-8.88.11-10.69a24.87,24.87,0,0,1,1.63,3,17.33,17.33,0,0,0,.44,1.68,23.65,23.65,0,0,0,.85,3,2.14,2.14,0,0,0,3.31.18c.25-.25.26-.43.54-.63s.61-.36.8-.53a1.35,1.35,0,0,0,.58-1.1c.82.32,1.68,1.22,2.62.62s1-1.1,1.4-2.1a16.5,16.5,0,0,1,.61-1.66,5.17,5.17,0,0,0,.53-3.06,6.5,6.5,0,0,0-1-3c-1.41.18-3-.29-4.33.16-1.06.35-1.35,1.29-2.15,1.76-1.68,1-3.87,1.24-5.93,1.48a2.72,2.72,0,0,1-1.24.24c-1.73.18-3.51.35-5.21.55a16.07,16.07,0,0,0-3,.33c-1,.33-1.57,1.11-2.41,1.46-1.08.44-3.28.38-4.44.61a21.41,21.41,0,0,0-2.8.35c-.81.3-1.16.94-1.86,1.39-2.88,1.88-13,.91-14.19,4.91-2.2.89-4.8.8-6.78,1.87-1,.57-2.46,1.16-3.44,1.8s-1.24,1.3-2.5,1.72c-.54.18-1.09.11-1.65.35a14.35,14.35,0,0,0-1.35.92,8.92,8.92,0,0,1-3.44.82c-1.61.26-4.37,2.41-5.67,1.82,0,0,.35.1.87.92.65,1,.26,2.9.69,4.12,1.4,4,3.19,3,6,1.66,2.08-1,7-2.71,8.05-4.77.81-.89,3-.7,5.81-1.34a33.9,33.9,0,0,0,4.92-1.52c.76-.33,1-.85,1.66-1.21a20.5,20.5,0,0,1,2.28-.58c3.13-1.06,6-1,6.77-3.28a3.32,3.32,0,0,0,3.46,0c1.38-1,.94-.88,1.49-.94a4.82,4.82,0,0,0,3.63.44c.9-.25.87-1,1.76-3.35a2.54,2.54,0,0,0,1.22,1.48c1.38.63,3.13,1.87,3.66,1.33s2.05-2.24,2.6-2.9a5.8,5.8,0,0,0,3.49,2.43,11,11,0,0,0-1.6,1c-.5.39-.82,1-1.27,1.1-1.59.31-2.4,1.62-4.1,1.35-1.45-.23-2.81.63-3.86,1.21a2,2,0,0,0-2.45-.47c-1.46.49-1.87.88-3,.94a2.61,2.61,0,0,0-1.87,1.1c-.88.44-1.44-.53-3.69,1.15-1,.73,1.76,5.18,1.32,5.4-1.11.56-1.32.44-1.32.44-.44-.66-1.78-6.67-4-5.62-.79.39-1.58.55-2.5,1a18.73,18.73,0,0,1-2.5.92c-.85.3-1.41,1-2.36,1.2-1.26.33-4.08,1-5.15,1.75-1.66,1.25-6.26,2.87-7.84,4.47-1.1,0-3.41.5-4,1.61-.82,1.68,2.33,4.37,3,5.73a9.87,9.87,0,0,0,1.95,2.91,3,3,0,0,1,.1-1.93c.6-.29,1.72,0,2.19-.44.22-2,.81-1.82,1.59-2.26.47-1.82,1.57-1.7,2.65-1.47,1.74.38.65,0,2.18-1,1.13-.76,1.9.1,3.1-.26,1.41-.42.94-1.41,2-2.24.73-.59,1.66-.18,2.49-.59s1-1.38,2-1.71c1.43-.49,2.69.25,4.11-.57a5.21,5.21,0,0,0,1.87-1.73c1.49,1.91,4.14.56,5.56-.69a7.59,7.59,0,0,0,4,.34c.79-.26.67-.95,1.74-1,.65,0,1.21.45,1.92.52,1.51.16,2.44-.88,3.84-1.22s2.53.07,3.8-.25c.71-.18,1.69-1.11,2.34-1.29.92-.25,1.57.17,2.43,0a9.56,9.56,0,0,0,2.21-1.36,6.86,6.86,0,0,1,2.27-.73c2-.52,2.61-1.3,3.89-2.95,1-1.28.81-.91,1-1.36,0-1.31-1.34-3.78-1.88-5-1.06-2.27-3.93-.33-3.93,1-.2,3.63.21,4.52.21,8.15,0-1.74-.44-8.21-1.94-8.65-.7-.21-1.21.16-1.87.28C235.64,609.51,234.89,609.21,233.55,609.93Z" transform="translate(-111.69 -479.11)"/>
    <path class="cls-1" d="M177.84,617a20.9,20.9,0,0,0,1.25,4.47,16.82,16.82,0,0,0,.85,1.76c.32.45.41,1.21.7,1.75" transform="translate(-111.69 -479.11)"/>
    <path class="cls-1" d="M181,616.27c.8,2.18,1.56,5.3,2.64,7.29" transform="translate(-111.69 -479.11)"/>
    <path class="cls-1" d="M184.27,614.66c0,2.86,1.61,5.36,2.24,7.78" transform="translate(-111.69 -479.11)"/>
    <path class="cls-1" d="M187.4,613.5c.25,1.75.92,5.7,2.31,6.92" transform="translate(-111.69 -479.11)"/>
    <path class="cls-1" d="M190.8,611.17c1,2.41,1.46,6,2.4,8.2" transform="translate(-111.69 -479.11)"/>
    <path class="cls-1" d="M193.66,610.19c1.14,2.33,1.57,5.73,2.34,8" transform="translate(-111.69 -479.11)"/>
    <path class="cls-1" d="M197,609.29a26.26,26.26,0,0,1,1.71,8.45" transform="translate(-111.69 -479.11)"/>
    <path class="cls-1" d="M200.28,606.79c.86,2.78,1.16,6.64,2.8,8.92" transform="translate(-111.69 -479.11)"/>
    <path class="cls-1" d="M203.41,605.85c.31,1.47,1.09,3.45,1.45,5,.27,1.17.77,2.92,2,3.72" transform="translate(-111.69 -479.11)"/>
    <path class="cls-1" d="M208.24,605.18c.57,2.56,2.65,6.69,1.69,8.08" transform="translate(-111.69 -479.11)"/>
    <path class="cls-1" d="M190.76,624.44c.51,2.7,2.33,4.83,4.19,7" transform="translate(-111.69 -479.11)"/>
    <path class="cls-1" d="M193.34,623.41c-.1,2.13,2.54,5.26,3.81,6.81" transform="translate(-111.69 -479.11)"/>
    <path class="cls-1" d="M197.08,621.82c-.14,2.56,2.1,4.92,2.66,7.14" transform="translate(-111.69 -479.11)"/>
    <path class="cls-1" d="M199.51,621.16c1,1.12,2.06,4.9,3.09,6.28" transform="translate(-111.69 -479.11)"/>
    <path class="cls-1" d="M203.19,619.62c-.71,1.65.79,4.87,1.36,6.21" transform="translate(-111.69 -479.11)"/>
    <path class="cls-1" d="M186.05,627.4c1.41,2.39,1.8,4.87,3.95,6.13" transform="translate(-111.69 -479.11)"/>
    <path class="cls-1" d="M183.08,627.93c.48.86.7.9,1.19,1.75.36.62.81,1.46,1.17,2.15a8.23,8.23,0,0,0,3.39,3.39" transform="translate(-111.69 -479.11)"/>
    <path class="cls-1" d="M188.32,625.83c-.35,3.34,2.29,3.29,3.2,5.82" transform="translate(-111.69 -479.11)"/>
    <path class="cls-1" d="M222.18,621.9c-.17-.89-.34-1.93-.45-2.68a5.67,5.67,0,0,1-.25-1.35c0-.79-.2-2.34.21-2.94" transform="translate(-111.69 -479.11)"/>
    <path class="cls-1" d="M211.54,623.78c.21-1.57-2.19-4.46-1.06-6,.75-1,2.87-.75,3.94-1.3.7-.37,1.38-.92,2-.55s.85,1.41.92,2.11c.14,1.51-.56,3.17-.56,4.74" transform="translate(-111.69 -479.11)"/>
    <path class="cls-1" d="M213.71,621.47c1.26-.06,2.06-1.31,3.15-1.31" transform="translate(-111.69 -479.11)"/>
    <path class="cls-1" d="M217.09,616.8c-.36-1.34,1.08-1.42,1.79-1.93a1.45,1.45,0,0,1,1.56,0c.41.37.52.81.94,1.17" transform="translate(-111.69 -479.11)"/>
    <path class="cls-1" d="M218.86,621a3.75,3.75,0,0,0,3.06-.47" transform="translate(-111.69 -479.11)"/>
    <path class="cls-1" d="M209,605.32a13.41,13.41,0,0,1,1.14,3.39c.1.59-.12,1.24,0,1.83a2.27,2.27,0,0,0,2.08,2,2.5,2.5,0,0,0,2.42-.83c.8-.91,1.15-.68,2.18-.24a3.48,3.48,0,0,0,2.75.11c.73-.51,1-2.15,1-3a9.38,9.38,0,0,0-2.44-6.3" transform="translate(-111.69 -479.11)"/>
    <path class="cls-1" d="M221.11,601.69c.56,1.7.29,4.23.28,6,0,1.35.33,1.59,1.47,2.17.74.38,2.09,1.5,3,1.23.41-.13,1-1.1,1.37-1.44a2.76,2.76,0,0,0,1.08-2,18,18,0,0,0-.53-2.23,7.09,7.09,0,0,0-.38-2.54,21.05,21.05,0,0,1-1.27-3" transform="translate(-111.69 -479.11)"/>
    <path class="cls-1" d="M228.18,621.36c.77-1.25-.54-3.55-.59-4.79,0-1-.44-2.76.35-3.39.4-.32,1-.3,1.38-.54s.93-.9,1.45-1.29c1.43-1.07,2,1.46,2.59,2.33" transform="translate(-111.69 -479.11)"/>
    <path class="cls-1" d="M241.23,605.9c.43-.4.13-1.25.24-1.9.38-2.3-.82-4.94-1-7.13" transform="translate(-111.69 -479.11)"/>
    <path class="cls-1" d="M236.65,609.34c-1,.17-2.31-.05-3.1.59-1.75,1.41-.2,2.62-.11,4.63a20.06,20.06,0,0,0,.82,5.2" transform="translate(-111.69 -479.11)"/>
  </g>
  <g class="skull">
    <path class="base cranium cls-1" d="M256.42,589.07c-.37.73-1,1.11-1.38,1.9a10.38,10.38,0,0,0-.58,2.4c-.44,2.46-.23,6.44-1,8.81a39.57,39.57,0,0,1-1.66,5.06,13.4,13.4,0,0,1-3.23,4.28,35.82,35.82,0,0,0-3.48,3.34c-1.28,1.65-1.88,2.43-3.89,2.95a6.86,6.86,0,0,0-2.27.73,9.56,9.56,0,0,1-2.21,1.36c-.86.2-1.51-.22-2.43,0-.65.18-1.63,1.11-2.34,1.29-1.27.32-2.53-.06-3.8.25s-2.33,1.38-3.84,1.22c-.71-.07-1.27-.56-1.92-.52-1.07.06-.95.75-1.74,1a7.59,7.59,0,0,1-4-.34c-1.42,1.25-4.07,2.6-5.56.69a5.21,5.21,0,0,1-1.87,1.73c-1.42.82-2.68.08-4.11.57-.95.33-1.11,1.29-2,1.71s-1.76,0-2.49.59c-1,.83-.55,1.82-2,2.24-1.2.36-2-.5-3.1.26-1.53,1-.44,1.43-2.18,1-1.08-.23-2.18-.35-2.65,1.47-.78.44-1.37.28-1.59,2.26-.47.46-1.59.15-2.19.44a3,3,0,0,0-.1,1.93c.75.87,1.06.8,2.1,1,.62,3,11.88,4,14.73,3.71,2.51-.23,4.59-1.78,7.13-2a80.26,80.26,0,0,1,9.19.09c11.62.54,21.86-1.2,33.08-3.24,7.19-1.3,12.3-2.43,19.11-3.83,3.35-.68,5.8-.57,9.16-1.39s5.54-2.88,8.38-5.33c6.2-5.34,9.42-11,9.42-19.2,0-3.42-.7-3.89-1.22-6.8-.62-3.54.82-7.35.31-10.85-1.44-3-4.74-1.73-6.25-3.29s-.89-3.46-3.77-3.81c-1-4.54-6.06-5.67-4.72-11.69,1,.46,2.33,2.53,3.19,2.69,1.84.35.79-.82,1.79-1.43,2-1.23,2.75-2.91,5.56-2.38a5.51,5.51,0,0,0,.81,3c2.43.14,3-.51,5.06-1.56,3-1.22,2.74-4.3,5.68-7.13,2.38-2.27,2.14-2.7,1.77-6.34-.25-2.41-.26-4.88-.61-7.07-.31-1.89-1.78-4.37,1.26-5.12a20,20,0,0,0,.76-4.13c0-1.27-.64-2.4-.64-3.22,0-3,1-5.85,1-9,0-3.58-.07-5.17-2.68-7.43-2.93-2.52-6.53-3.09-10.53-3.47-6.69-.62-12.6-.63-18.73,2.18-3.43,1.57-3,1.9-6.11,4-1.59,1.07-5.59,2.13-7.68,2.62a6.27,6.27,0,0,1-4.65-1c-2.74-2.24-.49-6.93-4.25-9.62C252,515,249.06,520,248,521.8c-1.31-1.48-4.1-4.45-4.48-2.38-.67,3-.57,6.94-3.92,6.93s-8.26-1.47-12-2.28c-9.78-2.09-19.71-3.65-29.15-6.28-7.48-2.08-15-3.78-22.31-6.89-8.27-3.53-16.85-7-25.26-10.4-12.54-5-22.51-11.06-33.42-18.32l-3-1.92c-1.3-1.09-1.74-.87-2.21,1.1-.75,3.09,4.48,12.17,1.51,13a14.11,14.11,0,0,0,1,5.76,44.8,44.8,0,0,0,4.71,9.95c2.28,3.7,3.61,5.93,6.29,9.6a186.68,186.68,0,0,0,17.45,20.6c3.19,3.26,19.35,15.94,23.85,18.05,6.74,3.17,7.52,6.6,5.83,13.79-.62,2.59-2.65,5.19-2.81,8-.18,3.24,2.35,6.29,1.76,9.95A70.37,70.37,0,0,1,170,598.6a35.83,35.83,0,0,0-1.57,9.43c0,4.81-1.26,5.8,2.37,8.55a15.22,15.22,0,0,0,2.79,1.6c1.3.59,4.06-1.56,5.67-1.82a8.92,8.92,0,0,0,3.44-.82,14.35,14.35,0,0,1,1.35-.92c.56-.24,1.11-.17,1.65-.35,1.26-.42,1.43-1,2.5-1.72s2.39-1.23,3.44-1.8c2-1.07,4.58-1,6.78-1.87,1.15-4,11.31-3,14.19-4.91.7-.45,1.05-1.09,1.86-1.39a21.41,21.41,0,0,1,2.8-.35c1.16-.23,3.36-.17,4.44-.61.84-.35,1.4-1.13,2.41-1.46a16.07,16.07,0,0,1,3-.33c1.7-.2,3.48-.37,5.21-.55,0-.16.81,0,1.24-.24,2.06-.24,4.25-.47,5.93-1.48.8-.47,1.09-1.41,2.15-1.76,1.36-.45,2.92,0,4.33-.16a11.62,11.62,0,0,0,5.66-2.61c.88-.76,1.58-1.5,2.45-2.18A13.54,13.54,0,0,1,256.42,589.07Z" transform="translate(-111.69 -479.11)"/>
    <path class="cls-1" d="M177.32,583c.12-.28.73-.85.57-1.5-4.45-2.19-1.55-5.79-.57-9.49,1.13-4.28,4.58-4.43,9.17-4,3.08.32,8.52-1.74,11,.79,1.07,1.1,2,3.26,1,4.72-1.16,1.74-3.72.82-5.62.56-.93-.82,2.82-1.3,2.3-2.91a4,4,0,0,0-2.44-3.66" transform="translate(-111.69 -479.11)"/>
    <path class="cls-1" d="M237.06,526.17c3.14,1,6.23,1.34,8.55-.39a11.94,11.94,0,0,0,2.68-2.77" transform="translate(-111.69 -479.11)"/>
    <path class="cls-1" d="M264.07,534.55c-4.5-1.19-4-6.12-6.08-9.07" transform="translate(-111.69 -479.11)"/>
    <path class="cls-1" d="M183.17,583.68a5.92,5.92,0,0,1,2.14-3.13c.87-.51,3.15-.65,3.53-1.85" transform="translate(-111.69 -479.11)"/>
    <path class="cls-1" d="M200.53,582.55c1.63-.91,1.22-4.79,1.23-6.45,0-2.53-1.86-3.71-2.19-5.81-.46-2.9,2.15-3.58,4.68-3.8,1.8-.16,6.9,1.26,7.8-.18" transform="translate(-111.69 -479.11)"/>
    <path class="cls-1" d="M212.05,580.1c.15-1.23-.7-3-.35-4.41s1.72-1.69,2.17-2.89c1.32-.18,2.35-1.34,3.78-1.07a12.27,12.27,0,0,1,3.22,1.87c1.14.79,1.14.76,1.31,2.14.12,1,.13,2.2-.7,2.79" transform="translate(-111.69 -479.11)"/>
    <path class="cls-1" d="M224.27,570.15c1.36,4-3,8.58-1.09,12.1.7,1.32,8.16,4.41,9.31,3s-1.12-3.87-1.72-5c-1-1.87-1.61-2.81-1.61-5a17.07,17.07,0,0,1,2.09-9.26c.89-1.63,2.25-2.84,3.1-4.52a20.69,20.69,0,0,1,4.19-5.41c.94-1,5.19-8.87,7.43-6.45" transform="translate(-111.69 -479.11)"/>
    <path class="cls-1" d="M286.93,553.4c-3.06-.08-6.86,4-8.85,6a18.82,18.82,0,0,0-3.93,5.51c-1,2-1.87,3-4,3.32-2.48.4-4.45.8-6.78,1.39a21.67,21.67,0,0,0-3,.69c-.58.24-1.94,1.58-2.57,1.21-2.45-1.42,2.82-9.13,3.65-10,1-1.12,2.1-2.92,3.18-3.73" transform="translate(-111.69 -479.11)"/>
    <path class="cls-1" d="M288.86,525.12c-2.74,1-6.21-.31-9,.52a51.55,51.55,0,0,0-7.76,3.59,27.73,27.73,0,0,0-7.82,5.28c-.78.83-1.29,2.26-2.26,3-1.32,1-3.19,1.1-4.51,1.77-1.71,3.19-7.74,2.45-9.68,6.22a30.76,30.76,0,0,1-2.09,4.18c-.44.61-1.3.89-1.66,1.48s-.32,1.65-.7,2.42c-.61,1.23-1.85,1.94-2.63,3-.48.63-.81,1.49-1.42,2.21a29.59,29.59,0,0,0-3,4.07c-1.79,3-4.39,6.74-3.64,10.57.46,2.35,2.61,1.57,4.54,2.5s3.69,2.51,5.81,3c2.72.62,9.14,1.81,11.17-.79,1-1.31,1.28-3.6,1.86-5.16.7-1.89,1.59-4.17,2.33-6.18A20.41,20.41,0,0,1,267.12,556a64.62,64.62,0,0,1,9.18-4.14c3.25-1.18,7-1.83,10-3.62a20.64,20.64,0,0,0,6.21-5.67c1.55-2.15,1.6-4.34,1.6-7" transform="translate(-111.69 -479.11)"/>
    <path class="cls-1" d="M233,577.83c1.12,1.7,2.71,4.88,4.71,5.41" transform="translate(-111.69 -479.11)"/>
    <path class="cls-1" d="M288,572.87c.74-2.74-.72-4.65-.73-6.37a4.34,4.34,0,0,1,2.9-4.42c4-1.16,7.89,1.11,7.72,5.25-.41,1-4.34.26-3.82,3.15" transform="translate(-111.69 -479.11)"/>
    <path class="cls-1" d="M211.71,571a6.19,6.19,0,0,0-2.87,1.78c-.67.88-.64,2.05-1.19,3.06-.92,1.69-2.62,2.88-3,4.73-2.22.58-1.55,2.36-2,4-.28,1-1.12,2.1-1.45,3.31" transform="translate(-111.69 -479.11)"/>
    <path class="cls-1" d="M196,589.18c-1.83,3.09-3.59,6.09-5.55,8.9-.5.74-1.23,1.4-1.62,2.14-.22.41-.19,1.15-.5,1.57-.71,1-1.81,1.46-2.46,2.57" transform="translate(-111.69 -479.11)"/>
    <path class="cls-1" d="M200.22,642.41c4,.15,4.68-5.77,8.21-6.94,1-.33,5,.15,3.32,1.93-1.14,1.21-4.36-1.4-5.75,0" transform="translate(-111.69 -479.11)"/>
    <path class="cls-1" d="M191,637.61c1.71.84,2.91-.12,3.67,1.49.42.91.14,2.15,1.4,2.75" transform="translate(-111.69 -479.11)"/>
    <path class="cls-1" d="M287.73,581.53c.78,1.57.89,5.43,1.27,7.29.54,2.66,1.46,5.39,2,7.95,1.35,6.05,3,11.87,3.4,18.41" transform="translate(-111.69 -479.11)"/>
    <path class="cls-1" d="M298.1,602c-.44-1.74-1.8-4.68-2.15-5.82-.5-1.63-.47-2.21-1-3.83a21.58,21.58,0,0,0-3-5.67" transform="translate(-111.69 -479.11)"/>
    <path class="cls-1" d="M114,489c.69,1.89,1.29,4.48,2.09,6.5,2.45,6.11,6.46,11.17,10.82,17.8a154,154,0,0,0,14.67,18.68c1.19,1.34,18.13,17.19,21.47,19.55,2.82,2,6.15,4.25,8.72,6.45a21.68,21.68,0,0,1,3.67,4.37c1,2.45-1.22,6.63-2.27,8.55" transform="translate(-111.69 -479.11)"/>
    <path class="cls-1" d="M118.85,487.77c5.06,4.36,9,7.68,14.44,10.78,4.14,2.35,8.64,4.59,13,6.67,4.71,2.27,19.21,8.17,22,9.43,2.34,1.05,37.36,14.66,41.72,17.63" transform="translate(-111.69 -479.11)"/>
    <path class="cls-1" d="M255.87,518.14c0,2.62-.35,5.81-.35,8.58a11.69,11.69,0,0,0,3.66,8.7" transform="translate(-111.69 -479.11)"/>
    <path class="cls-1" d="M260.93,539.26c-.4.67-1.25.62-1.92,1.11-.86.64-1.12,1.6-1.79,2.37-1.24,1.44-3.27,1.61-4.4,3.24a40.42,40.42,0,0,0-3.11,5.24,28.55,28.55,0,0,1-2.53,4,9,9,0,0,0-1.27,4.49c-.15,1.52-.82,3-.7,4.5.25,2.88,4.85,3.19,7.14,3,.15-2,3.93,1.09,5.06,1.35" transform="translate(-111.69 -479.11)"/>
    <path class="cls-1" d="M297.32,522.85c3.49,2.79,4.23,4.25,6.11,8.64,2,4.73,1.74,6.45,1.46,11.72-3.74.32-3.39,3.27-2.93,6.35.16,1.09,1.23,3.29.51,4.37-.45.68-1.47.1-2.07.83-.4.48-.2,1.57-.2,2.26,0,5,5.11,11.4-.44,14.53" transform="translate(-111.69 -479.11)"/>
    <path class="cls-1" d="M233.61,596c1,.35,3.2-.14,4.28-.18s2.76,0,3.84-.09" transform="translate(-111.69 -479.11)"/>
    <path class="cls-1" d="M269.48,575.56c2.73-1.78,4.93-5.13,6.59-8,2.26-3.94,5-9.27,10.34-9.43" transform="translate(-111.69 -479.11)"/>
    <path class="cls-1" d="M232.65,552.17c-.31-1.31-2.69-2.75-3.7-3.63-1.27-1.09-2.67-2.11-3.9-3.22-2-1.78-3.73-5.11-6.54-5.89" transform="translate(-111.69 -479.11)"/>
    <path class="cls-1" d="M133.16,505.92c2.41,1.94,4.77,4.2,7.17,6.24,2.16,1.83,3.8,3.83,6.27,5.37a64,64,0,0,1,7.9,5.19c8.24,7,14.52,15.81,24.22,20.9" transform="translate(-111.69 -479.11)"/>
    <path class="cls-1" d="M161.44,522.33c1.14,1.22,2.89,1.85,4.17,3,1.91,1.67,3.95,3.06,5.9,4.67,2.13,1.77,4.07,3.74,6.16,5.54s4.68,3.48,7,5.18a28.79,28.79,0,0,0,5.6,3.62" transform="translate(-111.69 -479.11)"/>
    <path class="cls-1" d="M287.9,601.92a41.76,41.76,0,0,0-.53-6.63,63.59,63.59,0,0,0-1.13-6.55c-.76-3.87-2.09-8.59-3.07-12.08-1-3.68-.9-6.08.72-10.13.33-.83.49-1.71.79-2.44.12-.29.65-1.25.86-1.62,1.13-2-2.61.82-3.06,1.75a59.71,59.71,0,0,1-5.41,7.85c-1.09,1.31-4.71,4.89-5.84,6-4.24,4.25-9.34,8.45-14.81,11-1.1.51-2.52,1.2-3.67,1.63a21.15,21.15,0,0,1-2.35.7c-.65.16-1.29.19-1.94.31a5.4,5.4,0,0,1-1.23.26" transform="translate(-111.69 -479.11)"/>
  </g>
</svg>
