<?xml version="1.0" encoding="utf-8"?>
<!-- Generator: Adobe Illustrator 16.0.4, SVG Export Plug-In . SVG Version: 6.00 Build 0)  -->
<!DOCTYPE svg PUBLIC "-//W3C//DTD SVG 1.1//EN" "http://www.w3.org/Graphics/SVG/1.1/DTD/svg11.dtd">
<svg version="1.1" id="Layer_2_1_" xmlns="http://www.w3.org/2000/svg" xmlns:xlink="http://www.w3.org/1999/xlink" x="0px" y="0px"
	 width="382px" height="382px" viewBox="0 0 382 382" enable-background="new 0 0 382 382" xml:space="preserve">
<path fill="#bbb" d="M377.7,145.4c0-2.6,0.4-5.2,0.9-8c0.5-2.9,1-5.8,1-9c0-7.3-0.3-11-5.9-15.9c-6.2-5.3-13.6-6.4-21.3-7.2
	c-4.8-0.4-8.6-0.6-12.1-0.6c-9.4,0-17.2,1.6-24.6,5c-4.4,2-5.7,3.1-7.5,4.6c-1,0.8-2.2,1.8-4.4,3.2c-2.3,1.6-8.6,3.4-13.7,4.6
	c-0.4,0.1-0.8,0.1-1.3,0.1c-1.9,0-4.2-0.7-5.3-1.6c-1.5-1.3-1.9-3.2-2.3-6.3c-0.5-3.8-1.2-8.6-5.9-11.9c-1.1-0.8-2.3-1.2-3.5-1.2
	c-4.2,0-7.8,4.3-10.6,8.6c-3.6-3.7-5.5-4.2-6.8-4.2c-1.5,0-3.2,0.9-3.7,3.3c-0.2,1.1-0.4,2.2-0.6,3.3c-1,5.8-1.7,7.7-4.3,7.7
	c-4.5,0-10.4-1.4-16.2-2.8c-2.1-0.5-4.1-1-6-1.4c-6.1-1.3-12.2-2.5-18.2-3.7c-12.2-2.4-24.8-4.9-36.7-8.2c-3-0.8-6-1.6-9-2.4
	c-10.9-2.9-22.1-5.9-32.9-10.5c-15-6.4-31.1-13-47.8-19.7c-24.7-9.8-46.3-22.1-64.4-36.5l-2-1.9l-0.2-0.2c-1.4-1-2.8-1.5-4.2-1.5
	c-1.4,0-2.8,0.5-3.7,1.5c-0.8,0.8-1.7,2.3-1.6,4.7c0,3.9,1.5,9.3,3,14.6c0.7,2.6,1.7,5.8,2,7.8C7,60,6.4,60.3,6,60.9
	c-1.7,2.4,1.6,12.8,1.6,12.9c2.5,7.4,4.8,12.3,9.1,19.3l1,1.6c3.8,6.2,6.3,10.3,11,16.7C39,125.5,49.6,138,61.9,150.6
	c6,6.2,36.7,30.4,45.8,34.6c10,4.7,13,8.9,9.6,23.2c-0.4,1.8-1.3,3.7-2.3,5.7c-1.4,3.1-2.9,6.2-3.1,9.7c-0.2,3.3,0.8,6.3,1.8,9.2
	c1.1,3.2,2.1,6.2,1.5,9.3c-0.9,5.6-1.8,9.4-3.6,15.9c-1.4,5.1-3.1,11.8-3.1,18.5c0,2-0.1,3.7-0.2,5.2c-0.4,5.5-0.3,8.4,5.7,13
	c0.7,0.5,1.6,1,2.6,1.6c1.1,0.7,3.3,1.9,3.7,2.5c0.3,0.5,0.4,1.9,0.4,3c0.1,1.4,0.1,2.9,0.6,4.3c1.1,3,3,7.1,7.4,7.1
	c2.3,0,4.6-1.1,7.2-2.4l0.2-0.1c0.8-0.4,1.8-0.8,3-1.4c4.8-2.1,10.8-4.7,13-8.3c0.6-0.3,2.5-0.6,3.9-0.8c1.7-0.2,3.5-0.4,5.6-0.9
	c2.4-0.5,7.2-1.9,9.7-3c1.2-0.5,1.9-1.2,2.4-1.7c0.4-0.3,0.6-0.5,0.9-0.7c0.3-0.1,1.3-0.3,1.8-0.4c0.8-0.1,1.5-0.3,2.1-0.5
	c0.9-0.3,1.7-0.6,2.5-0.8c4.4-1.5,7.3-2.5,11.9-3.2c1.6-0.2,3.1-1.1,4.6-2c0.7-0.4,1.8-1,2.1-1.1c0.8,0,1.8,0,2.7,0
	c0.6,0,1.3,0,1.9,0c2.2,0,6.1,0,6.7-2.9c0.1-0.4,0.3-0.8,0.4-1c0.2,0.2,0.5,0.4,0.6,0.5c0.4,0.4,0.9,0.8,1.4,1.1
	c-3.2,1.1-6.1,2.2-7.8,3.5c0,0-0.1,0.1-0.4,0.1c-0.3,0-0.7-0.1-1.2-0.1c-1.2-0.2-2.7-0.3-4,0c-1.6,0.4-2.7,1.2-3.5,1.9
	c-0.7,0.5-1.3,0.9-2.1,1.2c-1.7,0.5-3.3,0.7-5.1,0.8c-2.5,0.2-5.1,0.4-7.8,1.8c-0.8,0.4-1.7,0.9-2.7,1.4c-0.9,0.5-1.8,1-2.6,1.4
	c-1.1,0.5-2,0.8-3.1,1.2c-0.4,0.1-0.9,0.3-1.3,0.4c-1,0.4-1.8,0.9-2.5,1.3c-0.7,0.4-1.2,0.7-1.8,0.9l-1,0.3c-3.9,1-7.6,2-9.6,3.5
	c-1.1,0.8-3.4,2-5.7,3c-3.2,1.6-6.5,3.2-8.7,4.9c-2.5,0.2-7.2,1.3-8.7,4.4c-1.8,3.7,1.4,7.5,3.9,10.6c0.8,0.9,1.6,1.9,1.8,2.4
	c0.4,0.8,0.6,1.2,0.7,1.5c0.4,1.1,0.7,1.7,2.3,3.5c1.4,1.6,3,2.7,5,3.3c4.4,7.3,27.3,7.5,27.5,7.5c0.9,0,1.7,0,2.4-0.1
	c2.7-0.3,5.1-1.2,7.4-2.1c2.1-0.8,4.1-1.6,6.1-1.8c1.3-0.1,3.1-0.2,5.2-0.2c3.8,0,7.9,0.2,11,0.3l0.8,0c2.7,0.1,5.5,0.2,8.2,0.2
	c18.5,0,35.1-2.8,54.9-6.3c10.3-1.9,18.5-3.6,27.2-5.4c2.9-0.6,5.8-1.2,9-1.9c2.8-0.6,5.3-0.8,7.7-1.1c3-0.3,6.1-0.7,9.7-1.6
	c6.5-1.6,10.7-5.2,15.5-9.4l1.4-1.2c12.9-11.1,18.7-22.9,18.7-38.2c0-4.5-0.6-6.6-1.3-8.9c-0.4-1.2-0.7-2.5-1.1-4.4
	c-0.5-3.1-0.1-6.4,0.3-9.9c0.4-3.5,0.8-7,0.3-10.6l-0.1-0.4l-0.2-0.3c-2.2-4.6-6.1-5.3-8.9-5.8c-1.5-0.3-2.7-0.5-3.3-1.1
	c-0.6-0.6-1-1.4-1.4-2.3c-0.8-1.9-2-4.3-5.6-5.3c-1.1-3.1-3-5.5-4.7-7.6c-1.9-2.3-3.5-4.2-4-6.9c1,1,2.1,1.9,3.3,2.1
	c0.6,0.1,1.1,0.2,1.5,0.2c1.4,0,3.2-0.5,3.7-3.2c0,0,0-0.1,0-0.1c1.1-0.7,2.1-1.5,2.9-2.1c1.6-1.3,2.4-1.9,3.8-2.1
	c0.3,1.5,0.8,2.6,1.3,3.8l0.9,2l1.5,0.1c0.3,0,0.6,0,0.9,0c0,0,0,0,0,0c4.1,0,7.2-1.7,10.2-3.3c0.6-0.3,1.2-0.7,1.9-1l0.7-0.4
	l0.4-0.8c2.2-4.6,4.8-8.2,8.2-11.8c4.8-5,4.8-6.6,4.1-13.2l-0.1-0.7c-0.2-1.8-0.3-3.6-0.4-5.4c-0.2-2.7-0.3-5.5-0.8-8
	c-0.1-0.8-0.4-1.7-0.6-2.5c-0.3-1.3-0.8-3-0.4-3.6c0.2-0.3,0.7-0.6,1.5-0.8l1.4-0.4l0.4-1.4c0.7-2.4,1.5-5.8,1.5-8.4
	c0.1-1.8-0.4-3.3-0.8-4.6C377.9,146.4,377.7,145.7,377.7,145.4z M255,113.1c0.1-0.6,0.2-1.3,0.3-1.9c0.9,0.6,2.3,1.9,4.4,4.3l0.9,1
	c-1.1,1.4-3,3.1-4.2,4c-1.8,1.3-3.4,2.1-5.3,2.4C253.7,120.6,254.4,116.4,255,113.1z M109.8,180.7c-7.8-3.7-38.3-27.4-44.3-33.6
	c-12.2-12.5-22.6-24.8-32.8-38.6c-4.6-6.3-7.1-10.3-10.8-16.4l-1-1.6c-4.1-6.7-6.3-11.3-8.7-18.3c-0.6-1.8-1.4-5.1-1.7-7.3
	c0.5-0.2,1-0.6,1.3-1c0.1-0.2,0.3-0.4,0.4-0.6c0.1,0.4,0.3,0.7,0.4,1.1c4.5,11.4,10.5,20.8,19.2,33.9c8.8,13.4,17.5,23.9,27.8,35.4
	c2.1,2.3,34.1,32.4,40.7,37.1c0.9,0.6,1.9,1.3,2.8,2c4.7,3.3,9.6,6.7,13.6,10.2c1.6,1.4,6,6.3,6.6,7.9c0.7,1.7,0.6,4,0.2,6.3
	C123.1,190.3,119.4,185.2,109.8,180.7z M126.3,304.7c-0.2-0.7-0.3-1.8-0.3-2.8c-0.1-1.8-0.2-3.8-1.2-5.4c0.9-0.4,1.9-0.8,2.9-1.3
	c0.2-0.1,0.4-0.2,0.6-0.3c0,0.2,0.1,0.3,0.1,0.5c0.5,2.3,1.2,5.5,2.2,7.3c0.2,0.4,0.4,0.9,0.6,1.3c0.3,0.7,0.6,1.4,1.1,2.1
	c0.2,0.3,0.3,0.6,0.5,1.1c-1.5,0.7-2.8,1.3-3.7,1.3C128.6,308.4,127.6,308.4,126.3,304.7z M134.4,306.3c-0.2-0.5-0.4-0.9-0.6-1.3
	c-0.4-0.5-0.6-1.1-0.9-1.7c-0.2-0.5-0.4-1-0.7-1.5c-0.8-1.5-1.5-4.5-2-6.7c-0.1-0.3-0.1-0.6-0.2-0.9c0.6-0.3,1.2-0.5,1.7-0.5
	c0.6-0.1,1.2-0.2,1.7-0.2c0.2,0,0.4-0.1,0.6-0.1c0.4,1.2,0.8,2.5,1.3,3.9c0.8,2.6,1.6,5.2,2.6,7.5c-0.2,0.1-0.4,0.2-0.7,0.3
	C136.3,305.5,135.3,305.9,134.4,306.3z M140.2,290.8c0.3,3.1,1.4,6,2.5,8.8c0.3,0.8,0.7,1.7,1,2.5c-1.2,0.7-2.6,1.3-3.8,1.8
	c-0.9-2.2-1.8-4.8-2.6-7.3c-0.4-1.3-0.8-2.5-1.2-3.7c0.8-0.2,1.6-0.5,2.5-1c0.5-0.3,0.8-0.6,1.2-0.8
	C140,291,140.1,290.9,140.2,290.8z M148.4,298.2l-0.1,0.3c-0.4,0.8-1.5,1.7-2.8,2.5c-0.3-0.7-0.6-1.5-0.9-2.2
	c-1.1-2.8-2.3-5.8-2.4-8.9c0.1,0,0.3,0,0.4-0.1c0.5-0.1,1-0.1,1.6-0.3c0.9-0.3,1.6-0.7,2.1-1c0.6,4,1.4,7.1,2.4,9.4
	c0,0-0.1,0.1-0.1,0.1L148.4,298.2z M150.4,296.7c-0.9-2.3-1.7-5.6-2.3-9.7l0,0c0.3-0.3,0.6-0.5,1.1-0.8c1.1-0.7,2.5-1.4,3.8-2.1
	c0.7,2,1.3,4.3,1.8,6.5c0.4,1.7,0.8,3.3,1.3,4.8c-0.1,0-0.2,0-0.3,0C153.6,295.8,151.8,296.1,150.4,296.7z M158,295.2
	c-0.5-1.5-0.9-3.2-1.3-5c-0.6-2.4-1.2-4.8-2-7c0.3-0.1,0.6-0.3,0.8-0.4c0.8-0.4,1.7-0.8,2.7-1c1.1,2.5,1.9,5.7,2.6,8.7
	c0.3,1.4,0.6,2.7,1,4c-0.3,0.1-0.6,0.2-0.9,0.2C159.9,294.9,158.9,295.1,158,295.2z M164.6,280.5c1.3,3.2,2.6,8.3,2.8,12.4
	c-1.1,0.4-2.4,0.8-3.6,1.1c-0.3-1.2-0.7-2.5-1-3.9c-0.7-3-1.4-6.1-2.6-8.7c0.6-0.1,1.3-0.3,1.9-0.4
	C162.9,280.8,163.8,280.6,164.6,280.5z M170.8,291.2c-0.4,0.4-0.7,0.6-1,0.8c-0.1,0.1-0.3,0.1-0.4,0.2c-0.3-3.8-1.3-8.6-2.8-12.2
	c0.6-0.2,1.2-0.4,1.7-0.6l0.5-0.2l0.1-0.5c0.3-1.1,1.1-1.9,2.2-2.6c0.5,1.9,0.8,3.7,0.9,5.4c0.3,2.7,0.6,5.3,2,7.8
	c-0.5,0.1-0.9,0.3-1.3,0.5C171.8,290.2,171.2,290.8,170.8,291.2z M177.4,288.5c-0.3,0.1-0.8,0.2-1.3,0.3c-1.6-2.3-1.8-4.7-2.1-7.5
	c-0.2-1.9-0.4-3.9-1.1-6.1l-0.7,0.2c3.1-1.5,7.8-2.1,12.1-2.7c0.5-0.1,1-0.1,1.4-0.2c0.4,1.4,0.9,2.9,1.4,4.3c1.1,3.1,2.3,6.6,1.4,8
	l0.3,0.2c-1.9,0.4-3.6,0.9-5.3,1.5c-1.6-1.2-1.9-2.4-2.4-4.3l-0.1-0.3c-0.3-1.5-0.8-2.8-1.3-4.2c-0.5-1.4-1-2.7-1.3-4.1l-2,0.4
	c0.3,1.5,0.8,2.9,1.3,4.3c0.5,1.3,0.9,2.6,1.2,3.9l0.1,0.3c0.4,1.7,0.7,3.2,2.1,4.5c-0.5,0.2-0.9,0.3-1.4,0.5
	C179,287.9,178.2,288.2,177.4,288.5z M270.9,247.5c0.9-0.8,1.7-1.6,2.7-2.4c-0.3,0.9-0.5,1.9-0.6,2.9c0,0.3-0.1,0.6-0.2,0.9
	c-0.3,1.9-0.5,4.3-0.6,6.7c-0.2,3.6-0.4,7.2-1.3,9.8c-0.4,1.3-0.8,2.6-1.1,3.8c-0.6,2.1-1.1,4.1-1.9,5.6c-2.1,3.9-2.9,4.8-5.9,7.8
	c-0.8,0.8-1.7,1.6-2.5,2.3c-0.2,0.2-0.5,0.4-0.7,0.6c-0.5-2.2-1.8-4.8-2.8-6.9c-0.2-0.5-0.5-0.9-0.6-1.3c-0.9-2-2.7-2.9-4.7-2.4
	c-2.2,0.5-4.2,2.4-4.5,4.2c-0.6-0.6-1.3-1.1-2.1-1.3c-1.2-0.3-2.1,0-3,0.2c-0.3,0.1-0.7,0.2-1,0.3c-0.6,0.1-1.3,0.1-2.1,0
	c-0.6,0-1.2-0.1-1.9,0c1.8-3.3,1.4-7.9,0.7-11.6c0.1,0.2,0.1,0.4,0.2,0.7c0.1,0.7,0.3,1.4,0.6,2.1c0.2,0.5,0.4,1.3,0.5,2.1
	c0.3,1.4,0.6,2.8,1.1,3.7c0.7,1.2,1.9,1.9,3.3,2.1c0.2,0,0.4,0,0.7,0c1.4,0,2.8-0.6,3.9-1.6c0.3-0.3,0.4-0.5,0.6-0.7
	c0.1-0.2,0.2-0.3,0.3-0.4c0.1-0.1,0.3-0.2,0.5-0.3c0.4-0.3,0.8-0.5,1.1-0.8c0.5-0.4,0.7-1,0.7-1.5c0.1,0.1,0.3,0.2,0.5,0.3
	c0.8,0.5,1.8,1,2.9,1c0.6,0,1.2-0.2,1.8-0.5c2-1.3,2.3-2.3,2.8-3.8c0.1-0.2,0.1-0.4,0.2-0.7l0.2-0.5c0.3-0.8,0.6-1.8,0.9-2.5
	c0.5-1.1,1.6-3.8,1.1-6.4c-0.1-0.5-0.2-1-0.3-1.5c-0.2-1.1-0.4-2.2-0.8-3.2c3.3-0.8,6.9-2.6,9.5-4.8
	C269.7,248.7,270.3,248.1,270.9,247.5z M190.4,306.3c-0.1-0.4-0.2-0.7-0.3-1.1c-0.9-3-1.9-6.1-3.9-8.6c1-0.3,2-0.4,3.1-0.5
	c-0.4,1.9,0.5,4.2,1.3,6.2c0.3,0.8,0.7,1.6,0.9,2.3l-0.5,0.9C190.7,305.9,190.6,306.1,190.4,306.3z M192.4,301.7
	c-0.9-2.2-1.8-4.4-1-5.7c1.6-0.1,3.2-0.4,4.9-0.9c1.6-0.5,2.7-1.3,3.6-1.9c0.3-0.2,0.5-0.4,0.7-0.5c0.3-0.1,0.6-0.1,0.8,0
	c0.2,0.1,0.4,0.3,0.7,0.8c0,0.1,0,0.1,0,0.2l0,0c0.2,0.5,0.4,1.2,0.5,2.2c0.1,0.9,0,1.9-0.2,2.9c-1.2,0.1-2.2,0.7-3.1,1.3
	c-0.9,0.6-1.7,1.1-2.7,1.2l0.1,2c1.5-0.1,2.6-0.8,3.6-1.5c0.6-0.4,1.1-0.7,1.7-0.9c-0.2,1-0.4,2.1-0.4,3.1l-0.1,0.1
	c-1.6,1.4-4.3,3-6.6,2.8c-0.5,0-0.9-0.2-1.3-0.4C193.8,305.1,193.1,303.4,192.4,301.7z M204.2,300.8c0.3-1.7,0.7-3.4,0.5-5.1
	c-0.1-1.1-0.3-2-0.6-2.8c0-0.2,0-0.4,0.3-0.6c0.4,0.1,0.8,0.1,1.3,0.1c1.3,0,2.4-0.3,3.3-1.1c0.1-0.1,0.2-0.1,0.3-0.2
	c0.1,0.1,0.2,0.2,0.2,0.3c0.2,0.3,0.5,0.7,0.9,1.1c0,0.5,0,0.9,0,1.4c0,0.5,0,1,0,1.4c0,0.8,0.1,1.4,0.3,1.9
	c0.1,0.3,0.1,0.5,0.2,0.8c0.1,0.5,0.2,1.2,0.3,1.9c-0.9,0.6-3.1,0.8-4.5,0.4l-0.5,1.9c0.6,0.2,1.4,0.3,2.2,0.3
	c1.1,0,2.2-0.2,3.1-0.5c0,0.2,0.1,0.5,0.1,0.7c-0.7,0.3-1.1,0.7-1.4,1c-0.3,0.3-0.5,0.5-0.9,0.6c-0.9,0.3-2.7,0.5-5.8-0.4
	C203.7,303.1,204,302,204.2,300.8z M231.6,282.1C231.6,282,231.6,282,231.6,282.1C231.6,282,231.6,282,231.6,282.1
	C231.6,282,231.6,282,231.6,282.1z M222.3,286.7l-0.1-0.1l-0.7,0.1c-0.2,0-0.4,0.1-0.5,0.1c0.5-0.2,1-0.3,1.5-0.5
	C222.4,286.5,222.4,286.6,222.3,286.7z M225.1,277.7C225.1,277.7,225.1,277.7,225.1,277.7C225.1,277.7,225.1,277.7,225.1,277.7
	C225.1,277.7,225.1,277.7,225.1,277.7z M220.2,287.1c0.1,0,0.1,0,0.2-0.1c-0.2,0.1-0.4,0.2-0.6,0.2c-0.5,0.2-0.6,0.2-0.7,0.2
	C219.5,287.3,219.9,287.2,220.2,287.1z M213.7,302.6c-0.3-1.7-0.6-3.7-0.8-4.7c-0.1-0.4-0.2-0.8-0.2-1.1c-0.1-0.4-0.2-0.8-0.2-1.3
	c0-0.5,0-1,0-1.6c0-0.9-0.1-2.4,0.1-3.1c0.7-0.2,1.2-0.5,1.8-0.7c0.6-0.3,1.1-0.5,1.7-0.7c1.5-0.4,1.9-0.2,2-0.2
	c1,0.6,1.9,0.2,2.5-0.1c0.2-0.1,0.3-0.1,0.5-0.2c0.1,0.4,0.2,0.8,0.3,1.2c0.2,0.8,0.4,1.4,0.5,1.9c0,0.4,0.1,0.7,0.1,1
	c0,0.9,0.4,2.1,0.7,3.2c0.6,1.9,1.2,3.9,0.6,5.1c-0.9,0.3-1.8,0.7-2.5,1.1c-1.3,0.7-2.5,1.2-3.9,1.1c-0.5,0-1-0.2-1.4-0.4
	C214.9,302.9,214.3,302.7,213.7,302.6z M224.7,295.7c-0.3-1.1-0.6-2.1-0.7-2.7c0-0.2,0-0.3,0-0.5l0.1-0.1c0.1,0.1,0.1,0.2,0.1,0.2
	c-0.1-0.1-0.2-0.5-0.3-0.9c0,0,0,0,0,0c-0.1-1.4-0.4-3.6,0.4-4.2c0.3-0.2,0.7-0.3,1.1-0.4c0.5-0.1,1-0.3,1.4-0.5
	c0.6-0.4,1.1-0.9,1.6-1.4c0.4-0.4,0.8-0.8,1.2-1.1c0.2-0.2,0.5-0.3,0.7-0.3c0.6,0.2,1.3,1.7,1.8,2.7c0.2,0.5,0.4,0.9,0.6,1.3
	c0.1,0.5,0.2,1.1,0.3,1.6c0.1,1.8,0.4,6,1.4,9.5c-0.5,0.3-1,0.6-1.5,0.9c-0.7,0.5-1.5,1-2,1.1c-1.1,0.3-2.2,0.2-3.3,0.2
	c-0.7,0-1.4,0-2.1,0C225.8,299.3,225.2,297.4,224.7,295.7z M236.4,298.2c-0.7-2.3-1.2-5.6-1.3-9.1c0-0.8-0.2-1.5-0.4-2.2l0,0
	c0,0-0.1-0.1-0.1-0.1c-0.1-0.5-0.3-1-0.5-1.5c-0.7-2.2-1-3.4,0.5-4.6c0.6-0.5,1.8-0.4,3-0.4c0.9,0.1,1.7,0.1,2.5,0
	c0.5-0.1,0.9-0.2,1.3-0.3c0.8-0.2,1.2-0.4,1.8-0.2c0.8,0.2,1.5,0.9,2,1.9c0.2,0.3,0.3,0.7,0.4,1.1c-0.1,2.9-0.1,4.7-0.1,7.2
	c0,1.4,0,2.9,0,4.9c-0.5,0.2-1.1,0.4-1.9,0.9c-0.6,0.3-1.1,0.7-1.6,1.1c-0.8,0.6-1.6,1.2-2.3,1.4c-0.6,0.1-1.1,0.1-1.8,0
	C237.6,298.2,237,298.2,236.4,298.2z M247.8,294.5c0-1.8,0-3.2,0-4.5c0-1,0-1.9,0-2.9c0.5-1.3,0.5-3,0.1-4.6c0-0.8,0.1-1.8,0.1-2.8
	c0-0.9,1.5-2.5,3-2.8c1.1-0.3,2,0.2,2.5,1.3c0.2,0.4,0.4,0.8,0.6,1.3c1.1,2.2,2.8,5.8,2.8,7.6h0.1c-0.6,0.6-1.2,1.3-1.8,2
	c-2.4,3-3.3,4.3-6.8,5.2C248.2,294.4,248,294.5,247.8,294.5z M257.5,254.4c0.5,1,0.6,2.1,0.8,3.2c0.1,0.5,0.2,1.1,0.3,1.6
	c0.3,1.4,0,3.3-0.9,5.1c-0.4,0.8-0.7,1.8-1,2.7l-0.2,0.5c-0.1,0.3-0.2,0.5-0.2,0.7c-0.4,1.3-0.6,1.8-2,2.7c-0.7,0.5-1.4,0.2-2.7-0.5
	c-0.4-0.3-0.9-0.5-1.4-0.7l-0.1,0.2c0-0.2,0-0.4,0-0.6c0.5-2.9-0.3-6-1-9c-0.4-1.6-0.8-3.2-0.9-4.6c0.4-0.4,0.9-0.8,1.5-1
	c1.3-0.4,2.8-0.4,4.4-0.3C255.3,254.5,256.4,254.6,257.5,254.4z M246.5,257.5c0.2,1.1,0.5,2.2,0.7,3.3c0.7,2.8,1.4,5.7,1,8.2
	c-0.1,0.6-0.1,1.1,0,1.7c0,0.5,0.1,1.2-0.1,1.4c-0.1,0.1-0.5,0.4-0.8,0.5c-0.2,0.2-0.5,0.3-0.6,0.4c-0.4,0.3-0.6,0.6-0.8,0.9
	c-0.1,0.1-0.2,0.3-0.3,0.4c-0.8,0.7-1.9,1.1-2.9,1c-0.8-0.1-1.4-0.5-1.8-1.1c-0.3-0.6-0.7-2-0.9-3.1c-0.2-0.9-0.4-1.8-0.6-2.4
	c-0.2-0.6-0.4-1.2-0.5-1.8c-0.1-0.4-0.2-0.8-0.3-1.2c-0.3-1.2-1.2-2.5-2-3.9c-0.2-0.4-0.5-0.7-0.7-1.1c3.5-0.4,7.1-1,10.1-2.7
	C246.1,257.8,246.3,257.7,246.5,257.5z M233.8,261.1C233.8,261.1,233.8,261.1,233.8,261.1l-0.5,0.2l0.2,0.7
	c1.2,4.2,4.3,15.2-2.2,18.1c-0.6,0.3-1.2,0.3-1.7,0.2l0-0.2l-0.7-0.6c-0.3-0.2-0.6-0.4-0.8-0.6c-0.6-0.9-1.1-2-1.4-2.9
	c-0.1-0.3-0.3-0.6-0.4-0.9c-0.6-1.4-1.5-3.4-2-5.2c0-1-0.1-2-0.6-3.1c-0.3-1.5-0.7-3.1-1.1-4.5c2-0.2,4-0.4,6.1-0.7
	c1.1-0.1,2.3-0.2,3.4-0.4l0.7-0.1l0-0.1C233,261.1,233.4,261.1,233.8,261.1z M219.6,262.5c0.6,1.6,1.4,3.5,2.1,4.9
	c0.1,0.6,0.2,1.2,0.3,1.8c0.1,0.3,0.1,0.6,0.2,1c0,0,0,0,0,0.1c0,0.6,0,1.2,0.1,1.8c0.1,0.7,0.3,1.3,0.5,1.9
	c0.2,0.8,0.5,1.5,0.5,2.1c0,0.8-0.3,1.4-0.8,2c-0.6,0.3-1.2,0.6-1.6,0.9c-1,0.6-1.7,1.1-3.2,1.1c-0.1,0-0.3,0-0.4,0
	c-0.4,0-1.3-0.8-1.7-1.2c-0.9-0.8-2-1.7-3.3-2c0-0.2,0-0.5,0-0.8c0-0.8,0-1.6,0.1-2.5c0.1-2.6,0.2-5.5-0.3-8c0.1,0,0.2,0,0.2-0.1
	c0.8-0.3,1.5-0.9,2.2-1.4c0.7-0.6,1.4-1.1,2.3-1.4C217.6,262.6,218.6,262.6,219.6,262.5z M210.1,266.2c0.4,1.8,0.4,3.9,0.3,5.9
	c-0.4-1.8-1-3.8-1.7-5.7C209.2,266.3,209.6,266.3,210.1,266.2z M204.4,266.8c3.1,3.9,4.6,7.6,4.4,11.1c-1,0.9-1.7,2.3-2,3.2
	c-0.4,0-1.1,0.1-2.1,0.1c-0.6,0-1.2,0-1.8,0c-1.1,0-2.2,0-3,0c-1.5,0.1-2.9,0.9-4.4,1.8c-0.8,0.5-1.8,1-2.5,1.3
	c-1-0.4-1.6-1.3-1.9-2.8c-0.1-0.4-0.1-1,0-1.5c0.1-0.6,0.1-1.3,0-1.9c-0.3-1.8-1.1-4.2-1.9-6c2.5-0.5,4.7-1,6.1-2
	c0.6-0.4,1.1-0.9,1.5-1.3c0.6-0.5,1.1-1,1.8-1.3c0.7-0.3,1.7-0.3,2.7-0.4c0.8,0,1.6-0.1,2.4-0.2
	C203.9,266.8,204.2,266.8,204.4,266.8z M181.7,298.7c0.9-0.5,1.7-0.9,2.4-1.3c2.1,2.3,3.1,5.3,4.1,8.4c0.2,0.7,0.4,1.3,0.6,2l0.1,0
	c-0.3,0.3-0.7,0.5-1.1,0.7c-1.3,0.7-2.4,0.7-3.8,0.6c-1.1,0-2.4-0.1-3.8,0.4c-1-2.3-2.6-6.4-2.4-8.9c0.4-0.2,0.7-0.3,1.1-0.5
	C179.8,299.7,180.8,299.2,181.7,298.7z M172.5,302.8c0.5-0.3,1-0.6,1.4-0.8c0.4-0.2,0.9-0.3,1.2-0.4c0.2-0.1,0.4-0.1,0.6-0.2
	c0.1,3,1.7,6.9,2.7,9.2c-0.3,0.3-0.6,0.6-0.8,0.9c-0.4,0.5-0.7,0.9-1.2,1.2c-0.8-1.2-1.6-3.1-2.4-5c-0.7-1.7-1.4-3.4-2.1-4.6
	C172.1,303,172.3,302.9,172.5,302.8z M168.2,304.6l1.1-0.3c0.3-0.1,0.6-0.2,0.9-0.3c0.7,1.1,1.4,2.8,2.1,4.4
	c0.7,1.6,1.3,3.3,2.1,4.6c-0.9,0-2,0.1-2.9,0.9c-0.2,0.2-0.4,0.4-0.6,0.6c-0.5-1.3-1.2-2.5-1.9-3.7c-1.1-2-2.2-3.8-2.5-5.8
	C167.1,304.9,167.7,304.8,168.2,304.6z M164.4,305.6c0.4,2.3,1.6,4.3,2.8,6.3c0.9,1.6,1.8,3.2,2.2,4.7l0.2-0.1
	c-0.3,0.8-0.6,1.2-1.6,1.5c-0.6,0.2-1.2,0.1-1.8,0l0,0c-2.7-3.2-5.4-7.2-6.6-10.4c0.3-0.2,0.5-0.4,0.8-0.5
	C161.1,306.7,162.8,306.1,164.4,305.6z M161.9,318.7c-0.3,0.2-0.5,0.4-0.8,0.6c-2.4-2.8-4.8-5.7-6-9.1c1-0.5,1.9-0.9,2.8-1.4
	c1.3,3.3,3.9,6.9,5.7,9.2C163.1,318.1,162.5,318.3,161.9,318.7z M153.3,311.1c1.4,3.6,3.9,6.7,6.5,9.7c-0.4,0-1-0.2-1.2-0.2
	c-0.8-0.2-1.9-0.4-3.1-0.1c-0.8-1.7-2-2.8-3.1-3.8c-1.2-1.1-2.2-2.1-2.6-3.8C151,312.2,152.2,311.6,153.3,311.1z M152.2,323.8
	c-0.1,0-0.1,0.1-0.2,0.1c-2.2-1.5-3.3-3.9-4.5-6.6c-0.3-0.8-0.7-1.5-1.1-2.3c0.4-0.4,1-0.7,1.6-1.1c0.6,2,1.8,3.1,3,4.2
	c1,1,2,1.9,2.7,3.3c-0.5,0.5-0.9,1.2-1.2,2.2C152.4,323.7,152.3,323.7,152.2,323.8z M144.1,316.2h0.7c0.3,0.6,0.6,1.3,0.9,1.9
	c1.2,2.7,2.4,5.2,4.7,7c-0.3,0.4-0.6,1-0.7,1.8c-2.6-1.6-4.2-3.4-5.4-5.6c-0.7-1.3-1.5-2.9-2.2-4.1c-0.2-0.3-0.3-0.5-0.4-0.7
	C142.4,316.3,143.3,316.2,144.1,316.2z M142.1,323.1c-1-1.2-3.6-4.3-3.3-5.3c0.1-0.2,0.4-0.4,0.8-0.6c0.2,0.3,0.4,0.6,0.7,1
	c0.7,1.1,1.5,2.7,2.2,4c1.2,2.3,2.9,4.2,5.3,5.9c-0.7,0-1.4,0.1-2,0.4l-0.2,0.1c0,0,0-0.1,0-0.1c-0.1-0.4-0.4-1-0.9-2.1
	C144,325.4,143.2,324.3,142.1,323.1z M354.1,243.4c0.3,2.8,0,5.7-0.4,8.9c-0.1,0.9-0.2,1.7-0.3,2.6c-0.1-0.3-0.2-0.6-0.2-0.8
	c-0.5-1.5-0.7-2.5-0.9-3.5c-0.2-1.1-0.5-2.2-1-3.8c-0.7-2.2-2.2-4.4-3.7-6.4c0.5,0.1,0.9,0.2,1.3,0.3
	C351.5,241.2,353.1,241.6,354.1,243.4z M331,222.7c1.3,1.5,2.5,3,3.3,4.7c0.4,0.8,0.7,1.7,0.9,2.8l0.3,1.3h0
	c0.3,1.4,0.5,2.8,0.8,4.2c0.2,1.2,0.4,2.3,0.6,3.3c0.5,2.7,1.6,5.9,2.7,9c1,2.8,1.9,5.5,2.4,7.7c0.5,2.2,1,4.3,1.5,6.4
	c2.1,9,4.3,18.3,4.9,28.2l2-0.1c-0.7-10.1-2.9-19.5-5-28.5c-0.5-2.1-1-4.3-1.5-6.4c-0.5-2.3-1.5-5.1-2.4-7.9c-1-3-2.1-6.2-2.6-8.8
	c-0.2-1-0.4-2.1-0.6-3.2c-0.2-1.2-0.4-2.4-0.6-3.6c1.9,0.3,2.2,1,3,2.7c0.5,1.1,1.1,2.5,2.3,3.7c0.3,0.3,0.7,0.6,1,0.9
	c0.2,0.2,0.3,0.4,0.5,0.6c1.8,2.3,4.1,5.2,5,7.8c0.5,1.5,0.7,2.5,0.9,3.6c0.2,1,0.5,2.1,0.9,3.7c0.2,0.5,0.4,1.1,0.6,1.9
	c0.4,1.3,0.9,2.8,1.3,4.3c0,0.9,0.1,1.8,0.3,2.7c0.4,2.1,0.8,3.6,1.2,4.9c0.6,2.2,1.1,3.7,1.1,7.5c0,13.9-5.1,24.2-16.9,34.4
	l-1.4,1.2c-4.5,3.9-8.1,7-13.4,8.3c-3.3,0.8-6.1,1.1-9.1,1.4c-2.5,0.3-5.2,0.6-8.2,1.2c-3.2,0.6-6.1,1.3-9,1.9
	c-8.7,1.8-16.8,3.5-27,5.4c-19.5,3.6-35.9,6.3-54,6.3c-2.7,0-5.4-0.1-8-0.2l-0.8,0c-3.1-0.1-7.3-0.3-11.2-0.3
	c-2.3,0-4.1,0.1-5.7,0.2c-2.8,0.3-5.1,1.2-7.5,2.1c-1.9,0.7-3.7,1.4-5.5,1.7c1-1.1,1.9-2.4,2.8-3.7c0.7-1,1.3-1.9,2-2.8l0,0
	c0.9-0.9,2.9-0.3,4.8,0.2c2.3,0.7,4.6,1.4,6-0.2c1.5-1.6,1.1-2.8,0.7-3.4c-1.3-2.1-6.4-2.4-8-1.9c-3.3,1.1-5.3,4-7.2,6.8
	c-1.4,2-2.6,3.9-4.3,5c-4.3-0.1-8.7-0.5-12.4-1.3c-0.1-0.3-0.2-0.7-0.3-1.2c-0.1-0.6-0.2-1.3-0.5-2c-1.1-2.3-2.8-2.5-4.3-2.6
	c-1-0.1-2-0.1-3.1-0.7l-0.9,1.8c1.5,0.7,2.8,0.8,3.8,0.9c1.4,0.1,2,0.2,2.6,1.4c0.2,0.4,0.3,0.9,0.4,1.5c0,0.1,0,0.3,0.1,0.4
	c-4.5-1-7.6-2.3-7.9-3.4l-0.3-1.6l-1.6-0.3c-1.6-0.3-2.6-0.9-3.6-2c0,0,0,0,0,0c0-0.1,0-0.2,0.1-0.3c0.3-0.1,0.7-0.1,1.1-0.1
	c1,0,2.2-0.1,2.9-0.8l0.3-0.2l0-0.4c0.3-2.5,0.7-2.7,1.7-3.1c0.3-0.1,0.6-0.2,0.9-0.4l0.4-0.2l0.1-0.4c0.6-2.5,1.7-2.5,3.8-2
	c1.9,0.4,2.7,0.5,3.4-0.7c0.2-0.3,0.5-0.8,1.5-1.5c0.9-0.6,1.5-0.5,2.5-0.3c0.9,0.1,1.9,0.3,3.1-0.1c2-0.6,2.5-1.8,2.9-2.7
	c0.3-0.6,0.5-1.2,1.1-1.7c0.5-0.4,1-0.4,1.9-0.5c0.8,0,1.7-0.1,2.6-0.5c0.9-0.5,1.5-1.2,2-1.8c0.5-0.6,0.9-1.1,1.6-1.4
	c1-0.3,2-0.3,3.1-0.3c1.5,0.1,3.1,0.1,4.9-0.9c1.2-0.7,2.3-1.6,3.1-2.6c0.9,0.7,1.9,1.1,3,1.2c2.7,0.2,5.6-1.3,7.6-3
	c3.3,0.9,5.8,1.1,7.6,0.5c0.9-0.3,1.4-0.8,1.7-1.2c0.4-0.4,0.6-0.6,1.3-0.7c0.4,0,0.9,0.2,1.5,0.4c0.6,0.2,1.2,0.5,2,0.6
	c2,0.2,3.6-0.5,5-1.3c0.9-0.4,1.7-0.8,2.6-1.1c1.1-0.3,2.1-0.2,3.3-0.2c1.2,0,2.5,0.1,3.9-0.3c0.9-0.2,1.8-0.8,2.6-1.4
	c0.6-0.4,1.4-0.9,1.8-1c0.7-0.2,1.3-0.1,2,0c0.7,0.1,1.6,0.2,2.5,0c1.2-0.3,2.1-1,3.1-1.7c0.5-0.4,0.9-0.7,1.4-1
	c1.1-0.6,1.7-0.8,2.7-1c0.4-0.1,0.8-0.2,1.3-0.3c4.1-1.1,5.4-2.8,7.9-5.9c1.1-1.5,2.5-2.6,3.9-3.9c0.8-0.7,1.7-1.5,2.6-2.4
	c3.2-3.1,4.1-4.2,6.3-8.3c0.9-1.7,1.5-3.8,2.1-6c0.3-1.2,0.7-2.5,1.1-3.7c1-2.8,1.2-6.6,1.4-10.3c0.1-2.4,0.3-4.7,0.6-6.5
	c0.1-0.3,0.1-0.6,0.2-0.9c0.2-1.2,0.4-2.4,0.9-3.4c0.3-0.7,0.7-1.1,1.2-1.7c0.4-0.4,0.7-0.8,1-1.3c0.5-0.3,1.1-0.7,1.6-0.9
	c8.6-4.3,17.5-11,26.6-20.1l1.4-1.4c3-3,8-8,9.8-10.1c4.1-4.9,9.4-13,10.4-15c0.3-0.7,2-2.2,3.4-3.2c-0.4,0.8-0.9,1.7-1.1,2.1
	c-0.3,0.7-0.5,1.5-0.8,2.3c-0.2,0.8-0.5,1.6-0.8,2.3c-1.8,4.4-2.6,7.9-2.7,11.3c-0.2,2.3,0.1,4.2,0.6,5.9c0.2,0.8,0.4,1.6,0.6,2.5
	c1.8,6.5,4.4,15.5,5.8,22.8c0.2,0.8,0.3,1.6,0.5,2.5c0.7,3.3,1.4,6.7,1.6,9.8c0.1,1.2,0.3,2.5,0.4,3.8c0.4,2.9,0.8,5.9,0.5,8.6
	l2,0.2c0.2-2.8-0.2-6-0.6-9c-0.2-1.3-0.3-2.5-0.4-3.7c-0.3-3.2-1-6.7-1.7-10c-0.2-0.8-0.3-1.7-0.5-2.5c-1.1-5.8-2.9-12.6-4.6-18.4
	C330.5,222.1,330.7,222.4,331,222.7z M185.3,330.6c0.6-0.4,1.2-0.7,1.8-0.9c1.2-0.4,5.1,0.1,5.7,1.1c0.2,0.3-0.3,0.8-0.5,1
	c-0.6,0.7-2.4,0.1-4-0.4C187.3,331,186.3,330.7,185.3,330.6z M346.7,202.4c-3.5,0-5.6,1.7-7.4,3.2c-0.1,0-0.1,0.1-0.2,0.1
	c-0.3-1.1-0.7-2.1-1.1-3.1c-0.6-1.5-1.2-2.9-1.2-4.2c0-3.6,1.8-6.5,4.8-7.4c3.7-1.1,7.5-0.5,10.1,1.5c2.1,1.7,3.3,4.2,3.2,7.1
	c-0.4,0.3-1.4,0.6-2.2,0.8c-1.5,0.5-3.2,1-4.3,2.1C347.8,202.4,347.2,202.4,346.7,202.4z M373.6,136.6c-0.5,2.8-1,5.8-0.9,8.9
	c0,1,0.3,2,0.6,3c0.3,1,0.6,2,0.6,3c0,1.4-0.4,3.5-1,5.9c-1.4,0.6-2.5,1.5-3.2,2.6c-1.4,2.4-0.7,5.2-0.1,7.4c0.2,0.7,0.4,1.4,0.5,2
	c0.4,2.3,0.5,4.9,0.7,7.6c0.1,1.8,0.2,3.8,0.4,5.6l0.1,0.7c0.6,5.8,0.6,5.8-2.7,9.3c-1.4,1.4-2.6,2.9-3.7,4.3
	c-0.3-2.4-1-4.9-1.8-7.3c-0.9-3.1-1.9-6.4-1.9-9.3c0-0.3,0-0.7,0-1.1c-0.1-0.9-0.1-2.1,0.2-2.5c0.3-0.4,0.7-0.4,1.4-0.5
	c0.8-0.1,1.9-0.2,2.6-1.2c1.2-1.9,0.4-4.7-0.3-6.9c-0.2-0.8-0.5-1.5-0.5-2c-0.6-4-0.9-7.2,0.5-9.1c0.8-1,2.1-1.6,4.1-1.8l0.9-0.1
	l0.2-3c0.5-8.5,0.7-12-3-20.5c-3.6-8.4-5-11.3-11.8-16.7l-1.2,1.6c6.4,5.2,7.7,7.8,11.2,15.9c3.5,8.1,3.3,11.2,2.8,19.6l-0.1,1.3
	c-2.1,0.3-3.6,1.1-4.6,2.4c-2.1,2.7-1.5,6.9-0.9,10.6c0.1,0.7,0.3,1.5,0.6,2.3c0.5,1.8,1.2,4.2,0.5,5.2c-0.1,0.2-0.4,0.2-1.1,0.3
	c-0.8,0.1-1.9,0.2-2.8,1.2c-0.8,1-0.7,2.6-0.6,3.9c0,0.4,0,0.7,0,1c0,3.2,1,6.6,2,9.8c1,3.4,1.9,6.5,1.8,9.2
	c-1.1,1.7-2.2,3.5-3.2,5.4c-0.4,0.2-0.8,0.4-1.2,0.7c-2.5,1.3-4.5,2.4-6.9,2.6c-0.5-1.1-0.7-1.9-0.6-3l0.2-2.2
	c0.6-0.3,1.4-0.5,2-0.7c1.6-0.5,3.1-0.9,3.5-2l0.1-0.2l0-0.2c0.2-3.7-1.3-6.9-4-9c-3.1-2.4-7.5-3.1-11.9-1.9
	c-3.7,1.1-6.2,4.8-6.2,9.3c0,1.7,0.7,3.3,1.3,4.9c0.5,1.3,1,2.6,1.2,3.7c-0.2,0.1-0.3,0.2-0.5,0.4c-1,0.6-1.5,1.4-1.8,2.1
	c-0.5-0.4-1.1-1.1-1.6-1.6c-1.2-1.2-2.4-2.5-3.7-3.1l-1.2-0.6c0.4-1.7,1-3.5,1.8-5.5c0.3-0.8,0.6-1.7,0.8-2.5
	c0.2-0.8,0.4-1.5,0.7-2.1c0.2-0.4,0.9-1.8,1.6-2.9c0.4-0.7,0.8-1.6,0.3-2.2c-0.2-0.4-0.7-0.6-1.2-0.6c-1.7,0.1-6,3.8-6.7,5.2
	c-0.8,1.7-5.9,9.7-10.1,14.6c-1.7,2-6.9,7.2-9.6,10l-1.4,1.4c-8.8,8.8-17.5,15.4-25.8,19.6l0,0c-0.1,0.1-0.2,0.1-0.3,0.2
	c-0.5,0.3-1,0.5-1.6,0.7l-0.3,0.1l-0.2,0.3c0,0,0,0,0,0c0,0,0,0,0,0l-0.1-0.1c-1.7,0.8-4,1.8-6.3,2.7c-1.5,0.6-3,1-4.3,1.3
	c-0.7,0.2-1.3,0.2-2,0.3c-0.5,0.1-1.1,0.1-1.6,0.2c-0.3,0.1-0.6,0.1-0.9,0.2c-0.4,0.1-0.8,0.2-1.2,0.2l-0.1,2c0.1,0,0.1,0,0.2,0
	c0.6,0,1.2-0.2,1.7-0.3c0.2-0.1,0.5-0.1,0.7-0.2c0.5-0.1,1-0.2,1.5-0.2c0.7-0.1,1.5-0.2,2.2-0.4c1.3-0.3,2.7-0.7,4.2-1.2
	c-0.3,0.3-0.7,0.6-1,0.9c-0.6,0.5-1.2,1.1-1.8,1.7c-2.8,2.4-6.8,4.2-10.2,4.7c-1,0.1-2.1,0.1-3.2,0c-1.5-0.1-3.1-0.2-4.7,0.2l0-0.1
	c-1.2,0.1-2.9,0.1-4.5,0.1c-1,0-1.9,0-2.7,0c-0.7,0-1.5,0.1-2.4,0.2c-1.8,0.2-4.1,0.5-5.3,0.1l-0.6,1.9c0.6,0.2,1.4,0.3,2.2,0.3
	c1.2,0,2.6-0.2,3.9-0.3c0.9-0.1,1.7-0.2,2.3-0.2c0.8,0,1.7,0,2.7,0c0.4,0,0.9,0,1.3,0c-0.1,0.1-0.2,0.2-0.2,0.3
	c-0.4,0.5-0.8,0.9-1.3,1.2c-2.9,1.7-6.7,2.2-10.4,2.6l-0.6,0.1l-0.2,0.1c-0.2,0.1-0.8,0.1-1.1,0.2c-0.3,0-0.7,0-1.1,0.2
	c-1,0.1-2.1,0.2-3.1,0.3c-2.2,0.2-4.3,0.4-6.4,0.7c-0.6,0.1-1.2,0.1-1.9,0.1c-1.3,0.1-2.6,0.1-3.9,0.5c-1.2,0.4-2.1,1.1-2.9,1.7
	c-0.6,0.4-1.1,0.9-1.7,1.1c-1.1,0.5-3.1,0.6-4.9,0.7c-1.2,0.1-2.4,0.2-3.3,0.4c-0.6,0.1-1.4,0.2-2.1,0.2c-1.1,0.1-2.3,0.1-3.3,0.5
	c-1.1,0.4-1.8,1.1-2.5,1.7c-0.4,0.4-0.8,0.7-1.2,1c-1.9,1.2-5.9,1.8-10.2,2.4c-7.1,1-15,2.1-16.9,7c-1.7,0.6-3.5,1-5.3,1.3
	c-2.4,0.5-5,0.9-7.2,2.1c-0.7,0.4-1.5,0.8-2.3,1.2c-1.5,0.7-3,1.5-4.3,2.3c-0.8,0.5-1.4,1.1-1.9,1.5c-0.8,0.7-1.3,1.2-2.6,1.6
	c-0.4,0.1-0.8,0.2-1.2,0.2c-0.6,0.1-1.3,0.2-2,0.5c-0.8,0.3-1.3,0.8-1.7,1.1c-0.3,0.2-0.6,0.5-0.9,0.6c-1.5,0.9-2.7,1-4.4,1.2
	c-0.5,0.1-1.1,0.1-1.8,0.2c-1.3,0.2-3,1-4.7,1.8c-1.1,0.5-2.3,1.1-3.4,1.5c-1-0.8-2.3-1.6-4-2.6c-0.8-0.5-1.7-1-2.1-1.3
	c-4.2-3.2-4.1-4.1-3.7-8.6c0.1-1.5,0.2-3.3,0.2-5.5c0-6.1,1.5-12.3,2.9-17.1c1.9-6.7,2.8-10.7,3.7-16.4c0.7-4.4-0.6-8.3-1.7-11.7
	c-0.9-2.6-1.7-5-1.5-7.3c0.1-2.5,1.4-5.1,2.6-7.9c1-2.2,2-4.4,2.6-6.7c0.3-1.3,0.6-2.5,0.8-3.7c1.6-4.2,4.2-11.1,2.3-15.8
	c-0.8-2.1-5.6-7.3-7.2-8.6c-4.1-3.5-9-6.9-13.8-10.3c-1-0.7-1.9-1.3-2.8-2c-6.3-4.5-38.4-34.6-40.4-36.8
	c-10.2-11.5-18.8-21.8-27.6-35.2c-8.6-13-14.5-22.4-19-33.6c-0.9-2.2-1.7-4.7-2.5-7.1c0-0.2-0.1-0.3-0.1-0.4
	c-0.4-1.5-0.9-3.3-1.5-5.4c-1.3-4.7-2.9-10-2.8-13.2c0-0.7,0.1-1.1,0.2-1.2c0,0,0.1,0,0.2,0c0.1,0,0.5,0,1.2,0.5l2,1.9l0.2,0.1
	C29.8,53.4,52,66,77.1,76c16.6,6.6,32.7,13.2,47.7,19.6c11.1,4.7,22.5,7.8,33.5,10.7c3,0.8,6,1.6,8.9,2.4
	c12.1,3.4,24.8,5.9,37.1,8.3c5.9,1.2,12.1,2.4,18.1,3.7c1.8,0.4,3.8,0.9,5.9,1.4c6,1.5,12.2,3,17.4,3c0,0,0,0,0,0c0.5,0,1,0,1.4-0.1
	c0.8,0.1,1.6,0.2,2.4,0.2c2.7,0,5.3-0.8,8.1-2.9c1-0.8,3-2.5,4.3-4.1l0,0.1l0.2-0.4c0.3-0.4,0.6-0.8,0.7-1.1l-0.1,0l0.8-1.5
	c4.9-8.6,7.5-9,8-9c0.1,0,0.3,0,0.6,0.2c1.7,1.2,2.5,2.6,3,4.3c-0.1,1.5-0.2,3-0.3,4.6c-0.2,2.6-0.3,5.4-0.3,7.9
	c0,6.7,2.3,12.2,7.2,17.1l1.4-1.4c-4.5-4.6-6.6-9.6-6.6-15.7c0-1.4,0.1-2.8,0.1-4.2c0.5,2,1.5,4,3.3,5.5c0.5,0.4,1,0.7,1.6,1.1
	c0.3,0.8,0.5,1.5,0.8,2.4c1.3,4.1,2.8,8.8,7.9,10.7c-0.3,0.4-0.5,0.8-0.8,1.2c-0.7,1.1-1.4,2.3-2.4,3c-1.3,1-3.1,1.5-4.8,2
	c-1.2,0.3-2.5,0.7-3.6,1.3l-0.3,0.1l-0.1,0.3c-1.4,2.5-4.6,3.6-7.9,4.8c-3.9,1.3-8.3,2.9-10.4,6.9c-0.5,1-0.9,1.9-1.3,2.9
	c-0.6,1.3-1.1,2.5-1.8,3.6c-0.5-0.2-1-0.3-1.6-0.3c-3.5,0.3-7.3,5.5-10.8,10.8c-0.8,1.1-1.5,2.2-1.8,2.5l-0.1,0.1
	c-3.2,3.4-5.8,6-8,10.4c-0.8,1.6-1.8,2.9-3,4.3c-1,1.3-2.1,2.6-2.9,4.2c-3.4,6.3-4.1,11.2-4.1,18c0,3.9,1,5.9,2.6,8.8l0.5,1
	c0.3,0.5,0.7,1.1,1.2,1.9c1.4,2.1,3.4,5,2.2,6.5c0,0-0.4,0.5-2.2,0.3c-4.8-0.4-12.9-4.3-13.7-5.7c-1.6-3.1-0.4-6.8,0.9-10.7
	c1.3-4,2.6-8,1.3-12l-1.9,0.6c1.1,3.3-0.1,7.1-1.3,10.7c-0.2,0.7-0.5,1.4-0.7,2.2c0.1-1.2,0-2.3-0.1-2.8c-0.4-2.8-0.5-3.1-2.8-4.6
	l-0.1-0.1c-0.2-0.2-0.5-0.4-0.8-0.6c-1.8-1.3-4-2.8-5.7-3.1c-1.9-0.4-3.5,0.4-4.9,1.1c-0.9,0.4-1.7,0.8-2.6,0.9l-0.6,0.1l-0.2,0.6
	c-0.3,0.8-0.9,1.3-1.6,2c-1,0.9-2.1,1.8-2.5,3.6c-0.4,1.8,0,3.6,0.3,5.3c0.2,1.2,0.5,2.3,0.4,3.2l2,0.2c0.1-1.2-0.1-2.4-0.4-3.8
	c-0.3-1.5-0.6-3.1-0.3-4.4c0.3-1.2,1-1.8,1.9-2.6c0.7-0.6,1.4-1.3,1.9-2.2c0.9-0.2,1.8-0.6,2.6-1c1.3-0.6,2.4-1.1,3.6-0.9
	c1.2,0.2,3.4,1.8,4.9,2.8c0.3,0.2,0.6,0.4,0.8,0.6l0.1,0.1c1.7,1.1,1.7,1.1,1.9,3.2c0.3,2.3,0,3.7-0.9,4.3l1.2,1.6
	c0.6-0.4,1-1,1.3-1.6c-0.7,2.8-0.9,5.6,0.5,8.2c1.3,2.5,10.6,6.4,15.3,6.8c0.3,0,0.7,0,1,0c1.4,0,2.4-0.4,3-1.1
	c2.1-2.7-0.4-6.4-2.1-8.9c-0.4-0.6-0.8-1.2-1.1-1.7l-0.5-1c-1.5-2.8-2.4-4.5-2.4-7.9c0-6.6,0.6-11.1,3.8-17c0.8-1.4,1.7-2.6,2.7-3.9
	c1.1-1.4,2.3-2.9,3.2-4.7c2-4.1,4.4-6.5,7.6-9.9l0.1-0.1c0.4-0.5,1.1-1.4,2-2.8c2.1-3.2,6.5-9.7,9.3-9.9c0.1,0,0.1,0,0.2,0
	c-0.3,0.2-0.5,0.4-0.8,0.6c-0.7,0.5-1.4,1-1.9,1.7c-0.5,0.9-0.7,1.8-0.8,2.7c-0.1,0.7-0.2,1.4-0.5,1.9c-0.6,1.2-1.6,2.2-2.7,3.2
	c-0.8,0.7-1.5,1.4-2.2,2.3c-0.4,0.6-0.8,1.2-1.2,1.9c-0.4,0.8-0.9,1.6-1.5,2.3c-2.6,3.1-4.4,5.4-5.8,7.8c-0.3,0.6-0.7,1.2-1.1,1.8
	c-3.2,5.3-7.3,12-5.9,18.9c0.7,3.6,3.4,4.1,5.7,4.5c1.1,0.2,2.3,0.4,3.4,0.9c1.2,0.6,2.4,1.3,3.6,2.1c2.4,1.5,4.8,3,7.6,3.6
	c3.8,0.9,8.1,1.6,12,1.6c4.3,0,8.1-0.9,10.1-3.4c1.4-1.8,2.1-4.3,2.7-6.8c0.3-1.2,0.6-2.3,1-3.2c0.3-0.9,0.7-1.9,1.1-2.9
	c0.3,0.3,0.6,0.6,0.9,0.7c0.3,0.2,0.6,0.3,1,0.3c1.1,0,2.4-0.9,3.6-1.7c0.4-0.3,1-0.7,1.2-0.8c1.1-0.4,2.2-0.6,3.3-0.8
	c0.7-0.1,1.4-0.3,2.2-0.4c4.4-1.1,8.1-1.9,12.7-2.6c4.5-0.7,6.4-3,8.3-6.8c2.1-4.2,4.1-7,7.2-10.1l1-1c3.7-3.8,10-10.1,14.8-10.1
	c0,0,0.1,0,0.1,0l0.1-2c-0.1,0-0.1,0-0.2,0c-5.7,0-12.3,6.7-16.3,10.7l-1,1c-3.3,3.3-5.4,6.2-7.6,10.7c-1.7,3.5-3.1,5.1-6.8,5.7
	c-4.6,0.8-8.4,1.5-12.9,2.6c-0.7,0.2-1.4,0.3-2,0.4c-1.2,0.2-2.4,0.4-3.7,0.9c-0.5,0.2-1,0.6-1.6,1c-0.6,0.4-2,1.4-2.4,1.3
	c-0.2-0.1-0.6-0.4-0.7-1.2c0-0.3,0-0.6,0-0.9c0.7-1.9,1.5-3.9,2.2-5.7c0.3-0.9,0.7-1.7,1.1-2.6c1.9-3.3,4-6.3,4.6-7
	c0.8-0.9,1.6-2,2.4-3c1.1-1.5,2.3-3.1,3.4-3.9l-0.1-0.1c1.5-1.2,3-2.3,4.6-3.2c5.3-2.9,11.1-5.5,17.2-7.7c2-0.7,4.1-1.3,6.2-2
	c4.4-1.3,8.9-2.6,12.8-4.9c4.7-2.8,8.8-6.6,12-11c3.2-4.5,3.2-9,3.2-13.8h-2c0,5.4-0.2,8.9-2.8,12.6c-3.1,4.2-7,7.8-11.4,10.4
	c-3.7,2.2-8.1,3.5-12.3,4.7c-2.1,0.6-4.3,1.3-6.4,2c-6.2,2.2-12.1,4.9-17.5,7.9c-6.6,3.6-12.4,10.3-15.9,18.1
	c-0.9,1.7-1.8,3.4-2.4,5.1c-0.6-0.3-1.3-0.7-2-1.1c-2.6-1.5-5.3-3.1-7-2.2c-0.3,0.2-0.7,0.5-0.9,1.1c-3,0.2-7.9-0.1-10.3-2.2
	c-0.8-0.7-1.3-1.6-1.4-2.6c-0.1-1.6,0.2-3.1,0.6-4.8c0.3-1.1,0.6-2.3,0.7-3.5c0.3-3.2,0.7-5.8,2.2-8c0.4-0.5,0.7-1,1-1.5
	c1.4-2,2.6-3.7,3.8-6.2c1.6-3.2,3.5-6.5,5.8-9.8c1-1.5,2.5-2.2,4.1-3.1c1.5-0.8,3-1.6,4.2-3c0.6-0.6,1-1.3,1.4-2
	c0.5-0.9,1-1.7,1.9-2.3c0.4-0.3,0.9-0.5,1.4-0.7c0.9-0.3,1.9-0.7,2.5-1.7l-1.7-1c-0.2,0.4-0.7,0.6-1.5,0.9c-0.6,0.2-1.3,0.5-1.9,0.9
	c-1.1,0.8-1.8,1.9-2.4,2.9c-0.4,0.6-0.7,1.2-1.2,1.7c-1,1.1-2.3,1.8-3.6,2.5c-1.7,0.9-3.5,1.8-4.8,3.7c-2.3,3.4-4.3,6.7-6,10
	c-1.1,2.3-2.2,3.9-3.7,5.9c-0.3,0.5-0.7,1-1,1.5c-1.8,2.7-2.3,5.6-2.6,9c-0.1,1.1-0.4,2.1-0.6,3.3c-0.4,1.7-0.8,3.5-0.7,5.4
	c0.1,1.6,0.8,2.9,2.1,3.9c2.9,2.5,8.6,2.9,12.5,2.6l0.8-0.1l0.1-0.8c0-0.3,0.1-0.3,0.1-0.3c0.7-0.4,3.7,1.4,5,2.2
	c0.9,0.5,1.7,1,2.4,1.3c-0.1,0.5-0.2,1.1-0.3,1.6c-0.1,0.2-0.1,0.4-0.2,0.6c-0.7,1.8-1.4,3.6-2,5.2c-0.4,1-0.7,2.2-1,3.4
	c-0.6,2.3-1.2,4.6-2.4,6.1c-2.4,3.1-9.7,3.5-20.1,1.1c-2.4-0.6-4.7-2-7-3.4c-1.3-0.8-2.6-1.6-3.8-2.2c-1.3-0.6-2.7-0.9-3.9-1.1
	c-2.5-0.4-3.7-0.7-4.1-2.9c-1.2-6.1,2.5-12.1,5.7-17.4c0.4-0.6,0.7-1.2,1.1-1.8c1.4-2.3,3-4.6,5.6-7.6c0.7-0.8,1.2-1.8,1.7-2.6
	c0.3-0.6,0.7-1.2,1-1.6c0.5-0.7,1.2-1.3,1.9-2c1.2-1.1,2.4-2.2,3.1-3.8c0.4-0.8,0.5-1.7,0.7-2.5c0.1-0.8,0.3-1.5,0.6-2
	c0.2-0.4,0.7-0.7,1.3-1.1c0.6-0.4,1.3-0.9,1.8-1.6c1.2-1.6,2-3.5,2.7-5.2c0.4-0.9,0.8-1.9,1.3-2.8c1.7-3.4,5.5-4.7,9.2-6
	c3.5-1.2,7.1-2.5,8.9-5.5c0.9-0.4,1.9-0.7,3-1c1.9-0.5,3.8-1.1,5.4-2.3c1.2-0.9,2.1-2.3,2.9-3.6c0.5-0.8,1-1.6,1.6-2.2
	c3.9-4.2,9.5-7.3,14.5-9.8c0.9-0.5,1.9-1,2.8-1.4c4-2.1,8-4.2,11.7-5.3c2.4-0.7,5.1-0.5,7.9-0.4c3.1,0.2,6.3,0.4,9.2-0.7l-0.7-1.9
	c-2.5,0.9-5.4,0.7-8.4,0.5c-2.9-0.2-5.9-0.4-8.6,0.4c-3.8,1.1-8,3.3-12,5.4c-0.9,0.5-1.9,1-2.8,1.4c-5,2.5-10.6,5.6-14.7,9.9
	c-4.7-1.4-6-5.4-7.3-9.7c-0.1-0.3-0.2-0.5-0.2-0.8c1.4,0.4,2.9,0.7,4.4,0.7c0.9,0,1.7-0.1,2.5-0.3c4.3-1,11.9-3,15.3-5.3
	c2.3-1.5,3.6-2.6,4.7-3.5c1.7-1.4,2.7-2.2,6.5-3.9c6.8-3.1,13.8-4.5,22.5-4.5c3.3,0,7,0.2,11.6,0.6c6.8,0.6,13.4,1.6,18.5,6
	c4,3.5,4.2,5.4,4.2,12.2C374.5,131.2,374.1,133.8,373.6,136.6z M143.6,225.8c-1.3,0.8-3.3,3.7-3.6,5.2l-2-0.3
	c0.4-2.1,2.7-5.5,4.5-6.6c0.6-0.4,1.5-0.6,2.5-0.9c1.5-0.4,3.4-1,3.8-2l1.9,0.6c-0.6,2-3.1,2.7-5.1,3.3
	C144.8,225.3,144.1,225.5,143.6,225.8z M171.4,227.8l1,1.7c3.1-1.7,3-7.5,2.9-11.4c0-0.6,0-1.2,0-1.7c0-3-1.2-5.1-2.3-6.9
	c-0.8-1.4-1.6-2.7-1.8-4.2c-0.2-1.5,0-2.6,0.7-3.5c1.4-1.8,4.8-2.4,7.3-2.6c1-0.1,2.8,0.1,4.8,0.4c4.6,0.6,9.3,1.2,10.7-1.2
	l-1.7-1.1c-0.8,1.3-5.8,0.6-8.8,0.3c-2.1-0.3-3.9-0.5-5.2-0.4c-3,0.3-6.8,0.9-8.7,3.3c-1,1.2-1.3,2.8-1.1,4.7
	c-0.6-1.3-1.4-2.5-2.2-3.3c-3.5-3.6-9.5-2.8-14.7-2.2c-2.5,0.3-4.8,0.6-6.6,0.4c-8.3-0.9-16-0.9-18.4,8.2c-0.4,1.5-1,3-1.6,4.5
	c-1.9,5-4.1,10.7,2.6,14.3c-0.1,0.4-0.4,0.8-0.6,1.1c-0.2,0.3-0.3,0.5-0.4,0.7l1.8,0.8c0-0.1,0.1-0.2,0.2-0.4
	c0.5-0.7,1.2-1.8,0.9-3.1L130,226l-0.4-0.2c-5.5-2.7-4.4-6.1-2.2-12.1c0.6-1.5,1.2-3.1,1.6-4.7c1.8-6.9,6.9-7.7,16.3-6.7
	c2,0.2,4.5-0.1,7.1-0.4c1.6-0.2,3.2-0.4,4.8-0.5c3,1.6,3.8,4.5,3.7,5.8l0,0.2l0.1,0.2c0.2,0.7-0.6,1.4-2.4,2.3
	c-1.2,0.6-2.2,1.2-2.3,2.2c0,0.4,0,0.9,0.6,1.4l0.2,0.2l0.3,0c0.6,0.1,1.3,0.2,2,0.3c3.3,0.6,7.4,1.4,9.5-1.8
	c0.9-1.3,1.1-2.7,0.9-4.2c0.4,0.9,0.9,1.7,1.4,2.5c1.1,1.8,2.1,3.5,2,5.9c0,0.5,0,1.1,0,1.8C173.3,221.2,173.5,226.7,171.4,227.8z
	 M167.3,211.1c-1.4,2.1-4.5,1.5-7.5,1c-0.3-0.1-0.6-0.1-0.9-0.2c0.2-0.1,0.4-0.2,0.6-0.3c1.6-0.9,4-2.2,3.4-4.5
	c0.1-1.5-0.6-3.8-2.3-5.7c2,0.2,3.7,0.8,4.9,2C167.1,205.2,168.8,208.8,167.3,211.1z M242.4,229l-0.5,1.9c-3.5-0.9-6.2-5.3-8.3-8.8
	c-0.4-0.7-0.8-1.3-1.2-1.9l1.7-1.1c0.4,0.6,0.8,1.2,1.2,1.9C237.1,224.2,239.7,228.3,242.4,229z M193.3,207.9
	c-1.6,0.5-3.9,1.6-4.9,3c-0.6,0.8-0.8,1.8-1.1,2.8c-0.3,0.9-0.5,1.9-1,2.9c-0.7,1.3-1.6,2.4-2.5,3.5c-1.3,1.6-2.6,3.2-2.9,5.1
	l-0.1,0.6L180,226c-2.3,0.6-2.5,1.8-2.7,4.1c-0.1,0.9-0.2,1.8-0.4,2.8c-0.3,1-0.8,2-1.3,3c-0.5,1-1.1,2.1-1.4,3.2l-1.9-0.5
	c0.4-1.3,1-2.5,1.6-3.6c0.5-0.9,1-1.8,1.2-2.6c0.2-0.8,0.3-1.6,0.4-2.5c0.2-2.2,0.4-4.6,3.6-5.7c0.6-2.1,1.9-3.8,3.2-5.4
	c0.8-1,1.7-2.1,2.3-3.2c0.4-0.7,0.6-1.6,0.9-2.4c0.3-1.2,0.6-2.4,1.5-3.5c1.7-2.2,4.9-3.4,5.9-3.7L193.3,207.9z M162.5,240.7l1.7,1
	l-0.2,0.4c-3.4,5.8-6.6,11.3-10.3,16.5c-0.4,0.6-0.9,1.2-1.4,1.7c-0.6,0.8-1.3,1.5-1.6,2.2c-0.1,0.2-0.2,0.6-0.3,1
	c-0.1,0.7-0.3,1.5-0.8,2.1c-0.7,0.9-1.4,1.6-2.2,2.2c-0.9,0.8-1.8,1.5-2.4,2.6l-1.7-1c0.8-1.3,1.8-2.2,2.8-3.1
	c0.7-0.6,1.4-1.2,1.9-1.9c0.2-0.3,0.3-0.8,0.4-1.3c0.1-0.5,0.2-1.1,0.5-1.5c0.5-0.9,1.2-1.8,1.9-2.6c0.5-0.5,0.9-1.1,1.3-1.6
	c3.6-5.2,6.8-10.6,10.2-16.4L162.5,240.7z M44.3,70.9c-10.8-6.1-18.5-12.8-27.5-20.5l1.3-1.5c8.9,7.7,16.5,14.3,27.1,20.3
	c8.3,4.7,17.4,9.2,24.4,12.6c5.7,2.8,19.5,8.5,29.5,12.7c5.7,2.4,10.2,4.3,12,5.1c1,0.5,5.6,2.3,11.9,4.8
	c21.2,8.5,60.7,24.2,67.1,28.6l-1.1,1.7c-6.2-4.2-47.1-20.5-66.7-28.4c-6.6-2.6-10.9-4.4-12-4.8c-1.8-0.8-6.5-2.8-12-5.1
	c-10-4.2-23.8-10-29.6-12.7C61.9,80.1,52.7,75.6,44.3,70.9z M334.1,181.5l0.1,2c-9,0.3-14,9.1-18,16.1l-0.7,1.2
	c-2.8,4.9-7.2,11.9-12.8,15.5l-1.1-1.7c5.2-3.4,9.4-10.1,12.1-14.8l0.7-1.2C318.7,191.2,324,181.8,334.1,181.5z M205.6,148.2
	l0.5-1.9c3.9,1.1,6.8,4.5,9.3,7.6c1.2,1.4,2.3,2.7,3.4,3.8c1.3,1.2,2.7,2.3,4,3.4c1.1,0.9,2.2,1.8,3.3,2.7c0.4,0.4,1.1,0.8,1.7,1.3
	c2.3,1.7,5.1,3.8,5.6,6l-1.9,0.5c-0.4-1.5-3-3.5-4.9-4.9c-0.7-0.5-1.3-1-1.8-1.4c-1-0.9-2.2-1.8-3.2-2.7c-1.4-1.1-2.8-2.3-4.1-3.5
	c-1.2-1.1-2.4-2.5-3.6-4C211.4,152.2,208.9,149.1,205.6,148.2z M130.2,156c-13.9-7.3-24.6-16.9-36-27.1c-3.6-3.2-7.4-6.6-11.2-9.8
	c-2.4-2-5.2-4.5-7.9-6.8c-2.4-2.1-4.7-4.1-6.6-5.7c-2.1-1.8-3.9-3.5-5.6-5.2c-1.7-1.7-3.4-3.3-5.4-5c-1.9-1.6-3.8-3.3-5.6-4.9
	c-2.6-2.3-5.3-4.7-7.9-6.8l1.3-1.6c2.7,2.2,5.4,4.6,8,6.9c1.8,1.6,3.7,3.3,5.6,4.9c2,1.7,3.8,3.4,5.5,5.1c1.7,1.6,3.4,3.4,5.5,5.1
	c1.9,1.6,4.2,3.6,6.6,5.7c2.7,2.3,5.5,4.8,7.9,6.8c3.9,3.3,7.6,6.6,11.3,9.9c11.3,10.1,21.9,19.6,35.6,26.8L130.2,156z M142.4,148.8
	c0.5,0.3,0.9,0.7,1.4,1c2.9,2.2,5.9,4.4,9,5.7l-0.8,1.8c-3.3-1.4-6.4-3.7-9.4-5.9c-0.5-0.3-0.9-0.7-1.4-1c-1.4-1-2.8-2-4.3-3.1
	c-3-2.1-6.2-4.4-9-6.8c-1.8-1.6-3.6-3.2-5.3-4.8c-2-1.9-4.2-3.9-6.3-5.7c-1.6-1.3-3.3-2.6-4.9-3.8c-2.1-1.6-4.2-3.2-6.3-5
	c-1-0.9-2.2-1.6-3.5-2.4c-1.6-1-3.2-2-4.5-3.3l1.5-1.4c1.1,1.2,2.6,2.1,4.1,3c1.3,0.8,2.6,1.6,3.7,2.6c2,1.7,4.1,3.4,6.2,4.9
	c1.6,1.2,3.3,2.5,4.9,3.9c2.2,1.8,4.4,3.8,6.4,5.8c1.7,1.6,3.5,3.2,5.2,4.7c2.7,2.4,5.8,4.5,8.8,6.6
	C139.6,146.8,141,147.8,142.4,148.8z"/>
</svg>
