<svg xmlns="http://www.w3.org/2000/svg" viewBox="0 0 145.86 170.76">
	<title>Smilodon californicus</title>
	<metadata>
		<phyloxml xmlns:xsi="http://www.w3.org/2001/XMLSchema-instance" xmlns="http://www.phyloxml.org" xsi:schemaLocation="http://www.phyloxml.org http://www.phyloxml.org/1.10/phyloxml.xsd">
			<phylogeny rooted="true" rerootable="false">
				<clade>
					<name>Animalia</name>
					<clade>
						<name>Chordata</name>
						<clade>
							<name>Mammalia</name>
							<clade>
								<name>Carnivora</name>
								<clade>
									<name>Feliformia</name>
									<clade>
										<name>Felidae</name>
										<clade>
											<name>Machairodontinae</name>
											<clade>
												<name>Smilodontini</name>
												<clade>
													<name>Smilodon</name>
												</clade>
											</clade>
										</clade>
									</clade>
								</clade>
							</clade>
						</clade>
					</clade>
				</clade>
			</phylogeny>
		</phyloxml>
	</metadata>
	<g class="outline">
		<path d="M475.2,241.85c5.07,0,8.86,1.89,8.71,7.88a40.64,40.64,0,0,1-1.64,10.63c-.75,3.45-.76,3.89.55,7.51,1,2.69-.28,4.57.81,7.74,1,.21.46,3,.83,3h0c1.18.46,2.25,2,3.29,3.44a10.62,10.62,0,0,1,1.91,7.19c-.11,2.42-1.1,5-3.78,5.81a9.42,9.42,0,0,1-2.65.42c-1.31,0-2-.36-2.69-.36a1.74,1.74,0,0,0-1.33.68,50.12,50.12,0,0,0-4.36,4.09c-1.81,1.69-2.61,3.53-4.16,5.33-2.36,2.75-4.67,2.68-4.95,3-1.57,1.65-1.38,3.61-4,4.1-.53.3-3.26.28-4.82.43a12,12,0,0,1-1.22.07c-1.16,0-2.33-.23-2.8-1.21-.52.17-.36,2.72-.33,4.5,0,2.1.75,2.27.41,5.65-.39,1.45-1.64.68-1.76,3.79,0,.95-2,1.09-2.34,1.77-.45,1,.38,1,.4,2.27.05,3.88,1.69,4.27,1,8.62a7,7,0,0,1-6.21,4.57c-1.52.12-5,5.51-7,8.08-3.45,4.54-9.73,11.82-15,16.06-4.35,3.5-6,4.33-10.62,7.36-.31.2-4.17,2.27-4.38,2.35L403.75,378a22.86,22.86,0,0,0-3.63,2.29,33,33,0,0,0-7.33,7c-.27.38,2.61,7.56,3.61,9.83s1.85,3.95,2.9,5.9c1.29,2.39,1.05,4.73.19,5.47a1.13,1.13,0,0,1-.56.14c-2.57,0-9.24-6.19-13.05-10-2.11-2.08-3.83-4.75-5.92-7.29-1.08-1.31-2-2.68-3-4.08-.71-1-3.21-4.88-3.4-4.92a17.34,17.34,0,0,1-6.37-2.35,44,44,0,0,1-4.91-3.32c-1.32-1.05-3.36-3.73-3.59-5.35.35.05.5.05,1,.11a3.59,3.59,0,0,1,.12-2.16,19.68,19.68,0,0,1,2,.47,6.72,6.72,0,0,1,.09-4.33c1.63,1,2.45,2.3,4.33,2.3h.22a67.65,67.65,0,0,1-4-12.71,95.25,95.25,0,0,1-.92-14.17c0-4.25.11-6.72-.08-9.16,0-.49-.87-.64-1.79-.64a8.27,8.27,0,0,0-2.38.3c-2.33,3.84-1.33,9.59-1.75,10.84-.38.09-.68.41-1.08.41h0c-1.37,0-2.73-2.67-3.71-2.67h-.15c-.77,0-2.45-4.1-2.62-6a28.33,28.33,0,0,1,0-6.7c.39-2.2,2.16-3.54,3.49-5.25a17.56,17.56,0,0,1,4.18-4.33,64.85,64.85,0,0,0,5.83-4.75c4.79-4.2,5.08-8.5,5.33-14.25.06-1.34,2.52-3.6,3-4.86.94-2.53.11-3.59,2.19-5.64,1.88-1.87,6.46-4.56,8.83-5.75s4.46-3.68,6.34-5.59c4-4.05,7.14-6.3,12.39-8.07,2.74-.93,5.46-1.78,8-2.76s5.23-2.07,7.87-3a48.49,48.49,0,0,0,12.32-6.37,31.82,31.82,0,0,1,13-5.87c4.55-1,8.58-2.83,13-4,5-1.34,14.44-4.9,21.41-4.9m0-2c-5.63,0-12.66,2.17-17.8,3.75-1.6.49-3,.91-4.13,1.22-2,.52-3.87,1.18-5.7,1.82a59.29,59.29,0,0,1-7.2,2.16A34,34,0,0,0,426.64,255a46.56,46.56,0,0,1-11.81,6.1c-1.88.66-3.79,1.41-5.63,2.13l-2.29.89c-1.83.7-3.72,1.33-5.72,2l-2.23.74c-5.27,1.78-8.72,4-13.18,8.57l-1.06,1.11a19.68,19.68,0,0,1-4.75,4.09c-2.49,1.26-7.22,4-9.34,6.11a7,7,0,0,0-2.22,4.51,8.76,8.76,0,0,1-.43,1.86,11.56,11.56,0,0,1-1,1.44c-1,1.29-2,2.62-2.09,4-.25,5.81-.59,9.27-4.65,12.83l-.43.38a55.64,55.64,0,0,1-5.21,4.22,17.85,17.85,0,0,0-4.28,4.32l-.34.44c-.31.39-.65.78-1,1.18a10,10,0,0,0-2.87,4.95,28.78,28.78,0,0,0,0,7.23c0,.08,1.29,7.34,4.33,7.77.16.15.37.38.53.55.89.95,2,2.13,3.61,2.13h.06a3.14,3.14,0,0,0,1.53-.46l.06,0,1-.22.36-1.07a8.91,8.91,0,0,0,.22-2.78c0-1.94,0-4.77,1-6.92a8.22,8.22,0,0,1,.91-.07c.06,1.3,0,2.71,0,4.49,0,1,0,2.07,0,3.31,0,1.58.05,9.71.95,14.54a52.16,52.16,0,0,0,2.27,8.24l-1.6-1-1,1.87a5.87,5.87,0,0,0-.62,2.45l-.94-.48-.72,2.26a3.69,3.69,0,0,0-.15.53l-1.43-.16.38,2.58c.34,2.3,2.76,5.37,4.31,6.61a46.92,46.92,0,0,0,5.16,3.49,18.79,18.79,0,0,0,6.27,2.44c.55.76,1.56,2.28,2.1,3.1l.75,1.12c1,1.45,2,2.87,3.09,4.24.74.88,1.44,1.81,2.12,2.71a44.7,44.7,0,0,0,3.94,4.73c10.65,10.54,13.41,10.54,14.46,10.54a3,3,0,0,0,1.61-.44l.13-.08.12-.1c1.78-1.52,1.89-4.93.27-7.94-1.15-2.13-2-3.85-2.83-5.75-1-2.18-2.76-6.75-3.31-8.52a31.79,31.79,0,0,1,6.34-5.88l.72-.51a15.45,15.45,0,0,1,2.53-1.58l3.34-1.38c.42-.17,4.41-2.32,4.73-2.53,1.21-.8,2.21-1.45,3.12-2a73.44,73.44,0,0,0,7.66-5.44c5.82-4.68,12.39-12.52,15.35-16.41.43-.55.92-1.24,1.45-2,1.12-1.54,3.4-4.71,4.34-5.34,4.9-.52,7.52-4.37,7.78-6.22a11.34,11.34,0,0,0-.43-5.88,9.75,9.75,0,0,1-.54-3.09,4.24,4.24,0,0,0-.2-1.25,3.15,3.15,0,0,0,2.13-2.68,2.93,2.93,0,0,1,.19-1.17,1.56,1.56,0,0,1,.17-.15,3.82,3.82,0,0,0,1.34-2l0-.16,0-.16a12,12,0,0,0-.2-4.42,6.29,6.29,0,0,1-.2-1.47c0-.26,0-.53,0-.82s0-.32,0-.51a8.23,8.23,0,0,0,1.16.08,12.48,12.48,0,0,0,1.41-.08c.5-.05,1.18-.08,1.84-.11a13.2,13.2,0,0,0,3.39-.39,5.62,5.62,0,0,0,4-3.3,7.64,7.64,0,0,1,.61-1,10.15,10.15,0,0,0,5.29-3.38A27.79,27.79,0,0,0,474,304.1a15.54,15.54,0,0,1,2.23-2.78c.42-.4.9-.88,1.4-1.39a25.13,25.13,0,0,1,2.69-2.5l.19-.12.15-.16,0,0,.3.06a9.47,9.47,0,0,0,2.24.28,11.32,11.32,0,0,0,3.2-.5c3.1-.89,5.05-3.74,5.23-7.64a12.7,12.7,0,0,0-2.3-8.46l-.26-.37a14.08,14.08,0,0,0-2.85-3.17,4.61,4.61,0,0,0-.92-2.94,9.37,9.37,0,0,1-.17-2.83,10.36,10.36,0,0,0-.48-4.35c-1.17-3.22-1.15-3.28-.47-6.4.07-.34.17-.71.28-1.14a38.9,38.9,0,0,0,1.4-9.87,9.43,9.43,0,0,0-2.39-7.12c-1.82-1.86-4.62-2.81-8.32-2.81Z" transform="translate(-345.84 -239.85)"/></g><g class="skull"><path d="M385.52,399a42.83,42.83,0,0,1-3.8-4.57c-.68-.91-1.4-1.85-2.15-2.76-1.08-1.32-2-2.7-3-4.12-.17-.24-.44-.64-.75-1.11-.75-1.13-2.1-3.17-2.48-3.63l-.3-.06a17.2,17.2,0,0,1-6.09-2.32,46.28,46.28,0,0,1-5-3.36c-1.36-1.09-3.5-3.84-3.77-5.66l-.09-.65,1,.11a5.11,5.11,0,0,1,.27-1.74l.15-.57.53.27c.08,0,.42.08.66.13l.49.08a6.8,6.8,0,0,1,.33-3.87l.26-.46.44.29a12.88,12.88,0,0,1,1.3.95,4.83,4.83,0,0,0,2.26,1.23l-.1-.24a64.28,64.28,0,0,1-3.63-11.85,93.1,93.1,0,0,1-.93-14.26c0-1.23,0-2.32,0-3.3,0-2.39,0-4.11-.08-5.78-.32-.37-2.65-.2-3.34,0-1.49,2.56-1.48,6-1.48,8.3a8.65,8.65,0,0,1-.14,2.3l-.09.26-.28.06a1.64,1.64,0,0,0-.33.16,1.78,1.78,0,0,1-.85.27c-.93,0-1.81-.87-2.55-1.66-.34-.36-1-1-1.19-1a.84.84,0,0,1-.67-.17c-1-.73-2.44-4.45-2.6-6.24a27.63,27.63,0,0,1,0-6.84,8.67,8.67,0,0,1,2.51-4.21c.37-.41.74-.82,1.08-1.26l.34-.44a16.6,16.6,0,0,1,3.94-4,57.08,57.08,0,0,0,5.36-4.33l.43-.38c4.51-4,4.9-7.86,5.16-13.89,0-.94.92-2.08,1.78-3.18a9.85,9.85,0,0,0,1.23-1.83,10.15,10.15,0,0,0,.52-2.17,5.46,5.46,0,0,1,1.79-3.66c2.06-2,6.93-4.82,9-5.84a21.11,21.11,0,0,0,5.16-4.4l1-1.09c4.28-4.36,7.57-6.5,12.59-8.2l2.22-.74c2-.66,3.93-1.29,5.78-2,.75-.28,1.52-.58,2.3-.89,1.83-.72,3.73-1.46,5.58-2.11a48.15,48.15,0,0,0,12.2-6.3,32,32,0,0,1,13.15-6,61,61,0,0,0,7.39-2.21c1.81-.63,3.68-1.28,5.6-1.79,1.18-.32,2.57-.75,4.18-1.24,7.94-2.44,18.82-5.79,23.9-1.94,1.85,1.4,2.75,3.64,2.67,6.66a37.44,37.44,0,0,1-1.35,9.52c-.12.45-.22.84-.3,1.2-.73,3.35-.76,3.68.53,7.23a9.08,9.08,0,0,1,.4,3.77,9.81,9.81,0,0,0,.35,3.77c.68.4.72,1.55.75,2.41,0,.18,0,.4,0,.54a9.64,9.64,0,0,1,3.1,3.18l.27.36a11.2,11.2,0,0,1,2,7.51c-.15,3.27-1.66,5.56-4.14,6.27a8.51,8.51,0,0,1-4.71.2c-.81-.18-1.12-.25-1.74.4l-.09.07a25.16,25.16,0,0,0-2.92,2.69c-.5.5-1,1-1.37,1.35a17.91,17.91,0,0,0-2.44,3,24.37,24.37,0,0,1-1.68,2.26,8.68,8.68,0,0,1-4.66,2.95c-.14,0-.32.09-.31.06a7.24,7.24,0,0,0-1.11,1.65,4.13,4.13,0,0,1-3.08,2.57,11.09,11.09,0,0,1-3,.34c-.69,0-1.37.07-1.92.12-1.35.13-2.93.15-3.9-.64-.06.74,0,1.94,0,2.68l0,.81a8,8,0,0,0,.23,1.76,10.62,10.62,0,0,1,.16,4,2.37,2.37,0,0,1-.86,1.28c-.42.35-.82.69-.88,2.4,0,.85-.9,1.22-1.59,1.52a2.44,2.44,0,0,0-.79.43c-.15.33-.11.4.05.69a2.63,2.63,0,0,1,.39,1.37,11.11,11.11,0,0,0,.61,3.51,9.82,9.82,0,0,1,.38,5.19,7.4,7.4,0,0,1-6.66,5c-1,.07-3.61,3.74-5.19,5.94-.53.72-1,1.4-1.43,1.94-2.92,3.84-9.39,11.56-15.1,16.15a72.35,72.35,0,0,1-7.53,5.35c-.91.58-1.92,1.23-3.14,2-.3.21-4.18,2.29-4.46,2.4l-3.35,1.38a15.65,15.65,0,0,0-2.83,1.75l-.7.49a32.61,32.61,0,0,0-7.13,6.79,88.47,88.47,0,0,0,3.57,9.45c.86,1.94,1.72,3.69,2.89,5.86,1.4,2.6,1.13,5.19,0,6.13a1.42,1.42,0,0,1-.77.2C396.81,409.09,392.3,405.7,385.52,399Zm67.86-87.66c.49,1,2.14,1,3.52.87.55-.06,1.26-.09,2-.13a14.23,14.23,0,0,0,2.67-.25l.15-.06c1.47-.27,1.88-1,2.45-2.08a8.37,8.37,0,0,1,1.26-1.86,1.53,1.53,0,0,1,.78-.34,7.59,7.59,0,0,0,4.16-2.63,23.57,23.57,0,0,0,1.62-2.18,18.15,18.15,0,0,1,2.58-3.19c.39-.37.85-.83,1.34-1.32a25.35,25.35,0,0,1,3-2.79,2.37,2.37,0,0,1,2.65-.65,7.47,7.47,0,0,0,4.21-.18c2.91-.83,3.36-4,3.42-5.35a10.23,10.23,0,0,0-1.81-6.87l-.27-.37a9.15,9.15,0,0,0-2.7-2.86l-.11,0-.18-.15c-.29-.22-.3-.6-.32-1.28,0-.36-.05-1.46-.27-1.59l-.27-.06-.09-.27a10.72,10.72,0,0,1-.47-4.34,8.12,8.12,0,0,0-.34-3.38c-1.37-3.78-1.33-4.3-.56-7.8q.12-.54.3-1.23a36.64,36.64,0,0,0,1.32-9.3c.07-2.72-.67-4.62-2.27-5.83-4.68-3.54-15.71-.15-23,2.1-1.62.49-3,.92-4.21,1.24-1.89.51-3.74,1.15-5.53,1.77a61.35,61.35,0,0,1-7.51,2.25A31.23,31.23,0,0,0,428.11,257a49.17,49.17,0,0,1-12.45,6.44c-1.84.65-3.73,1.39-5.55,2.1l-2.31.9c-1.88.72-3.79,1.35-5.82,2l-2.22.74c-4.91,1.66-8,3.67-12.2,7.95l-1,1.08a21.81,21.81,0,0,1-5.43,4.6c-2.46,1.24-6.92,3.89-8.71,5.66a4.45,4.45,0,0,0-1.5,3.1,11.14,11.14,0,0,1-.57,2.36,9.69,9.69,0,0,1-1.38,2.1,7.19,7.19,0,0,0-1.57,2.61c-.24,5.45-.44,10.16-5.5,14.6l-.43.38a58.35,58.35,0,0,1-5.45,4.41,15.23,15.23,0,0,0-3.72,3.79l-.34.44c-.36.45-.74.88-1.13,1.31a7.86,7.86,0,0,0-2.27,3.72,26.6,26.6,0,0,0,0,6.57c.16,1.82,1.6,5.07,2.17,5.5.69-.07,1.34.61,2,1.33s1.31,1.36,1.8,1.34a1,1,0,0,0,.39-.15,1.71,1.71,0,0,1,.27-.14,14.78,14.78,0,0,0,.05-1.76c0-2.45,0-6.14,1.71-9,.32-.52,3.14-.63,4-.42s1,.64,1.07,1c.13,1.75.12,3.5.1,5.91,0,1,0,2.06,0,3.29a93.17,93.17,0,0,0,.91,14.08,62.55,62.55,0,0,0,3.59,11.67l.61,1.6-.69,0a5,5,0,0,1-3.64-1.48c-.23-.18-.45-.36-.7-.53a7.15,7.15,0,0,0,.15,3.4l.45,1.39-1.2-.82a7.91,7.91,0,0,0-1.07-.23l-.34-.06a2.52,2.52,0,0,0,0,1.36l.34.8-.87-.11-.26,0a12.63,12.63,0,0,0,3.23,4.39,42.7,42.7,0,0,0,4.85,3.28,16.31,16.31,0,0,0,5.78,2.2l.45.09c.28.06.34.08,3,4l.73,1.1c.95,1.4,1.9,2.76,2.95,4.05.77.92,1.49,1.87,2.18,2.79a41,41,0,0,0,3.71,4.46c8.16,8.08,12.11,10.3,12.93,9.8.67-.57.87-2.68-.3-4.85s-2.06-4-2.92-5.94c0-.09-4.16-9.5-3.55-10.33a33.67,33.67,0,0,1,7.45-7.13l.69-.49a16.82,16.82,0,0,1,3-1.86l3.35-1.37c.24-.11,4-2.12,4.29-2.31,1.22-.81,2.24-1.46,3.15-2a71.13,71.13,0,0,0,7.44-5.29c4.93-4,11.06-10.88,14.94-16,.41-.54.89-1.21,1.41-1.93,2.63-3.65,4.59-6.24,5.92-6.35a6.53,6.53,0,0,0,5.75-4.14,8.83,8.83,0,0,0-.35-4.75,12.35,12.35,0,0,1-.65-3.8,1.59,1.59,0,0,0-.27-.89,1.56,1.56,0,0,1-.08-1.59,2.25,2.25,0,0,1,1.3-.94c.41-.18,1-.42,1-.64.08-2,.6-2.59,1.23-3.12a1.39,1.39,0,0,0,.53-.7,9.87,9.87,0,0,0-.15-3.64,9.12,9.12,0,0,1-.26-1.95l0-.8c-.07-2.79,0-3.95.7-4.19l.42-.13Z" transform="translate(-345.84 -239.85)"/><path d="M434.06,298.65l.95-.3a3.35,3.35,0,0,0-1-1.58c-.56-.64-1.16-1.21-1.68-1.7l-.76-.73A7.17,7.17,0,0,0,430,293.1c-.26-.17-.55-.35-.92-.62s-.84-.65-1.24-1a11.21,11.21,0,0,0-4.56-2.56l-.25,1a10.18,10.18,0,0,1,4.18,2.37c.41.32.83.66,1.28,1s.7.48,1,.66a6.84,6.84,0,0,1,1.39,1.1c.23.24.5.49.78.75.51.49,1.08,1,1.64,1.66A2.64,2.64,0,0,1,434.06,298.65Z" transform="translate(-345.84 -239.85)"/><path d="M394,315.15a2,2,0,0,0,1.45-.61c1.43-1.49,1.05-5.17.88-6a9.41,9.41,0,0,1-.17-1,5,5,0,0,0-.41-1.47,4.73,4.73,0,0,1-.38-3l-1-.16a5.76,5.76,0,0,0,.45,3.52,4.07,4.07,0,0,1,.34,1.22c0,.25.07.56.18,1.08.27,1.32.3,4.15-.62,5.11a1,1,0,0,1-1,.28l-.17,1Z" transform="translate(-345.84 -239.85)"/><path d="M461.54,305.5h1c0-.34,0-.69,0-1a17.57,17.57,0,0,1,.32-4.5,8.85,8.85,0,0,1,1.3-2.51c.27-.42.55-.84.78-1.26s.52-1.09.77-1.68c.13-.32.26-.65.41-1a8.06,8.06,0,0,1,2.41-2.66,9.61,9.61,0,0,0,2.47-2.62,8.94,8.94,0,0,0,.82-3,8.75,8.75,0,0,1,.67-2.56l.81-1.56a31.78,31.78,0,0,0,3.25-7.73,12.59,12.59,0,0,1,.62-2,18.61,18.61,0,0,0,.7-2.17,13.69,13.69,0,0,0,.31-2.45,15.55,15.55,0,0,1,.22-2c.05-.22.11-.44.17-.66a5.75,5.75,0,0,0,.31-1.62,7.37,7.37,0,0,1,.27-1.9,8.8,8.8,0,0,1,.72-1.44,8.91,8.91,0,0,0,.9-1.86,22.09,22.09,0,0,0,.67-4.41,15.16,15.16,0,0,1,1.06-5.35l-.9-.45a15.89,15.89,0,0,0-1.16,5.72,19.41,19.41,0,0,1-.63,4.19,7.91,7.91,0,0,1-.8,1.66,8.72,8.72,0,0,0-.8,1.62,8.35,8.35,0,0,0-.33,2.18,5.55,5.55,0,0,1-.26,1.38,6.37,6.37,0,0,0-.2.75,16,16,0,0,0-.24,2.16,12.81,12.81,0,0,1-.28,2.27,16.68,16.68,0,0,1-.67,2.06,13.39,13.39,0,0,0-.66,2.13,30.92,30.92,0,0,1-3.15,7.48c-.28.53-.56,1.06-.82,1.57a9.63,9.63,0,0,0-.77,2.85,7.83,7.83,0,0,1-.71,2.63,8.62,8.62,0,0,1-2.23,2.34,8.83,8.83,0,0,0-2.68,3l-.43,1a13.81,13.81,0,0,1-.72,1.59c-.21.4-.48.79-.74,1.19a9.81,9.81,0,0,0-1.43,2.81,18.45,18.45,0,0,0-.35,4.76C461.53,304.82,461.54,305.16,461.54,305.5Z" transform="translate(-345.84 -239.85)"/><path d="M479.86,295.8c3.58-2.69,2.56-5.49,1.33-7.9-.4-.78-.13-1.36.24-2.15a5.75,5.75,0,0,0,.61-1.85,8.59,8.59,0,0,0-.05-2.66,2,2,0,0,0-.52-.84.73.73,0,0,1-.27-.81,1.19,1.19,0,0,1,.81-.93,2.55,2.55,0,0,1,2.4.45l.61-.79a3.54,3.54,0,0,0-3.37-.6,2.22,2.22,0,0,0-1.44,1.69,1.71,1.71,0,0,0,.54,1.69.89.89,0,0,1,.28.4,7.89,7.89,0,0,1,0,2.29,5,5,0,0,1-.52,1.53,3.1,3.1,0,0,0-.23,3c1.19,2.32,1.93,4.42-1,6.65Z" transform="translate(-345.84 -239.85)"/><path d="M442.27,307.18a3.84,3.84,0,0,0,2.05-.83c.3-.2.7-.43,1.13-.68a10.71,10.71,0,0,0,2.91-2.05,6.46,6.46,0,0,0,1.09-2.78A7.87,7.87,0,0,1,450,299c.48-1,1.82-1.75,3-2.45l.72-.43a7.77,7.77,0,0,1,3.84-.81h.37a3.91,3.91,0,0,0,2-.43,1.8,1.8,0,0,0,.69-.69.67.67,0,0,1,.43-.39l-.3-.95a1.6,1.6,0,0,0-1,.81.8.8,0,0,1-.31.34,3,3,0,0,1-1.53.31h-.38a8.7,8.7,0,0,0-4.32,1l-.71.42c-1.3.77-2.78,1.64-3.4,2.87a8.8,8.8,0,0,0-.62,2.05,5.46,5.46,0,0,1-.89,2.36A10.51,10.51,0,0,1,445,304.8c-.46.26-.88.5-1.2.72-1.51,1-1.75.8-2.94-.16l-.58-.47c-2-1.65-3.88-3.21-6.89-3.06a27.9,27.9,0,0,0-3.2.41,25.82,25.82,0,0,1-3.26.42,14.16,14.16,0,0,1-6.78-1.4,6.9,6.9,0,0,0-2.44-2c-.37-.24-.72-.46-1-.64a4.51,4.51,0,0,1-.42-.37c-.47-.44-.76-.62-1.9-.57a2.57,2.57,0,0,0-1.8.56l-.5.33a16.78,16.78,0,0,0-3.44,2.74c-.2.25-.4.52-.61.8a6.41,6.41,0,0,1-2.12,2.12,4,4,0,0,1-3.28.24,5.62,5.62,0,0,1-3-3.11,27.81,27.81,0,0,1-1.45-4.8,5.14,5.14,0,0,1,.91-4.67c.24-.39.5-.81.77-1.31.56-1,1-2.11,1.55-3.27,1.61-3.68,3.29-7.49,7.27-8.31a7.58,7.58,0,0,1,4.32.51l.42.14c.3.1.53.16.73.21a2,2,0,0,1,1.34.86c.2.22.36.45.53.67a5.41,5.41,0,0,0,1.27,1.36l.57-.82a4.31,4.31,0,0,1-1-1.13c-.18-.24-.37-.5-.58-.74a3,3,0,0,0-1.85-1.17c-.18-.05-.4-.1-.67-.19l-.42-.14a8.67,8.67,0,0,0-4.83-.54c-4.49.92-6.35,5.16-8,8.89-.5,1.14-1,2.22-1.5,3.19-.27.48-.52.89-.75,1.27a6.08,6.08,0,0,0-1,5.39,28.86,28.86,0,0,0,1.51,5,6.6,6.6,0,0,0,3.62,3.66,5,5,0,0,0,4.07-.28,7.46,7.46,0,0,0,2.48-2.42,9.46,9.46,0,0,1,.58-.76,15.24,15.24,0,0,1,3.21-2.54l.52-.35a1.68,1.68,0,0,1,1.27-.38c.82,0,.89,0,1.17.3.13.12.28.26.5.43s.65.44,1.06.7c.77.48,2,1.22,2.1,1.69l.07.22.21.09a15.29,15.29,0,0,0,7.41,1.56,27,27,0,0,0,3.38-.43,23.78,23.78,0,0,1,3.08-.4c2.64-.12,4.29,1.24,6.21,2.83l.58.47A3.4,3.4,0,0,0,442.27,307.18Z" transform="translate(-345.84 -239.85)"/><path d="M415,279.17a34,34,0,0,0-.76-6.71l-1,.21a32.65,32.65,0,0,1,.74,6.5Z" transform="translate(-345.84 -239.85)"/><path d="M403.09,283.79a6.38,6.38,0,0,0,0-2.59,3.23,3.23,0,0,1,0-1.64,7.06,7.06,0,0,0,.27-3.14,4.9,4.9,0,0,1,.49-3.21l-.83-.55a5.75,5.75,0,0,0-.66,3.82,6.12,6.12,0,0,1-.2,2.71,4.06,4.06,0,0,0-.06,2.16,5.45,5.45,0,0,1,0,2.21Z" transform="translate(-345.84 -239.85)"/><path d="M465.21,308.18l1,0a8.53,8.53,0,0,0-.88-3.26q-.24-.54-.45-1.11a15.08,15.08,0,0,0-.79-1.6,10.85,10.85,0,0,1-1.13-2.5l-1-.18c-.11.58.39,1.58,1.24,3.15a14.81,14.81,0,0,1,.73,1.47c.14.4.31.78.47,1.16A7.55,7.55,0,0,1,465.21,308.18Z" transform="translate(-345.84 -239.85)"/><path d="M481.71,293.74c.08-1.26-1.27-2.75-2.08-3.54-1.3-1.25-3.1-2.47-4.14-2.36l.1,1c.51-.06,2,.78,3.35,2.09,1.11,1.08,1.81,2.16,1.77,2.75Z" transform="translate(-345.84 -239.85)"/><path d="M437.36,319.71l.92-.4a23.25,23.25,0,0,0-4.16-6.29l-.7-.84a13.49,13.49,0,0,0-1.81-1.76,22.43,22.43,0,0,1-1.71-1.58c-.48-.5-1.21-1.19-1.92-1.85-.47-.44-.92-.86-1.23-1.17a9.1,9.1,0,0,0-1.14-1.42,6.34,6.34,0,0,1-1.2-1.58l-.93.35a6.57,6.57,0,0,0,1.39,1.91,8.52,8.52,0,0,1,1.05,1.29l.08.11c.32.32.79.76,1.3,1.24s1.41,1.33,1.88,1.81a21.83,21.83,0,0,0,1.78,1.65,12.39,12.39,0,0,1,1.69,1.64l.71.84A22.26,22.26,0,0,1,437.36,319.71Z" transform="translate(-345.84 -239.85)"/><path d="M410.94,322.44a9.83,9.83,0,0,0,3.22-3.67,11.66,11.66,0,0,1,2.18-2.84c.38-.3.74-.61,1.08-.91a12.93,12.93,0,0,1,2.75-2,10.36,10.36,0,0,1,4.95-.7h1.09v-1h-1.07a11.27,11.27,0,0,0-5.42.8,14,14,0,0,0-3,2.14c-.34.3-.69.6-1.06.9a12.55,12.55,0,0,0-2.4,3.08,9.17,9.17,0,0,1-2.84,3.32Z" transform="translate(-345.84 -239.85)"/><path d="M416.26,326.15a4.14,4.14,0,0,0,.67-1.37l.12-.36c.94-2.63,2.21-5.51,5.34-6.48a10.78,10.78,0,0,1,4.13,0l.93.1,1.84.13a25.74,25.74,0,0,1,4.34.51l.37.08a10.93,10.93,0,0,1,4.1,1.54c.24.17.46.35.69.53a6,6,0,0,0,3.88,1.7,7,7,0,0,0,2.49-.69,4.53,4.53,0,0,1,3.07-.52,2.93,2.93,0,0,1,1.08,1c.65.78,1.54,1.85,3,1.14l-.44-.9c-.69.33-1.06,0-1.8-.88a3.52,3.52,0,0,0-1.55-1.27,5.39,5.39,0,0,0-3.75.55,6.51,6.51,0,0,1-2.13.61A5.09,5.09,0,0,1,439.4,320l-.7-.54a11.66,11.66,0,0,0-4.47-1.71l-.37-.09a27.23,27.23,0,0,0-4.5-.53l-1.82-.13-.91-.1a11.92,11.92,0,0,0-4.54.07c-3.56,1.11-5,4.24-6,7.1-.05.13-.09.26-.13.38a3.15,3.15,0,0,1-.5,1.06Z" transform="translate(-345.84 -239.85)"/><path d="M390.82,333.3a4.71,4.71,0,0,0,2.06-.6,7,7,0,0,1,1.28-.51c1.27-.35,2.95-.68,5.13-1A18.92,18.92,0,0,1,402,331a20.33,20.33,0,0,0,2.77-.16,10,10,0,0,0,2-.58,7.94,7.94,0,0,1,2.42-.58,16.64,16.64,0,0,1,5.6.84c.34.1.65.22.94.33,1.13.44,2.19.85,3.27-1a12.08,12.08,0,0,0,.23-5.32,2.92,2.92,0,0,0-2.12-2.37l-.53-.22c-2.5-1.14-4.15-1.88-4.93-4.7a4,4,0,0,0-1.53-2.36c-.22-.19-.47-.41-.77-.7a7.82,7.82,0,0,0-1.66-1.09c-.4-.22-.78-.43-1.09-.64l-.46-.33a12.2,12.2,0,0,1-1.6-1.25,16.2,16.2,0,0,0-1.71-1.43c-.37-.28-.74-.57-1.13-.9a3.59,3.59,0,0,1-1.23-4.07l0-.11a2.7,2.7,0,0,1,.16-.48.44.44,0,0,1-.41.16l.14-1-.44.14a2.16,2.16,0,0,0-.44,1.08,4.53,4.53,0,0,0,1.55,5c.4.35.79.65,1.18.94a15.27,15.27,0,0,1,1.6,1.35,13.25,13.25,0,0,0,1.74,1.36l.45.32a13.36,13.36,0,0,0,1.19.71,7,7,0,0,1,1.44.93c.31.3.58.54.81.74a2.89,2.89,0,0,1,1.22,1.87c.91,3.26,2.93,4.18,5.49,5.34l.55.23a2,2,0,0,1,1.55,1.72,11.85,11.85,0,0,1-.15,4.56c-.64,1.13-.94,1-2,.59-.31-.12-.65-.25-1-.36a17.3,17.3,0,0,0-5.92-.88,8.63,8.63,0,0,0-2.7.64,9.79,9.79,0,0,1-1.85.53A19.51,19.51,0,0,1,402,330a18.83,18.83,0,0,0-2.87.18,52.75,52.75,0,0,0-5.23,1.05,8.26,8.26,0,0,0-1.45.58,2.93,2.93,0,0,1-2.28.4,4.44,4.44,0,0,1-1.47-.83,4.05,4.05,0,0,0-2.49-1h0c-1.07,0-3.22.62-3.6,1.67l.94.34c.14-.4,1.63-1,2.69-1a3.15,3.15,0,0,1,1.91.84,5.48,5.48,0,0,0,1.78,1A3.18,3.18,0,0,0,390.82,333.3Z" transform="translate(-345.84 -239.85)"/><path d="M382.87,333v-1a44,44,0,0,1-10.09-.95l-1-.26a17.42,17.42,0,0,0-5.43-.79,12.74,12.74,0,0,0-1.87.33,10.75,10.75,0,0,1-2.08.32v-.13c-.24-3.74,0-5.73.64-5.94l.3-.09.05-.32a4.38,4.38,0,0,1,.67-1.55,7.15,7.15,0,0,0,.71-1.47,11.89,11.89,0,0,0,.38-2.13c.07-.54.13-1,.24-1.53a40.51,40.51,0,0,1,2.11-6.81l.71-1.68c.93-2.23,1.9-4.53,2.68-6.82a14.27,14.27,0,0,1,3.3-5.65l.14-.15v-.06c.21-.26.83-.95,1.18-1.33s.61-.67.69-.77c2.88-2.37,5-4.43,6.52-9.07l-.95-.3c-1.41,4.41-3.39,6.28-6.26,8.64l-.13.16-.61.66a17.63,17.63,0,0,0-1.37,1.6,15.25,15.25,0,0,0-3.46,5.95c-.76,2.25-1.73,4.54-2.66,6.75l-.71,1.69a42.3,42.3,0,0,0-2.15,7,14.94,14.94,0,0,0-.26,1.63,11.31,11.31,0,0,1-.35,2,5.66,5.66,0,0,1-.62,1.26,5.83,5.83,0,0,0-.74,1.64c-1.32.8-1.24,3.92-1.05,6.82l.06,1,.45,0a9.33,9.33,0,0,0,2.81-.34,12.12,12.12,0,0,1,1.72-.3,16.52,16.52,0,0,1,5.1.76l1.05.26A44.75,44.75,0,0,0,382.87,333Z" transform="translate(-345.84 -239.85)"/><path d="M367.12,301.5a25.81,25.81,0,0,1,4.53-6.11,21.49,21.49,0,0,0,3.16-3.35c.28-.34.56-.69.87-1.05a23.78,23.78,0,0,1,4.27-4q.75-.53,1.5-1a20.19,20.19,0,0,0,3.65-2.86c.57-.42,1.21-.85,1.81-1.26A22.33,22.33,0,0,0,389,280.3c.37-.32.75-.69,1.15-1.06a14.61,14.61,0,0,1,3-2.39c.42-.23.83-.43,1.22-.63a19.11,19.11,0,0,0,3.44-2,4.89,4.89,0,0,1,1.85-.77,6.69,6.69,0,0,0,2.15-.85l-.55-.83a5.83,5.83,0,0,1-1.85.72,5.79,5.79,0,0,0-2.21.93,18.07,18.07,0,0,1-3.27,1.93l-1.25.63a15.18,15.18,0,0,0-3.2,2.56c-.38.36-.76.71-1.12,1a20,20,0,0,1-2,1.46c-.61.42-1.26.86-1.92,1.35a19.22,19.22,0,0,1-3.54,2.77c-.51.34-1,.68-1.52,1a24.78,24.78,0,0,0-4.46,4.19c-.31.36-.59.72-.87,1.06a20.79,20.79,0,0,1-3,3.21,26.62,26.62,0,0,0-4.77,6.4Z" transform="translate(-345.84 -239.85)"/><path d="M439.32,324.35a3.38,3.38,0,0,0,2.4-1l-.7-.72c-1.42,1.38-3.14.37-3.63,0-1.33-.92-2.34-2.72-1.73-4.14l-.91-.39c-.85,2,.43,4.22,2.07,5.36A4.47,4.47,0,0,0,439.32,324.35Z" transform="translate(-345.84 -239.85)"/><path d="M429,333.77l0-.21c.58-2.66,1-4.59,3.78-5.41l-.29-1c-3.35,1-3.89,3.5-4.46,6.16l-.05.21Z" transform="translate(-345.84 -239.85)"/><path d="M386.4,370a5.14,5.14,0,0,0,3-.94,9.53,9.53,0,0,1,.91-.51c.49-.24,1-.44,1.45-.63a13.74,13.74,0,0,0,2.61-1.29c2.73-1.84,5.56-3.86,7.44-6.69a22.34,22.34,0,0,0,1.22-2.18c.81-1.6,1.58-3.11,3.09-3.89a8.06,8.06,0,0,1,1.23-.44,5.11,5.11,0,0,0,2.61-1.33,4.4,4.4,0,0,0,.48-2.88l0-.55.76-.05a5.31,5.31,0,0,0,3.78-1.29,6,6,0,0,0,1.26-2.27,3.91,3.91,0,0,1,.83-1.57c.32-.31.61-.56.87-.79a4.49,4.49,0,0,0,1.94-3.29l.06-.48c.22-1.62.23-1.75,1.55-2.73,2.19-1.63,2.35-3.6,2.51-5.68.05-.62.1-1.27.21-1.94s.14-1.18.2-1.83a14.87,14.87,0,0,1,.59-3.58,10.2,10.2,0,0,1,1.78-3,18.15,18.15,0,0,0,1.62-2.4l-.87-.48a18.23,18.23,0,0,1-1.54,2.27,11.22,11.22,0,0,0-1.93,3.24,16,16,0,0,0-.65,3.83c-.05.62-.11,1.23-.19,1.76-.11.72-.16,1.38-.21,2-.17,2.09-.29,3.59-2.12,5-1.6,1.18-1.7,1.6-1.94,3.4l-.06.47a3.55,3.55,0,0,1-1.6,2.67c-.28.24-.59.51-.92.83a4.69,4.69,0,0,0-1.07,2,5.1,5.1,0,0,1-1,1.91,4.45,4.45,0,0,1-3.13,1c-.42,0-.84.05-1.25.11l-.41.06,0,.41a9.81,9.81,0,0,0,0,1.07,3.81,3.81,0,0,1-.28,2.23,4.67,4.67,0,0,1-2.1,1,8.64,8.64,0,0,0-1.4.51c-1.8.93-2.68,2.66-3.52,4.32a21.1,21.1,0,0,1-1.16,2.09c-1.78,2.67-4.52,4.63-7.17,6.41a13.26,13.26,0,0,1-2.42,1.19c-.5.21-1,.41-1.52.66s-.68.37-1,.55a4.24,4.24,0,0,1-2.65.8l0,1Z" transform="translate(-345.84 -239.85)"/><path d="M392.36,387.69l.86-.51a20.37,20.37,0,0,1-1.06-2.23c-.26-.61-.53-1.25-.86-1.92a53.74,53.74,0,0,1-2.6-6.62,159.94,159.94,0,0,1-5.79-22.18,55.32,55.32,0,0,1-.19-12.94c.22-2.62.55-5.54.88-8.37l.1-.86-1-.12-.1.87c-.33,2.83-.67,5.77-.88,8.4a55.76,55.76,0,0,0,.19,13.18,161.25,161.25,0,0,0,5.83,22.32,54.43,54.43,0,0,0,2.65,6.76c.32.65.59,1.28.84,1.87A20.67,20.67,0,0,0,392.36,387.69Z" transform="translate(-345.84 -239.85)"/><path d="M427.85,351.56a56.51,56.51,0,0,1,5-3.44c2.9-1.86,5.9-3.78,8.23-6.61a43.89,43.89,0,0,0,4.55-6.65c1-1.92,2.45-5.75,2.27-8.23l-1,.07c.15,2.05-1,5.58-2.14,7.69a43.6,43.6,0,0,1-4.45,6.49c-2.23,2.7-5,4.5-8,6.4a57.06,57.06,0,0,0-5,3.5Z" transform="translate(-345.84 -239.85)"/><path d="M453.15,312.26c.17-.61.36-1.16.55-1.69a10.52,10.52,0,0,0,.84-4.27c0-.38-.05-.76-.09-1.13a13.27,13.27,0,0,1-.08-1.66c.1-3.05.42-3.55.49-3.63.67-.52,1.2-.57,1.54-.13a3.94,3.94,0,0,1,.35,2.86c-.61,1.44-1.85,4.92-.33,6l.57-.83c-.59-.4-.31-2.4.68-4.76a4.82,4.82,0,0,0-.49-3.86c-.7-.9-1.8-.91-2.95,0-.36.29-.75,1-.86,4.38a14.73,14.73,0,0,0,.09,1.78c0,.36.06.72.08,1.08a9.68,9.68,0,0,1-.78,3.89c-.2.56-.4,1.13-.58,1.76Z" transform="translate(-345.84 -239.85)"/><path d="M373.59,383.21l.9-.42c-.2-.42-.84-1.56-1.59-2.89-.94-1.67-2.12-3.76-2.4-4.41-.17-.4-.53-1.18-.95-2.11-1-2.18-2.48-5.46-2.78-6.41l-1,.31c.32,1,1.77,4.18,2.83,6.51.42.93.77,1.7.94,2.1.3.69,1.44,2.72,2.45,4.5C372.74,381.65,373.41,382.83,373.59,383.21Z" transform="translate(-345.84 -239.85)"/><path d="M356.94,331.72l.57-.82a14,14,0,0,0-4.68-2l-.25,0a3.45,3.45,0,0,0-1.95.18,5.64,5.64,0,0,0-.34-.51,2.12,2.12,0,0,1-.2-.28l-.11-.18-.21-.05c-.15,0-.3-.08-.44-.12a3.29,3.29,0,0,0-1.2-.2l.07,1a2.34,2.34,0,0,1,.83.16l.33.09a1.77,1.77,0,0,0,.12.17,2.45,2.45,0,0,1,.41.7l.14.61.56-.28a2.56,2.56,0,0,1,1.89-.29l.26,0A13.87,13.87,0,0,1,356.94,331.72Z" transform="translate(-345.84 -239.85)"/><path d="M371,378.12l.14-1c-1.21-.18-4.06-.59-4.4-2.06l-.06-.25-.24-.1c-1.78-.69-2.68-2.47-3.56-4.2-.18-.36-.37-.72-.56-1.07l-.88.48c.19.34.37.69.55,1.05.88,1.73,1.88,3.69,3.85,4.58C366.5,377.47,369.49,377.91,371,378.12Z" transform="translate(-345.84 -239.85)"/><path d="M407.28,339.25c-1.17,0-3-1.7-3.9-2.72-.48.69-.87.93-2.26,1H401c-.62-.13-1.21-1-2.39-2.68-.52-.76-1.09-1.58-1.66-2.32,0,.15,0,.3,0,.42a4.31,4.31,0,0,1-.1,2.33c-.62.93-2.65,1.36-3.32,1.36h-.1l-.1,0a4.82,4.82,0,0,1-2.09-2.53c-.15-.29-.31-.6-.49-.91l.87-.49c.18.32.35.64.51.95a4.39,4.39,0,0,0,1.5,2,4.34,4.34,0,0,0,2.37-.89A7.27,7.27,0,0,0,396,333c-.12-1.25-.18-1.88.3-2.11a.65.65,0,0,1,.78.18,32.84,32.84,0,0,1,2.36,3.16,13.2,13.2,0,0,0,1.75,2.26c1.05,0,1.11-.13,1.51-.74l.23-.35.4-.59.42.58c.65.9,2.76,2.83,3.56,2.85.52,0,1.3-.94,1.42-1.38a4.56,4.56,0,0,0,0-1.4,5.6,5.6,0,0,1,0-1.3.58.58,0,0,1,.36-.58c.46-.18.82.19,1.61,1,.52.53,1.48,1.52,1.88,1.55a3,3,0,0,0,1.06-.33,4.11,4.11,0,0,1,3.45-.3v-.15c.08-1.37.2-3.44-.25-4.39l.9-.42c.56,1.17.44,3.31.35,4.87,0,.35,0,.66,0,.92l0,.9-.76-.5a3,3,0,0,0-3.24,0,3.48,3.48,0,0,1-1.51.4c-.73,0-1.51-.79-2.53-1.84l-.3-.29,0,.42a5.8,5.8,0,0,1-.08,1.72c-.2.74-1.27,2.12-2.38,2.12Zm2.49-5h0Z" transform="translate(-345.84 -239.85)"/><path d="M402.09,358l.77-.65c-.43-.5-.76-.85-1.06-1.16a8.58,8.58,0,0,1-1.34-1.65,5.36,5.36,0,0,1-1.14-3l.19.21a4,4,0,0,0,.59.58l.15.07a.62.62,0,0,0,.57-.11c.44-.36.47-1.33.17-4.94,0-.36-.06-.7-.08-1-.05-.69.1-.81.1-.81.22-.15,1.25.36,1.86.66a13.1,13.1,0,0,0,1.76.78l.18.06L405,347a.59.59,0,0,0,.39-.45c.08-.36-.18-.62-.43-.88s-.42-.44-.41-.56c.07-.54.19-.61,1.16-.59a5.3,5.3,0,0,0,.69,0l.51,0,0-.51a6.52,6.52,0,0,1,.3-2,12.59,12.59,0,0,0,.28-1.33l.51-.06c1.12-.13,1.58-.19,3.13,1.94l.14.13a.65.65,0,0,0,.72,0c.38-.26.3-.72.16-1.55-.18-1-.44-2.55.17-3.4a1.67,1.67,0,0,1,1.17-.63,9.65,9.65,0,0,1,5.77.58l.34-.94a10.63,10.63,0,0,0-6.26-.63,2.64,2.64,0,0,0-1.83,1,5.07,5.07,0,0,0-.42,3.72,3,3,0,0,0-3.21-1.27l-.86.08h-.46l0,.46a9.18,9.18,0,0,1-.3,1.59,9.24,9.24,0,0,0-.33,1.79h-.38c-.77,0-1.77.11-1.93,1.46a1.12,1.12,0,0,0,0,.49l-.27-.13c-1.16-.58-2.16-1.08-2.86-.61s-.57,1.4-.54,1.72,0,.62.08,1c.07.94.21,2.65.19,3.58-.36-.39-.71-.74-1.14-.69a.75.75,0,0,0-.57.4l-.05.11c-.45,1.59.47,3.07,1.14,4.15a9.87,9.87,0,0,0,1.51,1.89A13.94,13.94,0,0,1,402.09,358Z" transform="translate(-345.84 -239.85)"/><path d="M409.59,348.05l.9-.43a9.89,9.89,0,0,0-2.87-3.22c-.36-.31-.73-.61-1.08-.93l-.67.73c.36.34.74.65,1.11,1A8.91,8.91,0,0,1,409.59,348.05Z" transform="translate(-345.84 -239.85)"/><path d="M424,339.36a9,9,0,0,0,1.06-3.57,3.39,3.39,0,0,1,.11-.65,4.5,4.5,0,0,0,.14-.88c0-.18,0-.37,0-.55a2.34,2.34,0,0,1,0-.81l-.95-.3a3.26,3.26,0,0,0-.09,1.15c0,.15,0,.31,0,.46a5.85,5.85,0,0,1-.12.71,5,5,0,0,0-.14.79,8.06,8.06,0,0,1-.94,3.18Z" transform="translate(-345.84 -239.85)"/><path d="M397.63,377.48a2.05,2.05,0,0,0,.58-2c-.27-1-1.17-1-1.7-.93h-.28v1h.32c.64,0,.65,0,.7.2a1.25,1.25,0,0,1-.18.9Z" transform="translate(-345.84 -239.85)"/><path d="M364,377.7c.12-.17.58-.66.86-.95s.32-.33.4-.43a3,3,0,0,0,.53-.59c.08-.09.15-.19.23-.27l-.75-.67q-.14.15-.27.33a2.44,2.44,0,0,1-.37.43l-.24.15v.09l-.26.27a9.57,9.57,0,0,0-1,1.11Z" transform="translate(-345.84 -239.85)"/><path d="M351.54,340.87l.87-.49-.36-.63a9.52,9.52,0,0,1-1.64-4.73,22.43,22.43,0,0,1-.06-3.06c0-.13.06-.44.11-.8a10.23,10.23,0,0,0,.2-1.88l-1,.07a14.43,14.43,0,0,1-.2,1.66c-.06.4-.11.75-.12.9a22.93,22.93,0,0,0,.07,3.2,10.49,10.49,0,0,0,1.77,5.15Z" transform="translate(-345.84 -239.85)"/><path d="M363.84,376.88l.65-.76c-.31-.26-.61-.49-.9-.72a10.75,10.75,0,0,1-1.31-1.12,15,15,0,0,1-2-3l-.88.48a16.39,16.39,0,0,0,2.2,3.23,11.46,11.46,0,0,0,1.42,1.22Q363.41,376.52,363.84,376.88Z" transform="translate(-345.84 -239.85)"/></g><g class="teeth"><path d="M362.85,377.74l.6-.81c-.3-.22-.58-.43-.84-.64a12.63,12.63,0,0,1-3.23-4.39l.26,0,.87.11-.34-.8a2.52,2.52,0,0,1,0-1.36l.34.06a7.91,7.91,0,0,1,1.07.23l1.2.82-.45-1.39a7.15,7.15,0,0,1-.15-3.4c.25.17.47.35.7.53a5,5,0,0,0,3.64,1.48l.69,0-.61-1.6A62.55,62.55,0,0,1,363,354.91a93.17,93.17,0,0,1-.91-14.08c0-1.23,0-2.31,0-3.29,0-2.41,0-4.16-.1-5.91l-1,.08c.13,1.71.12,3.43.1,5.82,0,1,0,2.07,0,3.3a93.1,93.1,0,0,0,.93,14.26,64.28,64.28,0,0,0,3.63,11.85l.1.24a4.83,4.83,0,0,1-2.26-1.23,12.88,12.88,0,0,0-1.3-.95l-.44-.29-.26.46a6.8,6.8,0,0,0-.33,3.87l-.49-.08c-.24,0-.58-.1-.66-.13l-.53-.27-.15.57a5.11,5.11,0,0,0-.27,1.74l-1-.11.09.65c.27,1.82,2.41,4.57,3.77,5.66C362.25,377.29,362.54,377.51,362.85,377.74Z" transform="translate(-345.84 -239.85)"/><path d="M354.52,343.08h0a1.78,1.78,0,0,0,.85-.27,1.64,1.64,0,0,1,.33-.16l.28-.06.09-.26a8.65,8.65,0,0,0,.14-2.3c0-2.29,0-5.73,1.47-8.29l.11,0,0-.12h0l-.17-.85c-.31.06-.54.12-.67.33-1.72,2.82-1.71,6.51-1.71,9a14.78,14.78,0,0,1-.05,1.76,1.71,1.71,0,0,0-.27.14,1,1,0,0,1-.39.15c-.49,0-1.23-.74-1.8-1.34s-1.33-1.4-2-1.33c-.57-.43-2-3.68-2.17-5.5a26.6,26.6,0,0,1,0-6.57l-1-.18a27.63,27.63,0,0,0,0,6.84c.16,1.79,1.61,5.51,2.6,6.24a.84.84,0,0,0,.67.17c.22,0,.85.65,1.19,1C352.73,342.2,353.56,343.08,354.52,343.08Z" transform="translate(-345.84 -239.85)"/><path d="M371,378.12l.14-1c-1.21-.18-4.06-.59-4.4-2.06l-.06-.25-.24-.1c-1.78-.69-2.68-2.47-3.56-4.2-.18-.36-.37-.72-.56-1.07l-.88.48c.19.34.37.69.55,1.05.88,1.73,1.88,3.69,3.85,4.58C366.5,377.47,369.49,377.91,371,378.12Z" transform="translate(-345.84 -239.85)"/><path d="M407.28,339.25c-1.17,0-3-1.7-3.9-2.72-.48.69-.87.93-2.26,1H401c-.62-.13-1.21-1-2.39-2.68-.52-.76-1.09-1.58-1.66-2.32,0,.15,0,.3,0,.42a4.31,4.31,0,0,1-.1,2.33c-.62.93-2.65,1.36-3.32,1.36h-.1l-.1,0a4.82,4.82,0,0,1-2.09-2.53c-.15-.29-.31-.6-.49-.91l.87-.49c.18.32.35.64.51.95a4.39,4.39,0,0,0,1.5,2,4.34,4.34,0,0,0,2.37-.89A7.27,7.27,0,0,0,396,333c-.12-1.25-.18-1.88.3-2.11a.65.65,0,0,1,.78.18,32.84,32.84,0,0,1,2.36,3.16,13.2,13.2,0,0,0,1.75,2.26c1.05,0,1.11-.13,1.51-.74l.23-.35.4-.59.42.58c.65.9,2.76,2.83,3.56,2.85.52,0,1.3-.94,1.42-1.38a4.56,4.56,0,0,0,0-1.4,5.6,5.6,0,0,1,0-1.3.58.58,0,0,1,.36-.58c.46-.18.82.19,1.61,1,.52.53,1.48,1.52,1.88,1.55a3,3,0,0,0,1.06-.33,4.11,4.11,0,0,1,3.45-.3v-.15c.08-1.37.2-3.44-.25-4.39l.9-.42c.56,1.17.44,3.31.35,4.87,0,.35,0,.66,0,.92l0,.9-.76-.5a3,3,0,0,0-3.24,0,3.48,3.48,0,0,1-1.51.4c-.73,0-1.51-.79-2.53-1.84l-.3-.29,0,.42a5.8,5.8,0,0,1-.08,1.72c-.2.74-1.27,2.12-2.38,2.12Zm2.49-5h0Z" transform="translate(-345.84 -239.85)"/><path d="M402.09,358l.77-.65c-.43-.5-.76-.85-1.06-1.16a8.58,8.58,0,0,1-1.34-1.65,5.36,5.36,0,0,1-1.14-3l.19.21a4,4,0,0,0,.59.58l.15.07a.62.62,0,0,0,.57-.11c.44-.36.47-1.33.17-4.94,0-.36-.06-.7-.08-1-.05-.69.1-.81.1-.81.22-.15,1.25.36,1.86.66a13.1,13.1,0,0,0,1.76.78l.18.06L405,347a.59.59,0,0,0,.39-.45c.08-.36-.18-.62-.43-.88s-.42-.44-.41-.56c.07-.54.19-.61,1.16-.59a5.3,5.3,0,0,0,.69,0l.51,0,0-.51a6.52,6.52,0,0,1,.3-2,12.59,12.59,0,0,0,.28-1.33l.51-.06c1.12-.13,1.58-.19,3.13,1.94l.14.13a.65.65,0,0,0,.72,0c.38-.26.3-.72.16-1.55-.18-1-.44-2.55.17-3.4a1.67,1.67,0,0,1,1.17-.63,9.65,9.65,0,0,1,5.77.58l.34-.94a10.63,10.63,0,0,0-6.26-.63,2.64,2.64,0,0,0-1.83,1,5.07,5.07,0,0,0-.42,3.72,3,3,0,0,0-3.21-1.27l-.86.08h-.46l0,.46a9.18,9.18,0,0,1-.3,1.59,9.24,9.24,0,0,0-.33,1.79h-.38c-.77,0-1.77.11-1.93,1.46a1.12,1.12,0,0,0,0,.49l-.27-.13c-1.16-.58-2.16-1.08-2.86-.61s-.57,1.4-.54,1.72,0,.62.08,1c.07.94.21,2.65.19,3.58-.36-.39-.71-.74-1.14-.69a.75.75,0,0,0-.57.4l-.05.11c-.45,1.59.47,3.07,1.14,4.15a9.87,9.87,0,0,0,1.51,1.89A13.94,13.94,0,0,1,402.09,358Z" transform="translate(-345.84 -239.85)"/><path d="M409.59,348.05l.9-.43a9.89,9.89,0,0,0-2.87-3.22c-.36-.31-.73-.61-1.08-.93l-.67.73c.36.34.74.65,1.11,1A8.91,8.91,0,0,1,409.59,348.05Z" transform="translate(-345.84 -239.85)"/><path d="M351.54,340.87l.87-.49-.36-.63a9.52,9.52,0,0,1-1.64-4.73,22.43,22.43,0,0,1-.06-3.06c0-.13.06-.44.11-.8a10.23,10.23,0,0,0,.2-1.88l-1,.07a14.43,14.43,0,0,1-.2,1.66c-.06.4-.11.75-.12.9a22.93,22.93,0,0,0,.07,3.2,10.49,10.49,0,0,0,1.77,5.15Z" transform="translate(-345.84 -239.85)"/><path d="M363.84,376.88l.65-.76c-.31-.26-.61-.49-.9-.72a10.75,10.75,0,0,1-1.31-1.12,15,15,0,0,1-2-3l-.88.48a16.39,16.39,0,0,0,2.2,3.23,11.46,11.46,0,0,0,1.42,1.22Q363.41,376.52,363.84,376.88Z" transform="translate(-345.84 -239.85)"/><path d="M398.93,409.13a1.37,1.37,0,0,0,.82-.24c1.12-.94,1.39-3.53,0-6.13-1.17-2.17-2-3.92-2.89-5.86-1-2.23-3.77-9.57-3.8-9.64-.32-.91-.87-2.19-1.45-3.55l-.29-.66c-.81-1.89-1.93-4.48-2.61-6.64a159.94,159.94,0,0,1-5.79-22.18,55.32,55.32,0,0,1-.19-12.94c.22-2.62.55-5.54.88-8.37l.1-.86-1-.12-.1.87c-.33,2.83-.67,5.77-.88,8.4a55.76,55.76,0,0,0,.19,13.18,161.25,161.25,0,0,0,5.83,22.32c.7,2.21,1.82,4.82,2.64,6.74l.29.66c.57,1.34,1.12,2.6,1.43,3.49.12.31,2.83,7.45,3.83,9.7.86,2,1.74,3.74,2.92,5.94s1,4.28.3,4.85c-.82.5-4.77-1.72-12.93-9.8a41,41,0,0,1-3.71-4.46c-.69-.92-1.41-1.87-2.18-2.79-1-1.29-2-2.65-2.95-4.05l-.4-.59c-.69-1-1.85-2.71-2-3l-.85-1.37c-.54-.8-3.14-5.36-3.63-6.5-.17-.4-.53-1.18-.95-2.11-1-2.18-2.48-5.46-2.78-6.41l-1,.31c.32,1,1.77,4.18,2.83,6.51.42.93.77,1.7.94,2.1.52,1.21,3.15,5.82,3.71,6.65l.81,1.3c.17.33,1,1.61,2.06,3.12l.41.59c1,1.42,1.92,2.8,3,4.12.75.91,1.47,1.85,2.15,2.76a42.83,42.83,0,0,0,3.8,4.57C394.33,407.72,397.59,409.13,398.93,409.13Z" transform="translate(-345.84 -239.85)"/>
	</g>
</svg>