<svg xmlns="http://www.w3.org/2000/svg" viewBox="0 0 142.86 167.76">
  <defs>
    <style>
      path {
        fill: none;
        stroke: #000;
        stroke-miterlimit: 10;
      }
    </style>
  </defs>
  <title>Smilodon californicus</title>
  <metadata>
        <phyloxml xmlns:xsi="http://www.w3.org/2001/XMLSchema-instance" xmlns="http://www.phyloxml.org" xsi:schemaLocation="http://www.phyloxml.org http://www.phyloxml.org/1.10/phyloxml.xsd">
            <phylogeny rooted="true" rerootable="false">
                <clade>
                    <name>Animalia</name>
                    <clade>
                        <name>Chordata</name>
                        <clade>
                            <name>Mammalia</name>
                            <clade>
                                <name>Carnivora</name>
                                <clade>
                                    <name>Feliformia</name>
                                    <clade>
                                        <name>Felidae</name>
                                        <clade>
                                            <name>Machairodontinae</name>
                                            <clade>
                                                <name>Smilodontini</name>
                                                <clade>
                                                    <name>Smilodon</name>
                                                </clade>
                                            </clade>
                                        </clade>
                                    </clade>
                                </clade>
                            </clade>
                        </clade>
                    </clade>
                </clade>
            </phylogeny>
        </phyloxml>
    </metadata>
  <g class="outline">
    <path class="cls-1" d="M453.79,246.75c-4.43,1.18-8.46,3.05-13,4a31.78,31.78,0,0,0-13,5.87A48.72,48.72,0,0,1,415.49,263c-2.64.93-5.38,2.05-7.87,3s-5.28,1.83-8,2.76c-5.25,1.77-8.41,4-12.39,8.07-1.87,1.91-3.94,4.38-6.34,5.59s-6.95,3.88-8.83,5.75c-2.08,2.05-1.25,3.11-2.19,5.64-.46,1.26-2.92,3.52-3,4.86-.25,5.75-.54,10.05-5.33,14.25a64.85,64.85,0,0,1-5.83,4.75,17.56,17.56,0,0,0-4.18,4.33c-1.33,1.71-3.1,3.05-3.49,5.25a28.33,28.33,0,0,0,0,6.7c.17,1.91,1.92,6.13,2.67,6,1-.22,2.41,2.69,3.83,2.66.4,0,.7-.32,1.08-.41.42-1.25-.58-7,1.75-10.84.1-.15,4.09-.75,4.17.34.19,2.44.08,4.91.08,9.16a95.25,95.25,0,0,0,.92,14.17,68.42,68.42,0,0,0,4,12.71c-2,.11-2.87-1.21-4.56-2.29a6.72,6.72,0,0,0-.09,4.33,19.68,19.68,0,0,0-2-.47,3.67,3.67,0,0,0-.12,2.16c-.5-.06-.65-.06-1-.11.24,1.62,2.27,4.3,3.59,5.35a44,44,0,0,0,4.91,3.32,17.34,17.34,0,0,0,6.37,2.35c.19,0,2.69,3.88,3.4,4.92.95,1.4,1.9,2.77,3,4.08,2.09,2.54,3.81,5.21,5.92,7.29,4.14,4.1,11.64,11.05,13.61,9.83.87-.74,1.1-3.08-.19-5.47-1.05-1.95-1.95-3.73-2.9-5.9s-3.88-9.45-3.61-9.83a33,33,0,0,1,7.33-7,23.32,23.32,0,0,1,3.63-2.29l3.35-1.38c.21-.08,4.08-2.15,4.38-2.35,4.59-3,6.27-3.86,10.63-7.36,5.28-4.24,11.56-11.52,15-16.06,2-2.57,5.46-8,7-8.08a7,7,0,0,0,6.21-4.57c.69-4.35-.95-4.74-1-8.62,0-1.26-.85-1.25-.4-2.27.3-.68,2.3-.82,2.34-1.77.12-3.11,1.37-2.34,1.76-3.79.34-3.38-.37-3.55-.41-5.65,0-1.78-.19-4.33.33-4.5.64,1.33,2.58,1.28,4,1.14s4.29-.13,4.83-.43c2.6-.49,2.41-2.45,4-4.1.28-.3,2.59-.23,4.95-3,1.55-1.8,2.36-3.64,4.16-5.33a50.12,50.12,0,0,1,4.36-4.09c1.67-1.74,2.15.56,6.67-.74,2.68-.77,3.67-3.39,3.78-5.81a10.66,10.66,0,0,0-1.9-7.19c-1-1.42-2.11-3-3.3-3.44-.4.09.12-2.76-.85-3-1.09-3.17.17-5.05-.81-7.74-1.31-3.62-1.3-4.06-.54-7.51a41.1,41.1,0,0,0,1.64-10.63C484.26,235.5,462.48,244.43,453.79,246.75Z" transform="translate(-347.34 -241.35)"/>
  </g>
  <g class="teeth">
    <path class="cls-1" d="M361.54,331.67c.19,2.44.08,4.91.08,9.16a95.25,95.25,0,0,0,.92,14.17,68.42,68.42,0,0,0,4,12.71c-2,.11-2.87-1.21-4.56-2.29a6.72,6.72,0,0,0-.09,4.33,19.68,19.68,0,0,0-2-.47,3.67,3.67,0,0,0-.12,2.16c-.5-.06-.65-.06-1-.11.24,1.62,2.27,4.3,3.59,5.35l.85.66" transform="translate(-347.34 -241.35)"/>
    <path class="cls-1" d="M348,327.25a28.33,28.33,0,0,0,0,6.7c.17,1.91,1.92,6.13,2.67,6,1-.22,2.41,2.69,3.83,2.66.4,0,.7-.32,1.08-.41.42-1.25-.58-7,1.75-10.84a1.27,1.27,0,0,1,.35-.1" transform="translate(-347.34 -241.35)"/>
    <path class="cls-1" d="M361.85,369.69c1.13,2.06,2,4.58,4.38,5.5.4,1.75,3.29,2.21,4.81,2.44" transform="translate(-347.34 -241.35)"/>
    <path class="cls-1" d="M417.35,330.75c.63,1.31.29,4.25.25,5.56-2.25-1.5-3.83.39-5,.32s-3.31-3.25-3.32-2.46.15,2-.07,2.83c-.15.56-1.07,1.77-1.92,1.75-1.12,0-3.36-2.24-4-3.06-.66,1-.62,1.26-2.23,1.31-.79-.17-2.54-3.49-4.4-5.58-.72-.67.17,2.94-.23,3.54s-2.2,1.14-2.9,1.14c-1.09-.47-1.53-1.79-2.34-3.22" transform="translate(-347.34 -241.35)"/>
    <path class="cls-1" d="M419.37,337.17a10.16,10.16,0,0,0-6-.61c-3.68.57-.87,6.25-1.87,5.63-2.1-2.88-2.6-2.14-4.5-2.06-.06,1.23-.73,2.62-.63,3.84-1.08.07-2.15-.28-2.31,1-.09.71,1.2,1.31.75,1.5-2.14-.73-4.57-2.89-4.37-.12.12,1.75.56,5.68,0,5.51-.51-.37-1.16-1.51-1.47-.95-.41,1.41.46,2.74,1.12,3.81a21.83,21.83,0,0,0,2.44,2.88" transform="translate(-347.34 -241.35)"/>
    <path class="cls-1" d="M410,347.83c-.81-1.7-2.44-2.71-3.83-4" transform="translate(-347.34 -241.35)"/>
    <path class="cls-1" d="M350.17,329.31c0,.5-.3,2.24-.32,2.63a21.74,21.74,0,0,0,.07,3.12c.23,2.73,1.06,3.82,2.06,5.57" transform="translate(-347.34 -241.35)"/>
    <path class="cls-1" d="M359.79,371.5a15.47,15.47,0,0,0,2.13,3.13c.61.64,1.43,1.18,2.25,1.87" transform="translate(-347.34 -241.35)"/>
    <path class="cls-1" d="M383.21,332c-.36,3.06-.75,6.35-1,9.25a56.5,56.5,0,0,0,.19,13.06,161,161,0,0,0,5.81,22.25c.68,2.16,1.77,4.71,2.62,6.69.69,1.6,1.36,3.13,1.74,4.18,0,0,2.81,7.4,3.81,9.67s1.85,3.95,2.9,5.9c1.29,2.39,1.06,4.73.19,5.47-2,1.22-9.47-5.73-13.61-9.83-2.11-2.08-3.83-4.75-5.92-7.29-1.08-1.31-2-2.68-3-4.08-.71-1-2.23-3.25-2.45-3.69l-.83-1.32c-.55-.83-3.16-5.41-3.66-6.57-.59-1.36-3.31-7.19-3.75-8.56" transform="translate(-347.34 -241.35)"/>
  </g>
  <g class="skull">
     <path class="base" d="M348,334c.17,1.91,1.92,6.13,2.67,6,1-.22,2.41,2.69,3.83,2.66.4,0,.7-.32,1.08-.41.42-1.25-.58-7,1.75-10.84.1-.15,4.09-.75,4.17.34.19,2.44.08,4.91.08,9.16a95.25,95.25,0,0,0,.92,14.17,68.42,68.42,0,0,0,4,12.71c-2,.11-2.87-1.21-4.56-2.29a6.72,6.72,0,0,0-.09,4.33,19.68,19.68,0,0,0-2-.47,3.67,3.67,0,0,0-.12,2.16c-.5-.06-.65-.06-1-.11.24,1.62,2.27,4.3,3.59,5.35a44,44,0,0,0,4.91,3.32,17.34,17.34,0,0,0,6.37,2.35c.19,0,2.69,3.88,3.4,4.92.95,1.4,1.9,2.77,3,4.08,2.09,2.54,3.81,5.21,5.92,7.29,4.14,4.1,11.64,11.05,13.61,9.83.87-.74,1.1-3.08-.19-5.47-1.05-1.95-1.95-3.73-2.9-5.9s-3.88-9.45-3.61-9.83a33,33,0,0,1,7.33-7,23.32,23.32,0,0,1,3.63-2.29l3.35-1.38c.21-.08,4.08-2.15,4.38-2.35,4.59-3,6.27-3.86,10.63-7.36,5.28-4.24,11.56-11.52,15-16.06,2-2.57,5.46-8,7-8.08a7,7,0,0,0,6.21-4.57c.69-4.35-.95-4.74-1-8.62,0-1.26-.85-1.25-.4-2.27.3-.68,2.3-.82,2.34-1.77.12-3.11,1.37-2.34,1.76-3.79.34-3.38-.37-3.55-.41-5.65,0-1.78-.19-4.33.33-4.5.64,1.33,2.58,1.28,4,1.14s4.29-.13,4.83-.43c2.6-.49,2.41-2.45,4-4.1.28-.3,2.59-.23,4.95-3,1.55-1.8,2.36-3.64,4.16-5.33a50.12,50.12,0,0,1,4.36-4.09c1.67-1.74,2.15.56,6.67-.74,2.68-.77,3.67-3.39,3.78-5.81a10.66,10.66,0,0,0-1.9-7.19c-1-1.42-2.11-3-3.3-3.44-.4.09.12-2.76-.85-3-1.09-3.17.17-5.05-.81-7.74-1.31-3.62-1.3-4.06-.54-7.51a41.1,41.1,0,0,0,1.64-10.63c.34-14.23-21.44-5.3-30.13-3-4.43,1.18-8.46,3.05-13,4a31.78,31.78,0,0,0-13,5.87A48.72,48.72,0,0,1,415.49,263c-2.64.93-5.38,2.05-7.87,3s-5.28,1.83-8,2.76c-5.25,1.77-8.41,4-12.39,8.07-1.87,1.91-3.94,4.38-6.34,5.59s-6.95,3.88-8.83,5.75c-2.08,2.05-1.25,3.11-2.19,5.64-.46,1.26-2.92,3.52-3,4.86-.25,5.75-.54,10.05-5.33,14.25a64.85,64.85,0,0,1-5.83,4.75,17.56,17.56,0,0,0-4.18,4.33c-1.33,1.71-3.1,3.05-3.49,5.25A28.33,28.33,0,0,0,348,334Zm34.19,7.3c.23-2.9.46-5.92.82-9v-.09c.27-.75,2.16-1.35,3.17-1.34,1.68,0,2.28,1.4,3.82,1.85s2.48-.57,4-1,3.61-.79,5.19-1c1.85-.3,3.61-.05,5.49-.33,1.6-.23,2.75-1.08,4.5-1.16A17.09,17.09,0,0,1,415,330c1.73.51,2.54,1.44,3.63-.47a13.45,13.45,0,0,0,.19-4.94,2.77,2.77,0,0,0-1.41-2c1.16-2.56,1.59-4.17,4.86-5.18,1.56-.49,4.12,0,5.68.1-1.21,2.21-2.63,3.19-3.44,5.44-.56,1.56-.56,3.86-.81,5.5-.47,3,.09,5.35-2.53,7.3-1.61,1.2-1.52,1.44-1.8,3.54s-1.24,2.39-2.67,3.79c-1,1-.91,2.63-2.1,3.85s-3,1-4.67,1.25c-.06,1.06.31,2.69-.36,3.57s-2.71,1.13-3.67,1.62c-2.39,1.24-3,4.05-4.5,6.25-1.81,2.72-4.57,4.71-7.3,6.55a31.09,31.09,0,0,1-4,1.88c-1.33.65-2,1.46-3.86,1.4-.91-3.14-3.18-10.44-3.79-15.19A65.56,65.56,0,0,1,382.23,341.25Z" transform="translate(-347.34 -241.35)"/>
    <path class="cls-1" d="M434.54,298.5a3.13,3.13,0,0,0-.87-1.38c-.88-1-1.78-1.76-2.44-2.43a14.08,14.08,0,0,0-2.43-1.81c-1.88-1.38-3.13-2.82-5.63-3.44" transform="translate(-347.34 -241.35)"/>
    <path class="cls-1" d="M394.87,303a5.32,5.32,0,0,0,.42,3.25,9.34,9.34,0,0,1,.55,2.39c.3,1.48.51,6.44-2.17,6" transform="translate(-347.34 -241.35)"/>
    <path class="cls-1" d="M482,247.33c-1.38,2.8-.83,6.86-1.76,9.84-.38,1.21-1.22,2.16-1.61,3.29a8,8,0,0,0-.3,2,11,11,0,0,1-.47,2.2c-.3,1.49-.16,3-.52,4.46-.44,1.75-1,2.63-1.33,4.18-.67,3.15-2.58,6.35-4,9.16-.84,1.67-.58,3.87-1.48,5.5-1.13,2.07-3.9,3.11-4.89,5.33-.42.93-.73,1.83-1.17,2.62-.68,1.25-1.76,2.46-2.12,3.89a23.21,23.21,0,0,0-.33,5.66" transform="translate(-347.34 -241.35)"/>
    <path class="cls-1" d="M479.56,295.4c3.3-2.48,2.36-5,1.18-7.28-.82-1.61.62-2.6.81-4.28a8.17,8.17,0,0,0,0-2.47c-.19-.72-1-.73-.8-1.87.27-1.56,2.48-2,4-.78" transform="translate(-347.34 -241.35)"/>
    <path class="cls-1" d="M460.87,293.33c-.75.24-.62.8-1.21,1.12a4.1,4.1,0,0,1-2.12.38,8.29,8.29,0,0,0-4.08.88c-1.41.87-3.26,1.78-3.92,3.09S449,302,448,303.3c-.8,1-2.9,1.95-3.93,2.63-1.71,1.15-2.19.91-3.54-.18-2.2-1.8-4-3.56-7.13-3.42-2.24.11-4.07.71-6.45.83a14.88,14.88,0,0,1-7.19-1.52c-.29-.91-2.43-1.95-3.33-2.64s-.62-.89-2-.83a2.46,2.46,0,0,0-1.82.66,16.93,16.93,0,0,0-3.55,2.79c-.82,1-1.6,2.41-2.89,3.05-3.13,1.55-5.9-.5-7-3.13a28.76,28.76,0,0,1-1.48-4.89c-.67-3.23.4-3.88,1.74-6.32,2.33-4.28,3.64-10.7,9.15-11.83,2-.41,3.34.13,5,.67,1.18.37,1.39.18,2.29,1.21a10,10,0,0,0,1.71,1.95" transform="translate(-347.34 -241.35)"/>
    <path class="cls-1" d="M413.79,272.56a33.81,33.81,0,0,1,.75,6.61" transform="translate(-347.34 -241.35)"/>
    <path class="cls-1" d="M403.42,272.94c-1.34,2,0,4.31-.82,6.44-.46,1.18.42,2.52,0,4.29" transform="translate(-347.34 -241.35)"/>
    <path class="cls-1" d="M462.47,299.61c-.14.7,1.6,3.41,1.94,4.35.51,1.41,1.27,2.6,1.3,4.21" transform="translate(-347.34 -241.35)"/>
    <path class="cls-1" d="M481.21,293.7c.12-1.85-4.21-5.52-5.67-5.37" transform="translate(-347.34 -241.35)"/>
    <path class="cls-1" d="M437.82,319.51c-1.38-3.13-2.69-4.5-4.78-7-1.08-1.3-2.06-1.81-3.5-3.31-.82-.86-2.44-2.32-3.19-3.07-.56-1-2-2.12-2.4-3.13" transform="translate(-347.34 -241.35)"/>
    <path class="cls-1" d="M426.21,311.83c-2.26,0-4.31-.22-6.26.74a22,22,0,0,0-3.92,3c-2,1.59-3.08,5.26-5.32,6.45" transform="translate(-347.34 -241.35)"/>
    <path class="cls-1" d="M452.1,322.94c-1.81.88-2.39-1.71-3.71-2.12-2.05-.64-3.84,1.13-5.73,1.18s-2.91-1.14-4.26-2.13a12.37,12.37,0,0,0-4.66-1.71,46.11,46.11,0,0,0-6.25-.65c-1.55-.14-3.69-.54-5.25-.05-3.27,1-4.62,3.91-5.66,6.79a4.91,4.91,0,0,1-.71,1.58" transform="translate(-347.34 -241.35)"/>
    <path class="cls-1" d="M383,332.17c.27-.75,2.16-1.35,3.17-1.34,1.68,0,2.28,1.4,3.82,1.85s2.48-.57,4-1,3.61-.79,5.19-1c1.85-.3,3.61-.05,5.49-.33,1.6-.23,2.75-1.08,4.5-1.16A17.09,17.09,0,0,1,415,330c1.73.51,2.54,1.44,3.63-.47a11.92,11.92,0,0,0,.19-4.94c-.47-1.67-1-1.65-2.37-2.27-2.6-1.18-4.38-2-5.21-5-.45-1.62-.95-1.64-2.17-2.83a24.21,24.21,0,0,0-2.69-1.69,17.66,17.66,0,0,1-2.12-1.62c-.92-.92-1.83-1.47-2.81-2.31a4.05,4.05,0,0,1-1.39-4.56c0-.12.2-.84.32-.82" transform="translate(-347.34 -241.35)"/>
    <path class="cls-1" d="M382.21,285c-1.48,4.63-3.61,6.56-6.42,8.88-.06.12-2,2.16-2,2.31a14.86,14.86,0,0,0-3.42,5.83c-1,2.85-2.23,5.72-3.37,8.47a41.5,41.5,0,0,0-2.14,6.89c-.26,1.16-.26,2.47-.61,3.63s-1.23,1.95-1.4,3.09c-1.54.48-1,5.51-1,7,1.7.09,2.9-.51,4.46-.64,2-.17,4.39.58,6.31,1a45.62,45.62,0,0,0,10.2,1" transform="translate(-347.34 -241.35)"/>
    <path class="cls-1" d="M401.54,272.17c-1.37.9-2.82.69-4,1.63a27.45,27.45,0,0,1-4.59,2.6,26,26,0,0,0-4.22,3.52c-1,.86-2.46,1.71-4,2.83a32.15,32.15,0,0,1-5.06,3.81,23.59,23.59,0,0,0-4.37,4.11,30.31,30.31,0,0,1-4,4.33,26.33,26.33,0,0,0-4.65,6.26" transform="translate(-347.34 -241.35)"/>
    <path class="cls-1" d="M441.37,323c-2.78,2.69-7.48-1.62-6.16-4.67" transform="translate(-347.34 -241.35)"/>
    <path class="cls-1" d="M432.71,327.67c-3.15.93-3.57,3.23-4.17,6" transform="translate(-347.34 -241.35)"/>
    <path class="cls-1" d="M427.92,317.56c-1.21,2.21-2.63,3.19-3.44,5.44-.56,1.56-.56,3.86-.81,5.5-.47,3,.09,5.35-2.53,7.3-1.61,1.2-1.52,1.44-1.8,3.54s-1.24,2.39-2.67,3.79c-1,1-.91,2.63-2.1,3.85s-3,1-4.67,1.25c-.06,1.06.31,2.69-.36,3.57s-2.71,1.13-3.67,1.62c-2.39,1.24-3,4.05-4.5,6.25-1.81,2.72-4.57,4.71-7.3,6.55a31.09,31.09,0,0,1-4,1.88c-1.33.65-2,1.46-3.86,1.4" transform="translate(-347.34 -241.35)"/>
    <path class="cls-1" d="M383.05,332.26c-.36,3.07-.59,6.09-.82,9a56.5,56.5,0,0,0,.19,13.06,161,161,0,0,0,5.81,22.25,53.44,53.44,0,0,0,2.62,6.69c.78,1.59,1.27,3.06,1.94,4.19" transform="translate(-347.34 -241.35)"/>
    <path class="cls-1" d="M447.37,326.67c.17,2.28-1.11,5.95-2.2,7.95a43.12,43.12,0,0,1-4.5,6.57c-3.61,4.37-8.76,6.48-13.13,10" transform="translate(-347.34 -241.35)"/>
    <path class="cls-1" d="M452.67,312.12c.58-2.09,1.47-3.51,1.37-5.8,0-1-.2-1.87-.17-2.82,0-.78.12-3.57.67-4s1.56-.94,2.25-.06a4.35,4.35,0,0,1,.42,3.36c-.48,1.14-1.72,4.53-.5,5.37" transform="translate(-347.34 -241.35)"/>
    <path class="cls-1" d="M374,383c-.44-.94-3.5-6.15-4-7.31-.59-1.36-3.31-7.19-3.75-8.56" transform="translate(-347.34 -241.35)"/>
    <path class="cls-1" d="M357.23,331.31a13.93,13.93,0,0,0-4.44-1.93,3.32,3.32,0,0,0-2.42.31,4.91,4.91,0,0,0-.7-1.19,5.49,5.49,0,0,0-1.5-.31" transform="translate(-347.34 -241.35)"/>
    <path class="cls-1" d="M361.85,369.69c1.13,2.06,2,4.58,4.38,5.5.4,1.75,3.29,2.21,4.81,2.44" transform="translate(-347.34 -241.35)"/>
    <path class="cls-1" d="M417.35,330.75c.63,1.31.29,4.25.25,5.56-2.25-1.5-3.83.39-5,.32s-3.31-3.25-3.32-2.46.15,2-.07,2.83c-.15.56-1.07,1.77-1.92,1.75-1.12,0-3.36-2.24-4-3.06-.66,1-.62,1.26-2.23,1.31-.79-.17-2.54-3.49-4.4-5.58-.72-.67.17,2.94-.23,3.54s-2.2,1.14-2.9,1.14c-1.09-.47-1.53-1.79-2.34-3.22" transform="translate(-347.34 -241.35)"/>
    <path class="cls-1" d="M419.37,337.17a10.16,10.16,0,0,0-6-.61c-3.68.57-.87,6.25-1.87,5.63-2.1-2.88-2.6-2.14-4.5-2.06-.06,1.23-.73,2.62-.63,3.84-1.08.07-2.15-.28-2.31,1-.09.71,1.2,1.31.75,1.5-2.14-.73-4.57-2.89-4.37-.12.12,1.75.56,5.68,0,5.51-.51-.37-1.16-1.51-1.47-.95-.41,1.41.46,2.74,1.12,3.81a21.83,21.83,0,0,0,2.44,2.88" transform="translate(-347.34 -241.35)"/>
    <path class="cls-1" d="M410,347.83c-.81-1.7-2.44-2.71-3.83-4" transform="translate(-347.34 -241.35)"/>
    <path class="cls-1" d="M424.92,332.75a5.64,5.64,0,0,0-.06,1.48c0,.55-.22,1-.26,1.52a8.61,8.61,0,0,1-1,3.37" transform="translate(-347.34 -241.35)"/>
    <path class="cls-1" d="M397.35,377.06a1.6,1.6,0,0,0,.38-1.45c-.2-.72-.88-.55-1.5-.55" transform="translate(-347.34 -241.35)"/>
    <path class="cls-1" d="M365.67,375.13a6.79,6.79,0,0,1-.74.83c0,.06-1.1,1.11-1.33,1.48" transform="translate(-347.34 -241.35)"/>
    <path class="cls-1" d="M350.17,329.31c0,.5-.3,2.24-.32,2.63a21.74,21.74,0,0,0,.07,3.12c.23,2.73,1.06,3.82,2.06,5.57" transform="translate(-347.34 -241.35)"/>
    <path class="cls-1" d="M359.79,371.5a15.47,15.47,0,0,0,2.13,3.13c.61.64,1.43,1.18,2.25,1.87" transform="translate(-347.34 -241.35)"/>
  </g>
</svg>
