<?xml version="1.0" encoding="utf-8"?>
<!-- Generator: Adobe Illustrator 16.0.4, SVG Export Plug-In . SVG Version: 6.00 Build 0)  -->
<!DOCTYPE svg PUBLIC "-//W3C//DTD SVG 1.1//EN" "http://www.w3.org/Graphics/SVG/1.1/DTD/svg11.dtd">
<svg version="1.1" xmlns="http://www.w3.org/2000/svg" xmlns:xlink="http://www.w3.org/1999/xlink" x="0px" y="0px" width="382px"
	 height="382px" viewBox="0 0 382 382" enable-background="new 0 0 382 382" xml:space="preserve">
<g id="Layer_1">
</g>
<g id="Layer_2">
	<path fill="#bbb" d="M342.285,92.793l-0.585-0.798c-2.028-2.776-4.117-5.634-6.664-7.116c-0.005-0.13-0.01-0.26-0.014-0.378
		c-0.063-1.872-0.163-4.759-1.864-6.188c-0.796-2.769-0.69-5.038-0.58-7.427c0.127-2.728,0.258-5.549-0.961-8.915
		c-2.787-7.695-2.693-8.125-1.123-15.313c0.169-0.773,0.395-1.629,0.649-2.599c1.112-4.24,2.794-10.648,3.053-21.482
		c0.147-6.174-1.455-11.023-4.765-14.412c-3.665-3.754-9.419-5.658-17.1-5.658c-12.212,0-27.68,4.756-38.974,8.229
		c-3.568,1.097-6.649,2.044-9.238,2.735c-4.319,1.153-8.492,2.602-12.529,4.004c-5.226,1.814-10.63,3.69-16.248,4.869
		c-11.185,2.343-19.806,6.246-29.757,13.472c-7.698,5.592-16.946,10.371-26.744,13.819c-4.143,1.458-8.368,3.11-12.454,4.708
		c-1.734,0.678-3.438,1.345-5.091,1.979c-4.104,1.575-8.329,2.973-12.802,4.453c-1.634,0.541-3.276,1.084-4.921,1.64
		c-11.383,3.843-18.848,8.7-28.529,18.561c-0.759,0.774-1.533,1.589-2.323,2.421c-3.499,3.687-7.117,7.498-11.089,9.501
		c-4.58,2.31-15.558,8.583-20.257,13.23c-3.554,3.512-3.971,6.256-4.374,8.91c-0.207,1.361-0.42,2.769-1.077,4.541
		c-0.299,0.809-1.49,2.348-2.541,3.706c-2.118,2.737-4.119,5.322-4.229,7.843c-0.567,13.047-1.402,21.471-11,29.89l-0.973,0.854
		c-3.407,2.997-7.648,6.726-11.746,9.512c-4.104,2.789-6.296,5.608-9.072,9.178l-0.763,0.979c-0.722,0.924-1.509,1.801-2.342,2.729
		c-2.529,2.818-5.145,5.732-5.91,10.036c-0.641,3.61-0.651,8.695-0.031,15.546c0.238,2.625,3.727,15.546,8.315,15.546l0.136-0.004
		c0.454,0.318,1.269,1.187,1.831,1.783c1.819,1.937,3.881,4.132,6.7,4.131c0,0,0.001,0,0.002,0c1.115-0.022,1.957-0.479,2.514-0.781
		c0.144-0.079,0.342-0.186,0.397-0.205l1.369-0.313l0.445-1.331c0.405-1.214,0.402-2.94,0.398-5.554
		c-0.008-4.774-0.02-11.867,2.78-17.173c0.85-0.144,2.27-0.31,3.627-0.31c0.718,0,1.216,0.047,1.547,0.099
		c0.215,3.436,0.186,7.023,0.146,11.827c-0.018,2.181-0.038,4.6-0.038,7.354c0,9.613,0.545,23.746,2.08,31.936
		c1.733,9.242,4.159,16.045,7.195,24.056c-0.512-0.353-1.06-0.779-1.689-1.277c-0.865-0.684-1.844-1.459-2.998-2.197l-2.242-1.435
		l-1.292,2.326c-0.961,1.731-1.351,4.669-1.129,7.573c-0.167-0.03-0.317-0.059-0.421-0.082l-2.459-1.277l-0.901,2.826
		c-0.221,0.693-0.481,1.673-0.604,2.741l-2.467-0.291l0.474,3.229c0.655,4.456,5.616,10.849,8.886,13.472
		c3.298,2.641,8.007,5.711,11.212,7.582c6.465,3.769,10.278,4.555,13.965,5.315l0.135,0.028c1.089,1.465,3.797,5.538,5.189,7.631
		c0.675,1.017,1.251,1.882,1.616,2.42c2.166,3.187,4.312,6.292,6.759,9.26c1.651,2.003,3.223,4.08,4.744,6.089
		c2.811,3.713,5.465,7.221,8.573,10.296c15.324,15.17,25.671,22.862,30.753,22.862c0.967,0,1.832-0.232,2.57-0.688l0.308-0.225
		c3.214-2.746,3.284-9.437,0.158-15.232c-2.583-4.79-4.486-8.656-6.367-12.927c-2.398-5.443-6.887-16.921-7.713-20.117
		c4.571-5.987,10.937-11.385,15.125-14.263c0.495-0.341,1.023-0.716,1.574-1.107c1.965-1.397,4.193-2.98,6.017-3.73
		c2.354-0.973,5.496-2.266,7.428-3.05c0.678-0.272,9.42-4.973,10.167-5.466c2.688-1.776,4.927-3.209,6.943-4.501
		c5.596-3.583,9.64-6.172,16.855-11.973c12.783-10.275,27.257-27.54,33.794-36.122c0.941-1.237,2.036-2.756,3.195-4.363
		c2.788-3.868,8.57-11.889,10.608-12.627c10.276-0.889,15.521-9.021,15.971-12.231c0.963-6.101,0.017-9.189-0.898-12.177
		c-0.642-2.098-1.249-4.079-1.294-7.414c-0.026-1.884-0.661-3.023-1.04-3.704c-0.014-0.025-0.028-0.051-0.043-0.075
		c0.287-0.148,0.708-0.328,1.018-0.461c1.593-0.682,4.258-1.821,4.367-4.604c0.129-3.184,0.722-3.688,1.472-4.325
		c0.73-0.621,1.836-1.56,2.364-3.538l0.072-0.395c0.507-5.024,0.02-7.255-0.411-9.223c-0.245-1.123-0.458-2.092-0.485-3.632
		c-0.011-0.574-0.026-1.184-0.043-1.809c-0.025-0.981-0.062-2.37-0.056-3.645c1.268,0.46,2.785,0.692,4.546,0.692
		c0.875,0,1.812-0.052,2.957-0.164c1.155-0.115,2.688-0.188,4.169-0.258c3.901-0.185,5.86-0.324,7.075-0.805
		c4.709-0.99,6.266-3.854,7.644-6.388c0.583-1.074,1.139-2.095,1.951-3.042c0.103-0.028,0.218-0.058,0.345-0.091
		c2.138-0.575,6.586-1.771,11.052-6.975c1.496-1.744,2.68-3.474,3.825-5.146c1.571-2.293,3.055-4.46,5.223-6.496
		c0.914-0.859,1.962-1.915,3.071-3.033c2.221-2.238,4.738-4.776,6.285-5.803l0.228-0.151l0.189-0.197
		c0.717-0.745,0.988-0.745,1.15-0.745c0.329,0,0.841,0.113,1.434,0.243c1.087,0.238,2.574,0.564,4.549,0.564
		c2.025,0,4.178-0.335,6.58-1.025c6.13-1.761,9.851-7.303,10.207-15.203C347.229,105.467,346.895,99.051,342.285,92.793z
		 M31.95,198.149c0.037,0.011,0.073,0.021,0.11,0.032c0.249,0.075,0.497,0.15,0.744,0.217c0.092,0.132,0.193,0.271,0.299,0.415
		c0.141,0.192,0.291,0.404,0.433,0.617c0.033,0.616-0.243,2.449-0.428,3.672c-0.154,1.014-0.249,1.653-0.267,2.008
		c-0.116,2.387-0.071,4.634,0.142,7.073c0.018,0.206,0.04,0.401,0.061,0.6c-0.378-1.251-0.656-2.44-0.742-3.383
		C31.887,204.827,31.773,201.067,31.95,198.149z M44.428,223.132c0.001,1.015,0.003,2.193-0.037,3.023
		c-0.086,0.047-0.185,0.1-0.26,0.136c-0.684-0.196-2.158-1.766-2.883-2.537c-1.202-1.279-2.357-2.497-3.706-3.062
		c-1.297-2.355-2.218-4.635-2.568-8.682c-0.204-2.348-0.247-4.509-0.136-6.802c0.014-0.271,0.132-1.052,0.246-1.807
		c0.135-0.891,0.249-1.668,0.33-2.329l0.021-0.011c1.82-0.891,2.146-0.86,4.268-0.659l0.571,0.054
		c1.067,0.098,4.624,1.384,7.589,3.033C44.414,209.917,44.419,217.815,44.428,223.132z M55.835,200.641
		c-3.361,0-5.616,0.416-6.77,1.23c-3.224-1.837-7.15-3.272-8.609-3.406l-0.564-0.053c-1.909-0.182-2.745-0.26-4.376,0.416
		c-0.245-0.438-0.54-0.84-0.798-1.194c-0.167-0.229-0.324-0.44-0.437-0.629l-0.224-0.374l-0.427-0.091
		c-0.329-0.069-0.656-0.171-0.985-0.271c-0.163-0.05-0.333-0.101-0.505-0.149c0.042-0.323,0.084-0.646,0.137-0.939
		c0.516-2.898,2.458-5.063,4.708-7.57c0.853-0.95,1.734-1.932,2.56-2.99l0.771-0.989c2.603-3.347,4.483-5.766,7.936-8.112
		c4.355-2.961,8.725-6.804,12.237-9.892l0.968-0.85c11.012-9.66,12.064-19.751,12.602-31.284c3.019-0.904,4.295-3.386,5.411-5.614
		c0.772-1.542,1.501-2.999,2.733-4.005c2.871-2.344,4.882-4.813,7.011-7.429c0.615-0.754,1.246-1.53,1.92-2.33
		c3.028-3.596,6.232-6.61,9.525-8.958c1.083-0.773,2.192-1.514,3.292-2.25c-3.08,8.188-7.273,12.106-13.118,16.91l-0.161,0.132
		l-0.062,0.121c-0.17,0.211-0.82,0.926-1.398,1.561c-2.062,2.267-2.796,3.108-3.054,3.558c-4.195,4.516-6.105,8.539-7.673,13.177
		c-1.698,5.026-3.844,10.115-5.919,15.037c-0.525,1.247-1.047,2.485-1.558,3.711c-1.941,4.666-3.374,9.292-4.789,15.47
		c-0.271,1.178-0.42,2.416-0.565,3.612c-0.18,1.483-0.365,3.018-0.782,4.378c-0.301,0.986-0.825,1.877-1.379,2.821
		c-0.662,1.126-1.343,2.286-1.655,3.655c-2.767,1.624-2.743,7.938-2.375,14.078C58.551,200.826,57.371,200.641,55.835,200.641z
		 M70.787,287.137c1.337,3.146,3.31,7.486,4.891,10.965c0.938,2.063,1.716,3.775,2.094,4.651c0.236,0.548,0.711,1.474,1.323,2.61
		c-3.052-0.545-7.282-1.67-7.901-4.34l-0.119-0.514l-0.491-0.192c-2.485-0.971-4.208-2.887-5.629-5.126l0.151,0.103l-2.177-6.882
		c-0.467-1.477-0.604-3.132-0.561-4.544C64.566,285.597,66.925,287.27,70.787,287.137z M57.962,291.068
		c0.503,0.087,1.062,0.192,1.34,0.275l1.968,1.339c1.589,3.097,3.427,6.361,6.454,8.375c-0.03,0.039-0.06,0.076-0.09,0.115
		c-0.291,0.377-0.621,0.805-0.86,0.964l-0.46,0.306l0.004,0.181c-0.111,0.119-0.266,0.279-0.433,0.454
		c-0.542-0.445-1.083-0.872-1.611-1.28c-1.081-0.837-2.101-1.627-2.907-2.484c-0.961-1.021-1.881-2.291-2.671-3.511l1.064,0.132
		l-1.732-4.01C57.968,291.785,57.938,291.485,57.962,291.068z M66.583,305.24c0.208-0.219,0.409-0.429,0.578-0.605
		c0.432-0.449,0.707-0.735,0.88-0.948c0.442-0.341,0.814-0.824,1.176-1.293c0.078-0.102,0.153-0.188,0.23-0.285
		c1.478,3.929,7.511,4.981,10.863,5.479c0.908,1.64,1.937,3.464,2.91,5.189c0.244,0.432,0.483,0.856,0.719,1.274
		c-2.752-0.644-5.737-1.617-10.284-4.269C71.354,308.439,68.817,306.804,66.583,305.24z M134.962,350.946
		c1.936,4.397,3.893,8.37,6.542,13.284c2.177,4.037,1.885,7.606,1.222,8.767c-2.751-0.197-11.408-5.884-27.092-21.409
		c-2.854-2.825-5.404-6.194-8.104-9.761c-1.552-2.05-3.156-4.169-4.873-6.252c-2.311-2.803-4.384-5.804-6.48-8.888
		c-0.358-0.528-0.924-1.38-1.589-2.379c-6.185-9.303-6.234-9.313-7.509-9.586l-0.532-0.111c-0.483-0.861-1.019-1.812-1.586-2.817
		c-2.107-3.736-4.729-8.387-5.353-9.833c-0.381-0.883-1.165-2.608-2.11-4.688c-1.396-3.07-3.242-7.134-4.578-10.232l1.495-0.075
		l-2.023-5.323c-3.397-8.915-6.081-15.956-7.909-25.708c-1.472-7.852-1.994-21.614-1.994-31.014c0-2.739,0.02-5.146,0.038-7.312
		c0.045-5.385,0.077-9.278-0.229-13.232c1.617-0.098,3.055-0.42,4.454-0.739c1.283-0.292,2.496-0.569,3.845-0.68
		c3.575-0.297,7.717,0.767,11.372,1.7c0.798,0.204,1.575,0.402,2.322,0.581c5.99,1.432,13.329,2.137,22.4,2.163
		c-0.718,6.205-1.457,12.606-1.919,18.364c-0.964,11.936-0.821,21.782,0.426,29.265c2.803,16.821,7.522,32.403,12.948,49.573
		c1.599,5.066,3.854,10.812,5.886,14.994c0.7,1.442,1.293,2.829,1.867,4.17c0.431,1.008,0.851,1.981,1.284,2.905
		c-0.824,1.127-1.099,1.772,2.663,11.651C131.693,343.172,133.86,348.445,134.962,350.946z M187.965,188.64
		c-0.765-2.739-1.682-3.733-3.216-4.533c2.015-4.432,4.921-8.521,10.213-10.165c2.622-0.814,6.126-0.418,9.219-0.067
		c0.504,0.057,0.986,0.109,1.456,0.158c-0.873,1.405-1.782,2.597-2.669,3.752c-1.635,2.13-3.18,4.142-4.271,7.175
		c-0.878,2.442-1.155,5.511-1.423,8.479c-0.128,1.415-0.248,2.752-0.429,3.928c-0.244,1.577-0.36,3.051-0.474,4.476
		c-0.355,4.488-0.637,8.032-4.741,11.085c-1.555,1.155-2.467,1.981-3.046,2.884c-1.151-0.42-2.2-0.771-3.214-1.05
		c0.018-0.537,0.053-1.175,0.095-1.895c0.179-3.085,0.409-7.175-0.412-9.857c0.803-0.43,1.601-1.236,2.401-2.636
		C188.174,199.116,188.892,191.955,187.965,188.64z M182.146,182.945c-3.025-1.369-5.489-2.492-7.396-4.23
		c0.642-0.933,1.258-1.9,1.865-2.863c1.576-2.502,3.064-4.865,4.884-6.338c0.835-0.675,1.628-1.362,2.406-2.037
		c1.991-1.726,3.872-3.356,6.106-4.455c3.422-1.684,7.138-1.62,11.066-1.559c0.79,0.013,1.591,0.026,2.402,0.026v-2
		c-0.801,0-1.591-0.013-2.37-0.025c-4.171-0.069-8.125-0.132-11.981,1.764c-2.466,1.213-4.442,2.925-6.533,4.738
		c-0.762,0.66-1.537,1.333-2.354,1.994c-2.078,1.682-3.726,4.297-5.319,6.827c-0.512,0.812-1.029,1.629-1.561,2.419
		c-0.94-1.241-1.69-2.771-2.244-4.766c-0.835-3.003-1.844-3.873-3.37-5.191c-0.494-0.426-1.054-0.91-1.71-1.549
		c-0.948-0.927-2.329-1.68-3.664-2.409c-0.898-0.49-1.746-0.952-2.423-1.439c-0.323-0.231-0.663-0.47-1.011-0.714
		c-1.246-0.873-2.658-1.863-3.585-2.791c-1.271-1.271-2.547-2.241-3.78-3.18c-0.82-0.624-1.667-1.269-2.521-2.007
		c-2.958-2.554-3.708-5.031-2.765-9.139l0.023-0.046l-0.001-0.117c0.007-0.056,0.027-0.147,0.056-0.255
		c1.22,1.097,2.575,1.964,4.011,2.494c2.889,1.067,5.984,0.851,8.954-0.625c2.397-1.189,4.028-3.397,5.468-5.346
		c0.438-0.592,0.862-1.167,1.292-1.689c1.693-2.057,4.855-4.146,7.165-5.672l0.503-0.333c0.247-0.164,0.458-0.309,0.646-0.439
		c1.003-0.692,1.158-0.798,2.887-0.869c1.867-0.073,2.036,0.089,2.678,0.7c0.273,0.26,0.614,0.584,1.11,0.96
		c0.613,0.464,1.446,0.984,2.328,1.535c1.746,1.09,4.385,2.737,4.731,3.824l0.138,0.434l0.418,0.181
		c3.422,1.479,6.424,2.548,9.684,3.091l-0.279,0.103c0.527,1.429,1.646,2.613,2.729,3.758c0.826,0.874,1.606,1.699,2.105,2.588
		l0.165,0.217c0.71,0.71,1.771,1.707,2.896,2.764c1.473,1.383,3.143,2.951,4.17,4.023c1.504,1.57,2.806,2.678,3.955,3.656
		c1.356,1.155,2.528,2.152,3.773,3.651c0.761,0.915,1.458,1.735,2.106,2.498c2.948,3.465,4.844,5.702,7.017,10.258
		c-1.869-0.699-3.818-1.16-5.734-1.604l-0.828-0.193c-3.226-0.756-6.657-0.969-9.976-1.175c-1.362-0.084-2.717-0.168-4.048-0.29
		c-0.637-0.058-1.316-0.135-2.024-0.215c-3.288-0.373-7.015-0.793-10.038,0.145c-6.034,1.875-9.247,6.396-11.442,11.25
		C182.674,183.175,182.43,183.073,182.146,182.945z M166.296,243.659c0.097,1.833,0.207,3.911-0.636,5.025
		c-0.765,1.011-2.867,1.644-4.721,2.202c-1.165,0.351-2.264,0.682-3.098,1.114c-3.599,1.861-5.525,5.168-7.248,8.519
		c-0.529-0.585-1-1.073-1.426-1.511c-1.044-1.073-1.869-1.92-2.975-3.696l-0.099-0.159c-1.287-2.067-2.73-4.385-2.44-6.757
		c0.205,0.206,0.427,0.451,0.591,0.633c0.419,0.464,0.854,0.944,1.3,1.268l0.139,0.1l0.164,0.049
		c0.406,0.122,0.826,0.036,1.152-0.23c0.946-0.771,1.015-2.905,0.35-10.876c-0.068-0.812-0.13-1.557-0.174-2.177
		c-0.114-1.6,0.234-1.881,0.274-1.908c0.543-0.369,2.768,0.741,4.239,1.475c1.266,0.63,2.574,1.281,3.887,1.728l0.357,0.122
		l0.349-0.145c0.584-0.243,0.755-0.684,0.804-0.925c0.152-0.743-0.371-1.279-0.924-1.847c-0.346-0.354-0.988-1.013-0.947-1.354
		c0.16-1.319,0.586-1.425,2.687-1.394c0.369,0.007,0.747,0.007,1.128-0.004c0.602,0.53,1.21,1.048,1.808,1.547
		c2.213,1.85,4.301,3.609,5.581,6.003l-0.124,0.018l-0.045,0.818C166.21,242.021,166.252,242.817,166.296,243.659z M162.12,232.922
		c-0.584-0.487-1.176-0.99-1.756-1.502c-0.021-1.26,0.305-2.629,0.668-4.077c0.252-1.005,0.51-2.036,0.643-3.055
		c0.438-0.037,0.84-0.085,1.211-0.128c2.532-0.301,3.579-0.423,7.062,4.356l0.114,0.156l0.164,0.103
		c0.701,0.44,1.222,0.226,1.469,0.061c0.79-0.529,0.63-1.464,0.311-3.324c-0.391-2.279-0.981-5.725,0.404-7.644
		c0.569-0.789,1.44-1.264,2.663-1.45c5.549-0.847,8.197-0.409,12.752,1.245c-0.184,0.744-0.31,1.619-0.458,2.746l-0.141,1.062
		c-0.449,3.292-1.565,4.252-3.591,5.993c-0.608,0.522-1.297,1.115-2.042,1.841c-1.243,1.211-1.811,2.777-2.36,4.292
		c-0.54,1.49-1.098,3.03-2.316,4.271c-1.861,1.898-4.373,2.062-7.032,2.237c-0.614,0.04-1.242,0.09-1.871,0.153l0.45-0.213
		C167.027,237.021,164.533,234.938,162.12,232.922z M183.091,203.407c0.787,2.271,0.543,6.487,0.377,9.344
		c-0.009,0.162-0.019,0.321-0.027,0.477c-3.152-1.381-5.759-0.248-7.733,0.609c-0.917,0.398-1.785,0.769-2.386,0.734
		c-0.933-0.062-3.096-2.27-4.258-3.456c-1.727-1.764-2.517-2.565-3.449-2.194c-0.166,0.066-0.697,0.338-0.744,1.107
		c-0.142,0.949-0.082,1.979-0.023,2.974c0.065,1.109,0.132,2.256-0.103,3.144c-0.267,0.995-1.996,3.146-3.235,3.146
		c-0.01,0-0.02,0-0.029-0.001c-1.861-0.051-6.514-4.312-8.011-6.381l-0.832-1.15l-0.803,1.171c-0.193,0.282-0.36,0.538-0.512,0.772
		c-0.889,1.367-1.044,1.605-3.465,1.695c-0.744-0.389-2.594-3.082-3.958-5.066c-1.393-2.026-2.956-4.275-4.627-6.267
		c1.354-0.251,2.81-0.505,4.398-0.764c2.02-0.325,3.974-0.345,6.042-0.365c1.984-0.02,4.035-0.04,6.146-0.354
		c1.661-0.248,3.106-0.77,4.504-1.274c1.735-0.626,3.374-1.218,5.393-1.312c4.299-0.196,8.096,0.613,12.471,1.887
		c0.769,0.224,1.446,0.485,2.101,0.737C181.266,202.982,182.184,203.334,183.091,203.407z M136.458,207.522
		c0.121,1.255,0.322,3.354,0.127,3.802c-0.709,1.068-3.865,1.981-5.406,2.073c-1.449-0.736-2.325-2.431-3.422-4.551
		c-0.195-0.377-0.397-0.765-0.607-1.158c0.78-0.254,1.513-0.599,2.235-0.941c0.896-0.426,1.822-0.865,2.866-1.147
		c1.173-0.314,2.519-0.629,4.03-0.946C136.257,205.372,136.341,206.306,136.458,207.522z M125.078,208.066
		c0.32,0.58,0.619,1.151,0.902,1.699c1.275,2.464,2.375,4.592,4.593,5.557l0.194,0.085l0.212-0.002
		c1.467-0.011,5.924-0.942,7.272-2.976c0.571-0.859,0.447-2.497,0.197-5.099c-0.037-0.386-0.081-0.845-0.116-1.288
		c1.375,1.721,2.709,3.663,3.918,5.422c2.542,3.699,3.93,5.642,5.251,5.918l0.117,0.024l0.12-0.004
		c3.122-0.102,3.927-0.644,5.009-2.232c1.989,2.222,6.119,6.049,8.677,6.12c0.026,0,0.052,0.001,0.078,0.001
		c2.403,0,4.741-3.02,5.173-4.631c0.319-1.2,0.242-2.51,0.167-3.776c-0.025-0.422-0.049-0.834-0.058-1.228
		c0.285,0.282,0.587,0.59,0.849,0.857c1.437,1.467,2.703,2.698,3.849,3.409c-0.254,0.234-0.49,0.489-0.696,0.774
		c-1.737,2.408-1.286,5.967-0.855,8.553c-2.902-3.402-4.548-3.399-7.281-3.077c-0.597,0.07-1.215,0.143-1.934,0.172l-0.916,0.036
		l-0.043,0.916c-0.052,1.104-0.351,2.297-0.667,3.559c-0.335,1.337-0.679,2.71-0.739,4.064c-0.141-0.002-0.281-0.004-0.418-0.006
		c-1.821-0.029-4.313-0.069-4.705,3.151c-0.058,0.47,0.038,0.904,0.214,1.299c-0.29-0.142-0.578-0.285-0.864-0.428
		c-2.541-1.265-4.733-2.354-6.244-1.346c-1.216,0.814-1.242,2.509-1.156,3.713c0.045,0.627,0.108,1.38,0.176,2.2
		c0.182,2.173,0.52,6.223,0.42,8.236c-0.016-0.018-0.032-0.035-0.048-0.053c-0.819-0.906-1.583-1.763-2.577-1.65
		c-0.284,0.032-0.815,0.186-1.182,0.845l-0.087,0.212c-0.992,3.485,1.034,6.74,2.514,9.116l0.099,0.158
		c1.22,1.96,2.156,2.921,3.24,4.034c0.544,0.559,1.157,1.194,1.882,2.029c-0.662,1.292-1.354,2.591-2.142,3.775
		c-3.966,5.949-10.055,10.314-15.952,14.274c-1.708,1.148-3.502,1.882-5.402,2.657c-1.095,0.447-2.228,0.91-3.369,1.466
		c-0.82,0.398-1.508,0.812-2.174,1.212c-1.664,0.999-3.015,1.803-5.556,1.792c-3.233-10.993-5.981-21.688-7.851-32.907
		c-1.22-7.321-1.356-17.003-0.405-28.776c0.467-5.799,1.216-12.276,1.941-18.541l0.218-1.885c1.051-0.879,3.755-1.798,5.593-1.798
		c0.026,0,0.051,0.001,0.077,0.001c1.814,0.023,2.967,0.885,4.302,1.882c1.069,0.799,2.281,1.705,3.925,2.187
		c0.729,0.215,1.403,0.306,2.036,0.306C124.933,208.077,125.004,208.069,125.078,208.066z M256.636,190.309
		c-0.339,0.207-0.958,0.472-1.359,0.644c-1.381,0.591-2.946,1.26-3.634,2.817c-0.048,0.107-0.072,0.204-0.113,0.309
		c-0.005-0.238-0.007-0.479-0.023-0.708l-1.994,0.146c0.336,4.554-2.223,12.437-4.785,17.129c-2.57,4.699-6.173,9.963-9.883,14.441
		c-4.979,6.017-11.212,10.016-17.812,14.25c-3.741,2.399-7.61,4.882-11.214,7.759l1.248,1.562c3.522-2.812,7.348-5.266,11.046-7.639
		c6.438-4.13,13.097-8.4,18.273-14.657c3.787-4.572,7.467-9.951,10.097-14.758c1.832-3.354,4.132-9.308,4.838-14.369
		c0.161,0.524,0.395,0.946,0.581,1.281c0.266,0.479,0.399,0.719,0.408,1.342c0.056,4.048,0.83,6.577,1.514,8.809
		c0.851,2.778,1.522,4.973,0.735,9.962c-0.168,0.894-3.371,7.336-11.523,8.007c-3.555,0.29-7.725,5.739-14.168,14.679
		c-1.14,1.58-2.216,3.073-3.117,4.258c-8.576,11.259-22.091,26.526-32.949,35.255c-7.006,5.632-10.75,8.029-16.418,11.659
		c-2.034,1.303-4.291,2.748-6.987,4.529c-0.76,0.477-8.678,4.718-9.297,5.011c-1.949,0.79-5.104,2.089-7.462,3.063
		c-2.349,0.966-4.825,2.726-7.009,4.278c-0.528,0.375-1.035,0.735-1.509,1.062c-4.283,2.944-10.689,8.354-15.553,14.446
		c-0.273-0.615-0.546-1.244-0.825-1.895c-0.583-1.362-1.186-2.771-1.907-4.257c-1.992-4.102-4.206-9.743-5.778-14.724
		c-1.553-4.914-3.037-9.689-4.444-14.407c2.732-0.12,4.332-1.061,5.999-2.062c0.628-0.377,1.278-0.768,2.02-1.127
		c1.083-0.528,2.185-0.978,3.25-1.413c1.909-0.779,3.884-1.586,5.761-2.849c6.063-4.072,12.331-8.571,16.5-14.825
		c1.031-1.549,1.88-3.225,2.703-4.846c1.809-3.566,3.518-6.935,6.919-8.695c0.669-0.347,1.683-0.651,2.755-0.975
		c2.147-0.646,4.581-1.38,5.739-2.911c1.283-1.697,1.152-4.162,1.038-6.337c-0.024-0.459-0.047-0.902-0.056-1.315
		c0.59-0.059,1.191-0.099,1.779-0.137c2.917-0.191,5.932-0.39,8.328-2.833c1.522-1.552,2.184-3.378,2.769-4.99
		c0.515-1.422,0.96-2.65,1.875-3.541c0.7-0.683,1.335-1.229,1.95-1.757c2.077-1.785,3.717-3.195,4.269-7.24l0.143-1.071
		c0.476-3.641,0.515-3.938,3.474-6.137c4.833-3.596,5.177-7.937,5.542-12.532c0.109-1.389,0.224-2.824,0.456-4.33
		c0.19-1.237,0.313-2.604,0.444-4.052c0.256-2.842,0.521-5.78,1.313-7.981c0.984-2.739,2.437-4.631,3.975-6.634
		c1.092-1.423,2.217-2.911,3.298-4.793c0.833,0.061,1.66,0.126,2.502,0.179c3.235,0.201,6.582,0.409,9.643,1.126l0.834,0.194
		c0.426,0.099,0.853,0.198,1.28,0.3c-0.758,3.923,1.82,8.09,5.019,10.3c1.807,1.249,3.696,1.87,5.491,1.87
		c1.936,0,3.761-0.723,5.251-2.162l-1.389-1.438c-3.23,3.117-7.105,0.853-8.216,0.085c-2.608-1.802-4.75-5.11-4.22-8.157
		c2.125,0.59,4.183,1.357,5.936,2.645c0.519,0.381,1.021,0.775,1.52,1.165c2.422,1.896,4.911,3.866,8.562,3.758
		c1.915-0.052,3.731-0.797,5.488-1.519c2.356-0.967,4.582-1.881,6.904-1.154c0.849,0.265,1.62,1.188,2.437,2.164
		c0.7,0.837,1.529,1.825,2.567,2.431C257.043,187.055,256.744,188.425,256.636,190.309z M312.831,129.153
		c-1.077,1.086-2.095,2.112-2.944,2.91c-2.563,2.407-4.272,4.903-5.925,7.316c-1.119,1.635-2.177,3.179-3.495,4.716
		c-3.46,4.031-6.774,4.922-8.556,5.401c-0.014,0.004-0.025,0.007-0.039,0.011c-0.374-1.569-0.978-2.992-1.571-4.382
		c-0.341-0.8-0.694-1.627-0.997-2.47c-0.276-0.768-0.812-1.833-1.378-2.961c-0.745-1.48-2.13-4.237-1.998-4.932l-1.235-0.246
		c0.033-0.144,0.06-0.29,0.096-0.432c0.503-1.962,1.721-3.815,2.899-5.608c0.598-0.909,1.215-1.848,1.733-2.793
		c0.643-1.171,1.155-2.415,1.698-3.732c0.293-0.71,0.593-1.438,0.923-2.173c1.064-2.372,3.161-4.109,5.381-5.948
		c2.054-1.701,4.178-3.46,5.459-5.802c1.097-2,1.462-4.306,1.816-6.535c0.329-2.077,0.641-4.04,1.493-5.711
		c0.576-1.13,1.187-2.288,1.809-3.468c2.786-5.286,5.943-11.278,7.196-17.147c0.359-1.695,0.861-3.033,1.393-4.45
		c0.526-1.403,1.071-2.854,1.553-4.801c0.445-1.798,0.565-3.639,0.681-5.419c0.098-1.496,0.198-3.043,0.495-4.521
		c0.099-0.491,0.239-0.968,0.387-1.474c0.294-1.001,0.627-2.135,0.68-3.585c0.062-1.766,0.282-3.314,0.603-4.246
		c0.378-1.097,0.979-2.129,1.613-3.221c0.739-1.271,1.503-2.586,1.977-4.112c0.928-2.981,1.211-6.435,1.486-9.774
		c0.347-4.223,0.706-8.59,2.363-11.936l-1.793-0.888c-1.826,3.688-2.201,8.249-2.563,12.659c-0.278,3.381-0.541,6.574-1.403,9.345
		c-0.406,1.31-1.081,2.471-1.795,3.7c-0.656,1.127-1.334,2.293-1.776,3.576c-0.522,1.522-0.669,3.677-0.709,4.824
		c-0.044,1.199-0.314,2.12-0.601,3.095c-0.153,0.524-0.312,1.065-0.429,1.642c-0.323,1.609-0.428,3.224-0.529,4.785
		c-0.115,1.771-0.225,3.443-0.627,5.068c-0.454,1.833-0.978,3.229-1.483,4.579c-0.559,1.49-1.087,2.896-1.477,4.737
		c-1.195,5.597-4.151,11.206-7.01,16.63c-0.626,1.188-1.24,2.354-1.82,3.492c-0.997,1.955-1.348,4.167-1.688,6.307
		c-0.342,2.155-0.665,4.191-1.595,5.888c-1.099,2.006-2.984,3.568-4.981,5.222c-2.298,1.904-4.675,3.874-5.929,6.67
		c-0.339,0.755-0.646,1.5-0.947,2.229c-0.521,1.265-1.015,2.459-1.604,3.533c-0.479,0.875-1.049,1.74-1.65,2.656
		c-1.269,1.93-2.581,3.925-3.166,6.21c-0.869,3.379-0.822,7.028-0.777,10.557c0.01,0.765,0.02,1.524,0.02,2.273h2
		c0-0.757-0.01-1.525-0.02-2.298c-0.032-2.51-0.063-5.082,0.246-7.514c0.382,1.08,1.019,2.394,1.819,3.988
		c0.539,1.072,1.048,2.085,1.283,2.739c0.322,0.897,0.687,1.752,1.04,2.579c0.617,1.446,1.204,2.84,1.526,4.351
		c-0.154,0.108-0.305,0.226-0.443,0.373c-1.437,1.516-2.28,3.067-3.024,4.436c-1.203,2.213-1.865,3.433-4.478,3.923l-0.407,0.076
		l-0.254,0.144c-0.783,0.225-3.566,0.356-5.423,0.444c-1.546,0.073-3.144,0.149-4.424,0.276c-0.975,0.096-1.758,0.14-2.466,0.14
		c-1.524,0-3.447-0.221-3.952-1.273l-0.613-1.278c1.02-2.872,1.97-5.601,1.813-9.321c-0.034-0.847-0.109-1.675-0.184-2.498
		c-0.115-1.269-0.224-2.468-0.182-3.707c0.219-7.023,1.017-8.04,1.091-8.118c1.591-1.229,2.801-1.331,3.602-0.311
		c1.063,1.354,1.389,5.064,0.799,6.467c-1.336,3.187-4.084,10.848-0.766,13.133l1.135-1.647c-1.535-1.057-0.42-6.189,1.475-10.711
		c0.852-2.022,0.486-6.497-1.07-8.477c-1.524-1.942-3.917-1.956-6.4-0.034c-0.792,0.616-1.633,2.242-1.863,9.634
		c-0.046,1.36,0.073,2.678,0.188,3.952c0.071,0.79,0.145,1.585,0.178,2.4c0.143,3.381-0.729,5.837-1.739,8.681
		c-0.05,0.14-0.1,0.289-0.149,0.43l-0.329,0.105c-2.775,0.888-2.68,4.565-2.521,10.656c0.016,0.611,0.031,1.207,0.041,1.768
		c0.037,2.036,0.337,3.404,0.601,4.611c0.378,1.727,0.734,3.36,0.344,7.423c-0.115,0.337-0.268,0.467-0.722,0.853
		c-0.497,0.422-0.979,0.874-1.415,1.444c-0.593-0.357-1.203-1.016-2.002-1.971c-0.966-1.155-1.965-2.35-3.375-2.79
		c-3.012-0.939-5.679,0.154-8.259,1.213c-1.664,0.683-3.235,1.328-4.784,1.37c-0.069,0.002-0.139,0.003-0.208,0.003
		c-2.804,0-4.783-1.55-7.065-3.336c-0.515-0.403-1.033-0.809-1.569-1.203c-0.638-0.468-1.305-0.863-1.987-1.219l0.396-0.174
		c-2.615-5.943-4.661-8.35-8.053-12.336c-0.644-0.757-1.336-1.572-2.092-2.48c-1.355-1.632-2.647-2.731-4.016-3.896
		c-1.167-0.993-2.373-2.021-3.807-3.517c-1.064-1.111-2.681-2.629-4.245-4.098c-1.06-0.995-2.061-1.935-2.757-2.627
		c-0.617-1.051-1.485-1.969-2.325-2.858c-0.715-0.756-1.395-1.482-1.865-2.222c1.473,0.139,3.015,0.181,4.693,0.1
		c2.74-0.133,5.159-0.549,7.499-0.952c2.286-0.394,4.446-0.765,6.845-0.879c5.915-0.29,9.591,2.771,13.875,6.304
		c0.422,0.348,0.849,0.7,1.282,1.053c1.796,1.461,3.064,2.321,4.557,2.321c1.216,0,2.579-0.57,4.497-1.851
		c0.661-0.441,1.567-0.956,2.526-1.5c2.372-1.346,5.06-2.872,6.419-4.548c1.467-1.81,1.939-4,2.397-6.118
		c0.316-1.463,0.614-2.846,1.218-4.062c1.08-2.172,4.082-3.94,6.729-5.5c0.549-0.323,1.087-0.64,1.598-0.954
		c2.318-1.421,4.906-1.64,8.59-1.81l0.819-0.033c1.667-0.062,2.769-0.102,4.33-0.938c0.811-0.437,1.181-1.025,1.478-1.498
		c0.295-0.468,0.457-0.726,1.037-0.91l-0.605-1.906c-1.278,0.405-1.768,1.184-2.125,1.752c-0.232,0.37-0.386,0.615-0.73,0.801
		c-1.151,0.616-1.874,0.643-3.457,0.701l-0.838,0.033c-3.251,0.15-6.612,0.306-9.544,2.103c-0.501,0.308-1.028,0.618-1.566,0.935
		c-2.888,1.701-6.161,3.629-7.507,6.334c-0.714,1.44-1.053,3.011-1.381,4.529c-0.427,1.975-0.83,3.841-1.996,5.28
		c-1.121,1.383-3.744,2.872-5.853,4.068c-0.991,0.563-1.929,1.095-2.649,1.576c-3.427,2.286-3.988,1.833-6.682-0.359
		c-0.43-0.35-0.853-0.698-1.271-1.044c-4.413-3.639-8.579-7.074-15.243-6.759c-2.521,0.121-4.843,0.52-7.089,0.906
		c-2.279,0.392-4.638,0.798-7.257,0.925c-5.801,0.283-9.992-0.93-15.157-3.136c-0.817-1.604-3.138-3.052-5.388-4.457
		c-0.843-0.526-1.639-1.023-2.18-1.432c-0.407-0.309-0.689-0.578-0.939-0.815c-1.036-0.986-1.66-1.351-4.137-1.25
		c-2.203,0.089-2.701,0.365-3.942,1.221c-0.18,0.124-0.381,0.263-0.616,0.418l-0.5,0.331c-2.415,1.595-5.722,3.78-7.606,6.069
		c-0.451,0.547-0.897,1.151-1.356,1.772c-1.369,1.853-2.784,3.768-4.749,4.743c-2.5,1.242-4.98,1.424-7.372,0.541
		c-2.867-1.059-5.421-3.671-6.832-6.989c-1.2-2.823-2.465-7.011-3.222-10.671c-1.106-5.348,0.009-7.162,2.034-10.454
		c0.52-0.844,1.108-1.801,1.717-2.916c1.225-2.243,2.293-4.677,3.425-7.253c3.605-8.209,7.333-16.697,16.236-18.53
		c3.776-0.777,6.371,0.072,9.659,1.148l0.943,0.307c0.646,0.207,1.165,0.339,1.609,0.453c1.279,0.326,1.709,0.435,3.037,1.949
		c0.424,0.483,0.803,1.003,1.17,1.505c0.766,1.049,1.559,2.133,2.807,2.999l1.14-1.644c-0.972-0.674-1.632-1.578-2.332-2.536
		c-0.393-0.537-0.798-1.092-1.281-1.644c-1.086-1.237-1.816-1.781-2.625-2.122c-0.005-4.38-0.649-10.039-1.685-14.798l-1.954,0.426
		c0.962,4.418,1.57,9.614,1.629,13.773c-0.272-0.073-0.566-0.157-0.904-0.265l-0.933-0.303c-3.285-1.075-6.389-2.09-10.684-1.207
		c-5.356,1.103-9.012,4.352-11.821,8.404c-0.063-0.431-0.138-0.856-0.219-1.274c-0.27-1.396-0.503-2.601-0.017-3.84
		c0.915-2.33,0.755-4.67,0.602-6.932c-0.175-2.568-0.339-4.995,1.106-7.186l-1.67-1.102c-1.816,2.755-1.621,5.636-1.432,8.422
		c0.145,2.136,0.282,4.154-0.468,6.066c-0.699,1.779-0.373,3.464-0.085,4.951c0.2,1.032,0.388,2.006,0.255,2.96l0.548,0.077
		c-1.728,2.917-3.13,6.101-4.464,9.138c-1.114,2.536-2.166,4.931-3.349,7.099c-0.584,1.069-1.158,2.002-1.665,2.826
		c-2.141,3.481-3.556,5.781-2.29,11.907c0.782,3.778,2.093,8.115,3.34,11.048c0.622,1.461,1.446,2.803,2.413,3.977
		c-0.253,0.56-0.422,1.24-0.477,1.607c-1.102,4.823-0.112,8.033,3.413,11.075c0.901,0.778,1.773,1.442,2.617,2.084
		c1.235,0.94,2.401,1.828,3.578,3.003c1.051,1.051,2.539,2.094,3.852,3.014c0.342,0.239,0.676,0.474,0.992,0.701
		c0.777,0.559,1.721,1.073,2.632,1.571c1.216,0.664,2.473,1.349,3.224,2.083c0.701,0.683,1.285,1.188,1.8,1.633
		c1.469,1.268,2.077,1.792,2.75,4.212c0.702,2.528,1.712,4.409,2.966,5.908c-1.083,1.404-2.25,2.601-3.584,3.311l0.938,1.766
		c1.561-0.83,2.872-2.128,4.056-3.629c2.133,1.883,4.776,3.089,7.754,4.437c0.291,0.131,0.559,0.248,0.818,0.358
		c-0.35,0.871-0.676,1.743-0.985,2.603c-0.106,0.293-0.201,0.579-0.292,0.857c-0.311,0.94-0.556,1.683-1.12,2.382l1.558,1.254
		c0.791-0.981,1.131-2.012,1.461-3.008c0.086-0.262,0.175-0.531,0.275-0.808c0.292-0.812,0.601-1.636,0.93-2.458
		c1.03,0.566,1.52,1.249,2.073,3.23c0.815,2.918,0.09,9.365-0.321,10.203c-1.487,2.602-2.227,2.316-4.672,1.373
		c-0.661-0.255-1.411-0.544-2.261-0.791c-4.566-1.328-8.541-2.167-13.122-1.965c-2.322,0.107-4.182,0.779-5.98,1.428
		c-1.366,0.493-2.657,0.959-4.121,1.178c-1.974,0.295-3.955,0.314-5.87,0.333c-2.052,0.021-4.173,0.041-6.343,0.391
		c-4.942,0.805-8.742,1.57-11.618,2.341c-1.22,0.329-2.275,0.83-3.205,1.272c-1.762,0.837-3.154,1.498-5.141,0.912
		c-1.3-0.381-2.268-1.104-3.292-1.869c-1.479-1.105-3.008-2.248-5.472-2.28c-2.312,0.007-7.15,1.315-7.991,3.617l0.227,0.083
		c-8.99-0.018-16.228-0.707-22.101-2.11c-0.738-0.177-1.505-0.372-2.292-0.573c-3.807-0.974-8.123-2.071-12.03-1.757
		c-1.492,0.123-2.832,0.429-4.127,0.725c-1.564,0.356-3.054,0.696-4.763,0.72c-0.008-0.131-0.018-0.267-0.026-0.407
		c-0.544-8.347-0.039-12.821,1.5-13.299l0.603-0.187l0.091-0.625c0.178-1.227,0.821-2.321,1.502-3.479
		c0.589-1.002,1.198-2.038,1.568-3.25c0.468-1.53,0.665-3.153,0.854-4.723c0.145-1.198,0.282-2.329,0.529-3.405
		c1.408-6.144,2.765-10.533,4.687-15.149c0.509-1.224,1.03-2.459,1.555-3.703c2.089-4.955,4.249-10.078,5.97-15.173
		c1.501-4.441,3.33-8.283,7.374-12.595l0.281-0.299l-0.003-0.122c0.437-0.57,1.859-2.133,2.661-3.014
		c0.971-1.067,1.343-1.482,1.513-1.7c6.598-5.43,11.176-9.798,14.471-20.102l-0.118-0.038c2.023-1.408,3.897-2.846,5.442-4.521
		c1.402-1.047,2.779-1.975,4.111-2.872c1.742-1.173,3.387-2.281,4.682-3.406c0.828-0.72,1.66-1.509,2.542-2.344
		c2.149-2.038,4.373-4.145,6.646-5.34c0.952-0.501,1.858-0.95,2.736-1.385c2.557-1.268,4.972-2.465,7.602-4.49
		c1.239-0.955,2.657-1.323,4.158-1.713c1.546-0.401,3.145-0.817,4.751-1.873l-1.099-1.671c-1.33,0.874-2.702,1.23-4.155,1.608
		c-1.629,0.423-3.313,0.861-4.875,2.064c-2.474,1.904-4.696,3.006-7.27,4.282c-0.892,0.442-1.812,0.898-2.778,1.407
		c-2.518,1.323-4.843,3.527-7.091,5.659c-0.865,0.82-1.682,1.595-2.478,2.287c-1.201,1.044-2.797,2.119-4.486,3.256
		c-1.376,0.927-2.8,1.885-4.268,2.986l-0.138,0.125c-2.03,2.223-4.795,4.071-7.722,6.028c-1.125,0.752-2.261,1.512-3.368,2.302
		c-3.429,2.446-6.757,5.574-9.893,9.298c-0.682,0.809-1.32,1.593-1.941,2.355c-2.153,2.644-4.013,4.927-6.725,7.142
		c-1.563,1.276-2.424,2.996-3.257,4.659c-0.942,1.883-1.793,3.54-3.523,4.348c0.059-0.945,2.089-3.57,3.184-4.985
		c1.394-1.802,2.711-3.504,3.276-5.031c0.833-2.251,1.109-4.066,1.331-5.525c0.368-2.423,0.57-3.758,2.945-6.105
		c3.861-3.818,13.616-9.61,18.993-12.321c4.749-2.395,8.848-6.713,12.464-10.523c0.771-0.812,1.525-1.607,2.265-2.361
		c9.177-9.348,15.878-13.719,26.56-17.326c1.635-0.552,3.268-1.092,4.892-1.63c4.331-1.433,8.809-2.915,13.021-4.531
		c1.663-0.638,3.377-1.309,5.122-1.991c4.046-1.583,8.231-3.22,12.292-4.648c10.248-3.606,19.938-8.617,28.022-14.49
		c9.336-6.779,17.402-10.437,27.844-12.624c5.932-1.244,11.488-3.173,16.863-5.039c3.951-1.372,8.036-2.791,12.178-3.896
		c2.68-0.715,5.953-1.722,9.419-2.787c10.99-3.38,26.043-8.008,37.504-8.008c6.283,0,10.833,1.397,13.522,4.151
		c2.365,2.423,3.459,5.956,3.344,10.8c-0.245,10.25-1.838,16.317-2.892,20.332c-0.274,1.045-0.516,1.968-0.697,2.801
		c-1.75,8.009-1.79,9.533,1.307,18.083c0.879,2.428,0.781,4.537,0.668,6.979c-0.133,2.852-0.283,6.085,1.125,10.168l0.454,1.317
		l0.672,0.152c0.132,0.65,0.17,1.772,0.19,2.376c-1.09-0.276-2.241-0.259-3.297,0.104c-1.69,0.581-2.837,1.933-3.146,3.709
		c-0.355,2.06,0.519,2.971,1.156,3.637c0.352,0.367,0.555,0.591,0.648,0.941c0.32,1.192,0.239,3.433,0.057,5.13
		c-0.138,1.252-0.661,2.364-1.168,3.439c-0.88,1.868-1.877,3.985-0.514,6.642c1.982,3.869,3.396,7.208,2.06,9.875
		c-1.062-3.459-8.953-11.259-12.837-10.862l0.203,1.989c2.206-0.229,10.109,6.397,10.77,9.576l1.673-0.347
		c-0.546,0.897-1.439,1.713-2.755,2.443c-1.126,0.273-2.171,0.896-3.202,1.917C317.733,124.212,315.242,126.723,312.831,129.153z
		 M342.009,110.13c-0.121,2.66-1.004,9.02-6.594,10.625c-1.946,0.559-3.647,0.831-5.199,0.831c-1.433,0-2.472-0.228-3.477-0.448
		c-0.195-0.043-0.389-0.085-0.58-0.125c4.242-4.161,1.269-9.977-0.617-13.657c-0.914-1.781-0.303-3.08,0.544-4.876
		c0.55-1.167,1.173-2.489,1.347-4.075c0.126-1.169,0.366-4.08-0.113-5.864c-0.23-0.862-0.732-1.386-1.136-1.807
		c-0.524-0.547-0.813-0.848-0.63-1.912c0.246-1.417,1.249-1.961,1.825-2.159c0.915-0.314,1.977-0.219,2.897,0.208
		c0.259,1.042,0.806,1.998,2.05,2.222c1.666,0.829,3.611,3.49,5.337,5.852l0.596,0.813
		C341.169,99.708,342.29,104.006,342.009,110.13z M220.806,127.15c1.531,1.531,1.883,2.615,2.14,3.406l-1.902,0.617
		c-0.227-0.698-0.46-1.419-1.698-2.658c-1.278-1.458-2.557-2.668-3.685-3.737c-0.628-0.595-1.216-1.152-1.737-1.685
		c-1.232-1.257-2.021-1.757-3.112-2.45c-0.609-0.387-1.301-0.825-2.171-1.463c-1.008-0.739-1.933-1.483-2.826-2.203
		c-2.85-2.292-5.31-4.271-9.333-5.278l0.484-1.94c4.45,1.113,7.195,3.322,10.103,5.66c0.876,0.706,1.783,1.435,2.756,2.148
		c0.815,0.599,1.476,1.018,2.059,1.388c1.113,0.706,2.075,1.316,3.47,2.739c0.506,0.517,1.075,1.056,1.685,1.633
		C218.195,124.425,219.51,125.67,220.806,127.15z M136.985,153.188c0.38,1.838,1.231,9.968-1.925,13.237
		c-0.849,0.879-1.923,1.331-3.143,1.331c-0.293,0-0.595-0.026-0.905-0.079l0.336-1.972c0.953,0.162,1.675-0.051,2.273-0.67
		c2.212-2.291,1.906-9.021,1.406-11.441c-0.239-1.15-0.329-1.834-0.401-2.384c-0.114-0.87-0.166-1.267-0.763-2.755
		c-1.217-3.033-1.457-4.917-0.984-7.757l1.973,0.328c-0.407,2.451-0.205,4.012,0.868,6.684c0.661,1.649,0.755,2.215,0.889,3.24
		C136.676,151.467,136.76,152.11,136.985,153.188z M217.636,194.705l0.57,1.918c-6.251,1.857-7.179,6.155-8.462,12.104l-0.104,0.479
		l-1.955-0.424l0.104-0.478C209.109,202.186,210.25,196.901,217.636,194.705z M201.567,207.257
		c-0.161,0.518-0.134,1.154-0.105,1.829c0.018,0.41,0.034,0.819,0.016,1.216c-0.032,0.723-0.176,1.346-0.314,1.947
		c-0.113,0.494-0.221,0.961-0.256,1.448c-0.19,2.653-0.974,5.308-2.326,7.89l-1.771-0.928c1.225-2.337,1.932-4.728,2.104-7.105
		c0.045-0.64,0.175-1.205,0.301-1.752c0.124-0.54,0.241-1.049,0.266-1.592c0.016-0.34,0-0.688-0.016-1.039
		c-0.033-0.777-0.071-1.658,0.193-2.508L201.567,207.257z M141.18,301.916c0.331,1.183-0.003,3.512-1.258,4.334l-0.548-0.836
		l-0.551-0.834c0.28-0.212,0.619-1.456,0.433-2.122c-0.134-0.472-0.292-0.568-1.664-0.509c-0.239,0.011-0.48,0.021-0.718,0.021v-2
		c0.21,0,0.422-0.01,0.633-0.019C138.655,299.901,140.586,299.819,141.18,301.916z"/>
</g>
</svg>
