<svg xmlns="http://www.w3.org/2000/svg" viewBox="0 0 142.86 167.76">
  <defs>
    <style>
      path {
        fill: none;
        stroke: #000;
        stroke-miterlimit: 10;
      }
    </style>
  </defs>
  <title>Smilodon californicus</title>
  <metadata>
        <phyloxml xmlns:xsi="http://www.w3.org/2001/XMLSchema-instance" xmlns="http://www.phyloxml.org" xsi:schemaLocation="http://www.phyloxml.org http://www.phyloxml.org/1.10/phyloxml.xsd">
            <phylogeny rooted="true" rerootable="false">
                <clade>
                    <name>Animalia</name>
                    <clade>
                        <name>Chordata</name>
                        <clade>
                            <name>Mammalia</name>
                            <clade>
                                <name>Carnivora</name>
                                <clade>
                                    <name>Feliformia</name>
                                    <clade>
                                        <name>Felidae</name>
                                        <clade>
                                            <name>Machairodontinae</name>
                                            <clade>
                                                <name>Smilodontini</name>
                                                <clade>
                                                    <name>Smilodon</name>
                                                </clade>
                                            </clade>
                                        </clade>
                                    </clade>
                                </clade>
                            </clade>
                        </clade>
                    </clade>
                </clade>
            </phylogeny>
        </phyloxml>
    </metadata>
  <g class="outline">
    <path class="cls-1" d="M453.79,246.75c-4.43,1.18-8.46,3.05-13,4a31.78,31.78,0,0,0-13,5.87A48.72,48.72,0,0,1,415.49,263c-2.64.93-5.38,2.05-7.87,3s-5.28,1.83-8,2.76c-5.25,1.77-8.41,4-12.39,8.07-1.87,1.91-3.94,4.38-6.34,5.59s-6.95,3.88-8.83,5.75c-2.08,2.05-1.25,3.11-2.19,5.64-.46,1.26-2.92,3.52-3,4.86-.25,5.75-.54,10.05-5.33,14.25a64.85,64.85,0,0,1-5.83,4.75,17.56,17.56,0,0,0-4.18,4.33c-1.33,1.71-3.1,3.05-3.49,5.25a28.33,28.33,0,0,0,0,6.7c.17,1.91,1.92,6.13,2.67,6,1-.22,2.46,2.29,3.83,2.66.42.12,1.09.24,1.08-.41.42-1.25-.58-7,1.75-10.84.1-.15,4.09-.75,4.17.34.19,2.44.08,4.91.08,9.16a95.25,95.25,0,0,0,.92,14.17,68.42,68.42,0,0,0,4,12.71c-2,.11-2.87-1.21-4.56-2.29a6.72,6.72,0,0,0-.09,4.33,19.68,19.68,0,0,0-2-.47,3.67,3.67,0,0,0-.12,2.16c-.5-.06-.65-.06-1-.11.24,1.62,2.27,4.3,3.59,5.35a44,44,0,0,0,4.91,3.32,17.34,17.34,0,0,0,6.37,2.35c.19,0,2.69,3.88,3.4,4.92.95,1.4,1.9,2.77,3,4.08,2.09,2.54,3.81,5.21,5.92,7.29,4.14,4.1,11.64,11.05,13.61,9.83.87-.74,1.1-3.08-.19-5.47-1.05-1.95-1.95-3.73-2.9-5.9s-3.88-9.45-3.61-9.83a32.31,32.31,0,0,1,6.93-7.13,25.69,25.69,0,0,1,4-2.18c1.06-.44,2.37-1.32,3.24-1.67.21-.08,3.85-2.06,4.16-2.26a104.06,104.06,0,0,0,10.32-7.27c5.28-4.25,11.56-11.58,15-16.12,2-2.57,6.09-7.79,7.61-7.91a7,7,0,0,0,6.21-4.57c.69-4.35-.95-4.74-1-8.62,0-1.26-.85-1.25-.4-2.27.3-.68,2.3-.82,2.34-1.77.12-3.11,1.37-2.34,1.76-3.79.34-3.38-.37-3.55-.41-5.65,0-1.78-.19-4.33.33-4.5.64,1.33,2.58,1.28,4,1.14s4.29-.13,4.83-.43c2.6-.49,2.41-2.45,4-4.1.28-.3,2.59-.23,4.95-3,1.55-1.8,2.36-3.64,4.16-5.33a50.12,50.12,0,0,1,4.36-4.09c1.67-1.74,2.15.56,6.67-.74,2.68-.77,3.67-3.39,3.78-5.81a10.66,10.66,0,0,0-1.9-7.19c-1-1.42-2.11-3-3.3-3.44-.4.09.12-2.76-.85-3-1.09-3.17.17-5.05-.81-7.74-1.31-3.62-1.3-4.06-.54-7.51a41.1,41.1,0,0,0,1.64-10.63C484.26,235.5,462.48,244.43,453.79,246.75Z" transform="translate(-347.34 -241.35)"/>
  </g>
  <g class="skull">
    <path class="base cls-1" d="M386.21,369.5c1.89.06,2.53-.75,3.86-1.4a31.09,31.09,0,0,0,4-1.88c2.73-1.84,5.49-3.83,7.3-6.55,1.47-2.2,2.11-5,4.5-6.25,1-.49,3-.73,3.67-1.62s.3-2.51.36-3.57c1.63-.24,3.4,0,4.67-1.25s1.09-2.87,2.1-3.85c1.43-1.4,2.38-1.65,2.67-3.79s.19-2.34,1.8-3.54c2.62-1.95,2.06-4.31,2.53-7.3.25-1.64.25-3.94.81-5.5.81-2.25,2.31-3.5,3.52-5.71a17.7,17.7,0,0,0-5.76.17c-3.27,1-3.7,2.62-4.86,5.18a2.77,2.77,0,0,1,1.41,2,13.45,13.45,0,0,1-.19,4.94c-1.09,1.91-1.79,1.73-3.53,1.23s-3.8-1.72-5.86-1.62c-1.75.08-2.9.93-4.5,1.16-1.88.28-3.64,0-5.49.33-1.58.25-3.58.61-5.19,1s-2.41,1.45-4,1-2.14-1.82-3.82-1.85c-1,0-2.89.63-3.34,1.67a45.62,45.62,0,0,1-10.2-1c-1.92-.46-4.27-1.21-6.31-1-1.56.13-3.17.8-4.87.72-.08-1.09-4.12.11-4.12.11a15,15,0,0,0-3.79-1.82,4.74,4.74,0,0,0-3.39.09c-.94-2.2-2.27-.71-2.15-2.35.14-1.9,2.16-3.54,3.49-5.25a17.56,17.56,0,0,1,4.18-4.33,64.85,64.85,0,0,0,5.83-4.75c4.79-4.2,5.08-8.5,5.33-14.25.06-1.34,2.52-3.6,3-4.86.94-2.53.11-3.59,2.19-5.64,1.88-1.87,6.47-4.56,8.83-5.75s4.47-3.68,6.34-5.59c4-4.05,7.14-6.3,12.39-8.07,2.74-.93,5.46-1.78,8-2.76s5.23-2.07,7.87-3a48.72,48.72,0,0,0,12.33-6.37,31.78,31.78,0,0,1,13-5.87c4.55-1,8.58-2.83,13-4,8.69-2.32,30.47-11.25,30.13,3a41.1,41.1,0,0,1-1.64,10.63c-.76,3.45-.77,3.89.54,7.51,1,2.69-.28,4.57.81,7.74,1,.22.45,3.07.85,3,1.19.46,2.25,2,3.3,3.44a10.66,10.66,0,0,1,1.9,7.19c-.11,2.42-1.1,5-3.78,5.81-4.52,1.3-5-1-6.67.74a50.12,50.12,0,0,0-4.36,4.09c-1.8,1.69-2.61,3.53-4.16,5.33-2.36,2.75-4.67,2.68-4.95,3-1.57,1.65-1.38,3.61-4,4.1-.54.3-3.27.28-4.83.43s-3.38.19-4-1.14c-.52.17-.36,2.72-.33,4.5,0,2.1.75,2.27.41,5.65-.39,1.45-1.64.68-1.76,3.79,0,.95-2,1.09-2.34,1.77-.45,1,.38,1,.4,2.27.05,3.88,1.55,3.92.86,8.27a6.94,6.94,0,0,1-6.07,4.92c-1.52.12-5.53,5.16-7.49,7.72-3.45,4.55-9.62,11.7-14.9,15.94a107.84,107.84,0,0,1-10.5,7.52c-.31.2-3.95,2.3-4.16,2.38-.87.35-3.21,1.45-4.27,1.89a17.26,17.26,0,0,0-3.24,2,33.91,33.91,0,0,0-7,7.37c-.79-2.22-2.61-6.05-3.34-8.31C388.41,376.68,386.78,372.28,386.21,369.5Z" transform="translate(-347.34 -241.35)"/>
    <path class="base cls-1" d="M367.21,380a17.74,17.74,0,0,0,6.47,2.33c-.53-.88-2-3.27-2.64-4.7a11.52,11.52,0,0,1-5.54-2.46,12.9,12.9,0,0,1-2.27,2.24A29,29,0,0,0,367.21,380Z" transform="translate(-347.34 -241.35)"/>
    <path class="cls-1" d="M434.54,298.5a5.69,5.69,0,0,0-1.22-1.49,30,30,0,0,0-2.33-2.07,13.37,13.37,0,0,0-2.19-2.06c-1.88-1.38-3.13-2.82-5.63-3.44" transform="translate(-347.34 -241.35)"/>
    <path class="cls-1" d="M394.87,303a5.32,5.32,0,0,0,.42,3.25,9.34,9.34,0,0,1,.55,2.39c.3,1.48.51,6.44-2.17,6" transform="translate(-347.34 -241.35)"/>
    <path class="cls-1" d="M482,247.33a33.59,33.59,0,0,1-1.57,9.25c-.38,1.22-1.45,2.29-1.84,3.42a12.68,12.68,0,0,0-.26,2.5,11,11,0,0,1-.47,2.2c-.3,1.49-.16,3-.52,4.46a19.72,19.72,0,0,1-1.33,4.18c-1.57,3.27-2.91,4.9-4,8.22-.59,1.78-.51,3.87-1.41,5.5a59.87,59.87,0,0,1-4.58,6.23,24.12,24.12,0,0,0-1.56,2.66c-.68,1.25-1.76,2.46-2.12,3.89a23.21,23.21,0,0,0-.33,5.66" transform="translate(-347.34 -241.35)"/>
    <path class="cls-1" d="M479.56,295.4c3.3-2.48,2.36-5,1.18-7.28-.82-1.61.62-2.6.81-4.28a8.17,8.17,0,0,0,0-2.47c-.19-.72-1-.73-.8-1.87.27-1.56,2.48-2,4-.78" transform="translate(-347.34 -241.35)"/>
    <path class="cls-1" d="M460.87,293.33c-.75.24-.62.8-1.21,1.12a4.1,4.1,0,0,1-2.12.38c-1.54.07-3.07-.25-4.25.47a10.67,10.67,0,0,0-3.75,3.5c-.7,1.42-.85,3-1.87,4.26a17.31,17.31,0,0,1-3.18,3.11c-1.71,1.15-2.86,1-4.21-.12-2.21-1.79-4.29-4.66-7.39-4.52-2.24.11-3.44,1.31-5.8,1.35-2.16,0-5.13-.05-7.09-1.1-.29-.91-2.46-2.07-3.36-2.75s-.88-1.22-2.26-1.16a3.81,3.81,0,0,0-2.26.91,15.32,15.32,0,0,0-3.09,2.84c-.82,1-1.9,3.12-3.2,3.76-3.12,1.55-5.59-1.21-6.7-3.84a12.55,12.55,0,0,1-1-4.22c-.19-2.32.76-5.47,1.71-7.76,1.86-4.51,3.09-10.22,8.61-11.36,2-.41,2.67.63,4.33,1.16,1.18.38,1.73-.23,2.63.8a13.6,13.6,0,0,0,2.12,2.17" transform="translate(-347.34 -241.35)"/>
    <path class="cls-1" d="M413.79,272.56a38.82,38.82,0,0,1,.71,7.17" transform="translate(-347.34 -241.35)"/>
    <path class="cls-1" d="M403.42,272.94c-1.34,2,0,4.31-.82,6.44-.46,1.18.29,2.05-.13,3.83" transform="translate(-347.34 -241.35)"/>
    <path class="cls-1" d="M462.47,299.61c-.14.7,1.6,3.41,1.94,4.35.51,1.41,1.27,2.6,1.3,4.21" transform="translate(-347.34 -241.35)"/>
    <path class="cls-1" d="M481.21,293.7c.12-1.85-4.21-5.52-5.67-5.37" transform="translate(-347.34 -241.35)"/>
    <path class="cls-1" d="M437.84,320.1a29.09,29.09,0,0,0-4.8-7.6c-1.08-1.3-2.06-1.81-3.5-3.31-.82-.86-2.44-2.32-3.19-3.07-.56-1-2-2.12-2.4-3.13" transform="translate(-347.34 -241.35)"/>
    <path class="cls-1" d="M426.21,311.83c-2.26,0-4.31-.22-6.26.74a22,22,0,0,0-3.92,3c-2,1.59-3.08,5.26-5.32,6.45" transform="translate(-347.34 -241.35)"/>
    <path class="cls-1" d="M452.1,322.94c-1.81.88-2.39-1.71-3.71-2.12-2.05-.64-3.84,1.13-5.73,1.18a7.12,7.12,0,0,1-4.58-1.6,12.16,12.16,0,0,0-4.34-2.24,42.38,42.38,0,0,0-6-1.05,16,16,0,0,0-5.46.35c-3.27,1-4.62,3.91-5.66,6.79a4.91,4.91,0,0,1-.71,1.58" transform="translate(-347.34 -241.35)"/>
    <path class="cls-1" d="M415.07,330.79c1.74.5,2.44.68,3.53-1.23a11.92,11.92,0,0,0,.19-4.94c-.47-1.67-1-1.65-2.37-2.27-2.6-1.18-4.38-2-5.21-5-.45-1.62-.95-1.64-2.17-2.83a24.21,24.21,0,0,0-2.69-1.69,17.66,17.66,0,0,1-2.12-1.62c-.92-.92-1.83-1.47-2.81-2.31a4.05,4.05,0,0,1-1.39-4.56c0-.12.2-.84.32-.82" transform="translate(-347.34 -241.35)"/>
    <path class="cls-1" d="M401.54,272.17c-1.37.9-2.82.69-4,1.63a27.45,27.45,0,0,1-4.59,2.6,26,26,0,0,0-4.22,3.52c-1,.86-2.46,1.71-4,2.83a32.15,32.15,0,0,1-5.06,3.81,23.59,23.59,0,0,0-4.37,4.11,30.31,30.31,0,0,1-4,4.33,26.33,26.33,0,0,0-4.65,6.26" transform="translate(-347.34 -241.35)"/>
    <path class="cls-1" d="M441,322.05c-2.78,2.69-7.06-.67-5.74-3.72" transform="translate(-347.34 -241.35)"/>
    <path class="cls-1" d="M432.71,327.67c-3.15.93-3.57,3.23-4.17,6" transform="translate(-347.34 -241.35)"/>
    <path class="cls-1" d="M447.37,326.67c.17,2.28-1.11,5.95-2.2,7.95a43.12,43.12,0,0,1-4.5,6.57c-3.61,4.37-8.76,6.48-13.13,10" transform="translate(-347.34 -241.35)"/>
    <path class="cls-1" d="M452.67,312.12c.58-2.09,1.47-3.51,1.37-5.8,0-1-.2-1.87-.17-2.82,0-.78.12-3.57.67-4s1.56-.94,2.25-.06a4.35,4.35,0,0,1,.42,3.36c-.48,1.14-1.72,4.53-.5,5.37" transform="translate(-347.34 -241.35)"/>
    <path class="cls-1" d="M424.92,332.75a5.64,5.64,0,0,0-.06,1.48c0,.55-.22,1-.26,1.52a8.61,8.61,0,0,1-1,3.37" transform="translate(-347.34 -241.35)"/>
    <path class="cls-1" d="M397.35,377.06a1.6,1.6,0,0,0,.38-1.45c-.2-.72-.88-.55-1.5-.55" transform="translate(-347.34 -241.35)"/>
    <path class="cls-1" d="M382.21,285c-1.48,4.63-3.61,6.56-6.42,8.88-.06.12-2,2.16-2,2.31a14.86,14.86,0,0,0-3.42,5.83c-1,2.85-2.47,5.63-3.37,8.47-.74,2.34-1.17,4.27-1.72,6.68-.27,1.16-.68,2.68-1,3.84a20.37,20.37,0,0,1-1.4,3.09c-.87,1.25-1.44,5.58-1.36,7.12" transform="translate(-347.34 -241.35)"/>
  </g>
  <g class="teeth">
    <path class="cls-1" d="M410,347.83c-.81-1.7-2.44-2.71-3.83-4" transform="translate(-347.34 -241.35)"/>
    <path class="cls-1" d="M350.17,329.31c0,.5-.3,2.24-.32,2.63a20.38,20.38,0,0,0,.07,3.12,11.93,11.93,0,0,0,2.2,5.61" transform="translate(-347.34 -241.35)"/>
    <path class="cls-1" d="M359.79,371.5a15.47,15.47,0,0,0,2.13,3.13c.61.64,1.43,1.18,2.25,1.87" transform="translate(-347.34 -241.35)"/>
    <path class="cls-1" d="M357.37,331.33a14.53,14.53,0,0,0-4.58-1.95,3.32,3.32,0,0,0-2.42.31,4.91,4.91,0,0,0-.7-1.19,2.15,2.15,0,0,0-1.5-.31A21,21,0,0,0,348,334c.17,1.91,1.92,6.13,2.67,6,1-.22,2.46,2.29,3.83,2.66.42.12,1.06.21,1.08-.41C356,340.92,355,335.17,357.37,331.33Z" transform="translate(-347.34 -241.35)"/>
    <path class="cls-1" d="M393.57,336.1c.7,0,2.44-.44,2.9-1.14s-.49-4.21.23-3.54c1.86,2.09,3.61,5.41,4.4,5.58,1.61-.05,1.57-.34,2.23-1.31.6.82,2.84,3,4,3.06.85,0,1.77-1.19,1.92-1.75.22-.86-.07-2,.07-2.83s2.21,2.38,3.32,2.46,2.75-1.82,5-.32c0-1.31.22-3.56-.41-4.87-2.24,0-5.92-2.37-8-2.27-1.75.08-2.9.93-4.5,1.16-1.88.28-3.64,0-5.49.33-1.58.25-6.4,1.23-8,2.22C392,334.31,392.48,335.63,393.57,336.1Zm19.78.46c-3.68.57-.87,6.25-1.87,5.63-2.1-2.88-2.6-2.14-4.5-2.06-.06,1.23-.73,2.62-.63,3.84-1.08.07-2.15-.28-2.31,1-.09.71,1.2,1.31.75,1.5-2.14-.73-4.57-2.89-4.37-.12.12,1.75.56,5.68,0,5.51-.51-.37-1.16-1.51-1.47-.95-.41,1.41.46,2.74,1.12,3.81a21.83,21.83,0,0,0,2.44,2.88c1.46-2.2,1-3,3.39-4.21,1-.49,3-.73,3.67-1.62s.3-2.51.36-3.57c1.63-.24,3.4,0,4.67-1.25s1.09-2.87,2.1-3.85c1.43-1.4,2.38-1.65,2.67-3.79s0-2.17,0-2.17A10.16,10.16,0,0,0,413.35,336.56Z" transform="translate(-347.34 -241.35)"/>
    <path class="cls-1" d="M366.29,367.13A62.41,62.41,0,0,1,362.54,355a95.25,95.25,0,0,1-.92-14.17c0-4.25.06-7.17-.13-9.61,1.7.08,3.31-.59,4.87-.72,2-.17,4.39.58,6.31,1a45.62,45.62,0,0,0,10.2,1c-.35,3.06-.41,5.85-.64,8.75a56.5,56.5,0,0,0,.19,13.06,161,161,0,0,0,5.81,22.25c.68,2.16,1.77,4.71,2.62,6.69.69,1.6,1.36,3.13,1.74,4.18,0,0,2.81,7.4,3.81,9.67s1.85,3.95,2.9,5.9c1.29,2.39,1.06,4.73.19,5.47-2,1.22-9.47-5.73-13.61-9.83-2.11-2.08-3.83-4.75-5.92-7.29-1.08-1.31-2-2.68-3-4.08-.71-1-2.23-3.25-2.45-3.69l-.83-1.32c-.55-.83-3.16-5.41-3.66-6.57C369.45,374.33,366.73,368.5,366.29,367.13Z" transform="translate(-347.34 -241.35)"/>
    <path class="cls-1" d="M365.55,375.07a9.32,9.32,0,0,1-2.4,2.27l-.85-.66c-1.32-1.05-3.35-3.73-3.59-5.35.35.05.5.05,1,.11a3.67,3.67,0,0,1,.12-2.16,19.68,19.68,0,0,1,2,.47,6.72,6.72,0,0,1,.09-4.33c1.69,1.08,2.51,2.4,4.56,2.29.43,1.38,3.16,7.17,4.52,9.92A10.43,10.43,0,0,1,365.55,375.07Z" transform="translate(-347.34 -241.35)"/>
    <path class="cls-1" d="M365.54,375c-1.3-.88-3.24-4.22-3.69-5.41" transform="translate(-347.34 -241.35)"/>
  </g>
</svg>
